M48
; DRILL file {KiCad 9.0.7} date 2026-02-08T22:38:57+0200
; FORMAT={-:-/ absolute / inch / decimal}
; #@! TF.CreationDate,2026-02-08T22:38:57+02:00
; #@! TF.GenerationSoftware,Kicad,Pcbnew,9.0.7
; #@! TF.FileFunction,Plated,1,2,PTH
FMAT,2
INCH
; #@! TA.AperFunction,Plated,PTH,ViaDrill
T1C0.0118
; #@! TA.AperFunction,Plated,PTH,ComponentDrill
T2C0.0157
; #@! TA.AperFunction,Plated,PTH,ComponentDrill
T3C0.0295
; #@! TA.AperFunction,Plated,PTH,ComponentDrill
T4C0.0390
; #@! TA.AperFunction,Plated,PTH,ComponentDrill
T5C0.0394
; #@! TA.AperFunction,Plated,PTH,ComponentDrill
T6C0.0430
; #@! TA.AperFunction,Plated,PTH,ComponentDrill
T7C0.0866
%
G90
G05
T1
X5.7606Y-4.5787
X5.7646Y-4.8657
X5.7717Y-4.9307
X6.1858Y-5.2598
T2
X5.4059Y-7.6478
X5.4249Y-7.6019
X5.4249Y-7.6938
X5.4709Y-7.5829
X5.4709Y-7.7128
X5.5168Y-7.6019
X5.5168Y-7.6938
X5.5239Y-6.1303
X5.5358Y-7.6478
X5.5429Y-6.0844
X5.5429Y-6.1762
X5.5889Y-6.0654
X5.5889Y-6.1953
X5.6348Y-6.0844
X5.6348Y-6.1762
X5.6538Y-6.1303
X6.2845Y-6.9019
X6.291Y-6.8526
X6.3148Y-6.9413
X6.3304Y-6.8223
X6.3641Y-6.9478
X6.3797Y-6.8288
X6.4035Y-6.9176
X6.41Y-6.8683
X6.9864Y-4.6069
X6.9864Y-5.5069
X7.0054Y-4.561
X7.0054Y-4.6528
X7.0054Y-5.461
X7.0054Y-5.5528
X7.0514Y-4.5419
X7.0514Y-4.6719
X7.0514Y-5.4419
X7.0514Y-5.5719
X7.0973Y-4.561
X7.0973Y-4.6528
X7.0973Y-5.461
X7.0973Y-5.5528
X7.1163Y-4.6069
X7.1163Y-5.5069
X9.2364Y-4.8037
X9.2364Y-5.5537
X9.2554Y-4.7578
X9.2554Y-4.8497
X9.2554Y-5.5078
X9.2554Y-5.5997
X9.3014Y-4.7388
X9.3014Y-4.8687
X9.3014Y-5.4888
X9.3014Y-5.6187
X9.3473Y-4.7578
X9.3473Y-4.8497
X9.3473Y-5.5078
X9.3473Y-5.5997
X9.3663Y-4.8037
X9.3663Y-5.5537
X10.2864Y-5.7262
X10.3054Y-5.6803
X10.3054Y-5.7722
X10.3514Y-5.6613
X10.3514Y-5.7912
X10.3614Y-4.8037
X10.3804Y-4.7578
X10.3804Y-4.8497
X10.3973Y-5.6803
X10.3973Y-5.7722
X10.4163Y-5.7262
X10.4264Y-4.7388
X10.4264Y-4.8687
X10.4723Y-4.7578
X10.4723Y-4.8497
X10.4913Y-4.8037
T3
X5.2177Y-5.4812
X5.2965Y-5.4812
T4
X5.2388Y-7.6677
X5.451Y-7.8799
X5.9587Y-7.0768
X6.1515Y-7.3066
X6.5264Y-4.6772
X6.5264Y-5.4272
X6.5264Y-6.1772
X6.8187Y-7.1955
X6.8264Y-4.6772
X6.8264Y-5.4272
X6.8264Y-6.1772
X7.1084Y-7.1179
X7.2764Y-4.5787
X7.2764Y-5.3287
X7.2764Y-6.0787
X7.5764Y-4.5787
X7.5764Y-5.3287
X7.5764Y-6.0787
X8.0264Y-4.4803
X8.0264Y-5.2303
X8.0264Y-5.9803
X8.3264Y-4.4803
X8.3264Y-5.2303
X8.3264Y-5.9803
X8.7764Y-4.5787
X8.7764Y-5.3287
X8.7764Y-6.0787
X9.0764Y-4.5787
X9.0764Y-5.3287
X9.0764Y-6.0787
X9.5264Y-4.7756
X9.5264Y-5.5256
X9.5264Y-6.2756
X9.8264Y-4.7756
X9.8264Y-5.5256
X9.8264Y-6.2756
X10.2764Y-5.5256
X10.2764Y-6.2756
X10.5764Y-5.5256
X10.5764Y-6.2756
T5
X5.5689Y-5.6309
X5.6689Y-5.6309
X5.7689Y-5.6309
X5.8689Y-5.6309
X5.9689Y-5.6309
T6
X5.4689Y-4.2266
X5.4689Y-4.3266
X5.4689Y-4.4266
X5.4689Y-4.5266
X5.4689Y-4.6266
X5.4689Y-4.7266
X5.4689Y-4.8266
X5.4689Y-4.9266
X5.4689Y-5.0266
X5.4689Y-5.1266
X5.4689Y-5.2266
X5.4689Y-5.3266
X6.0689Y-4.2266
X6.0689Y-4.3266
X6.0689Y-4.4266
X6.0689Y-4.5266
X6.0689Y-4.6266
X6.0689Y-4.7266
X6.0689Y-4.8266
X6.0689Y-4.9266
X6.0689Y-5.0266
X6.0689Y-5.1266
X6.0689Y-5.2266
X6.0689Y-5.3266
T7
X5.4709Y-7.6478
X5.5889Y-6.1303
X6.3473Y-6.8851
X7.0514Y-4.6069
X7.0514Y-5.5069
X9.3014Y-4.8037
X9.3014Y-5.5537
X10.3514Y-5.7262
X10.4264Y-4.8037
M30
