%TF.GenerationSoftware,KiCad,Pcbnew,9.0.7*%
%TF.CreationDate,2026-02-08T22:38:48+02:00*%
%TF.ProjectId,juubo_right_unfinished,6a757562-6f5f-4726-9967-68745f756e66,v1.0.0*%
%TF.SameCoordinates,Original*%
%TF.FileFunction,Legend,Bot*%
%TF.FilePolarity,Positive*%
%FSLAX46Y46*%
G04 Gerber Fmt 4.6, Leading zero omitted, Abs format (unit mm)*
G04 Created by KiCad (PCBNEW 9.0.7) date 2026-02-08 22:38:48*
%MOMM*%
%LPD*%
G01*
G04 APERTURE LIST*
%ADD10C,0.150000*%
%ADD11C,0.100000*%
%ADD12R,1.752600X1.752600*%
%ADD13C,1.752600*%
G04 APERTURE END LIST*
D10*
%TO.C,T1*%
X143230000Y-103460500D02*
X143230000Y-106310500D01*
X143230000Y-106310500D02*
X149830000Y-106310500D01*
X146530000Y-103460500D02*
X143230000Y-103460500D01*
X146530000Y-103460500D02*
X149830000Y-103460500D01*
X148480000Y-103460500D02*
X144580000Y-103460500D01*
X149830000Y-106310500D02*
X149830000Y-103460500D01*
D11*
%TO.C,D9*%
X206930000Y-151900000D02*
X207330000Y-151900000D01*
X207330000Y-151900000D02*
X207330000Y-151350000D01*
X207330000Y-151900000D02*
X207330000Y-152450000D01*
X207330000Y-151900000D02*
X207930000Y-151500000D01*
X207930000Y-151500000D02*
X207930000Y-152300000D01*
X207930000Y-151900000D02*
X208430000Y-151900000D01*
X207930000Y-152300000D02*
X207330000Y-151900000D01*
%TO.C,D6*%
X225980000Y-154400000D02*
X226380000Y-154400000D01*
X226380000Y-154400000D02*
X226380000Y-153850000D01*
X226380000Y-154400000D02*
X226380000Y-154950000D01*
X226380000Y-154400000D02*
X226980000Y-154000000D01*
X226980000Y-154000000D02*
X226980000Y-154800000D01*
X226980000Y-154400000D02*
X227480000Y-154400000D01*
X226980000Y-154800000D02*
X226380000Y-154400000D01*
%TO.C,D4*%
X245030000Y-140350000D02*
X245430000Y-140350000D01*
X245430000Y-140350000D02*
X245430000Y-139800000D01*
X245430000Y-140350000D02*
X245430000Y-140900000D01*
X245430000Y-140350000D02*
X246030000Y-139950000D01*
X246030000Y-139950000D02*
X246030000Y-140750000D01*
X246030000Y-140350000D02*
X246530000Y-140350000D01*
X246030000Y-140750000D02*
X245430000Y-140350000D01*
%TO.C,D16*%
X168830000Y-137850000D02*
X169230000Y-137850000D01*
X169230000Y-137850000D02*
X169230000Y-137300000D01*
X169230000Y-137850000D02*
X169230000Y-138400000D01*
X169230000Y-137850000D02*
X169830000Y-137450000D01*
X169830000Y-137450000D02*
X169830000Y-138250000D01*
X169830000Y-137850000D02*
X170330000Y-137850000D01*
X169830000Y-138250000D02*
X169230000Y-137850000D01*
%TO.C,D15*%
X168830000Y-156900000D02*
X169230000Y-156900000D01*
X169230000Y-156900000D02*
X169230000Y-156350000D01*
X169230000Y-156900000D02*
X169230000Y-157450000D01*
X169230000Y-156900000D02*
X169830000Y-156500000D01*
X169830000Y-156500000D02*
X169830000Y-157300000D01*
X169830000Y-156900000D02*
X170330000Y-156900000D01*
X169830000Y-157300000D02*
X169230000Y-156900000D01*
%TO.C,D13*%
X187880000Y-135350000D02*
X188280000Y-135350000D01*
X188280000Y-135350000D02*
X188280000Y-134800000D01*
X188280000Y-135350000D02*
X188280000Y-135900000D01*
X188280000Y-135350000D02*
X188880000Y-134950000D01*
X188880000Y-134950000D02*
X188880000Y-135750000D01*
X188880000Y-135350000D02*
X189380000Y-135350000D01*
X188880000Y-135750000D02*
X188280000Y-135350000D01*
%TO.C,D2*%
X264080000Y-140350000D02*
X264480000Y-140350000D01*
X264480000Y-140350000D02*
X264480000Y-139800000D01*
X264480000Y-140350000D02*
X264480000Y-140900000D01*
X264480000Y-140350000D02*
X265080000Y-139950000D01*
X265080000Y-139950000D02*
X265080000Y-140750000D01*
X265080000Y-140350000D02*
X265580000Y-140350000D01*
X265080000Y-140750000D02*
X264480000Y-140350000D01*
%TO.C,D7*%
X225980000Y-135350000D02*
X226380000Y-135350000D01*
X226380000Y-135350000D02*
X226380000Y-134800000D01*
X226380000Y-135350000D02*
X226380000Y-135900000D01*
X226380000Y-135350000D02*
X226980000Y-134950000D01*
X226980000Y-134950000D02*
X226980000Y-135750000D01*
X226980000Y-135350000D02*
X227480000Y-135350000D01*
X226980000Y-135750000D02*
X226380000Y-135350000D01*
%TO.C,D10*%
X206930000Y-132850000D02*
X207330000Y-132850000D01*
X207330000Y-132850000D02*
X207330000Y-132300000D01*
X207330000Y-132850000D02*
X207330000Y-133400000D01*
X207330000Y-132850000D02*
X207930000Y-132450000D01*
X207930000Y-132450000D02*
X207930000Y-133250000D01*
X207930000Y-132850000D02*
X208430000Y-132850000D01*
X207930000Y-133250000D02*
X207330000Y-132850000D01*
%TO.C,D3*%
X245030000Y-159400000D02*
X245430000Y-159400000D01*
X245430000Y-159400000D02*
X245430000Y-158850000D01*
X245430000Y-159400000D02*
X245430000Y-159950000D01*
X245430000Y-159400000D02*
X246030000Y-159000000D01*
X246030000Y-159000000D02*
X246030000Y-159800000D01*
X246030000Y-159400000D02*
X246530000Y-159400000D01*
X246030000Y-159800000D02*
X245430000Y-159400000D01*
%TO.C,D8*%
X225980000Y-116300000D02*
X226380000Y-116300000D01*
X226380000Y-116300000D02*
X226380000Y-115750000D01*
X226380000Y-116300000D02*
X226380000Y-116850000D01*
X226380000Y-116300000D02*
X226980000Y-115900000D01*
X226980000Y-115900000D02*
X226980000Y-116700000D01*
X226980000Y-116300000D02*
X227480000Y-116300000D01*
X226980000Y-116700000D02*
X226380000Y-116300000D01*
%TO.C,D19*%
X153332452Y-182734573D02*
X153945288Y-182220343D01*
X153638870Y-182477458D02*
X153317476Y-182094436D01*
X153945288Y-182220343D02*
X154024543Y-182937085D01*
X154024543Y-182937085D02*
X153332452Y-182734573D01*
X154024543Y-182937085D02*
X153603218Y-183290618D01*
X154024543Y-182937085D02*
X154445867Y-182583551D01*
X154281658Y-183243502D02*
X154024543Y-182937085D01*
%TO.C,D1*%
X264080000Y-159400000D02*
X264480000Y-159400000D01*
X264480000Y-159400000D02*
X264480000Y-158850000D01*
X264480000Y-159400000D02*
X264480000Y-159950000D01*
X264480000Y-159400000D02*
X265080000Y-159000000D01*
X265080000Y-159000000D02*
X265080000Y-159800000D01*
X265080000Y-159400000D02*
X265580000Y-159400000D01*
X265080000Y-159800000D02*
X264480000Y-159400000D01*
%TO.C,D17*%
X168830000Y-118800000D02*
X169230000Y-118800000D01*
X169230000Y-118800000D02*
X169230000Y-118250000D01*
X169230000Y-118800000D02*
X169230000Y-119350000D01*
X169230000Y-118800000D02*
X169830000Y-118400000D01*
X169830000Y-118400000D02*
X169830000Y-119200000D01*
X169830000Y-118800000D02*
X170330000Y-118800000D01*
X169830000Y-119200000D02*
X169230000Y-118800000D01*
%TO.C,D12*%
X187880000Y-154400000D02*
X188280000Y-154400000D01*
X188280000Y-154400000D02*
X188280000Y-153850000D01*
X188280000Y-154400000D02*
X188280000Y-154950000D01*
X188280000Y-154400000D02*
X188880000Y-154000000D01*
X188880000Y-154000000D02*
X188880000Y-154800000D01*
X188880000Y-154400000D02*
X189380000Y-154400000D01*
X188880000Y-154800000D02*
X188280000Y-154400000D01*
%TO.C,D20*%
X135300711Y-197560838D02*
X135866396Y-196995153D01*
X135583553Y-197277995D02*
X135230000Y-196924442D01*
X135866396Y-196995153D02*
X136007817Y-197702259D01*
X136007817Y-197702259D02*
X135300711Y-197560838D01*
X136007817Y-197702259D02*
X135618909Y-198091168D01*
X136007817Y-197702259D02*
X136396726Y-197313351D01*
X136290660Y-197985102D02*
X136007817Y-197702259D01*
%TO.C,D11*%
X206930000Y-113800000D02*
X207330000Y-113800000D01*
X207330000Y-113800000D02*
X207330000Y-113250000D01*
X207330000Y-113800000D02*
X207330000Y-114350000D01*
X207330000Y-113800000D02*
X207930000Y-113400000D01*
X207930000Y-113400000D02*
X207930000Y-114200000D01*
X207930000Y-113800000D02*
X208430000Y-113800000D01*
X207930000Y-114200000D02*
X207330000Y-113800000D01*
%TO.C,D14*%
X187880000Y-116300000D02*
X188280000Y-116300000D01*
X188280000Y-116300000D02*
X188280000Y-115750000D01*
X188280000Y-116300000D02*
X188280000Y-116850000D01*
X188280000Y-116300000D02*
X188880000Y-115900000D01*
X188880000Y-115900000D02*
X188880000Y-116700000D01*
X188880000Y-116300000D02*
X189380000Y-116300000D01*
X188880000Y-116700000D02*
X188280000Y-116300000D01*
%TO.C,D5*%
X245030000Y-121300000D02*
X245430000Y-121300000D01*
X245430000Y-121300000D02*
X245430000Y-120750000D01*
X245430000Y-121300000D02*
X245430000Y-121850000D01*
X245430000Y-121300000D02*
X246030000Y-120900000D01*
X246030000Y-120900000D02*
X246030000Y-121700000D01*
X246030000Y-121300000D02*
X246530000Y-121300000D01*
X246030000Y-121700000D02*
X245430000Y-121300000D01*
%TO.C,D18*%
X176149651Y-181973743D02*
X176536021Y-181870216D01*
X176536021Y-181870216D02*
X176393670Y-181338955D01*
X176536021Y-181870216D02*
X176678371Y-182401475D01*
X176536021Y-181870216D02*
X177012049Y-181328554D01*
X177012049Y-181328554D02*
X177219104Y-182101295D01*
X177115576Y-181714924D02*
X177598539Y-181585515D01*
X177219104Y-182101295D02*
X176536021Y-181870216D01*
%TD*%
D12*
%TO.C,MCU1*%
X138910000Y-107355000D03*
D13*
X138910000Y-109895000D03*
X138910000Y-112435000D03*
X138910000Y-114975000D03*
X138910000Y-117515000D03*
X138910000Y-120055000D03*
X138910000Y-122595000D03*
X138910000Y-125135000D03*
X138910000Y-127675000D03*
X138910000Y-130215000D03*
X138910000Y-132755000D03*
X138910000Y-135295000D03*
X154150000Y-107355000D03*
X154150000Y-109895000D03*
X154150000Y-112435000D03*
X154150000Y-114975000D03*
X154150000Y-117515000D03*
X154150000Y-120055000D03*
X154150000Y-122595000D03*
X154150000Y-125135000D03*
X154150000Y-127675000D03*
X154150000Y-130215000D03*
X154150000Y-132755000D03*
X154150000Y-135295000D03*
%TD*%
M02*
