%TF.GenerationSoftware,KiCad,Pcbnew,9.0.7*%
%TF.CreationDate,2026-02-08T22:38:48+02:00*%
%TF.ProjectId,juubo_right_unfinished,6a757562-6f5f-4726-9967-68745f756e66,v1.0.0*%
%TF.SameCoordinates,Original*%
%TF.FileFunction,Legend,Top*%
%TF.FilePolarity,Positive*%
%FSLAX46Y46*%
G04 Gerber Fmt 4.6, Leading zero omitted, Abs format (unit mm)*
G04 Created by KiCad (PCBNEW 9.0.7) date 2026-02-08 22:38:48*
%MOMM*%
%LPD*%
G01*
G04 APERTURE LIST*
%ADD10C,0.150000*%
%ADD11C,0.100000*%
%ADD12C,0.120000*%
%ADD13R,1.752600X1.752600*%
%ADD14C,1.752600*%
G04 APERTURE END LIST*
D10*
X146134819Y-147685588D02*
X147134819Y-147352255D01*
X147134819Y-147352255D02*
X146134819Y-147018922D01*
X147039580Y-146114160D02*
X147087200Y-146161779D01*
X147087200Y-146161779D02*
X147134819Y-146304636D01*
X147134819Y-146304636D02*
X147134819Y-146399874D01*
X147134819Y-146399874D02*
X147087200Y-146542731D01*
X147087200Y-146542731D02*
X146991961Y-146637969D01*
X146991961Y-146637969D02*
X146896723Y-146685588D01*
X146896723Y-146685588D02*
X146706247Y-146733207D01*
X146706247Y-146733207D02*
X146563390Y-146733207D01*
X146563390Y-146733207D02*
X146372914Y-146685588D01*
X146372914Y-146685588D02*
X146277676Y-146637969D01*
X146277676Y-146637969D02*
X146182438Y-146542731D01*
X146182438Y-146542731D02*
X146134819Y-146399874D01*
X146134819Y-146399874D02*
X146134819Y-146304636D01*
X146134819Y-146304636D02*
X146182438Y-146161779D01*
X146182438Y-146161779D02*
X146230057Y-146114160D01*
X147039580Y-145114160D02*
X147087200Y-145161779D01*
X147087200Y-145161779D02*
X147134819Y-145304636D01*
X147134819Y-145304636D02*
X147134819Y-145399874D01*
X147134819Y-145399874D02*
X147087200Y-145542731D01*
X147087200Y-145542731D02*
X146991961Y-145637969D01*
X146991961Y-145637969D02*
X146896723Y-145685588D01*
X146896723Y-145685588D02*
X146706247Y-145733207D01*
X146706247Y-145733207D02*
X146563390Y-145733207D01*
X146563390Y-145733207D02*
X146372914Y-145685588D01*
X146372914Y-145685588D02*
X146277676Y-145637969D01*
X146277676Y-145637969D02*
X146182438Y-145542731D01*
X146182438Y-145542731D02*
X146134819Y-145399874D01*
X146134819Y-145399874D02*
X146134819Y-145304636D01*
X146134819Y-145304636D02*
X146182438Y-145161779D01*
X146182438Y-145161779D02*
X146230057Y-145114160D01*
X141904819Y-146637969D02*
X140904819Y-146637969D01*
X140904819Y-146637969D02*
X140904819Y-146257017D01*
X140904819Y-146257017D02*
X140952438Y-146161779D01*
X140952438Y-146161779D02*
X141000057Y-146114160D01*
X141000057Y-146114160D02*
X141095295Y-146066541D01*
X141095295Y-146066541D02*
X141238152Y-146066541D01*
X141238152Y-146066541D02*
X141333390Y-146114160D01*
X141333390Y-146114160D02*
X141381009Y-146161779D01*
X141381009Y-146161779D02*
X141428628Y-146257017D01*
X141428628Y-146257017D02*
X141428628Y-146637969D01*
X141000057Y-145685588D02*
X140952438Y-145637969D01*
X140952438Y-145637969D02*
X140904819Y-145542731D01*
X140904819Y-145542731D02*
X140904819Y-145304636D01*
X140904819Y-145304636D02*
X140952438Y-145209398D01*
X140952438Y-145209398D02*
X141000057Y-145161779D01*
X141000057Y-145161779D02*
X141095295Y-145114160D01*
X141095295Y-145114160D02*
X141190533Y-145114160D01*
X141190533Y-145114160D02*
X141333390Y-145161779D01*
X141333390Y-145161779D02*
X141904819Y-145733207D01*
X141904819Y-145733207D02*
X141904819Y-145114160D01*
X148652438Y-147209398D02*
X148604819Y-147304636D01*
X148604819Y-147304636D02*
X148604819Y-147447493D01*
X148604819Y-147447493D02*
X148652438Y-147590350D01*
X148652438Y-147590350D02*
X148747676Y-147685588D01*
X148747676Y-147685588D02*
X148842914Y-147733207D01*
X148842914Y-147733207D02*
X149033390Y-147780826D01*
X149033390Y-147780826D02*
X149176247Y-147780826D01*
X149176247Y-147780826D02*
X149366723Y-147733207D01*
X149366723Y-147733207D02*
X149461961Y-147685588D01*
X149461961Y-147685588D02*
X149557200Y-147590350D01*
X149557200Y-147590350D02*
X149604819Y-147447493D01*
X149604819Y-147447493D02*
X149604819Y-147352255D01*
X149604819Y-147352255D02*
X149557200Y-147209398D01*
X149557200Y-147209398D02*
X149509580Y-147161779D01*
X149509580Y-147161779D02*
X149176247Y-147161779D01*
X149176247Y-147161779D02*
X149176247Y-147352255D01*
X149604819Y-146733207D02*
X148604819Y-146733207D01*
X148604819Y-146733207D02*
X149604819Y-146161779D01*
X149604819Y-146161779D02*
X148604819Y-146161779D01*
X149604819Y-145685588D02*
X148604819Y-145685588D01*
X148604819Y-145685588D02*
X148604819Y-145447493D01*
X148604819Y-145447493D02*
X148652438Y-145304636D01*
X148652438Y-145304636D02*
X148747676Y-145209398D01*
X148747676Y-145209398D02*
X148842914Y-145161779D01*
X148842914Y-145161779D02*
X149033390Y-145114160D01*
X149033390Y-145114160D02*
X149176247Y-145114160D01*
X149176247Y-145114160D02*
X149366723Y-145161779D01*
X149366723Y-145161779D02*
X149461961Y-145209398D01*
X149461961Y-145209398D02*
X149557200Y-145304636D01*
X149557200Y-145304636D02*
X149604819Y-145447493D01*
X149604819Y-145447493D02*
X149604819Y-145685588D01*
X144504819Y-146637969D02*
X143504819Y-146637969D01*
X143504819Y-146637969D02*
X143504819Y-146257017D01*
X143504819Y-146257017D02*
X143552438Y-146161779D01*
X143552438Y-146161779D02*
X143600057Y-146114160D01*
X143600057Y-146114160D02*
X143695295Y-146066541D01*
X143695295Y-146066541D02*
X143838152Y-146066541D01*
X143838152Y-146066541D02*
X143933390Y-146114160D01*
X143933390Y-146114160D02*
X143981009Y-146161779D01*
X143981009Y-146161779D02*
X144028628Y-146257017D01*
X144028628Y-146257017D02*
X144028628Y-146637969D01*
X143504819Y-145733207D02*
X143504819Y-145114160D01*
X143504819Y-145114160D02*
X143885771Y-145447493D01*
X143885771Y-145447493D02*
X143885771Y-145304636D01*
X143885771Y-145304636D02*
X143933390Y-145209398D01*
X143933390Y-145209398D02*
X143981009Y-145161779D01*
X143981009Y-145161779D02*
X144076247Y-145114160D01*
X144076247Y-145114160D02*
X144314342Y-145114160D01*
X144314342Y-145114160D02*
X144409580Y-145161779D01*
X144409580Y-145161779D02*
X144457200Y-145209398D01*
X144457200Y-145209398D02*
X144504819Y-145304636D01*
X144504819Y-145304636D02*
X144504819Y-145590350D01*
X144504819Y-145590350D02*
X144457200Y-145685588D01*
X144457200Y-145685588D02*
X144409580Y-145733207D01*
X152104819Y-146637969D02*
X151104819Y-146637969D01*
X151104819Y-146637969D02*
X151104819Y-146257017D01*
X151104819Y-146257017D02*
X151152438Y-146161779D01*
X151152438Y-146161779D02*
X151200057Y-146114160D01*
X151200057Y-146114160D02*
X151295295Y-146066541D01*
X151295295Y-146066541D02*
X151438152Y-146066541D01*
X151438152Y-146066541D02*
X151533390Y-146114160D01*
X151533390Y-146114160D02*
X151581009Y-146161779D01*
X151581009Y-146161779D02*
X151628628Y-146257017D01*
X151628628Y-146257017D02*
X151628628Y-146637969D01*
X152104819Y-145114160D02*
X152104819Y-145685588D01*
X152104819Y-145399874D02*
X151104819Y-145399874D01*
X151104819Y-145399874D02*
X151247676Y-145495112D01*
X151247676Y-145495112D02*
X151342914Y-145590350D01*
X151342914Y-145590350D02*
X151390533Y-145685588D01*
X140758571Y-135657295D02*
X140758571Y-134857295D01*
X140758571Y-134857295D02*
X141063333Y-134857295D01*
X141063333Y-134857295D02*
X141139523Y-134895390D01*
X141139523Y-134895390D02*
X141177618Y-134933485D01*
X141177618Y-134933485D02*
X141215714Y-135009676D01*
X141215714Y-135009676D02*
X141215714Y-135123961D01*
X141215714Y-135123961D02*
X141177618Y-135200152D01*
X141177618Y-135200152D02*
X141139523Y-135238247D01*
X141139523Y-135238247D02*
X141063333Y-135276342D01*
X141063333Y-135276342D02*
X140758571Y-135276342D01*
X141977618Y-135657295D02*
X141520475Y-135657295D01*
X141749047Y-135657295D02*
X141749047Y-134857295D01*
X141749047Y-134857295D02*
X141672856Y-134971580D01*
X141672856Y-134971580D02*
X141596666Y-135047771D01*
X141596666Y-135047771D02*
X141520475Y-135085866D01*
X142472857Y-134857295D02*
X142549047Y-134857295D01*
X142549047Y-134857295D02*
X142625238Y-134895390D01*
X142625238Y-134895390D02*
X142663333Y-134933485D01*
X142663333Y-134933485D02*
X142701428Y-135009676D01*
X142701428Y-135009676D02*
X142739523Y-135162057D01*
X142739523Y-135162057D02*
X142739523Y-135352533D01*
X142739523Y-135352533D02*
X142701428Y-135504914D01*
X142701428Y-135504914D02*
X142663333Y-135581104D01*
X142663333Y-135581104D02*
X142625238Y-135619200D01*
X142625238Y-135619200D02*
X142549047Y-135657295D01*
X142549047Y-135657295D02*
X142472857Y-135657295D01*
X142472857Y-135657295D02*
X142396666Y-135619200D01*
X142396666Y-135619200D02*
X142358571Y-135581104D01*
X142358571Y-135581104D02*
X142320476Y-135504914D01*
X142320476Y-135504914D02*
X142282380Y-135352533D01*
X142282380Y-135352533D02*
X142282380Y-135162057D01*
X142282380Y-135162057D02*
X142320476Y-135009676D01*
X142320476Y-135009676D02*
X142358571Y-134933485D01*
X142358571Y-134933485D02*
X142396666Y-134895390D01*
X142396666Y-134895390D02*
X142472857Y-134857295D01*
X150358571Y-122957295D02*
X150358571Y-122157295D01*
X150358571Y-122157295D02*
X150663333Y-122157295D01*
X150663333Y-122157295D02*
X150739523Y-122195390D01*
X150739523Y-122195390D02*
X150777618Y-122233485D01*
X150777618Y-122233485D02*
X150815714Y-122309676D01*
X150815714Y-122309676D02*
X150815714Y-122423961D01*
X150815714Y-122423961D02*
X150777618Y-122500152D01*
X150777618Y-122500152D02*
X150739523Y-122538247D01*
X150739523Y-122538247D02*
X150663333Y-122576342D01*
X150663333Y-122576342D02*
X150358571Y-122576342D01*
X151310952Y-122157295D02*
X151387142Y-122157295D01*
X151387142Y-122157295D02*
X151463333Y-122195390D01*
X151463333Y-122195390D02*
X151501428Y-122233485D01*
X151501428Y-122233485D02*
X151539523Y-122309676D01*
X151539523Y-122309676D02*
X151577618Y-122462057D01*
X151577618Y-122462057D02*
X151577618Y-122652533D01*
X151577618Y-122652533D02*
X151539523Y-122804914D01*
X151539523Y-122804914D02*
X151501428Y-122881104D01*
X151501428Y-122881104D02*
X151463333Y-122919200D01*
X151463333Y-122919200D02*
X151387142Y-122957295D01*
X151387142Y-122957295D02*
X151310952Y-122957295D01*
X151310952Y-122957295D02*
X151234761Y-122919200D01*
X151234761Y-122919200D02*
X151196666Y-122881104D01*
X151196666Y-122881104D02*
X151158571Y-122804914D01*
X151158571Y-122804914D02*
X151120475Y-122652533D01*
X151120475Y-122652533D02*
X151120475Y-122462057D01*
X151120475Y-122462057D02*
X151158571Y-122309676D01*
X151158571Y-122309676D02*
X151196666Y-122233485D01*
X151196666Y-122233485D02*
X151234761Y-122195390D01*
X151234761Y-122195390D02*
X151310952Y-122157295D01*
X152263333Y-122423961D02*
X152263333Y-122957295D01*
X152072857Y-122119200D02*
X151882380Y-122690628D01*
X151882380Y-122690628D02*
X152377619Y-122690628D01*
X140758571Y-128037295D02*
X140758571Y-127237295D01*
X140758571Y-127237295D02*
X141063333Y-127237295D01*
X141063333Y-127237295D02*
X141139523Y-127275390D01*
X141139523Y-127275390D02*
X141177618Y-127313485D01*
X141177618Y-127313485D02*
X141215714Y-127389676D01*
X141215714Y-127389676D02*
X141215714Y-127503961D01*
X141215714Y-127503961D02*
X141177618Y-127580152D01*
X141177618Y-127580152D02*
X141139523Y-127618247D01*
X141139523Y-127618247D02*
X141063333Y-127656342D01*
X141063333Y-127656342D02*
X140758571Y-127656342D01*
X141977618Y-128037295D02*
X141520475Y-128037295D01*
X141749047Y-128037295D02*
X141749047Y-127237295D01*
X141749047Y-127237295D02*
X141672856Y-127351580D01*
X141672856Y-127351580D02*
X141596666Y-127427771D01*
X141596666Y-127427771D02*
X141520475Y-127465866D01*
X142701428Y-127237295D02*
X142320476Y-127237295D01*
X142320476Y-127237295D02*
X142282380Y-127618247D01*
X142282380Y-127618247D02*
X142320476Y-127580152D01*
X142320476Y-127580152D02*
X142396666Y-127542057D01*
X142396666Y-127542057D02*
X142587142Y-127542057D01*
X142587142Y-127542057D02*
X142663333Y-127580152D01*
X142663333Y-127580152D02*
X142701428Y-127618247D01*
X142701428Y-127618247D02*
X142739523Y-127694438D01*
X142739523Y-127694438D02*
X142739523Y-127884914D01*
X142739523Y-127884914D02*
X142701428Y-127961104D01*
X142701428Y-127961104D02*
X142663333Y-127999200D01*
X142663333Y-127999200D02*
X142587142Y-128037295D01*
X142587142Y-128037295D02*
X142396666Y-128037295D01*
X142396666Y-128037295D02*
X142320476Y-127999200D01*
X142320476Y-127999200D02*
X142282380Y-127961104D01*
X150358571Y-107717295D02*
X150358571Y-106917295D01*
X150358571Y-106917295D02*
X150663333Y-106917295D01*
X150663333Y-106917295D02*
X150739523Y-106955390D01*
X150739523Y-106955390D02*
X150777618Y-106993485D01*
X150777618Y-106993485D02*
X150815714Y-107069676D01*
X150815714Y-107069676D02*
X150815714Y-107183961D01*
X150815714Y-107183961D02*
X150777618Y-107260152D01*
X150777618Y-107260152D02*
X150739523Y-107298247D01*
X150739523Y-107298247D02*
X150663333Y-107336342D01*
X150663333Y-107336342D02*
X150358571Y-107336342D01*
X151310952Y-106917295D02*
X151387142Y-106917295D01*
X151387142Y-106917295D02*
X151463333Y-106955390D01*
X151463333Y-106955390D02*
X151501428Y-106993485D01*
X151501428Y-106993485D02*
X151539523Y-107069676D01*
X151539523Y-107069676D02*
X151577618Y-107222057D01*
X151577618Y-107222057D02*
X151577618Y-107412533D01*
X151577618Y-107412533D02*
X151539523Y-107564914D01*
X151539523Y-107564914D02*
X151501428Y-107641104D01*
X151501428Y-107641104D02*
X151463333Y-107679200D01*
X151463333Y-107679200D02*
X151387142Y-107717295D01*
X151387142Y-107717295D02*
X151310952Y-107717295D01*
X151310952Y-107717295D02*
X151234761Y-107679200D01*
X151234761Y-107679200D02*
X151196666Y-107641104D01*
X151196666Y-107641104D02*
X151158571Y-107564914D01*
X151158571Y-107564914D02*
X151120475Y-107412533D01*
X151120475Y-107412533D02*
X151120475Y-107222057D01*
X151120475Y-107222057D02*
X151158571Y-107069676D01*
X151158571Y-107069676D02*
X151196666Y-106993485D01*
X151196666Y-106993485D02*
X151234761Y-106955390D01*
X151234761Y-106955390D02*
X151310952Y-106917295D01*
X152339523Y-107717295D02*
X151882380Y-107717295D01*
X152110952Y-107717295D02*
X152110952Y-106917295D01*
X152110952Y-106917295D02*
X152034761Y-107031580D01*
X152034761Y-107031580D02*
X151958571Y-107107771D01*
X151958571Y-107107771D02*
X151882380Y-107145866D01*
X140758571Y-125497295D02*
X140758571Y-124697295D01*
X140758571Y-124697295D02*
X141063333Y-124697295D01*
X141063333Y-124697295D02*
X141139523Y-124735390D01*
X141139523Y-124735390D02*
X141177618Y-124773485D01*
X141177618Y-124773485D02*
X141215714Y-124849676D01*
X141215714Y-124849676D02*
X141215714Y-124963961D01*
X141215714Y-124963961D02*
X141177618Y-125040152D01*
X141177618Y-125040152D02*
X141139523Y-125078247D01*
X141139523Y-125078247D02*
X141063333Y-125116342D01*
X141063333Y-125116342D02*
X140758571Y-125116342D01*
X141977618Y-125497295D02*
X141520475Y-125497295D01*
X141749047Y-125497295D02*
X141749047Y-124697295D01*
X141749047Y-124697295D02*
X141672856Y-124811580D01*
X141672856Y-124811580D02*
X141596666Y-124887771D01*
X141596666Y-124887771D02*
X141520475Y-124925866D01*
X142434761Y-125040152D02*
X142358571Y-125002057D01*
X142358571Y-125002057D02*
X142320476Y-124963961D01*
X142320476Y-124963961D02*
X142282380Y-124887771D01*
X142282380Y-124887771D02*
X142282380Y-124849676D01*
X142282380Y-124849676D02*
X142320476Y-124773485D01*
X142320476Y-124773485D02*
X142358571Y-124735390D01*
X142358571Y-124735390D02*
X142434761Y-124697295D01*
X142434761Y-124697295D02*
X142587142Y-124697295D01*
X142587142Y-124697295D02*
X142663333Y-124735390D01*
X142663333Y-124735390D02*
X142701428Y-124773485D01*
X142701428Y-124773485D02*
X142739523Y-124849676D01*
X142739523Y-124849676D02*
X142739523Y-124887771D01*
X142739523Y-124887771D02*
X142701428Y-124963961D01*
X142701428Y-124963961D02*
X142663333Y-125002057D01*
X142663333Y-125002057D02*
X142587142Y-125040152D01*
X142587142Y-125040152D02*
X142434761Y-125040152D01*
X142434761Y-125040152D02*
X142358571Y-125078247D01*
X142358571Y-125078247D02*
X142320476Y-125116342D01*
X142320476Y-125116342D02*
X142282380Y-125192533D01*
X142282380Y-125192533D02*
X142282380Y-125344914D01*
X142282380Y-125344914D02*
X142320476Y-125421104D01*
X142320476Y-125421104D02*
X142358571Y-125459200D01*
X142358571Y-125459200D02*
X142434761Y-125497295D01*
X142434761Y-125497295D02*
X142587142Y-125497295D01*
X142587142Y-125497295D02*
X142663333Y-125459200D01*
X142663333Y-125459200D02*
X142701428Y-125421104D01*
X142701428Y-125421104D02*
X142739523Y-125344914D01*
X142739523Y-125344914D02*
X142739523Y-125192533D01*
X142739523Y-125192533D02*
X142701428Y-125116342D01*
X142701428Y-125116342D02*
X142663333Y-125078247D01*
X142663333Y-125078247D02*
X142587142Y-125040152D01*
X150358571Y-120417295D02*
X150358571Y-119617295D01*
X150358571Y-119617295D02*
X150663333Y-119617295D01*
X150663333Y-119617295D02*
X150739523Y-119655390D01*
X150739523Y-119655390D02*
X150777618Y-119693485D01*
X150777618Y-119693485D02*
X150815714Y-119769676D01*
X150815714Y-119769676D02*
X150815714Y-119883961D01*
X150815714Y-119883961D02*
X150777618Y-119960152D01*
X150777618Y-119960152D02*
X150739523Y-119998247D01*
X150739523Y-119998247D02*
X150663333Y-120036342D01*
X150663333Y-120036342D02*
X150358571Y-120036342D01*
X151310952Y-119617295D02*
X151387142Y-119617295D01*
X151387142Y-119617295D02*
X151463333Y-119655390D01*
X151463333Y-119655390D02*
X151501428Y-119693485D01*
X151501428Y-119693485D02*
X151539523Y-119769676D01*
X151539523Y-119769676D02*
X151577618Y-119922057D01*
X151577618Y-119922057D02*
X151577618Y-120112533D01*
X151577618Y-120112533D02*
X151539523Y-120264914D01*
X151539523Y-120264914D02*
X151501428Y-120341104D01*
X151501428Y-120341104D02*
X151463333Y-120379200D01*
X151463333Y-120379200D02*
X151387142Y-120417295D01*
X151387142Y-120417295D02*
X151310952Y-120417295D01*
X151310952Y-120417295D02*
X151234761Y-120379200D01*
X151234761Y-120379200D02*
X151196666Y-120341104D01*
X151196666Y-120341104D02*
X151158571Y-120264914D01*
X151158571Y-120264914D02*
X151120475Y-120112533D01*
X151120475Y-120112533D02*
X151120475Y-119922057D01*
X151120475Y-119922057D02*
X151158571Y-119769676D01*
X151158571Y-119769676D02*
X151196666Y-119693485D01*
X151196666Y-119693485D02*
X151234761Y-119655390D01*
X151234761Y-119655390D02*
X151310952Y-119617295D01*
X151844285Y-119617295D02*
X152339523Y-119617295D01*
X152339523Y-119617295D02*
X152072857Y-119922057D01*
X152072857Y-119922057D02*
X152187142Y-119922057D01*
X152187142Y-119922057D02*
X152263333Y-119960152D01*
X152263333Y-119960152D02*
X152301428Y-119998247D01*
X152301428Y-119998247D02*
X152339523Y-120074438D01*
X152339523Y-120074438D02*
X152339523Y-120264914D01*
X152339523Y-120264914D02*
X152301428Y-120341104D01*
X152301428Y-120341104D02*
X152263333Y-120379200D01*
X152263333Y-120379200D02*
X152187142Y-120417295D01*
X152187142Y-120417295D02*
X151958571Y-120417295D01*
X151958571Y-120417295D02*
X151882380Y-120379200D01*
X151882380Y-120379200D02*
X151844285Y-120341104D01*
X140758571Y-130577295D02*
X140758571Y-129777295D01*
X140758571Y-129777295D02*
X141063333Y-129777295D01*
X141063333Y-129777295D02*
X141139523Y-129815390D01*
X141139523Y-129815390D02*
X141177618Y-129853485D01*
X141177618Y-129853485D02*
X141215714Y-129929676D01*
X141215714Y-129929676D02*
X141215714Y-130043961D01*
X141215714Y-130043961D02*
X141177618Y-130120152D01*
X141177618Y-130120152D02*
X141139523Y-130158247D01*
X141139523Y-130158247D02*
X141063333Y-130196342D01*
X141063333Y-130196342D02*
X140758571Y-130196342D01*
X141977618Y-130577295D02*
X141520475Y-130577295D01*
X141749047Y-130577295D02*
X141749047Y-129777295D01*
X141749047Y-129777295D02*
X141672856Y-129891580D01*
X141672856Y-129891580D02*
X141596666Y-129967771D01*
X141596666Y-129967771D02*
X141520475Y-130005866D01*
X142663333Y-130043961D02*
X142663333Y-130577295D01*
X142472857Y-129739200D02*
X142282380Y-130310628D01*
X142282380Y-130310628D02*
X142777619Y-130310628D01*
X150720476Y-112035390D02*
X150644286Y-111997295D01*
X150644286Y-111997295D02*
X150530000Y-111997295D01*
X150530000Y-111997295D02*
X150415714Y-112035390D01*
X150415714Y-112035390D02*
X150339524Y-112111580D01*
X150339524Y-112111580D02*
X150301429Y-112187771D01*
X150301429Y-112187771D02*
X150263333Y-112340152D01*
X150263333Y-112340152D02*
X150263333Y-112454438D01*
X150263333Y-112454438D02*
X150301429Y-112606819D01*
X150301429Y-112606819D02*
X150339524Y-112683009D01*
X150339524Y-112683009D02*
X150415714Y-112759200D01*
X150415714Y-112759200D02*
X150530000Y-112797295D01*
X150530000Y-112797295D02*
X150606191Y-112797295D01*
X150606191Y-112797295D02*
X150720476Y-112759200D01*
X150720476Y-112759200D02*
X150758572Y-112721104D01*
X150758572Y-112721104D02*
X150758572Y-112454438D01*
X150758572Y-112454438D02*
X150606191Y-112454438D01*
X151101429Y-112797295D02*
X151101429Y-111997295D01*
X151101429Y-111997295D02*
X151558572Y-112797295D01*
X151558572Y-112797295D02*
X151558572Y-111997295D01*
X151939524Y-112797295D02*
X151939524Y-111997295D01*
X151939524Y-111997295D02*
X152130000Y-111997295D01*
X152130000Y-111997295D02*
X152244286Y-112035390D01*
X152244286Y-112035390D02*
X152320476Y-112111580D01*
X152320476Y-112111580D02*
X152358571Y-112187771D01*
X152358571Y-112187771D02*
X152396667Y-112340152D01*
X152396667Y-112340152D02*
X152396667Y-112454438D01*
X152396667Y-112454438D02*
X152358571Y-112606819D01*
X152358571Y-112606819D02*
X152320476Y-112683009D01*
X152320476Y-112683009D02*
X152244286Y-112759200D01*
X152244286Y-112759200D02*
X152130000Y-112797295D01*
X152130000Y-112797295D02*
X151939524Y-112797295D01*
X150358571Y-128037295D02*
X150358571Y-127237295D01*
X150358571Y-127237295D02*
X150663333Y-127237295D01*
X150663333Y-127237295D02*
X150739523Y-127275390D01*
X150739523Y-127275390D02*
X150777618Y-127313485D01*
X150777618Y-127313485D02*
X150815714Y-127389676D01*
X150815714Y-127389676D02*
X150815714Y-127503961D01*
X150815714Y-127503961D02*
X150777618Y-127580152D01*
X150777618Y-127580152D02*
X150739523Y-127618247D01*
X150739523Y-127618247D02*
X150663333Y-127656342D01*
X150663333Y-127656342D02*
X150358571Y-127656342D01*
X151310952Y-127237295D02*
X151387142Y-127237295D01*
X151387142Y-127237295D02*
X151463333Y-127275390D01*
X151463333Y-127275390D02*
X151501428Y-127313485D01*
X151501428Y-127313485D02*
X151539523Y-127389676D01*
X151539523Y-127389676D02*
X151577618Y-127542057D01*
X151577618Y-127542057D02*
X151577618Y-127732533D01*
X151577618Y-127732533D02*
X151539523Y-127884914D01*
X151539523Y-127884914D02*
X151501428Y-127961104D01*
X151501428Y-127961104D02*
X151463333Y-127999200D01*
X151463333Y-127999200D02*
X151387142Y-128037295D01*
X151387142Y-128037295D02*
X151310952Y-128037295D01*
X151310952Y-128037295D02*
X151234761Y-127999200D01*
X151234761Y-127999200D02*
X151196666Y-127961104D01*
X151196666Y-127961104D02*
X151158571Y-127884914D01*
X151158571Y-127884914D02*
X151120475Y-127732533D01*
X151120475Y-127732533D02*
X151120475Y-127542057D01*
X151120475Y-127542057D02*
X151158571Y-127389676D01*
X151158571Y-127389676D02*
X151196666Y-127313485D01*
X151196666Y-127313485D02*
X151234761Y-127275390D01*
X151234761Y-127275390D02*
X151310952Y-127237295D01*
X152263333Y-127237295D02*
X152110952Y-127237295D01*
X152110952Y-127237295D02*
X152034761Y-127275390D01*
X152034761Y-127275390D02*
X151996666Y-127313485D01*
X151996666Y-127313485D02*
X151920476Y-127427771D01*
X151920476Y-127427771D02*
X151882380Y-127580152D01*
X151882380Y-127580152D02*
X151882380Y-127884914D01*
X151882380Y-127884914D02*
X151920476Y-127961104D01*
X151920476Y-127961104D02*
X151958571Y-127999200D01*
X151958571Y-127999200D02*
X152034761Y-128037295D01*
X152034761Y-128037295D02*
X152187142Y-128037295D01*
X152187142Y-128037295D02*
X152263333Y-127999200D01*
X152263333Y-127999200D02*
X152301428Y-127961104D01*
X152301428Y-127961104D02*
X152339523Y-127884914D01*
X152339523Y-127884914D02*
X152339523Y-127694438D01*
X152339523Y-127694438D02*
X152301428Y-127618247D01*
X152301428Y-127618247D02*
X152263333Y-127580152D01*
X152263333Y-127580152D02*
X152187142Y-127542057D01*
X152187142Y-127542057D02*
X152034761Y-127542057D01*
X152034761Y-127542057D02*
X151958571Y-127580152D01*
X151958571Y-127580152D02*
X151920476Y-127618247D01*
X151920476Y-127618247D02*
X151882380Y-127694438D01*
X141177619Y-107717295D02*
X140910952Y-107336342D01*
X140720476Y-107717295D02*
X140720476Y-106917295D01*
X140720476Y-106917295D02*
X141025238Y-106917295D01*
X141025238Y-106917295D02*
X141101428Y-106955390D01*
X141101428Y-106955390D02*
X141139523Y-106993485D01*
X141139523Y-106993485D02*
X141177619Y-107069676D01*
X141177619Y-107069676D02*
X141177619Y-107183961D01*
X141177619Y-107183961D02*
X141139523Y-107260152D01*
X141139523Y-107260152D02*
X141101428Y-107298247D01*
X141101428Y-107298247D02*
X141025238Y-107336342D01*
X141025238Y-107336342D02*
X140720476Y-107336342D01*
X141482380Y-107488723D02*
X141863333Y-107488723D01*
X141406190Y-107717295D02*
X141672857Y-106917295D01*
X141672857Y-106917295D02*
X141939523Y-107717295D01*
X142129999Y-106917295D02*
X142320475Y-107717295D01*
X142320475Y-107717295D02*
X142472856Y-107145866D01*
X142472856Y-107145866D02*
X142625237Y-107717295D01*
X142625237Y-107717295D02*
X142815714Y-106917295D01*
X141120476Y-109495390D02*
X141044286Y-109457295D01*
X141044286Y-109457295D02*
X140930000Y-109457295D01*
X140930000Y-109457295D02*
X140815714Y-109495390D01*
X140815714Y-109495390D02*
X140739524Y-109571580D01*
X140739524Y-109571580D02*
X140701429Y-109647771D01*
X140701429Y-109647771D02*
X140663333Y-109800152D01*
X140663333Y-109800152D02*
X140663333Y-109914438D01*
X140663333Y-109914438D02*
X140701429Y-110066819D01*
X140701429Y-110066819D02*
X140739524Y-110143009D01*
X140739524Y-110143009D02*
X140815714Y-110219200D01*
X140815714Y-110219200D02*
X140930000Y-110257295D01*
X140930000Y-110257295D02*
X141006191Y-110257295D01*
X141006191Y-110257295D02*
X141120476Y-110219200D01*
X141120476Y-110219200D02*
X141158572Y-110181104D01*
X141158572Y-110181104D02*
X141158572Y-109914438D01*
X141158572Y-109914438D02*
X141006191Y-109914438D01*
X141501429Y-110257295D02*
X141501429Y-109457295D01*
X141501429Y-109457295D02*
X141958572Y-110257295D01*
X141958572Y-110257295D02*
X141958572Y-109457295D01*
X142339524Y-110257295D02*
X142339524Y-109457295D01*
X142339524Y-109457295D02*
X142530000Y-109457295D01*
X142530000Y-109457295D02*
X142644286Y-109495390D01*
X142644286Y-109495390D02*
X142720476Y-109571580D01*
X142720476Y-109571580D02*
X142758571Y-109647771D01*
X142758571Y-109647771D02*
X142796667Y-109800152D01*
X142796667Y-109800152D02*
X142796667Y-109914438D01*
X142796667Y-109914438D02*
X142758571Y-110066819D01*
X142758571Y-110066819D02*
X142720476Y-110143009D01*
X142720476Y-110143009D02*
X142644286Y-110219200D01*
X142644286Y-110219200D02*
X142530000Y-110257295D01*
X142530000Y-110257295D02*
X142339524Y-110257295D01*
X150358571Y-125497295D02*
X150358571Y-124697295D01*
X150358571Y-124697295D02*
X150663333Y-124697295D01*
X150663333Y-124697295D02*
X150739523Y-124735390D01*
X150739523Y-124735390D02*
X150777618Y-124773485D01*
X150777618Y-124773485D02*
X150815714Y-124849676D01*
X150815714Y-124849676D02*
X150815714Y-124963961D01*
X150815714Y-124963961D02*
X150777618Y-125040152D01*
X150777618Y-125040152D02*
X150739523Y-125078247D01*
X150739523Y-125078247D02*
X150663333Y-125116342D01*
X150663333Y-125116342D02*
X150358571Y-125116342D01*
X151310952Y-124697295D02*
X151387142Y-124697295D01*
X151387142Y-124697295D02*
X151463333Y-124735390D01*
X151463333Y-124735390D02*
X151501428Y-124773485D01*
X151501428Y-124773485D02*
X151539523Y-124849676D01*
X151539523Y-124849676D02*
X151577618Y-125002057D01*
X151577618Y-125002057D02*
X151577618Y-125192533D01*
X151577618Y-125192533D02*
X151539523Y-125344914D01*
X151539523Y-125344914D02*
X151501428Y-125421104D01*
X151501428Y-125421104D02*
X151463333Y-125459200D01*
X151463333Y-125459200D02*
X151387142Y-125497295D01*
X151387142Y-125497295D02*
X151310952Y-125497295D01*
X151310952Y-125497295D02*
X151234761Y-125459200D01*
X151234761Y-125459200D02*
X151196666Y-125421104D01*
X151196666Y-125421104D02*
X151158571Y-125344914D01*
X151158571Y-125344914D02*
X151120475Y-125192533D01*
X151120475Y-125192533D02*
X151120475Y-125002057D01*
X151120475Y-125002057D02*
X151158571Y-124849676D01*
X151158571Y-124849676D02*
X151196666Y-124773485D01*
X151196666Y-124773485D02*
X151234761Y-124735390D01*
X151234761Y-124735390D02*
X151310952Y-124697295D01*
X152301428Y-124697295D02*
X151920476Y-124697295D01*
X151920476Y-124697295D02*
X151882380Y-125078247D01*
X151882380Y-125078247D02*
X151920476Y-125040152D01*
X151920476Y-125040152D02*
X151996666Y-125002057D01*
X151996666Y-125002057D02*
X152187142Y-125002057D01*
X152187142Y-125002057D02*
X152263333Y-125040152D01*
X152263333Y-125040152D02*
X152301428Y-125078247D01*
X152301428Y-125078247D02*
X152339523Y-125154438D01*
X152339523Y-125154438D02*
X152339523Y-125344914D01*
X152339523Y-125344914D02*
X152301428Y-125421104D01*
X152301428Y-125421104D02*
X152263333Y-125459200D01*
X152263333Y-125459200D02*
X152187142Y-125497295D01*
X152187142Y-125497295D02*
X151996666Y-125497295D01*
X151996666Y-125497295D02*
X151920476Y-125459200D01*
X151920476Y-125459200D02*
X151882380Y-125421104D01*
X141291905Y-112797295D02*
X141025238Y-112416342D01*
X140834762Y-112797295D02*
X140834762Y-111997295D01*
X140834762Y-111997295D02*
X141139524Y-111997295D01*
X141139524Y-111997295D02*
X141215714Y-112035390D01*
X141215714Y-112035390D02*
X141253809Y-112073485D01*
X141253809Y-112073485D02*
X141291905Y-112149676D01*
X141291905Y-112149676D02*
X141291905Y-112263961D01*
X141291905Y-112263961D02*
X141253809Y-112340152D01*
X141253809Y-112340152D02*
X141215714Y-112378247D01*
X141215714Y-112378247D02*
X141139524Y-112416342D01*
X141139524Y-112416342D02*
X140834762Y-112416342D01*
X141596666Y-112759200D02*
X141710952Y-112797295D01*
X141710952Y-112797295D02*
X141901428Y-112797295D01*
X141901428Y-112797295D02*
X141977619Y-112759200D01*
X141977619Y-112759200D02*
X142015714Y-112721104D01*
X142015714Y-112721104D02*
X142053809Y-112644914D01*
X142053809Y-112644914D02*
X142053809Y-112568723D01*
X142053809Y-112568723D02*
X142015714Y-112492533D01*
X142015714Y-112492533D02*
X141977619Y-112454438D01*
X141977619Y-112454438D02*
X141901428Y-112416342D01*
X141901428Y-112416342D02*
X141749047Y-112378247D01*
X141749047Y-112378247D02*
X141672857Y-112340152D01*
X141672857Y-112340152D02*
X141634762Y-112302057D01*
X141634762Y-112302057D02*
X141596666Y-112225866D01*
X141596666Y-112225866D02*
X141596666Y-112149676D01*
X141596666Y-112149676D02*
X141634762Y-112073485D01*
X141634762Y-112073485D02*
X141672857Y-112035390D01*
X141672857Y-112035390D02*
X141749047Y-111997295D01*
X141749047Y-111997295D02*
X141939524Y-111997295D01*
X141939524Y-111997295D02*
X142053809Y-112035390D01*
X142282381Y-111997295D02*
X142739524Y-111997295D01*
X142510952Y-112797295D02*
X142510952Y-111997295D01*
X140758571Y-117877295D02*
X140758571Y-117077295D01*
X140758571Y-117077295D02*
X141063333Y-117077295D01*
X141063333Y-117077295D02*
X141139523Y-117115390D01*
X141139523Y-117115390D02*
X141177618Y-117153485D01*
X141177618Y-117153485D02*
X141215714Y-117229676D01*
X141215714Y-117229676D02*
X141215714Y-117343961D01*
X141215714Y-117343961D02*
X141177618Y-117420152D01*
X141177618Y-117420152D02*
X141139523Y-117458247D01*
X141139523Y-117458247D02*
X141063333Y-117496342D01*
X141063333Y-117496342D02*
X140758571Y-117496342D01*
X141520475Y-117153485D02*
X141558571Y-117115390D01*
X141558571Y-117115390D02*
X141634761Y-117077295D01*
X141634761Y-117077295D02*
X141825237Y-117077295D01*
X141825237Y-117077295D02*
X141901428Y-117115390D01*
X141901428Y-117115390D02*
X141939523Y-117153485D01*
X141939523Y-117153485D02*
X141977618Y-117229676D01*
X141977618Y-117229676D02*
X141977618Y-117305866D01*
X141977618Y-117305866D02*
X141939523Y-117420152D01*
X141939523Y-117420152D02*
X141482380Y-117877295D01*
X141482380Y-117877295D02*
X141977618Y-117877295D01*
X142739523Y-117877295D02*
X142282380Y-117877295D01*
X142510952Y-117877295D02*
X142510952Y-117077295D01*
X142510952Y-117077295D02*
X142434761Y-117191580D01*
X142434761Y-117191580D02*
X142358571Y-117267771D01*
X142358571Y-117267771D02*
X142282380Y-117305866D01*
X150358571Y-133117295D02*
X150358571Y-132317295D01*
X150358571Y-132317295D02*
X150663333Y-132317295D01*
X150663333Y-132317295D02*
X150739523Y-132355390D01*
X150739523Y-132355390D02*
X150777618Y-132393485D01*
X150777618Y-132393485D02*
X150815714Y-132469676D01*
X150815714Y-132469676D02*
X150815714Y-132583961D01*
X150815714Y-132583961D02*
X150777618Y-132660152D01*
X150777618Y-132660152D02*
X150739523Y-132698247D01*
X150739523Y-132698247D02*
X150663333Y-132736342D01*
X150663333Y-132736342D02*
X150358571Y-132736342D01*
X151310952Y-132317295D02*
X151387142Y-132317295D01*
X151387142Y-132317295D02*
X151463333Y-132355390D01*
X151463333Y-132355390D02*
X151501428Y-132393485D01*
X151501428Y-132393485D02*
X151539523Y-132469676D01*
X151539523Y-132469676D02*
X151577618Y-132622057D01*
X151577618Y-132622057D02*
X151577618Y-132812533D01*
X151577618Y-132812533D02*
X151539523Y-132964914D01*
X151539523Y-132964914D02*
X151501428Y-133041104D01*
X151501428Y-133041104D02*
X151463333Y-133079200D01*
X151463333Y-133079200D02*
X151387142Y-133117295D01*
X151387142Y-133117295D02*
X151310952Y-133117295D01*
X151310952Y-133117295D02*
X151234761Y-133079200D01*
X151234761Y-133079200D02*
X151196666Y-133041104D01*
X151196666Y-133041104D02*
X151158571Y-132964914D01*
X151158571Y-132964914D02*
X151120475Y-132812533D01*
X151120475Y-132812533D02*
X151120475Y-132622057D01*
X151120475Y-132622057D02*
X151158571Y-132469676D01*
X151158571Y-132469676D02*
X151196666Y-132393485D01*
X151196666Y-132393485D02*
X151234761Y-132355390D01*
X151234761Y-132355390D02*
X151310952Y-132317295D01*
X152034761Y-132660152D02*
X151958571Y-132622057D01*
X151958571Y-132622057D02*
X151920476Y-132583961D01*
X151920476Y-132583961D02*
X151882380Y-132507771D01*
X151882380Y-132507771D02*
X151882380Y-132469676D01*
X151882380Y-132469676D02*
X151920476Y-132393485D01*
X151920476Y-132393485D02*
X151958571Y-132355390D01*
X151958571Y-132355390D02*
X152034761Y-132317295D01*
X152034761Y-132317295D02*
X152187142Y-132317295D01*
X152187142Y-132317295D02*
X152263333Y-132355390D01*
X152263333Y-132355390D02*
X152301428Y-132393485D01*
X152301428Y-132393485D02*
X152339523Y-132469676D01*
X152339523Y-132469676D02*
X152339523Y-132507771D01*
X152339523Y-132507771D02*
X152301428Y-132583961D01*
X152301428Y-132583961D02*
X152263333Y-132622057D01*
X152263333Y-132622057D02*
X152187142Y-132660152D01*
X152187142Y-132660152D02*
X152034761Y-132660152D01*
X152034761Y-132660152D02*
X151958571Y-132698247D01*
X151958571Y-132698247D02*
X151920476Y-132736342D01*
X151920476Y-132736342D02*
X151882380Y-132812533D01*
X151882380Y-132812533D02*
X151882380Y-132964914D01*
X151882380Y-132964914D02*
X151920476Y-133041104D01*
X151920476Y-133041104D02*
X151958571Y-133079200D01*
X151958571Y-133079200D02*
X152034761Y-133117295D01*
X152034761Y-133117295D02*
X152187142Y-133117295D01*
X152187142Y-133117295D02*
X152263333Y-133079200D01*
X152263333Y-133079200D02*
X152301428Y-133041104D01*
X152301428Y-133041104D02*
X152339523Y-132964914D01*
X152339523Y-132964914D02*
X152339523Y-132812533D01*
X152339523Y-132812533D02*
X152301428Y-132736342D01*
X152301428Y-132736342D02*
X152263333Y-132698247D01*
X152263333Y-132698247D02*
X152187142Y-132660152D01*
X150358571Y-117877295D02*
X150358571Y-117077295D01*
X150358571Y-117077295D02*
X150663333Y-117077295D01*
X150663333Y-117077295D02*
X150739523Y-117115390D01*
X150739523Y-117115390D02*
X150777618Y-117153485D01*
X150777618Y-117153485D02*
X150815714Y-117229676D01*
X150815714Y-117229676D02*
X150815714Y-117343961D01*
X150815714Y-117343961D02*
X150777618Y-117420152D01*
X150777618Y-117420152D02*
X150739523Y-117458247D01*
X150739523Y-117458247D02*
X150663333Y-117496342D01*
X150663333Y-117496342D02*
X150358571Y-117496342D01*
X151310952Y-117077295D02*
X151387142Y-117077295D01*
X151387142Y-117077295D02*
X151463333Y-117115390D01*
X151463333Y-117115390D02*
X151501428Y-117153485D01*
X151501428Y-117153485D02*
X151539523Y-117229676D01*
X151539523Y-117229676D02*
X151577618Y-117382057D01*
X151577618Y-117382057D02*
X151577618Y-117572533D01*
X151577618Y-117572533D02*
X151539523Y-117724914D01*
X151539523Y-117724914D02*
X151501428Y-117801104D01*
X151501428Y-117801104D02*
X151463333Y-117839200D01*
X151463333Y-117839200D02*
X151387142Y-117877295D01*
X151387142Y-117877295D02*
X151310952Y-117877295D01*
X151310952Y-117877295D02*
X151234761Y-117839200D01*
X151234761Y-117839200D02*
X151196666Y-117801104D01*
X151196666Y-117801104D02*
X151158571Y-117724914D01*
X151158571Y-117724914D02*
X151120475Y-117572533D01*
X151120475Y-117572533D02*
X151120475Y-117382057D01*
X151120475Y-117382057D02*
X151158571Y-117229676D01*
X151158571Y-117229676D02*
X151196666Y-117153485D01*
X151196666Y-117153485D02*
X151234761Y-117115390D01*
X151234761Y-117115390D02*
X151310952Y-117077295D01*
X151882380Y-117153485D02*
X151920476Y-117115390D01*
X151920476Y-117115390D02*
X151996666Y-117077295D01*
X151996666Y-117077295D02*
X152187142Y-117077295D01*
X152187142Y-117077295D02*
X152263333Y-117115390D01*
X152263333Y-117115390D02*
X152301428Y-117153485D01*
X152301428Y-117153485D02*
X152339523Y-117229676D01*
X152339523Y-117229676D02*
X152339523Y-117305866D01*
X152339523Y-117305866D02*
X152301428Y-117420152D01*
X152301428Y-117420152D02*
X151844285Y-117877295D01*
X151844285Y-117877295D02*
X152339523Y-117877295D01*
X140758571Y-120417295D02*
X140758571Y-119617295D01*
X140758571Y-119617295D02*
X141063333Y-119617295D01*
X141063333Y-119617295D02*
X141139523Y-119655390D01*
X141139523Y-119655390D02*
X141177618Y-119693485D01*
X141177618Y-119693485D02*
X141215714Y-119769676D01*
X141215714Y-119769676D02*
X141215714Y-119883961D01*
X141215714Y-119883961D02*
X141177618Y-119960152D01*
X141177618Y-119960152D02*
X141139523Y-119998247D01*
X141139523Y-119998247D02*
X141063333Y-120036342D01*
X141063333Y-120036342D02*
X140758571Y-120036342D01*
X141520475Y-119693485D02*
X141558571Y-119655390D01*
X141558571Y-119655390D02*
X141634761Y-119617295D01*
X141634761Y-119617295D02*
X141825237Y-119617295D01*
X141825237Y-119617295D02*
X141901428Y-119655390D01*
X141901428Y-119655390D02*
X141939523Y-119693485D01*
X141939523Y-119693485D02*
X141977618Y-119769676D01*
X141977618Y-119769676D02*
X141977618Y-119845866D01*
X141977618Y-119845866D02*
X141939523Y-119960152D01*
X141939523Y-119960152D02*
X141482380Y-120417295D01*
X141482380Y-120417295D02*
X141977618Y-120417295D01*
X142472857Y-119617295D02*
X142549047Y-119617295D01*
X142549047Y-119617295D02*
X142625238Y-119655390D01*
X142625238Y-119655390D02*
X142663333Y-119693485D01*
X142663333Y-119693485D02*
X142701428Y-119769676D01*
X142701428Y-119769676D02*
X142739523Y-119922057D01*
X142739523Y-119922057D02*
X142739523Y-120112533D01*
X142739523Y-120112533D02*
X142701428Y-120264914D01*
X142701428Y-120264914D02*
X142663333Y-120341104D01*
X142663333Y-120341104D02*
X142625238Y-120379200D01*
X142625238Y-120379200D02*
X142549047Y-120417295D01*
X142549047Y-120417295D02*
X142472857Y-120417295D01*
X142472857Y-120417295D02*
X142396666Y-120379200D01*
X142396666Y-120379200D02*
X142358571Y-120341104D01*
X142358571Y-120341104D02*
X142320476Y-120264914D01*
X142320476Y-120264914D02*
X142282380Y-120112533D01*
X142282380Y-120112533D02*
X142282380Y-119922057D01*
X142282380Y-119922057D02*
X142320476Y-119769676D01*
X142320476Y-119769676D02*
X142358571Y-119693485D01*
X142358571Y-119693485D02*
X142396666Y-119655390D01*
X142396666Y-119655390D02*
X142472857Y-119617295D01*
X140758571Y-122957295D02*
X140758571Y-122157295D01*
X140758571Y-122157295D02*
X141063333Y-122157295D01*
X141063333Y-122157295D02*
X141139523Y-122195390D01*
X141139523Y-122195390D02*
X141177618Y-122233485D01*
X141177618Y-122233485D02*
X141215714Y-122309676D01*
X141215714Y-122309676D02*
X141215714Y-122423961D01*
X141215714Y-122423961D02*
X141177618Y-122500152D01*
X141177618Y-122500152D02*
X141139523Y-122538247D01*
X141139523Y-122538247D02*
X141063333Y-122576342D01*
X141063333Y-122576342D02*
X140758571Y-122576342D01*
X141977618Y-122957295D02*
X141520475Y-122957295D01*
X141749047Y-122957295D02*
X141749047Y-122157295D01*
X141749047Y-122157295D02*
X141672856Y-122271580D01*
X141672856Y-122271580D02*
X141596666Y-122347771D01*
X141596666Y-122347771D02*
X141520475Y-122385866D01*
X142358571Y-122957295D02*
X142510952Y-122957295D01*
X142510952Y-122957295D02*
X142587142Y-122919200D01*
X142587142Y-122919200D02*
X142625238Y-122881104D01*
X142625238Y-122881104D02*
X142701428Y-122766819D01*
X142701428Y-122766819D02*
X142739523Y-122614438D01*
X142739523Y-122614438D02*
X142739523Y-122309676D01*
X142739523Y-122309676D02*
X142701428Y-122233485D01*
X142701428Y-122233485D02*
X142663333Y-122195390D01*
X142663333Y-122195390D02*
X142587142Y-122157295D01*
X142587142Y-122157295D02*
X142434761Y-122157295D01*
X142434761Y-122157295D02*
X142358571Y-122195390D01*
X142358571Y-122195390D02*
X142320476Y-122233485D01*
X142320476Y-122233485D02*
X142282380Y-122309676D01*
X142282380Y-122309676D02*
X142282380Y-122500152D01*
X142282380Y-122500152D02*
X142320476Y-122576342D01*
X142320476Y-122576342D02*
X142358571Y-122614438D01*
X142358571Y-122614438D02*
X142434761Y-122652533D01*
X142434761Y-122652533D02*
X142587142Y-122652533D01*
X142587142Y-122652533D02*
X142663333Y-122614438D01*
X142663333Y-122614438D02*
X142701428Y-122576342D01*
X142701428Y-122576342D02*
X142739523Y-122500152D01*
X150358571Y-110257295D02*
X150358571Y-109457295D01*
X150358571Y-109457295D02*
X150663333Y-109457295D01*
X150663333Y-109457295D02*
X150739523Y-109495390D01*
X150739523Y-109495390D02*
X150777618Y-109533485D01*
X150777618Y-109533485D02*
X150815714Y-109609676D01*
X150815714Y-109609676D02*
X150815714Y-109723961D01*
X150815714Y-109723961D02*
X150777618Y-109800152D01*
X150777618Y-109800152D02*
X150739523Y-109838247D01*
X150739523Y-109838247D02*
X150663333Y-109876342D01*
X150663333Y-109876342D02*
X150358571Y-109876342D01*
X151310952Y-109457295D02*
X151387142Y-109457295D01*
X151387142Y-109457295D02*
X151463333Y-109495390D01*
X151463333Y-109495390D02*
X151501428Y-109533485D01*
X151501428Y-109533485D02*
X151539523Y-109609676D01*
X151539523Y-109609676D02*
X151577618Y-109762057D01*
X151577618Y-109762057D02*
X151577618Y-109952533D01*
X151577618Y-109952533D02*
X151539523Y-110104914D01*
X151539523Y-110104914D02*
X151501428Y-110181104D01*
X151501428Y-110181104D02*
X151463333Y-110219200D01*
X151463333Y-110219200D02*
X151387142Y-110257295D01*
X151387142Y-110257295D02*
X151310952Y-110257295D01*
X151310952Y-110257295D02*
X151234761Y-110219200D01*
X151234761Y-110219200D02*
X151196666Y-110181104D01*
X151196666Y-110181104D02*
X151158571Y-110104914D01*
X151158571Y-110104914D02*
X151120475Y-109952533D01*
X151120475Y-109952533D02*
X151120475Y-109762057D01*
X151120475Y-109762057D02*
X151158571Y-109609676D01*
X151158571Y-109609676D02*
X151196666Y-109533485D01*
X151196666Y-109533485D02*
X151234761Y-109495390D01*
X151234761Y-109495390D02*
X151310952Y-109457295D01*
X152072857Y-109457295D02*
X152149047Y-109457295D01*
X152149047Y-109457295D02*
X152225238Y-109495390D01*
X152225238Y-109495390D02*
X152263333Y-109533485D01*
X152263333Y-109533485D02*
X152301428Y-109609676D01*
X152301428Y-109609676D02*
X152339523Y-109762057D01*
X152339523Y-109762057D02*
X152339523Y-109952533D01*
X152339523Y-109952533D02*
X152301428Y-110104914D01*
X152301428Y-110104914D02*
X152263333Y-110181104D01*
X152263333Y-110181104D02*
X152225238Y-110219200D01*
X152225238Y-110219200D02*
X152149047Y-110257295D01*
X152149047Y-110257295D02*
X152072857Y-110257295D01*
X152072857Y-110257295D02*
X151996666Y-110219200D01*
X151996666Y-110219200D02*
X151958571Y-110181104D01*
X151958571Y-110181104D02*
X151920476Y-110104914D01*
X151920476Y-110104914D02*
X151882380Y-109952533D01*
X151882380Y-109952533D02*
X151882380Y-109762057D01*
X151882380Y-109762057D02*
X151920476Y-109609676D01*
X151920476Y-109609676D02*
X151958571Y-109533485D01*
X151958571Y-109533485D02*
X151996666Y-109495390D01*
X151996666Y-109495390D02*
X152072857Y-109457295D01*
X140758571Y-133117295D02*
X140758571Y-132317295D01*
X140758571Y-132317295D02*
X141063333Y-132317295D01*
X141063333Y-132317295D02*
X141139523Y-132355390D01*
X141139523Y-132355390D02*
X141177618Y-132393485D01*
X141177618Y-132393485D02*
X141215714Y-132469676D01*
X141215714Y-132469676D02*
X141215714Y-132583961D01*
X141215714Y-132583961D02*
X141177618Y-132660152D01*
X141177618Y-132660152D02*
X141139523Y-132698247D01*
X141139523Y-132698247D02*
X141063333Y-132736342D01*
X141063333Y-132736342D02*
X140758571Y-132736342D01*
X141977618Y-133117295D02*
X141520475Y-133117295D01*
X141749047Y-133117295D02*
X141749047Y-132317295D01*
X141749047Y-132317295D02*
X141672856Y-132431580D01*
X141672856Y-132431580D02*
X141596666Y-132507771D01*
X141596666Y-132507771D02*
X141520475Y-132545866D01*
X142663333Y-132317295D02*
X142510952Y-132317295D01*
X142510952Y-132317295D02*
X142434761Y-132355390D01*
X142434761Y-132355390D02*
X142396666Y-132393485D01*
X142396666Y-132393485D02*
X142320476Y-132507771D01*
X142320476Y-132507771D02*
X142282380Y-132660152D01*
X142282380Y-132660152D02*
X142282380Y-132964914D01*
X142282380Y-132964914D02*
X142320476Y-133041104D01*
X142320476Y-133041104D02*
X142358571Y-133079200D01*
X142358571Y-133079200D02*
X142434761Y-133117295D01*
X142434761Y-133117295D02*
X142587142Y-133117295D01*
X142587142Y-133117295D02*
X142663333Y-133079200D01*
X142663333Y-133079200D02*
X142701428Y-133041104D01*
X142701428Y-133041104D02*
X142739523Y-132964914D01*
X142739523Y-132964914D02*
X142739523Y-132774438D01*
X142739523Y-132774438D02*
X142701428Y-132698247D01*
X142701428Y-132698247D02*
X142663333Y-132660152D01*
X142663333Y-132660152D02*
X142587142Y-132622057D01*
X142587142Y-132622057D02*
X142434761Y-132622057D01*
X142434761Y-132622057D02*
X142358571Y-132660152D01*
X142358571Y-132660152D02*
X142320476Y-132698247D01*
X142320476Y-132698247D02*
X142282380Y-132774438D01*
X150358571Y-130577295D02*
X150358571Y-129777295D01*
X150358571Y-129777295D02*
X150663333Y-129777295D01*
X150663333Y-129777295D02*
X150739523Y-129815390D01*
X150739523Y-129815390D02*
X150777618Y-129853485D01*
X150777618Y-129853485D02*
X150815714Y-129929676D01*
X150815714Y-129929676D02*
X150815714Y-130043961D01*
X150815714Y-130043961D02*
X150777618Y-130120152D01*
X150777618Y-130120152D02*
X150739523Y-130158247D01*
X150739523Y-130158247D02*
X150663333Y-130196342D01*
X150663333Y-130196342D02*
X150358571Y-130196342D01*
X151310952Y-129777295D02*
X151387142Y-129777295D01*
X151387142Y-129777295D02*
X151463333Y-129815390D01*
X151463333Y-129815390D02*
X151501428Y-129853485D01*
X151501428Y-129853485D02*
X151539523Y-129929676D01*
X151539523Y-129929676D02*
X151577618Y-130082057D01*
X151577618Y-130082057D02*
X151577618Y-130272533D01*
X151577618Y-130272533D02*
X151539523Y-130424914D01*
X151539523Y-130424914D02*
X151501428Y-130501104D01*
X151501428Y-130501104D02*
X151463333Y-130539200D01*
X151463333Y-130539200D02*
X151387142Y-130577295D01*
X151387142Y-130577295D02*
X151310952Y-130577295D01*
X151310952Y-130577295D02*
X151234761Y-130539200D01*
X151234761Y-130539200D02*
X151196666Y-130501104D01*
X151196666Y-130501104D02*
X151158571Y-130424914D01*
X151158571Y-130424914D02*
X151120475Y-130272533D01*
X151120475Y-130272533D02*
X151120475Y-130082057D01*
X151120475Y-130082057D02*
X151158571Y-129929676D01*
X151158571Y-129929676D02*
X151196666Y-129853485D01*
X151196666Y-129853485D02*
X151234761Y-129815390D01*
X151234761Y-129815390D02*
X151310952Y-129777295D01*
X151844285Y-129777295D02*
X152377619Y-129777295D01*
X152377619Y-129777295D02*
X152034761Y-130577295D01*
X150720476Y-114575390D02*
X150644286Y-114537295D01*
X150644286Y-114537295D02*
X150530000Y-114537295D01*
X150530000Y-114537295D02*
X150415714Y-114575390D01*
X150415714Y-114575390D02*
X150339524Y-114651580D01*
X150339524Y-114651580D02*
X150301429Y-114727771D01*
X150301429Y-114727771D02*
X150263333Y-114880152D01*
X150263333Y-114880152D02*
X150263333Y-114994438D01*
X150263333Y-114994438D02*
X150301429Y-115146819D01*
X150301429Y-115146819D02*
X150339524Y-115223009D01*
X150339524Y-115223009D02*
X150415714Y-115299200D01*
X150415714Y-115299200D02*
X150530000Y-115337295D01*
X150530000Y-115337295D02*
X150606191Y-115337295D01*
X150606191Y-115337295D02*
X150720476Y-115299200D01*
X150720476Y-115299200D02*
X150758572Y-115261104D01*
X150758572Y-115261104D02*
X150758572Y-114994438D01*
X150758572Y-114994438D02*
X150606191Y-114994438D01*
X151101429Y-115337295D02*
X151101429Y-114537295D01*
X151101429Y-114537295D02*
X151558572Y-115337295D01*
X151558572Y-115337295D02*
X151558572Y-114537295D01*
X151939524Y-115337295D02*
X151939524Y-114537295D01*
X151939524Y-114537295D02*
X152130000Y-114537295D01*
X152130000Y-114537295D02*
X152244286Y-114575390D01*
X152244286Y-114575390D02*
X152320476Y-114651580D01*
X152320476Y-114651580D02*
X152358571Y-114727771D01*
X152358571Y-114727771D02*
X152396667Y-114880152D01*
X152396667Y-114880152D02*
X152396667Y-114994438D01*
X152396667Y-114994438D02*
X152358571Y-115146819D01*
X152358571Y-115146819D02*
X152320476Y-115223009D01*
X152320476Y-115223009D02*
X152244286Y-115299200D01*
X152244286Y-115299200D02*
X152130000Y-115337295D01*
X152130000Y-115337295D02*
X151939524Y-115337295D01*
X150358571Y-135657295D02*
X150358571Y-134857295D01*
X150358571Y-134857295D02*
X150663333Y-134857295D01*
X150663333Y-134857295D02*
X150739523Y-134895390D01*
X150739523Y-134895390D02*
X150777618Y-134933485D01*
X150777618Y-134933485D02*
X150815714Y-135009676D01*
X150815714Y-135009676D02*
X150815714Y-135123961D01*
X150815714Y-135123961D02*
X150777618Y-135200152D01*
X150777618Y-135200152D02*
X150739523Y-135238247D01*
X150739523Y-135238247D02*
X150663333Y-135276342D01*
X150663333Y-135276342D02*
X150358571Y-135276342D01*
X151310952Y-134857295D02*
X151387142Y-134857295D01*
X151387142Y-134857295D02*
X151463333Y-134895390D01*
X151463333Y-134895390D02*
X151501428Y-134933485D01*
X151501428Y-134933485D02*
X151539523Y-135009676D01*
X151539523Y-135009676D02*
X151577618Y-135162057D01*
X151577618Y-135162057D02*
X151577618Y-135352533D01*
X151577618Y-135352533D02*
X151539523Y-135504914D01*
X151539523Y-135504914D02*
X151501428Y-135581104D01*
X151501428Y-135581104D02*
X151463333Y-135619200D01*
X151463333Y-135619200D02*
X151387142Y-135657295D01*
X151387142Y-135657295D02*
X151310952Y-135657295D01*
X151310952Y-135657295D02*
X151234761Y-135619200D01*
X151234761Y-135619200D02*
X151196666Y-135581104D01*
X151196666Y-135581104D02*
X151158571Y-135504914D01*
X151158571Y-135504914D02*
X151120475Y-135352533D01*
X151120475Y-135352533D02*
X151120475Y-135162057D01*
X151120475Y-135162057D02*
X151158571Y-135009676D01*
X151158571Y-135009676D02*
X151196666Y-134933485D01*
X151196666Y-134933485D02*
X151234761Y-134895390D01*
X151234761Y-134895390D02*
X151310952Y-134857295D01*
X151958571Y-135657295D02*
X152110952Y-135657295D01*
X152110952Y-135657295D02*
X152187142Y-135619200D01*
X152187142Y-135619200D02*
X152225238Y-135581104D01*
X152225238Y-135581104D02*
X152301428Y-135466819D01*
X152301428Y-135466819D02*
X152339523Y-135314438D01*
X152339523Y-135314438D02*
X152339523Y-135009676D01*
X152339523Y-135009676D02*
X152301428Y-134933485D01*
X152301428Y-134933485D02*
X152263333Y-134895390D01*
X152263333Y-134895390D02*
X152187142Y-134857295D01*
X152187142Y-134857295D02*
X152034761Y-134857295D01*
X152034761Y-134857295D02*
X151958571Y-134895390D01*
X151958571Y-134895390D02*
X151920476Y-134933485D01*
X151920476Y-134933485D02*
X151882380Y-135009676D01*
X151882380Y-135009676D02*
X151882380Y-135200152D01*
X151882380Y-135200152D02*
X151920476Y-135276342D01*
X151920476Y-135276342D02*
X151958571Y-135314438D01*
X151958571Y-135314438D02*
X152034761Y-135352533D01*
X152034761Y-135352533D02*
X152187142Y-135352533D01*
X152187142Y-135352533D02*
X152263333Y-135314438D01*
X152263333Y-135314438D02*
X152301428Y-135276342D01*
X152301428Y-135276342D02*
X152339523Y-135200152D01*
X140663333Y-114537295D02*
X140930000Y-115337295D01*
X140930000Y-115337295D02*
X141196666Y-114537295D01*
X141920476Y-115261104D02*
X141882380Y-115299200D01*
X141882380Y-115299200D02*
X141768095Y-115337295D01*
X141768095Y-115337295D02*
X141691904Y-115337295D01*
X141691904Y-115337295D02*
X141577618Y-115299200D01*
X141577618Y-115299200D02*
X141501428Y-115223009D01*
X141501428Y-115223009D02*
X141463333Y-115146819D01*
X141463333Y-115146819D02*
X141425237Y-114994438D01*
X141425237Y-114994438D02*
X141425237Y-114880152D01*
X141425237Y-114880152D02*
X141463333Y-114727771D01*
X141463333Y-114727771D02*
X141501428Y-114651580D01*
X141501428Y-114651580D02*
X141577618Y-114575390D01*
X141577618Y-114575390D02*
X141691904Y-114537295D01*
X141691904Y-114537295D02*
X141768095Y-114537295D01*
X141768095Y-114537295D02*
X141882380Y-114575390D01*
X141882380Y-114575390D02*
X141920476Y-114613485D01*
X142720476Y-115261104D02*
X142682380Y-115299200D01*
X142682380Y-115299200D02*
X142568095Y-115337295D01*
X142568095Y-115337295D02*
X142491904Y-115337295D01*
X142491904Y-115337295D02*
X142377618Y-115299200D01*
X142377618Y-115299200D02*
X142301428Y-115223009D01*
X142301428Y-115223009D02*
X142263333Y-115146819D01*
X142263333Y-115146819D02*
X142225237Y-114994438D01*
X142225237Y-114994438D02*
X142225237Y-114880152D01*
X142225237Y-114880152D02*
X142263333Y-114727771D01*
X142263333Y-114727771D02*
X142301428Y-114651580D01*
X142301428Y-114651580D02*
X142377618Y-114575390D01*
X142377618Y-114575390D02*
X142491904Y-114537295D01*
X142491904Y-114537295D02*
X142568095Y-114537295D01*
X142568095Y-114537295D02*
X142682380Y-114575390D01*
X142682380Y-114575390D02*
X142720476Y-114613485D01*
%TO.C,B1*%
X131102500Y-109160000D02*
X131102500Y-111660000D01*
X132602500Y-107660000D02*
X131102500Y-109160000D01*
X132602500Y-113160000D02*
X131102500Y-111660000D01*
X135102500Y-107660000D02*
X132602500Y-107660000D01*
X135102500Y-107660000D02*
X136602500Y-109160000D01*
X135102500Y-113160000D02*
X132602500Y-113160000D01*
X135102500Y-113160000D02*
X136602500Y-111660000D01*
X136602500Y-109160000D02*
X136602500Y-111660000D01*
D11*
%TO.C,D9*%
X206930000Y-151900000D02*
X207330000Y-151900000D01*
X207330000Y-151900000D02*
X207330000Y-151350000D01*
X207330000Y-151900000D02*
X207330000Y-152450000D01*
X207330000Y-151900000D02*
X207930000Y-151500000D01*
X207930000Y-151500000D02*
X207930000Y-152300000D01*
X207930000Y-151900000D02*
X208430000Y-151900000D01*
X207930000Y-152300000D02*
X207330000Y-151900000D01*
%TO.C,D6*%
X225980000Y-154400000D02*
X226380000Y-154400000D01*
X226380000Y-154400000D02*
X226380000Y-153850000D01*
X226380000Y-154400000D02*
X226380000Y-154950000D01*
X226380000Y-154400000D02*
X226980000Y-154000000D01*
X226980000Y-154000000D02*
X226980000Y-154800000D01*
X226980000Y-154400000D02*
X227480000Y-154400000D01*
X226980000Y-154800000D02*
X226380000Y-154400000D01*
%TO.C,D4*%
X245030000Y-140350000D02*
X245430000Y-140350000D01*
X245430000Y-140350000D02*
X245430000Y-139800000D01*
X245430000Y-140350000D02*
X245430000Y-140900000D01*
X245430000Y-140350000D02*
X246030000Y-139950000D01*
X246030000Y-139950000D02*
X246030000Y-140750000D01*
X246030000Y-140350000D02*
X246530000Y-140350000D01*
X246030000Y-140750000D02*
X245430000Y-140350000D01*
%TO.C,D16*%
X168830000Y-137850000D02*
X169230000Y-137850000D01*
X169230000Y-137850000D02*
X169230000Y-137300000D01*
X169230000Y-137850000D02*
X169230000Y-138400000D01*
X169230000Y-137850000D02*
X169830000Y-137450000D01*
X169830000Y-137450000D02*
X169830000Y-138250000D01*
X169830000Y-137850000D02*
X170330000Y-137850000D01*
X169830000Y-138250000D02*
X169230000Y-137850000D01*
%TO.C,D15*%
X168830000Y-156900000D02*
X169230000Y-156900000D01*
X169230000Y-156900000D02*
X169230000Y-156350000D01*
X169230000Y-156900000D02*
X169230000Y-157450000D01*
X169230000Y-156900000D02*
X169830000Y-156500000D01*
X169830000Y-156500000D02*
X169830000Y-157300000D01*
X169830000Y-156900000D02*
X170330000Y-156900000D01*
X169830000Y-157300000D02*
X169230000Y-156900000D01*
%TO.C,D13*%
X187880000Y-135350000D02*
X188280000Y-135350000D01*
X188280000Y-135350000D02*
X188280000Y-134800000D01*
X188280000Y-135350000D02*
X188280000Y-135900000D01*
X188280000Y-135350000D02*
X188880000Y-134950000D01*
X188880000Y-134950000D02*
X188880000Y-135750000D01*
X188880000Y-135350000D02*
X189380000Y-135350000D01*
X188880000Y-135750000D02*
X188280000Y-135350000D01*
%TO.C,D2*%
X264080000Y-140350000D02*
X264480000Y-140350000D01*
X264480000Y-140350000D02*
X264480000Y-139800000D01*
X264480000Y-140350000D02*
X264480000Y-140900000D01*
X264480000Y-140350000D02*
X265080000Y-139950000D01*
X265080000Y-139950000D02*
X265080000Y-140750000D01*
X265080000Y-140350000D02*
X265580000Y-140350000D01*
X265080000Y-140750000D02*
X264480000Y-140350000D01*
%TO.C,D7*%
X225980000Y-135350000D02*
X226380000Y-135350000D01*
X226380000Y-135350000D02*
X226380000Y-134800000D01*
X226380000Y-135350000D02*
X226380000Y-135900000D01*
X226380000Y-135350000D02*
X226980000Y-134950000D01*
X226980000Y-134950000D02*
X226980000Y-135750000D01*
X226980000Y-135350000D02*
X227480000Y-135350000D01*
X226980000Y-135750000D02*
X226380000Y-135350000D01*
%TO.C,D10*%
X206930000Y-132850000D02*
X207330000Y-132850000D01*
X207330000Y-132850000D02*
X207330000Y-132300000D01*
X207330000Y-132850000D02*
X207330000Y-133400000D01*
X207330000Y-132850000D02*
X207930000Y-132450000D01*
X207930000Y-132450000D02*
X207930000Y-133250000D01*
X207930000Y-132850000D02*
X208430000Y-132850000D01*
X207930000Y-133250000D02*
X207330000Y-132850000D01*
%TO.C,D3*%
X245030000Y-159400000D02*
X245430000Y-159400000D01*
X245430000Y-159400000D02*
X245430000Y-158850000D01*
X245430000Y-159400000D02*
X245430000Y-159950000D01*
X245430000Y-159400000D02*
X246030000Y-159000000D01*
X246030000Y-159000000D02*
X246030000Y-159800000D01*
X246030000Y-159400000D02*
X246530000Y-159400000D01*
X246030000Y-159800000D02*
X245430000Y-159400000D01*
%TO.C,D8*%
X225980000Y-116300000D02*
X226380000Y-116300000D01*
X226380000Y-116300000D02*
X226380000Y-115750000D01*
X226380000Y-116300000D02*
X226380000Y-116850000D01*
X226380000Y-116300000D02*
X226980000Y-115900000D01*
X226980000Y-115900000D02*
X226980000Y-116700000D01*
X226980000Y-116300000D02*
X227480000Y-116300000D01*
X226980000Y-116700000D02*
X226380000Y-116300000D01*
%TO.C,D19*%
X153332452Y-182734573D02*
X153945288Y-182220343D01*
X153638870Y-182477458D02*
X153317476Y-182094436D01*
X153945288Y-182220343D02*
X154024543Y-182937085D01*
X154024543Y-182937085D02*
X153332452Y-182734573D01*
X154024543Y-182937085D02*
X153603218Y-183290618D01*
X154024543Y-182937085D02*
X154445867Y-182583551D01*
X154281658Y-183243502D02*
X154024543Y-182937085D01*
%TO.C,D1*%
X264080000Y-159400000D02*
X264480000Y-159400000D01*
X264480000Y-159400000D02*
X264480000Y-158850000D01*
X264480000Y-159400000D02*
X264480000Y-159950000D01*
X264480000Y-159400000D02*
X265080000Y-159000000D01*
X265080000Y-159000000D02*
X265080000Y-159800000D01*
X265080000Y-159400000D02*
X265580000Y-159400000D01*
X265080000Y-159800000D02*
X264480000Y-159400000D01*
%TO.C,D17*%
X168830000Y-118800000D02*
X169230000Y-118800000D01*
X169230000Y-118800000D02*
X169230000Y-118250000D01*
X169230000Y-118800000D02*
X169230000Y-119350000D01*
X169230000Y-118800000D02*
X169830000Y-118400000D01*
X169830000Y-118400000D02*
X169830000Y-119200000D01*
X169830000Y-118800000D02*
X170330000Y-118800000D01*
X169830000Y-119200000D02*
X169230000Y-118800000D01*
%TO.C,D12*%
X187880000Y-154400000D02*
X188280000Y-154400000D01*
X188280000Y-154400000D02*
X188280000Y-153850000D01*
X188280000Y-154400000D02*
X188280000Y-154950000D01*
X188280000Y-154400000D02*
X188880000Y-154000000D01*
X188880000Y-154000000D02*
X188880000Y-154800000D01*
X188880000Y-154400000D02*
X189380000Y-154400000D01*
X188880000Y-154800000D02*
X188280000Y-154400000D01*
%TO.C,D20*%
X135300711Y-197560838D02*
X135866396Y-196995153D01*
X135583553Y-197277995D02*
X135230000Y-196924442D01*
X135866396Y-196995153D02*
X136007817Y-197702259D01*
X136007817Y-197702259D02*
X135300711Y-197560838D01*
X136007817Y-197702259D02*
X135618909Y-198091168D01*
X136007817Y-197702259D02*
X136396726Y-197313351D01*
X136290660Y-197985102D02*
X136007817Y-197702259D01*
D10*
%TO.C,JST1*%
X130580000Y-132972500D02*
X130580000Y-140572500D01*
X130580000Y-140572500D02*
X131280000Y-140572500D01*
X131280000Y-138972500D02*
X135780000Y-138972500D01*
X131280000Y-140572500D02*
X131280000Y-138972500D01*
X134530000Y-137722500D02*
X134530000Y-137222500D01*
X134780000Y-137472500D02*
X134280000Y-137472500D01*
X135780000Y-138972500D02*
X135780000Y-140572500D01*
X135780000Y-140572500D02*
X136480000Y-140572500D01*
X136480000Y-132972500D02*
X130580000Y-132972500D01*
X136480000Y-140572500D02*
X136480000Y-132972500D01*
D12*
%TO.C,DISP1*%
X140120000Y-141695000D02*
X140120000Y-144355000D01*
X152940000Y-141695000D02*
X140120000Y-141695000D01*
X152940000Y-141695000D02*
X152940000Y-144355000D01*
X152940000Y-144355000D02*
X140120000Y-144355000D01*
D11*
%TO.C,D11*%
X206930000Y-113800000D02*
X207330000Y-113800000D01*
X207330000Y-113800000D02*
X207330000Y-113250000D01*
X207330000Y-113800000D02*
X207330000Y-114350000D01*
X207330000Y-113800000D02*
X207930000Y-113400000D01*
X207930000Y-113400000D02*
X207930000Y-114200000D01*
X207930000Y-113800000D02*
X208430000Y-113800000D01*
X207930000Y-114200000D02*
X207330000Y-113800000D01*
%TO.C,D14*%
X187880000Y-116300000D02*
X188280000Y-116300000D01*
X188280000Y-116300000D02*
X188280000Y-115750000D01*
X188280000Y-116300000D02*
X188280000Y-116850000D01*
X188280000Y-116300000D02*
X188880000Y-115900000D01*
X188880000Y-115900000D02*
X188880000Y-116700000D01*
X188880000Y-116300000D02*
X189380000Y-116300000D01*
X188880000Y-116700000D02*
X188280000Y-116300000D01*
%TO.C,D5*%
X245030000Y-121300000D02*
X245430000Y-121300000D01*
X245430000Y-121300000D02*
X245430000Y-120750000D01*
X245430000Y-121300000D02*
X245430000Y-121850000D01*
X245430000Y-121300000D02*
X246030000Y-120900000D01*
X246030000Y-120900000D02*
X246030000Y-121700000D01*
X246030000Y-121300000D02*
X246530000Y-121300000D01*
X246030000Y-121700000D02*
X245430000Y-121300000D01*
D10*
%TO.C,MCU1*%
X137640000Y-103545000D02*
X137640000Y-136565000D01*
X137640000Y-136565000D02*
X155420000Y-136565000D01*
X140180000Y-106085000D02*
X137640000Y-106085000D01*
X140180000Y-106085000D02*
X140180000Y-108625000D01*
X140180000Y-108625000D02*
X137640000Y-108625000D01*
X155420000Y-103545000D02*
X137640000Y-103545000D01*
X155420000Y-136565000D02*
X155420000Y-103545000D01*
D11*
%TO.C,D18*%
X176149651Y-181973743D02*
X176536021Y-181870216D01*
X176536021Y-181870216D02*
X176393670Y-181338955D01*
X176536021Y-181870216D02*
X176678371Y-182401475D01*
X176536021Y-181870216D02*
X177012049Y-181328554D01*
X177012049Y-181328554D02*
X177219104Y-182101295D01*
X177115576Y-181714924D02*
X177598539Y-181585515D01*
X177219104Y-182101295D02*
X176536021Y-181870216D01*
%TD*%
D13*
%TO.C,MCU1*%
X138910000Y-107355000D03*
D14*
X138910000Y-109895000D03*
X138910000Y-112435000D03*
X138910000Y-114975000D03*
X138910000Y-117515000D03*
X138910000Y-120055000D03*
X138910000Y-122595000D03*
X138910000Y-125135000D03*
X138910000Y-127675000D03*
X138910000Y-130215000D03*
X138910000Y-132755000D03*
X138910000Y-135295000D03*
X154150000Y-107355000D03*
X154150000Y-109895000D03*
X154150000Y-112435000D03*
X154150000Y-114975000D03*
X154150000Y-117515000D03*
X154150000Y-120055000D03*
X154150000Y-122595000D03*
X154150000Y-125135000D03*
X154150000Y-127675000D03*
X154150000Y-130215000D03*
X154150000Y-132755000D03*
X154150000Y-135295000D03*
%TD*%
M02*
