%TF.GenerationSoftware,KiCad,Pcbnew,9.0.7*%
%TF.CreationDate,2026-02-08T22:38:48+02:00*%
%TF.ProjectId,juubo_right_unfinished,6a757562-6f5f-4726-9967-68745f756e66,v1.0.0*%
%TF.SameCoordinates,Original*%
%TF.FileFunction,Soldermask,Top*%
%TF.FilePolarity,Negative*%
%FSLAX46Y46*%
G04 Gerber Fmt 4.6, Leading zero omitted, Abs format (unit mm)*
G04 Created by KiCad (PCBNEW 9.0.7) date 2026-02-08 22:38:48*
%MOMM*%
%LPD*%
G01*
G04 APERTURE LIST*
G04 Aperture macros list*
%AMRoundRect*
0 Rectangle with rounded corners*
0 $1 Rounding radius*
0 $2 $3 $4 $5 $6 $7 $8 $9 X,Y pos of 4 corners*
0 Add a 4 corners polygon primitive as box body*
4,1,4,$2,$3,$4,$5,$6,$7,$8,$9,$2,$3,0*
0 Add four circle primitives for the rounded corners*
1,1,$1+$1,$2,$3*
1,1,$1+$1,$4,$5*
1,1,$1+$1,$6,$7*
1,1,$1+$1,$8,$9*
0 Add four rect primitives between the rounded corners*
20,1,$1+$1,$2,$3,$4,$5,0*
20,1,$1+$1,$4,$5,$6,$7,0*
20,1,$1+$1,$6,$7,$8,$9,0*
20,1,$1+$1,$8,$9,$2,$3,0*%
G04 Aperture macros list end*
%ADD10C,1.100000*%
%ADD11RoundRect,0.050000X-0.550000X0.900000X-0.550000X-0.900000X0.550000X-0.900000X0.550000X0.900000X0*%
%ADD12C,1.801800*%
%ADD13C,3.100000*%
%ADD14C,4.087800*%
%ADD15C,0.800000*%
%ADD16C,4.500000*%
%ADD17RoundRect,0.050000X-0.889000X-0.889000X0.889000X-0.889000X0.889000X0.889000X-0.889000X0.889000X0*%
%ADD18RoundRect,0.050000X-0.450000X-0.600000X0.450000X-0.600000X0.450000X0.600000X-0.450000X0.600000X0*%
%ADD19C,2.005000*%
%ADD20RoundRect,0.050000X1.252452X-0.109575X0.109575X1.252452X-1.252452X0.109575X-0.109575X-1.252452X0*%
%ADD21RoundRect,0.050000X0.748881X0.040953X0.170372X0.730393X-0.748881X-0.040953X-0.170372X-0.730393X0*%
%ADD22RoundRect,0.050000X1.257236X0.000000X0.000000X1.257236X-1.257236X0.000000X0.000000X-1.257236X0*%
%ADD23RoundRect,0.050000X0.742462X0.106066X0.106066X0.742462X-0.742462X-0.106066X-0.106066X-0.742462X0*%
%ADD24RoundRect,0.050000X0.600000X0.850000X-0.600000X0.850000X-0.600000X-0.850000X0.600000X-0.850000X0*%
%ADD25O,1.300000X1.800000*%
%ADD26O,1.800000X1.800000*%
%ADD27C,1.800000*%
%ADD28RoundRect,0.050000X-0.876300X0.876300X-0.876300X-0.876300X0.876300X-0.876300X0.876300X0.876300X0*%
%ADD29C,1.852600*%
%ADD30RoundRect,0.050000X-0.628618X-1.088798X1.088798X-0.628618X0.628618X1.088798X-1.088798X0.628618X0*%
%ADD31RoundRect,0.050000X-0.279375X-0.696024X0.589958X-0.463087X0.279375X0.696024X-0.589958X0.463087X0*%
G04 APERTURE END LIST*
D10*
%TO.C,T1*%
X145030000Y-104810500D03*
X148030000Y-104810500D03*
%TD*%
D11*
%TO.C,B1*%
X135702500Y-107310000D03*
X135702500Y-113510000D03*
X132002500Y-107310000D03*
X132002500Y-113510000D03*
%TD*%
D12*
%TO.C,S6*%
X221650000Y-149400000D03*
D13*
X222920000Y-146860000D03*
D14*
X226730000Y-149400000D03*
D13*
X229270000Y-144320000D03*
D12*
X231810000Y-149400000D03*
%TD*%
D15*
%TO.C,_9*%
X140307500Y-155710000D03*
X140790774Y-154543274D03*
X140790774Y-156876726D03*
X141957500Y-154060000D03*
D16*
X141957500Y-155710000D03*
D15*
X141957500Y-157360000D03*
X143124226Y-154543274D03*
X143124226Y-156876726D03*
X143607500Y-155710000D03*
%TD*%
D12*
%TO.C,S13*%
X183550000Y-130350000D03*
D13*
X184820000Y-127810000D03*
D14*
X188630000Y-130350000D03*
D13*
X191170000Y-125270000D03*
D12*
X193710000Y-130350000D03*
%TD*%
D17*
%TO.C,D9*%
X203870000Y-151900000D03*
D18*
X206030000Y-151900000D03*
X209330000Y-151900000D03*
D19*
X211490000Y-151900000D03*
%TD*%
D12*
%TO.C,S11*%
X202600000Y-108800000D03*
D13*
X203870000Y-106260000D03*
D14*
X207680000Y-108800000D03*
D13*
X210220000Y-103720000D03*
D12*
X212760000Y-108800000D03*
%TD*%
D17*
%TO.C,D6*%
X222920000Y-154400000D03*
D18*
X225080000Y-154400000D03*
X228380000Y-154400000D03*
D19*
X230540000Y-154400000D03*
%TD*%
D12*
%TO.C,S5*%
X240700000Y-116300000D03*
D13*
X241970000Y-113760000D03*
D14*
X245780000Y-116300000D03*
D13*
X248320000Y-111220000D03*
D12*
X250860000Y-116300000D03*
%TD*%
D17*
%TO.C,D4*%
X241970000Y-140350000D03*
D18*
X244130000Y-140350000D03*
X247430000Y-140350000D03*
D19*
X249590000Y-140350000D03*
%TD*%
D17*
%TO.C,D16*%
X165770000Y-137850000D03*
D18*
X167930000Y-137850000D03*
X171230000Y-137850000D03*
D19*
X173390000Y-137850000D03*
%TD*%
D12*
%TO.C,S7*%
X221650000Y-130350000D03*
D13*
X222920000Y-127810000D03*
D14*
X226730000Y-130350000D03*
D13*
X229270000Y-125270000D03*
D12*
X231810000Y-130350000D03*
%TD*%
D17*
%TO.C,D15*%
X165770000Y-156900000D03*
D18*
X167930000Y-156900000D03*
X171230000Y-156900000D03*
D19*
X173390000Y-156900000D03*
%TD*%
D12*
%TO.C,S15*%
X164500000Y-151900000D03*
D13*
X165770000Y-149360000D03*
D14*
X169580000Y-151900000D03*
D13*
X172120000Y-146820000D03*
D12*
X174660000Y-151900000D03*
%TD*%
D17*
%TO.C,D13*%
X184820000Y-135350000D03*
D18*
X186980000Y-135350000D03*
X190280000Y-135350000D03*
D19*
X192440000Y-135350000D03*
%TD*%
D17*
%TO.C,D2*%
X261020000Y-140350000D03*
D18*
X263180000Y-140350000D03*
X266480000Y-140350000D03*
D19*
X268640000Y-140350000D03*
%TD*%
D12*
%TO.C,S20*%
X135816898Y-204582408D03*
D13*
X133122822Y-205480434D03*
D14*
X132224796Y-200990306D03*
D13*
X126836642Y-202786357D03*
D12*
X128632694Y-197398204D03*
%TD*%
D17*
%TO.C,D7*%
X222920000Y-135350000D03*
D18*
X225080000Y-135350000D03*
X228380000Y-135350000D03*
D19*
X230540000Y-135350000D03*
%TD*%
D12*
%TO.C,S1*%
X259750000Y-154400000D03*
D13*
X261020000Y-151860000D03*
D14*
X264830000Y-154400000D03*
D13*
X267370000Y-149320000D03*
D12*
X269910000Y-154400000D03*
%TD*%
D17*
%TO.C,D10*%
X203870000Y-132850000D03*
D18*
X206030000Y-132850000D03*
X209330000Y-132850000D03*
D19*
X211490000Y-132850000D03*
%TD*%
D12*
%TO.C,S2*%
X259750000Y-135350000D03*
D13*
X261020000Y-132810000D03*
D14*
X264830000Y-135350000D03*
D13*
X267370000Y-130270000D03*
D12*
X269910000Y-135350000D03*
%TD*%
D17*
%TO.C,D3*%
X241970000Y-159400000D03*
D18*
X244130000Y-159400000D03*
X247430000Y-159400000D03*
D19*
X249590000Y-159400000D03*
%TD*%
D17*
%TO.C,D8*%
X222920000Y-116300000D03*
D18*
X225080000Y-116300000D03*
X228380000Y-116300000D03*
D19*
X230540000Y-116300000D03*
%TD*%
D15*
%TO.C,_4*%
X177455000Y-117015000D03*
X177938274Y-115848274D03*
X177938274Y-118181726D03*
X179105000Y-115365000D03*
D16*
X179105000Y-117015000D03*
D15*
X179105000Y-118665000D03*
X180271726Y-115848274D03*
X180271726Y-118181726D03*
X180755000Y-117015000D03*
%TD*%
D20*
%TO.C,D19*%
X156248588Y-185587598D03*
D21*
X154860167Y-183932942D03*
X152738967Y-181404996D03*
D19*
X151350546Y-179750340D03*
%TD*%
D12*
%TO.C,S8*%
X221650000Y-111300000D03*
D13*
X222920000Y-108760000D03*
D14*
X226730000Y-111300000D03*
D13*
X229270000Y-106220000D03*
D12*
X231810000Y-111300000D03*
%TD*%
D15*
%TO.C,_2*%
X263180000Y-122015000D03*
X263663274Y-120848274D03*
X263663274Y-123181726D03*
X264830000Y-120365000D03*
D16*
X264830000Y-122015000D03*
D15*
X264830000Y-123665000D03*
X265996726Y-120848274D03*
X265996726Y-123181726D03*
X266480000Y-122015000D03*
%TD*%
D17*
%TO.C,D1*%
X261020000Y-159400000D03*
D18*
X263180000Y-159400000D03*
X266480000Y-159400000D03*
D19*
X268640000Y-159400000D03*
%TD*%
D15*
%TO.C,_3*%
X234605000Y-122015000D03*
X235088274Y-120848274D03*
X235088274Y-123181726D03*
X236255000Y-120365000D03*
D16*
X236255000Y-122015000D03*
D15*
X236255000Y-123665000D03*
X237421726Y-120848274D03*
X237421726Y-123181726D03*
X237905000Y-122015000D03*
%TD*%
D12*
%TO.C,S19*%
X153234706Y-189774413D03*
D13*
X150472613Y-190434217D03*
D14*
X149969345Y-185882907D03*
D13*
X144445159Y-187202515D03*
D12*
X146703984Y-181991401D03*
%TD*%
D15*
%TO.C,_7*%
X140126714Y-195421840D03*
X138959988Y-195905114D03*
X140609988Y-194255114D03*
X137793262Y-195421840D03*
D16*
X138959988Y-194255114D03*
D15*
X140126714Y-193088388D03*
X137309988Y-194255114D03*
X138959988Y-192605114D03*
X137793262Y-193088388D03*
%TD*%
D17*
%TO.C,D17*%
X165770000Y-118800000D03*
D18*
X167930000Y-118800000D03*
X171230000Y-118800000D03*
D19*
X173390000Y-118800000D03*
%TD*%
D17*
%TO.C,D12*%
X184820000Y-154400000D03*
D18*
X186980000Y-154400000D03*
X190280000Y-154400000D03*
D19*
X192440000Y-154400000D03*
%TD*%
D12*
%TO.C,S18*%
X170673097Y-178264801D03*
D13*
X171242422Y-175482649D03*
D14*
X175580000Y-176950000D03*
D13*
X176718651Y-171385696D03*
D12*
X180486903Y-175635199D03*
%TD*%
%TO.C,S14*%
X183550000Y-111300000D03*
D13*
X184820000Y-108760000D03*
D14*
X188630000Y-111300000D03*
D13*
X191170000Y-106220000D03*
D12*
X193710000Y-111300000D03*
%TD*%
%TO.C,S3*%
X240700000Y-154400000D03*
D13*
X241970000Y-151860000D03*
D14*
X245780000Y-154400000D03*
D13*
X248320000Y-149320000D03*
D12*
X250860000Y-154400000D03*
%TD*%
D15*
%TO.C,_5*%
X234605000Y-141065000D03*
X235088274Y-139898274D03*
X235088274Y-142231726D03*
X236255000Y-139415000D03*
D16*
X236255000Y-141065000D03*
D15*
X236255000Y-142715000D03*
X237421726Y-139898274D03*
X237421726Y-142231726D03*
X237905000Y-141065000D03*
%TD*%
%TO.C,_1*%
X261275000Y-145446500D03*
X261758274Y-144279774D03*
X261758274Y-146613226D03*
X262925000Y-143796500D03*
D16*
X262925000Y-145446500D03*
D15*
X262925000Y-147096500D03*
X264091726Y-144279774D03*
X264091726Y-146613226D03*
X264575000Y-145446500D03*
%TD*%
D12*
%TO.C,S10*%
X202600000Y-127850000D03*
D13*
X203870000Y-125310000D03*
D14*
X207680000Y-127850000D03*
D13*
X210220000Y-122770000D03*
D12*
X212760000Y-127850000D03*
%TD*%
%TO.C,S16*%
X164500000Y-132850000D03*
D13*
X165770000Y-130310000D03*
D14*
X169580000Y-132850000D03*
D13*
X172120000Y-127770000D03*
D12*
X174660000Y-132850000D03*
%TD*%
D22*
%TO.C,D20*%
X138454407Y-200148849D03*
D23*
X136927056Y-198621498D03*
X134593604Y-196288046D03*
D19*
X133066253Y-194760695D03*
%TD*%
D24*
%TO.C,JST1*%
X134530000Y-139222500D03*
D25*
X132530000Y-139222500D03*
%TD*%
D12*
%TO.C,S4*%
X240700000Y-135350000D03*
D13*
X241970000Y-132810000D03*
D14*
X245780000Y-135350000D03*
D13*
X248320000Y-130270000D03*
D12*
X250860000Y-135350000D03*
%TD*%
D26*
%TO.C,DISP1*%
X141450000Y-143025000D03*
X143990000Y-143025000D03*
X146530000Y-143025000D03*
X149070000Y-143025000D03*
D27*
X151610000Y-143025000D03*
%TD*%
D17*
%TO.C,D11*%
X203870000Y-113800000D03*
D18*
X206030000Y-113800000D03*
X209330000Y-113800000D03*
D19*
X211490000Y-113800000D03*
%TD*%
D15*
%TO.C,_8*%
X177455000Y-139875000D03*
X177938274Y-138708274D03*
X177938274Y-141041726D03*
X179105000Y-138225000D03*
D16*
X179105000Y-139875000D03*
D15*
X179105000Y-141525000D03*
X180271726Y-138708274D03*
X180271726Y-141041726D03*
X180755000Y-139875000D03*
%TD*%
D17*
%TO.C,D14*%
X184820000Y-116300000D03*
D18*
X186980000Y-116300000D03*
X190280000Y-116300000D03*
D19*
X192440000Y-116300000D03*
%TD*%
D17*
%TO.C,D5*%
X241970000Y-121300000D03*
D18*
X244130000Y-121300000D03*
X247430000Y-121300000D03*
D19*
X249590000Y-121300000D03*
%TD*%
D28*
%TO.C,MCU1*%
X138910000Y-107355000D03*
D29*
X138910000Y-109895000D03*
X138910000Y-112435000D03*
X138910000Y-114975000D03*
X138910000Y-117515000D03*
X138910000Y-120055000D03*
X138910000Y-122595000D03*
X138910000Y-125135000D03*
X138910000Y-127675000D03*
X138910000Y-130215000D03*
X138910000Y-132755000D03*
X138910000Y-135295000D03*
X154150000Y-107355000D03*
X154150000Y-109895000D03*
X154150000Y-112435000D03*
X154150000Y-114975000D03*
X154150000Y-117515000D03*
X154150000Y-120055000D03*
X154150000Y-122595000D03*
X154150000Y-125135000D03*
X154150000Y-127675000D03*
X154150000Y-130215000D03*
X154150000Y-132755000D03*
X154150000Y-135295000D03*
%TD*%
D12*
%TO.C,S12*%
X183550000Y-149400000D03*
D13*
X184820000Y-146860000D03*
D14*
X188630000Y-149400000D03*
D13*
X191170000Y-144320000D03*
D12*
X193710000Y-149400000D03*
%TD*%
%TO.C,S17*%
X164500000Y-113800000D03*
D13*
X165770000Y-111260000D03*
D14*
X169580000Y-113800000D03*
D13*
X172120000Y-108720000D03*
D12*
X174660000Y-113800000D03*
%TD*%
%TO.C,S9*%
X202600000Y-146900000D03*
D13*
X203870000Y-144360000D03*
D14*
X207680000Y-146900000D03*
D13*
X210220000Y-141820000D03*
D12*
X212760000Y-146900000D03*
%TD*%
D30*
%TO.C,D18*%
X173193918Y-182765731D03*
D31*
X175280317Y-182206679D03*
X178467873Y-181352579D03*
D19*
X180554272Y-180793527D03*
%TD*%
D15*
%TO.C,_6*%
X159626450Y-175308136D03*
X159791286Y-174056086D03*
X160395228Y-176310028D03*
X161647278Y-176474864D03*
D16*
X161220228Y-174881086D03*
D15*
X160793178Y-173287308D03*
X162045228Y-173452144D03*
X162649170Y-175706086D03*
X162814006Y-174454036D03*
%TD*%
M02*
