%TF.GenerationSoftware,KiCad,Pcbnew,9.0.7*%
%TF.CreationDate,2026-02-08T22:38:48+02:00*%
%TF.ProjectId,juubo_right_unfinished,6a757562-6f5f-4726-9967-68745f756e66,v1.0.0*%
%TF.SameCoordinates,Original*%
%TF.FileFunction,Copper,L2,Bot*%
%TF.FilePolarity,Positive*%
%FSLAX46Y46*%
G04 Gerber Fmt 4.6, Leading zero omitted, Abs format (unit mm)*
G04 Created by KiCad (PCBNEW 9.0.7) date 2026-02-08 22:38:48*
%MOMM*%
%LPD*%
G01*
G04 APERTURE LIST*
G04 Aperture macros list*
%AMRotRect*
0 Rectangle, with rotation*
0 The origin of the aperture is its center*
0 $1 length*
0 $2 width*
0 $3 Rotation angle, in degrees counterclockwise*
0 Add horizontal line*
21,1,$1,$2,0,0,$3*%
G04 Aperture macros list end*
%TA.AperFunction,SMDPad,CuDef*%
%ADD10R,0.900000X0.900000*%
%TD*%
%TA.AperFunction,WasherPad*%
%ADD11C,1.000000*%
%TD*%
%TA.AperFunction,SMDPad,CuDef*%
%ADD12R,0.900000X1.250000*%
%TD*%
%TA.AperFunction,SMDPad,CuDef*%
%ADD13R,2.550000X2.500000*%
%TD*%
%TA.AperFunction,ComponentPad*%
%ADD14C,0.700000*%
%TD*%
%TA.AperFunction,ComponentPad*%
%ADD15C,4.400000*%
%TD*%
%TA.AperFunction,ComponentPad*%
%ADD16R,1.778000X1.778000*%
%TD*%
%TA.AperFunction,SMDPad,CuDef*%
%ADD17R,0.900000X1.200000*%
%TD*%
%TA.AperFunction,ComponentPad*%
%ADD18C,1.905000*%
%TD*%
%TA.AperFunction,SMDPad,CuDef*%
%ADD19RotRect,2.550000X2.500000X135.000000*%
%TD*%
%TA.AperFunction,ComponentPad*%
%ADD20RotRect,1.778000X1.778000X130.000000*%
%TD*%
%TA.AperFunction,SMDPad,CuDef*%
%ADD21RotRect,0.900000X1.200000X130.000000*%
%TD*%
%TA.AperFunction,SMDPad,CuDef*%
%ADD22RotRect,2.550000X2.500000X130.000000*%
%TD*%
%TA.AperFunction,SMDPad,CuDef*%
%ADD23RotRect,2.550000X2.500000X15.000000*%
%TD*%
%TA.AperFunction,ComponentPad*%
%ADD24RotRect,1.778000X1.778000X135.000000*%
%TD*%
%TA.AperFunction,SMDPad,CuDef*%
%ADD25RotRect,0.900000X1.200000X135.000000*%
%TD*%
%TA.AperFunction,ComponentPad*%
%ADD26R,1.200000X1.700000*%
%TD*%
%TA.AperFunction,ComponentPad*%
%ADD27O,1.200000X1.700000*%
%TD*%
%TA.AperFunction,ComponentPad*%
%ADD28O,1.700000X1.700000*%
%TD*%
%TA.AperFunction,ComponentPad*%
%ADD29C,1.700000*%
%TD*%
%TA.AperFunction,ComponentPad*%
%ADD30R,1.752600X1.752600*%
%TD*%
%TA.AperFunction,ComponentPad*%
%ADD31C,1.752600*%
%TD*%
%TA.AperFunction,ComponentPad*%
%ADD32RotRect,1.778000X1.778000X15.000000*%
%TD*%
%TA.AperFunction,SMDPad,CuDef*%
%ADD33RotRect,0.900000X1.200000X15.000000*%
%TD*%
%TA.AperFunction,ViaPad*%
%ADD34C,0.600000*%
%TD*%
%TA.AperFunction,Conductor*%
%ADD35C,0.200000*%
%TD*%
G04 APERTURE END LIST*
D10*
%TO.P,T1,*%
%TO.N,*%
X142830000Y-103710500D03*
X142830000Y-105910500D03*
D11*
X145030000Y-104810500D03*
X148030000Y-104810500D03*
D10*
X150230000Y-103710500D03*
X150230000Y-105910500D03*
D12*
%TO.P,T1,1*%
%TO.N,RAW*%
X144280000Y-106885500D03*
%TO.P,T1,2*%
%TO.N,B+*%
X147280000Y-106885500D03*
%TO.P,T1,3*%
%TO.N,N/C*%
X148780000Y-106885500D03*
%TD*%
D13*
%TO.P,S6,1*%
%TO.N,P5*%
X219645000Y-146860000D03*
%TO.P,S6,2*%
%TO.N,mirror_ring_bottom*%
X232572000Y-144320000D03*
%TD*%
D14*
%TO.P,_9,1*%
%TO.N,N/C*%
X140307500Y-155710000D03*
X140790774Y-154543274D03*
X140790774Y-156876726D03*
X141957500Y-154060000D03*
D15*
X141957500Y-155710000D03*
D14*
X141957500Y-157360000D03*
X143124226Y-154543274D03*
X143124226Y-156876726D03*
X143607500Y-155710000D03*
%TD*%
D13*
%TO.P,S13,1*%
%TO.N,P7*%
X181545000Y-127810000D03*
%TO.P,S13,2*%
%TO.N,mirror_index_home*%
X194472000Y-125270000D03*
%TD*%
D16*
%TO.P,D9,1*%
%TO.N,P16*%
X203870000Y-151900000D03*
D17*
X206030000Y-151900000D03*
%TO.P,D9,2*%
%TO.N,mirror_middle_bottom*%
X209330000Y-151900000D03*
D18*
X211490000Y-151900000D03*
%TD*%
D13*
%TO.P,S11,1*%
%TO.N,P6*%
X200595000Y-106260000D03*
%TO.P,S11,2*%
%TO.N,mirror_middle_top*%
X213522000Y-103720000D03*
%TD*%
D16*
%TO.P,D6,1*%
%TO.N,P16*%
X222920000Y-154400000D03*
D17*
X225080000Y-154400000D03*
%TO.P,D6,2*%
%TO.N,mirror_ring_bottom*%
X228380000Y-154400000D03*
D18*
X230540000Y-154400000D03*
%TD*%
D13*
%TO.P,S5,1*%
%TO.N,P4*%
X238695000Y-113760000D03*
%TO.P,S5,2*%
%TO.N,mirror_pinky_top*%
X251622000Y-111220000D03*
%TD*%
D16*
%TO.P,D4,1*%
%TO.N,P14*%
X241970000Y-140350000D03*
D17*
X244130000Y-140350000D03*
%TO.P,D4,2*%
%TO.N,mirror_pinky_home*%
X247430000Y-140350000D03*
D18*
X249590000Y-140350000D03*
%TD*%
D16*
%TO.P,D16,1*%
%TO.N,P14*%
X165770000Y-137850000D03*
D17*
X167930000Y-137850000D03*
%TO.P,D16,2*%
%TO.N,mirror_inner_home*%
X171230000Y-137850000D03*
D18*
X173390000Y-137850000D03*
%TD*%
D13*
%TO.P,S7,1*%
%TO.N,P5*%
X219645000Y-127810000D03*
%TO.P,S7,2*%
%TO.N,mirror_ring_home*%
X232572000Y-125270000D03*
%TD*%
D16*
%TO.P,D15,1*%
%TO.N,P16*%
X165770000Y-156900000D03*
D17*
X167930000Y-156900000D03*
%TO.P,D15,2*%
%TO.N,mirror_inner_bottom*%
X171230000Y-156900000D03*
D18*
X173390000Y-156900000D03*
%TD*%
D13*
%TO.P,S15,1*%
%TO.N,P8*%
X162495000Y-149360000D03*
%TO.P,S15,2*%
%TO.N,mirror_inner_bottom*%
X175422000Y-146820000D03*
%TD*%
D16*
%TO.P,D13,1*%
%TO.N,P14*%
X184820000Y-135350000D03*
D17*
X186980000Y-135350000D03*
%TO.P,D13,2*%
%TO.N,mirror_index_home*%
X190280000Y-135350000D03*
D18*
X192440000Y-135350000D03*
%TD*%
D16*
%TO.P,D2,1*%
%TO.N,P14*%
X261020000Y-140350000D03*
D17*
X263180000Y-140350000D03*
%TO.P,D2,2*%
%TO.N,mirror_outer_home*%
X266480000Y-140350000D03*
D18*
X268640000Y-140350000D03*
%TD*%
D19*
%TO.P,S20,1*%
%TO.N,P8*%
X135438596Y-207796209D03*
%TO.P,S20,2*%
%TO.N,mirror_extra_cluster*%
X124501776Y-200451491D03*
%TD*%
D16*
%TO.P,D7,1*%
%TO.N,P14*%
X222920000Y-135350000D03*
D17*
X225080000Y-135350000D03*
%TO.P,D7,2*%
%TO.N,mirror_ring_home*%
X228380000Y-135350000D03*
D18*
X230540000Y-135350000D03*
%TD*%
D13*
%TO.P,S1,1*%
%TO.N,P0*%
X257745000Y-151860000D03*
%TO.P,S1,2*%
%TO.N,mirror_outer_bottom*%
X270672000Y-149320000D03*
%TD*%
D16*
%TO.P,D10,1*%
%TO.N,P14*%
X203870000Y-132850000D03*
D17*
X206030000Y-132850000D03*
%TO.P,D10,2*%
%TO.N,mirror_middle_home*%
X209330000Y-132850000D03*
D18*
X211490000Y-132850000D03*
%TD*%
D13*
%TO.P,S2,1*%
%TO.N,P0*%
X257745000Y-132810000D03*
%TO.P,S2,2*%
%TO.N,mirror_outer_home*%
X270672000Y-130270000D03*
%TD*%
D16*
%TO.P,D3,1*%
%TO.N,P16*%
X241970000Y-159400000D03*
D17*
X244130000Y-159400000D03*
%TO.P,D3,2*%
%TO.N,mirror_pinky_bottom*%
X247430000Y-159400000D03*
D18*
X249590000Y-159400000D03*
%TD*%
D16*
%TO.P,D8,1*%
%TO.N,P9*%
X222920000Y-116300000D03*
D17*
X225080000Y-116300000D03*
%TO.P,D8,2*%
%TO.N,mirror_ring_top*%
X228380000Y-116300000D03*
D18*
X230540000Y-116300000D03*
%TD*%
D14*
%TO.P,_4,1*%
%TO.N,N/C*%
X177455000Y-117015000D03*
X177938274Y-115848274D03*
X177938274Y-118181726D03*
X179105000Y-115365000D03*
D15*
X179105000Y-117015000D03*
D14*
X179105000Y-118665000D03*
X180271726Y-115848274D03*
X180271726Y-118181726D03*
X180755000Y-117015000D03*
%TD*%
D20*
%TO.P,D19,1*%
%TO.N,P10*%
X156248588Y-185587598D03*
D21*
X154860167Y-183932942D03*
%TO.P,D19,2*%
%TO.N,mirror_space_cluster*%
X152738967Y-181404996D03*
D18*
X151350546Y-179750340D03*
%TD*%
D13*
%TO.P,S8,1*%
%TO.N,P5*%
X219645000Y-108760000D03*
%TO.P,S8,2*%
%TO.N,mirror_ring_top*%
X232572000Y-106220000D03*
%TD*%
D14*
%TO.P,_2,1*%
%TO.N,N/C*%
X263180000Y-122015000D03*
X263663274Y-120848274D03*
X263663274Y-123181726D03*
X264830000Y-120365000D03*
D15*
X264830000Y-122015000D03*
D14*
X264830000Y-123665000D03*
X265996726Y-120848274D03*
X265996726Y-123181726D03*
X266480000Y-122015000D03*
%TD*%
D16*
%TO.P,D1,1*%
%TO.N,P16*%
X261020000Y-159400000D03*
D17*
X263180000Y-159400000D03*
%TO.P,D1,2*%
%TO.N,mirror_outer_bottom*%
X266480000Y-159400000D03*
D18*
X268640000Y-159400000D03*
%TD*%
D14*
%TO.P,_3,1*%
%TO.N,N/C*%
X234605000Y-122015000D03*
X235088274Y-120848274D03*
X235088274Y-123181726D03*
X236255000Y-120365000D03*
D15*
X236255000Y-122015000D03*
D14*
X236255000Y-123665000D03*
X237421726Y-120848274D03*
X237421726Y-123181726D03*
X237905000Y-122015000D03*
%TD*%
D22*
%TO.P,S19,1*%
%TO.N,P7*%
X152577742Y-192943012D03*
%TO.P,S19,2*%
%TO.N,mirror_space_cluster*%
X142322674Y-184673036D03*
%TD*%
D14*
%TO.P,_7,1*%
%TO.N,N/C*%
X140126714Y-195421840D03*
X138959988Y-195905114D03*
X140609988Y-194255114D03*
X137793262Y-195421840D03*
D15*
X138959988Y-194255114D03*
D14*
X140126714Y-193088388D03*
X137309988Y-194255114D03*
X138959988Y-192605114D03*
X137793262Y-193088388D03*
%TD*%
D16*
%TO.P,D17,1*%
%TO.N,P9*%
X165770000Y-118800000D03*
D17*
X167930000Y-118800000D03*
%TO.P,D17,2*%
%TO.N,mirror_inner_top*%
X171230000Y-118800000D03*
D18*
X173390000Y-118800000D03*
%TD*%
D16*
%TO.P,D12,1*%
%TO.N,P16*%
X184820000Y-154400000D03*
D17*
X186980000Y-154400000D03*
%TO.P,D12,2*%
%TO.N,mirror_index_bottom*%
X190280000Y-154400000D03*
D18*
X192440000Y-154400000D03*
%TD*%
D23*
%TO.P,S18,1*%
%TO.N,P6*%
X168079015Y-176330281D03*
%TO.P,S18,2*%
%TO.N,mirror_layer_cluster*%
X179908138Y-170531076D03*
%TD*%
D13*
%TO.P,S14,1*%
%TO.N,P7*%
X181545000Y-108760000D03*
%TO.P,S14,2*%
%TO.N,mirror_index_top*%
X194472000Y-106220000D03*
%TD*%
%TO.P,S3,1*%
%TO.N,P4*%
X238695000Y-151860000D03*
%TO.P,S3,2*%
%TO.N,mirror_pinky_bottom*%
X251622000Y-149320000D03*
%TD*%
D14*
%TO.P,_5,1*%
%TO.N,N/C*%
X234605000Y-141065000D03*
X235088274Y-139898274D03*
X235088274Y-142231726D03*
X236255000Y-139415000D03*
D15*
X236255000Y-141065000D03*
D14*
X236255000Y-142715000D03*
X237421726Y-139898274D03*
X237421726Y-142231726D03*
X237905000Y-141065000D03*
%TD*%
%TO.P,_1,1*%
%TO.N,N/C*%
X261275000Y-145446500D03*
X261758274Y-144279774D03*
X261758274Y-146613226D03*
X262925000Y-143796500D03*
D15*
X262925000Y-145446500D03*
D14*
X262925000Y-147096500D03*
X264091726Y-144279774D03*
X264091726Y-146613226D03*
X264575000Y-145446500D03*
%TD*%
D13*
%TO.P,S10,1*%
%TO.N,P6*%
X200595000Y-125310000D03*
%TO.P,S10,2*%
%TO.N,mirror_middle_home*%
X213522000Y-122770000D03*
%TD*%
%TO.P,S16,1*%
%TO.N,P8*%
X162495000Y-130310000D03*
%TO.P,S16,2*%
%TO.N,mirror_inner_home*%
X175422000Y-127770000D03*
%TD*%
D24*
%TO.P,D20,1*%
%TO.N,P10*%
X138454407Y-200148849D03*
D25*
X136927056Y-198621498D03*
%TO.P,D20,2*%
%TO.N,mirror_extra_cluster*%
X134593604Y-196288046D03*
D18*
X133066253Y-194760695D03*
%TD*%
D26*
%TO.P,JST1,1*%
%TO.N,B+*%
X134530000Y-139222500D03*
D27*
%TO.P,JST1,2*%
%TO.N,GND*%
X132530000Y-139222500D03*
%TD*%
D13*
%TO.P,S4,1*%
%TO.N,P4*%
X238695000Y-132810000D03*
%TO.P,S4,2*%
%TO.N,mirror_pinky_home*%
X251622000Y-130270000D03*
%TD*%
D28*
%TO.P,DISP1,1*%
%TO.N,P2*%
X141450000Y-143025000D03*
%TO.P,DISP1,2*%
%TO.N,P3*%
X143990000Y-143025000D03*
%TO.P,DISP1,3*%
%TO.N,VCC*%
X146530000Y-143025000D03*
%TO.P,DISP1,4*%
%TO.N,GND*%
X149070000Y-143025000D03*
D29*
%TO.P,DISP1,5*%
%TO.N,P1*%
X151610000Y-143025000D03*
%TD*%
D16*
%TO.P,D11,1*%
%TO.N,P9*%
X203870000Y-113800000D03*
D17*
X206030000Y-113800000D03*
%TO.P,D11,2*%
%TO.N,mirror_middle_top*%
X209330000Y-113800000D03*
D18*
X211490000Y-113800000D03*
%TD*%
D14*
%TO.P,_8,1*%
%TO.N,N/C*%
X177455000Y-139875000D03*
X177938274Y-138708274D03*
X177938274Y-141041726D03*
X179105000Y-138225000D03*
D15*
X179105000Y-139875000D03*
D14*
X179105000Y-141525000D03*
X180271726Y-138708274D03*
X180271726Y-141041726D03*
X180755000Y-139875000D03*
%TD*%
D16*
%TO.P,D14,1*%
%TO.N,P9*%
X184820000Y-116300000D03*
D17*
X186980000Y-116300000D03*
%TO.P,D14,2*%
%TO.N,mirror_index_top*%
X190280000Y-116300000D03*
D18*
X192440000Y-116300000D03*
%TD*%
D16*
%TO.P,D5,1*%
%TO.N,P9*%
X241970000Y-121300000D03*
D17*
X244130000Y-121300000D03*
%TO.P,D5,2*%
%TO.N,mirror_pinky_top*%
X247430000Y-121300000D03*
D18*
X249590000Y-121300000D03*
%TD*%
D30*
%TO.P,MCU1,1*%
%TO.N,RAW*%
X138910000Y-107355000D03*
D31*
%TO.P,MCU1,2*%
%TO.N,GND*%
X138910000Y-109895000D03*
%TO.P,MCU1,3*%
%TO.N,RST*%
X138910000Y-112435000D03*
%TO.P,MCU1,4*%
%TO.N,VCC*%
X138910000Y-114975000D03*
%TO.P,MCU1,5*%
%TO.N,P21*%
X138910000Y-117515000D03*
%TO.P,MCU1,6*%
%TO.N,P20*%
X138910000Y-120055000D03*
%TO.P,MCU1,7*%
%TO.N,P19*%
X138910000Y-122595000D03*
%TO.P,MCU1,8*%
%TO.N,P18*%
X138910000Y-125135000D03*
%TO.P,MCU1,9*%
%TO.N,P15*%
X138910000Y-127675000D03*
%TO.P,MCU1,10*%
%TO.N,P14*%
X138910000Y-130215000D03*
%TO.P,MCU1,11*%
%TO.N,P16*%
X138910000Y-132755000D03*
%TO.P,MCU1,12*%
%TO.N,P10*%
X138910000Y-135295000D03*
%TO.P,MCU1,13*%
%TO.N,P1*%
X154150000Y-107355000D03*
%TO.P,MCU1,14*%
%TO.N,P0*%
X154150000Y-109895000D03*
%TO.P,MCU1,15*%
%TO.N,GND*%
X154150000Y-112435000D03*
%TO.P,MCU1,16*%
X154150000Y-114975000D03*
%TO.P,MCU1,17*%
%TO.N,P2*%
X154150000Y-117515000D03*
%TO.P,MCU1,18*%
%TO.N,P3*%
X154150000Y-120055000D03*
%TO.P,MCU1,19*%
%TO.N,P4*%
X154150000Y-122595000D03*
%TO.P,MCU1,20*%
%TO.N,P5*%
X154150000Y-125135000D03*
%TO.P,MCU1,21*%
%TO.N,P6*%
X154150000Y-127675000D03*
%TO.P,MCU1,22*%
%TO.N,P7*%
X154150000Y-130215000D03*
%TO.P,MCU1,23*%
%TO.N,P8*%
X154150000Y-132755000D03*
%TO.P,MCU1,24*%
%TO.N,P9*%
X154150000Y-135295000D03*
%TD*%
D13*
%TO.P,S12,1*%
%TO.N,P7*%
X181545000Y-146860000D03*
%TO.P,S12,2*%
%TO.N,mirror_index_bottom*%
X194472000Y-144320000D03*
%TD*%
%TO.P,S17,1*%
%TO.N,P8*%
X162495000Y-111260000D03*
%TO.P,S17,2*%
%TO.N,mirror_inner_top*%
X175422000Y-108720000D03*
%TD*%
%TO.P,S9,1*%
%TO.N,P6*%
X200595000Y-144360000D03*
%TO.P,S9,2*%
%TO.N,mirror_middle_bottom*%
X213522000Y-141820000D03*
%TD*%
D32*
%TO.P,D18,1*%
%TO.N,P10*%
X173193918Y-182765731D03*
D33*
X175280317Y-182206679D03*
%TO.P,D18,2*%
%TO.N,mirror_layer_cluster*%
X178467873Y-181352579D03*
D18*
X180554272Y-180793527D03*
%TD*%
D14*
%TO.P,_6,1*%
%TO.N,N/C*%
X159626450Y-175308136D03*
X159791286Y-174056086D03*
X160395228Y-176310028D03*
X161647278Y-176474864D03*
D15*
X161220228Y-174881086D03*
D14*
X160793178Y-173287308D03*
X162045228Y-173452144D03*
X162649170Y-175706086D03*
X162814006Y-174454036D03*
%TD*%
D34*
%TO.N,P2*%
X146420000Y-123590000D03*
%TO.N,P3*%
X146600000Y-125240000D03*
%TO.N,VCC*%
X146320000Y-116300000D03*
%TO.N,P1*%
X157120000Y-133600000D03*
%TD*%
D35*
%TO.N,P2*%
X145790000Y-124220000D02*
X146420000Y-123590000D01*
X145790000Y-138685000D02*
X145790000Y-130910000D01*
X141450000Y-143025000D02*
X145790000Y-138685000D01*
X145790000Y-130910000D02*
X145790000Y-124220000D01*
%TO.N,P3*%
X146660000Y-140355000D02*
X146660000Y-128960000D01*
X143990000Y-143025000D02*
X146660000Y-140355000D01*
X146660000Y-128960000D02*
X146660000Y-125300000D01*
X146660000Y-125300000D02*
X146600000Y-125240000D01*
%TO.N,VCC*%
X146530000Y-143025000D02*
X148240000Y-141315000D01*
X148240000Y-141315000D02*
X148240000Y-127280000D01*
X148240000Y-127280000D02*
X148240000Y-118220000D01*
X148240000Y-118220000D02*
X146320000Y-116300000D01*
%TO.N,GND*%
X136700000Y-147150000D02*
X144945000Y-147150000D01*
X149070000Y-120055000D02*
X154150000Y-114975000D01*
X132530000Y-139222500D02*
X132530000Y-142980000D01*
X144945000Y-147150000D02*
X149070000Y-143025000D01*
X149070000Y-143025000D02*
X149070000Y-120055000D01*
X132530000Y-142980000D02*
X136700000Y-147150000D01*
%TO.N,P1*%
X157120000Y-134120000D02*
X157120000Y-133600000D01*
X157120000Y-137515000D02*
X157120000Y-134120000D01*
X151610000Y-143025000D02*
X157120000Y-137515000D01*
%TO.N,P0*%
X257745000Y-132810000D02*
X257745000Y-112395000D01*
X257745000Y-151860000D02*
X257745000Y-132810000D01*
X253030000Y-107680000D02*
X241447100Y-107680000D01*
X233017100Y-99250000D02*
X199110000Y-99250000D01*
X257745000Y-112395000D02*
X253030000Y-107680000D01*
X164370000Y-101770000D02*
X156245000Y-109895000D01*
X196590000Y-101770000D02*
X164370000Y-101770000D01*
X241447100Y-107680000D02*
X233017100Y-99250000D01*
X156245000Y-109895000D02*
X154150000Y-109895000D01*
X199110000Y-99250000D02*
X196590000Y-101770000D01*
%TO.N,mirror_outer_bottom*%
X271840000Y-156200000D02*
X268640000Y-159400000D01*
X268640000Y-159400000D02*
X266480000Y-159400000D01*
X271840000Y-150488000D02*
X271840000Y-156200000D01*
X270672000Y-149320000D02*
X271840000Y-150488000D01*
%TO.N,mirror_outer_home*%
X270672000Y-130270000D02*
X272080000Y-131678000D01*
X266480000Y-140350000D02*
X268640000Y-140350000D01*
X272080000Y-136910000D02*
X268640000Y-140350000D01*
X272080000Y-131678000D02*
X272080000Y-136910000D01*
%TO.N,P4*%
X196620000Y-102360000D02*
X164500000Y-102360000D01*
X157829000Y-121421000D02*
X156655000Y-122595000D01*
X238695000Y-125005000D02*
X239860000Y-123840000D01*
X238695000Y-132810000D02*
X238695000Y-138685000D01*
X157829000Y-110519000D02*
X157829000Y-121421000D01*
X239860000Y-120550000D02*
X239860000Y-123840000D01*
X164500000Y-102360000D02*
X157800000Y-109060000D01*
X238695000Y-113760000D02*
X238695000Y-105495000D01*
X157800000Y-109060000D02*
X157800000Y-110490000D01*
X238695000Y-143635000D02*
X239260000Y-143070000D01*
X199260000Y-99720000D02*
X196620000Y-102360000D01*
X239260000Y-139250000D02*
X239260000Y-143070000D01*
X238695000Y-138685000D02*
X239260000Y-139250000D01*
X157800000Y-110490000D02*
X157829000Y-110519000D01*
X238695000Y-105495000D02*
X232920000Y-99720000D01*
X238695000Y-119385000D02*
X239860000Y-120550000D01*
X232920000Y-99720000D02*
X199260000Y-99720000D01*
X156655000Y-122595000D02*
X154150000Y-122595000D01*
X238695000Y-132810000D02*
X238695000Y-125005000D01*
X238695000Y-151860000D02*
X238695000Y-143635000D01*
X238695000Y-113760000D02*
X238695000Y-119385000D01*
%TO.N,mirror_pinky_bottom*%
X253130000Y-150828000D02*
X253130000Y-155860000D01*
X251622000Y-149320000D02*
X253130000Y-150828000D01*
X253130000Y-155860000D02*
X249590000Y-159400000D01*
X247430000Y-159400000D02*
X249590000Y-159400000D01*
%TO.N,mirror_pinky_home*%
X253180000Y-131828000D02*
X253180000Y-136760000D01*
X249590000Y-140350000D02*
X247430000Y-140350000D01*
X251622000Y-130270000D02*
X253180000Y-131828000D01*
X253180000Y-136760000D02*
X249590000Y-140350000D01*
%TO.N,mirror_pinky_top*%
X251622000Y-111220000D02*
X253060000Y-112658000D01*
X253060000Y-117830000D02*
X249590000Y-121300000D01*
X247430000Y-121300000D02*
X249590000Y-121300000D01*
X253060000Y-112658000D02*
X253060000Y-117830000D01*
%TO.N,P5*%
X219645000Y-104495000D02*
X215340000Y-100190000D01*
X219645000Y-127810000D02*
X219645000Y-146860000D01*
X158230000Y-109195800D02*
X158230000Y-124120000D01*
X157215000Y-125135000D02*
X154150000Y-125135000D01*
X219645000Y-108760000D02*
X219645000Y-127810000D01*
X219645000Y-108760000D02*
X219645000Y-104495000D01*
X196210000Y-103530000D02*
X163895800Y-103530000D01*
X158230000Y-124120000D02*
X157215000Y-125135000D01*
X215340000Y-100190000D02*
X199550000Y-100190000D01*
X199550000Y-100190000D02*
X196210000Y-103530000D01*
X163895800Y-103530000D02*
X158230000Y-109195800D01*
%TO.N,mirror_ring_bottom*%
X232572000Y-144320000D02*
X233920000Y-145668000D01*
X233920000Y-145668000D02*
X233920000Y-151020000D01*
X233920000Y-151020000D02*
X230540000Y-154400000D01*
X228380000Y-154400000D02*
X230540000Y-154400000D01*
%TO.N,mirror_ring_home*%
X228380000Y-135350000D02*
X230540000Y-135350000D01*
X233940000Y-131950000D02*
X230540000Y-135350000D01*
X232572000Y-125270000D02*
X233940000Y-126638000D01*
X233940000Y-126638000D02*
X233940000Y-131950000D01*
%TO.N,mirror_ring_top*%
X230540000Y-116300000D02*
X228380000Y-116300000D01*
X232572000Y-106220000D02*
X233790000Y-107438000D01*
X233790000Y-107438000D02*
X233790000Y-113050000D01*
X233790000Y-113050000D02*
X230540000Y-116300000D01*
%TO.N,P6*%
X158809000Y-125591000D02*
X156725000Y-127675000D01*
X163330000Y-104700000D02*
X163292900Y-104700000D01*
X189200000Y-163500000D02*
X200595000Y-152105000D01*
X200595000Y-106260000D02*
X198704000Y-104369000D01*
X200595000Y-152105000D02*
X200595000Y-144360000D01*
X200595000Y-125310000D02*
X200595000Y-106260000D01*
X168079015Y-176330281D02*
X168079015Y-175036186D01*
X168079015Y-175036186D02*
X179615201Y-163500000D01*
X198704000Y-104369000D02*
X163661000Y-104369000D01*
X156725000Y-127675000D02*
X154150000Y-127675000D01*
X158809000Y-109183900D02*
X158809000Y-125591000D01*
X200595000Y-144360000D02*
X200595000Y-125310000D01*
X179615201Y-163500000D02*
X189200000Y-163500000D01*
X163661000Y-104369000D02*
X163330000Y-104700000D01*
X163292900Y-104700000D02*
X158809000Y-109183900D01*
%TO.N,mirror_middle_bottom*%
X215090000Y-143388000D02*
X215090000Y-148300000D01*
X213522000Y-141820000D02*
X215090000Y-143388000D01*
X215090000Y-148300000D02*
X211490000Y-151900000D01*
X211490000Y-151900000D02*
X209330000Y-151900000D01*
%TO.N,mirror_middle_home*%
X215100000Y-124348000D02*
X215100000Y-129240000D01*
X215100000Y-129240000D02*
X211490000Y-132850000D01*
X209330000Y-132850000D02*
X211490000Y-132850000D01*
X213522000Y-122770000D02*
X215100000Y-124348000D01*
%TO.N,mirror_middle_top*%
X214950000Y-105148000D02*
X214950000Y-110340000D01*
X214950000Y-110340000D02*
X211490000Y-113800000D01*
X213522000Y-103720000D02*
X214950000Y-105148000D01*
X211490000Y-113800000D02*
X209330000Y-113800000D01*
%TO.N,P7*%
X159210000Y-126970000D02*
X155965000Y-130215000D01*
X181545000Y-142805000D02*
X182170000Y-142180000D01*
X182290000Y-127065000D02*
X181545000Y-127810000D01*
X181545000Y-137425000D02*
X182170000Y-138050000D01*
X159210000Y-109350000D02*
X159210000Y-126970000D01*
X181545000Y-154875000D02*
X164920000Y-171500000D01*
X164920000Y-171500000D02*
X164920000Y-180600754D01*
X181545000Y-108760000D02*
X181545000Y-114435000D01*
X181545000Y-146860000D02*
X181545000Y-142805000D01*
X182170000Y-138050000D02*
X182170000Y-142180000D01*
X182290000Y-115180000D02*
X182290000Y-127065000D01*
X181545000Y-108760000D02*
X179654000Y-106869000D01*
X179654000Y-106869000D02*
X161691000Y-106869000D01*
X161691000Y-106869000D02*
X159210000Y-109350000D01*
X181545000Y-114435000D02*
X182290000Y-115180000D01*
X181545000Y-146860000D02*
X181545000Y-154875000D01*
X155965000Y-130215000D02*
X154150000Y-130215000D01*
X164920000Y-180600754D02*
X152577742Y-192943012D01*
X181545000Y-127810000D02*
X181545000Y-137425000D01*
%TO.N,mirror_index_bottom*%
X195810000Y-151030000D02*
X192440000Y-154400000D01*
X195810000Y-145658000D02*
X195810000Y-151030000D01*
X190280000Y-154400000D02*
X192440000Y-154400000D01*
X194472000Y-144320000D02*
X195810000Y-145658000D01*
%TO.N,mirror_index_home*%
X192440000Y-135350000D02*
X190280000Y-135350000D01*
X196000000Y-126798000D02*
X196000000Y-131790000D01*
X196000000Y-131790000D02*
X192440000Y-135350000D01*
X194472000Y-125270000D02*
X196000000Y-126798000D01*
%TO.N,mirror_index_top*%
X195850000Y-112890000D02*
X192440000Y-116300000D01*
X195850000Y-107598000D02*
X195850000Y-112890000D01*
X190280000Y-116300000D02*
X192440000Y-116300000D01*
X194472000Y-106220000D02*
X195850000Y-107598000D01*
%TO.N,P8*%
X136150000Y-184090000D02*
X136150000Y-177890000D01*
X162495000Y-111260000D02*
X161090000Y-111260000D01*
X142640000Y-190580000D02*
X136150000Y-184090000D01*
X135438596Y-207796209D02*
X142640000Y-200594805D01*
X136150000Y-177890000D02*
X162495000Y-151545000D01*
X159650000Y-128710000D02*
X155605000Y-132755000D01*
X142640000Y-200594805D02*
X142640000Y-190580000D01*
X162495000Y-149360000D02*
X162495000Y-130310000D01*
X162495000Y-130310000D02*
X162495000Y-111260000D01*
X159650000Y-112700000D02*
X159650000Y-128710000D01*
X162495000Y-151545000D02*
X162495000Y-149360000D01*
X161090000Y-111260000D02*
X159650000Y-112700000D01*
X155605000Y-132755000D02*
X154150000Y-132755000D01*
%TO.N,mirror_inner_bottom*%
X175861900Y-154428100D02*
X173390000Y-156900000D01*
X175861900Y-147259900D02*
X175861900Y-154428100D01*
X175422000Y-146820000D02*
X175861900Y-147259900D01*
X173390000Y-156900000D02*
X171230000Y-156900000D01*
%TO.N,mirror_inner_home*%
X176410000Y-128758000D02*
X176410000Y-134830000D01*
X175422000Y-127770000D02*
X176410000Y-128758000D01*
X171230000Y-137850000D02*
X173390000Y-137850000D01*
X176410000Y-134830000D02*
X173390000Y-137850000D01*
%TO.N,mirror_inner_top*%
X171230000Y-118800000D02*
X173390000Y-118800000D01*
X176650000Y-115540000D02*
X173390000Y-118800000D01*
X176650000Y-109948000D02*
X176650000Y-115540000D01*
X175422000Y-108720000D02*
X176650000Y-109948000D01*
%TO.N,mirror_layer_cluster*%
X179026923Y-180793528D02*
X180554272Y-180793528D01*
X179908138Y-170531076D02*
X183360000Y-173982938D01*
X178467873Y-181352578D02*
X179026923Y-180793528D01*
X183360000Y-177987800D02*
X180554272Y-180793528D01*
X183360000Y-173982938D02*
X183360000Y-177987800D01*
%TO.N,mirror_space_cluster*%
X142322674Y-182097326D02*
X144669660Y-179750340D01*
X144669660Y-179750340D02*
X151350546Y-179750340D01*
X152738967Y-181138761D02*
X152738967Y-181404996D01*
X142322674Y-184673036D02*
X142322674Y-182097326D01*
X151350546Y-179750340D02*
X152738967Y-181138761D01*
%TO.N,mirror_extra_cluster*%
X133066253Y-194760695D02*
X134593604Y-196288046D01*
X127129305Y-194760695D02*
X133066253Y-194760695D01*
X124501776Y-200451491D02*
X124501776Y-197388224D01*
X124501776Y-197388224D02*
X127129305Y-194760695D01*
%TO.N,P16*%
X206030000Y-151900000D02*
X203870000Y-151900000D01*
X241970000Y-159400000D02*
X244130000Y-159400000D01*
X184820000Y-154400000D02*
X186980000Y-154400000D01*
X263180000Y-159400000D02*
X261020000Y-159400000D01*
X167930000Y-156900000D02*
X165770000Y-156900000D01*
X222920000Y-154400000D02*
X225080000Y-154400000D01*
%TO.N,P14*%
X222920000Y-135350000D02*
X225080000Y-135350000D01*
X203870000Y-132850000D02*
X206030000Y-132850000D01*
X244130000Y-140350000D02*
X241970000Y-140350000D01*
X186980000Y-135350000D02*
X184820000Y-135350000D01*
X261020000Y-140350000D02*
X263180000Y-140350000D01*
X165770000Y-137850000D02*
X167930000Y-137850000D01*
%TO.N,P9*%
X206030000Y-113800000D02*
X203870000Y-113800000D01*
X184820000Y-116300000D02*
X186980000Y-116300000D01*
X225080000Y-116300000D02*
X222920000Y-116300000D01*
X165770000Y-118800000D02*
X167930000Y-118800000D01*
X241970000Y-121300000D02*
X244130000Y-121300000D01*
%TO.N,P10*%
X156248588Y-185321363D02*
X156248588Y-185587598D01*
X174721267Y-182765730D02*
X175280317Y-182206680D01*
X173193918Y-182765730D02*
X174721267Y-182765730D01*
X136927056Y-198621498D02*
X138454407Y-200148849D01*
X154860167Y-183932942D02*
X156248588Y-185321363D01*
%TO.N,RAW*%
X143810500Y-107355000D02*
X144280000Y-106885500D01*
X138910000Y-107355000D02*
X143810500Y-107355000D01*
%TO.N,B+*%
X140377500Y-139222500D02*
X141560000Y-138040000D01*
X141560000Y-118820000D02*
X141460000Y-118720000D01*
X141560000Y-138040000D02*
X141560000Y-118820000D01*
X147280000Y-112900000D02*
X147280000Y-106885500D01*
X141460000Y-118720000D02*
X147280000Y-112900000D01*
X134530000Y-139222500D02*
X140377500Y-139222500D01*
%TD*%
M02*
