M48
; DRILL file {KiCad 9.0.7} date 2026-02-08T22:38:57+0200
; FORMAT={-:-/ absolute / inch / decimal}
; #@! TF.CreationDate,2026-02-08T22:38:57+02:00
; #@! TF.GenerationSoftware,Kicad,Pcbnew,9.0.7
; #@! TF.FileFunction,NonPlated,1,2,NPTH
FMAT,2
INCH
; #@! TA.AperFunction,NonPlated,NPTH,ComponentDrill
T1C0.0354
; #@! TA.AperFunction,NonPlated,NPTH,ComponentDrill
T2C0.0670
; #@! TA.AperFunction,NonPlated,NPTH,ComponentDrill
T3C0.1181
; #@! TA.AperFunction,NonPlated,NPTH,ComponentDrill
T4C0.1570
%
G90
G05
T1
X5.7098Y-4.1264
X5.828Y-4.1264
T2
X5.0643Y-7.7716
X5.3471Y-8.0544
X5.7757Y-7.165
X6.0329Y-7.4714
X6.4764Y-4.4803
X6.4764Y-5.2303
X6.4764Y-5.9803
X6.7194Y-7.0183
X6.8764Y-4.4803
X6.8764Y-5.2303
X6.8764Y-5.9803
X7.1058Y-6.9148
X7.2264Y-4.3819
X7.2264Y-5.1319
X7.2264Y-5.8819
X7.6264Y-4.3819
X7.6264Y-5.1319
X7.6264Y-5.8819
X7.9764Y-4.2835
X7.9764Y-5.0335
X7.9764Y-5.7835
X8.3764Y-4.2835
X8.3764Y-5.0335
X8.3764Y-5.7835
X8.7264Y-4.3819
X8.7264Y-5.1319
X8.7264Y-5.8819
X9.1264Y-4.3819
X9.1264Y-5.1319
X9.1264Y-5.8819
X9.4764Y-4.5787
X9.4764Y-5.3287
X9.4764Y-6.0787
X9.8764Y-4.5787
X9.8764Y-5.3287
X9.8764Y-6.0787
X10.2264Y-5.3287
X10.2264Y-6.0787
X10.6264Y-5.3287
X10.6264Y-6.0787
T3
X4.9936Y-7.9837
X5.2411Y-8.0898
X5.6868Y-7.3702
X5.9241Y-7.4974
X6.5264Y-4.3803
X6.5264Y-5.1303
X6.5264Y-5.8803
X6.7418Y-6.9088
X6.7764Y-4.2803
X6.7764Y-5.0303
X6.7764Y-5.7803
X6.9574Y-6.7475
X7.2764Y-4.2819
X7.2764Y-5.0319
X7.2764Y-5.7819
X7.5264Y-4.1819
X7.5264Y-4.9319
X7.5264Y-5.6819
X8.0264Y-4.1835
X8.0264Y-4.9335
X8.0264Y-5.6835
X8.2764Y-4.0835
X8.2764Y-4.8335
X8.2764Y-5.5835
X8.7764Y-4.2819
X8.7764Y-5.0319
X8.7764Y-5.7819
X9.0264Y-4.1819
X9.0264Y-4.9319
X9.0264Y-5.6819
X9.5264Y-4.4787
X9.5264Y-5.2287
X9.5264Y-5.9787
X9.7764Y-4.3787
X9.7764Y-5.1287
X9.7764Y-5.8787
X10.2764Y-5.2287
X10.2764Y-5.9787
X10.5264Y-5.1287
X10.5264Y-5.8787
T4
X5.2057Y-7.913
X5.9043Y-7.3182
X6.6764Y-4.4803
X6.6764Y-5.2303
X6.6764Y-5.9803
X6.9126Y-6.9665
X7.4264Y-4.3819
X7.4264Y-5.1319
X7.4264Y-5.8819
X8.1764Y-4.2835
X8.1764Y-5.0335
X8.1764Y-5.7835
X8.9264Y-4.3819
X8.9264Y-5.1319
X8.9264Y-5.8819
X9.6764Y-4.5787
X9.6764Y-5.3287
X9.6764Y-6.0787
X10.4264Y-5.3287
X10.4264Y-6.0787
M30
