%TF.GenerationSoftware,KiCad,Pcbnew,9.0.7*%
%TF.CreationDate,2026-02-08T22:38:48+02:00*%
%TF.ProjectId,juubo_right_unfinished,6a757562-6f5f-4726-9967-68745f756e66,v1.0.0*%
%TF.SameCoordinates,Original*%
%TF.FileFunction,Paste,Bot*%
%TF.FilePolarity,Positive*%
%FSLAX46Y46*%
G04 Gerber Fmt 4.6, Leading zero omitted, Abs format (unit mm)*
G04 Created by KiCad (PCBNEW 9.0.7) date 2026-02-08 22:38:48*
%MOMM*%
%LPD*%
G01*
G04 APERTURE LIST*
G04 Aperture macros list*
%AMRotRect*
0 Rectangle, with rotation*
0 The origin of the aperture is its center*
0 $1 length*
0 $2 width*
0 $3 Rotation angle, in degrees counterclockwise*
0 Add horizontal line*
21,1,$1,$2,0,0,$3*%
G04 Aperture macros list end*
%ADD10R,0.900000X0.900000*%
%ADD11R,0.900000X1.250000*%
%ADD12R,2.550000X2.500000*%
%ADD13R,0.900000X1.200000*%
%ADD14RotRect,2.550000X2.500000X135.000000*%
%ADD15RotRect,0.900000X1.200000X130.000000*%
%ADD16RotRect,2.550000X2.500000X130.000000*%
%ADD17RotRect,2.550000X2.500000X15.000000*%
%ADD18RotRect,0.900000X1.200000X135.000000*%
%ADD19RotRect,0.900000X1.200000X15.000000*%
G04 APERTURE END LIST*
D10*
%TO.C,T1*%
X142830000Y-103710500D03*
X142830000Y-105910500D03*
X150230000Y-103710500D03*
X150230000Y-105910500D03*
D11*
X144280000Y-106885500D03*
X147280000Y-106885500D03*
X148780000Y-106885500D03*
%TD*%
D12*
%TO.C,S6*%
X219645000Y-146860000D03*
X232572000Y-144320000D03*
%TD*%
%TO.C,S13*%
X181545000Y-127810000D03*
X194472000Y-125270000D03*
%TD*%
D13*
%TO.C,D9*%
X206030000Y-151900000D03*
X209330000Y-151900000D03*
%TD*%
D12*
%TO.C,S11*%
X200595000Y-106260000D03*
X213522000Y-103720000D03*
%TD*%
D13*
%TO.C,D6*%
X225080000Y-154400000D03*
X228380000Y-154400000D03*
%TD*%
D12*
%TO.C,S5*%
X238695000Y-113760000D03*
X251622000Y-111220000D03*
%TD*%
D13*
%TO.C,D4*%
X244130000Y-140350000D03*
X247430000Y-140350000D03*
%TD*%
%TO.C,D16*%
X167930000Y-137850000D03*
X171230000Y-137850000D03*
%TD*%
D12*
%TO.C,S7*%
X219645000Y-127810000D03*
X232572000Y-125270000D03*
%TD*%
D13*
%TO.C,D15*%
X167930000Y-156900000D03*
X171230000Y-156900000D03*
%TD*%
D12*
%TO.C,S15*%
X162495000Y-149360000D03*
X175422000Y-146820000D03*
%TD*%
D13*
%TO.C,D13*%
X186980000Y-135350000D03*
X190280000Y-135350000D03*
%TD*%
%TO.C,D2*%
X263180000Y-140350000D03*
X266480000Y-140350000D03*
%TD*%
D14*
%TO.C,S20*%
X135438596Y-207796209D03*
X124501776Y-200451491D03*
%TD*%
D13*
%TO.C,D7*%
X225080000Y-135350000D03*
X228380000Y-135350000D03*
%TD*%
D12*
%TO.C,S1*%
X257745000Y-151860000D03*
X270672000Y-149320000D03*
%TD*%
D13*
%TO.C,D10*%
X206030000Y-132850000D03*
X209330000Y-132850000D03*
%TD*%
D12*
%TO.C,S2*%
X257745000Y-132810000D03*
X270672000Y-130270000D03*
%TD*%
D13*
%TO.C,D3*%
X244130000Y-159400000D03*
X247430000Y-159400000D03*
%TD*%
%TO.C,D8*%
X225080000Y-116300000D03*
X228380000Y-116300000D03*
%TD*%
D15*
%TO.C,D19*%
X154860167Y-183932942D03*
X152738967Y-181404996D03*
%TD*%
D12*
%TO.C,S8*%
X219645000Y-108760000D03*
X232572000Y-106220000D03*
%TD*%
D13*
%TO.C,D1*%
X263180000Y-159400000D03*
X266480000Y-159400000D03*
%TD*%
D16*
%TO.C,S19*%
X152577742Y-192943012D03*
X142322674Y-184673036D03*
%TD*%
D13*
%TO.C,D17*%
X167930000Y-118800000D03*
X171230000Y-118800000D03*
%TD*%
%TO.C,D12*%
X186980000Y-154400000D03*
X190280000Y-154400000D03*
%TD*%
D17*
%TO.C,S18*%
X168079015Y-176330281D03*
X179908138Y-170531076D03*
%TD*%
D12*
%TO.C,S14*%
X181545000Y-108760000D03*
X194472000Y-106220000D03*
%TD*%
%TO.C,S3*%
X238695000Y-151860000D03*
X251622000Y-149320000D03*
%TD*%
%TO.C,S10*%
X200595000Y-125310000D03*
X213522000Y-122770000D03*
%TD*%
%TO.C,S16*%
X162495000Y-130310000D03*
X175422000Y-127770000D03*
%TD*%
D18*
%TO.C,D20*%
X136927056Y-198621498D03*
X134593604Y-196288046D03*
%TD*%
D12*
%TO.C,S4*%
X238695000Y-132810000D03*
X251622000Y-130270000D03*
%TD*%
D13*
%TO.C,D11*%
X206030000Y-113800000D03*
X209330000Y-113800000D03*
%TD*%
%TO.C,D14*%
X186980000Y-116300000D03*
X190280000Y-116300000D03*
%TD*%
%TO.C,D5*%
X244130000Y-121300000D03*
X247430000Y-121300000D03*
%TD*%
D12*
%TO.C,S12*%
X181545000Y-146860000D03*
X194472000Y-144320000D03*
%TD*%
%TO.C,S17*%
X162495000Y-111260000D03*
X175422000Y-108720000D03*
%TD*%
%TO.C,S9*%
X200595000Y-144360000D03*
X213522000Y-141820000D03*
%TD*%
D19*
%TO.C,D18*%
X175280317Y-182206679D03*
X178467873Y-181352579D03*
%TD*%
M02*
