solid csg.js
facet normal 0 0 -1
outer loop
vertex 136.76838830000003 -40.63957605000001 0
vertex 211.91914760000006 -49.75940600000001 0
vertex 212.54356939103593 -49.88630655191106 0
endloop
endfacet
facet normal 0 0 -1
outer loop
vertex 136.76838830000003 -40.63957605000001 0
vertex 212.54356939103593 -49.88630655191106 0
vertex 213.1399173286867 -50.11074686523825 0
endloop
endfacet
facet normal 0 0 -1
outer loop
vertex 136.76838830000003 -40.63957605000001 0
vertex 213.1399173286867 -50.11074686523825 0
vertex 213.69306012313308 -50.42703370647443 0
endloop
endfacet
facet normal 0 0 -1
outer loop
vertex 136.76838830000003 -40.63957605000001 0
vertex 213.69306012313308 -50.42703370647443 0
vertex 214.18896162672095 -50.82714121168494 0
endloop
endfacet
facet normal 0 0 -1
outer loop
vertex 136.76838830000003 -40.63957605000001 0
vertex 214.18896162672095 -50.82714121168494 0
vertex 214.61503820499738 -51.300916544971855 0
endloop
endfacet
facet normal 0 0 -1
outer loop
vertex 136.76838830000003 -40.63957605000001 0
vertex 214.61503820499738 -51.300916544971855 0
vertex 214.960478049828 -51.83633752942279 0
endloop
endfacet
facet normal 0 0 -1
outer loop
vertex 136.76838830000003 -40.63957605000001 0
vertex 214.960478049828 -51.83633752942279 0
vertex 215.21651553194636 -52.41981771309423 0
endloop
endfacet
facet normal 0 0 -1
outer loop
vertex 136.76838830000003 -40.63957605000001 0
vertex 215.21651553194636 -52.41981771309423 0
vertex 215.37665363116196 -53.036551128896036 0
endloop
endfacet
facet normal 0 0 -1
outer loop
vertex 136.76838830000003 -40.63957605000001 0
vertex 215.37665363116196 -53.036551128896036 0
vertex 215.43682879999994 -53.67088799999958 0
endloop
endfacet
facet normal 0 0 -1
outer loop
vertex 136.76838830000003 -40.63957605000001 0
vertex 215.43682879999994 -53.67088799999958 0
vertex 216.29037817582682 -111.16300054999999 0
endloop
endfacet
facet normal 0 0 -1
outer loop
vertex 136.76838830000003 -40.63957605000001 0
vertex 216.29037817582682 -111.16300054999999 0
vertex 154.35843779999968 -111.16300054999999 0
endloop
endfacet
facet normal 0 0 -1
outer loop
vertex 136.76838830000003 -40.63957605000001 0
vertex 154.35843779999968 -111.16300054999999 0
vertex 90.8902877622551 -111.16300054999999 0
endloop
endfacet
facet normal 0 0 -1
outer loop
vertex 136.76838830000003 -40.63957605000001 0
vertex 90.8902877622551 -111.16300054999999 0
vertex 90.67275919222995 -111.07394578411463 0
endloop
endfacet
facet normal 0 0 -1
outer loop
vertex 136.76838830000003 -40.63957605000001 0
vertex 90.67275919222995 -111.07394578411463 0
vertex 90.13453979345786 -110.74676302495494 0
endloop
endfacet
facet normal 0 0 -1
outer loop
vertex 136.76838830000003 -40.63957605000001 0
vertex 90.13453979345786 -110.74676302495494 0
vertex 89.65435334532121 -110.33914843476975 0
endloop
endfacet
facet normal 0 0 -1
outer loop
vertex 136.76838830000003 -40.63957605000001 0
vertex 89.65435334532121 -110.33914843476975 0
vertex 89.24410633127584 -109.86120903843079 0
endloop
endfacet
facet normal 0 0 -1
outer loop
vertex 136.76838830000003 -40.63957605000001 0
vertex 89.24410633127584 -109.86120903843079 0
vertex 88.91397104857113 -109.32479560252578 0
endloop
endfacet
facet normal 0 0 -1
outer loop
vertex 136.76838830000003 -40.63957605000001 0
vertex 88.91397104857113 -109.32479560252578 0
vertex 88.6721333806217 -108.74320878917233 0
endloop
endfacet
facet normal 0 0 -1
outer loop
vertex 136.76838830000003 -40.63957605000001 0
vertex 88.6721333806217 -108.74320878917233 0
vertex 88.52458982358773 -108.1308693588858 0
endloop
endfacet
facet normal 0 0 -1
outer loop
vertex 136.76838830000003 -40.63957605000001 0
vertex 88.52458982358773 -108.1308693588858 0
vertex 88.4749988 -107.5029606 0
endloop
endfacet
facet normal 0 0 -1
outer loop
vertex 136.76838830000003 -40.63957605000001 0
vertex 88.4749988 -107.5029606 0
vertex 88.475 -53.46061480000009 0
endloop
endfacet
facet normal 0 0 -1
outer loop
vertex 136.76838830000003 -40.63957605000001 0
vertex 88.475 -53.46061480000009 0
vertex 88.52883973226616 -52.80650702935736 0
endloop
endfacet
facet normal 0 0 -1
outer loop
vertex 136.76838830000003 -40.63957605000001 0
vertex 88.52883973226616 -52.80650702935736 0
vertex 88.68892473900951 -52.17000689362205 0
endloop
endfacet
facet normal 0 0 -1
outer loop
vertex 136.76838830000003 -40.63957605000001 0
vertex 88.68892473900951 -52.17000689362205 0
vertex 88.9509401353162 -51.56825315306584 0
endloop
endfacet
facet normal 0 0 -1
outer loop
vertex 136.76838830000003 -40.63957605000001 0
vertex 88.9509401353162 -51.56825315306584 0
vertex 89.30783181770256 -51.01744650893526 0
endloop
endfacet
facet normal 0 0 -1
outer loop
vertex 136.76838830000003 -40.63957605000001 0
vertex 89.30783181770256 -51.01744650893526 0
vertex 89.74999137805436 -50.53241604044409 0
endloop
endfacet
facet normal 0 0 -1
outer loop
vertex 136.76838830000003 -40.63957605000001 0
vertex 89.74999137805436 -50.53241604044409 0
vertex 90.26551478577241 -50.126219969230334 0
endloop
endfacet
facet normal 0 0 -1
outer loop
vertex 136.76838830000003 -40.63957605000001 0
vertex 90.26551478577241 -50.126219969230334 0
vertex 90.8405228737646 -49.80979409968262 0
endloop
endfacet
facet normal 0 0 -1
outer loop
vertex 136.76838830000003 -40.63957605000001 0
vertex 90.8405228737646 -49.80979409968262 0
vertex 91.45953499999995 -49.5916574 0
endloop
endfacet
facet normal 0 0 -1
outer loop
vertex 136.76838830000003 -40.63957605000001 0
vertex 91.45953499999995 -49.5916574 0
vertex 107.34956920000043 -45.42104479999989 0
endloop
endfacet
facet normal 0 0 -1
outer loop
vertex 136.76838830000003 -40.63957605000001 0
vertex 107.34956920000043 -45.42104479999989 0
vertex 107.52586327095199 -45.37901784977468 0
endloop
endfacet
facet normal 0 0 -1
outer loop
vertex 136.76838830000003 -40.63957605000001 0
vertex 107.52586327095199 -45.37901784977468 0
vertex 107.7038846000006 -45.34502239999989 0
endloop
endfacet
facet normal 0 0 -1
outer loop
vertex 136.76838830000003 -40.63957605000001 0
vertex 107.7038846000006 -45.34502239999989 0
vertex 135.62534659999972 -40.665472100000045 0
endloop
endfacet
facet normal 0 0 -1
outer loop
vertex 136.76838830000003 -40.63957605000001 0
vertex 135.62534659999972 -40.665472100000045 0
vertex 136.0049532210468 -40.62037346129983 0
endloop
endfacet
facet normal 0 0 -1
outer loop
vertex 136.76838830000003 -40.63957605000001 0
vertex 136.0049532210468 -40.62037346129983 0
vertex 136.38713007700528 -40.61171376385326 0
endloop
endfacet
facet normal 0 0 -1
outer loop
vertex 216.29037817582682 -111.16300054999999 0
vertex 216.29112748102625 -111.21347113797056 0
vertex 155.014209097782 -111.21347113797056 0
endloop
endfacet
facet normal 0 0 -1
outer loop
vertex 216.29037817582682 -111.16300054999999 0
vertex 155.014209097782 -111.21347113797056 0
vertex 154.35843779999968 -111.16300054999999 0
endloop
endfacet
facet normal 0 0 -1
outer loop
vertex 216.29112748102625 -111.21347113797056 0
vertex 216.29346207665213 -111.37072136658597 0
vertex 155.6528448631797 -111.37072136658597 0
endloop
endfacet
facet normal 0 0 -1
outer loop
vertex 216.29112748102625 -111.21347113797056 0
vertex 155.6528448631797 -111.37072136658597 0
vertex 155.014209097782 -111.21347113797056 0
endloop
endfacet
facet normal 0 0 -1
outer loop
vertex 154.35843779999968 -111.16300054999999 0
vertex 92.49697759999971 -111.50290119999998 0
vertex 91.86880702287606 -111.45676062242292 0
endloop
endfacet
facet normal 0 0 -1
outer loop
vertex 154.35843779999968 -111.16300054999999 0
vertex 91.86880702287606 -111.45676062242292 0
vertex 91.25566609969097 -111.31258403825707 0
endloop
endfacet
facet normal 0 0 -1
outer loop
vertex 154.35843779999968 -111.16300054999999 0
vertex 91.25566609969097 -111.31258403825707 0
vertex 90.8902877622551 -111.16300054999999 0
endloop
endfacet
facet normal 0 0 -1
outer loop
vertex 216.29346207665213 -111.37072136658597 0
vertex 216.29731884351563 -111.63049974716323 0
vertex 156.25707864925027 -111.63049974716323 0
endloop
endfacet
facet normal 0 0 -1
outer loop
vertex 216.29346207665213 -111.37072136658597 0
vertex 156.25707864925027 -111.63049974716323 0
vertex 155.6528448631797 -111.37072136658597 0
endloop
endfacet
facet normal 0 0 -1
outer loop
vertex 216.29731884351563 -111.63049974716323 0
vertex 216.30259350831412 -111.98578279328328 0
vertex 156.81057411660706 -111.98578279328328 0
endloop
endfacet
facet normal 0 0 -1
outer loop
vertex 216.29731884351563 -111.63049974716323 0
vertex 156.81057411660706 -111.98578279328328 0
vertex 156.25707864925027 -111.63049974716323 0
endloop
endfacet
facet normal 0 0 -1
outer loop
vertex 216.30259350831412 -111.98578279328328 0
vertex 216.30914346281168 -112.42696491096268 0
vertex 157.29836671011822 -112.42696491096268 0
endloop
endfacet
facet normal 0 0 -1
outer loop
vertex 216.30259350831412 -111.98578279328328 0
vertex 157.29836671011822 -112.42696491096268 0
vertex 156.81057411660706 -111.98578279328328 0
endloop
endfacet
facet normal 0 0 -1
outer loop
vertex 216.30914346281168 -112.42696491096268 0
vertex 216.31679161946028 -112.94211809986166 0
vertex 157.7072682474255 -112.94211809986166 0
endloop
endfacet
facet normal 0 0 -1
outer loop
vertex 216.30914346281168 -112.42696491096268 0
vertex 157.7072682474255 -112.94211809986166 0
vertex 157.29836671011822 -112.42696491096268 0
endloop
endfacet
facet normal 0 0 -1
outer loop
vertex 216.31679161946028 -112.94211809986166 0
vertex 216.32533119921905 -113.51731444412287 0
vertex 158.02622348063696 -113.51731444412287 0
endloop
endfacet
facet normal 0 0 -1
outer loop
vertex 216.31679161946028 -112.94211809986166 0
vertex 158.02622348063696 -113.51731444412287 0
vertex 157.7072682474255 -112.94211809986166 0
endloop
endfacet
facet normal 0 0 -1
outer loop
vertex 216.32533119921905 -113.51731444412287 0
vertex 216.33453132212676 -114.1370026738403 0
vertex 158.24660899103816 -114.1370026738403 0
endloop
endfacet
facet normal 0 0 -1
outer loop
vertex 216.32533119921905 -113.51731444412287 0
vertex 158.24660899103816 -114.1370026738403 0
vertex 158.02622348063696 -113.51731444412287 0
endloop
endfacet
facet normal 0 0 -1
outer loop
vertex 216.33453132212676 -114.1370026738403 0
vertex 216.34414324947707 -114.7844286162601 0
vertex 158.3624663357596 -114.7844286162601 0
endloop
endfacet
facet normal 0 0 -1
outer loop
vertex 216.33453132212676 -114.1370026738403 0
vertex 158.3624663357596 -114.7844286162601 0
vertex 158.24660899103816 -114.1370026738403 0
endloop
endfacet
facet normal 0 0 -1
outer loop
vertex 216.34414324947707 -114.7844286162601 0
vertex 216.35390710883163 -115.44208816921821 0
vertex 158.37066314294898 -115.44208816921821 0
endloop
endfacet
facet normal 0 0 -1
outer loop
vertex 216.34414324947707 -114.7844286162601 0
vertex 158.37066314294898 -115.44208816921821 0
vertex 158.3624663357596 -114.7844286162601 0
endloop
endfacet
facet normal 0 0 -1
outer loop
vertex 216.35390710883163 -115.44208816921821 0
vertex 216.36355892821467 -116.0922011000003 0
vertex 158.27097559999996 -116.0922011000003 0
endloop
endfacet
facet normal 0 0 -1
outer loop
vertex 216.35390710883163 -115.44208816921821 0
vertex 158.27097559999996 -116.0922011000003 0
vertex 158.37066314294898 -115.44208816921821 0
endloop
endfacet
facet normal 0 0 -1
outer loop
vertex 216.36355892821467 -116.0922011000003 0
vertex 216.4689619 -123.1917781000001 0
vertex 156.57524490590143 -123.1917781000001 0
endloop
endfacet
facet normal 0 0 -1
outer loop
vertex 216.36355892821467 -116.0922011000003 0
vertex 156.57524490590143 -123.1917781000001 0
vertex 158.27097559999996 -116.0922011000003 0
endloop
endfacet
facet normal 0 0 -1
outer loop
vertex 216.4689619 -123.1917781000001 0
vertex 216.52269128368917 -123.7884757152057 0
vertex 156.43272395554064 -123.7884757152057 0
endloop
endfacet
facet normal 0 0 -1
outer loop
vertex 216.4689619 -123.1917781000001 0
vertex 156.43272395554064 -123.7884757152057 0
vertex 156.57524490590143 -123.1917781000001 0
endloop
endfacet
facet normal 0 0 -1
outer loop
vertex 216.52269128368917 -123.7884757152057 0
vertex 216.66494131587794 -124.37045918091586 0
vertex 156.29371747300476 -124.37045918091586 0
endloop
endfacet
facet normal 0 0 -1
outer loop
vertex 216.52269128368917 -123.7884757152057 0
vertex 156.29371747300476 -124.37045918091586 0
vertex 156.43272395554064 -123.7884757152057 0
endloop
endfacet
facet normal 0 0 -1
outer loop
vertex 216.66494131587794 -124.37045918091586 0
vertex 216.89251984645352 -124.92466838188494 0
vertex 156.1613448608005 -124.92466838188494 0
endloop
endfacet
facet normal 0 0 -1
outer loop
vertex 216.66494131587794 -124.37045918091586 0
vertex 156.1613448608005 -124.92466838188494 0
vertex 156.29371747300476 -124.37045918091586 0
endloop
endfacet
facet normal 0 0 -1
outer loop
vertex 216.89251984645352 -124.92466838188494 0
vertex 217.2003214380303 -125.43867033347722 0
vertex 156.03857573157754 -125.43867033347722 0
endloop
endfacet
facet normal 0 0 -1
outer loop
vertex 216.89251984645352 -124.92466838188494 0
vertex 156.03857573157754 -125.43867033347722 0
vertex 156.1613448608005 -124.92466838188494 0
endloop
endfacet
facet normal 0 0 -1
outer loop
vertex 217.2003214380303 -125.43867033347722 0
vertex 217.58144094999994 -125.90093404999992 0
vertex 155.92816425595362 -125.90093404999992 0
endloop
endfacet
facet normal 0 0 -1
outer loop
vertex 217.2003214380303 -125.43867033347722 0
vertex 155.92816425595362 -125.90093404999992 0
vertex 156.03857573157754 -125.43867033347722 0
endloop
endfacet
facet normal 0 0 -1
outer loop
vertex 217.58144094999994 -125.90093404999992 0
vertex 232.99293200000005 -141.97234610000004 0
vertex 233.39368205091392 -142.4626865323455 0
endloop
endfacet
facet normal 0 0 -1
outer loop
vertex 217.58144094999994 -125.90093404999992 0
vertex 233.39368205091392 -142.4626865323455 0
vertex 233.71202498564386 -143.01012694735468 0
endloop
endfacet
facet normal 0 0 -1
outer loop
vertex 217.58144094999994 -125.90093404999992 0
vertex 233.71202498564386 -143.01012694735468 0
vertex 233.93998067318793 -143.60094793258907 0
endloop
endfacet
facet normal 0 0 -1
outer loop
vertex 217.58144094999994 -125.90093404999992 0
vertex 233.93998067318793 -143.60094793258907 0
vertex 234.07183550066244 -144.22034080996946 0
endloop
endfacet
facet normal 0 0 -1
outer loop
vertex 217.58144094999994 -125.90093404999992 0
vertex 234.07183550066244 -144.22034080996946 0
vertex 234.10428458259048 -144.85278075902357 0
endloop
endfacet
facet normal 0 0 -1
outer loop
vertex 217.58144094999994 -125.90093404999992 0
vertex 234.10428458259048 -144.85278075902357 0
vertex 234.0365145964593 -145.4824159399477 0
endloop
endfacet
facet normal 0 0 -1
outer loop
vertex 217.58144094999994 -125.90093404999992 0
vertex 234.0365145964593 -145.4824159399477 0
vertex 233.870224168305 -146.09346481326463 0
endloop
endfacet
facet normal 0 0 -1
outer loop
vertex 217.58144094999994 -125.90093404999992 0
vertex 233.870224168305 -146.09346481326463 0
vertex 233.60958129736932 -146.67061169743496 0
endloop
endfacet
facet normal 0 0 -1
outer loop
vertex 217.58144094999994 -125.90093404999992 0
vertex 233.60958129736932 -146.67061169743496 0
vertex 233.26111888696101 -147.19939064993844 0
endloop
endfacet
facet normal 0 0 -1
outer loop
vertex 217.58144094999994 -125.90093404999992 0
vertex 233.26111888696101 -147.19939064993844 0
vertex 232.8335710000003 -147.6665480499997 0
endloop
endfacet
facet normal 0 0 -1
outer loop
vertex 217.58144094999994 -125.90093404999992 0
vertex 232.8335710000003 -147.6665480499997 0
vertex 214.22282449999972 -165.01808040000023 0
endloop
endfacet
facet normal 0 0 -1
outer loop
vertex 217.58144094999994 -125.90093404999992 0
vertex 214.22282449999972 -165.01808040000023 0
vertex 213.70363581456627 -165.42743508029892 0
endloop
endfacet
facet normal 0 0 -1
outer loop
vertex 217.58144094999994 -125.90093404999992 0
vertex 213.70363581456627 -165.42743508029892 0
vertex 213.12411233800674 -165.74567150083456 0
endloop
endfacet
facet normal 0 0 -1
outer loop
vertex 217.58144094999994 -125.90093404999992 0
vertex 213.12411233800674 -165.74567150083456 0
vertex 212.50008446976727 -165.9641002052204 0
endloop
endfacet
facet normal 0 0 -1
outer loop
vertex 217.58144094999994 -125.90093404999992 0
vertex 212.50008446976727 -165.9641002052204 0
vertex 211.848600724502 -166.07675369559755 0
endloop
endfacet
facet normal 0 0 -1
outer loop
vertex 217.58144094999994 -125.90093404999992 0
vertex 211.848600724502 -166.07675369559755 0
vertex 211.18745971464966 -166.0805542653775 0
endloop
endfacet
facet normal 0 0 -1
outer loop
vertex 217.58144094999994 -125.90093404999992 0
vertex 211.18745971464966 -166.0805542653775 0
vertex 210.5347238902523 -165.97539808254743 0
endloop
endfacet
facet normal 0 0 -1
outer loop
vertex 217.58144094999994 -125.90093404999992 0
vertex 210.5347238902523 -165.97539808254743 0
vertex 209.90822607069768 -165.7641580263731 0
endloop
endfacet
facet normal 0 0 -1
outer loop
vertex 217.58144094999994 -125.90093404999992 0
vertex 209.90822607069768 -165.7641580263731 0
vertex 209.32508225000007 -165.45260520000005 0
endloop
endfacet
facet normal 0 0 -1
outer loop
vertex 217.58144094999994 -125.90093404999992 0
vertex 209.32508225000007 -165.45260520000005 0
vertex 157.25771110000008 -131.8273612000001 0
endloop
endfacet
facet normal 0 0 -1
outer loop
vertex 217.58144094999994 -125.90093404999992 0
vertex 157.25771110000008 -131.8273612000001 0
vertex 156.76802986072272 -131.45478473924953 0
endloop
endfacet
facet normal 0 0 -1
outer loop
vertex 217.58144094999994 -125.90093404999992 0
vertex 156.76802986072272 -131.45478473924953 0
vertex 156.34128036268623 -131.01151313828387 0
endloop
endfacet
facet normal 0 0 -1
outer loop
vertex 217.58144094999994 -125.90093404999992 0
vertex 156.34128036268623 -131.01151313828387 0
vertex 155.98756514514767 -130.5080348456251 0
endloop
endfacet
facet normal 0 0 -1
outer loop
vertex 217.58144094999994 -125.90093404999992 0
vertex 155.98756514514767 -130.5080348456251 0
vertex 155.71525410157994 -129.9562635688735 0
endloop
endfacet
facet normal 0 0 -1
outer loop
vertex 217.58144094999994 -125.90093404999992 0
vertex 155.71525410157994 -129.9562635688735 0
vertex 155.53079087453293 -129.36925576299353 0
endloop
endfacet
facet normal 0 0 -1
outer loop
vertex 217.58144094999994 -125.90093404999992 0
vertex 155.53079087453293 -129.36925576299353 0
vertex 155.43854038098914 -128.76090167799208 0
endloop
endfacet
facet normal 0 0 -1
outer loop
vertex 217.58144094999994 -125.90093404999992 0
vertex 155.43854038098914 -128.76090167799208 0
vertex 155.44068552619424 -128.1455966766721 0
endloop
endfacet
facet normal 0 0 -1
outer loop
vertex 217.58144094999994 -125.90093404999992 0
vertex 155.44068552619424 -128.1455966766721 0
vertex 155.53717554999997 -127.5379006000001 0
endloop
endfacet
facet normal 0 0 -1
outer loop
vertex 217.58144094999994 -125.90093404999992 0
vertex 155.53717554999997 -127.5379006000001 0
vertex 155.92816425595362 -125.90093404999992 0
endloop
endfacet
facet normal 0 0 1
outer loop
vertex 211.8486007245023 -166.07675369559752 1
vertex 212.50008446976713 -165.96410020522046 1
vertex 213.12411233800674 -165.7456715008346 1
endloop
endfacet
facet normal 0 0 1
outer loop
vertex 211.8486007245023 -166.07675369559752 1
vertex 213.12411233800674 -165.7456715008346 1
vertex 213.7036358145662 -165.42743508029898 1
endloop
endfacet
facet normal 0 0 1
outer loop
vertex 211.8486007245023 -166.07675369559752 1
vertex 213.7036358145662 -165.42743508029898 1
vertex 214.22282449999958 -165.01808040000037 1
endloop
endfacet
facet normal 0 0 1
outer loop
vertex 211.8486007245023 -166.07675369559752 1
vertex 214.22282449999958 -165.01808040000037 1
vertex 232.83357100000006 -147.66654804999996 1
endloop
endfacet
facet normal 0 0 1
outer loop
vertex 211.8486007245023 -166.07675369559752 1
vertex 232.83357100000006 -147.66654804999996 1
vertex 233.26111888696124 -147.19939064993815 1
endloop
endfacet
facet normal 0 0 1
outer loop
vertex 211.8486007245023 -166.07675369559752 1
vertex 233.26111888696124 -147.19939064993815 1
vertex 233.60958129736912 -146.67061169743533 1
endloop
endfacet
facet normal 0 0 1
outer loop
vertex 211.8486007245023 -166.07675369559752 1
vertex 233.60958129736912 -146.67061169743533 1
vertex 233.87022416830501 -146.09346481326452 1
endloop
endfacet
facet normal 0 0 1
outer loop
vertex 211.8486007245023 -166.07675369559752 1
vertex 233.87022416830501 -146.09346481326452 1
vertex 234.03651459645934 -145.48241593994763 1
endloop
endfacet
facet normal 0 0 1
outer loop
vertex 211.8486007245023 -166.07675369559752 1
vertex 234.03651459645934 -145.48241593994763 1
vertex 234.10428458259048 -144.85278075902332 1
endloop
endfacet
facet normal 0 0 1
outer loop
vertex 211.8486007245023 -166.07675369559752 1
vertex 234.10428458259048 -144.85278075902332 1
vertex 234.07183550066244 -144.2203408099694 1
endloop
endfacet
facet normal 0 0 1
outer loop
vertex 211.8486007245023 -166.07675369559752 1
vertex 234.07183550066244 -144.2203408099694 1
vertex 233.93998067318793 -143.60094793258907 1
endloop
endfacet
facet normal 0 0 1
outer loop
vertex 211.8486007245023 -166.07675369559752 1
vertex 233.93998067318793 -143.60094793258907 1
vertex 233.71202498564384 -143.01012694735465 1
endloop
endfacet
facet normal 0 0 1
outer loop
vertex 211.8486007245023 -166.07675369559752 1
vertex 233.71202498564384 -143.01012694735465 1
vertex 233.39368205091395 -142.46268653234557 1
endloop
endfacet
facet normal 0 0 1
outer loop
vertex 211.8486007245023 -166.07675369559752 1
vertex 233.39368205091395 -142.46268653234557 1
vertex 232.9929319999998 -141.9723460999998 1
endloop
endfacet
facet normal 0 0 1
outer loop
vertex 211.8486007245023 -166.07675369559752 1
vertex 232.9929319999998 -141.9723460999998 1
vertex 217.5814409499999 -125.90093404999986 1
endloop
endfacet
facet normal 0 0 1
outer loop
vertex 211.8486007245023 -166.07675369559752 1
vertex 217.5814409499999 -125.90093404999986 1
vertex 155.9281642559536 -125.90093404999986 1
endloop
endfacet
facet normal 0 0 1
outer loop
vertex 211.8486007245023 -166.07675369559752 1
vertex 155.9281642559536 -125.90093404999986 1
vertex 155.53717554999997 -127.53790060000017 1
endloop
endfacet
facet normal 0 0 1
outer loop
vertex 211.8486007245023 -166.07675369559752 1
vertex 155.53717554999997 -127.53790060000017 1
vertex 155.44068552619422 -128.14559667667226 1
endloop
endfacet
facet normal 0 0 1
outer loop
vertex 211.8486007245023 -166.07675369559752 1
vertex 155.44068552619422 -128.14559667667226 1
vertex 155.4385403809891 -128.76090167799182 1
endloop
endfacet
facet normal 0 0 1
outer loop
vertex 211.8486007245023 -166.07675369559752 1
vertex 155.4385403809891 -128.76090167799182 1
vertex 155.53079087453293 -129.36925576299348 1
endloop
endfacet
facet normal 0 0 1
outer loop
vertex 211.8486007245023 -166.07675369559752 1
vertex 155.53079087453293 -129.36925576299348 1
vertex 155.71525410157997 -129.95626356887354 1
endloop
endfacet
facet normal 0 0 1
outer loop
vertex 211.8486007245023 -166.07675369559752 1
vertex 155.71525410157997 -129.95626356887354 1
vertex 155.9875651451477 -130.50803484562516 1
endloop
endfacet
facet normal 0 0 1
outer loop
vertex 211.8486007245023 -166.07675369559752 1
vertex 155.9875651451477 -130.50803484562516 1
vertex 156.34128036268615 -131.0115131382838 1
endloop
endfacet
facet normal 0 0 1
outer loop
vertex 211.8486007245023 -166.07675369559752 1
vertex 156.34128036268615 -131.0115131382838 1
vertex 156.76802986072272 -131.45478473924953 1
endloop
endfacet
facet normal 0 0 1
outer loop
vertex 211.8486007245023 -166.07675369559752 1
vertex 156.76802986072272 -131.45478473924953 1
vertex 157.2577110999999 -131.82736119999996 1
endloop
endfacet
facet normal 0 0 1
outer loop
vertex 211.8486007245023 -166.07675369559752 1
vertex 157.2577110999999 -131.82736119999996 1
vertex 209.32508225 -165.45260520000002 1
endloop
endfacet
facet normal 0 0 1
outer loop
vertex 211.8486007245023 -166.07675369559752 1
vertex 209.32508225 -165.45260520000002 1
vertex 209.90822607069754 -165.76415802637302 1
endloop
endfacet
facet normal 0 0 1
outer loop
vertex 211.8486007245023 -166.07675369559752 1
vertex 209.90822607069754 -165.76415802637302 1
vertex 210.53472389025234 -165.9753980825474 1
endloop
endfacet
facet normal 0 0 1
outer loop
vertex 211.8486007245023 -166.07675369559752 1
vertex 210.53472389025234 -165.9753980825474 1
vertex 211.18745971464978 -166.08055426537746 1
endloop
endfacet
facet normal 0 0 1
outer loop
vertex 217.5814409499999 -125.90093404999986 1
vertex 217.20032143803027 -125.4386703334772 1
vertex 156.0385757315775 -125.4386703334772 1
endloop
endfacet
facet normal 0 0 1
outer loop
vertex 217.5814409499999 -125.90093404999986 1
vertex 156.0385757315775 -125.4386703334772 1
vertex 155.9281642559536 -125.90093404999986 1
endloop
endfacet
facet normal 0 0 1
outer loop
vertex 217.20032143803027 -125.4386703334772 1
vertex 216.89251984645355 -124.92466838188501 1
vertex 156.16134486080048 -124.92466838188501 1
endloop
endfacet
facet normal 0 0 1
outer loop
vertex 217.20032143803027 -125.4386703334772 1
vertex 156.16134486080048 -124.92466838188501 1
vertex 156.0385757315775 -125.4386703334772 1
endloop
endfacet
facet normal 0 0 1
outer loop
vertex 216.89251984645355 -124.92466838188501 1
vertex 216.6649413158779 -124.37045918091577 1
vertex 156.29371747300476 -124.37045918091577 1
endloop
endfacet
facet normal 0 0 1
outer loop
vertex 216.89251984645355 -124.92466838188501 1
vertex 156.29371747300476 -124.37045918091577 1
vertex 156.16134486080048 -124.92466838188501 1
endloop
endfacet
facet normal 0 0 1
outer loop
vertex 216.6649413158779 -124.37045918091577 1
vertex 216.52269128368917 -123.78847571520576 1
vertex 156.4327239555406 -123.78847571520576 1
endloop
endfacet
facet normal 0 0 1
outer loop
vertex 216.6649413158779 -124.37045918091577 1
vertex 156.4327239555406 -123.78847571520576 1
vertex 156.29371747300476 -124.37045918091577 1
endloop
endfacet
facet normal 0 0 1
outer loop
vertex 216.52269128368917 -123.78847571520576 1
vertex 216.46896189999998 -123.19177809999987 1
vertex 156.57524490590146 -123.19177809999987 1
endloop
endfacet
facet normal 0 0 1
outer loop
vertex 216.52269128368917 -123.78847571520576 1
vertex 156.57524490590146 -123.19177809999987 1
vertex 156.4327239555406 -123.78847571520576 1
endloop
endfacet
facet normal 0 0 1
outer loop
vertex 216.46896189999998 -123.19177809999987 1
vertex 216.3635589282147 -116.09220110000011 1
vertex 158.27097559999999 -116.09220110000011 1
endloop
endfacet
facet normal 0 0 1
outer loop
vertex 216.46896189999998 -123.19177809999987 1
vertex 158.27097559999999 -116.09220110000011 1
vertex 156.57524490590146 -123.19177809999987 1
endloop
endfacet
facet normal 0 0 1
outer loop
vertex 216.3635589282147 -116.09220110000011 1
vertex 216.35390710883158 -115.4420881692184 1
vertex 158.37066314294898 -115.4420881692184 1
endloop
endfacet
facet normal 0 0 1
outer loop
vertex 216.3635589282147 -116.09220110000011 1
vertex 158.37066314294898 -115.4420881692184 1
vertex 158.27097559999999 -116.09220110000011 1
endloop
endfacet
facet normal 0 0 1
outer loop
vertex 216.35390710883158 -115.4420881692184 1
vertex 216.344143249477 -114.78442861626019 1
vertex 158.3624663357596 -114.78442861626019 1
endloop
endfacet
facet normal 0 0 1
outer loop
vertex 216.35390710883158 -115.4420881692184 1
vertex 158.3624663357596 -114.78442861626019 1
vertex 158.37066314294898 -115.4420881692184 1
endloop
endfacet
facet normal 0 0 1
outer loop
vertex 216.344143249477 -114.78442861626019 1
vertex 216.3345313221267 -114.13700267384017 1
vertex 158.24660899103813 -114.13700267384017 1
endloop
endfacet
facet normal 0 0 1
outer loop
vertex 216.344143249477 -114.78442861626019 1
vertex 158.24660899103813 -114.13700267384017 1
vertex 158.3624663357596 -114.78442861626019 1
endloop
endfacet
facet normal 0 0 1
outer loop
vertex 216.3345313221267 -114.13700267384017 1
vertex 216.32533119921902 -113.51731444412292 1
vertex 158.026223480637 -113.51731444412292 1
endloop
endfacet
facet normal 0 0 1
outer loop
vertex 216.3345313221267 -114.13700267384017 1
vertex 158.026223480637 -113.51731444412292 1
vertex 158.24660899103813 -114.13700267384017 1
endloop
endfacet
facet normal 0 0 1
outer loop
vertex 216.32533119921902 -113.51731444412292 1
vertex 216.31679161946025 -112.94211809986173 1
vertex 157.70726824742553 -112.94211809986173 1
endloop
endfacet
facet normal 0 0 1
outer loop
vertex 216.32533119921902 -113.51731444412292 1
vertex 157.70726824742553 -112.94211809986173 1
vertex 158.026223480637 -113.51731444412292 1
endloop
endfacet
facet normal 0 0 1
outer loop
vertex 216.31679161946025 -112.94211809986173 1
vertex 216.30914346281168 -112.42696491096274 1
vertex 157.29836671011827 -112.42696491096274 1
endloop
endfacet
facet normal 0 0 1
outer loop
vertex 216.31679161946025 -112.94211809986173 1
vertex 157.29836671011827 -112.42696491096274 1
vertex 157.70726824742553 -112.94211809986173 1
endloop
endfacet
facet normal 0 0 1
outer loop
vertex 216.30914346281168 -112.42696491096274 1
vertex 216.30259350831412 -111.98578279328324 1
vertex 156.81057411660703 -111.98578279328324 1
endloop
endfacet
facet normal 0 0 1
outer loop
vertex 216.30914346281168 -112.42696491096274 1
vertex 156.81057411660703 -111.98578279328324 1
vertex 157.29836671011827 -112.42696491096274 1
endloop
endfacet
facet normal 0 0 1
outer loop
vertex 216.30259350831412 -111.98578279328324 1
vertex 216.29731884351563 -111.63049974716326 1
vertex 156.25707864925033 -111.63049974716326 1
endloop
endfacet
facet normal 0 0 1
outer loop
vertex 216.30259350831412 -111.98578279328324 1
vertex 156.25707864925033 -111.63049974716326 1
vertex 156.81057411660703 -111.98578279328324 1
endloop
endfacet
facet normal 0 0 1
outer loop
vertex 216.29731884351563 -111.63049974716326 1
vertex 216.29346207665213 -111.37072136658595 1
vertex 155.65284486317967 -111.37072136658595 1
endloop
endfacet
facet normal 0 0 1
outer loop
vertex 216.29731884351563 -111.63049974716326 1
vertex 155.65284486317967 -111.37072136658595 1
vertex 156.25707864925033 -111.63049974716326 1
endloop
endfacet
facet normal 0 0 1
outer loop
vertex 216.29346207665213 -111.37072136658595 1
vertex 216.29112748102622 -111.21347113797053 1
vertex 155.01420909778184 -111.21347113797053 1
endloop
endfacet
facet normal 0 0 1
outer loop
vertex 216.29346207665213 -111.37072136658595 1
vertex 155.01420909778184 -111.21347113797053 1
vertex 155.65284486317967 -111.37072136658595 1
endloop
endfacet
facet normal 0 0 1
outer loop
vertex 154.3584378000011 -111.16300054999999 1
vertex 90.89028776225506 -111.16300054999999 1
vertex 91.2556660996909 -111.31258403825706 1
endloop
endfacet
facet normal 0 0 1
outer loop
vertex 154.3584378000011 -111.16300054999999 1
vertex 91.2556660996909 -111.31258403825706 1
vertex 91.86880702287607 -111.45676062242292 1
endloop
endfacet
facet normal 0 0 1
outer loop
vertex 154.3584378000011 -111.16300054999999 1
vertex 91.86880702287607 -111.45676062242292 1
vertex 92.49697759999978 -111.5029012 1
endloop
endfacet
facet normal 0 0 1
outer loop
vertex 216.29112748102622 -111.21347113797053 1
vertex 216.29037817582682 -111.16300054999999 1
vertex 154.3584378000011 -111.16300054999999 1
endloop
endfacet
facet normal 0 0 1
outer loop
vertex 216.29112748102622 -111.21347113797053 1
vertex 154.3584378000011 -111.16300054999999 1
vertex 155.01420909778184 -111.21347113797053 1
endloop
endfacet
facet normal 0 0 1
outer loop
vertex 154.3584378000011 -111.16300054999999 1
vertex 216.29037817582682 -111.16300054999999 1
vertex 215.43682879999994 -53.67088799999957 1
endloop
endfacet
facet normal 0 0 1
outer loop
vertex 154.3584378000011 -111.16300054999999 1
vertex 215.43682879999994 -53.67088799999957 1
vertex 215.37665363116196 -53.03655112889602 1
endloop
endfacet
facet normal 0 0 1
outer loop
vertex 154.3584378000011 -111.16300054999999 1
vertex 215.37665363116196 -53.03655112889602 1
vertex 215.21651553194638 -52.419817713094304 1
endloop
endfacet
facet normal 0 0 1
outer loop
vertex 154.3584378000011 -111.16300054999999 1
vertex 215.21651553194638 -52.419817713094304 1
vertex 214.96047804982788 -51.83633752942259 1
endloop
endfacet
facet normal 0 0 1
outer loop
vertex 154.3584378000011 -111.16300054999999 1
vertex 214.96047804982788 -51.83633752942259 1
vertex 214.6150382049974 -51.30091654497186 1
endloop
endfacet
facet normal 0 0 1
outer loop
vertex 154.3584378000011 -111.16300054999999 1
vertex 214.6150382049974 -51.30091654497186 1
vertex 214.18896162672104 -50.827141211685 1
endloop
endfacet
facet normal 0 0 1
outer loop
vertex 154.3584378000011 -111.16300054999999 1
vertex 214.18896162672104 -50.827141211685 1
vertex 213.69306012313314 -50.427033706474454 1
endloop
endfacet
facet normal 0 0 1
outer loop
vertex 154.3584378000011 -111.16300054999999 1
vertex 213.69306012313314 -50.427033706474454 1
vertex 213.13991732868675 -50.11074686523828 1
endloop
endfacet
facet normal 0 0 1
outer loop
vertex 154.3584378000011 -111.16300054999999 1
vertex 213.13991732868675 -50.11074686523828 1
vertex 212.54356939103587 -49.886306551911055 1
endloop
endfacet
facet normal 0 0 1
outer loop
vertex 154.3584378000011 -111.16300054999999 1
vertex 212.54356939103587 -49.886306551911055 1
vertex 211.91914759999997 -49.759406 1
endloop
endfacet
facet normal 0 0 1
outer loop
vertex 154.3584378000011 -111.16300054999999 1
vertex 211.91914759999997 -49.759406 1
vertex 136.76838830000003 -40.63957605000001 1
endloop
endfacet
facet normal 0 0 1
outer loop
vertex 154.3584378000011 -111.16300054999999 1
vertex 136.76838830000003 -40.63957605000001 1
vertex 136.38713007700534 -40.61171376385326 1
endloop
endfacet
facet normal 0 0 1
outer loop
vertex 154.3584378000011 -111.16300054999999 1
vertex 136.38713007700534 -40.61171376385326 1
vertex 136.00495322104678 -40.620373461299835 1
endloop
endfacet
facet normal 0 0 1
outer loop
vertex 154.3584378000011 -111.16300054999999 1
vertex 136.00495322104678 -40.620373461299835 1
vertex 135.62534659999972 -40.665472100000045 1
endloop
endfacet
facet normal 0 0 1
outer loop
vertex 154.3584378000011 -111.16300054999999 1
vertex 135.62534659999972 -40.665472100000045 1
vertex 107.70388460000086 -45.34502239999984 1
endloop
endfacet
facet normal 0 0 1
outer loop
vertex 154.3584378000011 -111.16300054999999 1
vertex 107.70388460000086 -45.34502239999984 1
vertex 107.52586327095204 -45.37901784977466 1
endloop
endfacet
facet normal 0 0 1
outer loop
vertex 154.3584378000011 -111.16300054999999 1
vertex 107.52586327095204 -45.37901784977466 1
vertex 107.34956920000045 -45.42104479999988 1
endloop
endfacet
facet normal 0 0 1
outer loop
vertex 154.3584378000011 -111.16300054999999 1
vertex 107.34956920000045 -45.42104479999988 1
vertex 91.45953500000006 -49.591657399999974 1
endloop
endfacet
facet normal 0 0 1
outer loop
vertex 154.3584378000011 -111.16300054999999 1
vertex 91.45953500000006 -49.591657399999974 1
vertex 90.84052287376453 -49.809794099682655 1
endloop
endfacet
facet normal 0 0 1
outer loop
vertex 154.3584378000011 -111.16300054999999 1
vertex 90.84052287376453 -49.809794099682655 1
vertex 90.2655147857725 -50.126219969230284 1
endloop
endfacet
facet normal 0 0 1
outer loop
vertex 154.3584378000011 -111.16300054999999 1
vertex 90.2655147857725 -50.126219969230284 1
vertex 89.74999137805432 -50.53241604044414 1
endloop
endfacet
facet normal 0 0 1
outer loop
vertex 154.3584378000011 -111.16300054999999 1
vertex 89.74999137805432 -50.53241604044414 1
vertex 89.30783181770254 -51.017446508935286 1
endloop
endfacet
facet normal 0 0 1
outer loop
vertex 154.3584378000011 -111.16300054999999 1
vertex 89.30783181770254 -51.017446508935286 1
vertex 88.95094013531622 -51.568253153065825 1
endloop
endfacet
facet normal 0 0 1
outer loop
vertex 154.3584378000011 -111.16300054999999 1
vertex 88.95094013531622 -51.568253153065825 1
vertex 88.68892473900951 -52.170006893622094 1
endloop
endfacet
facet normal 0 0 1
outer loop
vertex 154.3584378000011 -111.16300054999999 1
vertex 88.68892473900951 -52.170006893622094 1
vertex 88.52883973226616 -52.80650702935743 1
endloop
endfacet
facet normal 0 0 1
outer loop
vertex 154.3584378000011 -111.16300054999999 1
vertex 88.52883973226616 -52.80650702935743 1
vertex 88.475 -53.460614800000066 1
endloop
endfacet
facet normal 0 0 1
outer loop
vertex 154.3584378000011 -111.16300054999999 1
vertex 88.475 -53.460614800000066 1
vertex 88.4749988 -107.5029606 1
endloop
endfacet
facet normal 0 0 1
outer loop
vertex 154.3584378000011 -111.16300054999999 1
vertex 88.4749988 -107.5029606 1
vertex 88.52458982358773 -108.13086935888578 1
endloop
endfacet
facet normal 0 0 1
outer loop
vertex 154.3584378000011 -111.16300054999999 1
vertex 88.52458982358773 -108.13086935888578 1
vertex 88.67213338062172 -108.74320878917231 1
endloop
endfacet
facet normal 0 0 1
outer loop
vertex 154.3584378000011 -111.16300054999999 1
vertex 88.67213338062172 -108.74320878917231 1
vertex 88.9139710485712 -109.32479560252588 1
endloop
endfacet
facet normal 0 0 1
outer loop
vertex 154.3584378000011 -111.16300054999999 1
vertex 88.9139710485712 -109.32479560252588 1
vertex 89.24410633127584 -109.86120903843079 1
endloop
endfacet
facet normal 0 0 1
outer loop
vertex 154.3584378000011 -111.16300054999999 1
vertex 89.24410633127584 -109.86120903843079 1
vertex 89.65435334532123 -110.33914843476975 1
endloop
endfacet
facet normal 0 0 1
outer loop
vertex 154.3584378000011 -111.16300054999999 1
vertex 89.65435334532123 -110.33914843476975 1
vertex 90.13453979345788 -110.74676302495493 1
endloop
endfacet
facet normal 0 0 1
outer loop
vertex 154.3584378000011 -111.16300054999999 1
vertex 90.13453979345788 -110.74676302495493 1
vertex 90.67275919223007 -111.0739457841147 1
endloop
endfacet
facet normal 0 0 1
outer loop
vertex 154.3584378000011 -111.16300054999999 1
vertex 90.67275919223007 -111.0739457841147 1
vertex 90.89028776225506 -111.16300054999999 1
endloop
endfacet
facet normal -0.9968957466626513 -0.07873290472168998 0
outer loop
vertex 88.52458982358773 -108.13086935888578 1
vertex 88.4749988 -107.5029606 1
vertex 88.4749988 -107.5029606 0
endloop
endfacet
facet normal -0.9968957466626513 -0.07873290472168998 0
outer loop
vertex 88.52458982358773 -108.13086935888578 1
vertex 88.4749988 -107.5029606 0
vertex 88.52458982358773 -108.1308693588858 0
endloop
endfacet
facet normal -0.9721771912367665 -0.23424668373104382 0
outer loop
vertex 88.67213338062172 -108.74320878917231 1
vertex 88.52458982358773 -108.13086935888578 1
vertex 88.52458982358773 -108.1308693588858 0
endloop
endfacet
facet normal -0.9721771912367665 -0.23424668373104382 0
outer loop
vertex 88.67213338062172 -108.74320878917231 1
vertex 88.52458982358773 -108.1308693588858 0
vertex 88.6721333806217 -108.74320878917233 0
endloop
endfacet
facet normal -0.923352975002358 -0.3839521891515853 0
outer loop
vertex 88.9139710485712 -109.32479560252588 1
vertex 88.67213338062172 -108.74320878917231 1
vertex 88.6721333806217 -108.74320878917233 0
endloop
endfacet
facet normal -0.923352975002358 -0.3839521891515853 0
outer loop
vertex 88.9139710485712 -109.32479560252588 1
vertex 88.6721333806217 -108.74320878917233 0
vertex 88.91397104857113 -109.32479560252578 0
endloop
endfacet
facet normal -0.8516337208853775 -0.5241373917694928 0
outer loop
vertex 89.24410633127584 -109.86120903843079 1
vertex 88.9139710485712 -109.32479560252588 1
vertex 88.91397104857113 -109.32479560252578 0
endloop
endfacet
facet normal -0.8516337208853775 -0.5241373917694928 0
outer loop
vertex 89.24410633127584 -109.86120903843079 1
vertex 88.91397104857113 -109.32479560252578 0
vertex 89.24410633127584 -109.86120903843079 0
endloop
endfacet
facet normal -0.7587977466953459 -0.6513263234432229 0
outer loop
vertex 89.65435334532123 -110.33914843476975 1
vertex 89.24410633127584 -109.86120903843079 1
vertex 89.24410633127584 -109.86120903843079 0
endloop
endfacet
facet normal -0.7587977466953459 -0.6513263234432229 0
outer loop
vertex 89.65435334532123 -110.33914843476975 1
vertex 89.24410633127584 -109.86120903843079 0
vertex 89.65435334532121 -110.33914843476975 0
endloop
endfacet
facet normal -0.6471469707706207 -0.7623652656190532 0
outer loop
vertex 90.13453979345788 -110.74676302495493 1
vertex 89.65435334532123 -110.33914843476975 1
vertex 89.65435334532121 -110.33914843476975 0
endloop
endfacet
facet normal -0.6471469707706207 -0.7623652656190532 0
outer loop
vertex 90.13453979345788 -110.74676302495493 1
vertex 89.65435334532121 -110.33914843476975 0
vertex 90.13453979345786 -110.74676302495494 0
endloop
endfacet
facet normal -0.5194498346645915 -0.854500947493289 0
outer loop
vertex 90.67275919223007 -111.0739457841147 1
vertex 90.13453979345788 -110.74676302495493 1
vertex 90.13453979345786 -110.74676302495494 0
endloop
endfacet
facet normal -0.5194498346645915 -0.854500947493289 0
outer loop
vertex 90.67275919223007 -111.0739457841147 1
vertex 90.13453979345786 -110.74676302495494 0
vertex 90.67275919222995 -111.07394578411463 0
endloop
endfacet
facet normal 0 0 1
outer loop
vertex 91.2556660996909 -111.31258403825706 1
vertex 90.89028776225506 -111.16300054999999 1
vertex 90.67275919223007 -111.0739457841147 1
endloop
endfacet
facet normal 0 0 1
outer loop
vertex 91.2556660996909 -111.31258403825706 1
vertex 90.67275919223007 -111.0739457841147 1
vertex 90.67275919222995 -111.07394578411463 0
endloop
endfacet
facet normal 0 0 1
outer loop
vertex 91.2556660996909 -111.31258403825706 1
vertex 90.67275919222995 -111.07394578411463 0
vertex 90.8902877622551 -111.16300054999999 0
endloop
endfacet
facet normal 0 0 1
outer loop
vertex 91.2556660996909 -111.31258403825706 1
vertex 90.8902877622551 -111.16300054999999 0
vertex 91.25566609969097 -111.31258403825707 0
endloop
endfacet
facet normal -0.2289011285306941 -0.9734496768489755 0
outer loop
vertex 91.86880702287607 -111.45676062242292 1
vertex 91.2556660996909 -111.31258403825706 1
vertex 91.25566609969097 -111.31258403825707 0
endloop
endfacet
facet normal -0.2289011285306941 -0.9734496768489755 0
outer loop
vertex 91.86880702287607 -111.45676062242292 1
vertex 91.25566609969097 -111.31258403825707 0
vertex 91.86880702287606 -111.45676062242292 0
endloop
endfacet
facet normal -0.07325495794110277 -0.9973132462456555 0
outer loop
vertex 92.49697759999978 -111.5029012 1
vertex 91.86880702287607 -111.45676062242292 1
vertex 91.86880702287606 -111.45676062242292 0
endloop
endfacet
facet normal -0.07325495794110277 -0.9973132462456555 0
outer loop
vertex 92.49697759999978 -111.5029012 1
vertex 91.86880702287606 -111.45676062242292 0
vertex 92.49697759999971 -111.50290119999998 0
endloop
endfacet
facet normal 0.005494463244332337 -0.9999849053229037 0
outer loop
vertex 154.3584378000011 -111.16300054999999 1
vertex 92.49697759999978 -111.5029012 1
vertex 92.49697759999971 -111.50290119999998 0
endloop
endfacet
facet normal 0.005494463244332337 -0.9999849053229037 0
outer loop
vertex 154.3584378000011 -111.16300054999999 1
vertex 92.49697759999971 -111.50290119999998 0
vertex 154.35843779999968 -111.16300054999999 0
endloop
endfacet
facet normal -0.07673676770100708 -0.9970513870823319 0
outer loop
vertex 155.01420909778184 -111.21347113797053 1
vertex 154.3584378000011 -111.16300054999999 1
vertex 154.35843779999968 -111.16300054999999 0
endloop
endfacet
facet normal -0.07673676770100708 -0.9970513870823319 0
outer loop
vertex 155.01420909778184 -111.21347113797053 1
vertex 154.35843779999968 -111.16300054999999 0
vertex 155.014209097782 -111.21347113797056 0
endloop
endfacet
facet normal -0.2390872535750078 -0.9709980871134402 0
outer loop
vertex 155.65284486317967 -111.37072136658595 1
vertex 155.01420909778184 -111.21347113797053 1
vertex 155.014209097782 -111.21347113797056 0
endloop
endfacet
facet normal -0.2390872535750078 -0.9709980871134402 0
outer loop
vertex 155.65284486317967 -111.37072136658595 1
vertex 155.014209097782 -111.21347113797056 0
vertex 155.6528448631797 -111.37072136658597 0
endloop
endfacet
facet normal -0.39497366774773485 -0.9186924413457978 0
outer loop
vertex 156.25707864925033 -111.63049974716326 1
vertex 155.65284486317967 -111.37072136658595 1
vertex 155.6528448631797 -111.37072136658597 0
endloop
endfacet
facet normal -0.39497366774773485 -0.9186924413457978 0
outer loop
vertex 156.25707864925033 -111.63049974716326 1
vertex 155.6528448631797 -111.37072136658597 0
vertex 156.25707864925027 -111.63049974716323 0
endloop
endfacet
facet normal -0.5401813942435926 -0.8415486090019092 0
outer loop
vertex 156.81057411660703 -111.98578279328324 1
vertex 156.25707864925033 -111.63049974716326 1
vertex 156.25707864925027 -111.63049974716323 0
endloop
endfacet
facet normal -0.5401813942435926 -0.8415486090019092 0
outer loop
vertex 156.81057411660703 -111.98578279328324 1
vertex 156.25707864925027 -111.63049974716323 0
vertex 156.81057411660706 -111.98578279328328 0
endloop
endfacet
facet normal -0.6707845309426655 -0.7416522858105598 0
outer loop
vertex 157.29836671011827 -112.42696491096274 1
vertex 156.81057411660703 -111.98578279328324 1
vertex 156.81057411660706 -111.98578279328328 0
endloop
endfacet
facet normal -0.6707845309426655 -0.7416522858105598 0
outer loop
vertex 157.29836671011827 -112.42696491096274 1
vertex 156.81057411660706 -111.98578279328328 0
vertex 157.29836671011822 -112.42696491096268 0
endloop
endfacet
facet normal -0.78325203205558 -0.6217043141886701 0
outer loop
vertex 157.70726824742553 -112.94211809986173 1
vertex 157.29836671011827 -112.42696491096274 1
vertex 157.29836671011822 -112.42696491096268 0
endloop
endfacet
facet normal -0.78325203205558 -0.6217043141886701 0
outer loop
vertex 157.70726824742553 -112.94211809986173 1
vertex 157.29836671011822 -112.42696491096268 0
vertex 157.7072682474255 -112.94211809986166 0
endloop
endfacet
facet normal -0.8745431750829743 -0.4849476620376576 0
outer loop
vertex 158.026223480637 -113.51731444412292 1
vertex 157.70726824742553 -112.94211809986173 1
vertex 157.7072682474255 -112.94211809986166 0
endloop
endfacet
facet normal -0.8745431750829743 -0.4849476620376576 0
outer loop
vertex 158.026223480637 -113.51731444412292 1
vertex 157.7072682474255 -112.94211809986166 0
vertex 158.02622348063696 -113.51731444412287 0
endloop
endfacet
facet normal -0.9421897711715931 -0.33507974438873644 0
outer loop
vertex 158.24660899103813 -114.13700267384017 1
vertex 158.026223480637 -113.51731444412292 1
vertex 158.02622348063696 -113.51731444412287 0
endloop
endfacet
facet normal -0.9421897711715931 -0.33507974438873644 0
outer loop
vertex 158.24660899103813 -114.13700267384017 1
vertex 158.02622348063696 -113.51731444412287 0
vertex 158.24660899103816 -114.1370026738403 0
endloop
endfacet
facet normal -0.9843628961904818 -0.17615245840886457 0
outer loop
vertex 158.3624663357596 -114.78442861626019 1
vertex 158.24660899103813 -114.13700267384017 1
vertex 158.24660899103816 -114.1370026738403 0
endloop
endfacet
facet normal -0.9843628961904818 -0.17615245840886457 0
outer loop
vertex 158.3624663357596 -114.78442861626019 1
vertex 158.24660899103816 -114.1370026738403 0
vertex 158.3624663357596 -114.7844286162601 0
endloop
endfacet
facet normal -0.9999223383554126 -0.012462634466430703 0
outer loop
vertex 158.37066314294898 -115.4420881692184 1
vertex 158.3624663357596 -114.78442861626019 1
vertex 158.3624663357596 -114.7844286162601 0
endloop
endfacet
facet normal -0.9999223383554126 -0.012462634466430703 0
outer loop
vertex 158.37066314294898 -115.4420881692184 1
vertex 158.3624663357596 -114.7844286162601 0
vertex 158.37066314294898 -115.44208816921821 0
endloop
endfacet
facet normal -0.9884469436029427 0.15156727774160594 0
outer loop
vertex 158.27097559999999 -116.09220110000011 1
vertex 158.37066314294898 -115.4420881692184 1
vertex 158.37066314294898 -115.44208816921821 0
endloop
endfacet
facet normal -0.9884469436029427 0.15156727774160594 0
outer loop
vertex 158.27097559999999 -116.09220110000011 1
vertex 158.37066314294898 -115.44208816921821 0
vertex 158.27097559999996 -116.0922011000003 0
endloop
endfacet
facet normal 0 0 -1
outer loop
vertex 155.53717554999997 -127.53790060000017 1
vertex 155.9281642559536 -125.90093404999986 1
vertex 156.0385757315775 -125.4386703334772 1
endloop
endfacet
facet normal 0 0 -1
outer loop
vertex 155.53717554999997 -127.53790060000017 1
vertex 156.0385757315775 -125.4386703334772 1
vertex 156.16134486080048 -124.92466838188501 1
endloop
endfacet
facet normal 0 0 -1
outer loop
vertex 155.53717554999997 -127.53790060000017 1
vertex 156.16134486080048 -124.92466838188501 1
vertex 156.29371747300476 -124.37045918091577 1
endloop
endfacet
facet normal 0 0 -1
outer loop
vertex 155.53717554999997 -127.53790060000017 1
vertex 156.29371747300476 -124.37045918091577 1
vertex 156.4327239555406 -123.78847571520576 1
endloop
endfacet
facet normal 0 0 -1
outer loop
vertex 155.53717554999997 -127.53790060000017 1
vertex 156.4327239555406 -123.78847571520576 1
vertex 156.57524490590146 -123.19177809999987 1
endloop
endfacet
facet normal 0 0 -1
outer loop
vertex 155.53717554999997 -127.53790060000017 1
vertex 156.57524490590146 -123.19177809999987 1
vertex 158.27097559999999 -116.09220110000011 1
endloop
endfacet
facet normal 0 0 -1
outer loop
vertex 155.53717554999997 -127.53790060000017 1
vertex 158.27097559999999 -116.09220110000011 1
vertex 158.27097559999996 -116.0922011000003 0
endloop
endfacet
facet normal 0 0 -1
outer loop
vertex 155.53717554999997 -127.53790060000017 1
vertex 158.27097559999996 -116.0922011000003 0
vertex 156.57524490590143 -123.1917781000001 0
endloop
endfacet
facet normal 0 0 -1
outer loop
vertex 155.53717554999997 -127.53790060000017 1
vertex 156.57524490590143 -123.1917781000001 0
vertex 156.43272395554064 -123.7884757152057 0
endloop
endfacet
facet normal 0 0 -1
outer loop
vertex 155.53717554999997 -127.53790060000017 1
vertex 156.43272395554064 -123.7884757152057 0
vertex 156.29371747300476 -124.37045918091586 0
endloop
endfacet
facet normal 0 0 -1
outer loop
vertex 155.53717554999997 -127.53790060000017 1
vertex 156.29371747300476 -124.37045918091586 0
vertex 156.1613448608005 -124.92466838188494 0
endloop
endfacet
facet normal 0 0 -1
outer loop
vertex 155.53717554999997 -127.53790060000017 1
vertex 156.1613448608005 -124.92466838188494 0
vertex 156.03857573157754 -125.43867033347722 0
endloop
endfacet
facet normal 0 0 -1
outer loop
vertex 155.53717554999997 -127.53790060000017 1
vertex 156.03857573157754 -125.43867033347722 0
vertex 155.92816425595362 -125.90093404999992 0
endloop
endfacet
facet normal 0 0 -1
outer loop
vertex 155.53717554999997 -127.53790060000017 1
vertex 155.92816425595362 -125.90093404999992 0
vertex 155.53717554999997 -127.5379006000001 0
endloop
endfacet
facet normal -0.9876278956302109 0.15681562349791978 0
outer loop
vertex 155.44068552619422 -128.14559667667226 1
vertex 155.53717554999997 -127.53790060000017 1
vertex 155.53717554999997 -127.5379006000001 0
endloop
endfacet
facet normal -0.9876278956302109 0.15681562349791978 0
outer loop
vertex 155.44068552619422 -128.14559667667226 1
vertex 155.53717554999997 -127.5379006000001 0
vertex 155.44068552619424 -128.1455966766721 0
endloop
endfacet
facet normal -0.9999939228697435 0.0034862908056538804 0
outer loop
vertex 155.4385403809891 -128.76090167799182 1
vertex 155.44068552619422 -128.14559667667226 1
vertex 155.44068552619424 -128.1455966766721 0
endloop
endfacet
facet normal -0.9999939228697435 0.0034862908056538804 0
outer loop
vertex 155.4385403809891 -128.76090167799182 1
vertex 155.44068552619424 -128.1455966766721 0
vertex 155.43854038098914 -128.76090167799208 0
endloop
endfacet
facet normal -0.9886972910176549 -0.14992553729885577 0
outer loop
vertex 155.53079087453293 -129.36925576299348 1
vertex 155.4385403809891 -128.76090167799182 1
vertex 155.43854038098914 -128.76090167799208 0
endloop
endfacet
facet normal -0.9886972910176549 -0.14992553729885577 0
outer loop
vertex 155.53079087453293 -129.36925576299348 1
vertex 155.43854038098914 -128.76090167799208 0
vertex 155.53079087453293 -129.36925576299353 0
endloop
endfacet
facet normal -0.9540053100468171 -0.29978970696552665 0
outer loop
vertex 155.71525410157997 -129.95626356887354 1
vertex 155.53079087453293 -129.36925576299348 1
vertex 155.53079087453293 -129.36925576299353 0
endloop
endfacet
facet normal -0.9540053100468171 -0.29978970696552665 0
outer loop
vertex 155.71525410157997 -129.95626356887354 1
vertex 155.53079087453293 -129.36925576299353 0
vertex 155.71525410157994 -129.9562635688735 0
endloop
endfacet
facet normal -0.8967388894649222 -0.4425600118867701 0
outer loop
vertex 155.9875651451477 -130.50803484562516 1
vertex 155.71525410157997 -129.95626356887354 1
vertex 155.71525410157994 -129.9562635688735 0
endloop
endfacet
facet normal -0.8967388894649222 -0.4425600118867701 0
outer loop
vertex 155.9875651451477 -130.50803484562516 1
vertex 155.71525410157994 -129.9562635688735 0
vertex 155.98756514514767 -130.5080348456251 0
endloop
endfacet
facet normal -0.8182531132946836 -0.5748581064780748 0
outer loop
vertex 156.34128036268615 -131.0115131382838 1
vertex 155.9875651451477 -130.50803484562516 1
vertex 155.98756514514767 -130.5080348456251 0
endloop
endfacet
facet normal -0.8182531132946836 -0.5748581064780748 0
outer loop
vertex 156.34128036268615 -131.0115131382838 1
vertex 155.98756514514767 -130.5080348456251 0
vertex 156.34128036268623 -131.01151313828387 0
endloop
endfacet
facet normal -0.7204051749874296 -0.6935534470041447 0
outer loop
vertex 156.76802986072272 -131.45478473924953 1
vertex 156.34128036268615 -131.0115131382838 1
vertex 156.34128036268623 -131.01151313828387 0
endloop
endfacet
facet normal -0.7204051749874296 -0.6935534470041447 0
outer loop
vertex 156.76802986072272 -131.45478473924953 1
vertex 156.34128036268623 -131.01151313828387 0
vertex 156.76802986072272 -131.45478473924953 0
endloop
endfacet
facet normal -0.6055145337145583 -0.7958342474789842 0
outer loop
vertex 157.2577110999999 -131.82736119999996 1
vertex 156.76802986072272 -131.45478473924953 1
vertex 156.76802986072272 -131.45478473924953 0
endloop
endfacet
facet normal -0.6055145337145583 -0.7958342474789842 0
outer loop
vertex 157.2577110999999 -131.82736119999996 1
vertex 156.76802986072272 -131.45478473924953 0
vertex 157.25771110000008 -131.8273612000001 0
endloop
endfacet
facet normal -0.5425072165888093 -0.8400511412700199 0
outer loop
vertex 209.32508225 -165.45260520000002 1
vertex 157.2577110999999 -131.82736119999996 1
vertex 157.25771110000008 -131.8273612000001 0
endloop
endfacet
facet normal -0.5425072165888093 -0.8400511412700199 0
outer loop
vertex 209.32508225 -165.45260520000002 1
vertex 157.25771110000008 -131.8273612000001 0
vertex 209.32508225000007 -165.45260520000005 0
endloop
endfacet
facet normal -0.4712272785764996 -0.8820118207401679 0
outer loop
vertex 209.90822607069754 -165.76415802637302 1
vertex 209.32508225 -165.45260520000002 1
vertex 209.32508225000007 -165.45260520000005 0
endloop
endfacet
facet normal -0.4712272785764996 -0.8820118207401679 0
outer loop
vertex 209.90822607069754 -165.76415802637302 1
vertex 209.32508225000007 -165.45260520000005 0
vertex 209.90822607069768 -165.7641580263731 0
endloop
endfacet
facet normal -0.3195030452978076 -0.947585248959389 0
outer loop
vertex 210.53472389025234 -165.9753980825474 1
vertex 209.90822607069754 -165.76415802637302 1
vertex 209.90822607069768 -165.7641580263731 0
endloop
endfacet
facet normal -0.3195030452978076 -0.947585248959389 0
outer loop
vertex 210.53472389025234 -165.9753980825474 1
vertex 209.90822607069768 -165.7641580263731 0
vertex 210.5347238902523 -165.97539808254743 0
endloop
endfacet
facet normal -0.15904995129511681 -0.9872705368808599 0
outer loop
vertex 211.18745971464978 -166.08055426537746 1
vertex 210.53472389025234 -165.9753980825474 1
vertex 210.5347238902523 -165.97539808254743 0
endloop
endfacet
facet normal -0.15904995129511681 -0.9872705368808599 0
outer loop
vertex 211.18745971464978 -166.08055426537746 1
vertex 210.5347238902523 -165.97539808254743 0
vertex 211.18745971464966 -166.0805542653775 0
endloop
endfacet
facet normal 0.005748406057790589 -0.9999834777774055 0
outer loop
vertex 211.8486007245023 -166.07675369559752 1
vertex 211.18745971464978 -166.08055426537746 1
vertex 211.18745971464966 -166.0805542653775 0
endloop
endfacet
facet normal 0.005748406057790589 -0.9999834777774055 0
outer loop
vertex 211.8486007245023 -166.07675369559752 1
vertex 211.18745971464966 -166.0805542653775 0
vertex 211.848600724502 -166.07675369559755 0
endloop
endfacet
facet normal 0.17038971628196017 -0.9853767526105703 0
outer loop
vertex 212.50008446976713 -165.96410020522046 1
vertex 211.8486007245023 -166.07675369559752 1
vertex 211.848600724502 -166.07675369559755 0
endloop
endfacet
facet normal 0.17038971628196017 -0.9853767526105703 0
outer loop
vertex 212.50008446976713 -165.96410020522046 1
vertex 211.848600724502 -166.07675369559755 0
vertex 212.50008446976727 -165.9641002052204 0
endloop
endfacet
facet normal 0.3303759594446636 -0.9438494188275046 0
outer loop
vertex 213.12411233800674 -165.7456715008346 1
vertex 212.50008446976713 -165.96410020522046 1
vertex 212.50008446976727 -165.9641002052204 0
endloop
endfacet
facet normal 0.3303759594446636 -0.9438494188275046 0
outer loop
vertex 213.12411233800674 -165.7456715008346 1
vertex 212.50008446976727 -165.9641002052204 0
vertex 213.12411233800674 -165.74567150083456 0
endloop
endfacet
facet normal 0.4813362925918657 -0.8765360080646533 0
outer loop
vertex 213.7036358145662 -165.42743508029898 1
vertex 213.12411233800674 -165.7456715008346 1
vertex 213.12411233800674 -165.74567150083456 0
endloop
endfacet
facet normal 0.4813362925918657 -0.8765360080646533 0
outer loop
vertex 213.7036358145662 -165.42743508029898 1
vertex 213.12411233800674 -165.74567150083456 0
vertex 213.70363581456627 -165.42743508029892 0
endloop
endfacet
facet normal 0.6191492840221657 -0.7852733053496977 0
outer loop
vertex 214.22282449999958 -165.01808040000037 1
vertex 213.7036358145662 -165.42743508029898 1
vertex 213.70363581456627 -165.42743508029892 0
endloop
endfacet
facet normal 0.6191492840221657 -0.7852733053496977 0
outer loop
vertex 214.22282449999958 -165.01808040000037 1
vertex 213.70363581456627 -165.42743508029892 0
vertex 214.22282449999972 -165.01808040000023 0
endloop
endfacet
facet normal 0.6819296278355534 -0.7314177894200165 0
outer loop
vertex 232.83357100000006 -147.66654804999996 1
vertex 214.22282449999958 -165.01808040000037 1
vertex 214.22282449999972 -165.01808040000023 0
endloop
endfacet
facet normal 0.6819296278355534 -0.7314177894200165 0
outer loop
vertex 232.83357100000006 -147.66654804999996 1
vertex 214.22282449999972 -165.01808040000023 0
vertex 232.8335710000003 -147.6665480499997 0
endloop
endfacet
facet normal 0.7376885651049526 -0.6751411562876286 0
outer loop
vertex 233.26111888696124 -147.19939064993815 1
vertex 232.83357100000006 -147.66654804999996 1
vertex 232.8335710000003 -147.6665480499997 0
endloop
endfacet
facet normal 0.7376885651049526 -0.6751411562876286 0
outer loop
vertex 233.26111888696124 -147.19939064993815 1
vertex 232.8335710000003 -147.6665480499997 0
vertex 233.26111888696101 -147.19939064993844 0
endloop
endfacet
facet normal 0.8349952000717862 -0.5502572269921385 0
outer loop
vertex 233.60958129736912 -146.67061169743533 1
vertex 233.26111888696124 -147.19939064993815 1
vertex 233.26111888696101 -147.19939064993844 0
endloop
endfacet
facet normal 0.8349952000717862 -0.5502572269921385 0
outer loop
vertex 233.60958129736912 -146.67061169743533 1
vertex 233.26111888696101 -147.19939064993844 0
vertex 233.60958129736932 -146.67061169743496 0
endloop
endfacet
facet normal 0.9113730335477441 -0.4115813330582215 0
outer loop
vertex 233.87022416830501 -146.09346481326452 1
vertex 233.60958129736912 -146.67061169743533 1
vertex 233.60958129736932 -146.67061169743496 0
endloop
endfacet
facet normal 0.9113730335477441 -0.4115813330582215 0
outer loop
vertex 233.87022416830501 -146.09346481326452 1
vertex 233.60958129736932 -146.67061169743496 0
vertex 233.870224168305 -146.09346481326463 0
endloop
endfacet
facet normal 0.9649076874441962 -0.26258932710811683 0
outer loop
vertex 234.03651459645934 -145.48241593994763 1
vertex 233.87022416830501 -146.09346481326452 1
vertex 233.870224168305 -146.09346481326463 0
endloop
endfacet
facet normal 0.9649076874441962 -0.26258932710811683 0
outer loop
vertex 234.03651459645934 -145.48241593994763 1
vertex 233.870224168305 -146.09346481326463 0
vertex 234.0365145964593 -145.4824159399477 0
endloop
endfacet
facet normal 0.9942573383061286 -0.10701563074809443 0
outer loop
vertex 234.10428458259048 -144.85278075902332 1
vertex 234.03651459645934 -145.48241593994763 1
vertex 234.0365145964593 -145.4824159399477 0
endloop
endfacet
facet normal 0.9942573383061286 -0.10701563074809443 0
outer loop
vertex 234.10428458259048 -144.85278075902332 1
vertex 234.0365145964593 -145.4824159399477 0
vertex 234.10428458259048 -144.85278075902357 0
endloop
endfacet
facet normal 0.9986863495494607 0.05124036712956581 0
outer loop
vertex 234.07183550066244 -144.2203408099694 1
vertex 234.10428458259048 -144.85278075902332 1
vertex 234.10428458259048 -144.85278075902357 0
endloop
endfacet
facet normal 0.9986863495494607 0.05124036712956581 0
outer loop
vertex 234.07183550066244 -144.2203408099694 1
vertex 234.10428458259048 -144.85278075902357 0
vertex 234.07183550066244 -144.22034080996946 0
endloop
endfacet
facet normal 0.9780837098808286 0.20821204687950987 0
outer loop
vertex 233.93998067318793 -143.60094793258907 1
vertex 234.07183550066244 -144.2203408099694 1
vertex 234.07183550066244 -144.22034080996946 0
endloop
endfacet
facet normal 0.9780837098808286 0.20821204687950987 0
outer loop
vertex 233.93998067318793 -143.60094793258907 1
vertex 234.07183550066244 -144.22034080996946 0
vertex 233.93998067318793 -143.60094793258907 0
endloop
endfacet
facet normal 0.9329658157486825 0.35996497974719055 0
outer loop
vertex 233.71202498564384 -143.01012694735465 1
vertex 233.93998067318793 -143.60094793258907 1
vertex 233.93998067318793 -143.60094793258907 0
endloop
endfacet
facet normal 0.9329658157486825 0.35996497974719055 0
outer loop
vertex 233.71202498564384 -143.01012694735465 1
vertex 233.93998067318793 -143.60094793258907 0
vertex 233.71202498564386 -143.01012694735468 0
endloop
endfacet
facet normal 0.8644635280848466 0.502695542660863 0
outer loop
vertex 233.39368205091395 -142.46268653234557 1
vertex 233.71202498564384 -143.01012694735465 1
vertex 233.71202498564386 -143.01012694735468 0
endloop
endfacet
facet normal 0.8644635280848466 0.502695542660863 0
outer loop
vertex 233.39368205091395 -142.46268653234557 1
vertex 233.71202498564386 -143.01012694735468 0
vertex 233.39368205091392 -142.4626865323455 0
endloop
endfacet
facet normal 0.7742958346386196 0.6328237989055748 0
outer loop
vertex 232.9929319999998 -141.9723460999998 1
vertex 233.39368205091395 -142.46268653234557 1
vertex 233.39368205091392 -142.4626865323455 0
endloop
endfacet
facet normal 0.7742958346386196 0.6328237989055748 0
outer loop
vertex 232.9929319999998 -141.9723460999998 1
vertex 233.39368205091392 -142.4626865323455 0
vertex 232.99293200000005 -141.97234610000004 0
endloop
endfacet
facet normal 0.7217700770563172 0.6921329033257397 0
outer loop
vertex 217.5814409499999 -125.90093404999986 1
vertex 232.9929319999998 -141.9723460999998 1
vertex 232.99293200000005 -141.97234610000004 0
endloop
endfacet
facet normal 0.7217700770563172 0.6921329033257397 0
outer loop
vertex 217.5814409499999 -125.90093404999986 1
vertex 232.99293200000005 -141.97234610000004 0
vertex 217.58144094999994 -125.90093404999992 0
endloop
endfacet
facet normal 0.7715764837096479 0.636136565358615 0
outer loop
vertex 217.20032143803027 -125.4386703334772 1
vertex 217.5814409499999 -125.90093404999986 1
vertex 217.58144094999994 -125.90093404999992 0
endloop
endfacet
facet normal 0.7715764837096479 0.636136565358615 0
outer loop
vertex 217.20032143803027 -125.4386703334772 1
vertex 217.58144094999994 -125.90093404999992 0
vertex 217.2003214380303 -125.43867033347722 0
endloop
endfacet
facet normal 0.8579341277582154 0.5137597030010723 0
outer loop
vertex 216.89251984645355 -124.92466838188501 1
vertex 217.20032143803027 -125.4386703334772 1
vertex 217.2003214380303 -125.43867033347722 0
endloop
endfacet
facet normal 0.8579341277582154 0.5137597030010723 0
outer loop
vertex 216.89251984645355 -124.92466838188501 1
vertex 217.2003214380303 -125.43867033347722 0
vertex 216.89251984645352 -124.92466838188494 0
endloop
endfacet
facet normal 0.9250451013972861 0.3798572894928889 0
outer loop
vertex 216.6649413158779 -124.37045918091577 1
vertex 216.89251984645355 -124.92466838188501 1
vertex 216.89251984645352 -124.92466838188494 0
endloop
endfacet
facet normal 0.9250451013972861 0.3798572894928889 0
outer loop
vertex 216.6649413158779 -124.37045918091577 1
vertex 216.89251984645352 -124.92466838188494 0
vertex 216.66494131587794 -124.37045918091586 0
endloop
endfacet
facet normal 0.9714038545517456 0.23743325664702303 0
outer loop
vertex 216.52269128368917 -123.78847571520576 1
vertex 216.6649413158779 -124.37045918091577 1
vertex 216.66494131587794 -124.37045918091586 0
endloop
endfacet
facet normal 0.9714038545517456 0.23743325664702303 0
outer loop
vertex 216.52269128368917 -123.78847571520576 1
vertex 216.66494131587794 -124.37045918091586 0
vertex 216.52269128368917 -123.7884757152057 0
endloop
endfacet
facet normal 0.9959704743110586 0.08968173894726313 0
outer loop
vertex 216.46896189999998 -123.19177809999987 1
vertex 216.52269128368917 -123.78847571520576 1
vertex 216.52269128368917 -123.7884757152057 0
endloop
endfacet
facet normal 0.9959704743110586 0.08968173894726313 0
outer loop
vertex 216.46896189999998 -123.19177809999987 1
vertex 216.52269128368917 -123.7884757152057 0
vertex 216.4689619 -123.1917781000001 0
endloop
endfacet
facet normal 0 0 -1
outer loop
vertex 215.43682879999994 -53.67088799999957 1
vertex 216.29037817582682 -111.16300054999999 1
vertex 216.29112748102622 -111.21347113797053 1
endloop
endfacet
facet normal 0 0 -1
outer loop
vertex 215.43682879999994 -53.67088799999957 1
vertex 216.29112748102622 -111.21347113797053 1
vertex 216.29346207665213 -111.37072136658595 1
endloop
endfacet
facet normal 0 0 -1
outer loop
vertex 215.43682879999994 -53.67088799999957 1
vertex 216.29346207665213 -111.37072136658595 1
vertex 216.29731884351563 -111.63049974716326 1
endloop
endfacet
facet normal 0 0 -1
outer loop
vertex 215.43682879999994 -53.67088799999957 1
vertex 216.29731884351563 -111.63049974716326 1
vertex 216.30259350831412 -111.98578279328324 1
endloop
endfacet
facet normal 0 0 -1
outer loop
vertex 215.43682879999994 -53.67088799999957 1
vertex 216.30259350831412 -111.98578279328324 1
vertex 216.30914346281168 -112.42696491096274 1
endloop
endfacet
facet normal 0 0 -1
outer loop
vertex 215.43682879999994 -53.67088799999957 1
vertex 216.30914346281168 -112.42696491096274 1
vertex 216.31679161946025 -112.94211809986173 1
endloop
endfacet
facet normal 0 0 -1
outer loop
vertex 215.43682879999994 -53.67088799999957 1
vertex 216.31679161946025 -112.94211809986173 1
vertex 216.32533119921902 -113.51731444412292 1
endloop
endfacet
facet normal 0 0 -1
outer loop
vertex 215.43682879999994 -53.67088799999957 1
vertex 216.32533119921902 -113.51731444412292 1
vertex 216.3345313221267 -114.13700267384017 1
endloop
endfacet
facet normal 0 0 -1
outer loop
vertex 215.43682879999994 -53.67088799999957 1
vertex 216.3345313221267 -114.13700267384017 1
vertex 216.344143249477 -114.78442861626019 1
endloop
endfacet
facet normal 0 0 -1
outer loop
vertex 215.43682879999994 -53.67088799999957 1
vertex 216.344143249477 -114.78442861626019 1
vertex 216.35390710883158 -115.4420881692184 1
endloop
endfacet
facet normal 0 0 -1
outer loop
vertex 215.43682879999994 -53.67088799999957 1
vertex 216.35390710883158 -115.4420881692184 1
vertex 216.3635589282147 -116.09220110000011 1
endloop
endfacet
facet normal 0 0 -1
outer loop
vertex 215.43682879999994 -53.67088799999957 1
vertex 216.3635589282147 -116.09220110000011 1
vertex 216.46896189999998 -123.19177809999987 1
endloop
endfacet
facet normal 0 0 -1
outer loop
vertex 215.43682879999994 -53.67088799999957 1
vertex 216.46896189999998 -123.19177809999987 1
vertex 216.4689619 -123.1917781000001 0
endloop
endfacet
facet normal 0 0 -1
outer loop
vertex 215.43682879999994 -53.67088799999957 1
vertex 216.4689619 -123.1917781000001 0
vertex 216.36355892821467 -116.0922011000003 0
endloop
endfacet
facet normal 0 0 -1
outer loop
vertex 215.43682879999994 -53.67088799999957 1
vertex 216.36355892821467 -116.0922011000003 0
vertex 216.35390710883163 -115.44208816921821 0
endloop
endfacet
facet normal 0 0 -1
outer loop
vertex 215.43682879999994 -53.67088799999957 1
vertex 216.35390710883163 -115.44208816921821 0
vertex 216.34414324947707 -114.7844286162601 0
endloop
endfacet
facet normal 0 0 -1
outer loop
vertex 215.43682879999994 -53.67088799999957 1
vertex 216.34414324947707 -114.7844286162601 0
vertex 216.33453132212676 -114.1370026738403 0
endloop
endfacet
facet normal 0 0 -1
outer loop
vertex 215.43682879999994 -53.67088799999957 1
vertex 216.33453132212676 -114.1370026738403 0
vertex 216.32533119921905 -113.51731444412287 0
endloop
endfacet
facet normal 0 0 -1
outer loop
vertex 215.43682879999994 -53.67088799999957 1
vertex 216.32533119921905 -113.51731444412287 0
vertex 216.31679161946028 -112.94211809986166 0
endloop
endfacet
facet normal 0 0 -1
outer loop
vertex 215.43682879999994 -53.67088799999957 1
vertex 216.31679161946028 -112.94211809986166 0
vertex 216.30914346281168 -112.42696491096268 0
endloop
endfacet
facet normal 0 0 -1
outer loop
vertex 215.43682879999994 -53.67088799999957 1
vertex 216.30914346281168 -112.42696491096268 0
vertex 216.30259350831412 -111.98578279328328 0
endloop
endfacet
facet normal 0 0 -1
outer loop
vertex 215.43682879999994 -53.67088799999957 1
vertex 216.30259350831412 -111.98578279328328 0
vertex 216.29731884351563 -111.63049974716323 0
endloop
endfacet
facet normal 0 0 -1
outer loop
vertex 215.43682879999994 -53.67088799999957 1
vertex 216.29731884351563 -111.63049974716323 0
vertex 216.29346207665213 -111.37072136658597 0
endloop
endfacet
facet normal 0 0 -1
outer loop
vertex 215.43682879999994 -53.67088799999957 1
vertex 216.29346207665213 -111.37072136658597 0
vertex 216.29112748102625 -111.21347113797056 0
endloop
endfacet
facet normal 0 0 -1
outer loop
vertex 215.43682879999994 -53.67088799999957 1
vertex 216.29112748102625 -111.21347113797056 0
vertex 216.29037817582682 -111.16300054999999 0
endloop
endfacet
facet normal 0 0 -1
outer loop
vertex 215.43682879999994 -53.67088799999957 1
vertex 216.29037817582682 -111.16300054999999 0
vertex 215.43682879999994 -53.67088799999958 0
endloop
endfacet
facet normal 0.9955306374700248 0.09443913308859911 0
outer loop
vertex 215.37665363116196 -53.03655112889602 1
vertex 215.43682879999994 -53.67088799999957 1
vertex 215.43682879999994 -53.67088799999958 0
endloop
endfacet
facet normal 0.9955306374700248 0.09443913308859911 0
outer loop
vertex 215.37665363116196 -53.03655112889602 1
vertex 215.43682879999994 -53.67088799999958 0
vertex 215.37665363116196 -53.036551128896036 0
endloop
endfacet
facet normal 0.9679037094493392 0.2513213266601329 0
outer loop
vertex 215.21651553194638 -52.419817713094304 1
vertex 215.37665363116196 -53.03655112889602 1
vertex 215.37665363116196 -53.036551128896036 0
endloop
endfacet
facet normal 0.9679037094493392 0.2513213266601329 0
outer loop
vertex 215.21651553194638 -52.419817713094304 1
vertex 215.37665363116196 -53.036551128896036 0
vertex 215.21651553194636 -52.41981771309423 0
endloop
endfacet
facet normal 0.9157159636496475 0.4018261737582527 0
outer loop
vertex 214.96047804982788 -51.83633752942259 1
vertex 215.21651553194638 -52.419817713094304 1
vertex 215.21651553194636 -52.41981771309423 0
endloop
endfacet
facet normal 0.9157159636496475 0.4018261737582527 0
outer loop
vertex 214.96047804982788 -51.83633752942259 1
vertex 215.21651553194636 -52.41981771309423 0
vertex 214.960478049828 -51.83633752942279 0
endloop
endfacet
facet normal 0.8402916782014962 0.542134573279839 0
outer loop
vertex 214.6150382049974 -51.30091654497186 1
vertex 214.96047804982788 -51.83633752942259 1
vertex 214.960478049828 -51.83633752942279 0
endloop
endfacet
facet normal 0.8402916782014962 0.542134573279839 0
outer loop
vertex 214.6150382049974 -51.30091654497186 1
vertex 214.960478049828 -51.83633752942279 0
vertex 214.61503820499738 -51.300916544971855 0
endloop
endfacet
facet normal 0.7435447646984839 0.6686861617302069 0
outer loop
vertex 214.18896162672104 -50.827141211685 1
vertex 214.6150382049974 -51.30091654497186 1
vertex 214.61503820499738 -51.300916544971855 0
endloop
endfacet
facet normal 0.7435447646984839 0.6686861617302069 0
outer loop
vertex 214.18896162672104 -50.827141211685 1
vertex 214.61503820499738 -51.300916544971855 0
vertex 214.18896162672095 -50.82714121168494 0
endloop
endfacet
facet normal 0.6279302021741844 0.7782696584073465 0
outer loop
vertex 213.69306012313314 -50.427033706474454 1
vertex 214.18896162672104 -50.827141211685 1
vertex 214.18896162672095 -50.82714121168494 0
endloop
endfacet
facet normal 0.6279302021741844 0.7782696584073465 0
outer loop
vertex 213.69306012313314 -50.427033706474454 1
vertex 214.18896162672095 -50.82714121168494 0
vertex 213.69306012313308 -50.42703370647443 0
endloop
endfacet
facet normal 0.4963817413467672 0.8681043525161887 0
outer loop
vertex 213.13991732868675 -50.11074686523828 1
vertex 213.69306012313314 -50.427033706474454 1
vertex 213.69306012313308 -50.42703370647443 0
endloop
endfacet
facet normal 0.4963817413467672 0.8681043525161887 0
outer loop
vertex 213.13991732868675 -50.11074686523828 1
vertex 213.69306012313308 -50.42703370647443 0
vertex 213.1399173286867 -50.11074686523825 0
endloop
endfacet
facet normal 0.35223745990313643 0.9359106644552067 0
outer loop
vertex 212.54356939103587 -49.886306551911055 1
vertex 213.13991732868675 -50.11074686523828 1
vertex 213.1399173286867 -50.11074686523825 0
endloop
endfacet
facet normal 0.35223745990313643 0.9359106644552067 0
outer loop
vertex 212.54356939103587 -49.886306551911055 1
vertex 213.1399173286867 -50.11074686523825 0
vertex 212.54356939103593 -49.88630655191106 0
endloop
endfacet
facet normal 0.19915770463083415 0.9799674528708479 0
outer loop
vertex 211.91914759999997 -49.759406 1
vertex 212.54356939103587 -49.886306551911055 1
vertex 212.54356939103593 -49.88630655191106 0
endloop
endfacet
facet normal 0.19915770463083415 0.9799674528708479 0
outer loop
vertex 211.91914759999997 -49.759406 1
vertex 212.54356939103593 -49.88630655191106 0
vertex 211.91914760000006 -49.75940600000001 0
endloop
endfacet
facet normal 0.12046997333076707 0.9927169715108554 0
outer loop
vertex 136.76838830000003 -40.63957605000001 1
vertex 211.91914759999997 -49.759406 1
vertex 211.91914760000006 -49.75940600000001 0
endloop
endfacet
facet normal 0.12046997333076707 0.9927169715108554 0
outer loop
vertex 136.76838830000003 -40.63957605000001 1
vertex 211.91914760000006 -49.75940600000001 0
vertex 136.76838830000003 -40.63957605000001 0
endloop
endfacet
facet normal 0.07288546094295612 0.9973403178369622 0
outer loop
vertex 136.38713007700534 -40.61171376385326 1
vertex 136.76838830000003 -40.63957605000001 1
vertex 136.76838830000003 -40.63957605000001 0
endloop
endfacet
facet normal 0.07288546094295612 0.9973403178369622 0
outer loop
vertex 136.38713007700534 -40.61171376385326 1
vertex 136.76838830000003 -40.63957605000001 0
vertex 136.38713007700528 -40.61171376385326 0
endloop
endfacet
facet normal -0.022653060007208126 0.9997433865109137 0
outer loop
vertex 136.00495322104678 -40.620373461299835 1
vertex 136.38713007700534 -40.61171376385326 1
vertex 136.38713007700528 -40.61171376385326 0
endloop
endfacet
facet normal -0.022653060007208126 0.9997433865109137 0
outer loop
vertex 136.00495322104678 -40.620373461299835 1
vertex 136.38713007700528 -40.61171376385326 0
vertex 136.0049532210468 -40.62037346129983 0
endloop
endfacet
facet normal -0.11797397183561029 0.9930166876590396 0
outer loop
vertex 135.62534659999972 -40.665472100000045 1
vertex 136.00495322104678 -40.620373461299835 1
vertex 136.0049532210468 -40.62037346129983 0
endloop
endfacet
facet normal -0.11797397183561029 0.9930166876590396 0
outer loop
vertex 135.62534659999972 -40.665472100000045 1
vertex 136.0049532210468 -40.62037346129983 0
vertex 135.62534659999972 -40.665472100000045 0
endloop
endfacet
facet normal -0.1652915561107733 0.9862447472501332 0
outer loop
vertex 107.70388460000086 -45.34502239999984 1
vertex 135.62534659999972 -40.665472100000045 1
vertex 135.62534659999972 -40.665472100000045 0
endloop
endfacet
facet normal -0.1652915561107733 0.9862447472501332 0
outer loop
vertex 107.70388460000086 -45.34502239999984 1
vertex 135.62534659999972 -40.665472100000045 0
vertex 107.7038846000006 -45.34502239999989 0
endloop
endfacet
facet normal -0.18757331655236004 0.9822506049463895 0
outer loop
vertex 107.52586327095204 -45.37901784977466 1
vertex 107.70388460000086 -45.34502239999984 1
vertex 107.7038846000006 -45.34502239999989 0
endloop
endfacet
facet normal -0.18757331655236004 0.9822506049463895 0
outer loop
vertex 107.52586327095204 -45.37901784977466 1
vertex 107.7038846000006 -45.34502239999989 0
vertex 107.52586327095199 -45.37901784977468 0
endloop
endfacet
facet normal -0.23189294202315094 0.9727413137313783 0
outer loop
vertex 107.34956920000045 -45.42104479999988 1
vertex 107.52586327095204 -45.37901784977466 1
vertex 107.52586327095199 -45.37901784977468 0
endloop
endfacet
facet normal -0.23189294202315094 0.9727413137313783 0
outer loop
vertex 107.34956920000045 -45.42104479999988 1
vertex 107.52586327095199 -45.37901784977468 0
vertex 107.34956920000043 -45.42104479999989 0
endloop
endfacet
facet normal -0.25386843751787996 0.9672387587520623 0
outer loop
vertex 91.45953500000006 -49.591657399999974 1
vertex 107.34956920000045 -45.42104479999988 1
vertex 107.34956920000043 -45.42104479999989 0
endloop
endfacet
facet normal -0.25386843751787996 0.9672387587520623 0
outer loop
vertex 91.45953500000006 -49.591657399999974 1
vertex 107.34956920000043 -45.42104479999989 0
vertex 91.45953499999995 -49.5916574 0
endloop
endfacet
facet normal -0.3323619049084806 0.9431519305846784 0
outer loop
vertex 90.84052287376453 -49.809794099682655 1
vertex 91.45953500000006 -49.591657399999974 1
vertex 91.45953499999995 -49.5916574 0
endloop
endfacet
facet normal -0.3323619049084806 0.9431519305846784 0
outer loop
vertex 90.84052287376453 -49.809794099682655 1
vertex 91.45953499999995 -49.5916574 0
vertex 90.8405228737646 -49.80979409968262 0
endloop
endfacet
facet normal -0.4821192624539639 0.876105596815159 0
outer loop
vertex 90.2655147857725 -50.126219969230284 1
vertex 90.84052287376453 -49.809794099682655 1
vertex 90.8405228737646 -49.80979409968262 0
endloop
endfacet
facet normal -0.4821192624539639 0.876105596815159 0
outer loop
vertex 90.2655147857725 -50.126219969230284 1
vertex 90.8405228737646 -49.80979409968262 0
vertex 90.26551478577241 -50.126219969230334 0
endloop
endfacet
facet normal -0.6188967752395198 0.7854723302562118 0
outer loop
vertex 89.74999137805432 -50.53241604044414 1
vertex 90.2655147857725 -50.126219969230284 1
vertex 90.26551478577241 -50.126219969230334 0
endloop
endfacet
facet normal -0.6188967752395198 0.7854723302562118 0
outer loop
vertex 89.74999137805432 -50.53241604044414 1
vertex 90.26551478577241 -50.126219969230334 0
vertex 89.74999137805436 -50.53241604044409 0
endloop
endfacet
facet normal -0.7390120538215152 0.6736922029432327 0
outer loop
vertex 89.30783181770254 -51.017446508935286 1
vertex 89.74999137805432 -50.53241604044414 1
vertex 89.74999137805436 -50.53241604044409 0
endloop
endfacet
facet normal -0.7390120538215152 0.6736922029432327 0
outer loop
vertex 89.30783181770254 -51.017446508935286 1
vertex 89.74999137805436 -50.53241604044409 0
vertex 89.30783181770256 -51.01744650893526 0
endloop
endfacet
facet normal -0.8392312973737084 0.5437746127840488 0
outer loop
vertex 88.95094013531622 -51.568253153065825 1
vertex 89.30783181770254 -51.017446508935286 1
vertex 89.30783181770256 -51.01744650893526 0
endloop
endfacet
facet normal -0.8392312973737084 0.5437746127840488 0
outer loop
vertex 88.95094013531622 -51.568253153065825 1
vertex 89.30783181770256 -51.01744650893526 0
vertex 88.9509401353162 -51.56825315306584 0
endloop
endfacet
facet normal -0.91685635561549 0.3992172631130601 0
outer loop
vertex 88.68892473900951 -52.170006893622094 1
vertex 88.95094013531622 -51.568253153065825 1
vertex 88.9509401353162 -51.56825315306584 0
endloop
endfacet
facet normal -0.91685635561549 0.3992172631130601 0
outer loop
vertex 88.68892473900951 -52.170006893622094 1
vertex 88.9509401353162 -51.56825315306584 0
vertex 88.68892473900951 -52.17000689362205 0
endloop
endfacet
facet normal -0.9697973697008793 0.24391199585353757 0
outer loop
vertex 88.52883973226616 -52.80650702935743 1
vertex 88.68892473900951 -52.170006893622094 1
vertex 88.68892473900951 -52.17000689362205 0
endloop
endfacet
facet normal -0.9697973697008793 0.24391199585353757 0
outer loop
vertex 88.52883973226616 -52.80650702935743 1
vertex 88.68892473900951 -52.17000689362205 0
vertex 88.52883973226616 -52.80650702935736 0
endloop
endfacet
facet normal -0.9966296325993214 0.08203277043317318 0
outer loop
vertex 88.475 -53.460614800000066 1
vertex 88.52883973226616 -52.80650702935743 1
vertex 88.52883973226616 -52.80650702935736 0
endloop
endfacet
facet normal -0.9966296325993214 0.08203277043317318 0
outer loop
vertex 88.475 -53.460614800000066 1
vertex 88.52883973226616 -52.80650702935736 0
vertex 88.475 -53.46061480000009 0
endloop
endfacet
facet normal -0.9999999999999998 2.220481576387101e-8 0
outer loop
vertex 88.4749988 -107.5029606 1
vertex 88.475 -53.460614800000066 1
vertex 88.475 -53.46061480000009 0
endloop
endfacet
facet normal -0.9999999999999998 2.220481576387101e-8 0
outer loop
vertex 88.4749988 -107.5029606 1
vertex 88.475 -53.46061480000009 0
vertex 88.4749988 -107.5029606 0
endloop
endfacet
endsolid csg.js
