%TF.GenerationSoftware,KiCad,Pcbnew,9.0.7*%
%TF.CreationDate,2026-02-06T22:36:50+02:00*%
%TF.ProjectId,juubo_left_finished,6a757562-6f5f-46c6-9566-745f66696e69,v1.0.0*%
%TF.SameCoordinates,Original*%
%TF.FileFunction,Paste,Top*%
%TF.FilePolarity,Positive*%
%FSLAX46Y46*%
G04 Gerber Fmt 4.6, Leading zero omitted, Abs format (unit mm)*
G04 Created by KiCad (PCBNEW 9.0.7) date 2026-02-06 22:36:50*
%MOMM*%
%LPD*%
G01*
G04 APERTURE LIST*
G04 Aperture macros list*
%AMRotRect*
0 Rectangle, with rotation*
0 The origin of the aperture is its center*
0 $1 length*
0 $2 width*
0 $3 Rotation angle, in degrees counterclockwise*
0 Add horizontal line*
21,1,$1,$2,0,0,$3*%
G04 Aperture macros list end*
%ADD10R,1.100000X1.800000*%
%ADD11R,0.900000X1.200000*%
%ADD12RotRect,0.900000X1.200000X345.000000*%
%ADD13RotRect,0.900000X1.200000X230.000000*%
%ADD14RotRect,0.900000X1.200000X225.000000*%
G04 APERTURE END LIST*
D10*
%TO.C,B1*%
X229127500Y-59110000D03*
X229127500Y-52910000D03*
X232827500Y-59110000D03*
X232827500Y-52910000D03*
%TD*%
D11*
%TO.C,D1*%
X98350000Y-105000000D03*
X101650000Y-105000000D03*
%TD*%
%TO.C,D9*%
X155500000Y-97500000D03*
X158800000Y-97500000D03*
%TD*%
D12*
%TO.C,D18*%
X186362127Y-126952579D03*
X189549683Y-127806679D03*
%TD*%
D11*
%TO.C,D16*%
X193600000Y-83450000D03*
X196900000Y-83450000D03*
%TD*%
%TO.C,D13*%
X174550000Y-80950000D03*
X177850000Y-80950000D03*
%TD*%
%TO.C,D6*%
X136450000Y-100000000D03*
X139750000Y-100000000D03*
%TD*%
%TO.C,D15*%
X193600000Y-102500000D03*
X196900000Y-102500000D03*
%TD*%
%TO.C,D7*%
X136450000Y-80950000D03*
X139750000Y-80950000D03*
%TD*%
%TO.C,D17*%
X193600000Y-64400000D03*
X196900000Y-64400000D03*
%TD*%
%TO.C,D12*%
X174550000Y-100000000D03*
X177850000Y-100000000D03*
%TD*%
%TO.C,D10*%
X155500000Y-78450000D03*
X158800000Y-78450000D03*
%TD*%
%TO.C,D2*%
X98350000Y-85950000D03*
X101650000Y-85950000D03*
%TD*%
%TO.C,D4*%
X117400000Y-85950000D03*
X120700000Y-85950000D03*
%TD*%
%TO.C,D3*%
X117400000Y-105000000D03*
X120700000Y-105000000D03*
%TD*%
D13*
%TO.C,D19*%
X212091033Y-127004996D03*
X209969833Y-129532942D03*
%TD*%
D11*
%TO.C,D14*%
X174550000Y-61900000D03*
X177850000Y-61900000D03*
%TD*%
%TO.C,D5*%
X117400000Y-66900000D03*
X120700000Y-66900000D03*
%TD*%
%TO.C,D11*%
X155500000Y-59400000D03*
X158800000Y-59400000D03*
%TD*%
%TO.C,D8*%
X136450000Y-61900000D03*
X139750000Y-61900000D03*
%TD*%
D14*
%TO.C,D20*%
X230236396Y-141888046D03*
X227902944Y-144221498D03*
%TD*%
M02*
