%TF.GenerationSoftware,KiCad,Pcbnew,9.0.7*%
%TF.CreationDate,2026-02-06T22:36:50+02:00*%
%TF.ProjectId,juubo_left_finished,6a757562-6f5f-46c6-9566-745f66696e69,v1.0.0*%
%TF.SameCoordinates,Original*%
%TF.FileFunction,Copper,L1,Top*%
%TF.FilePolarity,Positive*%
%FSLAX46Y46*%
G04 Gerber Fmt 4.6, Leading zero omitted, Abs format (unit mm)*
G04 Created by KiCad (PCBNEW 9.0.7) date 2026-02-06 22:36:50*
%MOMM*%
%LPD*%
G01*
G04 APERTURE LIST*
G04 Aperture macros list*
%AMRotRect*
0 Rectangle, with rotation*
0 The origin of the aperture is its center*
0 $1 length*
0 $2 width*
0 $3 Rotation angle, in degrees counterclockwise*
0 Add horizontal line*
21,1,$1,$2,0,0,$3*%
G04 Aperture macros list end*
%ADD10C,0.300000*%
%TA.AperFunction,NonConductor*%
%ADD11C,0.300000*%
%TD*%
%TA.AperFunction,WasherPad*%
%ADD12C,1.000000*%
%TD*%
%TA.AperFunction,SMDPad,CuDef*%
%ADD13R,1.100000X1.800000*%
%TD*%
%TA.AperFunction,ComponentPad*%
%ADD14R,1.778000X1.778000*%
%TD*%
%TA.AperFunction,SMDPad,CuDef*%
%ADD15R,0.900000X1.200000*%
%TD*%
%TA.AperFunction,ComponentPad*%
%ADD16C,1.905000*%
%TD*%
%TA.AperFunction,ComponentPad*%
%ADD17C,0.700000*%
%TD*%
%TA.AperFunction,ComponentPad*%
%ADD18C,4.400000*%
%TD*%
%TA.AperFunction,ComponentPad*%
%ADD19R,1.200000X1.700000*%
%TD*%
%TA.AperFunction,ComponentPad*%
%ADD20O,1.200000X1.700000*%
%TD*%
%TA.AperFunction,ComponentPad*%
%ADD21R,1.752600X1.752600*%
%TD*%
%TA.AperFunction,ComponentPad*%
%ADD22C,1.752600*%
%TD*%
%TA.AperFunction,ComponentPad*%
%ADD23RotRect,1.778000X1.778000X345.000000*%
%TD*%
%TA.AperFunction,SMDPad,CuDef*%
%ADD24RotRect,0.900000X1.200000X345.000000*%
%TD*%
%TA.AperFunction,ComponentPad*%
%ADD25O,1.700000X1.700000*%
%TD*%
%TA.AperFunction,ComponentPad*%
%ADD26C,1.700000*%
%TD*%
%TA.AperFunction,ComponentPad*%
%ADD27RotRect,1.778000X1.778000X230.000000*%
%TD*%
%TA.AperFunction,SMDPad,CuDef*%
%ADD28RotRect,0.900000X1.200000X230.000000*%
%TD*%
%TA.AperFunction,ComponentPad*%
%ADD29RotRect,1.778000X1.778000X225.000000*%
%TD*%
%TA.AperFunction,SMDPad,CuDef*%
%ADD30RotRect,0.900000X1.200000X225.000000*%
%TD*%
%TA.AperFunction,ViaPad*%
%ADD31C,0.600000*%
%TD*%
%TA.AperFunction,Conductor*%
%ADD32C,0.200000*%
%TD*%
G04 APERTURE END LIST*
D10*
D11*
X142053082Y-107990828D02*
X142053082Y-109062257D01*
X142053082Y-109062257D02*
X141981653Y-109276542D01*
X141981653Y-109276542D02*
X141838796Y-109419400D01*
X141838796Y-109419400D02*
X141624510Y-109490828D01*
X141624510Y-109490828D02*
X141481653Y-109490828D01*
X143410225Y-108490828D02*
X143410225Y-109490828D01*
X142767367Y-108490828D02*
X142767367Y-109276542D01*
X142767367Y-109276542D02*
X142838796Y-109419400D01*
X142838796Y-109419400D02*
X142981653Y-109490828D01*
X142981653Y-109490828D02*
X143195939Y-109490828D01*
X143195939Y-109490828D02*
X143338796Y-109419400D01*
X143338796Y-109419400D02*
X143410225Y-109347971D01*
X144767368Y-108490828D02*
X144767368Y-109490828D01*
X144124510Y-108490828D02*
X144124510Y-109276542D01*
X144124510Y-109276542D02*
X144195939Y-109419400D01*
X144195939Y-109419400D02*
X144338796Y-109490828D01*
X144338796Y-109490828D02*
X144553082Y-109490828D01*
X144553082Y-109490828D02*
X144695939Y-109419400D01*
X144695939Y-109419400D02*
X144767368Y-109347971D01*
X145481653Y-109490828D02*
X145481653Y-107990828D01*
X145481653Y-108562257D02*
X145624511Y-108490828D01*
X145624511Y-108490828D02*
X145910225Y-108490828D01*
X145910225Y-108490828D02*
X146053082Y-108562257D01*
X146053082Y-108562257D02*
X146124511Y-108633685D01*
X146124511Y-108633685D02*
X146195939Y-108776542D01*
X146195939Y-108776542D02*
X146195939Y-109205114D01*
X146195939Y-109205114D02*
X146124511Y-109347971D01*
X146124511Y-109347971D02*
X146053082Y-109419400D01*
X146053082Y-109419400D02*
X145910225Y-109490828D01*
X145910225Y-109490828D02*
X145624511Y-109490828D01*
X145624511Y-109490828D02*
X145481653Y-109419400D01*
X147053082Y-109490828D02*
X146910225Y-109419400D01*
X146910225Y-109419400D02*
X146838796Y-109347971D01*
X146838796Y-109347971D02*
X146767368Y-109205114D01*
X146767368Y-109205114D02*
X146767368Y-108776542D01*
X146767368Y-108776542D02*
X146838796Y-108633685D01*
X146838796Y-108633685D02*
X146910225Y-108562257D01*
X146910225Y-108562257D02*
X147053082Y-108490828D01*
X147053082Y-108490828D02*
X147267368Y-108490828D01*
X147267368Y-108490828D02*
X147410225Y-108562257D01*
X147410225Y-108562257D02*
X147481654Y-108633685D01*
X147481654Y-108633685D02*
X147553082Y-108776542D01*
X147553082Y-108776542D02*
X147553082Y-109205114D01*
X147553082Y-109205114D02*
X147481654Y-109347971D01*
X147481654Y-109347971D02*
X147410225Y-109419400D01*
X147410225Y-109419400D02*
X147267368Y-109490828D01*
X147267368Y-109490828D02*
X147053082Y-109490828D01*
X147838797Y-109633685D02*
X148981654Y-109633685D01*
X149195939Y-108490828D02*
X149553082Y-109490828D01*
X149553082Y-109490828D02*
X149910225Y-108490828D01*
X150410225Y-108133685D02*
X150481653Y-108062257D01*
X150481653Y-108062257D02*
X150624511Y-107990828D01*
X150624511Y-107990828D02*
X150981653Y-107990828D01*
X150981653Y-107990828D02*
X151124511Y-108062257D01*
X151124511Y-108062257D02*
X151195939Y-108133685D01*
X151195939Y-108133685D02*
X151267368Y-108276542D01*
X151267368Y-108276542D02*
X151267368Y-108419400D01*
X151267368Y-108419400D02*
X151195939Y-108633685D01*
X151195939Y-108633685D02*
X150338796Y-109490828D01*
X150338796Y-109490828D02*
X151267368Y-109490828D01*
X153267367Y-109490828D02*
X153124510Y-109419400D01*
X153124510Y-109419400D02*
X153053081Y-109276542D01*
X153053081Y-109276542D02*
X153053081Y-107990828D01*
X154410224Y-109419400D02*
X154267367Y-109490828D01*
X154267367Y-109490828D02*
X153981653Y-109490828D01*
X153981653Y-109490828D02*
X153838795Y-109419400D01*
X153838795Y-109419400D02*
X153767367Y-109276542D01*
X153767367Y-109276542D02*
X153767367Y-108705114D01*
X153767367Y-108705114D02*
X153838795Y-108562257D01*
X153838795Y-108562257D02*
X153981653Y-108490828D01*
X153981653Y-108490828D02*
X154267367Y-108490828D01*
X154267367Y-108490828D02*
X154410224Y-108562257D01*
X154410224Y-108562257D02*
X154481653Y-108705114D01*
X154481653Y-108705114D02*
X154481653Y-108847971D01*
X154481653Y-108847971D02*
X153767367Y-108990828D01*
X154910224Y-108490828D02*
X155481652Y-108490828D01*
X155124509Y-109490828D02*
X155124509Y-108205114D01*
X155124509Y-108205114D02*
X155195938Y-108062257D01*
X155195938Y-108062257D02*
X155338795Y-107990828D01*
X155338795Y-107990828D02*
X155481652Y-107990828D01*
X155767367Y-108490828D02*
X156338795Y-108490828D01*
X155981652Y-107990828D02*
X155981652Y-109276542D01*
X155981652Y-109276542D02*
X156053081Y-109419400D01*
X156053081Y-109419400D02*
X156195938Y-109490828D01*
X156195938Y-109490828D02*
X156338795Y-109490828D01*
D12*
%TO.P,T1,*%
%TO.N,*%
X216800000Y-50410500D03*
X219800000Y-50410500D03*
%TD*%
D13*
%TO.P,B1,1*%
%TO.N,GND*%
X229127500Y-59110000D03*
X229127500Y-52910000D03*
%TO.P,B1,2*%
%TO.N,RST*%
X232827500Y-59110000D03*
X232827500Y-52910000D03*
%TD*%
D14*
%TO.P,D1,1*%
%TO.N,P9*%
X96190000Y-105000000D03*
D15*
X98350000Y-105000000D03*
%TO.P,D1,2*%
%TO.N,outer_bottom*%
X101650000Y-105000000D03*
D16*
X103810000Y-105000000D03*
%TD*%
D17*
%TO.P,_8,1*%
%TO.N,N/C*%
X184075000Y-85475000D03*
X184558274Y-84308274D03*
X184558274Y-86641726D03*
X185725000Y-83825000D03*
D18*
X185725000Y-85475000D03*
D17*
X185725000Y-87125000D03*
X186891726Y-84308274D03*
X186891726Y-86641726D03*
X187375000Y-85475000D03*
%TD*%
%TO.P,_9,1*%
%TO.N,N/C*%
X221222500Y-101310000D03*
X221705774Y-100143274D03*
X221705774Y-102476726D03*
X222872500Y-99660000D03*
D18*
X222872500Y-101310000D03*
D17*
X222872500Y-102960000D03*
X224039226Y-100143274D03*
X224039226Y-102476726D03*
X224522500Y-101310000D03*
%TD*%
%TO.P,_3,1*%
%TO.N,N/C*%
X126925000Y-67615000D03*
X127408274Y-66448274D03*
X127408274Y-68781726D03*
X128575000Y-65965000D03*
D18*
X128575000Y-67615000D03*
D17*
X128575000Y-69265000D03*
X129741726Y-66448274D03*
X129741726Y-68781726D03*
X130225000Y-67615000D03*
%TD*%
D14*
%TO.P,D9,1*%
%TO.N,P9*%
X153340000Y-97500000D03*
D15*
X155500000Y-97500000D03*
%TO.P,D9,2*%
%TO.N,middle_bottom*%
X158800000Y-97500000D03*
D16*
X160960000Y-97500000D03*
%TD*%
D19*
%TO.P,JST1,1*%
%TO.N,B+*%
X232300000Y-84822500D03*
D20*
%TO.P,JST1,2*%
%TO.N,GND*%
X230300000Y-84822500D03*
%TD*%
D21*
%TO.P,MCU1,1*%
%TO.N,RAW*%
X210680000Y-52955000D03*
D22*
%TO.P,MCU1,2*%
%TO.N,GND*%
X210680000Y-55495000D03*
%TO.P,MCU1,3*%
%TO.N,RST*%
X210680000Y-58035000D03*
%TO.P,MCU1,4*%
%TO.N,VCC*%
X210680000Y-60575000D03*
%TO.P,MCU1,5*%
%TO.N,P21*%
X210680000Y-63115000D03*
%TO.P,MCU1,6*%
%TO.N,P20*%
X210680000Y-65655000D03*
%TO.P,MCU1,7*%
%TO.N,P19*%
X210680000Y-68195000D03*
%TO.P,MCU1,8*%
%TO.N,P18*%
X210680000Y-70735000D03*
%TO.P,MCU1,9*%
%TO.N,P15*%
X210680000Y-73275000D03*
%TO.P,MCU1,10*%
%TO.N,P14*%
X210680000Y-75815000D03*
%TO.P,MCU1,11*%
%TO.N,P16*%
X210680000Y-78355000D03*
%TO.P,MCU1,12*%
%TO.N,P10*%
X210680000Y-80895000D03*
%TO.P,MCU1,13*%
%TO.N,P1*%
X225920000Y-52955000D03*
%TO.P,MCU1,14*%
%TO.N,P0*%
X225920000Y-55495000D03*
%TO.P,MCU1,15*%
%TO.N,GND*%
X225920000Y-58035000D03*
%TO.P,MCU1,16*%
X225920000Y-60575000D03*
%TO.P,MCU1,17*%
%TO.N,P2*%
X225920000Y-63115000D03*
%TO.P,MCU1,18*%
%TO.N,P3*%
X225920000Y-65655000D03*
%TO.P,MCU1,19*%
%TO.N,P4*%
X225920000Y-68195000D03*
%TO.P,MCU1,20*%
%TO.N,P5*%
X225920000Y-70735000D03*
%TO.P,MCU1,21*%
%TO.N,P6*%
X225920000Y-73275000D03*
%TO.P,MCU1,22*%
%TO.N,P7*%
X225920000Y-75815000D03*
%TO.P,MCU1,23*%
%TO.N,P8*%
X225920000Y-78355000D03*
%TO.P,MCU1,24*%
%TO.N,P9*%
X225920000Y-80895000D03*
%TD*%
D23*
%TO.P,D18,1*%
%TO.N,P8*%
X184275728Y-126393527D03*
D24*
X186362127Y-126952579D03*
%TO.P,D18,2*%
%TO.N,layer_cluster*%
X189549683Y-127806679D03*
D16*
X191636082Y-128365731D03*
%TD*%
D14*
%TO.P,D16,1*%
%TO.N,P10*%
X191440000Y-83450000D03*
D15*
X193600000Y-83450000D03*
%TO.P,D16,2*%
%TO.N,inner_home*%
X196900000Y-83450000D03*
D16*
X199060000Y-83450000D03*
%TD*%
D14*
%TO.P,D13,1*%
%TO.N,P10*%
X172390000Y-80950000D03*
D15*
X174550000Y-80950000D03*
%TO.P,D13,2*%
%TO.N,index_home*%
X177850000Y-80950000D03*
D16*
X180010000Y-80950000D03*
%TD*%
D14*
%TO.P,D6,1*%
%TO.N,P9*%
X134290000Y-100000000D03*
D15*
X136450000Y-100000000D03*
%TO.P,D6,2*%
%TO.N,ring_bottom*%
X139750000Y-100000000D03*
D16*
X141910000Y-100000000D03*
%TD*%
D14*
%TO.P,D15,1*%
%TO.N,P9*%
X191440000Y-102500000D03*
D15*
X193600000Y-102500000D03*
%TO.P,D15,2*%
%TO.N,inner_bottom*%
X196900000Y-102500000D03*
D16*
X199060000Y-102500000D03*
%TD*%
D14*
%TO.P,D7,1*%
%TO.N,P10*%
X134290000Y-80950000D03*
D15*
X136450000Y-80950000D03*
%TO.P,D7,2*%
%TO.N,ring_home*%
X139750000Y-80950000D03*
D16*
X141910000Y-80950000D03*
%TD*%
D14*
%TO.P,D17,1*%
%TO.N,P16*%
X191440000Y-64400000D03*
D15*
X193600000Y-64400000D03*
%TO.P,D17,2*%
%TO.N,inner_top*%
X196900000Y-64400000D03*
D16*
X199060000Y-64400000D03*
%TD*%
D14*
%TO.P,D12,1*%
%TO.N,P9*%
X172390000Y-100000000D03*
D15*
X174550000Y-100000000D03*
%TO.P,D12,2*%
%TO.N,index_bottom*%
X177850000Y-100000000D03*
D16*
X180010000Y-100000000D03*
%TD*%
D25*
%TO.P,DISP1,1*%
%TO.N,P2*%
X213220000Y-88625000D03*
%TO.P,DISP1,2*%
%TO.N,P3*%
X215760000Y-88625000D03*
%TO.P,DISP1,3*%
%TO.N,VCC*%
X218300000Y-88625000D03*
%TO.P,DISP1,4*%
%TO.N,GND*%
X220840000Y-88625000D03*
D26*
%TO.P,DISP1,5*%
%TO.N,P1*%
X223380000Y-88625000D03*
%TD*%
D17*
%TO.P,_5,1*%
%TO.N,N/C*%
X126925000Y-86665000D03*
X127408274Y-85498274D03*
X127408274Y-87831726D03*
X128575000Y-85015000D03*
D18*
X128575000Y-86665000D03*
D17*
X128575000Y-88315000D03*
X129741726Y-85498274D03*
X129741726Y-87831726D03*
X130225000Y-86665000D03*
%TD*%
D14*
%TO.P,D10,1*%
%TO.N,P10*%
X153340000Y-78450000D03*
D15*
X155500000Y-78450000D03*
%TO.P,D10,2*%
%TO.N,middle_home*%
X158800000Y-78450000D03*
D16*
X160960000Y-78450000D03*
%TD*%
D14*
%TO.P,D2,1*%
%TO.N,P10*%
X96190000Y-85950000D03*
D15*
X98350000Y-85950000D03*
%TO.P,D2,2*%
%TO.N,outer_home*%
X101650000Y-85950000D03*
D16*
X103810000Y-85950000D03*
%TD*%
D17*
%TO.P,_6,1*%
%TO.N,N/C*%
X202015994Y-120054036D03*
X202784772Y-119052144D03*
X202180830Y-121306086D03*
X204036822Y-118887308D03*
D18*
X203609772Y-120481086D03*
D17*
X203182722Y-122074864D03*
X205038714Y-119656086D03*
X204434772Y-121910028D03*
X205203550Y-120908136D03*
%TD*%
D14*
%TO.P,D4,1*%
%TO.N,P10*%
X115240000Y-85950000D03*
D15*
X117400000Y-85950000D03*
%TO.P,D4,2*%
%TO.N,pinky_home*%
X120700000Y-85950000D03*
D16*
X122860000Y-85950000D03*
%TD*%
D14*
%TO.P,D3,1*%
%TO.N,P9*%
X115240000Y-105000000D03*
D15*
X117400000Y-105000000D03*
%TO.P,D3,2*%
%TO.N,pinky_bottom*%
X120700000Y-105000000D03*
D16*
X122860000Y-105000000D03*
%TD*%
D17*
%TO.P,_1,1*%
%TO.N,N/C*%
X96445000Y-91427500D03*
X96928274Y-90260774D03*
X96928274Y-92594226D03*
X98095000Y-89777500D03*
D18*
X98095000Y-91427500D03*
D17*
X98095000Y-93077500D03*
X99261726Y-90260774D03*
X99261726Y-92594226D03*
X99745000Y-91427500D03*
%TD*%
%TO.P,_2,1*%
%TO.N,N/C*%
X98350000Y-67615000D03*
X98833274Y-66448274D03*
X98833274Y-68781726D03*
X100000000Y-65965000D03*
D18*
X100000000Y-67615000D03*
D17*
X100000000Y-69265000D03*
X101166726Y-66448274D03*
X101166726Y-68781726D03*
X101650000Y-67615000D03*
%TD*%
%TO.P,_7,1*%
%TO.N,N/C*%
X227036738Y-138688388D03*
X227520012Y-139855114D03*
X225870012Y-138205114D03*
X227036738Y-141021840D03*
D18*
X225870012Y-139855114D03*
D17*
X224703286Y-138688388D03*
X225870012Y-141505114D03*
X224220012Y-139855114D03*
X224703286Y-141021840D03*
%TD*%
D27*
%TO.P,D19,1*%
%TO.N,P8*%
X213479454Y-125350340D03*
D28*
X212091033Y-127004996D03*
%TO.P,D19,2*%
%TO.N,space_cluster*%
X209969833Y-129532942D03*
D16*
X208581412Y-131187598D03*
%TD*%
D14*
%TO.P,D14,1*%
%TO.N,P16*%
X172390000Y-61900000D03*
D15*
X174550000Y-61900000D03*
%TO.P,D14,2*%
%TO.N,index_top*%
X177850000Y-61900000D03*
D16*
X180010000Y-61900000D03*
%TD*%
D14*
%TO.P,D5,1*%
%TO.N,P16*%
X115240000Y-66900000D03*
D15*
X117400000Y-66900000D03*
%TO.P,D5,2*%
%TO.N,pinky_top*%
X120700000Y-66900000D03*
D16*
X122860000Y-66900000D03*
%TD*%
D14*
%TO.P,D11,1*%
%TO.N,P16*%
X153340000Y-59400000D03*
D15*
X155500000Y-59400000D03*
%TO.P,D11,2*%
%TO.N,middle_top*%
X158800000Y-59400000D03*
D16*
X160960000Y-59400000D03*
%TD*%
D17*
%TO.P,_4,1*%
%TO.N,N/C*%
X184075000Y-62615000D03*
X184558274Y-61448274D03*
X184558274Y-63781726D03*
X185725000Y-60965000D03*
D18*
X185725000Y-62615000D03*
D17*
X185725000Y-64265000D03*
X186891726Y-61448274D03*
X186891726Y-63781726D03*
X187375000Y-62615000D03*
%TD*%
D14*
%TO.P,D8,1*%
%TO.N,P16*%
X134290000Y-61900000D03*
D15*
X136450000Y-61900000D03*
%TO.P,D8,2*%
%TO.N,ring_top*%
X139750000Y-61900000D03*
D16*
X141910000Y-61900000D03*
%TD*%
D29*
%TO.P,D20,1*%
%TO.N,P8*%
X231763747Y-140360695D03*
D30*
X230236396Y-141888046D03*
%TO.P,D20,2*%
%TO.N,extra_cluster*%
X227902944Y-144221498D03*
D16*
X226375593Y-145748849D03*
%TD*%
D31*
%TO.N,P2*%
X216760000Y-68160000D03*
X219850000Y-65070000D03*
%TO.N,P3*%
X216750000Y-72760000D03*
X220520000Y-69120000D03*
%TD*%
D32*
%TO.N,P2*%
X216760000Y-68160000D02*
X219580000Y-65340000D01*
X219580000Y-65340000D02*
X219850000Y-65070000D01*
%TO.N,P3*%
X220450000Y-69190000D02*
X220520000Y-69120000D01*
X220320000Y-69190000D02*
X220450000Y-69190000D01*
X216750000Y-72760000D02*
X220320000Y-69190000D01*
%TO.N,GND*%
X230300000Y-63930000D02*
X229540000Y-63170000D01*
X230300000Y-84822500D02*
X230300000Y-63930000D01*
X227895000Y-62550000D02*
X225920000Y-60575000D01*
X229540000Y-63170000D02*
X229540000Y-62550000D01*
X225920000Y-58035000D02*
X228052500Y-58035000D01*
X229540000Y-62550000D02*
X227895000Y-62550000D01*
X225920000Y-58035000D02*
X225920000Y-60575000D01*
X229127500Y-54827500D02*
X225920000Y-58035000D01*
X229127500Y-52910000D02*
X229127500Y-54827500D01*
X228052500Y-58035000D02*
X229127500Y-59110000D01*
%TO.N,P1*%
X223380000Y-55495000D02*
X225920000Y-52955000D01*
X223380000Y-88625000D02*
X223380000Y-55495000D01*
%TO.N,outer_bottom*%
X101650000Y-105000000D02*
X103810000Y-105000000D01*
%TO.N,outer_home*%
X101650000Y-85950000D02*
X103810000Y-85950000D01*
%TO.N,pinky_bottom*%
X120700000Y-105000000D02*
X122860000Y-105000000D01*
%TO.N,pinky_home*%
X120700000Y-85950000D02*
X122860000Y-85950000D01*
%TO.N,pinky_top*%
X120700000Y-66900000D02*
X122860000Y-66900000D01*
%TO.N,ring_bottom*%
X139750000Y-100000000D02*
X141910000Y-100000000D01*
%TO.N,ring_home*%
X139750000Y-80950000D02*
X141910000Y-80950000D01*
%TO.N,ring_top*%
X139750000Y-61900000D02*
X141910000Y-61900000D01*
%TO.N,middle_bottom*%
X158800000Y-97500000D02*
X160960000Y-97500000D01*
%TO.N,middle_home*%
X158800000Y-78450000D02*
X160960000Y-78450000D01*
%TO.N,middle_top*%
X158800000Y-59400000D02*
X160960000Y-59400000D01*
%TO.N,index_bottom*%
X177850000Y-100000000D02*
X180010000Y-100000000D01*
%TO.N,index_home*%
X177850000Y-80950000D02*
X180010000Y-80950000D01*
%TO.N,index_top*%
X177850000Y-61900000D02*
X180010000Y-61900000D01*
%TO.N,inner_bottom*%
X196900000Y-102500000D02*
X199060000Y-102500000D01*
%TO.N,inner_home*%
X199060000Y-83450000D02*
X196900000Y-83450000D01*
%TO.N,inner_top*%
X196900000Y-64400000D02*
X199060000Y-64400000D01*
%TO.N,layer_cluster*%
X189549683Y-127806679D02*
X190108735Y-128365731D01*
X190108735Y-128365731D02*
X191636082Y-128365731D01*
%TO.N,space_cluster*%
X208581412Y-131187598D02*
X209969833Y-129799177D01*
X209969833Y-129799177D02*
X209969833Y-129532942D01*
%TO.N,extra_cluster*%
X226375593Y-145748849D02*
X227902944Y-144221498D01*
%TO.N,P9*%
X115240000Y-105250000D02*
X117700000Y-107710000D01*
X191440000Y-102500000D02*
X193600000Y-102500000D01*
X96190000Y-106430000D02*
X98100000Y-108340000D01*
X148500000Y-102340000D02*
X153340000Y-97500000D01*
X115240000Y-106520000D02*
X115240000Y-105000000D01*
X96190000Y-105000000D02*
X98350000Y-105000000D01*
X192693500Y-103753500D02*
X214316500Y-103753500D01*
X134290000Y-100520000D02*
X136110000Y-102340000D01*
X153340000Y-97500000D02*
X155840000Y-100000000D01*
X96190000Y-105000000D02*
X96190000Y-106430000D01*
X129080000Y-107710000D02*
X134290000Y-102500000D01*
X115240000Y-105000000D02*
X117400000Y-105000000D01*
X134290000Y-100000000D02*
X134290000Y-100520000D01*
X174890000Y-102500000D02*
X191440000Y-102500000D01*
X172390000Y-100000000D02*
X174890000Y-102500000D01*
X134290000Y-102500000D02*
X134290000Y-100000000D01*
X98100000Y-108340000D02*
X113420000Y-108340000D01*
X113420000Y-108340000D02*
X115240000Y-106520000D01*
X153340000Y-97500000D02*
X155500000Y-97500000D01*
X136110000Y-102340000D02*
X148500000Y-102340000D01*
X214316500Y-103753500D02*
X225920000Y-92150000D01*
X191440000Y-102500000D02*
X192693500Y-103753500D01*
X115240000Y-105000000D02*
X115240000Y-105250000D01*
X117700000Y-107710000D02*
X129080000Y-107710000D01*
X134290000Y-100000000D02*
X136450000Y-100000000D01*
X172390000Y-100000000D02*
X174550000Y-100000000D01*
X155840000Y-100000000D02*
X172390000Y-100000000D01*
X225920000Y-92150000D02*
X225920000Y-80895000D01*
%TO.N,P10*%
X115240000Y-87330000D02*
X115240000Y-85950000D01*
X99190000Y-87860000D02*
X100390000Y-89060000D01*
X126300000Y-83770000D02*
X129120000Y-80950000D01*
X96190000Y-87360000D02*
X96690000Y-87860000D01*
X115240000Y-85950000D02*
X117400000Y-85950000D01*
X172390000Y-80950000D02*
X174000000Y-82560000D01*
X155840000Y-80950000D02*
X172390000Y-80950000D01*
X134290000Y-80950000D02*
X134290000Y-82140000D01*
X113420000Y-89150000D02*
X115240000Y-87330000D01*
X206871500Y-84703500D02*
X210680000Y-80895000D01*
X96190000Y-85950000D02*
X96190000Y-87360000D01*
X153340000Y-78450000D02*
X155500000Y-78450000D01*
X100390000Y-89060000D02*
X113330000Y-89060000D01*
X151650000Y-78450000D02*
X153340000Y-78450000D01*
X129120000Y-80950000D02*
X134290000Y-80950000D01*
X172390000Y-80950000D02*
X174550000Y-80950000D01*
X146910000Y-83190000D02*
X151650000Y-78450000D01*
X191440000Y-83450000D02*
X193600000Y-83450000D01*
X96190000Y-85950000D02*
X98350000Y-85950000D01*
X115240000Y-85950000D02*
X115240000Y-84760000D01*
X96690000Y-87860000D02*
X99190000Y-87860000D01*
X113330000Y-89060000D02*
X113420000Y-89150000D01*
X153340000Y-78450000D02*
X155840000Y-80950000D01*
X115240000Y-84760000D02*
X116230000Y-83770000D01*
X134290000Y-80950000D02*
X136450000Y-80950000D01*
X135340000Y-83190000D02*
X146910000Y-83190000D01*
X116230000Y-83770000D02*
X126300000Y-83770000D01*
X190550000Y-82560000D02*
X191440000Y-83450000D01*
X174000000Y-82560000D02*
X190550000Y-82560000D01*
X192693500Y-84703500D02*
X206871500Y-84703500D01*
X191440000Y-83450000D02*
X192693500Y-84703500D01*
X134290000Y-82140000D02*
X135340000Y-83190000D01*
%TO.N,P16*%
X206310000Y-73920000D02*
X206310000Y-73985000D01*
X153340000Y-59400000D02*
X153340000Y-61330000D01*
X172390000Y-61900000D02*
X176390000Y-65900000D01*
X172390000Y-61900000D02*
X174550000Y-61900000D01*
X153340000Y-61330000D02*
X155040000Y-63030000D01*
X191440000Y-64400000D02*
X191440000Y-65830000D01*
X169250000Y-63030000D02*
X170450000Y-61830000D01*
X148750000Y-63990000D02*
X153340000Y-59400000D01*
X176390000Y-65900000D02*
X189940000Y-65900000D01*
X134290000Y-61900000D02*
X136450000Y-61900000D01*
X191440000Y-65830000D02*
X195670000Y-70060000D01*
X170520000Y-61900000D02*
X172390000Y-61900000D01*
X191440000Y-64400000D02*
X193600000Y-64400000D01*
X127010000Y-61900000D02*
X134290000Y-61900000D01*
X155040000Y-63030000D02*
X169250000Y-63030000D01*
X115240000Y-66900000D02*
X117590000Y-64550000D01*
X115240000Y-66900000D02*
X117400000Y-66900000D01*
X195670000Y-70060000D02*
X202400000Y-70060000D01*
X206260000Y-73920000D02*
X206310000Y-73920000D01*
X202400000Y-70060000D02*
X206260000Y-73920000D01*
X206310000Y-73985000D02*
X210680000Y-78355000D01*
X136380000Y-63990000D02*
X148750000Y-63990000D01*
X134290000Y-61900000D02*
X136380000Y-63990000D01*
X170450000Y-61830000D02*
X170520000Y-61900000D01*
X117590000Y-64550000D02*
X124360000Y-64550000D01*
X124360000Y-64550000D02*
X127010000Y-61900000D01*
X189940000Y-65900000D02*
X191440000Y-64400000D01*
X153340000Y-59400000D02*
X155500000Y-59400000D01*
%TO.N,P8*%
X185720000Y-130100000D02*
X199320000Y-130100000D01*
X231763747Y-133123747D02*
X231763747Y-140360695D01*
X223949660Y-125350340D02*
X223970000Y-125330000D01*
X228530000Y-110299794D02*
X228530000Y-80965000D01*
X213479454Y-125616575D02*
X213479454Y-125350340D01*
X212091033Y-127004996D02*
X213479454Y-125616575D01*
X213479454Y-125350340D02*
X228530000Y-110299794D01*
X228530000Y-80965000D02*
X225920000Y-78355000D01*
X223970000Y-125330000D02*
X231763747Y-133123747D01*
X213479454Y-125350340D02*
X223949660Y-125350340D01*
X204069660Y-125350340D02*
X213479454Y-125350340D01*
X230236396Y-141888046D02*
X231763747Y-140360695D01*
X184275728Y-126393527D02*
X185803075Y-126393527D01*
X184275728Y-128484272D02*
X184190000Y-128570000D01*
X184190000Y-128570000D02*
X185720000Y-130100000D01*
X199320000Y-130100000D02*
X204069660Y-125350340D01*
X184275728Y-126393527D02*
X184275728Y-128484272D01*
X185803075Y-126393527D02*
X186362127Y-126952579D01*
%TO.N,RST*%
X210680000Y-58035000D02*
X218295000Y-58035000D01*
X232827500Y-52910000D02*
X232827500Y-59110000D01*
X232827500Y-52497500D02*
X232827500Y-52910000D01*
X230920000Y-50590000D02*
X232827500Y-52497500D01*
X225740000Y-50590000D02*
X230920000Y-50590000D01*
X218295000Y-58035000D02*
X225740000Y-50590000D01*
%TD*%
M02*
