M48
; DRILL file {KiCad 9.0.7} date 2026-02-06T22:36:54+0200
; FORMAT={-:-/ absolute / inch / decimal}
; #@! TF.CreationDate,2026-02-06T22:36:54+02:00
; #@! TF.GenerationSoftware,Kicad,Pcbnew,9.0.7
; #@! TF.FileFunction,Plated,1,2,PTH
FMAT,2
INCH
; #@! TA.AperFunction,Plated,PTH,ViaDrill
T1C0.0118
; #@! TA.AperFunction,Plated,PTH,ComponentDrill
T2C0.0157
; #@! TA.AperFunction,Plated,PTH,ComponentDrill
T3C0.0295
; #@! TA.AperFunction,Plated,PTH,ComponentDrill
T4C0.0390
; #@! TA.AperFunction,Plated,PTH,ComponentDrill
T5C0.0394
; #@! TA.AperFunction,Plated,PTH,ComponentDrill
T6C0.0430
; #@! TA.AperFunction,Plated,PTH,ComponentDrill
T7C0.0866
%
G90
G05
T1
X8.5335Y-2.8646
X8.5339Y-2.6835
X8.6555Y-2.5618
X8.6819Y-2.7213
T2
X3.797Y-3.5995
X3.8161Y-3.5536
X3.8161Y-3.6454
X3.862Y-3.5345
X3.862Y-3.6645
X3.872Y-2.662
X3.8911Y-2.6161
X3.8911Y-2.7079
X3.9079Y-3.5536
X3.9079Y-3.6454
X3.927Y-3.5995
X3.937Y-2.597
X3.937Y-2.727
X3.9829Y-2.6161
X3.9829Y-2.7079
X4.002Y-2.662
X4.997Y-2.662
X4.997Y-3.412
X5.0161Y-2.6161
X5.0161Y-2.7079
X5.0161Y-3.3661
X5.0161Y-3.4579
X5.062Y-2.597
X5.062Y-2.727
X5.062Y-3.347
X5.062Y-3.477
X5.1079Y-2.6161
X5.1079Y-2.7079
X5.1079Y-3.3661
X5.1079Y-3.4579
X5.127Y-2.662
X5.127Y-3.412
X7.247Y-2.4652
X7.247Y-3.3652
X7.2661Y-2.4192
X7.2661Y-2.5111
X7.2661Y-3.3192
X7.2661Y-3.4111
X7.312Y-2.4002
X7.312Y-2.5301
X7.312Y-3.3002
X7.312Y-3.4301
X7.3579Y-2.4192
X7.3579Y-2.5111
X7.3579Y-3.3192
X7.3579Y-3.4111
X7.377Y-2.4652
X7.377Y-3.3652
X7.9534Y-4.7265
X7.9599Y-4.7758
X7.9837Y-4.6871
X7.9993Y-4.8061
X8.0329Y-4.6806
X8.0486Y-4.7996
X8.0724Y-4.7109
X8.0789Y-4.7602
X8.7095Y-3.9886
X8.7286Y-3.9426
X8.7286Y-4.0345
X8.7745Y-3.9236
X8.7745Y-4.0535
X8.8204Y-3.9426
X8.8204Y-4.0345
X8.8276Y-5.5061
X8.8395Y-3.9886
X8.8466Y-5.4602
X8.8466Y-5.552
X8.8925Y-5.4411
X8.8925Y-5.5711
X8.9385Y-5.4602
X8.9385Y-5.552
X8.9575Y-5.5061
T3
X9.0669Y-3.3395
X9.1457Y-3.3395
T4
X3.787Y-3.3839
X3.787Y-4.1339
X4.087Y-3.3839
X4.087Y-4.1339
X4.537Y-2.6339
X4.537Y-3.3839
X4.537Y-4.1339
X4.837Y-2.6339
X4.837Y-3.3839
X4.837Y-4.1339
X5.287Y-2.437
X5.287Y-3.187
X5.287Y-3.937
X5.587Y-2.437
X5.587Y-3.187
X5.587Y-3.937
X6.037Y-2.3386
X6.037Y-3.0886
X6.037Y-3.8386
X6.337Y-2.3386
X6.337Y-3.0886
X6.337Y-3.8386
X6.787Y-2.437
X6.787Y-3.187
X6.787Y-3.937
X7.087Y-2.437
X7.087Y-3.187
X7.087Y-3.937
X7.2549Y-4.9761
X7.537Y-2.5354
X7.537Y-3.2854
X7.537Y-4.0354
X7.5447Y-5.0538
X7.837Y-2.5354
X7.837Y-3.2854
X7.837Y-4.0354
X8.2119Y-5.1649
X8.4047Y-4.9351
X8.9124Y-5.7381
X9.1246Y-5.526
T5
X8.3945Y-3.4892
X8.4945Y-3.4892
X8.5945Y-3.4892
X8.6945Y-3.4892
X8.7945Y-3.4892
T6
X8.2945Y-2.0848
X8.2945Y-2.1848
X8.2945Y-2.2848
X8.2945Y-2.3848
X8.2945Y-2.4848
X8.2945Y-2.5848
X8.2945Y-2.6848
X8.2945Y-2.7848
X8.2945Y-2.8848
X8.2945Y-2.9848
X8.2945Y-3.0848
X8.2945Y-3.1848
X8.8945Y-2.0848
X8.8945Y-2.1848
X8.8945Y-2.2848
X8.8945Y-2.3848
X8.8945Y-2.4848
X8.8945Y-2.5848
X8.8945Y-2.6848
X8.8945Y-2.7848
X8.8945Y-2.8848
X8.8945Y-2.9848
X8.8945Y-3.0848
X8.8945Y-3.1848
T7
X3.862Y-3.5995
X3.937Y-2.662
X5.062Y-2.662
X5.062Y-3.412
X7.312Y-2.4652
X7.312Y-3.3652
X8.0161Y-4.7433
X8.7745Y-3.9886
X8.8925Y-5.5061
M30
