%TF.GenerationSoftware,KiCad,Pcbnew,9.0.7*%
%TF.CreationDate,2026-02-06T22:36:50+02:00*%
%TF.ProjectId,juubo_left_finished,6a757562-6f5f-46c6-9566-745f66696e69,v1.0.0*%
%TF.SameCoordinates,Original*%
%TF.FileFunction,Copper,L2,Bot*%
%TF.FilePolarity,Positive*%
%FSLAX46Y46*%
G04 Gerber Fmt 4.6, Leading zero omitted, Abs format (unit mm)*
G04 Created by KiCad (PCBNEW 9.0.7) date 2026-02-06 22:36:50*
%MOMM*%
%LPD*%
G01*
G04 APERTURE LIST*
G04 Aperture macros list*
%AMRotRect*
0 Rectangle, with rotation*
0 The origin of the aperture is its center*
0 $1 length*
0 $2 width*
0 $3 Rotation angle, in degrees counterclockwise*
0 Add horizontal line*
21,1,$1,$2,0,0,$3*%
G04 Aperture macros list end*
%TA.AperFunction,SMDPad,CuDef*%
%ADD10R,0.900000X0.900000*%
%TD*%
%TA.AperFunction,WasherPad*%
%ADD11C,1.000000*%
%TD*%
%TA.AperFunction,SMDPad,CuDef*%
%ADD12R,0.900000X1.250000*%
%TD*%
%TA.AperFunction,ComponentPad*%
%ADD13R,1.778000X1.778000*%
%TD*%
%TA.AperFunction,SMDPad,CuDef*%
%ADD14R,0.900000X1.200000*%
%TD*%
%TA.AperFunction,ComponentPad*%
%ADD15C,1.905000*%
%TD*%
%TA.AperFunction,ComponentPad*%
%ADD16C,0.700000*%
%TD*%
%TA.AperFunction,ComponentPad*%
%ADD17C,4.400000*%
%TD*%
%TA.AperFunction,SMDPad,CuDef*%
%ADD18R,2.550000X2.500000*%
%TD*%
%TA.AperFunction,ComponentPad*%
%ADD19R,1.200000X1.700000*%
%TD*%
%TA.AperFunction,ComponentPad*%
%ADD20O,1.200000X1.700000*%
%TD*%
%TA.AperFunction,SMDPad,CuDef*%
%ADD21RotRect,2.550000X2.500000X345.000000*%
%TD*%
%TA.AperFunction,ComponentPad*%
%ADD22R,1.752600X1.752600*%
%TD*%
%TA.AperFunction,ComponentPad*%
%ADD23C,1.752600*%
%TD*%
%TA.AperFunction,SMDPad,CuDef*%
%ADD24RotRect,2.550000X2.500000X225.000000*%
%TD*%
%TA.AperFunction,ComponentPad*%
%ADD25RotRect,1.778000X1.778000X345.000000*%
%TD*%
%TA.AperFunction,SMDPad,CuDef*%
%ADD26RotRect,0.900000X1.200000X345.000000*%
%TD*%
%TA.AperFunction,ComponentPad*%
%ADD27O,1.700000X1.700000*%
%TD*%
%TA.AperFunction,ComponentPad*%
%ADD28C,1.700000*%
%TD*%
%TA.AperFunction,ComponentPad*%
%ADD29RotRect,1.778000X1.778000X230.000000*%
%TD*%
%TA.AperFunction,SMDPad,CuDef*%
%ADD30RotRect,0.900000X1.200000X230.000000*%
%TD*%
%TA.AperFunction,SMDPad,CuDef*%
%ADD31RotRect,2.550000X2.500000X230.000000*%
%TD*%
%TA.AperFunction,ComponentPad*%
%ADD32RotRect,1.778000X1.778000X225.000000*%
%TD*%
%TA.AperFunction,SMDPad,CuDef*%
%ADD33RotRect,0.900000X1.200000X225.000000*%
%TD*%
%TA.AperFunction,ViaPad*%
%ADD34C,0.600000*%
%TD*%
%TA.AperFunction,Conductor*%
%ADD35C,0.200000*%
%TD*%
G04 APERTURE END LIST*
D10*
%TO.P,T1,*%
%TO.N,*%
X214600000Y-49310500D03*
X214600000Y-51510500D03*
D11*
X216800000Y-50410500D03*
X219800000Y-50410500D03*
D10*
X222000000Y-49310500D03*
X222000000Y-51510500D03*
D12*
%TO.P,T1,1*%
%TO.N,RAW*%
X216050000Y-52485500D03*
%TO.P,T1,2*%
%TO.N,B+*%
X219050000Y-52485500D03*
%TO.P,T1,3*%
%TO.N,N/C*%
X220550000Y-52485500D03*
%TD*%
D13*
%TO.P,D1,1*%
%TO.N,P9*%
X96190000Y-105000000D03*
D14*
X98350000Y-105000000D03*
%TO.P,D1,2*%
%TO.N,outer_bottom*%
X101650000Y-105000000D03*
D15*
X103810000Y-105000000D03*
%TD*%
D16*
%TO.P,_8,1*%
%TO.N,N/C*%
X184075000Y-85475000D03*
X184558274Y-84308274D03*
X184558274Y-86641726D03*
X185725000Y-83825000D03*
D17*
X185725000Y-85475000D03*
D16*
X185725000Y-87125000D03*
X186891726Y-84308274D03*
X186891726Y-86641726D03*
X187375000Y-85475000D03*
%TD*%
%TO.P,_9,1*%
%TO.N,N/C*%
X221222500Y-101310000D03*
X221705774Y-100143274D03*
X221705774Y-102476726D03*
X222872500Y-99660000D03*
D17*
X222872500Y-101310000D03*
D16*
X222872500Y-102960000D03*
X224039226Y-100143274D03*
X224039226Y-102476726D03*
X224522500Y-101310000D03*
%TD*%
%TO.P,_3,1*%
%TO.N,N/C*%
X126925000Y-67615000D03*
X127408274Y-66448274D03*
X127408274Y-68781726D03*
X128575000Y-65965000D03*
D17*
X128575000Y-67615000D03*
D16*
X128575000Y-69265000D03*
X129741726Y-66448274D03*
X129741726Y-68781726D03*
X130225000Y-67615000D03*
%TD*%
D18*
%TO.P,S5,1*%
%TO.N,P20*%
X111965000Y-59360000D03*
%TO.P,S5,2*%
%TO.N,pinky_top*%
X124892000Y-56820000D03*
%TD*%
%TO.P,S6,1*%
%TO.N,P19*%
X131015000Y-92460000D03*
%TO.P,S6,2*%
%TO.N,ring_bottom*%
X143942000Y-89920000D03*
%TD*%
%TO.P,S8,1*%
%TO.N,P19*%
X131015000Y-54360000D03*
%TO.P,S8,2*%
%TO.N,ring_top*%
X143942000Y-51820000D03*
%TD*%
D13*
%TO.P,D9,1*%
%TO.N,P9*%
X153340000Y-97500000D03*
D14*
X155500000Y-97500000D03*
%TO.P,D9,2*%
%TO.N,middle_bottom*%
X158800000Y-97500000D03*
D15*
X160960000Y-97500000D03*
%TD*%
D19*
%TO.P,JST1,1*%
%TO.N,B+*%
X232300000Y-84822500D03*
D20*
%TO.P,JST1,2*%
%TO.N,GND*%
X230300000Y-84822500D03*
%TD*%
D21*
%TO.P,S18,1*%
%TO.N,P18*%
X183063816Y-118262815D03*
%TO.P,S18,2*%
%TO.N,layer_cluster*%
X196207739Y-119155118D03*
%TD*%
D22*
%TO.P,MCU1,1*%
%TO.N,RAW*%
X210680000Y-52955000D03*
D23*
%TO.P,MCU1,2*%
%TO.N,GND*%
X210680000Y-55495000D03*
%TO.P,MCU1,3*%
%TO.N,RST*%
X210680000Y-58035000D03*
%TO.P,MCU1,4*%
%TO.N,VCC*%
X210680000Y-60575000D03*
%TO.P,MCU1,5*%
%TO.N,P21*%
X210680000Y-63115000D03*
%TO.P,MCU1,6*%
%TO.N,P20*%
X210680000Y-65655000D03*
%TO.P,MCU1,7*%
%TO.N,P19*%
X210680000Y-68195000D03*
%TO.P,MCU1,8*%
%TO.N,P18*%
X210680000Y-70735000D03*
%TO.P,MCU1,9*%
%TO.N,P15*%
X210680000Y-73275000D03*
%TO.P,MCU1,10*%
%TO.N,P14*%
X210680000Y-75815000D03*
%TO.P,MCU1,11*%
%TO.N,P16*%
X210680000Y-78355000D03*
%TO.P,MCU1,12*%
%TO.N,P10*%
X210680000Y-80895000D03*
%TO.P,MCU1,13*%
%TO.N,P1*%
X225920000Y-52955000D03*
%TO.P,MCU1,14*%
%TO.N,P0*%
X225920000Y-55495000D03*
%TO.P,MCU1,15*%
%TO.N,GND*%
X225920000Y-58035000D03*
%TO.P,MCU1,16*%
X225920000Y-60575000D03*
%TO.P,MCU1,17*%
%TO.N,P2*%
X225920000Y-63115000D03*
%TO.P,MCU1,18*%
%TO.N,P3*%
X225920000Y-65655000D03*
%TO.P,MCU1,19*%
%TO.N,P4*%
X225920000Y-68195000D03*
%TO.P,MCU1,20*%
%TO.N,P5*%
X225920000Y-70735000D03*
%TO.P,MCU1,21*%
%TO.N,P6*%
X225920000Y-73275000D03*
%TO.P,MCU1,22*%
%TO.N,P7*%
X225920000Y-75815000D03*
%TO.P,MCU1,23*%
%TO.N,P8*%
X225920000Y-78355000D03*
%TO.P,MCU1,24*%
%TO.N,P9*%
X225920000Y-80895000D03*
%TD*%
D24*
%TO.P,S20,1*%
%TO.N,P14*%
X239411107Y-143376506D03*
%TO.P,S20,2*%
%TO.N,extra_cluster*%
X232066389Y-154313326D03*
%TD*%
D25*
%TO.P,D18,1*%
%TO.N,P8*%
X184275728Y-126393527D03*
D26*
X186362127Y-126952579D03*
%TO.P,D18,2*%
%TO.N,layer_cluster*%
X189549683Y-127806679D03*
D15*
X191636082Y-128365731D03*
%TD*%
D18*
%TO.P,S11,1*%
%TO.N,P18*%
X150065000Y-51860000D03*
%TO.P,S11,2*%
%TO.N,middle_top*%
X162992000Y-49320000D03*
%TD*%
D13*
%TO.P,D16,1*%
%TO.N,P10*%
X191440000Y-83450000D03*
D14*
X193600000Y-83450000D03*
%TO.P,D16,2*%
%TO.N,inner_home*%
X196900000Y-83450000D03*
D15*
X199060000Y-83450000D03*
%TD*%
D13*
%TO.P,D13,1*%
%TO.N,P10*%
X172390000Y-80950000D03*
D14*
X174550000Y-80950000D03*
%TO.P,D13,2*%
%TO.N,index_home*%
X177850000Y-80950000D03*
D15*
X180010000Y-80950000D03*
%TD*%
D13*
%TO.P,D6,1*%
%TO.N,P9*%
X134290000Y-100000000D03*
D14*
X136450000Y-100000000D03*
%TO.P,D6,2*%
%TO.N,ring_bottom*%
X139750000Y-100000000D03*
D15*
X141910000Y-100000000D03*
%TD*%
D13*
%TO.P,D15,1*%
%TO.N,P9*%
X191440000Y-102500000D03*
D14*
X193600000Y-102500000D03*
%TO.P,D15,2*%
%TO.N,inner_bottom*%
X196900000Y-102500000D03*
D15*
X199060000Y-102500000D03*
%TD*%
D18*
%TO.P,S9,1*%
%TO.N,P18*%
X150065000Y-89960000D03*
%TO.P,S9,2*%
%TO.N,middle_bottom*%
X162992000Y-87420000D03*
%TD*%
D13*
%TO.P,D7,1*%
%TO.N,P10*%
X134290000Y-80950000D03*
D14*
X136450000Y-80950000D03*
%TO.P,D7,2*%
%TO.N,ring_home*%
X139750000Y-80950000D03*
D15*
X141910000Y-80950000D03*
%TD*%
D13*
%TO.P,D17,1*%
%TO.N,P16*%
X191440000Y-64400000D03*
D14*
X193600000Y-64400000D03*
%TO.P,D17,2*%
%TO.N,inner_top*%
X196900000Y-64400000D03*
D15*
X199060000Y-64400000D03*
%TD*%
D18*
%TO.P,S15,1*%
%TO.N,P14*%
X188165000Y-94960000D03*
%TO.P,S15,2*%
%TO.N,inner_bottom*%
X201092000Y-92420000D03*
%TD*%
D13*
%TO.P,D12,1*%
%TO.N,P9*%
X172390000Y-100000000D03*
D14*
X174550000Y-100000000D03*
%TO.P,D12,2*%
%TO.N,index_bottom*%
X177850000Y-100000000D03*
D15*
X180010000Y-100000000D03*
%TD*%
D27*
%TO.P,DISP1,1*%
%TO.N,P2*%
X213220000Y-88625000D03*
%TO.P,DISP1,2*%
%TO.N,P3*%
X215760000Y-88625000D03*
%TO.P,DISP1,3*%
%TO.N,VCC*%
X218300000Y-88625000D03*
%TO.P,DISP1,4*%
%TO.N,GND*%
X220840000Y-88625000D03*
D28*
%TO.P,DISP1,5*%
%TO.N,P1*%
X223380000Y-88625000D03*
%TD*%
D16*
%TO.P,_5,1*%
%TO.N,N/C*%
X126925000Y-86665000D03*
X127408274Y-85498274D03*
X127408274Y-87831726D03*
X128575000Y-85015000D03*
D17*
X128575000Y-86665000D03*
D16*
X128575000Y-88315000D03*
X129741726Y-85498274D03*
X129741726Y-87831726D03*
X130225000Y-86665000D03*
%TD*%
D18*
%TO.P,S16,1*%
%TO.N,P14*%
X188165000Y-75910000D03*
%TO.P,S16,2*%
%TO.N,inner_home*%
X201092000Y-73370000D03*
%TD*%
%TO.P,S7,1*%
%TO.N,P19*%
X131015000Y-73410000D03*
%TO.P,S7,2*%
%TO.N,ring_home*%
X143942000Y-70870000D03*
%TD*%
D13*
%TO.P,D10,1*%
%TO.N,P10*%
X153340000Y-78450000D03*
D14*
X155500000Y-78450000D03*
%TO.P,D10,2*%
%TO.N,middle_home*%
X158800000Y-78450000D03*
D15*
X160960000Y-78450000D03*
%TD*%
D13*
%TO.P,D2,1*%
%TO.N,P10*%
X96190000Y-85950000D03*
D14*
X98350000Y-85950000D03*
%TO.P,D2,2*%
%TO.N,outer_home*%
X101650000Y-85950000D03*
D15*
X103810000Y-85950000D03*
%TD*%
D16*
%TO.P,_6,1*%
%TO.N,N/C*%
X202015994Y-120054036D03*
X202784772Y-119052144D03*
X202180830Y-121306086D03*
X204036822Y-118887308D03*
D17*
X203609772Y-120481086D03*
D16*
X203182722Y-122074864D03*
X205038714Y-119656086D03*
X204434772Y-121910028D03*
X205203550Y-120908136D03*
%TD*%
D13*
%TO.P,D4,1*%
%TO.N,P10*%
X115240000Y-85950000D03*
D14*
X117400000Y-85950000D03*
%TO.P,D4,2*%
%TO.N,pinky_home*%
X120700000Y-85950000D03*
D15*
X122860000Y-85950000D03*
%TD*%
D13*
%TO.P,D3,1*%
%TO.N,P9*%
X115240000Y-105000000D03*
D14*
X117400000Y-105000000D03*
%TO.P,D3,2*%
%TO.N,pinky_bottom*%
X120700000Y-105000000D03*
D15*
X122860000Y-105000000D03*
%TD*%
D18*
%TO.P,S17,1*%
%TO.N,P14*%
X188165000Y-56860000D03*
%TO.P,S17,2*%
%TO.N,inner_top*%
X201092000Y-54320000D03*
%TD*%
%TO.P,S1,1*%
%TO.N,P21*%
X92915000Y-97460000D03*
%TO.P,S1,2*%
%TO.N,outer_bottom*%
X105842000Y-94920000D03*
%TD*%
%TO.P,S10,1*%
%TO.N,P18*%
X150065000Y-70910000D03*
%TO.P,S10,2*%
%TO.N,middle_home*%
X162992000Y-68370000D03*
%TD*%
D16*
%TO.P,_1,1*%
%TO.N,N/C*%
X96445000Y-91427500D03*
X96928274Y-90260774D03*
X96928274Y-92594226D03*
X98095000Y-89777500D03*
D17*
X98095000Y-91427500D03*
D16*
X98095000Y-93077500D03*
X99261726Y-90260774D03*
X99261726Y-92594226D03*
X99745000Y-91427500D03*
%TD*%
%TO.P,_2,1*%
%TO.N,N/C*%
X98350000Y-67615000D03*
X98833274Y-66448274D03*
X98833274Y-68781726D03*
X100000000Y-65965000D03*
D17*
X100000000Y-67615000D03*
D16*
X100000000Y-69265000D03*
X101166726Y-66448274D03*
X101166726Y-68781726D03*
X101650000Y-67615000D03*
%TD*%
D18*
%TO.P,S2,1*%
%TO.N,P21*%
X92915000Y-78410000D03*
%TO.P,S2,2*%
%TO.N,outer_home*%
X105842000Y-75870000D03*
%TD*%
%TO.P,S13,1*%
%TO.N,P15*%
X169115000Y-73410000D03*
%TO.P,S13,2*%
%TO.N,index_home*%
X182042000Y-70870000D03*
%TD*%
D16*
%TO.P,_7,1*%
%TO.N,N/C*%
X227036738Y-138688388D03*
X227520012Y-139855114D03*
X225870012Y-138205114D03*
X227036738Y-141021840D03*
D17*
X225870012Y-139855114D03*
D16*
X224703286Y-138688388D03*
X225870012Y-141505114D03*
X224220012Y-139855114D03*
X224703286Y-141021840D03*
%TD*%
D18*
%TO.P,S12,1*%
%TO.N,P15*%
X169115000Y-92460000D03*
%TO.P,S12,2*%
%TO.N,index_bottom*%
X182042000Y-89920000D03*
%TD*%
D29*
%TO.P,D19,1*%
%TO.N,P8*%
X213479454Y-125350340D03*
D30*
X212091033Y-127004996D03*
%TO.P,D19,2*%
%TO.N,space_cluster*%
X209969833Y-129532942D03*
D15*
X208581412Y-131187598D03*
%TD*%
D13*
%TO.P,D14,1*%
%TO.N,P16*%
X172390000Y-61900000D03*
D14*
X174550000Y-61900000D03*
%TO.P,D14,2*%
%TO.N,index_top*%
X177850000Y-61900000D03*
D15*
X180010000Y-61900000D03*
%TD*%
D13*
%TO.P,D5,1*%
%TO.N,P16*%
X115240000Y-66900000D03*
D14*
X117400000Y-66900000D03*
%TO.P,D5,2*%
%TO.N,pinky_top*%
X120700000Y-66900000D03*
D15*
X122860000Y-66900000D03*
%TD*%
D13*
%TO.P,D11,1*%
%TO.N,P16*%
X153340000Y-59400000D03*
D14*
X155500000Y-59400000D03*
%TO.P,D11,2*%
%TO.N,middle_top*%
X158800000Y-59400000D03*
D15*
X160960000Y-59400000D03*
%TD*%
D31*
%TO.P,S19,1*%
%TO.N,P15*%
X221360559Y-127688163D03*
%TO.P,S19,2*%
%TO.N,space_cluster*%
X214996997Y-139223500D03*
%TD*%
D16*
%TO.P,_4,1*%
%TO.N,N/C*%
X184075000Y-62615000D03*
X184558274Y-61448274D03*
X184558274Y-63781726D03*
X185725000Y-60965000D03*
D17*
X185725000Y-62615000D03*
D16*
X185725000Y-64265000D03*
X186891726Y-61448274D03*
X186891726Y-63781726D03*
X187375000Y-62615000D03*
%TD*%
D13*
%TO.P,D8,1*%
%TO.N,P16*%
X134290000Y-61900000D03*
D14*
X136450000Y-61900000D03*
%TO.P,D8,2*%
%TO.N,ring_top*%
X139750000Y-61900000D03*
D15*
X141910000Y-61900000D03*
%TD*%
D32*
%TO.P,D20,1*%
%TO.N,P8*%
X231763747Y-140360695D03*
D33*
X230236396Y-141888046D03*
%TO.P,D20,2*%
%TO.N,extra_cluster*%
X227902944Y-144221498D03*
D15*
X226375593Y-145748849D03*
%TD*%
D18*
%TO.P,S3,1*%
%TO.N,P20*%
X111965000Y-97460000D03*
%TO.P,S3,2*%
%TO.N,pinky_bottom*%
X124892000Y-94920000D03*
%TD*%
%TO.P,S4,1*%
%TO.N,P20*%
X111965000Y-78410000D03*
%TO.P,S4,2*%
%TO.N,pinky_home*%
X124892000Y-75870000D03*
%TD*%
%TO.P,S14,1*%
%TO.N,P15*%
X169115000Y-54360000D03*
%TO.P,S14,2*%
%TO.N,index_top*%
X182042000Y-51820000D03*
%TD*%
D34*
%TO.N,P2*%
X216760000Y-68160000D03*
X219850000Y-65070000D03*
%TO.N,P3*%
X216750000Y-72760000D03*
X220520000Y-69120000D03*
%TD*%
D35*
%TO.N,P2*%
X219850000Y-65070000D02*
X221805000Y-63115000D01*
X213220000Y-88625000D02*
X213220000Y-73160000D01*
X221805000Y-63115000D02*
X225920000Y-63115000D01*
X216760000Y-69620000D02*
X216760000Y-68160000D01*
X213220000Y-73160000D02*
X213730000Y-72650000D01*
X213730000Y-72650000D02*
X216760000Y-69620000D01*
%TO.N,P3*%
X215770000Y-74040000D02*
X215770000Y-73740000D01*
X220520000Y-69120000D02*
X223985000Y-65655000D01*
X215770000Y-73740000D02*
X216750000Y-72760000D01*
X223985000Y-65655000D02*
X225920000Y-65655000D01*
X215760000Y-88625000D02*
X215760000Y-74050000D01*
X215760000Y-74050000D02*
X215770000Y-74040000D01*
%TO.N,VCC*%
X217450000Y-87775000D02*
X217450000Y-67345000D01*
X217450000Y-67345000D02*
X210680000Y-60575000D01*
X218300000Y-88625000D02*
X217450000Y-87775000D01*
%TO.N,GND*%
X218180000Y-85965000D02*
X218180000Y-62995000D01*
X218180000Y-62995000D02*
X210680000Y-55495000D01*
X220840000Y-88625000D02*
X224642500Y-84822500D01*
X224642500Y-84822500D02*
X230300000Y-84822500D01*
X220840000Y-88625000D02*
X218180000Y-85965000D01*
%TO.N,P21*%
X92915000Y-97460000D02*
X92915000Y-78410000D01*
X187070000Y-46590000D02*
X189110000Y-48630000D01*
X189110000Y-48630000D02*
X203320000Y-48630000D01*
X175380000Y-45280000D02*
X176690000Y-46590000D01*
X112830000Y-49710000D02*
X133470000Y-49710000D01*
X92915000Y-69625000D02*
X112830000Y-49710000D01*
X207850000Y-53160000D02*
X207850000Y-60285000D01*
X176690000Y-46590000D02*
X187070000Y-46590000D01*
X203320000Y-48630000D02*
X207850000Y-53160000D01*
X92915000Y-78410000D02*
X92915000Y-69625000D01*
X207850000Y-60285000D02*
X210680000Y-63115000D01*
X137900000Y-45280000D02*
X175380000Y-45280000D01*
X133470000Y-49710000D02*
X137900000Y-45280000D01*
%TO.N,outer_bottom*%
X107860000Y-96938000D02*
X107860000Y-100950000D01*
X107860000Y-100950000D02*
X103810000Y-105000000D01*
X105842000Y-94920000D02*
X107860000Y-96938000D01*
X101650000Y-105000000D02*
X103810000Y-105000000D01*
%TO.N,outer_home*%
X108080000Y-81680000D02*
X103810000Y-85950000D01*
X101650000Y-85950000D02*
X103810000Y-85950000D01*
X108080000Y-78108000D02*
X108080000Y-81680000D01*
X105842000Y-75870000D02*
X108080000Y-78108000D01*
%TO.N,P20*%
X207360000Y-53550000D02*
X207360000Y-62335000D01*
X174900000Y-45890000D02*
X176090000Y-47080000D01*
X111965000Y-97460000D02*
X111965000Y-78410000D01*
X188520000Y-49080000D02*
X202890000Y-49080000D01*
X120975000Y-50350000D02*
X133610000Y-50350000D01*
X111965000Y-78410000D02*
X111965000Y-59360000D01*
X111965000Y-59360000D02*
X120975000Y-50350000D01*
X186520000Y-47080000D02*
X188520000Y-49080000D01*
X133610000Y-50350000D02*
X138070000Y-45890000D01*
X176090000Y-47080000D02*
X186520000Y-47080000D01*
X138070000Y-45890000D02*
X174900000Y-45890000D01*
X207360000Y-62335000D02*
X210680000Y-65655000D01*
X202890000Y-49080000D02*
X207360000Y-53550000D01*
%TO.N,pinky_bottom*%
X124892000Y-94920000D02*
X127070000Y-97098000D01*
X127070000Y-100790000D02*
X122860000Y-105000000D01*
X120700000Y-105000000D02*
X122860000Y-105000000D01*
X127070000Y-97098000D02*
X127070000Y-100790000D01*
%TO.N,pinky_home*%
X126940000Y-77890000D02*
X126940000Y-81870000D01*
X124892000Y-75870000D02*
X124920000Y-75870000D01*
X124920000Y-75870000D02*
X126940000Y-77890000D01*
X120700000Y-85950000D02*
X122860000Y-85950000D01*
X126940000Y-81870000D02*
X122860000Y-85950000D01*
%TO.N,pinky_top*%
X126980000Y-62780000D02*
X122860000Y-66900000D01*
X126972000Y-58900000D02*
X126980000Y-58900000D01*
X124892000Y-56820000D02*
X126972000Y-58900000D01*
X120700000Y-66900000D02*
X122860000Y-66900000D01*
X126980000Y-58900000D02*
X126980000Y-62780000D01*
%TO.N,P19*%
X138845000Y-46530000D02*
X174390000Y-46530000D01*
X206760000Y-53870000D02*
X206760000Y-64275000D01*
X131015000Y-92460000D02*
X131015000Y-89765000D01*
X131015000Y-73410000D02*
X131015000Y-70225000D01*
X186100000Y-47610000D02*
X188170000Y-49680000D01*
X206760000Y-64275000D02*
X210680000Y-68195000D01*
X175470000Y-47610000D02*
X186100000Y-47610000D01*
X131820000Y-69420000D02*
X131820000Y-65640000D01*
X131015000Y-82405000D02*
X131015000Y-73410000D01*
X202570000Y-49680000D02*
X206760000Y-53870000D01*
X188170000Y-49680000D02*
X202570000Y-49680000D01*
X132150000Y-83550000D02*
X131010000Y-82410000D01*
X132150000Y-88630000D02*
X132150000Y-83550000D01*
X131010000Y-82410000D02*
X131015000Y-82405000D01*
X174390000Y-46530000D02*
X175470000Y-47610000D01*
X131015000Y-54360000D02*
X138845000Y-46530000D01*
X131820000Y-65640000D02*
X131015000Y-64835000D01*
X131015000Y-89765000D02*
X132150000Y-88630000D01*
X131015000Y-70225000D02*
X131820000Y-69420000D01*
X131015000Y-64835000D02*
X131015000Y-54360000D01*
%TO.N,ring_bottom*%
X143942000Y-89920000D02*
X143960000Y-89920000D01*
X139750000Y-100000000D02*
X141910000Y-100000000D01*
X145960000Y-95950000D02*
X141910000Y-100000000D01*
X143960000Y-89920000D02*
X145960000Y-91920000D01*
X145960000Y-91920000D02*
X145960000Y-95950000D01*
%TO.N,ring_home*%
X139750000Y-80950000D02*
X141910000Y-80950000D01*
X143942000Y-70870000D02*
X143942000Y-70872000D01*
X146120000Y-76740000D02*
X141910000Y-80950000D01*
X146120000Y-73050000D02*
X146120000Y-76740000D01*
X143942000Y-70872000D02*
X146120000Y-73050000D01*
%TO.N,ring_top*%
X146030000Y-57780000D02*
X141910000Y-61900000D01*
X143942000Y-51852000D02*
X146030000Y-53940000D01*
X139750000Y-61900000D02*
X141910000Y-61900000D01*
X146030000Y-53940000D02*
X146030000Y-57780000D01*
X143942000Y-51820000D02*
X143942000Y-51852000D01*
%TO.N,P18*%
X188140000Y-50380000D02*
X202470000Y-50380000D01*
X156980000Y-108790000D02*
X150065000Y-101875000D01*
X175140000Y-48070000D02*
X185830000Y-48070000D01*
X150065000Y-51860000D02*
X150065000Y-70910000D01*
X206200000Y-66255000D02*
X210680000Y-70735000D01*
X173591001Y-108790000D02*
X156980000Y-108790000D01*
X150065000Y-70910000D02*
X150065000Y-89960000D01*
X185830000Y-48070000D02*
X188140000Y-50380000D01*
X150065000Y-51860000D02*
X154835000Y-47090000D01*
X154835000Y-47090000D02*
X174160000Y-47090000D01*
X183063816Y-118262815D02*
X173591001Y-108790000D01*
X202470000Y-50380000D02*
X206200000Y-54110000D01*
X150065000Y-101875000D02*
X150065000Y-89960000D01*
X206200000Y-54110000D02*
X206200000Y-66255000D01*
X174160000Y-47090000D02*
X175140000Y-48070000D01*
%TO.N,middle_bottom*%
X162992000Y-87462000D02*
X164990000Y-89460000D01*
X162992000Y-87420000D02*
X162992000Y-87462000D01*
X164990000Y-89460000D02*
X164990000Y-93470000D01*
X158800000Y-97500000D02*
X160960000Y-97500000D01*
X164990000Y-93470000D02*
X160960000Y-97500000D01*
%TO.N,middle_home*%
X162992000Y-68370000D02*
X162992000Y-68412000D01*
X164980000Y-74430000D02*
X160960000Y-78450000D01*
X164980000Y-70400000D02*
X164980000Y-74430000D01*
X162992000Y-68412000D02*
X164980000Y-70400000D01*
X158800000Y-78450000D02*
X160960000Y-78450000D01*
%TO.N,middle_top*%
X164900000Y-57290000D02*
X162790000Y-59400000D01*
X162992000Y-49342000D02*
X164900000Y-51250000D01*
X158800000Y-59400000D02*
X160960000Y-59400000D01*
X164900000Y-51250000D02*
X164900000Y-57290000D01*
X162790000Y-59400000D02*
X160960000Y-59400000D01*
X162992000Y-49320000D02*
X162992000Y-49342000D01*
%TO.N,P15*%
X169115000Y-103575000D02*
X169115000Y-92460000D01*
X206902396Y-113230000D02*
X179050000Y-113230000D01*
X169180000Y-103640000D02*
X169115000Y-103575000D01*
X169115000Y-54360000D02*
X174855000Y-48620000D01*
X169460000Y-103640000D02*
X169180000Y-103640000D01*
X205710000Y-68305000D02*
X210680000Y-73275000D01*
X179050000Y-113230000D02*
X169460000Y-103640000D01*
X221360559Y-127688163D02*
X206902396Y-113230000D01*
X188010000Y-50920000D02*
X202240000Y-50920000D01*
X185710000Y-48620000D02*
X188010000Y-50920000D01*
X174855000Y-48620000D02*
X185710000Y-48620000D01*
X169115000Y-92460000D02*
X169115000Y-73410000D01*
X205710000Y-54390000D02*
X205710000Y-68305000D01*
X202240000Y-50920000D02*
X205710000Y-54390000D01*
X169115000Y-73410000D02*
X169115000Y-54360000D01*
%TO.N,index_bottom*%
X177850000Y-100000000D02*
X180010000Y-100000000D01*
X182042000Y-89920000D02*
X182042000Y-89942000D01*
X183970000Y-91870000D02*
X183970000Y-96040000D01*
X183970000Y-96040000D02*
X180010000Y-100000000D01*
X182042000Y-89942000D02*
X183970000Y-91870000D01*
%TO.N,index_home*%
X184050000Y-72950000D02*
X184050000Y-76910000D01*
X184050000Y-76910000D02*
X180010000Y-80950000D01*
X182042000Y-70870000D02*
X182042000Y-70942000D01*
X177850000Y-80950000D02*
X180010000Y-80950000D01*
X182042000Y-70942000D02*
X184050000Y-72950000D01*
%TO.N,index_top*%
X177850000Y-61900000D02*
X180010000Y-61900000D01*
X182070000Y-51820000D02*
X184010000Y-53760000D01*
X182042000Y-51820000D02*
X182070000Y-51820000D01*
X184010000Y-53760000D02*
X184010000Y-57900000D01*
X184010000Y-57900000D02*
X180010000Y-61900000D01*
%TO.N,P14*%
X188165000Y-75910000D02*
X188165000Y-64705000D01*
X205110000Y-54590000D02*
X205110000Y-70245000D01*
X188800000Y-87570000D02*
X188800000Y-83110000D01*
X239411107Y-143376506D02*
X239500000Y-143287613D01*
X188165000Y-59915000D02*
X188165000Y-56860000D01*
X188165000Y-104205000D02*
X188165000Y-94960000D01*
X188180000Y-82010000D02*
X188165000Y-81995000D01*
X188165000Y-88205000D02*
X188800000Y-87570000D01*
X188165000Y-54735000D02*
X191080000Y-51820000D01*
X188180000Y-82370000D02*
X188180000Y-82010000D01*
X188860000Y-83050000D02*
X188180000Y-82370000D01*
X188165000Y-56860000D02*
X188165000Y-54735000D01*
X188800000Y-83110000D02*
X188860000Y-83050000D01*
X202340000Y-51820000D02*
X205110000Y-54590000D01*
X188630000Y-64240000D02*
X188630000Y-60380000D01*
X191080000Y-51820000D02*
X202340000Y-51820000D01*
X194780000Y-110820000D02*
X188165000Y-104205000D01*
X239500000Y-143287613D02*
X239500000Y-137300000D01*
X239500000Y-137300000D02*
X213020000Y-110820000D01*
X188165000Y-64705000D02*
X188630000Y-64240000D01*
X188165000Y-81995000D02*
X188165000Y-75910000D01*
X213020000Y-110820000D02*
X194780000Y-110820000D01*
X205110000Y-70245000D02*
X210680000Y-75815000D01*
X188165000Y-94960000D02*
X188165000Y-88205000D01*
X188630000Y-60380000D02*
X188165000Y-59915000D01*
%TO.N,inner_bottom*%
X201092000Y-92420000D02*
X201150000Y-92420000D01*
X196900000Y-102500000D02*
X199060000Y-102500000D01*
X203230000Y-94500000D02*
X203230000Y-98330000D01*
X203230000Y-98330000D02*
X199060000Y-102500000D01*
X201150000Y-92420000D02*
X203230000Y-94500000D01*
%TO.N,inner_home*%
X203070000Y-75370000D02*
X203070000Y-81430000D01*
X201050000Y-83450000D02*
X199060000Y-83450000D01*
X203070000Y-81430000D02*
X201050000Y-83450000D01*
X201092000Y-73370000D02*
X201092000Y-73392000D01*
X201092000Y-73392000D02*
X203070000Y-75370000D01*
X196900000Y-83450000D02*
X199060000Y-83450000D01*
%TO.N,inner_top*%
X196900000Y-64400000D02*
X199060000Y-64400000D01*
X201092000Y-54320000D02*
X203192000Y-56420000D01*
X203320000Y-60140000D02*
X199060000Y-64400000D01*
X203192000Y-56420000D02*
X203320000Y-56420000D01*
X203320000Y-56420000D02*
X203320000Y-60140000D01*
%TO.N,layer_cluster*%
X193544269Y-128365731D02*
X191636082Y-128365731D01*
X197960000Y-120907379D02*
X197960000Y-123950000D01*
X189549683Y-127806679D02*
X190108735Y-128365731D01*
X190108735Y-128365731D02*
X191636082Y-128365731D01*
X197960000Y-123950000D02*
X193544269Y-128365731D01*
X196207739Y-119155118D02*
X197960000Y-120907379D01*
%TO.N,space_cluster*%
X208581412Y-131187598D02*
X209969833Y-129799177D01*
X208581412Y-136301412D02*
X208581412Y-131187598D01*
X214996997Y-139223500D02*
X211503500Y-139223500D01*
X211503500Y-139223500D02*
X208581412Y-136301412D01*
X209969833Y-129799177D02*
X209969833Y-129532942D01*
%TO.N,extra_cluster*%
X228353326Y-154313326D02*
X226375593Y-152335593D01*
X226375593Y-145748849D02*
X227902944Y-144221498D01*
X226375593Y-152335593D02*
X226375593Y-145748849D01*
X232066389Y-154313326D02*
X228353326Y-154313326D01*
%TO.N,P9*%
X96190000Y-105000000D02*
X98350000Y-105000000D01*
X134290000Y-100000000D02*
X136450000Y-100000000D01*
X153340000Y-97500000D02*
X155500000Y-97500000D01*
X115240000Y-105000000D02*
X117400000Y-105000000D01*
X191440000Y-102500000D02*
X193600000Y-102500000D01*
X172390000Y-100000000D02*
X174550000Y-100000000D01*
%TO.N,P10*%
X191440000Y-83450000D02*
X193600000Y-83450000D01*
X172390000Y-80950000D02*
X174550000Y-80950000D01*
X115240000Y-85950000D02*
X117400000Y-85950000D01*
X96190000Y-85950000D02*
X98350000Y-85950000D01*
X134290000Y-80950000D02*
X136450000Y-80950000D01*
X153340000Y-78450000D02*
X155500000Y-78450000D01*
%TO.N,P16*%
X153340000Y-59400000D02*
X155500000Y-59400000D01*
X134290000Y-61900000D02*
X136450000Y-61900000D01*
X115240000Y-66900000D02*
X117400000Y-66900000D01*
X172390000Y-61900000D02*
X174550000Y-61900000D01*
X191440000Y-64400000D02*
X193600000Y-64400000D01*
%TO.N,P8*%
X184275728Y-126393527D02*
X185803075Y-126393527D01*
X213479454Y-125616575D02*
X213479454Y-125350340D01*
X230236396Y-141888046D02*
X231763747Y-140360695D01*
X212091033Y-127004996D02*
X213479454Y-125616575D01*
X185803075Y-126393527D02*
X186362127Y-126952579D01*
%TO.N,RAW*%
X216050000Y-52485500D02*
X215824500Y-52485500D01*
X215824500Y-52485500D02*
X215355000Y-52955000D01*
X215355000Y-52955000D02*
X210680000Y-52955000D01*
%TO.N,B+*%
X231460000Y-82760000D02*
X220670000Y-82760000D01*
X232300000Y-84822500D02*
X232300000Y-83600000D01*
X219050000Y-81140000D02*
X219050000Y-52485500D01*
X220670000Y-82760000D02*
X219050000Y-81140000D01*
X232300000Y-83600000D02*
X231460000Y-82760000D01*
%TD*%
M02*
