M48
; DRILL file {KiCad 9.0.7} date 2026-02-06T22:36:54+0200
; FORMAT={-:-/ absolute / inch / decimal}
; #@! TF.CreationDate,2026-02-06T22:36:54+02:00
; #@! TF.GenerationSoftware,Kicad,Pcbnew,9.0.7
; #@! TF.FileFunction,NonPlated,1,2,NPTH
FMAT,2
INCH
; #@! TA.AperFunction,NonPlated,NPTH,ComponentDrill
T1C0.0354
; #@! TA.AperFunction,NonPlated,NPTH,ComponentDrill
T2C0.0670
; #@! TA.AperFunction,NonPlated,NPTH,ComponentDrill
T3C0.1181
; #@! TA.AperFunction,NonPlated,NPTH,ComponentDrill
T4C0.1570
%
G90
G05
T1
X8.5354Y-1.9847
X8.6535Y-1.9847
T2
X3.737Y-3.187
X3.737Y-3.937
X4.137Y-3.187
X4.137Y-3.937
X4.487Y-2.437
X4.487Y-3.187
X4.487Y-3.937
X4.887Y-2.437
X4.887Y-3.187
X4.887Y-3.937
X5.237Y-2.2402
X5.237Y-2.9902
X5.237Y-3.7402
X5.637Y-2.2402
X5.637Y-2.9902
X5.637Y-3.7402
X5.987Y-2.1417
X5.987Y-2.8917
X5.987Y-3.6417
X6.387Y-2.1417
X6.387Y-2.8917
X6.387Y-3.6417
X6.737Y-2.2402
X6.737Y-2.9902
X6.737Y-3.7402
X7.137Y-2.2402
X7.137Y-2.9902
X7.137Y-3.7402
X7.2576Y-4.773
X7.487Y-2.3386
X7.487Y-3.0886
X7.487Y-3.8386
X7.644Y-4.8766
X7.887Y-2.3386
X7.887Y-3.0886
X7.887Y-3.8386
X8.3305Y-5.3297
X8.5876Y-5.0233
X9.0163Y-5.9127
X9.2991Y-5.6299
T3
X3.787Y-3.087
X3.787Y-3.837
X4.037Y-2.987
X4.037Y-3.737
X4.537Y-2.337
X4.537Y-3.087
X4.537Y-3.837
X4.787Y-2.237
X4.787Y-2.987
X4.787Y-3.737
X5.287Y-2.1402
X5.287Y-2.8902
X5.287Y-3.6402
X5.537Y-2.0402
X5.537Y-2.7902
X5.537Y-3.5402
X6.037Y-2.0417
X6.037Y-2.7917
X6.037Y-3.5417
X6.287Y-1.9417
X6.287Y-2.6917
X6.287Y-3.4417
X6.787Y-2.1402
X6.787Y-2.8902
X6.787Y-3.6402
X7.037Y-2.0402
X7.037Y-2.7902
X7.037Y-3.5402
X7.3318Y-4.6894
X7.537Y-2.2386
X7.537Y-2.9886
X7.537Y-3.7386
X7.5991Y-4.6575
X7.787Y-2.1386
X7.787Y-2.8886
X7.787Y-3.6386
X8.548Y-5.3817
X8.6321Y-5.1259
X9.2284Y-5.9834
X9.3345Y-5.7359
T4
X3.937Y-3.187
X3.937Y-3.937
X4.687Y-2.437
X4.687Y-3.187
X4.687Y-3.937
X5.437Y-2.2402
X5.437Y-2.9902
X5.437Y-3.7402
X6.187Y-2.1417
X6.187Y-2.8917
X6.187Y-3.6417
X6.937Y-2.2402
X6.937Y-2.9902
X6.937Y-3.7402
X7.4508Y-4.8248
X7.687Y-2.3386
X7.687Y-3.0886
X7.687Y-3.8386
X8.4591Y-5.1765
X9.1577Y-5.7713
M30
