%TF.GenerationSoftware,KiCad,Pcbnew,9.0.7*%
%TF.CreationDate,2026-02-06T22:36:50+02:00*%
%TF.ProjectId,juubo_left_finished,6a757562-6f5f-46c6-9566-745f66696e69,v1.0.0*%
%TF.SameCoordinates,Original*%
%TF.FileFunction,Legend,Top*%
%TF.FilePolarity,Positive*%
%FSLAX46Y46*%
G04 Gerber Fmt 4.6, Leading zero omitted, Abs format (unit mm)*
G04 Created by KiCad (PCBNEW 9.0.7) date 2026-02-06 22:36:50*
%MOMM*%
%LPD*%
G01*
G04 APERTURE LIST*
%ADD10C,0.150000*%
%ADD11C,0.100000*%
%ADD12C,0.120000*%
%ADD13R,1.752600X1.752600*%
%ADD14C,1.752600*%
G04 APERTURE END LIST*
D10*
X222128571Y-68557295D02*
X222128571Y-67757295D01*
X222128571Y-67757295D02*
X222433333Y-67757295D01*
X222433333Y-67757295D02*
X222509523Y-67795390D01*
X222509523Y-67795390D02*
X222547618Y-67833485D01*
X222547618Y-67833485D02*
X222585714Y-67909676D01*
X222585714Y-67909676D02*
X222585714Y-68023961D01*
X222585714Y-68023961D02*
X222547618Y-68100152D01*
X222547618Y-68100152D02*
X222509523Y-68138247D01*
X222509523Y-68138247D02*
X222433333Y-68176342D01*
X222433333Y-68176342D02*
X222128571Y-68176342D01*
X223080952Y-67757295D02*
X223157142Y-67757295D01*
X223157142Y-67757295D02*
X223233333Y-67795390D01*
X223233333Y-67795390D02*
X223271428Y-67833485D01*
X223271428Y-67833485D02*
X223309523Y-67909676D01*
X223309523Y-67909676D02*
X223347618Y-68062057D01*
X223347618Y-68062057D02*
X223347618Y-68252533D01*
X223347618Y-68252533D02*
X223309523Y-68404914D01*
X223309523Y-68404914D02*
X223271428Y-68481104D01*
X223271428Y-68481104D02*
X223233333Y-68519200D01*
X223233333Y-68519200D02*
X223157142Y-68557295D01*
X223157142Y-68557295D02*
X223080952Y-68557295D01*
X223080952Y-68557295D02*
X223004761Y-68519200D01*
X223004761Y-68519200D02*
X222966666Y-68481104D01*
X222966666Y-68481104D02*
X222928571Y-68404914D01*
X222928571Y-68404914D02*
X222890475Y-68252533D01*
X222890475Y-68252533D02*
X222890475Y-68062057D01*
X222890475Y-68062057D02*
X222928571Y-67909676D01*
X222928571Y-67909676D02*
X222966666Y-67833485D01*
X222966666Y-67833485D02*
X223004761Y-67795390D01*
X223004761Y-67795390D02*
X223080952Y-67757295D01*
X224033333Y-68023961D02*
X224033333Y-68557295D01*
X223842857Y-67719200D02*
X223652380Y-68290628D01*
X223652380Y-68290628D02*
X224147619Y-68290628D01*
X222128571Y-76177295D02*
X222128571Y-75377295D01*
X222128571Y-75377295D02*
X222433333Y-75377295D01*
X222433333Y-75377295D02*
X222509523Y-75415390D01*
X222509523Y-75415390D02*
X222547618Y-75453485D01*
X222547618Y-75453485D02*
X222585714Y-75529676D01*
X222585714Y-75529676D02*
X222585714Y-75643961D01*
X222585714Y-75643961D02*
X222547618Y-75720152D01*
X222547618Y-75720152D02*
X222509523Y-75758247D01*
X222509523Y-75758247D02*
X222433333Y-75796342D01*
X222433333Y-75796342D02*
X222128571Y-75796342D01*
X223080952Y-75377295D02*
X223157142Y-75377295D01*
X223157142Y-75377295D02*
X223233333Y-75415390D01*
X223233333Y-75415390D02*
X223271428Y-75453485D01*
X223271428Y-75453485D02*
X223309523Y-75529676D01*
X223309523Y-75529676D02*
X223347618Y-75682057D01*
X223347618Y-75682057D02*
X223347618Y-75872533D01*
X223347618Y-75872533D02*
X223309523Y-76024914D01*
X223309523Y-76024914D02*
X223271428Y-76101104D01*
X223271428Y-76101104D02*
X223233333Y-76139200D01*
X223233333Y-76139200D02*
X223157142Y-76177295D01*
X223157142Y-76177295D02*
X223080952Y-76177295D01*
X223080952Y-76177295D02*
X223004761Y-76139200D01*
X223004761Y-76139200D02*
X222966666Y-76101104D01*
X222966666Y-76101104D02*
X222928571Y-76024914D01*
X222928571Y-76024914D02*
X222890475Y-75872533D01*
X222890475Y-75872533D02*
X222890475Y-75682057D01*
X222890475Y-75682057D02*
X222928571Y-75529676D01*
X222928571Y-75529676D02*
X222966666Y-75453485D01*
X222966666Y-75453485D02*
X223004761Y-75415390D01*
X223004761Y-75415390D02*
X223080952Y-75377295D01*
X223614285Y-75377295D02*
X224147619Y-75377295D01*
X224147619Y-75377295D02*
X223804761Y-76177295D01*
X222128571Y-55857295D02*
X222128571Y-55057295D01*
X222128571Y-55057295D02*
X222433333Y-55057295D01*
X222433333Y-55057295D02*
X222509523Y-55095390D01*
X222509523Y-55095390D02*
X222547618Y-55133485D01*
X222547618Y-55133485D02*
X222585714Y-55209676D01*
X222585714Y-55209676D02*
X222585714Y-55323961D01*
X222585714Y-55323961D02*
X222547618Y-55400152D01*
X222547618Y-55400152D02*
X222509523Y-55438247D01*
X222509523Y-55438247D02*
X222433333Y-55476342D01*
X222433333Y-55476342D02*
X222128571Y-55476342D01*
X223080952Y-55057295D02*
X223157142Y-55057295D01*
X223157142Y-55057295D02*
X223233333Y-55095390D01*
X223233333Y-55095390D02*
X223271428Y-55133485D01*
X223271428Y-55133485D02*
X223309523Y-55209676D01*
X223309523Y-55209676D02*
X223347618Y-55362057D01*
X223347618Y-55362057D02*
X223347618Y-55552533D01*
X223347618Y-55552533D02*
X223309523Y-55704914D01*
X223309523Y-55704914D02*
X223271428Y-55781104D01*
X223271428Y-55781104D02*
X223233333Y-55819200D01*
X223233333Y-55819200D02*
X223157142Y-55857295D01*
X223157142Y-55857295D02*
X223080952Y-55857295D01*
X223080952Y-55857295D02*
X223004761Y-55819200D01*
X223004761Y-55819200D02*
X222966666Y-55781104D01*
X222966666Y-55781104D02*
X222928571Y-55704914D01*
X222928571Y-55704914D02*
X222890475Y-55552533D01*
X222890475Y-55552533D02*
X222890475Y-55362057D01*
X222890475Y-55362057D02*
X222928571Y-55209676D01*
X222928571Y-55209676D02*
X222966666Y-55133485D01*
X222966666Y-55133485D02*
X223004761Y-55095390D01*
X223004761Y-55095390D02*
X223080952Y-55057295D01*
X223842857Y-55057295D02*
X223919047Y-55057295D01*
X223919047Y-55057295D02*
X223995238Y-55095390D01*
X223995238Y-55095390D02*
X224033333Y-55133485D01*
X224033333Y-55133485D02*
X224071428Y-55209676D01*
X224071428Y-55209676D02*
X224109523Y-55362057D01*
X224109523Y-55362057D02*
X224109523Y-55552533D01*
X224109523Y-55552533D02*
X224071428Y-55704914D01*
X224071428Y-55704914D02*
X224033333Y-55781104D01*
X224033333Y-55781104D02*
X223995238Y-55819200D01*
X223995238Y-55819200D02*
X223919047Y-55857295D01*
X223919047Y-55857295D02*
X223842857Y-55857295D01*
X223842857Y-55857295D02*
X223766666Y-55819200D01*
X223766666Y-55819200D02*
X223728571Y-55781104D01*
X223728571Y-55781104D02*
X223690476Y-55704914D01*
X223690476Y-55704914D02*
X223652380Y-55552533D01*
X223652380Y-55552533D02*
X223652380Y-55362057D01*
X223652380Y-55362057D02*
X223690476Y-55209676D01*
X223690476Y-55209676D02*
X223728571Y-55133485D01*
X223728571Y-55133485D02*
X223766666Y-55095390D01*
X223766666Y-55095390D02*
X223842857Y-55057295D01*
X222128571Y-81257295D02*
X222128571Y-80457295D01*
X222128571Y-80457295D02*
X222433333Y-80457295D01*
X222433333Y-80457295D02*
X222509523Y-80495390D01*
X222509523Y-80495390D02*
X222547618Y-80533485D01*
X222547618Y-80533485D02*
X222585714Y-80609676D01*
X222585714Y-80609676D02*
X222585714Y-80723961D01*
X222585714Y-80723961D02*
X222547618Y-80800152D01*
X222547618Y-80800152D02*
X222509523Y-80838247D01*
X222509523Y-80838247D02*
X222433333Y-80876342D01*
X222433333Y-80876342D02*
X222128571Y-80876342D01*
X223080952Y-80457295D02*
X223157142Y-80457295D01*
X223157142Y-80457295D02*
X223233333Y-80495390D01*
X223233333Y-80495390D02*
X223271428Y-80533485D01*
X223271428Y-80533485D02*
X223309523Y-80609676D01*
X223309523Y-80609676D02*
X223347618Y-80762057D01*
X223347618Y-80762057D02*
X223347618Y-80952533D01*
X223347618Y-80952533D02*
X223309523Y-81104914D01*
X223309523Y-81104914D02*
X223271428Y-81181104D01*
X223271428Y-81181104D02*
X223233333Y-81219200D01*
X223233333Y-81219200D02*
X223157142Y-81257295D01*
X223157142Y-81257295D02*
X223080952Y-81257295D01*
X223080952Y-81257295D02*
X223004761Y-81219200D01*
X223004761Y-81219200D02*
X222966666Y-81181104D01*
X222966666Y-81181104D02*
X222928571Y-81104914D01*
X222928571Y-81104914D02*
X222890475Y-80952533D01*
X222890475Y-80952533D02*
X222890475Y-80762057D01*
X222890475Y-80762057D02*
X222928571Y-80609676D01*
X222928571Y-80609676D02*
X222966666Y-80533485D01*
X222966666Y-80533485D02*
X223004761Y-80495390D01*
X223004761Y-80495390D02*
X223080952Y-80457295D01*
X223728571Y-81257295D02*
X223880952Y-81257295D01*
X223880952Y-81257295D02*
X223957142Y-81219200D01*
X223957142Y-81219200D02*
X223995238Y-81181104D01*
X223995238Y-81181104D02*
X224071428Y-81066819D01*
X224071428Y-81066819D02*
X224109523Y-80914438D01*
X224109523Y-80914438D02*
X224109523Y-80609676D01*
X224109523Y-80609676D02*
X224071428Y-80533485D01*
X224071428Y-80533485D02*
X224033333Y-80495390D01*
X224033333Y-80495390D02*
X223957142Y-80457295D01*
X223957142Y-80457295D02*
X223804761Y-80457295D01*
X223804761Y-80457295D02*
X223728571Y-80495390D01*
X223728571Y-80495390D02*
X223690476Y-80533485D01*
X223690476Y-80533485D02*
X223652380Y-80609676D01*
X223652380Y-80609676D02*
X223652380Y-80800152D01*
X223652380Y-80800152D02*
X223690476Y-80876342D01*
X223690476Y-80876342D02*
X223728571Y-80914438D01*
X223728571Y-80914438D02*
X223804761Y-80952533D01*
X223804761Y-80952533D02*
X223957142Y-80952533D01*
X223957142Y-80952533D02*
X224033333Y-80914438D01*
X224033333Y-80914438D02*
X224071428Y-80876342D01*
X224071428Y-80876342D02*
X224109523Y-80800152D01*
X212528571Y-71097295D02*
X212528571Y-70297295D01*
X212528571Y-70297295D02*
X212833333Y-70297295D01*
X212833333Y-70297295D02*
X212909523Y-70335390D01*
X212909523Y-70335390D02*
X212947618Y-70373485D01*
X212947618Y-70373485D02*
X212985714Y-70449676D01*
X212985714Y-70449676D02*
X212985714Y-70563961D01*
X212985714Y-70563961D02*
X212947618Y-70640152D01*
X212947618Y-70640152D02*
X212909523Y-70678247D01*
X212909523Y-70678247D02*
X212833333Y-70716342D01*
X212833333Y-70716342D02*
X212528571Y-70716342D01*
X213747618Y-71097295D02*
X213290475Y-71097295D01*
X213519047Y-71097295D02*
X213519047Y-70297295D01*
X213519047Y-70297295D02*
X213442856Y-70411580D01*
X213442856Y-70411580D02*
X213366666Y-70487771D01*
X213366666Y-70487771D02*
X213290475Y-70525866D01*
X214204761Y-70640152D02*
X214128571Y-70602057D01*
X214128571Y-70602057D02*
X214090476Y-70563961D01*
X214090476Y-70563961D02*
X214052380Y-70487771D01*
X214052380Y-70487771D02*
X214052380Y-70449676D01*
X214052380Y-70449676D02*
X214090476Y-70373485D01*
X214090476Y-70373485D02*
X214128571Y-70335390D01*
X214128571Y-70335390D02*
X214204761Y-70297295D01*
X214204761Y-70297295D02*
X214357142Y-70297295D01*
X214357142Y-70297295D02*
X214433333Y-70335390D01*
X214433333Y-70335390D02*
X214471428Y-70373485D01*
X214471428Y-70373485D02*
X214509523Y-70449676D01*
X214509523Y-70449676D02*
X214509523Y-70487771D01*
X214509523Y-70487771D02*
X214471428Y-70563961D01*
X214471428Y-70563961D02*
X214433333Y-70602057D01*
X214433333Y-70602057D02*
X214357142Y-70640152D01*
X214357142Y-70640152D02*
X214204761Y-70640152D01*
X214204761Y-70640152D02*
X214128571Y-70678247D01*
X214128571Y-70678247D02*
X214090476Y-70716342D01*
X214090476Y-70716342D02*
X214052380Y-70792533D01*
X214052380Y-70792533D02*
X214052380Y-70944914D01*
X214052380Y-70944914D02*
X214090476Y-71021104D01*
X214090476Y-71021104D02*
X214128571Y-71059200D01*
X214128571Y-71059200D02*
X214204761Y-71097295D01*
X214204761Y-71097295D02*
X214357142Y-71097295D01*
X214357142Y-71097295D02*
X214433333Y-71059200D01*
X214433333Y-71059200D02*
X214471428Y-71021104D01*
X214471428Y-71021104D02*
X214509523Y-70944914D01*
X214509523Y-70944914D02*
X214509523Y-70792533D01*
X214509523Y-70792533D02*
X214471428Y-70716342D01*
X214471428Y-70716342D02*
X214433333Y-70678247D01*
X214433333Y-70678247D02*
X214357142Y-70640152D01*
X222128571Y-73637295D02*
X222128571Y-72837295D01*
X222128571Y-72837295D02*
X222433333Y-72837295D01*
X222433333Y-72837295D02*
X222509523Y-72875390D01*
X222509523Y-72875390D02*
X222547618Y-72913485D01*
X222547618Y-72913485D02*
X222585714Y-72989676D01*
X222585714Y-72989676D02*
X222585714Y-73103961D01*
X222585714Y-73103961D02*
X222547618Y-73180152D01*
X222547618Y-73180152D02*
X222509523Y-73218247D01*
X222509523Y-73218247D02*
X222433333Y-73256342D01*
X222433333Y-73256342D02*
X222128571Y-73256342D01*
X223080952Y-72837295D02*
X223157142Y-72837295D01*
X223157142Y-72837295D02*
X223233333Y-72875390D01*
X223233333Y-72875390D02*
X223271428Y-72913485D01*
X223271428Y-72913485D02*
X223309523Y-72989676D01*
X223309523Y-72989676D02*
X223347618Y-73142057D01*
X223347618Y-73142057D02*
X223347618Y-73332533D01*
X223347618Y-73332533D02*
X223309523Y-73484914D01*
X223309523Y-73484914D02*
X223271428Y-73561104D01*
X223271428Y-73561104D02*
X223233333Y-73599200D01*
X223233333Y-73599200D02*
X223157142Y-73637295D01*
X223157142Y-73637295D02*
X223080952Y-73637295D01*
X223080952Y-73637295D02*
X223004761Y-73599200D01*
X223004761Y-73599200D02*
X222966666Y-73561104D01*
X222966666Y-73561104D02*
X222928571Y-73484914D01*
X222928571Y-73484914D02*
X222890475Y-73332533D01*
X222890475Y-73332533D02*
X222890475Y-73142057D01*
X222890475Y-73142057D02*
X222928571Y-72989676D01*
X222928571Y-72989676D02*
X222966666Y-72913485D01*
X222966666Y-72913485D02*
X223004761Y-72875390D01*
X223004761Y-72875390D02*
X223080952Y-72837295D01*
X224033333Y-72837295D02*
X223880952Y-72837295D01*
X223880952Y-72837295D02*
X223804761Y-72875390D01*
X223804761Y-72875390D02*
X223766666Y-72913485D01*
X223766666Y-72913485D02*
X223690476Y-73027771D01*
X223690476Y-73027771D02*
X223652380Y-73180152D01*
X223652380Y-73180152D02*
X223652380Y-73484914D01*
X223652380Y-73484914D02*
X223690476Y-73561104D01*
X223690476Y-73561104D02*
X223728571Y-73599200D01*
X223728571Y-73599200D02*
X223804761Y-73637295D01*
X223804761Y-73637295D02*
X223957142Y-73637295D01*
X223957142Y-73637295D02*
X224033333Y-73599200D01*
X224033333Y-73599200D02*
X224071428Y-73561104D01*
X224071428Y-73561104D02*
X224109523Y-73484914D01*
X224109523Y-73484914D02*
X224109523Y-73294438D01*
X224109523Y-73294438D02*
X224071428Y-73218247D01*
X224071428Y-73218247D02*
X224033333Y-73180152D01*
X224033333Y-73180152D02*
X223957142Y-73142057D01*
X223957142Y-73142057D02*
X223804761Y-73142057D01*
X223804761Y-73142057D02*
X223728571Y-73180152D01*
X223728571Y-73180152D02*
X223690476Y-73218247D01*
X223690476Y-73218247D02*
X223652380Y-73294438D01*
X212528571Y-63477295D02*
X212528571Y-62677295D01*
X212528571Y-62677295D02*
X212833333Y-62677295D01*
X212833333Y-62677295D02*
X212909523Y-62715390D01*
X212909523Y-62715390D02*
X212947618Y-62753485D01*
X212947618Y-62753485D02*
X212985714Y-62829676D01*
X212985714Y-62829676D02*
X212985714Y-62943961D01*
X212985714Y-62943961D02*
X212947618Y-63020152D01*
X212947618Y-63020152D02*
X212909523Y-63058247D01*
X212909523Y-63058247D02*
X212833333Y-63096342D01*
X212833333Y-63096342D02*
X212528571Y-63096342D01*
X213290475Y-62753485D02*
X213328571Y-62715390D01*
X213328571Y-62715390D02*
X213404761Y-62677295D01*
X213404761Y-62677295D02*
X213595237Y-62677295D01*
X213595237Y-62677295D02*
X213671428Y-62715390D01*
X213671428Y-62715390D02*
X213709523Y-62753485D01*
X213709523Y-62753485D02*
X213747618Y-62829676D01*
X213747618Y-62829676D02*
X213747618Y-62905866D01*
X213747618Y-62905866D02*
X213709523Y-63020152D01*
X213709523Y-63020152D02*
X213252380Y-63477295D01*
X213252380Y-63477295D02*
X213747618Y-63477295D01*
X214509523Y-63477295D02*
X214052380Y-63477295D01*
X214280952Y-63477295D02*
X214280952Y-62677295D01*
X214280952Y-62677295D02*
X214204761Y-62791580D01*
X214204761Y-62791580D02*
X214128571Y-62867771D01*
X214128571Y-62867771D02*
X214052380Y-62905866D01*
X212528571Y-76177295D02*
X212528571Y-75377295D01*
X212528571Y-75377295D02*
X212833333Y-75377295D01*
X212833333Y-75377295D02*
X212909523Y-75415390D01*
X212909523Y-75415390D02*
X212947618Y-75453485D01*
X212947618Y-75453485D02*
X212985714Y-75529676D01*
X212985714Y-75529676D02*
X212985714Y-75643961D01*
X212985714Y-75643961D02*
X212947618Y-75720152D01*
X212947618Y-75720152D02*
X212909523Y-75758247D01*
X212909523Y-75758247D02*
X212833333Y-75796342D01*
X212833333Y-75796342D02*
X212528571Y-75796342D01*
X213747618Y-76177295D02*
X213290475Y-76177295D01*
X213519047Y-76177295D02*
X213519047Y-75377295D01*
X213519047Y-75377295D02*
X213442856Y-75491580D01*
X213442856Y-75491580D02*
X213366666Y-75567771D01*
X213366666Y-75567771D02*
X213290475Y-75605866D01*
X214433333Y-75643961D02*
X214433333Y-76177295D01*
X214242857Y-75339200D02*
X214052380Y-75910628D01*
X214052380Y-75910628D02*
X214547619Y-75910628D01*
X212528571Y-68557295D02*
X212528571Y-67757295D01*
X212528571Y-67757295D02*
X212833333Y-67757295D01*
X212833333Y-67757295D02*
X212909523Y-67795390D01*
X212909523Y-67795390D02*
X212947618Y-67833485D01*
X212947618Y-67833485D02*
X212985714Y-67909676D01*
X212985714Y-67909676D02*
X212985714Y-68023961D01*
X212985714Y-68023961D02*
X212947618Y-68100152D01*
X212947618Y-68100152D02*
X212909523Y-68138247D01*
X212909523Y-68138247D02*
X212833333Y-68176342D01*
X212833333Y-68176342D02*
X212528571Y-68176342D01*
X213747618Y-68557295D02*
X213290475Y-68557295D01*
X213519047Y-68557295D02*
X213519047Y-67757295D01*
X213519047Y-67757295D02*
X213442856Y-67871580D01*
X213442856Y-67871580D02*
X213366666Y-67947771D01*
X213366666Y-67947771D02*
X213290475Y-67985866D01*
X214128571Y-68557295D02*
X214280952Y-68557295D01*
X214280952Y-68557295D02*
X214357142Y-68519200D01*
X214357142Y-68519200D02*
X214395238Y-68481104D01*
X214395238Y-68481104D02*
X214471428Y-68366819D01*
X214471428Y-68366819D02*
X214509523Y-68214438D01*
X214509523Y-68214438D02*
X214509523Y-67909676D01*
X214509523Y-67909676D02*
X214471428Y-67833485D01*
X214471428Y-67833485D02*
X214433333Y-67795390D01*
X214433333Y-67795390D02*
X214357142Y-67757295D01*
X214357142Y-67757295D02*
X214204761Y-67757295D01*
X214204761Y-67757295D02*
X214128571Y-67795390D01*
X214128571Y-67795390D02*
X214090476Y-67833485D01*
X214090476Y-67833485D02*
X214052380Y-67909676D01*
X214052380Y-67909676D02*
X214052380Y-68100152D01*
X214052380Y-68100152D02*
X214090476Y-68176342D01*
X214090476Y-68176342D02*
X214128571Y-68214438D01*
X214128571Y-68214438D02*
X214204761Y-68252533D01*
X214204761Y-68252533D02*
X214357142Y-68252533D01*
X214357142Y-68252533D02*
X214433333Y-68214438D01*
X214433333Y-68214438D02*
X214471428Y-68176342D01*
X214471428Y-68176342D02*
X214509523Y-68100152D01*
X222128571Y-53317295D02*
X222128571Y-52517295D01*
X222128571Y-52517295D02*
X222433333Y-52517295D01*
X222433333Y-52517295D02*
X222509523Y-52555390D01*
X222509523Y-52555390D02*
X222547618Y-52593485D01*
X222547618Y-52593485D02*
X222585714Y-52669676D01*
X222585714Y-52669676D02*
X222585714Y-52783961D01*
X222585714Y-52783961D02*
X222547618Y-52860152D01*
X222547618Y-52860152D02*
X222509523Y-52898247D01*
X222509523Y-52898247D02*
X222433333Y-52936342D01*
X222433333Y-52936342D02*
X222128571Y-52936342D01*
X223080952Y-52517295D02*
X223157142Y-52517295D01*
X223157142Y-52517295D02*
X223233333Y-52555390D01*
X223233333Y-52555390D02*
X223271428Y-52593485D01*
X223271428Y-52593485D02*
X223309523Y-52669676D01*
X223309523Y-52669676D02*
X223347618Y-52822057D01*
X223347618Y-52822057D02*
X223347618Y-53012533D01*
X223347618Y-53012533D02*
X223309523Y-53164914D01*
X223309523Y-53164914D02*
X223271428Y-53241104D01*
X223271428Y-53241104D02*
X223233333Y-53279200D01*
X223233333Y-53279200D02*
X223157142Y-53317295D01*
X223157142Y-53317295D02*
X223080952Y-53317295D01*
X223080952Y-53317295D02*
X223004761Y-53279200D01*
X223004761Y-53279200D02*
X222966666Y-53241104D01*
X222966666Y-53241104D02*
X222928571Y-53164914D01*
X222928571Y-53164914D02*
X222890475Y-53012533D01*
X222890475Y-53012533D02*
X222890475Y-52822057D01*
X222890475Y-52822057D02*
X222928571Y-52669676D01*
X222928571Y-52669676D02*
X222966666Y-52593485D01*
X222966666Y-52593485D02*
X223004761Y-52555390D01*
X223004761Y-52555390D02*
X223080952Y-52517295D01*
X224109523Y-53317295D02*
X223652380Y-53317295D01*
X223880952Y-53317295D02*
X223880952Y-52517295D01*
X223880952Y-52517295D02*
X223804761Y-52631580D01*
X223804761Y-52631580D02*
X223728571Y-52707771D01*
X223728571Y-52707771D02*
X223652380Y-52745866D01*
X222128571Y-66017295D02*
X222128571Y-65217295D01*
X222128571Y-65217295D02*
X222433333Y-65217295D01*
X222433333Y-65217295D02*
X222509523Y-65255390D01*
X222509523Y-65255390D02*
X222547618Y-65293485D01*
X222547618Y-65293485D02*
X222585714Y-65369676D01*
X222585714Y-65369676D02*
X222585714Y-65483961D01*
X222585714Y-65483961D02*
X222547618Y-65560152D01*
X222547618Y-65560152D02*
X222509523Y-65598247D01*
X222509523Y-65598247D02*
X222433333Y-65636342D01*
X222433333Y-65636342D02*
X222128571Y-65636342D01*
X223080952Y-65217295D02*
X223157142Y-65217295D01*
X223157142Y-65217295D02*
X223233333Y-65255390D01*
X223233333Y-65255390D02*
X223271428Y-65293485D01*
X223271428Y-65293485D02*
X223309523Y-65369676D01*
X223309523Y-65369676D02*
X223347618Y-65522057D01*
X223347618Y-65522057D02*
X223347618Y-65712533D01*
X223347618Y-65712533D02*
X223309523Y-65864914D01*
X223309523Y-65864914D02*
X223271428Y-65941104D01*
X223271428Y-65941104D02*
X223233333Y-65979200D01*
X223233333Y-65979200D02*
X223157142Y-66017295D01*
X223157142Y-66017295D02*
X223080952Y-66017295D01*
X223080952Y-66017295D02*
X223004761Y-65979200D01*
X223004761Y-65979200D02*
X222966666Y-65941104D01*
X222966666Y-65941104D02*
X222928571Y-65864914D01*
X222928571Y-65864914D02*
X222890475Y-65712533D01*
X222890475Y-65712533D02*
X222890475Y-65522057D01*
X222890475Y-65522057D02*
X222928571Y-65369676D01*
X222928571Y-65369676D02*
X222966666Y-65293485D01*
X222966666Y-65293485D02*
X223004761Y-65255390D01*
X223004761Y-65255390D02*
X223080952Y-65217295D01*
X223614285Y-65217295D02*
X224109523Y-65217295D01*
X224109523Y-65217295D02*
X223842857Y-65522057D01*
X223842857Y-65522057D02*
X223957142Y-65522057D01*
X223957142Y-65522057D02*
X224033333Y-65560152D01*
X224033333Y-65560152D02*
X224071428Y-65598247D01*
X224071428Y-65598247D02*
X224109523Y-65674438D01*
X224109523Y-65674438D02*
X224109523Y-65864914D01*
X224109523Y-65864914D02*
X224071428Y-65941104D01*
X224071428Y-65941104D02*
X224033333Y-65979200D01*
X224033333Y-65979200D02*
X223957142Y-66017295D01*
X223957142Y-66017295D02*
X223728571Y-66017295D01*
X223728571Y-66017295D02*
X223652380Y-65979200D01*
X223652380Y-65979200D02*
X223614285Y-65941104D01*
X222490476Y-57635390D02*
X222414286Y-57597295D01*
X222414286Y-57597295D02*
X222300000Y-57597295D01*
X222300000Y-57597295D02*
X222185714Y-57635390D01*
X222185714Y-57635390D02*
X222109524Y-57711580D01*
X222109524Y-57711580D02*
X222071429Y-57787771D01*
X222071429Y-57787771D02*
X222033333Y-57940152D01*
X222033333Y-57940152D02*
X222033333Y-58054438D01*
X222033333Y-58054438D02*
X222071429Y-58206819D01*
X222071429Y-58206819D02*
X222109524Y-58283009D01*
X222109524Y-58283009D02*
X222185714Y-58359200D01*
X222185714Y-58359200D02*
X222300000Y-58397295D01*
X222300000Y-58397295D02*
X222376191Y-58397295D01*
X222376191Y-58397295D02*
X222490476Y-58359200D01*
X222490476Y-58359200D02*
X222528572Y-58321104D01*
X222528572Y-58321104D02*
X222528572Y-58054438D01*
X222528572Y-58054438D02*
X222376191Y-58054438D01*
X222871429Y-58397295D02*
X222871429Y-57597295D01*
X222871429Y-57597295D02*
X223328572Y-58397295D01*
X223328572Y-58397295D02*
X223328572Y-57597295D01*
X223709524Y-58397295D02*
X223709524Y-57597295D01*
X223709524Y-57597295D02*
X223900000Y-57597295D01*
X223900000Y-57597295D02*
X224014286Y-57635390D01*
X224014286Y-57635390D02*
X224090476Y-57711580D01*
X224090476Y-57711580D02*
X224128571Y-57787771D01*
X224128571Y-57787771D02*
X224166667Y-57940152D01*
X224166667Y-57940152D02*
X224166667Y-58054438D01*
X224166667Y-58054438D02*
X224128571Y-58206819D01*
X224128571Y-58206819D02*
X224090476Y-58283009D01*
X224090476Y-58283009D02*
X224014286Y-58359200D01*
X224014286Y-58359200D02*
X223900000Y-58397295D01*
X223900000Y-58397295D02*
X223709524Y-58397295D01*
X222128571Y-78717295D02*
X222128571Y-77917295D01*
X222128571Y-77917295D02*
X222433333Y-77917295D01*
X222433333Y-77917295D02*
X222509523Y-77955390D01*
X222509523Y-77955390D02*
X222547618Y-77993485D01*
X222547618Y-77993485D02*
X222585714Y-78069676D01*
X222585714Y-78069676D02*
X222585714Y-78183961D01*
X222585714Y-78183961D02*
X222547618Y-78260152D01*
X222547618Y-78260152D02*
X222509523Y-78298247D01*
X222509523Y-78298247D02*
X222433333Y-78336342D01*
X222433333Y-78336342D02*
X222128571Y-78336342D01*
X223080952Y-77917295D02*
X223157142Y-77917295D01*
X223157142Y-77917295D02*
X223233333Y-77955390D01*
X223233333Y-77955390D02*
X223271428Y-77993485D01*
X223271428Y-77993485D02*
X223309523Y-78069676D01*
X223309523Y-78069676D02*
X223347618Y-78222057D01*
X223347618Y-78222057D02*
X223347618Y-78412533D01*
X223347618Y-78412533D02*
X223309523Y-78564914D01*
X223309523Y-78564914D02*
X223271428Y-78641104D01*
X223271428Y-78641104D02*
X223233333Y-78679200D01*
X223233333Y-78679200D02*
X223157142Y-78717295D01*
X223157142Y-78717295D02*
X223080952Y-78717295D01*
X223080952Y-78717295D02*
X223004761Y-78679200D01*
X223004761Y-78679200D02*
X222966666Y-78641104D01*
X222966666Y-78641104D02*
X222928571Y-78564914D01*
X222928571Y-78564914D02*
X222890475Y-78412533D01*
X222890475Y-78412533D02*
X222890475Y-78222057D01*
X222890475Y-78222057D02*
X222928571Y-78069676D01*
X222928571Y-78069676D02*
X222966666Y-77993485D01*
X222966666Y-77993485D02*
X223004761Y-77955390D01*
X223004761Y-77955390D02*
X223080952Y-77917295D01*
X223804761Y-78260152D02*
X223728571Y-78222057D01*
X223728571Y-78222057D02*
X223690476Y-78183961D01*
X223690476Y-78183961D02*
X223652380Y-78107771D01*
X223652380Y-78107771D02*
X223652380Y-78069676D01*
X223652380Y-78069676D02*
X223690476Y-77993485D01*
X223690476Y-77993485D02*
X223728571Y-77955390D01*
X223728571Y-77955390D02*
X223804761Y-77917295D01*
X223804761Y-77917295D02*
X223957142Y-77917295D01*
X223957142Y-77917295D02*
X224033333Y-77955390D01*
X224033333Y-77955390D02*
X224071428Y-77993485D01*
X224071428Y-77993485D02*
X224109523Y-78069676D01*
X224109523Y-78069676D02*
X224109523Y-78107771D01*
X224109523Y-78107771D02*
X224071428Y-78183961D01*
X224071428Y-78183961D02*
X224033333Y-78222057D01*
X224033333Y-78222057D02*
X223957142Y-78260152D01*
X223957142Y-78260152D02*
X223804761Y-78260152D01*
X223804761Y-78260152D02*
X223728571Y-78298247D01*
X223728571Y-78298247D02*
X223690476Y-78336342D01*
X223690476Y-78336342D02*
X223652380Y-78412533D01*
X223652380Y-78412533D02*
X223652380Y-78564914D01*
X223652380Y-78564914D02*
X223690476Y-78641104D01*
X223690476Y-78641104D02*
X223728571Y-78679200D01*
X223728571Y-78679200D02*
X223804761Y-78717295D01*
X223804761Y-78717295D02*
X223957142Y-78717295D01*
X223957142Y-78717295D02*
X224033333Y-78679200D01*
X224033333Y-78679200D02*
X224071428Y-78641104D01*
X224071428Y-78641104D02*
X224109523Y-78564914D01*
X224109523Y-78564914D02*
X224109523Y-78412533D01*
X224109523Y-78412533D02*
X224071428Y-78336342D01*
X224071428Y-78336342D02*
X224033333Y-78298247D01*
X224033333Y-78298247D02*
X223957142Y-78260152D01*
X212528571Y-78717295D02*
X212528571Y-77917295D01*
X212528571Y-77917295D02*
X212833333Y-77917295D01*
X212833333Y-77917295D02*
X212909523Y-77955390D01*
X212909523Y-77955390D02*
X212947618Y-77993485D01*
X212947618Y-77993485D02*
X212985714Y-78069676D01*
X212985714Y-78069676D02*
X212985714Y-78183961D01*
X212985714Y-78183961D02*
X212947618Y-78260152D01*
X212947618Y-78260152D02*
X212909523Y-78298247D01*
X212909523Y-78298247D02*
X212833333Y-78336342D01*
X212833333Y-78336342D02*
X212528571Y-78336342D01*
X213747618Y-78717295D02*
X213290475Y-78717295D01*
X213519047Y-78717295D02*
X213519047Y-77917295D01*
X213519047Y-77917295D02*
X213442856Y-78031580D01*
X213442856Y-78031580D02*
X213366666Y-78107771D01*
X213366666Y-78107771D02*
X213290475Y-78145866D01*
X214433333Y-77917295D02*
X214280952Y-77917295D01*
X214280952Y-77917295D02*
X214204761Y-77955390D01*
X214204761Y-77955390D02*
X214166666Y-77993485D01*
X214166666Y-77993485D02*
X214090476Y-78107771D01*
X214090476Y-78107771D02*
X214052380Y-78260152D01*
X214052380Y-78260152D02*
X214052380Y-78564914D01*
X214052380Y-78564914D02*
X214090476Y-78641104D01*
X214090476Y-78641104D02*
X214128571Y-78679200D01*
X214128571Y-78679200D02*
X214204761Y-78717295D01*
X214204761Y-78717295D02*
X214357142Y-78717295D01*
X214357142Y-78717295D02*
X214433333Y-78679200D01*
X214433333Y-78679200D02*
X214471428Y-78641104D01*
X214471428Y-78641104D02*
X214509523Y-78564914D01*
X214509523Y-78564914D02*
X214509523Y-78374438D01*
X214509523Y-78374438D02*
X214471428Y-78298247D01*
X214471428Y-78298247D02*
X214433333Y-78260152D01*
X214433333Y-78260152D02*
X214357142Y-78222057D01*
X214357142Y-78222057D02*
X214204761Y-78222057D01*
X214204761Y-78222057D02*
X214128571Y-78260152D01*
X214128571Y-78260152D02*
X214090476Y-78298247D01*
X214090476Y-78298247D02*
X214052380Y-78374438D01*
X212890476Y-55095390D02*
X212814286Y-55057295D01*
X212814286Y-55057295D02*
X212700000Y-55057295D01*
X212700000Y-55057295D02*
X212585714Y-55095390D01*
X212585714Y-55095390D02*
X212509524Y-55171580D01*
X212509524Y-55171580D02*
X212471429Y-55247771D01*
X212471429Y-55247771D02*
X212433333Y-55400152D01*
X212433333Y-55400152D02*
X212433333Y-55514438D01*
X212433333Y-55514438D02*
X212471429Y-55666819D01*
X212471429Y-55666819D02*
X212509524Y-55743009D01*
X212509524Y-55743009D02*
X212585714Y-55819200D01*
X212585714Y-55819200D02*
X212700000Y-55857295D01*
X212700000Y-55857295D02*
X212776191Y-55857295D01*
X212776191Y-55857295D02*
X212890476Y-55819200D01*
X212890476Y-55819200D02*
X212928572Y-55781104D01*
X212928572Y-55781104D02*
X212928572Y-55514438D01*
X212928572Y-55514438D02*
X212776191Y-55514438D01*
X213271429Y-55857295D02*
X213271429Y-55057295D01*
X213271429Y-55057295D02*
X213728572Y-55857295D01*
X213728572Y-55857295D02*
X213728572Y-55057295D01*
X214109524Y-55857295D02*
X214109524Y-55057295D01*
X214109524Y-55057295D02*
X214300000Y-55057295D01*
X214300000Y-55057295D02*
X214414286Y-55095390D01*
X214414286Y-55095390D02*
X214490476Y-55171580D01*
X214490476Y-55171580D02*
X214528571Y-55247771D01*
X214528571Y-55247771D02*
X214566667Y-55400152D01*
X214566667Y-55400152D02*
X214566667Y-55514438D01*
X214566667Y-55514438D02*
X214528571Y-55666819D01*
X214528571Y-55666819D02*
X214490476Y-55743009D01*
X214490476Y-55743009D02*
X214414286Y-55819200D01*
X214414286Y-55819200D02*
X214300000Y-55857295D01*
X214300000Y-55857295D02*
X214109524Y-55857295D01*
X222128571Y-71097295D02*
X222128571Y-70297295D01*
X222128571Y-70297295D02*
X222433333Y-70297295D01*
X222433333Y-70297295D02*
X222509523Y-70335390D01*
X222509523Y-70335390D02*
X222547618Y-70373485D01*
X222547618Y-70373485D02*
X222585714Y-70449676D01*
X222585714Y-70449676D02*
X222585714Y-70563961D01*
X222585714Y-70563961D02*
X222547618Y-70640152D01*
X222547618Y-70640152D02*
X222509523Y-70678247D01*
X222509523Y-70678247D02*
X222433333Y-70716342D01*
X222433333Y-70716342D02*
X222128571Y-70716342D01*
X223080952Y-70297295D02*
X223157142Y-70297295D01*
X223157142Y-70297295D02*
X223233333Y-70335390D01*
X223233333Y-70335390D02*
X223271428Y-70373485D01*
X223271428Y-70373485D02*
X223309523Y-70449676D01*
X223309523Y-70449676D02*
X223347618Y-70602057D01*
X223347618Y-70602057D02*
X223347618Y-70792533D01*
X223347618Y-70792533D02*
X223309523Y-70944914D01*
X223309523Y-70944914D02*
X223271428Y-71021104D01*
X223271428Y-71021104D02*
X223233333Y-71059200D01*
X223233333Y-71059200D02*
X223157142Y-71097295D01*
X223157142Y-71097295D02*
X223080952Y-71097295D01*
X223080952Y-71097295D02*
X223004761Y-71059200D01*
X223004761Y-71059200D02*
X222966666Y-71021104D01*
X222966666Y-71021104D02*
X222928571Y-70944914D01*
X222928571Y-70944914D02*
X222890475Y-70792533D01*
X222890475Y-70792533D02*
X222890475Y-70602057D01*
X222890475Y-70602057D02*
X222928571Y-70449676D01*
X222928571Y-70449676D02*
X222966666Y-70373485D01*
X222966666Y-70373485D02*
X223004761Y-70335390D01*
X223004761Y-70335390D02*
X223080952Y-70297295D01*
X224071428Y-70297295D02*
X223690476Y-70297295D01*
X223690476Y-70297295D02*
X223652380Y-70678247D01*
X223652380Y-70678247D02*
X223690476Y-70640152D01*
X223690476Y-70640152D02*
X223766666Y-70602057D01*
X223766666Y-70602057D02*
X223957142Y-70602057D01*
X223957142Y-70602057D02*
X224033333Y-70640152D01*
X224033333Y-70640152D02*
X224071428Y-70678247D01*
X224071428Y-70678247D02*
X224109523Y-70754438D01*
X224109523Y-70754438D02*
X224109523Y-70944914D01*
X224109523Y-70944914D02*
X224071428Y-71021104D01*
X224071428Y-71021104D02*
X224033333Y-71059200D01*
X224033333Y-71059200D02*
X223957142Y-71097295D01*
X223957142Y-71097295D02*
X223766666Y-71097295D01*
X223766666Y-71097295D02*
X223690476Y-71059200D01*
X223690476Y-71059200D02*
X223652380Y-71021104D01*
X212528571Y-66017295D02*
X212528571Y-65217295D01*
X212528571Y-65217295D02*
X212833333Y-65217295D01*
X212833333Y-65217295D02*
X212909523Y-65255390D01*
X212909523Y-65255390D02*
X212947618Y-65293485D01*
X212947618Y-65293485D02*
X212985714Y-65369676D01*
X212985714Y-65369676D02*
X212985714Y-65483961D01*
X212985714Y-65483961D02*
X212947618Y-65560152D01*
X212947618Y-65560152D02*
X212909523Y-65598247D01*
X212909523Y-65598247D02*
X212833333Y-65636342D01*
X212833333Y-65636342D02*
X212528571Y-65636342D01*
X213290475Y-65293485D02*
X213328571Y-65255390D01*
X213328571Y-65255390D02*
X213404761Y-65217295D01*
X213404761Y-65217295D02*
X213595237Y-65217295D01*
X213595237Y-65217295D02*
X213671428Y-65255390D01*
X213671428Y-65255390D02*
X213709523Y-65293485D01*
X213709523Y-65293485D02*
X213747618Y-65369676D01*
X213747618Y-65369676D02*
X213747618Y-65445866D01*
X213747618Y-65445866D02*
X213709523Y-65560152D01*
X213709523Y-65560152D02*
X213252380Y-66017295D01*
X213252380Y-66017295D02*
X213747618Y-66017295D01*
X214242857Y-65217295D02*
X214319047Y-65217295D01*
X214319047Y-65217295D02*
X214395238Y-65255390D01*
X214395238Y-65255390D02*
X214433333Y-65293485D01*
X214433333Y-65293485D02*
X214471428Y-65369676D01*
X214471428Y-65369676D02*
X214509523Y-65522057D01*
X214509523Y-65522057D02*
X214509523Y-65712533D01*
X214509523Y-65712533D02*
X214471428Y-65864914D01*
X214471428Y-65864914D02*
X214433333Y-65941104D01*
X214433333Y-65941104D02*
X214395238Y-65979200D01*
X214395238Y-65979200D02*
X214319047Y-66017295D01*
X214319047Y-66017295D02*
X214242857Y-66017295D01*
X214242857Y-66017295D02*
X214166666Y-65979200D01*
X214166666Y-65979200D02*
X214128571Y-65941104D01*
X214128571Y-65941104D02*
X214090476Y-65864914D01*
X214090476Y-65864914D02*
X214052380Y-65712533D01*
X214052380Y-65712533D02*
X214052380Y-65522057D01*
X214052380Y-65522057D02*
X214090476Y-65369676D01*
X214090476Y-65369676D02*
X214128571Y-65293485D01*
X214128571Y-65293485D02*
X214166666Y-65255390D01*
X214166666Y-65255390D02*
X214242857Y-65217295D01*
X222128571Y-63477295D02*
X222128571Y-62677295D01*
X222128571Y-62677295D02*
X222433333Y-62677295D01*
X222433333Y-62677295D02*
X222509523Y-62715390D01*
X222509523Y-62715390D02*
X222547618Y-62753485D01*
X222547618Y-62753485D02*
X222585714Y-62829676D01*
X222585714Y-62829676D02*
X222585714Y-62943961D01*
X222585714Y-62943961D02*
X222547618Y-63020152D01*
X222547618Y-63020152D02*
X222509523Y-63058247D01*
X222509523Y-63058247D02*
X222433333Y-63096342D01*
X222433333Y-63096342D02*
X222128571Y-63096342D01*
X223080952Y-62677295D02*
X223157142Y-62677295D01*
X223157142Y-62677295D02*
X223233333Y-62715390D01*
X223233333Y-62715390D02*
X223271428Y-62753485D01*
X223271428Y-62753485D02*
X223309523Y-62829676D01*
X223309523Y-62829676D02*
X223347618Y-62982057D01*
X223347618Y-62982057D02*
X223347618Y-63172533D01*
X223347618Y-63172533D02*
X223309523Y-63324914D01*
X223309523Y-63324914D02*
X223271428Y-63401104D01*
X223271428Y-63401104D02*
X223233333Y-63439200D01*
X223233333Y-63439200D02*
X223157142Y-63477295D01*
X223157142Y-63477295D02*
X223080952Y-63477295D01*
X223080952Y-63477295D02*
X223004761Y-63439200D01*
X223004761Y-63439200D02*
X222966666Y-63401104D01*
X222966666Y-63401104D02*
X222928571Y-63324914D01*
X222928571Y-63324914D02*
X222890475Y-63172533D01*
X222890475Y-63172533D02*
X222890475Y-62982057D01*
X222890475Y-62982057D02*
X222928571Y-62829676D01*
X222928571Y-62829676D02*
X222966666Y-62753485D01*
X222966666Y-62753485D02*
X223004761Y-62715390D01*
X223004761Y-62715390D02*
X223080952Y-62677295D01*
X223652380Y-62753485D02*
X223690476Y-62715390D01*
X223690476Y-62715390D02*
X223766666Y-62677295D01*
X223766666Y-62677295D02*
X223957142Y-62677295D01*
X223957142Y-62677295D02*
X224033333Y-62715390D01*
X224033333Y-62715390D02*
X224071428Y-62753485D01*
X224071428Y-62753485D02*
X224109523Y-62829676D01*
X224109523Y-62829676D02*
X224109523Y-62905866D01*
X224109523Y-62905866D02*
X224071428Y-63020152D01*
X224071428Y-63020152D02*
X223614285Y-63477295D01*
X223614285Y-63477295D02*
X224109523Y-63477295D01*
X212528571Y-73637295D02*
X212528571Y-72837295D01*
X212528571Y-72837295D02*
X212833333Y-72837295D01*
X212833333Y-72837295D02*
X212909523Y-72875390D01*
X212909523Y-72875390D02*
X212947618Y-72913485D01*
X212947618Y-72913485D02*
X212985714Y-72989676D01*
X212985714Y-72989676D02*
X212985714Y-73103961D01*
X212985714Y-73103961D02*
X212947618Y-73180152D01*
X212947618Y-73180152D02*
X212909523Y-73218247D01*
X212909523Y-73218247D02*
X212833333Y-73256342D01*
X212833333Y-73256342D02*
X212528571Y-73256342D01*
X213747618Y-73637295D02*
X213290475Y-73637295D01*
X213519047Y-73637295D02*
X213519047Y-72837295D01*
X213519047Y-72837295D02*
X213442856Y-72951580D01*
X213442856Y-72951580D02*
X213366666Y-73027771D01*
X213366666Y-73027771D02*
X213290475Y-73065866D01*
X214471428Y-72837295D02*
X214090476Y-72837295D01*
X214090476Y-72837295D02*
X214052380Y-73218247D01*
X214052380Y-73218247D02*
X214090476Y-73180152D01*
X214090476Y-73180152D02*
X214166666Y-73142057D01*
X214166666Y-73142057D02*
X214357142Y-73142057D01*
X214357142Y-73142057D02*
X214433333Y-73180152D01*
X214433333Y-73180152D02*
X214471428Y-73218247D01*
X214471428Y-73218247D02*
X214509523Y-73294438D01*
X214509523Y-73294438D02*
X214509523Y-73484914D01*
X214509523Y-73484914D02*
X214471428Y-73561104D01*
X214471428Y-73561104D02*
X214433333Y-73599200D01*
X214433333Y-73599200D02*
X214357142Y-73637295D01*
X214357142Y-73637295D02*
X214166666Y-73637295D01*
X214166666Y-73637295D02*
X214090476Y-73599200D01*
X214090476Y-73599200D02*
X214052380Y-73561104D01*
X222490476Y-60175390D02*
X222414286Y-60137295D01*
X222414286Y-60137295D02*
X222300000Y-60137295D01*
X222300000Y-60137295D02*
X222185714Y-60175390D01*
X222185714Y-60175390D02*
X222109524Y-60251580D01*
X222109524Y-60251580D02*
X222071429Y-60327771D01*
X222071429Y-60327771D02*
X222033333Y-60480152D01*
X222033333Y-60480152D02*
X222033333Y-60594438D01*
X222033333Y-60594438D02*
X222071429Y-60746819D01*
X222071429Y-60746819D02*
X222109524Y-60823009D01*
X222109524Y-60823009D02*
X222185714Y-60899200D01*
X222185714Y-60899200D02*
X222300000Y-60937295D01*
X222300000Y-60937295D02*
X222376191Y-60937295D01*
X222376191Y-60937295D02*
X222490476Y-60899200D01*
X222490476Y-60899200D02*
X222528572Y-60861104D01*
X222528572Y-60861104D02*
X222528572Y-60594438D01*
X222528572Y-60594438D02*
X222376191Y-60594438D01*
X222871429Y-60937295D02*
X222871429Y-60137295D01*
X222871429Y-60137295D02*
X223328572Y-60937295D01*
X223328572Y-60937295D02*
X223328572Y-60137295D01*
X223709524Y-60937295D02*
X223709524Y-60137295D01*
X223709524Y-60137295D02*
X223900000Y-60137295D01*
X223900000Y-60137295D02*
X224014286Y-60175390D01*
X224014286Y-60175390D02*
X224090476Y-60251580D01*
X224090476Y-60251580D02*
X224128571Y-60327771D01*
X224128571Y-60327771D02*
X224166667Y-60480152D01*
X224166667Y-60480152D02*
X224166667Y-60594438D01*
X224166667Y-60594438D02*
X224128571Y-60746819D01*
X224128571Y-60746819D02*
X224090476Y-60823009D01*
X224090476Y-60823009D02*
X224014286Y-60899200D01*
X224014286Y-60899200D02*
X223900000Y-60937295D01*
X223900000Y-60937295D02*
X223709524Y-60937295D01*
X213061905Y-58397295D02*
X212795238Y-58016342D01*
X212604762Y-58397295D02*
X212604762Y-57597295D01*
X212604762Y-57597295D02*
X212909524Y-57597295D01*
X212909524Y-57597295D02*
X212985714Y-57635390D01*
X212985714Y-57635390D02*
X213023809Y-57673485D01*
X213023809Y-57673485D02*
X213061905Y-57749676D01*
X213061905Y-57749676D02*
X213061905Y-57863961D01*
X213061905Y-57863961D02*
X213023809Y-57940152D01*
X213023809Y-57940152D02*
X212985714Y-57978247D01*
X212985714Y-57978247D02*
X212909524Y-58016342D01*
X212909524Y-58016342D02*
X212604762Y-58016342D01*
X213366666Y-58359200D02*
X213480952Y-58397295D01*
X213480952Y-58397295D02*
X213671428Y-58397295D01*
X213671428Y-58397295D02*
X213747619Y-58359200D01*
X213747619Y-58359200D02*
X213785714Y-58321104D01*
X213785714Y-58321104D02*
X213823809Y-58244914D01*
X213823809Y-58244914D02*
X213823809Y-58168723D01*
X213823809Y-58168723D02*
X213785714Y-58092533D01*
X213785714Y-58092533D02*
X213747619Y-58054438D01*
X213747619Y-58054438D02*
X213671428Y-58016342D01*
X213671428Y-58016342D02*
X213519047Y-57978247D01*
X213519047Y-57978247D02*
X213442857Y-57940152D01*
X213442857Y-57940152D02*
X213404762Y-57902057D01*
X213404762Y-57902057D02*
X213366666Y-57825866D01*
X213366666Y-57825866D02*
X213366666Y-57749676D01*
X213366666Y-57749676D02*
X213404762Y-57673485D01*
X213404762Y-57673485D02*
X213442857Y-57635390D01*
X213442857Y-57635390D02*
X213519047Y-57597295D01*
X213519047Y-57597295D02*
X213709524Y-57597295D01*
X213709524Y-57597295D02*
X213823809Y-57635390D01*
X214052381Y-57597295D02*
X214509524Y-57597295D01*
X214280952Y-58397295D02*
X214280952Y-57597295D01*
X212947619Y-53317295D02*
X212680952Y-52936342D01*
X212490476Y-53317295D02*
X212490476Y-52517295D01*
X212490476Y-52517295D02*
X212795238Y-52517295D01*
X212795238Y-52517295D02*
X212871428Y-52555390D01*
X212871428Y-52555390D02*
X212909523Y-52593485D01*
X212909523Y-52593485D02*
X212947619Y-52669676D01*
X212947619Y-52669676D02*
X212947619Y-52783961D01*
X212947619Y-52783961D02*
X212909523Y-52860152D01*
X212909523Y-52860152D02*
X212871428Y-52898247D01*
X212871428Y-52898247D02*
X212795238Y-52936342D01*
X212795238Y-52936342D02*
X212490476Y-52936342D01*
X213252380Y-53088723D02*
X213633333Y-53088723D01*
X213176190Y-53317295D02*
X213442857Y-52517295D01*
X213442857Y-52517295D02*
X213709523Y-53317295D01*
X213899999Y-52517295D02*
X214090475Y-53317295D01*
X214090475Y-53317295D02*
X214242856Y-52745866D01*
X214242856Y-52745866D02*
X214395237Y-53317295D01*
X214395237Y-53317295D02*
X214585714Y-52517295D01*
X212433333Y-60137295D02*
X212700000Y-60937295D01*
X212700000Y-60937295D02*
X212966666Y-60137295D01*
X213690476Y-60861104D02*
X213652380Y-60899200D01*
X213652380Y-60899200D02*
X213538095Y-60937295D01*
X213538095Y-60937295D02*
X213461904Y-60937295D01*
X213461904Y-60937295D02*
X213347618Y-60899200D01*
X213347618Y-60899200D02*
X213271428Y-60823009D01*
X213271428Y-60823009D02*
X213233333Y-60746819D01*
X213233333Y-60746819D02*
X213195237Y-60594438D01*
X213195237Y-60594438D02*
X213195237Y-60480152D01*
X213195237Y-60480152D02*
X213233333Y-60327771D01*
X213233333Y-60327771D02*
X213271428Y-60251580D01*
X213271428Y-60251580D02*
X213347618Y-60175390D01*
X213347618Y-60175390D02*
X213461904Y-60137295D01*
X213461904Y-60137295D02*
X213538095Y-60137295D01*
X213538095Y-60137295D02*
X213652380Y-60175390D01*
X213652380Y-60175390D02*
X213690476Y-60213485D01*
X214490476Y-60861104D02*
X214452380Y-60899200D01*
X214452380Y-60899200D02*
X214338095Y-60937295D01*
X214338095Y-60937295D02*
X214261904Y-60937295D01*
X214261904Y-60937295D02*
X214147618Y-60899200D01*
X214147618Y-60899200D02*
X214071428Y-60823009D01*
X214071428Y-60823009D02*
X214033333Y-60746819D01*
X214033333Y-60746819D02*
X213995237Y-60594438D01*
X213995237Y-60594438D02*
X213995237Y-60480152D01*
X213995237Y-60480152D02*
X214033333Y-60327771D01*
X214033333Y-60327771D02*
X214071428Y-60251580D01*
X214071428Y-60251580D02*
X214147618Y-60175390D01*
X214147618Y-60175390D02*
X214261904Y-60137295D01*
X214261904Y-60137295D02*
X214338095Y-60137295D01*
X214338095Y-60137295D02*
X214452380Y-60175390D01*
X214452380Y-60175390D02*
X214490476Y-60213485D01*
X212528571Y-81257295D02*
X212528571Y-80457295D01*
X212528571Y-80457295D02*
X212833333Y-80457295D01*
X212833333Y-80457295D02*
X212909523Y-80495390D01*
X212909523Y-80495390D02*
X212947618Y-80533485D01*
X212947618Y-80533485D02*
X212985714Y-80609676D01*
X212985714Y-80609676D02*
X212985714Y-80723961D01*
X212985714Y-80723961D02*
X212947618Y-80800152D01*
X212947618Y-80800152D02*
X212909523Y-80838247D01*
X212909523Y-80838247D02*
X212833333Y-80876342D01*
X212833333Y-80876342D02*
X212528571Y-80876342D01*
X213747618Y-81257295D02*
X213290475Y-81257295D01*
X213519047Y-81257295D02*
X213519047Y-80457295D01*
X213519047Y-80457295D02*
X213442856Y-80571580D01*
X213442856Y-80571580D02*
X213366666Y-80647771D01*
X213366666Y-80647771D02*
X213290475Y-80685866D01*
X214242857Y-80457295D02*
X214319047Y-80457295D01*
X214319047Y-80457295D02*
X214395238Y-80495390D01*
X214395238Y-80495390D02*
X214433333Y-80533485D01*
X214433333Y-80533485D02*
X214471428Y-80609676D01*
X214471428Y-80609676D02*
X214509523Y-80762057D01*
X214509523Y-80762057D02*
X214509523Y-80952533D01*
X214509523Y-80952533D02*
X214471428Y-81104914D01*
X214471428Y-81104914D02*
X214433333Y-81181104D01*
X214433333Y-81181104D02*
X214395238Y-81219200D01*
X214395238Y-81219200D02*
X214319047Y-81257295D01*
X214319047Y-81257295D02*
X214242857Y-81257295D01*
X214242857Y-81257295D02*
X214166666Y-81219200D01*
X214166666Y-81219200D02*
X214128571Y-81181104D01*
X214128571Y-81181104D02*
X214090476Y-81104914D01*
X214090476Y-81104914D02*
X214052380Y-80952533D01*
X214052380Y-80952533D02*
X214052380Y-80762057D01*
X214052380Y-80762057D02*
X214090476Y-80609676D01*
X214090476Y-80609676D02*
X214128571Y-80533485D01*
X214128571Y-80533485D02*
X214166666Y-80495390D01*
X214166666Y-80495390D02*
X214242857Y-80457295D01*
X213674819Y-92237969D02*
X212674819Y-92237969D01*
X212674819Y-92237969D02*
X212674819Y-91857017D01*
X212674819Y-91857017D02*
X212722438Y-91761779D01*
X212722438Y-91761779D02*
X212770057Y-91714160D01*
X212770057Y-91714160D02*
X212865295Y-91666541D01*
X212865295Y-91666541D02*
X213008152Y-91666541D01*
X213008152Y-91666541D02*
X213103390Y-91714160D01*
X213103390Y-91714160D02*
X213151009Y-91761779D01*
X213151009Y-91761779D02*
X213198628Y-91857017D01*
X213198628Y-91857017D02*
X213198628Y-92237969D01*
X212770057Y-91285588D02*
X212722438Y-91237969D01*
X212722438Y-91237969D02*
X212674819Y-91142731D01*
X212674819Y-91142731D02*
X212674819Y-90904636D01*
X212674819Y-90904636D02*
X212722438Y-90809398D01*
X212722438Y-90809398D02*
X212770057Y-90761779D01*
X212770057Y-90761779D02*
X212865295Y-90714160D01*
X212865295Y-90714160D02*
X212960533Y-90714160D01*
X212960533Y-90714160D02*
X213103390Y-90761779D01*
X213103390Y-90761779D02*
X213674819Y-91333207D01*
X213674819Y-91333207D02*
X213674819Y-90714160D01*
X217904819Y-93285588D02*
X218904819Y-92952255D01*
X218904819Y-92952255D02*
X217904819Y-92618922D01*
X218809580Y-91714160D02*
X218857200Y-91761779D01*
X218857200Y-91761779D02*
X218904819Y-91904636D01*
X218904819Y-91904636D02*
X218904819Y-91999874D01*
X218904819Y-91999874D02*
X218857200Y-92142731D01*
X218857200Y-92142731D02*
X218761961Y-92237969D01*
X218761961Y-92237969D02*
X218666723Y-92285588D01*
X218666723Y-92285588D02*
X218476247Y-92333207D01*
X218476247Y-92333207D02*
X218333390Y-92333207D01*
X218333390Y-92333207D02*
X218142914Y-92285588D01*
X218142914Y-92285588D02*
X218047676Y-92237969D01*
X218047676Y-92237969D02*
X217952438Y-92142731D01*
X217952438Y-92142731D02*
X217904819Y-91999874D01*
X217904819Y-91999874D02*
X217904819Y-91904636D01*
X217904819Y-91904636D02*
X217952438Y-91761779D01*
X217952438Y-91761779D02*
X218000057Y-91714160D01*
X218809580Y-90714160D02*
X218857200Y-90761779D01*
X218857200Y-90761779D02*
X218904819Y-90904636D01*
X218904819Y-90904636D02*
X218904819Y-90999874D01*
X218904819Y-90999874D02*
X218857200Y-91142731D01*
X218857200Y-91142731D02*
X218761961Y-91237969D01*
X218761961Y-91237969D02*
X218666723Y-91285588D01*
X218666723Y-91285588D02*
X218476247Y-91333207D01*
X218476247Y-91333207D02*
X218333390Y-91333207D01*
X218333390Y-91333207D02*
X218142914Y-91285588D01*
X218142914Y-91285588D02*
X218047676Y-91237969D01*
X218047676Y-91237969D02*
X217952438Y-91142731D01*
X217952438Y-91142731D02*
X217904819Y-90999874D01*
X217904819Y-90999874D02*
X217904819Y-90904636D01*
X217904819Y-90904636D02*
X217952438Y-90761779D01*
X217952438Y-90761779D02*
X218000057Y-90714160D01*
X220422438Y-92809398D02*
X220374819Y-92904636D01*
X220374819Y-92904636D02*
X220374819Y-93047493D01*
X220374819Y-93047493D02*
X220422438Y-93190350D01*
X220422438Y-93190350D02*
X220517676Y-93285588D01*
X220517676Y-93285588D02*
X220612914Y-93333207D01*
X220612914Y-93333207D02*
X220803390Y-93380826D01*
X220803390Y-93380826D02*
X220946247Y-93380826D01*
X220946247Y-93380826D02*
X221136723Y-93333207D01*
X221136723Y-93333207D02*
X221231961Y-93285588D01*
X221231961Y-93285588D02*
X221327200Y-93190350D01*
X221327200Y-93190350D02*
X221374819Y-93047493D01*
X221374819Y-93047493D02*
X221374819Y-92952255D01*
X221374819Y-92952255D02*
X221327200Y-92809398D01*
X221327200Y-92809398D02*
X221279580Y-92761779D01*
X221279580Y-92761779D02*
X220946247Y-92761779D01*
X220946247Y-92761779D02*
X220946247Y-92952255D01*
X221374819Y-92333207D02*
X220374819Y-92333207D01*
X220374819Y-92333207D02*
X221374819Y-91761779D01*
X221374819Y-91761779D02*
X220374819Y-91761779D01*
X221374819Y-91285588D02*
X220374819Y-91285588D01*
X220374819Y-91285588D02*
X220374819Y-91047493D01*
X220374819Y-91047493D02*
X220422438Y-90904636D01*
X220422438Y-90904636D02*
X220517676Y-90809398D01*
X220517676Y-90809398D02*
X220612914Y-90761779D01*
X220612914Y-90761779D02*
X220803390Y-90714160D01*
X220803390Y-90714160D02*
X220946247Y-90714160D01*
X220946247Y-90714160D02*
X221136723Y-90761779D01*
X221136723Y-90761779D02*
X221231961Y-90809398D01*
X221231961Y-90809398D02*
X221327200Y-90904636D01*
X221327200Y-90904636D02*
X221374819Y-91047493D01*
X221374819Y-91047493D02*
X221374819Y-91285588D01*
X223874819Y-92237969D02*
X222874819Y-92237969D01*
X222874819Y-92237969D02*
X222874819Y-91857017D01*
X222874819Y-91857017D02*
X222922438Y-91761779D01*
X222922438Y-91761779D02*
X222970057Y-91714160D01*
X222970057Y-91714160D02*
X223065295Y-91666541D01*
X223065295Y-91666541D02*
X223208152Y-91666541D01*
X223208152Y-91666541D02*
X223303390Y-91714160D01*
X223303390Y-91714160D02*
X223351009Y-91761779D01*
X223351009Y-91761779D02*
X223398628Y-91857017D01*
X223398628Y-91857017D02*
X223398628Y-92237969D01*
X223874819Y-90714160D02*
X223874819Y-91285588D01*
X223874819Y-90999874D02*
X222874819Y-90999874D01*
X222874819Y-90999874D02*
X223017676Y-91095112D01*
X223017676Y-91095112D02*
X223112914Y-91190350D01*
X223112914Y-91190350D02*
X223160533Y-91285588D01*
X216274819Y-92237969D02*
X215274819Y-92237969D01*
X215274819Y-92237969D02*
X215274819Y-91857017D01*
X215274819Y-91857017D02*
X215322438Y-91761779D01*
X215322438Y-91761779D02*
X215370057Y-91714160D01*
X215370057Y-91714160D02*
X215465295Y-91666541D01*
X215465295Y-91666541D02*
X215608152Y-91666541D01*
X215608152Y-91666541D02*
X215703390Y-91714160D01*
X215703390Y-91714160D02*
X215751009Y-91761779D01*
X215751009Y-91761779D02*
X215798628Y-91857017D01*
X215798628Y-91857017D02*
X215798628Y-92237969D01*
X215274819Y-91333207D02*
X215274819Y-90714160D01*
X215274819Y-90714160D02*
X215655771Y-91047493D01*
X215655771Y-91047493D02*
X215655771Y-90904636D01*
X215655771Y-90904636D02*
X215703390Y-90809398D01*
X215703390Y-90809398D02*
X215751009Y-90761779D01*
X215751009Y-90761779D02*
X215846247Y-90714160D01*
X215846247Y-90714160D02*
X216084342Y-90714160D01*
X216084342Y-90714160D02*
X216179580Y-90761779D01*
X216179580Y-90761779D02*
X216227200Y-90809398D01*
X216227200Y-90809398D02*
X216274819Y-90904636D01*
X216274819Y-90904636D02*
X216274819Y-91190350D01*
X216274819Y-91190350D02*
X216227200Y-91285588D01*
X216227200Y-91285588D02*
X216179580Y-91333207D01*
%TO.C,B1*%
X228227500Y-57260000D02*
X228227500Y-54760000D01*
X229727500Y-53260000D02*
X228227500Y-54760000D01*
X229727500Y-53260000D02*
X232227500Y-53260000D01*
X229727500Y-58760000D02*
X228227500Y-57260000D01*
X229727500Y-58760000D02*
X232227500Y-58760000D01*
X232227500Y-53260000D02*
X233727500Y-54760000D01*
X232227500Y-58760000D02*
X233727500Y-57260000D01*
X233727500Y-57260000D02*
X233727500Y-54760000D01*
D11*
%TO.C,D1*%
X99250000Y-105000000D02*
X99650000Y-105000000D01*
X99650000Y-105000000D02*
X99650000Y-104450000D01*
X99650000Y-105000000D02*
X99650000Y-105550000D01*
X99650000Y-105000000D02*
X100250000Y-104600000D01*
X100250000Y-104600000D02*
X100250000Y-105400000D01*
X100250000Y-105000000D02*
X100750000Y-105000000D01*
X100250000Y-105400000D02*
X99650000Y-105000000D01*
%TO.C,D9*%
X156400000Y-97500000D02*
X156800000Y-97500000D01*
X156800000Y-97500000D02*
X156800000Y-96950000D01*
X156800000Y-97500000D02*
X156800000Y-98050000D01*
X156800000Y-97500000D02*
X157400000Y-97100000D01*
X157400000Y-97100000D02*
X157400000Y-97900000D01*
X157400000Y-97500000D02*
X157900000Y-97500000D01*
X157400000Y-97900000D02*
X156800000Y-97500000D01*
D10*
%TO.C,JST1*%
X228350000Y-78572500D02*
X228350000Y-86172500D01*
X228350000Y-86172500D02*
X229050000Y-86172500D01*
X229050000Y-84572500D02*
X233550000Y-84572500D01*
X229050000Y-86172500D02*
X229050000Y-84572500D01*
X232300000Y-83322500D02*
X232300000Y-82822500D01*
X232550000Y-83072500D02*
X232050000Y-83072500D01*
X233550000Y-84572500D02*
X233550000Y-86172500D01*
X233550000Y-86172500D02*
X234250000Y-86172500D01*
X234250000Y-78572500D02*
X228350000Y-78572500D01*
X234250000Y-86172500D02*
X234250000Y-78572500D01*
%TO.C,MCU1*%
X209410000Y-49145000D02*
X209410000Y-82165000D01*
X209410000Y-82165000D02*
X227190000Y-82165000D01*
X211950000Y-51685000D02*
X209410000Y-51685000D01*
X211950000Y-51685000D02*
X211950000Y-54225000D01*
X211950000Y-54225000D02*
X209410000Y-54225000D01*
X227190000Y-49145000D02*
X209410000Y-49145000D01*
X227190000Y-82165000D02*
X227190000Y-49145000D01*
D11*
%TO.C,D18*%
X187231461Y-127185515D02*
X187617831Y-127289042D01*
X187617831Y-127289042D02*
X187475480Y-127820303D01*
X187617831Y-127289042D02*
X187760181Y-126757783D01*
X187617831Y-127289042D02*
X188300914Y-127057963D01*
X188093859Y-127830704D02*
X187617831Y-127289042D01*
X188197386Y-127444334D02*
X188680349Y-127573743D01*
X188300914Y-127057963D02*
X188093859Y-127830704D01*
%TO.C,D16*%
X194500000Y-83450000D02*
X194900000Y-83450000D01*
X194900000Y-83450000D02*
X194900000Y-82900000D01*
X194900000Y-83450000D02*
X194900000Y-84000000D01*
X194900000Y-83450000D02*
X195500000Y-83050000D01*
X195500000Y-83050000D02*
X195500000Y-83850000D01*
X195500000Y-83450000D02*
X196000000Y-83450000D01*
X195500000Y-83850000D02*
X194900000Y-83450000D01*
%TO.C,D13*%
X175450000Y-80950000D02*
X175850000Y-80950000D01*
X175850000Y-80950000D02*
X175850000Y-80400000D01*
X175850000Y-80950000D02*
X175850000Y-81500000D01*
X175850000Y-80950000D02*
X176450000Y-80550000D01*
X176450000Y-80550000D02*
X176450000Y-81350000D01*
X176450000Y-80950000D02*
X176950000Y-80950000D01*
X176450000Y-81350000D02*
X175850000Y-80950000D01*
%TO.C,D6*%
X137350000Y-100000000D02*
X137750000Y-100000000D01*
X137750000Y-100000000D02*
X137750000Y-99450000D01*
X137750000Y-100000000D02*
X137750000Y-100550000D01*
X137750000Y-100000000D02*
X138350000Y-99600000D01*
X138350000Y-99600000D02*
X138350000Y-100400000D01*
X138350000Y-100000000D02*
X138850000Y-100000000D01*
X138350000Y-100400000D02*
X137750000Y-100000000D01*
%TO.C,D15*%
X194500000Y-102500000D02*
X194900000Y-102500000D01*
X194900000Y-102500000D02*
X194900000Y-101950000D01*
X194900000Y-102500000D02*
X194900000Y-103050000D01*
X194900000Y-102500000D02*
X195500000Y-102100000D01*
X195500000Y-102100000D02*
X195500000Y-102900000D01*
X195500000Y-102500000D02*
X196000000Y-102500000D01*
X195500000Y-102900000D02*
X194900000Y-102500000D01*
%TO.C,D7*%
X137350000Y-80950000D02*
X137750000Y-80950000D01*
X137750000Y-80950000D02*
X137750000Y-80400000D01*
X137750000Y-80950000D02*
X137750000Y-81500000D01*
X137750000Y-80950000D02*
X138350000Y-80550000D01*
X138350000Y-80550000D02*
X138350000Y-81350000D01*
X138350000Y-80950000D02*
X138850000Y-80950000D01*
X138350000Y-81350000D02*
X137750000Y-80950000D01*
%TO.C,D17*%
X194500000Y-64400000D02*
X194900000Y-64400000D01*
X194900000Y-64400000D02*
X194900000Y-63850000D01*
X194900000Y-64400000D02*
X194900000Y-64950000D01*
X194900000Y-64400000D02*
X195500000Y-64000000D01*
X195500000Y-64000000D02*
X195500000Y-64800000D01*
X195500000Y-64400000D02*
X196000000Y-64400000D01*
X195500000Y-64800000D02*
X194900000Y-64400000D01*
%TO.C,D12*%
X175450000Y-100000000D02*
X175850000Y-100000000D01*
X175850000Y-100000000D02*
X175850000Y-99450000D01*
X175850000Y-100000000D02*
X175850000Y-100550000D01*
X175850000Y-100000000D02*
X176450000Y-99600000D01*
X176450000Y-99600000D02*
X176450000Y-100400000D01*
X176450000Y-100000000D02*
X176950000Y-100000000D01*
X176450000Y-100400000D02*
X175850000Y-100000000D01*
D12*
%TO.C,DISP1*%
X211890000Y-87295000D02*
X211890000Y-89955000D01*
X224710000Y-87295000D02*
X211890000Y-87295000D01*
X224710000Y-87295000D02*
X224710000Y-89955000D01*
X224710000Y-89955000D02*
X211890000Y-89955000D01*
D11*
%TO.C,D10*%
X156400000Y-78450000D02*
X156800000Y-78450000D01*
X156800000Y-78450000D02*
X156800000Y-77900000D01*
X156800000Y-78450000D02*
X156800000Y-79000000D01*
X156800000Y-78450000D02*
X157400000Y-78050000D01*
X157400000Y-78050000D02*
X157400000Y-78850000D01*
X157400000Y-78450000D02*
X157900000Y-78450000D01*
X157400000Y-78850000D02*
X156800000Y-78450000D01*
%TO.C,D2*%
X99250000Y-85950000D02*
X99650000Y-85950000D01*
X99650000Y-85950000D02*
X99650000Y-85400000D01*
X99650000Y-85950000D02*
X99650000Y-86500000D01*
X99650000Y-85950000D02*
X100250000Y-85550000D01*
X100250000Y-85550000D02*
X100250000Y-86350000D01*
X100250000Y-85950000D02*
X100750000Y-85950000D01*
X100250000Y-86350000D02*
X99650000Y-85950000D01*
%TO.C,D4*%
X118300000Y-85950000D02*
X118700000Y-85950000D01*
X118700000Y-85950000D02*
X118700000Y-85400000D01*
X118700000Y-85950000D02*
X118700000Y-86500000D01*
X118700000Y-85950000D02*
X119300000Y-85550000D01*
X119300000Y-85550000D02*
X119300000Y-86350000D01*
X119300000Y-85950000D02*
X119800000Y-85950000D01*
X119300000Y-86350000D02*
X118700000Y-85950000D01*
%TO.C,D3*%
X118300000Y-105000000D02*
X118700000Y-105000000D01*
X118700000Y-105000000D02*
X118700000Y-104450000D01*
X118700000Y-105000000D02*
X118700000Y-105550000D01*
X118700000Y-105000000D02*
X119300000Y-104600000D01*
X119300000Y-104600000D02*
X119300000Y-105400000D01*
X119300000Y-105000000D02*
X119800000Y-105000000D01*
X119300000Y-105400000D02*
X118700000Y-105000000D01*
%TO.C,D19*%
X210563318Y-128203365D02*
X211255409Y-128000853D01*
X210869736Y-128460480D02*
X210548342Y-128843502D01*
X211176154Y-128717595D02*
X210563318Y-128203365D01*
X211255409Y-128000853D02*
X210834084Y-127647320D01*
X211255409Y-128000853D02*
X211176154Y-128717595D01*
X211255409Y-128000853D02*
X211676733Y-128354387D01*
X211512524Y-127694436D02*
X211255409Y-128000853D01*
%TO.C,D14*%
X175450000Y-61900000D02*
X175850000Y-61900000D01*
X175850000Y-61900000D02*
X175850000Y-61350000D01*
X175850000Y-61900000D02*
X175850000Y-62450000D01*
X175850000Y-61900000D02*
X176450000Y-61500000D01*
X176450000Y-61500000D02*
X176450000Y-62300000D01*
X176450000Y-61900000D02*
X176950000Y-61900000D01*
X176450000Y-62300000D02*
X175850000Y-61900000D01*
%TO.C,D5*%
X118300000Y-66900000D02*
X118700000Y-66900000D01*
X118700000Y-66900000D02*
X118700000Y-66350000D01*
X118700000Y-66900000D02*
X118700000Y-67450000D01*
X118700000Y-66900000D02*
X119300000Y-66500000D01*
X119300000Y-66500000D02*
X119300000Y-67300000D01*
X119300000Y-66900000D02*
X119800000Y-66900000D01*
X119300000Y-67300000D02*
X118700000Y-66900000D01*
%TO.C,D11*%
X156400000Y-59400000D02*
X156800000Y-59400000D01*
X156800000Y-59400000D02*
X156800000Y-58850000D01*
X156800000Y-59400000D02*
X156800000Y-59950000D01*
X156800000Y-59400000D02*
X157400000Y-59000000D01*
X157400000Y-59000000D02*
X157400000Y-59800000D01*
X157400000Y-59400000D02*
X157900000Y-59400000D01*
X157400000Y-59800000D02*
X156800000Y-59400000D01*
%TO.C,D8*%
X137350000Y-61900000D02*
X137750000Y-61900000D01*
X137750000Y-61900000D02*
X137750000Y-61350000D01*
X137750000Y-61900000D02*
X137750000Y-62450000D01*
X137750000Y-61900000D02*
X138350000Y-61500000D01*
X138350000Y-61500000D02*
X138350000Y-62300000D01*
X138350000Y-61900000D02*
X138850000Y-61900000D01*
X138350000Y-62300000D02*
X137750000Y-61900000D01*
%TO.C,D20*%
X228610051Y-142948706D02*
X229317157Y-142807285D01*
X228892893Y-143231549D02*
X228539340Y-143585102D01*
X229175736Y-143514391D02*
X228610051Y-142948706D01*
X229317157Y-142807285D02*
X228928249Y-142418376D01*
X229317157Y-142807285D02*
X229175736Y-143514391D01*
X229317157Y-142807285D02*
X229706066Y-143196193D01*
X229600000Y-142524442D02*
X229317157Y-142807285D01*
%TD*%
D13*
%TO.C,MCU1*%
X210680000Y-52955000D03*
D14*
X210680000Y-55495000D03*
X210680000Y-58035000D03*
X210680000Y-60575000D03*
X210680000Y-63115000D03*
X210680000Y-65655000D03*
X210680000Y-68195000D03*
X210680000Y-70735000D03*
X210680000Y-73275000D03*
X210680000Y-75815000D03*
X210680000Y-78355000D03*
X210680000Y-80895000D03*
X225920000Y-52955000D03*
X225920000Y-55495000D03*
X225920000Y-58035000D03*
X225920000Y-60575000D03*
X225920000Y-63115000D03*
X225920000Y-65655000D03*
X225920000Y-68195000D03*
X225920000Y-70735000D03*
X225920000Y-73275000D03*
X225920000Y-75815000D03*
X225920000Y-78355000D03*
X225920000Y-80895000D03*
%TD*%
M02*
