%TF.GenerationSoftware,KiCad,Pcbnew,9.0.7*%
%TF.CreationDate,2026-02-06T22:36:50+02:00*%
%TF.ProjectId,juubo_left_finished,6a757562-6f5f-46c6-9566-745f66696e69,v1.0.0*%
%TF.SameCoordinates,Original*%
%TF.FileFunction,Soldermask,Bot*%
%TF.FilePolarity,Negative*%
%FSLAX46Y46*%
G04 Gerber Fmt 4.6, Leading zero omitted, Abs format (unit mm)*
G04 Created by KiCad (PCBNEW 9.0.7) date 2026-02-06 22:36:50*
%MOMM*%
%LPD*%
G01*
G04 APERTURE LIST*
G04 Aperture macros list*
%AMRoundRect*
0 Rectangle with rounded corners*
0 $1 Rounding radius*
0 $2 $3 $4 $5 $6 $7 $8 $9 X,Y pos of 4 corners*
0 Add a 4 corners polygon primitive as box body*
4,1,4,$2,$3,$4,$5,$6,$7,$8,$9,$2,$3,0*
0 Add four circle primitives for the rounded corners*
1,1,$1+$1,$2,$3*
1,1,$1+$1,$4,$5*
1,1,$1+$1,$6,$7*
1,1,$1+$1,$8,$9*
0 Add four rect primitives between the rounded corners*
20,1,$1+$1,$2,$3,$4,$5,0*
20,1,$1+$1,$4,$5,$6,$7,0*
20,1,$1+$1,$6,$7,$8,$9,0*
20,1,$1+$1,$8,$9,$2,$3,0*%
G04 Aperture macros list end*
%ADD10RoundRect,0.050000X-0.450000X-0.450000X0.450000X-0.450000X0.450000X0.450000X-0.450000X0.450000X0*%
%ADD11C,1.100000*%
%ADD12RoundRect,0.050000X-0.450000X-0.625000X0.450000X-0.625000X0.450000X0.625000X-0.450000X0.625000X0*%
%ADD13RoundRect,0.050000X-0.889000X-0.889000X0.889000X-0.889000X0.889000X0.889000X-0.889000X0.889000X0*%
%ADD14RoundRect,0.050000X-0.450000X-0.600000X0.450000X-0.600000X0.450000X0.600000X-0.450000X0.600000X0*%
%ADD15C,2.005000*%
%ADD16C,0.800000*%
%ADD17C,4.500000*%
%ADD18C,1.801800*%
%ADD19C,3.100000*%
%ADD20C,4.087800*%
%ADD21RoundRect,0.050000X-1.275000X-1.250000X1.275000X-1.250000X1.275000X1.250000X-1.275000X1.250000X0*%
%ADD22RoundRect,0.050000X0.600000X0.850000X-0.600000X0.850000X-0.600000X-0.850000X0.600000X-0.850000X0*%
%ADD23O,1.300000X1.800000*%
%ADD24RoundRect,0.050000X-1.555079X-0.877413X0.908032X-1.537402X1.555079X0.877413X-0.908032X1.537402X0*%
%ADD25RoundRect,0.050000X-0.876300X0.876300X-0.876300X-0.876300X0.876300X-0.876300X0.876300X0.876300X0*%
%ADD26C,1.852600*%
%ADD27RoundRect,0.050000X0.017678X1.785445X-1.785445X-0.017678X-0.017678X-1.785445X1.785445X0.017678X0*%
%ADD28RoundRect,0.050000X-1.088798X-0.628618X0.628618X-1.088798X1.088798X0.628618X-0.628618X1.088798X0*%
%ADD29RoundRect,0.050000X-0.589958X-0.463087X0.279375X-0.696024X0.589958X0.463087X-0.279375X0.696024X0*%
%ADD30O,1.800000X1.800000*%
%ADD31C,1.800000*%
%ADD32RoundRect,0.050000X-0.109575X1.252452X-1.252452X-0.109575X0.109575X-1.252452X1.252452X0.109575X0*%
%ADD33RoundRect,0.050000X-0.170372X0.730393X-0.748881X0.040953X0.170372X-0.730393X0.748881X-0.040953X0*%
%ADD34RoundRect,0.050000X-0.138001X1.780191X-1.777110X-0.173222X0.138001X-1.780191X1.777110X0.173222X0*%
%ADD35RoundRect,0.050000X0.000000X1.257236X-1.257236X0.000000X0.000000X-1.257236X1.257236X0.000000X0*%
%ADD36RoundRect,0.050000X-0.106066X0.742462X-0.742462X0.106066X0.106066X-0.742462X0.742462X-0.106066X0*%
G04 APERTURE END LIST*
D10*
%TO.C,T1*%
X214600000Y-49310500D03*
X214600000Y-51510500D03*
D11*
X216800000Y-50410500D03*
X219800000Y-50410500D03*
D10*
X222000000Y-49310500D03*
X222000000Y-51510500D03*
D12*
X216050000Y-52485500D03*
X219050000Y-52485500D03*
X220550000Y-52485500D03*
%TD*%
D13*
%TO.C,D1*%
X96190000Y-105000000D03*
D14*
X98350000Y-105000000D03*
X101650000Y-105000000D03*
D15*
X103810000Y-105000000D03*
%TD*%
D16*
%TO.C,_8*%
X184075000Y-85475000D03*
X184558274Y-84308274D03*
X184558274Y-86641726D03*
X185725000Y-83825000D03*
D17*
X185725000Y-85475000D03*
D16*
X185725000Y-87125000D03*
X186891726Y-84308274D03*
X186891726Y-86641726D03*
X187375000Y-85475000D03*
%TD*%
%TO.C,_9*%
X221222500Y-101310000D03*
X221705774Y-100143274D03*
X221705774Y-102476726D03*
X222872500Y-99660000D03*
D17*
X222872500Y-101310000D03*
D16*
X222872500Y-102960000D03*
X224039226Y-100143274D03*
X224039226Y-102476726D03*
X224522500Y-101310000D03*
%TD*%
%TO.C,_3*%
X126925000Y-67615000D03*
X127408274Y-66448274D03*
X127408274Y-68781726D03*
X128575000Y-65965000D03*
D17*
X128575000Y-67615000D03*
D16*
X128575000Y-69265000D03*
X129741726Y-66448274D03*
X129741726Y-68781726D03*
X130225000Y-67615000D03*
%TD*%
D18*
%TO.C,S5*%
X113970000Y-61900000D03*
D19*
X115240000Y-59360000D03*
D20*
X119050000Y-61900000D03*
D19*
X121590000Y-56820000D03*
D18*
X124130000Y-61900000D03*
D21*
X111965000Y-59360000D03*
X124892000Y-56820000D03*
%TD*%
D18*
%TO.C,S6*%
X133020000Y-95000000D03*
D19*
X134290000Y-92460000D03*
D20*
X138100000Y-95000000D03*
D19*
X140640000Y-89920000D03*
D18*
X143180000Y-95000000D03*
D21*
X131015000Y-92460000D03*
X143942000Y-89920000D03*
%TD*%
D18*
%TO.C,S8*%
X133020000Y-56900000D03*
D19*
X134290000Y-54360000D03*
D20*
X138100000Y-56900000D03*
D19*
X140640000Y-51820000D03*
D18*
X143180000Y-56900000D03*
D21*
X131015000Y-54360000D03*
X143942000Y-51820000D03*
%TD*%
D13*
%TO.C,D9*%
X153340000Y-97500000D03*
D14*
X155500000Y-97500000D03*
X158800000Y-97500000D03*
D15*
X160960000Y-97500000D03*
%TD*%
D22*
%TO.C,JST1*%
X232300000Y-84822500D03*
D23*
X230300000Y-84822500D03*
%TD*%
D18*
%TO.C,S18*%
X184343097Y-121235199D03*
D19*
X186227223Y-119110448D03*
D20*
X189250000Y-122550000D03*
D19*
X193018252Y-118300497D03*
D18*
X194156903Y-123864801D03*
D24*
X183063816Y-118262815D03*
X196207739Y-119155118D03*
%TD*%
D25*
%TO.C,MCU1*%
X210680000Y-52955000D03*
D26*
X210680000Y-55495000D03*
X210680000Y-58035000D03*
X210680000Y-60575000D03*
X210680000Y-63115000D03*
X210680000Y-65655000D03*
X210680000Y-68195000D03*
X210680000Y-70735000D03*
X210680000Y-73275000D03*
X210680000Y-75815000D03*
X210680000Y-78355000D03*
X210680000Y-80895000D03*
X225920000Y-52955000D03*
X225920000Y-55495000D03*
X225920000Y-58035000D03*
X225920000Y-60575000D03*
X225920000Y-63115000D03*
X225920000Y-65655000D03*
X225920000Y-68195000D03*
X225920000Y-70735000D03*
X225920000Y-73275000D03*
X225920000Y-75815000D03*
X225920000Y-78355000D03*
X225920000Y-80895000D03*
%TD*%
D18*
%TO.C,S20*%
X236197306Y-142998204D03*
D19*
X237095332Y-145692280D03*
D20*
X232605204Y-146590306D03*
D19*
X234401255Y-151978460D03*
D18*
X229013102Y-150182408D03*
D27*
X239411107Y-143376506D03*
X232066389Y-154313326D03*
%TD*%
D28*
%TO.C,D18*%
X184275728Y-126393527D03*
D29*
X186362127Y-126952579D03*
X189549683Y-127806679D03*
D15*
X191636082Y-128365731D03*
%TD*%
D18*
%TO.C,S11*%
X152070000Y-54400000D03*
D19*
X153340000Y-51860000D03*
D20*
X157150000Y-54400000D03*
D19*
X159690000Y-49320000D03*
D18*
X162230000Y-54400000D03*
D21*
X150065000Y-51860000D03*
X162992000Y-49320000D03*
%TD*%
D13*
%TO.C,D16*%
X191440000Y-83450000D03*
D14*
X193600000Y-83450000D03*
X196900000Y-83450000D03*
D15*
X199060000Y-83450000D03*
%TD*%
D13*
%TO.C,D13*%
X172390000Y-80950000D03*
D14*
X174550000Y-80950000D03*
X177850000Y-80950000D03*
D15*
X180010000Y-80950000D03*
%TD*%
D13*
%TO.C,D6*%
X134290000Y-100000000D03*
D14*
X136450000Y-100000000D03*
X139750000Y-100000000D03*
D15*
X141910000Y-100000000D03*
%TD*%
D13*
%TO.C,D15*%
X191440000Y-102500000D03*
D14*
X193600000Y-102500000D03*
X196900000Y-102500000D03*
D15*
X199060000Y-102500000D03*
%TD*%
D18*
%TO.C,S9*%
X152070000Y-92500000D03*
D19*
X153340000Y-89960000D03*
D20*
X157150000Y-92500000D03*
D19*
X159690000Y-87420000D03*
D18*
X162230000Y-92500000D03*
D21*
X150065000Y-89960000D03*
X162992000Y-87420000D03*
%TD*%
D13*
%TO.C,D7*%
X134290000Y-80950000D03*
D14*
X136450000Y-80950000D03*
X139750000Y-80950000D03*
D15*
X141910000Y-80950000D03*
%TD*%
D13*
%TO.C,D17*%
X191440000Y-64400000D03*
D14*
X193600000Y-64400000D03*
X196900000Y-64400000D03*
D15*
X199060000Y-64400000D03*
%TD*%
D18*
%TO.C,S15*%
X190170000Y-97500000D03*
D19*
X191440000Y-94960000D03*
D20*
X195250000Y-97500000D03*
D19*
X197790000Y-92420000D03*
D18*
X200330000Y-97500000D03*
D21*
X188165000Y-94960000D03*
X201092000Y-92420000D03*
%TD*%
D13*
%TO.C,D12*%
X172390000Y-100000000D03*
D14*
X174550000Y-100000000D03*
X177850000Y-100000000D03*
D15*
X180010000Y-100000000D03*
%TD*%
D30*
%TO.C,DISP1*%
X213220000Y-88625000D03*
X215760000Y-88625000D03*
X218300000Y-88625000D03*
X220840000Y-88625000D03*
D31*
X223380000Y-88625000D03*
%TD*%
D16*
%TO.C,_5*%
X126925000Y-86665000D03*
X127408274Y-85498274D03*
X127408274Y-87831726D03*
X128575000Y-85015000D03*
D17*
X128575000Y-86665000D03*
D16*
X128575000Y-88315000D03*
X129741726Y-85498274D03*
X129741726Y-87831726D03*
X130225000Y-86665000D03*
%TD*%
D18*
%TO.C,S16*%
X190170000Y-78450000D03*
D19*
X191440000Y-75910000D03*
D20*
X195250000Y-78450000D03*
D19*
X197790000Y-73370000D03*
D18*
X200330000Y-78450000D03*
D21*
X188165000Y-75910000D03*
X201092000Y-73370000D03*
%TD*%
D18*
%TO.C,S7*%
X133020000Y-75950000D03*
D19*
X134290000Y-73410000D03*
D20*
X138100000Y-75950000D03*
D19*
X140640000Y-70870000D03*
D18*
X143180000Y-75950000D03*
D21*
X131015000Y-73410000D03*
X143942000Y-70870000D03*
%TD*%
D13*
%TO.C,D10*%
X153340000Y-78450000D03*
D14*
X155500000Y-78450000D03*
X158800000Y-78450000D03*
D15*
X160960000Y-78450000D03*
%TD*%
D13*
%TO.C,D2*%
X96190000Y-85950000D03*
D14*
X98350000Y-85950000D03*
X101650000Y-85950000D03*
D15*
X103810000Y-85950000D03*
%TD*%
D16*
%TO.C,_6*%
X202015994Y-120054036D03*
X202784772Y-119052144D03*
X202180830Y-121306086D03*
X204036822Y-118887308D03*
D17*
X203609772Y-120481086D03*
D16*
X203182722Y-122074864D03*
X205038714Y-119656086D03*
X204434772Y-121910028D03*
X205203550Y-120908136D03*
%TD*%
D13*
%TO.C,D4*%
X115240000Y-85950000D03*
D14*
X117400000Y-85950000D03*
X120700000Y-85950000D03*
D15*
X122860000Y-85950000D03*
%TD*%
D13*
%TO.C,D3*%
X115240000Y-105000000D03*
D14*
X117400000Y-105000000D03*
X120700000Y-105000000D03*
D15*
X122860000Y-105000000D03*
%TD*%
D18*
%TO.C,S17*%
X190170000Y-59400000D03*
D19*
X191440000Y-56860000D03*
D20*
X195250000Y-59400000D03*
D19*
X197790000Y-54320000D03*
D18*
X200330000Y-59400000D03*
D21*
X188165000Y-56860000D03*
X201092000Y-54320000D03*
%TD*%
D18*
%TO.C,S1*%
X94920000Y-100000000D03*
D19*
X96190000Y-97460000D03*
D20*
X100000000Y-100000000D03*
D19*
X102540000Y-94920000D03*
D18*
X105080000Y-100000000D03*
D21*
X92915000Y-97460000D03*
X105842000Y-94920000D03*
%TD*%
D18*
%TO.C,S10*%
X152070000Y-73450000D03*
D19*
X153340000Y-70910000D03*
D20*
X157150000Y-73450000D03*
D19*
X159690000Y-68370000D03*
D18*
X162230000Y-73450000D03*
D21*
X150065000Y-70910000D03*
X162992000Y-68370000D03*
%TD*%
D16*
%TO.C,_1*%
X96445000Y-91427500D03*
X96928274Y-90260774D03*
X96928274Y-92594226D03*
X98095000Y-89777500D03*
D17*
X98095000Y-91427500D03*
D16*
X98095000Y-93077500D03*
X99261726Y-90260774D03*
X99261726Y-92594226D03*
X99745000Y-91427500D03*
%TD*%
%TO.C,_2*%
X98350000Y-67615000D03*
X98833274Y-66448274D03*
X98833274Y-68781726D03*
X100000000Y-65965000D03*
D17*
X100000000Y-67615000D03*
D16*
X100000000Y-69265000D03*
X101166726Y-66448274D03*
X101166726Y-68781726D03*
X101650000Y-67615000D03*
%TD*%
D18*
%TO.C,S2*%
X94920000Y-80950000D03*
D19*
X96190000Y-78410000D03*
D20*
X100000000Y-80950000D03*
D19*
X102540000Y-75870000D03*
D18*
X105080000Y-80950000D03*
D21*
X92915000Y-78410000D03*
X105842000Y-75870000D03*
%TD*%
D18*
%TO.C,S13*%
X171120000Y-75950000D03*
D19*
X172390000Y-73410000D03*
D20*
X176200000Y-75950000D03*
D19*
X178740000Y-70870000D03*
D18*
X181280000Y-75950000D03*
D21*
X169115000Y-73410000D03*
X182042000Y-70870000D03*
%TD*%
D16*
%TO.C,_7*%
X227036738Y-138688388D03*
X227520012Y-139855114D03*
X225870012Y-138205114D03*
X227036738Y-141021840D03*
D17*
X225870012Y-139855114D03*
D16*
X224703286Y-138688388D03*
X225870012Y-141505114D03*
X224220012Y-139855114D03*
X224703286Y-141021840D03*
%TD*%
D18*
%TO.C,S12*%
X171120000Y-95000000D03*
D19*
X172390000Y-92460000D03*
D20*
X176200000Y-95000000D03*
D19*
X178740000Y-89920000D03*
D18*
X181280000Y-95000000D03*
D21*
X169115000Y-92460000D03*
X182042000Y-89920000D03*
%TD*%
D32*
%TO.C,D19*%
X213479454Y-125350340D03*
D33*
X212091033Y-127004996D03*
X209969833Y-129532942D03*
D15*
X208581412Y-131187598D03*
%TD*%
D13*
%TO.C,D14*%
X172390000Y-61900000D03*
D14*
X174550000Y-61900000D03*
X177850000Y-61900000D03*
D15*
X180010000Y-61900000D03*
%TD*%
D13*
%TO.C,D5*%
X115240000Y-66900000D03*
D14*
X117400000Y-66900000D03*
X120700000Y-66900000D03*
D15*
X122860000Y-66900000D03*
%TD*%
D13*
%TO.C,D11*%
X153340000Y-59400000D03*
D14*
X155500000Y-59400000D03*
X158800000Y-59400000D03*
D15*
X160960000Y-59400000D03*
%TD*%
D18*
%TO.C,S19*%
X218126017Y-127591401D03*
D19*
X219255430Y-130196958D03*
D20*
X214860656Y-131482907D03*
D19*
X217119481Y-136694021D03*
D18*
X211595295Y-135374413D03*
D34*
X221360559Y-127688163D03*
X214996997Y-139223500D03*
%TD*%
D16*
%TO.C,_4*%
X184075000Y-62615000D03*
X184558274Y-61448274D03*
X184558274Y-63781726D03*
X185725000Y-60965000D03*
D17*
X185725000Y-62615000D03*
D16*
X185725000Y-64265000D03*
X186891726Y-61448274D03*
X186891726Y-63781726D03*
X187375000Y-62615000D03*
%TD*%
D13*
%TO.C,D8*%
X134290000Y-61900000D03*
D14*
X136450000Y-61900000D03*
X139750000Y-61900000D03*
D15*
X141910000Y-61900000D03*
%TD*%
D35*
%TO.C,D20*%
X231763747Y-140360695D03*
D36*
X230236396Y-141888046D03*
X227902944Y-144221498D03*
D15*
X226375593Y-145748849D03*
%TD*%
D18*
%TO.C,S3*%
X113970000Y-100000000D03*
D19*
X115240000Y-97460000D03*
D20*
X119050000Y-100000000D03*
D19*
X121590000Y-94920000D03*
D18*
X124130000Y-100000000D03*
D21*
X111965000Y-97460000D03*
X124892000Y-94920000D03*
%TD*%
D18*
%TO.C,S4*%
X113970000Y-80950000D03*
D19*
X115240000Y-78410000D03*
D20*
X119050000Y-80950000D03*
D19*
X121590000Y-75870000D03*
D18*
X124130000Y-80950000D03*
D21*
X111965000Y-78410000D03*
X124892000Y-75870000D03*
%TD*%
D18*
%TO.C,S14*%
X171120000Y-56900000D03*
D19*
X172390000Y-54360000D03*
D20*
X176200000Y-56900000D03*
D19*
X178740000Y-51820000D03*
D18*
X181280000Y-56900000D03*
D21*
X169115000Y-54360000D03*
X182042000Y-51820000D03*
%TD*%
M02*
