%TF.GenerationSoftware,KiCad,Pcbnew,7.0.10*%
%TF.CreationDate,2024-01-22T21:55:37+02:00*%
%TF.ProjectId,juubo_left_plate,6a757562-6f5f-46c6-9566-745f706c6174,v1.0.0*%
%TF.SameCoordinates,Original*%
%TF.FileFunction,Profile,NP*%
%FSLAX46Y46*%
G04 Gerber Fmt 4.6, Leading zero omitted, Abs format (unit mm)*
G04 Created by KiCad (PCBNEW 7.0.10) date 2024-01-22 21:55:37*
%MOMM*%
%LPD*%
G01*
G04 APERTURE LIST*
%TA.AperFunction,Profile*%
%ADD10C,0.150000*%
%TD*%
G04 APERTURE END LIST*
D10*
X194947858Y-121621082D02*
X185948831Y-132345705D01*
X93000000Y-107000000D02*
X107000000Y-107000000D01*
X145100000Y-80450000D02*
X145100000Y-66450000D01*
X150150000Y-82950000D02*
X164150000Y-82950000D01*
X131100000Y-61400000D02*
X145100000Y-61400000D01*
X158270912Y-116092186D02*
G75*
G03*
X154358435Y-111163003I-3890512J929286D01*
G01*
X223454699Y-146590306D02*
X213555204Y-136690811D01*
X112050000Y-68950000D02*
X112050000Y-82950000D01*
X205672480Y-130620109D02*
X194947858Y-121621082D01*
X213555204Y-136690811D02*
X203655709Y-146590306D01*
X186296500Y-46667744D02*
X186296500Y-107025000D01*
X164150000Y-63900000D02*
X164150000Y-49900000D01*
X107000000Y-107000000D02*
X107000000Y-93000000D01*
X145100000Y-85500000D02*
X131100000Y-85500000D01*
X183200000Y-104500000D02*
X183200000Y-90500000D01*
X150150000Y-102000000D02*
X164150000Y-102000000D01*
X183200000Y-71450000D02*
X169200000Y-71450000D01*
X91459522Y-49591646D02*
G75*
G03*
X88475000Y-53460615I1015478J-3868954D01*
G01*
X112050000Y-82950000D02*
X126050000Y-82950000D01*
X169200000Y-90500000D02*
X169200000Y-104500000D01*
X155537178Y-127537899D02*
X158270976Y-116092201D01*
X131100000Y-66450000D02*
X131100000Y-80450000D01*
X126050000Y-68950000D02*
X112050000Y-68950000D01*
X107000000Y-87950000D02*
X107000000Y-73950000D01*
X136371889Y-40639656D02*
X186296500Y-46667744D01*
X145100000Y-47400000D02*
X131100000Y-47400000D01*
X126050000Y-102000000D02*
X126050000Y-88000000D01*
X107699253Y-45345381D02*
G75*
G03*
X107354039Y-45419872I670347J-3943719D01*
G01*
X183200000Y-52400000D02*
X169200000Y-52400000D01*
X145100000Y-99500000D02*
X145100000Y-85500000D01*
X164150000Y-49900000D02*
X150150000Y-49900000D01*
X112050000Y-88000000D02*
X112050000Y-102000000D01*
X107000000Y-68900000D02*
X107000000Y-54900000D01*
X112050000Y-49900000D02*
X112050000Y-63900000D01*
X131100000Y-99500000D02*
X145100000Y-99500000D01*
X136371889Y-40639656D02*
G75*
G03*
X135222136Y-40667369I-479489J-3971244D01*
G01*
X126050000Y-63900000D02*
X126050000Y-49900000D01*
X107000000Y-54900000D02*
X93000000Y-54900000D01*
X131100000Y-85500000D02*
X131100000Y-99500000D01*
X150150000Y-49900000D02*
X150150000Y-63900000D01*
X183200000Y-85450000D02*
X183200000Y-71450000D01*
X169200000Y-52400000D02*
X169200000Y-66400000D01*
X169200000Y-85450000D02*
X183200000Y-85450000D01*
X161626786Y-127499748D02*
X175149748Y-131123214D01*
X93000000Y-68900000D02*
X107000000Y-68900000D01*
X131100000Y-47400000D02*
X131100000Y-61400000D01*
X154358435Y-111163003D02*
X92496978Y-111502901D01*
X183200000Y-90500000D02*
X169200000Y-90500000D01*
X88475038Y-107502962D02*
G75*
G03*
X92496978Y-111502902I3999962J-38D01*
G01*
X209325077Y-165452613D02*
X157257711Y-131827361D01*
X131100000Y-80450000D02*
X145100000Y-80450000D01*
X107000000Y-93000000D02*
X93000000Y-93000000D01*
X183200000Y-66400000D02*
X183200000Y-52400000D01*
X145100000Y-61400000D02*
X145100000Y-47400000D01*
X126050000Y-49900000D02*
X112050000Y-49900000D01*
X219696074Y-128106113D02*
X232992932Y-141972346D01*
X169200000Y-104500000D02*
X183200000Y-104500000D01*
X169200000Y-66400000D02*
X183200000Y-66400000D01*
X203655709Y-146590306D02*
X213555204Y-156489801D01*
X112050000Y-102000000D02*
X126050000Y-102000000D01*
X93000000Y-54900000D02*
X93000000Y-68900000D01*
X93000000Y-93000000D02*
X93000000Y-107000000D01*
X213555204Y-156489801D02*
X223454699Y-146590306D01*
X93000000Y-73950000D02*
X93000000Y-87950000D01*
X178773214Y-117600253D02*
X165250253Y-113976786D01*
X169200000Y-71450000D02*
X169200000Y-85450000D01*
X150150000Y-88000000D02*
X150150000Y-102000000D01*
X145100000Y-66450000D02*
X131100000Y-66450000D01*
X164150000Y-102000000D02*
X164150000Y-88000000D01*
X175149748Y-131123214D02*
X178773214Y-117600253D01*
X93000000Y-87950000D02*
X107000000Y-87950000D01*
X232833570Y-147666548D02*
X214222824Y-165018080D01*
X126050000Y-88000000D02*
X112050000Y-88000000D01*
X155537205Y-127537906D02*
G75*
G03*
X157257712Y-131827362I3890495J-929294D01*
G01*
X209325074Y-165452618D02*
G75*
G03*
X214222824Y-165018080I2170026J3360218D01*
G01*
X107000000Y-73950000D02*
X93000000Y-73950000D01*
X126050000Y-82950000D02*
X126050000Y-68950000D01*
X164150000Y-82950000D02*
X164150000Y-68950000D01*
X88475000Y-107502962D02*
X88475000Y-53460615D01*
X185948831Y-132345705D02*
X196673453Y-141344731D01*
X196673453Y-141344731D02*
X205672480Y-130620109D01*
X91459526Y-49591660D02*
X107354039Y-45419872D01*
X165250253Y-113976786D02*
X161626786Y-127499748D01*
X164150000Y-88000000D02*
X150150000Y-88000000D01*
X150150000Y-68950000D02*
X150150000Y-82950000D01*
X112050000Y-63900000D02*
X126050000Y-63900000D01*
X186296500Y-107025000D02*
X219696074Y-128106113D01*
X164150000Y-68950000D02*
X150150000Y-68950000D01*
X150150000Y-63900000D02*
X164150000Y-63900000D01*
X232833591Y-147666571D02*
G75*
G03*
X232992932Y-141972345I-2727691J2925671D01*
G01*
X107699253Y-45345383D02*
X135222136Y-40667369D01*
M02*
