0
SECTION
2
HEADER
9
$INSUNITS
70
4
0
ENDSEC
0
SECTION
2
TABLES
0
TABLE
2
LTYPE
0
LTYPE
72
65
70
64
2
CONTINUOUS
3
______
73
0
40
0
0
ENDTAB
0
TABLE
2
LAYER
0
ENDTAB
0
ENDSEC
0
SECTION
2
ENTITIES
0
LINE
8
0
10
88.475
20
-107.5029616
11
88.475
21
-53.4606148
0
LINE
8
0
10
91.4595264
20
-49.5916597
11
107.354039
21
-45.4198716
0
LINE
8
0
10
107.6992526
20
-45.3453826
11
135.2221364
21
-40.6673686
0
LINE
8
0
10
136.3718892
20
-40.6396558
11
186.2965
21
-46.6677436
0
LINE
8
0
10
217.5814404
20
-125.9009301
11
232.992932
21
-141.9723461
0
LINE
8
0
10
232.8335697
20
-147.6665485
11
214.2228245
21
-165.0180804
0
LINE
8
0
10
209.3250766
20
-165.4526133
11
157.2577111
21
-131.8273612
0
LINE
8
0
10
155.5371777
20
-127.5378986
11
158.2709756
21
-116.0922011
0
LINE
8
0
10
154.3584351
20
-111.1630031
11
92.4969776
21
-111.5029012
0
ARC
8
0
10
92.475
20
-53.4606148
40
4
50
104.7065424
51
180
0
ARC
8
0
10
108.3695126
20
-49.2888267
40
4
50
99.6462734
51
104.7065424
0
ARC
8
0
10
135.8923964
20
-44.6108127
40
4
50
83.1152153
51
99.6462734
0
ARC
8
0
10
220.4685211
20
-123.1323989
40
4
50
219.8511744
51
223.7991755
0
ARC
8
0
10
230.1058512
20
-144.7408772
40
4
50
312.994614
51
43.7991755
0
ARC
8
0
10
211.495106
20
-162.0924091
40
4
50
237.1455103
51
312.994614
0
ARC
8
0
10
159.4277406
20
-128.467157
40
4
50
166.5666197
51
237.1455103
0
ARC
8
0
10
154.3804127
20
-115.1629427
40
4
50
346.5666197
51
90.3148075
0
ARC
8
0
10
92.475
20
-107.5029616
40
4
50
180
51
270.3148075
0
LINE
8
0
10
93
20
-107
11
107
21
-107
0
LINE
8
0
10
107
20
-107
11
107
21
-93
0
LINE
8
0
10
107
20
-93
11
93
21
-93
0
LINE
8
0
10
93
20
-93
11
93
21
-107
0
LINE
8
0
10
93
20
-87.95
11
107
21
-87.95
0
LINE
8
0
10
107
20
-87.95
11
107
21
-73.95
0
LINE
8
0
10
107
20
-73.95
11
93
21
-73.95
0
LINE
8
0
10
93
20
-73.95
11
93
21
-87.95
0
LINE
8
0
10
93
20
-68.9
11
107
21
-68.9
0
LINE
8
0
10
107
20
-68.9
11
107
21
-54.9
0
LINE
8
0
10
107
20
-54.9
11
93
21
-54.9
0
LINE
8
0
10
93
20
-54.9
11
93
21
-68.9
0
LINE
8
0
10
112.05
20
-102
11
126.05
21
-102
0
LINE
8
0
10
126.05
20
-102
11
126.05
21
-88
0
LINE
8
0
10
126.05
20
-88
11
112.05
21
-88
0
LINE
8
0
10
112.05
20
-88
11
112.05
21
-102
0
LINE
8
0
10
112.05
20
-82.95
11
126.05
21
-82.95
0
LINE
8
0
10
126.05
20
-82.95
11
126.05
21
-68.95
0
LINE
8
0
10
126.05
20
-68.95
11
112.05
21
-68.95
0
LINE
8
0
10
112.05
20
-68.95
11
112.05
21
-82.95
0
LINE
8
0
10
112.05
20
-63.9
11
126.05
21
-63.9
0
LINE
8
0
10
126.05
20
-63.9
11
126.05
21
-49.9
0
LINE
8
0
10
126.05
20
-49.9
11
112.05
21
-49.9
0
LINE
8
0
10
112.05
20
-49.9
11
112.05
21
-63.9
0
LINE
8
0
10
131.1
20
-99.5
11
145.1
21
-99.5
0
LINE
8
0
10
145.1
20
-99.5
11
145.1
21
-85.5
0
LINE
8
0
10
145.1
20
-85.5
11
131.1
21
-85.5
0
LINE
8
0
10
131.1
20
-85.5
11
131.1
21
-99.5
0
LINE
8
0
10
131.1
20
-80.45
11
145.1
21
-80.45
0
LINE
8
0
10
145.1
20
-80.45
11
145.1
21
-66.45
0
LINE
8
0
10
145.1
20
-66.45
11
131.1
21
-66.45
0
LINE
8
0
10
131.1
20
-66.45
11
131.1
21
-80.45
0
LINE
8
0
10
131.1
20
-61.4
11
145.1
21
-61.4
0
LINE
8
0
10
145.1
20
-61.4
11
145.1
21
-47.4
0
LINE
8
0
10
145.1
20
-47.4
11
131.1
21
-47.4
0
LINE
8
0
10
131.1
20
-47.4
11
131.1
21
-61.4
0
LINE
8
0
10
150.15
20
-102
11
164.15
21
-102
0
LINE
8
0
10
164.15
20
-102
11
164.15
21
-88
0
LINE
8
0
10
164.15
20
-88
11
150.15
21
-88
0
LINE
8
0
10
150.15
20
-88
11
150.15
21
-102
0
LINE
8
0
10
150.15
20
-82.95
11
164.15
21
-82.95
0
LINE
8
0
10
164.15
20
-82.95
11
164.15
21
-68.95
0
LINE
8
0
10
164.15
20
-68.95
11
150.15
21
-68.95
0
LINE
8
0
10
150.15
20
-68.95
11
150.15
21
-82.95
0
LINE
8
0
10
150.15
20
-63.9
11
164.15
21
-63.9
0
LINE
8
0
10
164.15
20
-63.9
11
164.15
21
-49.9
0
LINE
8
0
10
164.15
20
-49.9
11
150.15
21
-49.9
0
LINE
8
0
10
150.15
20
-49.9
11
150.15
21
-63.9
0
LINE
8
0
10
169.2
20
-104.5
11
183.2
21
-104.5
0
LINE
8
0
10
183.2
20
-104.5
11
183.2
21
-90.5
0
LINE
8
0
10
183.2
20
-90.5
11
169.2
21
-90.5
0
LINE
8
0
10
169.2
20
-90.5
11
169.2
21
-104.5
0
LINE
8
0
10
169.2
20
-85.45
11
183.2
21
-85.45
0
LINE
8
0
10
183.2
20
-85.45
11
183.2
21
-71.45
0
LINE
8
0
10
183.2
20
-71.45
11
169.2
21
-71.45
0
LINE
8
0
10
169.2
20
-71.45
11
169.2
21
-85.45
0
LINE
8
0
10
169.2
20
-66.4
11
183.2
21
-66.4
0
LINE
8
0
10
183.2
20
-66.4
11
183.2
21
-52.4
0
LINE
8
0
10
183.2
20
-52.4
11
169.2
21
-52.4
0
LINE
8
0
10
169.2
20
-52.4
11
169.2
21
-66.4
0
LINE
8
0
10
161.6267859
20
-127.4997475
11
175.1497475
21
-131.1232141
0
LINE
8
0
10
175.1497475
20
-131.1232141
11
178.7732141
21
-117.6002525
0
LINE
8
0
10
178.7732141
20
-117.6002525
11
165.2502525
21
-113.9767859
0
LINE
8
0
10
165.2502525
20
-113.9767859
11
161.6267859
21
-127.4997475
0
LINE
8
0
10
194.9478577
20
-121.6210824
11
185.9488311
21
-132.3457046
0
LINE
8
0
10
185.9488311
20
-132.3457046
11
196.6734533
21
-141.3447312
0
LINE
8
0
10
196.6734533
20
-141.3447312
11
205.6724799
21
-130.620109
0
LINE
8
0
10
205.6724799
20
-130.620109
11
194.9478577
21
-121.6210824
0
LINE
8
0
10
213.5552037
20
-136.6908111
11
203.6557088
21
-146.590306
0
LINE
8
0
10
203.6557088
20
-146.590306
11
213.5552037
21
-156.4898009
0
LINE
8
0
10
213.5552037
20
-156.4898009
11
223.4546986
21
-146.590306
0
LINE
8
0
10
223.4546986
20
-146.590306
11
213.5552037
21
-136.6908111
0
LINE
8
0
10
186.2965
20
-46.6677436
11
186.2965
21
-105.12
0
LINE
8
0
10
186.2965
20
-105.12
11
217.3976751
21
-125.6955815
0
ENDSEC
0
EOF