0
SECTION
2
HEADER
9
$INSUNITS
70
4
0
ENDSEC
0
SECTION
2
TABLES
0
TABLE
2
LTYPE
0
LTYPE
72
65
70
64
2
CONTINUOUS
3
______
73
0
40
0
0
ENDTAB
0
TABLE
2
LAYER
0
ENDTAB
0
ENDSEC
0
SECTION
2
ENTITIES
0
LINE
8
0
10
90.725
20
-109.275
11
109.275
21
-109.275
0
LINE
8
0
10
109.275
20
-109.275
11
109.275
21
-90.725
0
LINE
8
0
10
109.275
20
-90.725
11
90.725
21
-90.725
0
LINE
8
0
10
90.725
20
-90.725
11
90.725
21
-109.275
0
LINE
8
0
10
90.725
20
-90.225
11
109.275
21
-90.225
0
LINE
8
0
10
109.275
20
-90.225
11
109.275
21
-71.675
0
LINE
8
0
10
109.275
20
-71.675
11
90.725
21
-71.675
0
LINE
8
0
10
90.725
20
-71.675
11
90.725
21
-90.225
0
LINE
8
0
10
90.725
20
-71.175
11
109.275
21
-71.175
0
LINE
8
0
10
109.275
20
-71.175
11
109.275
21
-52.625
0
LINE
8
0
10
109.275
20
-52.625
11
90.725
21
-52.625
0
LINE
8
0
10
90.725
20
-52.625
11
90.725
21
-71.175
0
LINE
8
0
10
109.775
20
-104.275
11
128.325
21
-104.275
0
LINE
8
0
10
128.325
20
-104.275
11
128.325
21
-85.725
0
LINE
8
0
10
128.325
20
-85.725
11
109.775
21
-85.725
0
LINE
8
0
10
109.775
20
-85.725
11
109.775
21
-104.275
0
LINE
8
0
10
109.775
20
-85.225
11
128.325
21
-85.225
0
LINE
8
0
10
128.325
20
-85.225
11
128.325
21
-66.675
0
LINE
8
0
10
128.325
20
-66.675
11
109.775
21
-66.675
0
LINE
8
0
10
109.775
20
-66.675
11
109.775
21
-85.225
0
LINE
8
0
10
109.775
20
-66.175
11
128.325
21
-66.175
0
LINE
8
0
10
128.325
20
-66.175
11
128.325
21
-47.625
0
LINE
8
0
10
128.325
20
-47.625
11
109.775
21
-47.625
0
LINE
8
0
10
109.775
20
-47.625
11
109.775
21
-66.175
0
LINE
8
0
10
128.825
20
-101.775
11
147.375
21
-101.775
0
LINE
8
0
10
147.375
20
-101.775
11
147.375
21
-83.225
0
LINE
8
0
10
147.375
20
-83.225
11
128.825
21
-83.225
0
LINE
8
0
10
128.825
20
-83.225
11
128.825
21
-101.775
0
LINE
8
0
10
128.825
20
-82.725
11
147.375
21
-82.725
0
LINE
8
0
10
147.375
20
-82.725
11
147.375
21
-64.175
0
LINE
8
0
10
147.375
20
-64.175
11
128.825
21
-64.175
0
LINE
8
0
10
128.825
20
-64.175
11
128.825
21
-82.725
0
LINE
8
0
10
128.825
20
-63.675
11
147.375
21
-63.675
0
LINE
8
0
10
147.375
20
-63.675
11
147.375
21
-45.125
0
LINE
8
0
10
147.375
20
-45.125
11
128.825
21
-45.125
0
LINE
8
0
10
128.825
20
-45.125
11
128.825
21
-63.675
0
LINE
8
0
10
147.875
20
-104.275
11
166.425
21
-104.275
0
LINE
8
0
10
166.425
20
-104.275
11
166.425
21
-85.725
0
LINE
8
0
10
166.425
20
-85.725
11
147.875
21
-85.725
0
LINE
8
0
10
147.875
20
-85.725
11
147.875
21
-104.275
0
LINE
8
0
10
147.875
20
-85.225
11
166.425
21
-85.225
0
LINE
8
0
10
166.425
20
-85.225
11
166.425
21
-66.675
0
LINE
8
0
10
166.425
20
-66.675
11
147.875
21
-66.675
0
LINE
8
0
10
147.875
20
-66.675
11
147.875
21
-85.225
0
LINE
8
0
10
147.875
20
-66.175
11
166.425
21
-66.175
0
LINE
8
0
10
166.425
20
-66.175
11
166.425
21
-47.625
0
LINE
8
0
10
166.425
20
-47.625
11
147.875
21
-47.625
0
LINE
8
0
10
147.875
20
-47.625
11
147.875
21
-66.175
0
LINE
8
0
10
166.925
20
-106.775
11
185.475
21
-106.775
0
LINE
8
0
10
185.475
20
-106.775
11
185.475
21
-88.225
0
LINE
8
0
10
185.475
20
-88.225
11
166.925
21
-88.225
0
LINE
8
0
10
166.925
20
-88.225
11
166.925
21
-106.775
0
LINE
8
0
10
166.925
20
-87.725
11
185.475
21
-87.725
0
LINE
8
0
10
185.475
20
-87.725
11
185.475
21
-69.175
0
LINE
8
0
10
185.475
20
-69.175
11
166.925
21
-69.175
0
LINE
8
0
10
166.925
20
-69.175
11
166.925
21
-87.725
0
LINE
8
0
10
166.925
20
-68.675
11
185.475
21
-68.675
0
LINE
8
0
10
185.475
20
-68.675
11
185.475
21
-50.125
0
LINE
8
0
10
185.475
20
-50.125
11
166.925
21
-50.125
0
LINE
8
0
10
166.925
20
-50.125
11
166.925
21
-68.675
0
LINE
8
0
10
158.8404913
20
-129.1084154
11
176.7584154
21
-133.9095087
0
LINE
8
0
10
176.7584154
20
-133.9095087
11
181.5595087
21
-115.9915846
0
LINE
8
0
10
181.5595087
20
-115.9915846
11
163.6415846
21
-111.1904913
0
LINE
8
0
10
163.6415846
20
-111.1904913
11
158.8404913
21
-129.1084154
0
LINE
8
0
10
194.6674484
20
-118.4159895
11
182.7437382
21
-132.6261139
0
LINE
8
0
10
182.7437382
20
-132.6261139
11
196.9538626
21
-144.5498241
0
LINE
8
0
10
196.9538626
20
-144.5498241
11
208.8775728
21
-130.3396997
0
LINE
8
0
10
208.8775728
20
-130.3396997
11
194.6674484
21
-118.4159895
0
LINE
8
0
10
213.5552037
20
-133.4734752
11
200.4383729
21
-146.590306
0
LINE
8
0
10
200.4383729
20
-146.590306
11
213.5552037
21
-159.7071368
0
LINE
8
0
10
213.5552037
20
-159.7071368
11
226.6720345
21
-146.590306
0
LINE
8
0
10
226.6720345
20
-146.590306
11
213.5552037
21
-133.4734752
0
ENDSEC
0
EOF