0
SECTION
2
HEADER
9
$INSUNITS
70
4
0
ENDSEC
0
SECTION
2
TABLES
0
TABLE
2
LTYPE
0
LTYPE
72
65
70
64
2
CONTINUOUS
3
______
73
0
40
0
0
ENDTAB
0
TABLE
2
LAYER
0
ENDTAB
0
ENDSEC
0
SECTION
2
ENTITIES
0
LINE
8
0
10
88.475
20
-111.525
11
111.525
21
-111.525
0
LINE
8
0
10
111.525
20
-111.525
11
111.525
21
-106.525
0
LINE
8
0
10
88.475
20
-111.525
11
88.475
21
-50.375
0
LINE
8
0
10
107.525
20
-50.375
11
88.475
21
-50.375
0
LINE
8
0
10
111.525
20
-106.525
11
130.575
21
-106.525
0
LINE
8
0
10
130.575
20
-106.525
11
130.575
21
-104.025
0
LINE
8
0
10
126.575
20
-45.375
11
107.525
21
-45.375
0
LINE
8
0
10
107.525
20
-45.375
11
107.525
21
-50.375
0
LINE
8
0
10
130.575
20
-104.025
11
145.625
21
-104.025
0
LINE
8
0
10
149.625
20
-45.375
11
149.625
21
-42.875
0
LINE
8
0
10
149.625
20
-42.875
11
126.575
21
-42.875
0
LINE
8
0
10
126.575
20
-42.875
11
126.575
21
-45.375
0
LINE
8
0
10
145.625
20
-106.525
11
164.675
21
-106.525
0
LINE
8
0
10
145.625
20
-104.025
11
145.625
21
-106.525
0
LINE
8
0
10
168.675
20
-47.875
11
168.675
21
-45.375
0
LINE
8
0
10
168.675
20
-45.375
11
149.625
21
-45.375
0
LINE
8
0
10
164.675
20
-109.025
11
187.725
21
-109.025
0
LINE
8
0
10
187.725
20
-109.025
11
187.725
21
-47.875
0
LINE
8
0
10
164.675
20
-106.525
11
164.675
21
-109.025
0
LINE
8
0
10
187.725
20
-47.875
11
168.675
21
-47.875
0
LINE
8
0
10
156.0848154
20
-130.6994057
11
178.3494057
21
-136.6651846
0
LINE
8
0
10
178.3494057
20
-136.6651846
11
184.3151846
21
-114.4005943
0
LINE
8
0
10
184.3151846
20
-114.4005943
11
162.0505943
21
-108.4348154
0
LINE
8
0
10
162.0505943
20
-108.4348154
11
156.0848154
21
-130.6994057
0
LINE
8
0
10
194.3901205
20
-115.2461174
11
179.5738661
21
-132.9034418
0
LINE
8
0
10
179.5738661
20
-132.9034418
11
197.2311905
21
-147.7196962
0
LINE
8
0
10
197.2311905
20
-147.7196962
11
197.7579797
21
-147.0918933
0
LINE
8
0
10
202.9895614
20
-140.857137
11
212.0474449
21
-130.0623718
0
LINE
8
0
10
212.0474449
20
-130.0623718
11
194.3901205
21
-115.2461174
0
LINE
8
0
10
213.5552037
20
-130.2914947
11
202.9895614
21
-140.857137
0
LINE
8
0
10
197.7579797
20
-147.0918933
11
213.5552037
21
-162.8891173
0
LINE
8
0
10
213.5552037
20
-162.8891173
11
229.854015
21
-146.590306
0
LINE
8
0
10
229.854015
20
-146.590306
11
213.5552037
21
-130.2914947
0
ENDSEC
0
EOF