0
SECTION
2
HEADER
9
$INSUNITS
70
4
0
ENDSEC
0
SECTION
2
TABLES
0
TABLE
2
LTYPE
0
LTYPE
72
65
70
64
2
CONTINUOUS
3
______
73
0
40
0
0
ENDTAB
0
TABLE
2
LAYER
0
ENDTAB
0
ENDSEC
0
SECTION
2
ENTITIES
0
LINE
8
0
10
93
20
-107
11
107
21
-107
0
LINE
8
0
10
107
20
-107
11
107
21
-93
0
LINE
8
0
10
107
20
-93
11
93
21
-93
0
LINE
8
0
10
93
20
-93
11
93
21
-107
0
LINE
8
0
10
93
20
-87.95
11
107
21
-87.95
0
LINE
8
0
10
107
20
-87.95
11
107
21
-73.95
0
LINE
8
0
10
107
20
-73.95
11
93
21
-73.95
0
LINE
8
0
10
93
20
-73.95
11
93
21
-87.95
0
LINE
8
0
10
93
20
-68.9
11
107
21
-68.9
0
LINE
8
0
10
107
20
-68.9
11
107
21
-54.9
0
LINE
8
0
10
107
20
-54.9
11
93
21
-54.9
0
LINE
8
0
10
93
20
-54.9
11
93
21
-68.9
0
LINE
8
0
10
112.05
20
-102
11
126.05
21
-102
0
LINE
8
0
10
126.05
20
-102
11
126.05
21
-88
0
LINE
8
0
10
126.05
20
-88
11
112.05
21
-88
0
LINE
8
0
10
112.05
20
-88
11
112.05
21
-102
0
LINE
8
0
10
112.05
20
-82.95
11
126.05
21
-82.95
0
LINE
8
0
10
126.05
20
-82.95
11
126.05
21
-68.95
0
LINE
8
0
10
126.05
20
-68.95
11
112.05
21
-68.95
0
LINE
8
0
10
112.05
20
-68.95
11
112.05
21
-82.95
0
LINE
8
0
10
112.05
20
-63.9
11
126.05
21
-63.9
0
LINE
8
0
10
126.05
20
-63.9
11
126.05
21
-49.9
0
LINE
8
0
10
126.05
20
-49.9
11
112.05
21
-49.9
0
LINE
8
0
10
112.05
20
-49.9
11
112.05
21
-63.9
0
LINE
8
0
10
131.1
20
-99.5
11
145.1
21
-99.5
0
LINE
8
0
10
145.1
20
-99.5
11
145.1
21
-85.5
0
LINE
8
0
10
145.1
20
-85.5
11
131.1
21
-85.5
0
LINE
8
0
10
131.1
20
-85.5
11
131.1
21
-99.5
0
LINE
8
0
10
131.1
20
-80.45
11
145.1
21
-80.45
0
LINE
8
0
10
145.1
20
-80.45
11
145.1
21
-66.45
0
LINE
8
0
10
145.1
20
-66.45
11
131.1
21
-66.45
0
LINE
8
0
10
131.1
20
-66.45
11
131.1
21
-80.45
0
LINE
8
0
10
131.1
20
-61.4
11
145.1
21
-61.4
0
LINE
8
0
10
145.1
20
-61.4
11
145.1
21
-47.4
0
LINE
8
0
10
145.1
20
-47.4
11
131.1
21
-47.4
0
LINE
8
0
10
131.1
20
-47.4
11
131.1
21
-61.4
0
LINE
8
0
10
150.15
20
-102
11
164.15
21
-102
0
LINE
8
0
10
164.15
20
-102
11
164.15
21
-88
0
LINE
8
0
10
164.15
20
-88
11
150.15
21
-88
0
LINE
8
0
10
150.15
20
-88
11
150.15
21
-102
0
LINE
8
0
10
150.15
20
-82.95
11
164.15
21
-82.95
0
LINE
8
0
10
164.15
20
-82.95
11
164.15
21
-68.95
0
LINE
8
0
10
164.15
20
-68.95
11
150.15
21
-68.95
0
LINE
8
0
10
150.15
20
-68.95
11
150.15
21
-82.95
0
LINE
8
0
10
150.15
20
-63.9
11
164.15
21
-63.9
0
LINE
8
0
10
164.15
20
-63.9
11
164.15
21
-49.9
0
LINE
8
0
10
164.15
20
-49.9
11
150.15
21
-49.9
0
LINE
8
0
10
150.15
20
-49.9
11
150.15
21
-63.9
0
LINE
8
0
10
169.2
20
-104.5
11
183.2
21
-104.5
0
LINE
8
0
10
183.2
20
-104.5
11
183.2
21
-90.5
0
LINE
8
0
10
183.2
20
-90.5
11
169.2
21
-90.5
0
LINE
8
0
10
169.2
20
-90.5
11
169.2
21
-104.5
0
LINE
8
0
10
169.2
20
-85.45
11
183.2
21
-85.45
0
LINE
8
0
10
183.2
20
-85.45
11
183.2
21
-71.45
0
LINE
8
0
10
183.2
20
-71.45
11
169.2
21
-71.45
0
LINE
8
0
10
169.2
20
-71.45
11
169.2
21
-85.45
0
LINE
8
0
10
169.2
20
-66.4
11
183.2
21
-66.4
0
LINE
8
0
10
183.2
20
-66.4
11
183.2
21
-52.4
0
LINE
8
0
10
183.2
20
-52.4
11
169.2
21
-52.4
0
LINE
8
0
10
169.2
20
-52.4
11
169.2
21
-66.4
0
LINE
8
0
10
161.6267859
20
-127.4997475
11
175.1497475
21
-131.1232141
0
LINE
8
0
10
175.1497475
20
-131.1232141
11
178.7732141
21
-117.6002525
0
LINE
8
0
10
178.7732141
20
-117.6002525
11
165.2502525
21
-113.9767859
0
LINE
8
0
10
165.2502525
20
-113.9767859
11
161.6267859
21
-127.4997475
0
LINE
8
0
10
194.9478577
20
-121.6210824
11
185.9488311
21
-132.3457046
0
LINE
8
0
10
185.9488311
20
-132.3457046
11
196.6734533
21
-141.3447312
0
LINE
8
0
10
196.6734533
20
-141.3447312
11
205.6724799
21
-130.620109
0
LINE
8
0
10
205.6724799
20
-130.620109
11
194.9478577
21
-121.6210824
0
LINE
8
0
10
213.5552037
20
-136.6908111
11
203.6557088
21
-146.590306
0
LINE
8
0
10
203.6557088
20
-146.590306
11
213.5552037
21
-156.4898009
0
LINE
8
0
10
213.5552037
20
-156.4898009
11
223.4546986
21
-146.590306
0
LINE
8
0
10
223.4546986
20
-146.590306
11
213.5552037
21
-136.6908111
0
LINE
8
0
10
378.75
20
-107
11
392.75
21
-107
0
LINE
8
0
10
392.75
20
-107
11
392.75
21
-93
0
LINE
8
0
10
392.75
20
-93
11
378.75
21
-93
0
LINE
8
0
10
378.75
20
-93
11
378.75
21
-107
0
LINE
8
0
10
378.75
20
-87.95
11
392.75
21
-87.95
0
LINE
8
0
10
392.75
20
-87.95
11
392.75
21
-73.95
0
LINE
8
0
10
392.75
20
-73.95
11
378.75
21
-73.95
0
LINE
8
0
10
378.75
20
-73.95
11
378.75
21
-87.95
0
LINE
8
0
10
378.75
20
-68.9
11
392.75
21
-68.9
0
LINE
8
0
10
392.75
20
-68.9
11
392.75
21
-54.9
0
LINE
8
0
10
392.75
20
-54.9
11
378.75
21
-54.9
0
LINE
8
0
10
378.75
20
-54.9
11
378.75
21
-68.9
0
LINE
8
0
10
359.7
20
-102
11
373.7
21
-102
0
LINE
8
0
10
373.7
20
-102
11
373.7
21
-88
0
LINE
8
0
10
373.7
20
-88
11
359.7
21
-88
0
LINE
8
0
10
359.7
20
-88
11
359.7
21
-102
0
LINE
8
0
10
359.7
20
-82.95
11
373.7
21
-82.95
0
LINE
8
0
10
373.7
20
-82.95
11
373.7
21
-68.95
0
LINE
8
0
10
373.7
20
-68.95
11
359.7
21
-68.95
0
LINE
8
0
10
359.7
20
-68.95
11
359.7
21
-82.95
0
LINE
8
0
10
359.7
20
-63.9
11
373.7
21
-63.9
0
LINE
8
0
10
373.7
20
-63.9
11
373.7
21
-49.9
0
LINE
8
0
10
373.7
20
-49.9
11
359.7
21
-49.9
0
LINE
8
0
10
359.7
20
-49.9
11
359.7
21
-63.9
0
LINE
8
0
10
340.65
20
-99.5
11
354.65
21
-99.5
0
LINE
8
0
10
354.65
20
-99.5
11
354.65
21
-85.5
0
LINE
8
0
10
354.65
20
-85.5
11
340.65
21
-85.5
0
LINE
8
0
10
340.65
20
-85.5
11
340.65
21
-99.5
0
LINE
8
0
10
340.65
20
-80.45
11
354.65
21
-80.45
0
LINE
8
0
10
354.65
20
-80.45
11
354.65
21
-66.45
0
LINE
8
0
10
354.65
20
-66.45
11
340.65
21
-66.45
0
LINE
8
0
10
340.65
20
-66.45
11
340.65
21
-80.45
0
LINE
8
0
10
340.65
20
-61.4
11
354.65
21
-61.4
0
LINE
8
0
10
354.65
20
-61.4
11
354.65
21
-47.4
0
LINE
8
0
10
354.65
20
-47.4
11
340.65
21
-47.4
0
LINE
8
0
10
340.65
20
-47.4
11
340.65
21
-61.4
0
LINE
8
0
10
321.6
20
-102
11
335.6
21
-102
0
LINE
8
0
10
335.6
20
-102
11
335.6
21
-88
0
LINE
8
0
10
335.6
20
-88
11
321.6
21
-88
0
LINE
8
0
10
321.6
20
-88
11
321.6
21
-102
0
LINE
8
0
10
321.6
20
-82.95
11
335.6
21
-82.95
0
LINE
8
0
10
335.6
20
-82.95
11
335.6
21
-68.95
0
LINE
8
0
10
335.6
20
-68.95
11
321.6
21
-68.95
0
LINE
8
0
10
321.6
20
-68.95
11
321.6
21
-82.95
0
LINE
8
0
10
321.6
20
-63.9
11
335.6
21
-63.9
0
LINE
8
0
10
335.6
20
-63.9
11
335.6
21
-49.9
0
LINE
8
0
10
335.6
20
-49.9
11
321.6
21
-49.9
0
LINE
8
0
10
321.6
20
-49.9
11
321.6
21
-63.9
0
LINE
8
0
10
302.55
20
-104.5
11
316.55
21
-104.5
0
LINE
8
0
10
316.55
20
-104.5
11
316.55
21
-90.5
0
LINE
8
0
10
316.55
20
-90.5
11
302.55
21
-90.5
0
LINE
8
0
10
302.55
20
-90.5
11
302.55
21
-104.5
0
LINE
8
0
10
302.55
20
-85.45
11
316.55
21
-85.45
0
LINE
8
0
10
316.55
20
-85.45
11
316.55
21
-71.45
0
LINE
8
0
10
316.55
20
-71.45
11
302.55
21
-71.45
0
LINE
8
0
10
302.55
20
-71.45
11
302.55
21
-85.45
0
LINE
8
0
10
302.55
20
-66.4
11
316.55
21
-66.4
0
LINE
8
0
10
316.55
20
-66.4
11
316.55
21
-52.4
0
LINE
8
0
10
316.55
20
-52.4
11
302.55
21
-52.4
0
LINE
8
0
10
302.55
20
-52.4
11
302.55
21
-66.4
0
LINE
8
0
10
310.6002525
20
-131.1232141
11
324.1232141
21
-127.4997475
0
LINE
8
0
10
324.1232141
20
-127.4997475
11
320.4997475
21
-113.9767859
0
LINE
8
0
10
320.4997475
20
-113.9767859
11
306.9767859
21
-117.6002525
0
LINE
8
0
10
306.9767859
20
-117.6002525
11
310.6002525
21
-131.1232141
0
LINE
8
0
10
299.8011689
20
-132.3457046
11
290.8021423
21
-121.6210824
0
LINE
8
0
10
290.8021423
20
-121.6210824
11
280.0775201
21
-130.620109
0
LINE
8
0
10
280.0775201
20
-130.620109
11
289.0765467
21
-141.3447312
0
LINE
8
0
10
289.0765467
20
-141.3447312
11
299.8011689
21
-132.3457046
0
LINE
8
0
10
282.0942912
20
-146.590306
11
272.1947963
21
-136.6908111
0
LINE
8
0
10
272.1947963
20
-136.6908111
11
262.2953014
21
-146.590306
0
LINE
8
0
10
262.2953014
20
-146.590306
11
272.1947963
21
-156.4898009
0
LINE
8
0
10
272.1947963
20
-156.4898009
11
282.0942912
21
-146.590306
0
ENDSEC
0
EOF