0
SECTION
2
HEADER
9
$INSUNITS
70
4
0
ENDSEC
0
SECTION
2
TABLES
0
TABLE
2
LTYPE
0
LTYPE
72
65
70
64
2
CONTINUOUS
3
______
73
0
40
0
0
ENDTAB
0
TABLE
2
LAYER
0
ENDTAB
0
ENDSEC
0
SECTION
2
ENTITIES
0
LINE
8
0
10
87.975
20
-108.0029616
11
87.975
21
-52.9807308
0
LINE
8
0
10
90.9838832
20
-49.1054647
11
107.3659713
21
-44.9156723
0
LINE
8
0
10
107.6868281
20
-44.8474944
11
135.2236325
21
-40.1671143
0
LINE
8
0
10
136.3704342
20
-40.1390464
11
212.4231067
21
-49.2646074
0
LINE
8
0
10
215.9459538
20
-53.1661926
11
217.1697567
21
-123.1604171
0
LINE
8
0
10
218.2532239
20
-125.8286286
11
233.5576039
21
-142.1266974
0
LINE
8
0
10
233.3927767
20
-147.7685369
11
214.5926146
21
-165.5806373
0
LINE
8
0
10
209.6507131
20
-166.0236307
11
156.886493
21
-131.4832092
0
LINE
8
0
10
155.1895107
20
-127.1957212
11
157.7526106
21
-116.603822
0
LINE
8
0
10
153.8428435
20
-111.6630888
11
91.9969776
21
-112.0029012
0
ARC
8
0
10
91.975
20
-52.9807308
40
4
50
104.3461359
51
180
0
ARC
8
0
10
108.3570881
20
-48.7909385
40
4
50
99.6462734
51
104.3461359
0
ARC
8
0
10
135.8938926
20
-44.1105584
40
4
50
83.1577932
51
99.6462734
0
ARC
8
0
10
211.9465651
20
-53.2361194
40
4
50
1.0016786
51
83.1577932
0
ARC
8
0
10
221.1691454
20
-123.0904903
40
4
50
181.0016786
51
223.1990159
0
ARC
8
0
10
230.6416824
20
-144.8648358
40
4
50
313.4541256
51
43.1990159
0
ARC
8
0
10
211.8415203
20
-162.6769362
40
4
50
236.7905103
51
313.4541256
0
ARC
8
0
10
159.0773003
20
-128.1365148
40
4
50
166.3966822
51
236.7905103
0
ARC
8
0
10
153.8648211
20
-115.6630284
40
4
50
346.3966822
51
90.3148075
0
ARC
8
0
10
91.975
20
-108.0029616
40
4
50
180
51
270.3148075
0
LINE
8
0
10
93
20
-107
11
107
21
-107
0
LINE
8
0
10
107
20
-107
11
107
21
-93
0
LINE
8
0
10
107
20
-93
11
93
21
-93
0
LINE
8
0
10
93
20
-93
11
93
21
-107
0
LINE
8
0
10
93
20
-87.95
11
107
21
-87.95
0
LINE
8
0
10
107
20
-87.95
11
107
21
-73.95
0
LINE
8
0
10
107
20
-73.95
11
93
21
-73.95
0
LINE
8
0
10
93
20
-73.95
11
93
21
-87.95
0
LINE
8
0
10
93
20
-68.9
11
107
21
-68.9
0
LINE
8
0
10
107
20
-68.9
11
107
21
-54.9
0
LINE
8
0
10
107
20
-54.9
11
93
21
-54.9
0
LINE
8
0
10
93
20
-54.9
11
93
21
-68.9
0
LINE
8
0
10
112.05
20
-102
11
126.05
21
-102
0
LINE
8
0
10
126.05
20
-102
11
126.05
21
-88
0
LINE
8
0
10
126.05
20
-88
11
112.05
21
-88
0
LINE
8
0
10
112.05
20
-88
11
112.05
21
-102
0
LINE
8
0
10
112.05
20
-82.95
11
126.05
21
-82.95
0
LINE
8
0
10
126.05
20
-82.95
11
126.05
21
-68.95
0
LINE
8
0
10
126.05
20
-68.95
11
112.05
21
-68.95
0
LINE
8
0
10
112.05
20
-68.95
11
112.05
21
-82.95
0
LINE
8
0
10
112.05
20
-63.9
11
126.05
21
-63.9
0
LINE
8
0
10
126.05
20
-63.9
11
126.05
21
-49.9
0
LINE
8
0
10
126.05
20
-49.9
11
112.05
21
-49.9
0
LINE
8
0
10
112.05
20
-49.9
11
112.05
21
-63.9
0
LINE
8
0
10
131.1
20
-99.5
11
145.1
21
-99.5
0
LINE
8
0
10
145.1
20
-99.5
11
145.1
21
-85.5
0
LINE
8
0
10
145.1
20
-85.5
11
131.1
21
-85.5
0
LINE
8
0
10
131.1
20
-85.5
11
131.1
21
-99.5
0
LINE
8
0
10
131.1
20
-80.45
11
145.1
21
-80.45
0
LINE
8
0
10
145.1
20
-80.45
11
145.1
21
-66.45
0
LINE
8
0
10
145.1
20
-66.45
11
131.1
21
-66.45
0
LINE
8
0
10
131.1
20
-66.45
11
131.1
21
-80.45
0
LINE
8
0
10
131.1
20
-61.4
11
145.1
21
-61.4
0
LINE
8
0
10
145.1
20
-61.4
11
145.1
21
-47.4
0
LINE
8
0
10
145.1
20
-47.4
11
131.1
21
-47.4
0
LINE
8
0
10
131.1
20
-47.4
11
131.1
21
-61.4
0
LINE
8
0
10
150.15
20
-102
11
164.15
21
-102
0
LINE
8
0
10
164.15
20
-102
11
164.15
21
-88
0
LINE
8
0
10
164.15
20
-88
11
150.15
21
-88
0
LINE
8
0
10
150.15
20
-88
11
150.15
21
-102
0
LINE
8
0
10
150.15
20
-82.95
11
164.15
21
-82.95
0
LINE
8
0
10
164.15
20
-82.95
11
164.15
21
-68.95
0
LINE
8
0
10
164.15
20
-68.95
11
150.15
21
-68.95
0
LINE
8
0
10
150.15
20
-68.95
11
150.15
21
-82.95
0
LINE
8
0
10
150.15
20
-63.9
11
164.15
21
-63.9
0
LINE
8
0
10
164.15
20
-63.9
11
164.15
21
-49.9
0
LINE
8
0
10
164.15
20
-49.9
11
150.15
21
-49.9
0
LINE
8
0
10
150.15
20
-49.9
11
150.15
21
-63.9
0
LINE
8
0
10
169.2
20
-104.5
11
183.2
21
-104.5
0
LINE
8
0
10
183.2
20
-104.5
11
183.2
21
-90.5
0
LINE
8
0
10
183.2
20
-90.5
11
169.2
21
-90.5
0
LINE
8
0
10
169.2
20
-90.5
11
169.2
21
-104.5
0
LINE
8
0
10
169.2
20
-85.45
11
183.2
21
-85.45
0
LINE
8
0
10
183.2
20
-85.45
11
183.2
21
-71.45
0
LINE
8
0
10
183.2
20
-71.45
11
169.2
21
-71.45
0
LINE
8
0
10
169.2
20
-71.45
11
169.2
21
-85.45
0
LINE
8
0
10
169.2
20
-66.4
11
183.2
21
-66.4
0
LINE
8
0
10
183.2
20
-66.4
11
183.2
21
-52.4
0
LINE
8
0
10
183.2
20
-52.4
11
169.2
21
-52.4
0
LINE
8
0
10
169.2
20
-52.4
11
169.2
21
-66.4
0
LINE
8
0
10
161.6267859
20
-127.4997475
11
175.1497475
21
-131.1232141
0
LINE
8
0
10
175.1497475
20
-131.1232141
11
178.7732141
21
-117.6002525
0
LINE
8
0
10
178.7732141
20
-117.6002525
11
165.2502525
21
-113.9767859
0
LINE
8
0
10
165.2502525
20
-113.9767859
11
161.6267859
21
-127.4997475
0
LINE
8
0
10
194.9478577
20
-121.6210824
11
185.9488311
21
-132.3457046
0
LINE
8
0
10
185.9488311
20
-132.3457046
11
196.6734533
21
-141.3447312
0
LINE
8
0
10
196.6734533
20
-141.3447312
11
205.6724799
21
-130.620109
0
LINE
8
0
10
205.6724799
20
-130.620109
11
194.9478577
21
-121.6210824
0
LINE
8
0
10
213.5552037
20
-136.6908111
11
203.6557088
21
-146.590306
0
LINE
8
0
10
203.6557088
20
-146.590306
11
213.5552037
21
-156.4898009
0
LINE
8
0
10
213.5552037
20
-156.4898009
11
223.4546986
21
-146.590306
0
LINE
8
0
10
223.4546986
20
-146.590306
11
213.5552037
21
-136.6908111
0
ENDSEC
0
EOF