solid csg.js
facet normal 0 0 -1
outer loop
vertex 136.37043125000002 -40.139052150000005 0
vertex 212.42310670000006 -49.26460740000001 0
vertex 213.0471458639506 -49.39051072580593 0
endloop
endfacet
facet normal 0 0 -1
outer loop
vertex 136.37043125000002 -40.139052150000005 0
vertex 213.0471458639506 -49.39051072580593 0
vertex 213.64330593337192 -49.613820623810824 0
endloop
endfacet
facet normal 0 0 -1
outer loop
vertex 136.37043125000002 -40.139052150000005 0
vertex 213.64330593337192 -49.613820623810824 0
vertex 214.19648804208984 -49.92888203610071 0
endloop
endfacet
facet normal 0 0 -1
outer loop
vertex 136.37043125000002 -40.139052150000005 0
vertex 214.19648804208984 -49.92888203610071 0
vertex 214.6926802899304 -50.327714572514544 0
endloop
endfacet
facet normal 0 0 -1
outer loop
vertex 136.37043125000002 -40.139052150000005 0
vertex 214.6926802899304 -50.327714572514544 0
vertex 215.11931430902024 -50.80021595100476 0
endloop
endfacet
facet normal 0 0 -1
outer loop
vertex 136.37043125000002 -40.139052150000005 0
vertex 215.11931430902024 -50.80021595100476 0
vertex 215.4655836159389 -51.33441788473935 0
endloop
endfacet
facet normal 0 0 -1
outer loop
vertex 136.37043125000002 -40.139052150000005 0
vertex 215.4655836159389 -51.33441788473935 0
vertex 215.72271733598652 -51.916789234423916 0
endloop
endfacet
facet normal 0 0 -1
outer loop
vertex 136.37043125000002 -40.139052150000005 0
vertex 215.72271733598652 -51.916789234423916 0
vertex 215.88420236622738 -52.532578747105134 0
endloop
endfacet
facet normal 0 0 -1
outer loop
vertex 136.37043125000002 -40.139052150000005 0
vertex 215.88420236622738 -52.532578747105134 0
vertex 215.94594834999995 -53.1661886999997 0
endloop
endfacet
facet normal 0 0 -1
outer loop
vertex 136.37043125000002 -40.139052150000005 0
vertex 215.94594834999995 -53.1661886999997 0
vertex 216.9687325566594 -111.66308599999999 0
endloop
endfacet
facet normal 0 0 -1
outer loop
vertex 136.37043125000002 -40.139052150000005 0
vertex 216.9687325566594 -111.66308599999999 0
vertex 153.8428353000001 -111.66308599999999 0
endloop
endfacet
facet normal 0 0 -1
outer loop
vertex 136.37043125000002 -40.139052150000005 0
vertex 153.8428353000001 -111.66308599999999 0
vertex 90.39049648568637 -111.66308599999999 0
endloop
endfacet
facet normal 0 0 -1
outer loop
vertex 136.37043125000002 -40.139052150000005 0
vertex 90.39049648568637 -111.66308599999999 0
vertex 90.17275919223 -111.57394578411466 0
endloop
endfacet
facet normal 0 0 -1
outer loop
vertex 136.37043125000002 -40.139052150000005 0
vertex 90.17275919223 -111.57394578411466 0
vertex 89.63453979345785 -111.24676302495492 0
endloop
endfacet
facet normal 0 0 -1
outer loop
vertex 136.37043125000002 -40.139052150000005 0
vertex 89.63453979345785 -111.24676302495492 0
vertex 89.15435334532117 -110.8391484347697 0
endloop
endfacet
facet normal 0 0 -1
outer loop
vertex 136.37043125000002 -40.139052150000005 0
vertex 89.15435334532117 -110.8391484347697 0
vertex 88.74410633127589 -110.36120903843084 0
endloop
endfacet
facet normal 0 0 -1
outer loop
vertex 136.37043125000002 -40.139052150000005 0
vertex 88.74410633127589 -110.36120903843084 0
vertex 88.41397104857117 -109.82479560252584 0
endloop
endfacet
facet normal 0 0 -1
outer loop
vertex 136.37043125000002 -40.139052150000005 0
vertex 88.41397104857117 -109.82479560252584 0
vertex 88.17213338062174 -109.24320878917239 0
endloop
endfacet
facet normal 0 0 -1
outer loop
vertex 136.37043125000002 -40.139052150000005 0
vertex 88.17213338062174 -109.24320878917239 0
vertex 88.02458982358773 -108.63086935888573 0
endloop
endfacet
facet normal 0 0 -1
outer loop
vertex 136.37043125000002 -40.139052150000005 0
vertex 88.02458982358773 -108.63086935888573 0
vertex 87.97499879999998 -108.0029605999999 0
endloop
endfacet
facet normal 0 0 -1
outer loop
vertex 136.37043125000002 -40.139052150000005 0
vertex 87.97499879999998 -108.0029605999999 0
vertex 87.975 -52.98073080000004 0
endloop
endfacet
facet normal 0 0 -1
outer loop
vertex 136.37043125000002 -40.139052150000005 0
vertex 87.975 -52.98073080000004 0
vertex 88.02935799443345 -52.323522735855015 0
endloop
endfacet
facet normal 0 0 -1
outer loop
vertex 136.37043125000002 -40.139052150000005 0
vertex 88.02935799443345 -52.323522735855015 0
vertex 88.19095934681043 -51.68417284699838 0
endloop
endfacet
facet normal 0 0 -1
outer loop
vertex 136.37043125000002 -40.139052150000005 0
vertex 88.19095934681043 -51.68417284699838 0
vertex 88.45541169927068 -51.08006339437455 0
endloop
endfacet
facet normal 0 0 -1
outer loop
vertex 136.37043125000002 -40.139052150000005 0
vertex 88.45541169927068 -51.08006339437455 0
vertex 88.81552718270339 -50.527614196652884 0
endloop
endfacet
facet normal 0 0 -1
outer loop
vertex 136.37043125000002 -40.139052150000005 0
vertex 88.81552718270339 -50.527614196652884 0
vertex 89.26151778450215 -50.041840936192195 0
endloop
endfacet
facet normal 0 0 -1
outer loop
vertex 136.37043125000002 -40.139052150000005 0
vertex 89.26151778450215 -50.041840936192195 0
vertex 89.78126138875228 -49.63594702971872 0
endloop
endfacet
facet normal 0 0 -1
outer loop
vertex 136.37043125000002 -40.139052150000005 0
vertex 89.78126138875228 -49.63594702971872 0
vertex 90.36063125782508 -49.320964756754435 0
endloop
endfacet
facet normal 0 0 -1
outer loop
vertex 136.37043125000002 -40.139052150000005 0
vertex 90.36063125782508 -49.320964756754435 0
vertex 90.9838800000001 -49.10545539999997 0
endloop
endfacet
facet normal 0 0 -1
outer loop
vertex 136.37043125000002 -40.139052150000005 0
vertex 90.9838800000001 -49.10545539999997 0
vertex 107.36597130000015 -44.91567229999997 0
endloop
endfacet
facet normal 0 0 -1
outer loop
vertex 136.37043125000002 -40.139052150000005 0
vertex 107.36597130000015 -44.91567229999997 0
vertex 107.52570146016511 -44.87829071218038 0
endloop
endfacet
facet normal 0 0 -1
outer loop
vertex 136.37043125000002 -40.139052150000005 0
vertex 107.52570146016511 -44.87829071218038 0
vertex 107.68683064999965 -44.84749115000006 0
endloop
endfacet
facet normal 0 0 -1
outer loop
vertex 136.37043125000002 -40.139052150000005 0
vertex 107.68683064999965 -44.84749115000006 0
vertex 135.22363250000006 -40.167114299999994 0
endloop
endfacet
facet normal 0 0 -1
outer loop
vertex 136.37043125000002 -40.139052150000005 0
vertex 135.22363250000006 -40.167114299999994 0
vertex 135.60441170313922 -40.12104755704395 0
endloop
endfacet
facet normal 0 0 -1
outer loop
vertex 136.37043125000002 -40.139052150000005 0
vertex 135.60441170313922 -40.12104755704395 0
vertex 135.98785358482502 -40.11166546844951 0
endloop
endfacet
facet normal 0 0 -1
outer loop
vertex 216.9687325566594 -111.66308599999999 0
vertex 216.96961795940197 -111.71372553174471 0
vertex 154.49967341628087 -111.71372553174471 0
endloop
endfacet
facet normal 0 0 -1
outer loop
vertex 216.9687325566594 -111.66308599999999 0
vertex 154.49967341628087 -111.71372553174471 0
vertex 153.8428353000001 -111.66308599999999 0
endloop
endfacet
facet normal 0 0 -1
outer loop
vertex 216.96961795940197 -111.71372553174471 0
vertex 216.97237637918542 -111.87148999245004 0
vertex 155.13929130855198 -111.87148999245004 0
endloop
endfacet
facet normal 0 0 -1
outer loop
vertex 216.96961795940197 -111.71372553174471 0
vertex 155.13929130855198 -111.87148999245004 0
vertex 154.49967341628087 -111.71372553174471 0
endloop
endfacet
facet normal 0 0 -1
outer loop
vertex 153.8428353000001 -111.66308599999999 0
vertex 91.99697760000011 -112.0029012 0
vertex 91.36880702287596 -111.95676062242289 0
endloop
endfacet
facet normal 0 0 -1
outer loop
vertex 153.8428353000001 -111.66308599999999 0
vertex 91.36880702287596 -111.95676062242289 0
vertex 90.75566609969096 -111.81258403825707 0
endloop
endfacet
facet normal 0 0 -1
outer loop
vertex 153.8428353000001 -111.66308599999999 0
vertex 90.75566609969096 -111.81258403825707 0
vertex 90.39049648568637 -111.66308599999999 0
endloop
endfacet
facet normal 0 0 -1
outer loop
vertex 216.97237637918542 -111.87148999245004 0
vertex 216.976932993757 -112.13210001448164 0
vertex 155.74433931457435 -112.13210001448164 0
endloop
endfacet
facet normal 0 0 -1
outer loop
vertex 216.97237637918542 -111.87148999245004 0
vertex 155.74433931457435 -112.13210001448164 0
vertex 155.13929130855198 -111.87148999245004 0
endloop
endfacet
facet normal 0 0 -1
outer loop
vertex 216.976932993757 -112.13210001448164 0
vertex 216.98316420475484 -112.4884865400271 0
vertex 156.29840548172805 -112.4884865400271 0
endloop
endfacet
facet normal 0 0 -1
outer loop
vertex 216.976932993757 -112.13210001448164 0
vertex 156.29840548172805 -112.4884865400271 0
vertex 155.74433931457435 -112.13210001448164 0
endloop
endfacet
facet normal 0 0 -1
outer loop
vertex 216.98316420475484 -112.4884865400271 0
vertex 216.99090099031838 -112.9309825695868 0
vertex 156.78646074191795 -112.9309825695868 0
endloop
endfacet
facet normal 0 0 -1
outer loop
vertex 216.98316420475484 -112.4884865400271 0
vertex 156.78646074191795 -112.9309825695868 0
vertex 156.29840548172805 -112.4884865400271 0
endloop
endfacet
facet normal 0 0 -1
outer loop
vertex 216.99090099031838 -112.9309825695868 0
vertex 216.99993348981374 -113.44758537974117 0
vertex 157.19526657567673 -113.44758537974117 0
endloop
endfacet
facet normal 0 0 -1
outer loop
vertex 216.99090099031838 -112.9309825695868 0
vertex 157.19526657567673 -113.44758537974117 0
vertex 156.78646074191795 -112.9309825695868 0
endloop
endfacet
facet normal 0 0 -1
outer loop
vertex 216.99993348981374 -113.44758537974117 0
vertex 217.01001669631205 -114.02428209753015 0
vertex 157.51373410756435 -114.02428209753015 0
endloop
endfacet
facet normal 0 0 -1
outer loop
vertex 216.99993348981374 -113.44758537974117 0
vertex 157.51373410756435 -114.02428209753015 0
vertex 157.19526657567673 -113.44758537974117 0
endloop
endfacet
facet normal 0 0 -1
outer loop
vertex 217.01001669631205 -114.02428209753015 0
vertex 217.0208771024128 -114.64542980021942 0
vertex 157.7332248923789 -114.64542980021942 0
endloop
endfacet
facet normal 0 0 -1
outer loop
vertex 217.01001669631205 -114.02428209753015 0
vertex 157.7332248923789 -114.64542980021942 0
vertex 157.51373410756435 -114.02428209753015 0
endloop
endfacet
facet normal 0 0 -1
outer loop
vertex 217.0208771024128 -114.64542980021942 0
vertex 217.03222011914363 -115.29417983024037 0
vertex 157.84778523334782 -115.29417983024037 0
endloop
endfacet
facet normal 0 0 -1
outer loop
vertex 217.0208771024128 -114.64542980021942 0
vertex 157.84778523334782 -115.29417983024037 0
vertex 157.7332248923789 -114.64542980021942 0
endloop
endfacet
facet normal 0 0 -1
outer loop
vertex 217.03222011914363 -115.29417983024037 0
vertex 217.04373806669844 -115.9529348157329 0
vertex 157.85430767640227 -115.9529348157329 0
endloop
endfacet
facet normal 0 0 -1
outer loop
vertex 217.03222011914363 -115.29417983024037 0
vertex 157.85430767640227 -115.9529348157329 0
vertex 157.84778523334782 -115.29417983024037 0
endloop
endfacet
facet normal 0 0 -1
outer loop
vertex 217.04373806669844 -115.9529348157329 0
vertex 217.05511845032754 -116.60382200000019 0
vertex 157.75261059999997 -116.60382200000019 0
endloop
endfacet
facet normal 0 0 -1
outer loop
vertex 217.04373806669844 -115.9529348157329 0
vertex 157.75261059999997 -116.60382200000019 0
vertex 157.85430767640227 -115.9529348157329 0
endloop
endfacet
facet normal 0 0 -1
outer loop
vertex 217.05511845032754 -116.60382200000019 0
vertex 217.1697567 -123.1604170999998 0
vertex 156.1660020713421 -123.1604170999998 0
endloop
endfacet
facet normal 0 0 -1
outer loop
vertex 217.05511845032754 -116.60382200000019 0
vertex 156.1660020713421 -123.1604170999998 0
vertex 157.75261059999997 -116.60382200000019 0
endloop
endfacet
facet normal 0 0 -1
outer loop
vertex 217.1697567 -123.1604170999998 0
vertex 217.2233263878839 -123.74662570321054 0
vertex 156.02414741122638 -123.74662570321054 0
endloop
endfacet
facet normal 0 0 -1
outer loop
vertex 217.1697567 -123.1604170999998 0
vertex 156.02414741122638 -123.74662570321054 0
vertex 156.1660020713421 -123.1604170999998 0
endloop
endfacet
facet normal 0 0 -1
outer loop
vertex 217.2233263878839 -123.74662570321054 0
vertex 217.3623496190798 -124.31862811967626 0
vertex 155.8857304587479 -124.31862811967626 0
endloop
endfacet
facet normal 0 0 -1
outer loop
vertex 217.2233263878839 -123.74662570321054 0
vertex 155.8857304587479 -124.31862811967626 0
vertex 156.02414741122638 -123.74662570321054 0
endloop
endfacet
facet normal 0 0 -1
outer loop
vertex 217.3623496190798 -124.31862811967626 0
vertex 217.58381719815154 -124.86403286358086 0
vertex 155.7537497881328 -124.86403286358086 0
endloop
endfacet
facet normal 0 0 -1
outer loop
vertex 217.3623496190798 -124.31862811967626 0
vertex 155.7537497881328 -124.86403286358086 0
vertex 155.8857304587479 -124.31862811967626 0
endloop
endfacet
facet normal 0 0 -1
outer loop
vertex 217.58381719815154 -124.86403286358086 0
vertex 217.88293277096642 -125.37102802860181 0
vertex 155.63106372310332 -125.37102802860181 0
endloop
endfacet
facet normal 0 0 -1
outer loop
vertex 217.58381719815154 -124.86403286358086 0
vertex 155.63106372310332 -125.37102802860181 0
vertex 155.7537497881328 -124.86403286358086 0
endloop
endfacet
facet normal 0 0 -1
outer loop
vertex 217.88293277096642 -125.37102802860181 0
vertex 218.25321834999994 -125.82863354999992 0
vertex 155.52032929281782 -125.82863354999992 0
endloop
endfacet
facet normal 0 0 -1
outer loop
vertex 217.88293277096642 -125.37102802860181 0
vertex 155.52032929281782 -125.82863354999992 0
vertex 155.63106372310332 -125.37102802860181 0
endloop
endfacet
facet normal 0 0 -1
outer loop
vertex 218.25321834999994 -125.82863354999992 0
vertex 233.5576039 -142.1266974 0
vertex 233.98769209769492 -142.6729854869429 0
endloop
endfacet
facet normal 0 0 -1
outer loop
vertex 218.25321834999994 -125.82863354999992 0
vertex 233.98769209769492 -142.6729854869429 0
vertex 234.3166895587679 -143.2854946373562 0
endloop
endfacet
facet normal 0 0 -1
outer loop
vertex 218.25321834999994 -125.82863354999992 0
vertex 234.3166895587679 -143.2854946373562 0
vertex 234.53465435783423 -143.94572045864842 0
endloop
endfacet
facet normal 0 0 -1
outer loop
vertex 218.25321834999994 -125.82863354999992 0
vertex 234.53465435783423 -143.94572045864842 0
vertex 234.6350011409203 -144.63371559806228 0
endloop
endfacet
facet normal 0 0 -1
outer loop
vertex 218.25321834999994 -125.82863354999992 0
vertex 234.6350011409203 -144.63371559806228 0
vertex 234.61469813826557 -145.32869371053488 0
endloop
endfacet
facet normal 0 0 -1
outer loop
vertex 218.25321834999994 -125.82863354999992 0
vertex 234.61469813826557 -145.32869371053488 0
vertex 234.47435876295225 -146.00965747496636 0
endloop
endfacet
facet normal 0 0 -1
outer loop
vertex 218.25321834999994 -125.82863354999992 0
vertex 234.47435876295225 -146.00965747496636 0
vertex 234.2182230779021 -146.65603298469503 0
endloop
endfacet
facet normal 0 0 -1
outer loop
vertex 218.25321834999994 -125.82863354999992 0
vertex 234.2182230779021 -146.65603298469503 0
vertex 233.85402969117757 -147.2482913453774 0
endloop
endfacet
facet normal 0 0 -1
outer loop
vertex 218.25321834999994 -125.82863354999992 0
vertex 233.85402969117757 -147.2482913453774 0
vertex 233.39278194999966 -147.7685387000003 0
endloop
endfacet
facet normal 0 0 -1
outer loop
vertex 218.25321834999994 -125.82863354999992 0
vertex 233.39278194999966 -147.7685387000003 0
vertex 214.59261459999985 -165.58063730000012 0
endloop
endfacet
facet normal 0 0 -1
outer loop
vertex 218.25321834999994 -125.82863354999992 0
vertex 214.59261459999985 -165.58063730000012 0
vertex 214.07082841183455 -165.9981042552986 0
endloop
endfacet
facet normal 0 0 -1
outer loop
vertex 218.25321834999994 -125.82863354999992 0
vertex 214.07082841183455 -165.9981042552986 0
vertex 213.48682713950834 -166.32288517554892 0
endloop
endfacet
facet normal 0 0 -1
outer loop
vertex 218.25321834999994 -125.82863354999992 0
vertex 213.48682713950834 -166.32288517554892 0
vertex 212.85690723335634 -166.5459121785589 0
endloop
endfacet
facet normal 0 0 -1
outer loop
vertex 218.25321834999994 -125.82863354999992 0
vertex 212.85690723335634 -166.5459121785589 0
vertex 212.19864897576718 -166.66096085761455 0
endloop
endfacet
facet normal 0 0 -1
outer loop
vertex 218.25321834999994 -125.82863354999992 0
vertex 212.19864897576718 -166.66096085761455 0
vertex 211.53042353732616 -166.66482034694374 0
endloop
endfacet
facet normal 0 0 -1
outer loop
vertex 218.25321834999994 -125.82863354999992 0
vertex 211.53042353732616 -166.66482034694374 0
vertex 210.87088026026188 -166.55738293299171 0
endloop
endfacet
facet normal 0 0 -1
outer loop
vertex 218.25321834999994 -125.82863354999992 0
vertex 210.87088026026188 -166.55738293299171 0
vertex 210.23842617845904 -166.34164706057302 0
endloop
endfacet
facet normal 0 0 -1
outer loop
vertex 218.25321834999994 -125.82863354999992 0
vertex 210.23842617845904 -166.34164706057302 0
vertex 209.6507123 -166.02363364999997 0
endloop
endfacet
facet normal 0 0 -1
outer loop
vertex 218.25321834999994 -125.82863354999992 0
vertex 209.6507123 -166.02363364999997 0
vertex 156.88649299999986 -131.4832091999999 0
endloop
endfacet
facet normal 0 0 -1
outer loop
vertex 218.25321834999994 -125.82863354999992 0
vertex 156.88649299999986 -131.4832091999999 0
vertex 156.40032537375924 -131.10868247800175 0
endloop
endfacet
facet normal 0 0 -1
outer loop
vertex 218.25321834999994 -125.82863354999992 0
vertex 156.40032537375924 -131.10868247800175 0
vertex 155.97717266345705 -130.66419838837197 0
endloop
endfacet
facet normal 0 0 -1
outer loop
vertex 218.25321834999994 -125.82863354999992 0
vertex 155.97717266345705 -130.66419838837197 0
vertex 155.62699396926163 -130.16021505104624 0
endloop
endfacet
facet normal 0 0 -1
outer loop
vertex 218.25321834999994 -125.82863354999992 0
vertex 155.62699396926163 -130.16021505104624 0
vertex 155.35803215450707 -129.60859573995043 0
endloop
endfacet
facet normal 0 0 -1
outer loop
vertex 218.25321834999994 -125.82863354999992 0
vertex 155.35803215450707 -129.60859573995043 0
vertex 155.17661831676625 -129.022325033155 0
endloop
endfacet
facet normal 0 0 -1
outer loop
vertex 218.25321834999994 -125.82863354999992 0
vertex 155.17661831676625 -129.022325033155 0
vertex 155.0870227600188 -128.41520316863267 0
endloop
endfacet
facet normal 0 0 -1
outer loop
vertex 218.25321834999994 -125.82863354999992 0
vertex 155.0870227600188 -128.41520316863267 0
vertex 155.091354475879 -127.80152120017661 0
endloop
endfacet
facet normal 0 0 -1
outer loop
vertex 218.25321834999994 -125.82863354999992 0
vertex 155.091354475879 -127.80152120017661 0
vertex 155.1895115 -127.19572459999979 0
endloop
endfacet
facet normal 0 0 -1
outer loop
vertex 218.25321834999994 -125.82863354999992 0
vertex 155.1895115 -127.19572459999979 0
vertex 155.52032929281782 -125.82863354999992 0
endloop
endfacet
facet normal 0 0 1
outer loop
vertex 212.19864897576718 -166.66096085761453 1
vertex 212.85690723335648 -166.54591217855884 1
vertex 213.48682713950825 -166.32288517554895 1
endloop
endfacet
facet normal 0 0 1
outer loop
vertex 212.19864897576718 -166.66096085761453 1
vertex 213.48682713950825 -166.32288517554895 1
vertex 214.07082841183458 -165.99810425529859 1
endloop
endfacet
facet normal 0 0 1
outer loop
vertex 212.19864897576718 -166.66096085761453 1
vertex 214.07082841183458 -165.99810425529859 1
vertex 214.59261459999965 -165.58063730000026 1
endloop
endfacet
facet normal 0 0 1
outer loop
vertex 212.19864897576718 -166.66096085761453 1
vertex 214.59261459999965 -165.58063730000026 1
vertex 233.39278195000014 -147.76853869999982 1
endloop
endfacet
facet normal 0 0 1
outer loop
vertex 212.19864897576718 -166.66096085761453 1
vertex 233.39278195000014 -147.76853869999982 1
vertex 233.85402969117754 -147.24829134537748 1
endloop
endfacet
facet normal 0 0 1
outer loop
vertex 212.19864897576718 -166.66096085761453 1
vertex 233.85402969117754 -147.24829134537748 1
vertex 234.21822307790194 -146.65603298469532 1
endloop
endfacet
facet normal 0 0 1
outer loop
vertex 212.19864897576718 -166.66096085761453 1
vertex 234.21822307790194 -146.65603298469532 1
vertex 234.47435876295225 -146.00965747496616 1
endloop
endfacet
facet normal 0 0 1
outer loop
vertex 212.19864897576718 -166.66096085761453 1
vertex 234.47435876295225 -146.00965747496616 1
vertex 234.61469813826557 -145.32869371053476 1
endloop
endfacet
facet normal 0 0 1
outer loop
vertex 212.19864897576718 -166.66096085761453 1
vertex 234.61469813826557 -145.32869371053476 1
vertex 234.6350011409203 -144.63371559806222 1
endloop
endfacet
facet normal 0 0 1
outer loop
vertex 212.19864897576718 -166.66096085761453 1
vertex 234.6350011409203 -144.63371559806222 1
vertex 234.5346543578342 -143.94572045864834 1
endloop
endfacet
facet normal 0 0 1
outer loop
vertex 212.19864897576718 -166.66096085761453 1
vertex 234.5346543578342 -143.94572045864834 1
vertex 234.3166895587679 -143.2854946373562 1
endloop
endfacet
facet normal 0 0 1
outer loop
vertex 212.19864897576718 -166.66096085761453 1
vertex 234.3166895587679 -143.2854946373562 1
vertex 233.987692097695 -142.67298548694305 1
endloop
endfacet
facet normal 0 0 1
outer loop
vertex 212.19864897576718 -166.66096085761453 1
vertex 233.987692097695 -142.67298548694305 1
vertex 233.55760389999975 -142.12669739999973 1
endloop
endfacet
facet normal 0 0 1
outer loop
vertex 212.19864897576718 -166.66096085761453 1
vertex 233.55760389999975 -142.12669739999973 1
vertex 218.25321835000005 -125.82863355000006 1
endloop
endfacet
facet normal 0 0 1
outer loop
vertex 212.19864897576718 -166.66096085761453 1
vertex 218.25321835000005 -125.82863355000006 1
vertex 155.52032929281773 -125.82863355000006 1
endloop
endfacet
facet normal 0 0 1
outer loop
vertex 212.19864897576718 -166.66096085761453 1
vertex 155.52032929281773 -125.82863355000006 1
vertex 155.18951149999998 -127.19572460000008 1
endloop
endfacet
facet normal 0 0 1
outer loop
vertex 212.19864897576718 -166.66096085761453 1
vertex 155.18951149999998 -127.19572460000008 1
vertex 155.091354475879 -127.80152120017667 1
endloop
endfacet
facet normal 0 0 1
outer loop
vertex 212.19864897576718 -166.66096085761453 1
vertex 155.091354475879 -127.80152120017667 1
vertex 155.0870227600188 -128.4152031686327 1
endloop
endfacet
facet normal 0 0 1
outer loop
vertex 212.19864897576718 -166.66096085761453 1
vertex 155.0870227600188 -128.4152031686327 1
vertex 155.17661831676622 -129.0223250331548 1
endloop
endfacet
facet normal 0 0 1
outer loop
vertex 212.19864897576718 -166.66096085761453 1
vertex 155.17661831676622 -129.0223250331548 1
vertex 155.35803215450719 -129.6085957399507 1
endloop
endfacet
facet normal 0 0 1
outer loop
vertex 212.19864897576718 -166.66096085761453 1
vertex 155.35803215450719 -129.6085957399507 1
vertex 155.62699396926158 -130.16021505104612 1
endloop
endfacet
facet normal 0 0 1
outer loop
vertex 212.19864897576718 -166.66096085761453 1
vertex 155.62699396926158 -130.16021505104612 1
vertex 155.97717266345717 -130.6641983883721 1
endloop
endfacet
facet normal 0 0 1
outer loop
vertex 212.19864897576718 -166.66096085761453 1
vertex 155.97717266345717 -130.6641983883721 1
vertex 156.40032537375913 -131.10868247800164 1
endloop
endfacet
facet normal 0 0 1
outer loop
vertex 212.19864897576718 -166.66096085761453 1
vertex 156.40032537375913 -131.10868247800164 1
vertex 156.88649300000006 -131.48320920000003 1
endloop
endfacet
facet normal 0 0 1
outer loop
vertex 212.19864897576718 -166.66096085761453 1
vertex 156.88649300000006 -131.48320920000003 1
vertex 209.65071229999987 -166.02363364999988 1
endloop
endfacet
facet normal 0 0 1
outer loop
vertex 212.19864897576718 -166.66096085761453 1
vertex 209.65071229999987 -166.02363364999988 1
vertex 210.238426178459 -166.341647060573 1
endloop
endfacet
facet normal 0 0 1
outer loop
vertex 212.19864897576718 -166.66096085761453 1
vertex 210.238426178459 -166.341647060573 1
vertex 210.87088026026188 -166.5573829329917 1
endloop
endfacet
facet normal 0 0 1
outer loop
vertex 212.19864897576718 -166.66096085761453 1
vertex 210.87088026026188 -166.5573829329917 1
vertex 211.53042353732627 -166.6648203469437 1
endloop
endfacet
facet normal 0 0 1
outer loop
vertex 218.25321835000005 -125.82863355000006 1
vertex 217.88293277096636 -125.37102802860177 1
vertex 155.6310637231033 -125.37102802860177 1
endloop
endfacet
facet normal 0 0 1
outer loop
vertex 218.25321835000005 -125.82863355000006 1
vertex 155.6310637231033 -125.37102802860177 1
vertex 155.52032929281773 -125.82863355000006 1
endloop
endfacet
facet normal 0 0 1
outer loop
vertex 217.88293277096636 -125.37102802860177 1
vertex 217.58381719815176 -124.86403286358126 1
vertex 155.75374978813267 -124.86403286358126 1
endloop
endfacet
facet normal 0 0 1
outer loop
vertex 217.88293277096636 -125.37102802860177 1
vertex 155.75374978813267 -124.86403286358126 1
vertex 155.6310637231033 -125.37102802860177 1
endloop
endfacet
facet normal 0 0 1
outer loop
vertex 217.58381719815176 -124.86403286358126 1
vertex 217.36234961907965 -124.31862811967581 1
vertex 155.88573045874796 -124.31862811967581 1
endloop
endfacet
facet normal 0 0 1
outer loop
vertex 217.58381719815176 -124.86403286358126 1
vertex 155.88573045874796 -124.31862811967581 1
vertex 155.75374978813267 -124.86403286358126 1
endloop
endfacet
facet normal 0 0 1
outer loop
vertex 217.36234961907965 -124.31862811967581 1
vertex 217.22332638788387 -123.74662570321061 1
vertex 156.02414741122632 -123.74662570321061 1
endloop
endfacet
facet normal 0 0 1
outer loop
vertex 217.36234961907965 -124.31862811967581 1
vertex 156.02414741122632 -123.74662570321061 1
vertex 155.88573045874796 -124.31862811967581 1
endloop
endfacet
facet normal 0 0 1
outer loop
vertex 217.22332638788387 -123.74662570321061 1
vertex 217.1697567 -123.1604171000001 1
vertex 156.16600207134198 -123.1604171000001 1
endloop
endfacet
facet normal 0 0 1
outer loop
vertex 217.22332638788387 -123.74662570321061 1
vertex 156.16600207134198 -123.1604171000001 1
vertex 156.02414741122632 -123.74662570321061 1
endloop
endfacet
facet normal 0 0 1
outer loop
vertex 217.1697567 -123.1604171000001 1
vertex 217.05511845032754 -116.60382199999985 1
vertex 157.75261060000003 -116.60382199999985 1
endloop
endfacet
facet normal 0 0 1
outer loop
vertex 217.1697567 -123.1604171000001 1
vertex 157.75261060000003 -116.60382199999985 1
vertex 156.16600207134198 -123.1604171000001 1
endloop
endfacet
facet normal 0 0 1
outer loop
vertex 217.05511845032754 -116.60382199999985 1
vertex 217.04373806669847 -115.95293481573304 1
vertex 157.85430767640224 -115.95293481573304 1
endloop
endfacet
facet normal 0 0 1
outer loop
vertex 217.05511845032754 -116.60382199999985 1
vertex 157.85430767640224 -115.95293481573304 1
vertex 157.75261060000003 -116.60382199999985 1
endloop
endfacet
facet normal 0 0 1
outer loop
vertex 217.04373806669847 -115.95293481573304 1
vertex 217.03222011914366 -115.29417983024013 1
vertex 157.8477852333478 -115.29417983024013 1
endloop
endfacet
facet normal 0 0 1
outer loop
vertex 217.04373806669847 -115.95293481573304 1
vertex 157.8477852333478 -115.29417983024013 1
vertex 157.85430767640224 -115.95293481573304 1
endloop
endfacet
facet normal 0 0 1
outer loop
vertex 217.03222011914366 -115.29417983024013 1
vertex 217.02087710241284 -114.6454298002195 1
vertex 157.73322489237893 -114.6454298002195 1
endloop
endfacet
facet normal 0 0 1
outer loop
vertex 217.03222011914366 -115.29417983024013 1
vertex 157.73322489237893 -114.6454298002195 1
vertex 157.8477852333478 -115.29417983024013 1
endloop
endfacet
facet normal 0 0 1
outer loop
vertex 217.02087710241284 -114.6454298002195 1
vertex 217.01001669631205 -114.02428209753026 1
vertex 157.51373410756437 -114.02428209753026 1
endloop
endfacet
facet normal 0 0 1
outer loop
vertex 217.02087710241284 -114.6454298002195 1
vertex 157.51373410756437 -114.02428209753026 1
vertex 157.73322489237893 -114.6454298002195 1
endloop
endfacet
facet normal 0 0 1
outer loop
vertex 217.01001669631205 -114.02428209753026 1
vertex 216.9999334898137 -113.44758537974117 1
vertex 157.1952665756767 -113.44758537974117 1
endloop
endfacet
facet normal 0 0 1
outer loop
vertex 217.01001669631205 -114.02428209753026 1
vertex 157.1952665756767 -113.44758537974117 1
vertex 157.51373410756437 -114.02428209753026 1
endloop
endfacet
facet normal 0 0 1
outer loop
vertex 216.9999334898137 -113.44758537974117 1
vertex 216.99090099031838 -112.93098256958669 1
vertex 156.78646074191784 -112.93098256958669 1
endloop
endfacet
facet normal 0 0 1
outer loop
vertex 216.9999334898137 -113.44758537974117 1
vertex 156.78646074191784 -112.93098256958669 1
vertex 157.1952665756767 -113.44758537974117 1
endloop
endfacet
facet normal 0 0 1
outer loop
vertex 216.99090099031838 -112.93098256958669 1
vertex 216.98316420475481 -112.48848654002715 1
vertex 156.29840548172814 -112.48848654002715 1
endloop
endfacet
facet normal 0 0 1
outer loop
vertex 216.99090099031838 -112.93098256958669 1
vertex 156.29840548172814 -112.48848654002715 1
vertex 156.78646074191784 -112.93098256958669 1
endloop
endfacet
facet normal 0 0 1
outer loop
vertex 216.98316420475481 -112.48848654002715 1
vertex 216.976932993757 -112.13210001448162 1
vertex 155.74433931457432 -112.13210001448162 1
endloop
endfacet
facet normal 0 0 1
outer loop
vertex 216.98316420475481 -112.48848654002715 1
vertex 155.74433931457432 -112.13210001448162 1
vertex 156.29840548172814 -112.48848654002715 1
endloop
endfacet
facet normal 0 0 1
outer loop
vertex 216.976932993757 -112.13210001448162 1
vertex 216.9723763791854 -111.87148999245005 1
vertex 155.13929130855203 -111.87148999245005 1
endloop
endfacet
facet normal 0 0 1
outer loop
vertex 216.976932993757 -112.13210001448162 1
vertex 155.13929130855203 -111.87148999245005 1
vertex 155.74433931457432 -112.13210001448162 1
endloop
endfacet
facet normal 0 0 1
outer loop
vertex 216.9723763791854 -111.87148999245005 1
vertex 216.96961795940194 -111.71372553174476 1
vertex 154.4996734162811 -111.71372553174476 1
endloop
endfacet
facet normal 0 0 1
outer loop
vertex 216.9723763791854 -111.87148999245005 1
vertex 154.4996734162811 -111.71372553174476 1
vertex 155.13929130855203 -111.87148999245005 1
endloop
endfacet
facet normal 0 0 1
outer loop
vertex 153.84283529999854 -111.66308599999999 1
vertex 90.3904964856863 -111.66308599999999 1
vertex 90.75566609969087 -111.81258403825707 1
endloop
endfacet
facet normal 0 0 1
outer loop
vertex 153.84283529999854 -111.66308599999999 1
vertex 90.75566609969087 -111.81258403825707 1
vertex 91.36880702287596 -111.95676062242292 1
endloop
endfacet
facet normal 0 0 1
outer loop
vertex 153.84283529999854 -111.66308599999999 1
vertex 91.36880702287596 -111.95676062242292 1
vertex 91.99697759999964 -112.0029012 1
endloop
endfacet
facet normal 0 0 1
outer loop
vertex 216.96961795940194 -111.71372553174476 1
vertex 216.96873255665938 -111.66308599999999 1
vertex 153.84283529999854 -111.66308599999999 1
endloop
endfacet
facet normal 0 0 1
outer loop
vertex 216.96961795940194 -111.71372553174476 1
vertex 153.84283529999854 -111.66308599999999 1
vertex 154.4996734162811 -111.71372553174476 1
endloop
endfacet
facet normal 0 0 1
outer loop
vertex 153.84283529999854 -111.66308599999999 1
vertex 216.96873255665938 -111.66308599999999 1
vertex 215.94594834999998 -53.16618870000002 1
endloop
endfacet
facet normal 0 0 1
outer loop
vertex 153.84283529999854 -111.66308599999999 1
vertex 215.94594834999998 -53.16618870000002 1
vertex 215.88420236622738 -52.53257874710501 1
endloop
endfacet
facet normal 0 0 1
outer loop
vertex 153.84283529999854 -111.66308599999999 1
vertex 215.88420236622738 -52.53257874710501 1
vertex 215.7227173359866 -51.9167892344242 1
endloop
endfacet
facet normal 0 0 1
outer loop
vertex 153.84283529999854 -111.66308599999999 1
vertex 215.7227173359866 -51.9167892344242 1
vertex 215.46558361593875 -51.3344178847391 1
endloop
endfacet
facet normal 0 0 1
outer loop
vertex 153.84283529999854 -111.66308599999999 1
vertex 215.46558361593875 -51.3344178847391 1
vertex 215.11931430902024 -50.80021595100471 1
endloop
endfacet
facet normal 0 0 1
outer loop
vertex 153.84283529999854 -111.66308599999999 1
vertex 215.11931430902024 -50.80021595100471 1
vertex 214.69268028993054 -50.32771457251466 1
endloop
endfacet
facet normal 0 0 1
outer loop
vertex 153.84283529999854 -111.66308599999999 1
vertex 214.69268028993054 -50.32771457251466 1
vertex 214.19648804208995 -49.928882036100795 1
endloop
endfacet
facet normal 0 0 1
outer loop
vertex 153.84283529999854 -111.66308599999999 1
vertex 214.19648804208995 -49.928882036100795 1
vertex 213.64330593337183 -49.613820623810795 1
endloop
endfacet
facet normal 0 0 1
outer loop
vertex 153.84283529999854 -111.66308599999999 1
vertex 213.64330593337183 -49.613820623810795 1
vertex 213.04714586395053 -49.39051072580592 1
endloop
endfacet
facet normal 0 0 1
outer loop
vertex 153.84283529999854 -111.66308599999999 1
vertex 213.04714586395053 -49.39051072580592 1
vertex 212.4231067000001 -49.26460740000002 1
endloop
endfacet
facet normal 0 0 1
outer loop
vertex 153.84283529999854 -111.66308599999999 1
vertex 212.4231067000001 -49.26460740000002 1
vertex 136.37043124999997 -40.139052150000005 1
endloop
endfacet
facet normal 0 0 1
outer loop
vertex 153.84283529999854 -111.66308599999999 1
vertex 136.37043124999997 -40.139052150000005 1
vertex 135.98785358482502 -40.111665468449516 1
endloop
endfacet
facet normal 0 0 1
outer loop
vertex 153.84283529999854 -111.66308599999999 1
vertex 135.98785358482502 -40.111665468449516 1
vertex 135.60441170313916 -40.12104755704396 1
endloop
endfacet
facet normal 0 0 1
outer loop
vertex 153.84283529999854 -111.66308599999999 1
vertex 135.60441170313916 -40.12104755704396 1
vertex 135.22363250000006 -40.167114299999994 1
endloop
endfacet
facet normal 0 0 1
outer loop
vertex 153.84283529999854 -111.66308599999999 1
vertex 135.22363250000006 -40.167114299999994 1
vertex 107.68683064999962 -44.847491150000074 1
endloop
endfacet
facet normal 0 0 1
outer loop
vertex 153.84283529999854 -111.66308599999999 1
vertex 107.68683064999962 -44.847491150000074 1
vertex 107.5257014601649 -44.87829071218043 1
endloop
endfacet
facet normal 0 0 1
outer loop
vertex 153.84283529999854 -111.66308599999999 1
vertex 107.5257014601649 -44.87829071218043 1
vertex 107.36597130000015 -44.91567229999997 1
endloop
endfacet
facet normal 0 0 1
outer loop
vertex 153.84283529999854 -111.66308599999999 1
vertex 107.36597130000015 -44.91567229999997 1
vertex 90.98388 -49.1054554 1
endloop
endfacet
facet normal 0 0 1
outer loop
vertex 153.84283529999854 -111.66308599999999 1
vertex 90.98388 -49.1054554 1
vertex 90.36063125782515 -49.3209647567544 1
endloop
endfacet
facet normal 0 0 1
outer loop
vertex 153.84283529999854 -111.66308599999999 1
vertex 90.36063125782515 -49.3209647567544 1
vertex 89.78126138875227 -49.635947029718736 1
endloop
endfacet
facet normal 0 0 1
outer loop
vertex 153.84283529999854 -111.66308599999999 1
vertex 89.78126138875227 -49.635947029718736 1
vertex 89.26151778450212 -50.0418409361922 1
endloop
endfacet
facet normal 0 0 1
outer loop
vertex 153.84283529999854 -111.66308599999999 1
vertex 89.26151778450212 -50.0418409361922 1
vertex 88.81552718270343 -50.52761419665282 1
endloop
endfacet
facet normal 0 0 1
outer loop
vertex 153.84283529999854 -111.66308599999999 1
vertex 88.81552718270343 -50.52761419665282 1
vertex 88.4554116992707 -51.08006339437452 1
endloop
endfacet
facet normal 0 0 1
outer loop
vertex 153.84283529999854 -111.66308599999999 1
vertex 88.4554116992707 -51.08006339437452 1
vertex 88.19095934681046 -51.68417284699831 1
endloop
endfacet
facet normal 0 0 1
outer loop
vertex 153.84283529999854 -111.66308599999999 1
vertex 88.19095934681046 -51.68417284699831 1
vertex 88.02935799443344 -52.323522735855086 1
endloop
endfacet
facet normal 0 0 1
outer loop
vertex 153.84283529999854 -111.66308599999999 1
vertex 88.02935799443344 -52.323522735855086 1
vertex 87.975 -52.98073079999992 1
endloop
endfacet
facet normal 0 0 1
outer loop
vertex 153.84283529999854 -111.66308599999999 1
vertex 87.975 -52.98073079999992 1
vertex 87.9749988 -108.00296060000015 1
endloop
endfacet
facet normal 0 0 1
outer loop
vertex 153.84283529999854 -111.66308599999999 1
vertex 87.9749988 -108.00296060000015 1
vertex 88.02458982358772 -108.63086935888569 1
endloop
endfacet
facet normal 0 0 1
outer loop
vertex 153.84283529999854 -111.66308599999999 1
vertex 88.02458982358772 -108.63086935888569 1
vertex 88.1721333806217 -109.24320878917229 1
endloop
endfacet
facet normal 0 0 1
outer loop
vertex 153.84283529999854 -111.66308599999999 1
vertex 88.1721333806217 -109.24320878917229 1
vertex 88.41397104857117 -109.82479560252582 1
endloop
endfacet
facet normal 0 0 1
outer loop
vertex 153.84283529999854 -111.66308599999999 1
vertex 88.41397104857117 -109.82479560252582 1
vertex 88.7441063312759 -110.36120903843084 1
endloop
endfacet
facet normal 0 0 1
outer loop
vertex 153.84283529999854 -111.66308599999999 1
vertex 88.7441063312759 -110.36120903843084 1
vertex 89.15435334532121 -110.83914843476973 1
endloop
endfacet
facet normal 0 0 1
outer loop
vertex 153.84283529999854 -111.66308599999999 1
vertex 89.15435334532121 -110.83914843476973 1
vertex 89.63453979345792 -111.24676302495496 1
endloop
endfacet
facet normal 0 0 1
outer loop
vertex 153.84283529999854 -111.66308599999999 1
vertex 89.63453979345792 -111.24676302495496 1
vertex 90.17275919223012 -111.57394578411473 1
endloop
endfacet
facet normal 0 0 1
outer loop
vertex 153.84283529999854 -111.66308599999999 1
vertex 90.17275919223012 -111.57394578411473 1
vertex 90.3904964856863 -111.66308599999999 1
endloop
endfacet
facet normal -0.9968957466626515 -0.07873290472169006 0
outer loop
vertex 88.02458982358772 -108.63086935888569 1
vertex 87.9749988 -108.00296060000015 1
vertex 87.97499879999998 -108.0029605999999 0
endloop
endfacet
facet normal -0.9968957466626515 -0.07873290472169006 0
outer loop
vertex 88.02458982358772 -108.63086935888569 1
vertex 87.97499879999998 -108.0029605999999 0
vertex 88.02458982358773 -108.63086935888573 0
endloop
endfacet
facet normal -0.9721771912367698 -0.23424668373102955 0
outer loop
vertex 88.1721333806217 -109.24320878917229 1
vertex 88.02458982358772 -108.63086935888569 1
vertex 88.02458982358773 -108.63086935888573 0
endloop
endfacet
facet normal -0.9721771912367698 -0.23424668373102955 0
outer loop
vertex 88.1721333806217 -109.24320878917229 1
vertex 88.02458982358773 -108.63086935888573 0
vertex 88.17213338062174 -109.24320878917239 0
endloop
endfacet
facet normal -0.9233529750023669 -0.383952189151564 0
outer loop
vertex 88.41397104857117 -109.82479560252582 1
vertex 88.1721333806217 -109.24320878917229 1
vertex 88.17213338062174 -109.24320878917239 0
endloop
endfacet
facet normal -0.9233529750023669 -0.383952189151564 0
outer loop
vertex 88.41397104857117 -109.82479560252582 1
vertex 88.17213338062174 -109.24320878917239 0
vertex 88.41397104857117 -109.82479560252584 0
endloop
endfacet
facet normal -0.8516337208853775 -0.5241373917694928 0
outer loop
vertex 88.7441063312759 -110.36120903843084 1
vertex 88.41397104857117 -109.82479560252582 1
vertex 88.41397104857117 -109.82479560252584 0
endloop
endfacet
facet normal -0.8516337208853775 -0.5241373917694928 0
outer loop
vertex 88.7441063312759 -110.36120903843084 1
vertex 88.41397104857117 -109.82479560252584 0
vertex 88.74410633127589 -110.36120903843084 0
endloop
endfacet
facet normal -0.7587977466953578 -0.651326323443209 0
outer loop
vertex 89.15435334532121 -110.83914843476973 1
vertex 88.7441063312759 -110.36120903843084 1
vertex 88.74410633127589 -110.36120903843084 0
endloop
endfacet
facet normal -0.7587977466953578 -0.651326323443209 0
outer loop
vertex 89.15435334532121 -110.83914843476973 1
vertex 88.74410633127589 -110.36120903843084 0
vertex 89.15435334532117 -110.8391484347697 0
endloop
endfacet
facet normal -0.6471469707706207 -0.7623652656190532 0
outer loop
vertex 89.63453979345792 -111.24676302495496 1
vertex 89.15435334532121 -110.83914843476973 1
vertex 89.15435334532117 -110.8391484347697 0
endloop
endfacet
facet normal -0.6471469707706207 -0.7623652656190532 0
outer loop
vertex 89.63453979345792 -111.24676302495496 1
vertex 89.15435334532117 -110.8391484347697 0
vertex 89.63453979345785 -111.24676302495492 0
endloop
endfacet
facet normal -0.519449834664578 -0.8545009474932972 0
outer loop
vertex 90.17275919223012 -111.57394578411473 1
vertex 89.63453979345792 -111.24676302495496 1
vertex 89.63453979345785 -111.24676302495492 0
endloop
endfacet
facet normal -0.519449834664578 -0.8545009474932972 0
outer loop
vertex 90.17275919223012 -111.57394578411473 1
vertex 89.63453979345785 -111.24676302495492 0
vertex 90.17275919223 -111.57394578411466 0
endloop
endfacet
facet normal 0 0 -1
outer loop
vertex 90.75566609969087 -111.81258403825707 1
vertex 90.3904964856863 -111.66308599999999 1
vertex 90.17275919223012 -111.57394578411473 1
endloop
endfacet
facet normal 0 0 -1
outer loop
vertex 90.75566609969087 -111.81258403825707 1
vertex 90.17275919223012 -111.57394578411473 1
vertex 90.17275919223 -111.57394578411466 0
endloop
endfacet
facet normal 0 0 -1
outer loop
vertex 90.75566609969087 -111.81258403825707 1
vertex 90.17275919223 -111.57394578411466 0
vertex 90.39049648568637 -111.66308599999999 0
endloop
endfacet
facet normal 0 0 -1
outer loop
vertex 90.75566609969087 -111.81258403825707 1
vertex 90.39049648568637 -111.66308599999999 0
vertex 90.75566609969096 -111.81258403825707 0
endloop
endfacet
facet normal -0.22890112853070835 -0.9734496768489721 0
outer loop
vertex 91.36880702287596 -111.95676062242292 1
vertex 90.75566609969087 -111.81258403825707 1
vertex 90.75566609969096 -111.81258403825707 0
endloop
endfacet
facet normal -0.22890112853070835 -0.9734496768489721 0
outer loop
vertex 91.36880702287596 -111.95676062242292 1
vertex 90.75566609969096 -111.81258403825707 0
vertex 91.36880702287596 -111.95676062242289 0
endloop
endfacet
facet normal -0.07325495794110284 -0.9973132462456554 0
outer loop
vertex 91.99697759999964 -112.0029012 1
vertex 91.36880702287596 -111.95676062242292 1
vertex 91.36880702287596 -111.95676062242289 0
endloop
endfacet
facet normal -0.07325495794110284 -0.9973132462456554 0
outer loop
vertex 91.99697759999964 -112.0029012 1
vertex 91.36880702287596 -111.95676062242289 0
vertex 91.99697760000011 -112.0029012 0
endloop
endfacet
facet normal 0.0054944677497985595 -0.9999849052981482 0
outer loop
vertex 153.84283529999854 -111.66308599999999 1
vertex 91.99697759999964 -112.0029012 1
vertex 91.99697760000011 -112.0029012 0
endloop
endfacet
facet normal 0.0054944677497985595 -0.9999849052981482 0
outer loop
vertex 153.84283529999854 -111.66308599999999 1
vertex 91.99697760000011 -112.0029012 0
vertex 153.8428353000001 -111.66308599999999 0
endloop
endfacet
facet normal -0.07686780497617457 -0.9970412933064232 0
outer loop
vertex 154.4996734162811 -111.71372553174476 1
vertex 153.84283529999854 -111.66308599999999 1
vertex 153.8428353000001 -111.66308599999999 0
endloop
endfacet
facet normal -0.07686780497617457 -0.9970412933064232 0
outer loop
vertex 154.4996734162811 -111.71372553174476 1
vertex 153.8428353000001 -111.66308599999999 0
vertex 154.49967341628087 -111.71372553174471 0
endloop
endfacet
facet normal -0.23947709190514363 -0.9709020148566258 0
outer loop
vertex 155.13929130855203 -111.87148999245005 1
vertex 154.4996734162811 -111.71372553174476 1
vertex 154.49967341628087 -111.71372553174471 0
endloop
endfacet
facet normal -0.23947709190514363 -0.9709020148566258 0
outer loop
vertex 155.13929130855203 -111.87148999245005 1
vertex 154.49967341628087 -111.71372553174471 0
vertex 155.13929130855198 -111.87148999245004 0
endloop
endfacet
facet normal -0.3955905526405629 -0.918426978404671 0
outer loop
vertex 155.74433931457432 -112.13210001448162 1
vertex 155.13929130855203 -111.87148999245005 1
vertex 155.13929130855198 -111.87148999245004 0
endloop
endfacet
facet normal -0.3955905526405629 -0.918426978404671 0
outer loop
vertex 155.74433931457432 -112.13210001448162 1
vertex 155.13929130855198 -111.87148999245004 0
vertex 155.74433931457435 -112.13210001448164 0
endloop
endfacet
facet normal -0.5409736029918123 -0.8410395715220879 0
outer loop
vertex 156.29840548172814 -112.48848654002715 1
vertex 155.74433931457432 -112.13210001448162 1
vertex 155.74433931457435 -112.13210001448164 0
endloop
endfacet
facet normal -0.5409736029918123 -0.8410395715220879 0
outer loop
vertex 156.29840548172814 -112.48848654002715 1
vertex 155.74433931457435 -112.13210001448164 0
vertex 156.29840548172805 -112.4884865400271 0
endloop
endfacet
facet normal -0.6716827216012334 -0.7408389308765839 0
outer loop
vertex 156.78646074191784 -112.93098256958669 1
vertex 156.29840548172814 -112.48848654002715 1
vertex 156.29840548172805 -112.4884865400271 0
endloop
endfacet
facet normal -0.6716827216012334 -0.7408389308765839 0
outer loop
vertex 156.78646074191784 -112.93098256958669 1
vertex 156.29840548172805 -112.4884865400271 0
vertex 156.78646074191795 -112.9309825695868 0
endloop
endfacet
facet normal -0.7841724181272403 -0.6205430030614131 0
outer loop
vertex 157.1952665756767 -113.44758537974117 1
vertex 156.78646074191784 -112.93098256958669 1
vertex 156.78646074191795 -112.9309825695868 0
endloop
endfacet
facet normal -0.7841724181272403 -0.6205430030614131 0
outer loop
vertex 157.1952665756767 -113.44758537974117 1
vertex 156.78646074191795 -112.9309825695868 0
vertex 157.19526657567673 -113.44758537974117 0
endloop
endfacet
facet normal -0.875391404818726 -0.4834148201798301 0
outer loop
vertex 157.51373410756437 -114.02428209753026 1
vertex 157.1952665756767 -113.44758537974117 1
vertex 157.19526657567673 -113.44758537974117 0
endloop
endfacet
facet normal -0.875391404818726 -0.4834148201798301 0
outer loop
vertex 157.51373410756437 -114.02428209753026 1
vertex 157.19526657567673 -113.44758537974117 0
vertex 157.51373410756435 -114.02428209753015 0
endloop
endfacet
facet normal -0.9428653628238091 -0.33317398996189224 0
outer loop
vertex 157.73322489237893 -114.6454298002195 1
vertex 157.51373410756437 -114.02428209753026 1
vertex 157.51373410756435 -114.02428209753015 0
endloop
endfacet
facet normal -0.9428653628238091 -0.33317398996189224 0
outer loop
vertex 157.73322489237893 -114.6454298002195 1
vertex 157.51373410756435 -114.02428209753015 0
vertex 157.7332248923789 -114.64542980021942 0
endloop
endfacet
facet normal -0.9847640581926923 -0.17389580124850576 0
outer loop
vertex 157.8477852333478 -115.29417983024013 1
vertex 157.73322489237893 -114.6454298002195 1
vertex 157.7332248923789 -114.64542980021942 0
endloop
endfacet
facet normal -0.9847640581926923 -0.17389580124850576 0
outer loop
vertex 157.8477852333478 -115.29417983024013 1
vertex 157.7332248923789 -114.64542980021942 0
vertex 157.84778523334782 -115.29417983024037 0
endloop
endfacet
facet normal -0.9999509870506954 -0.009900681609877893 0
outer loop
vertex 157.85430767640224 -115.95293481573304 1
vertex 157.8477852333478 -115.29417983024013 1
vertex 157.84778523334782 -115.29417983024037 0
endloop
endfacet
facet normal -0.9999509870506954 -0.009900681609877893 0
outer loop
vertex 157.85430767640224 -115.95293481573304 1
vertex 157.84778523334782 -115.29417983024037 0
vertex 157.85430767640227 -115.9529348157329 0
endloop
endfacet
facet normal -0.9880129705229596 0.15437088481445477 0
outer loop
vertex 157.75261060000003 -116.60382199999985 1
vertex 157.85430767640224 -115.95293481573304 1
vertex 157.85430767640227 -115.9529348157329 0
endloop
endfacet
facet normal -0.9880129705229596 0.15437088481445477 0
outer loop
vertex 157.75261060000003 -116.60382199999985 1
vertex 157.85430767640227 -115.9529348157329 0
vertex 157.75261059999997 -116.60382200000019 0
endloop
endfacet
facet normal 0 0 -1
outer loop
vertex 155.18951149999998 -127.19572460000008 1
vertex 155.52032929281773 -125.82863355000006 1
vertex 155.6310637231033 -125.37102802860177 1
endloop
endfacet
facet normal 0 0 -1
outer loop
vertex 155.18951149999998 -127.19572460000008 1
vertex 155.6310637231033 -125.37102802860177 1
vertex 155.75374978813267 -124.86403286358126 1
endloop
endfacet
facet normal 0 0 -1
outer loop
vertex 155.18951149999998 -127.19572460000008 1
vertex 155.75374978813267 -124.86403286358126 1
vertex 155.88573045874796 -124.31862811967581 1
endloop
endfacet
facet normal 0 0 -1
outer loop
vertex 155.18951149999998 -127.19572460000008 1
vertex 155.88573045874796 -124.31862811967581 1
vertex 156.02414741122632 -123.74662570321061 1
endloop
endfacet
facet normal 0 0 -1
outer loop
vertex 155.18951149999998 -127.19572460000008 1
vertex 156.02414741122632 -123.74662570321061 1
vertex 156.16600207134198 -123.1604171000001 1
endloop
endfacet
facet normal 0 0 -1
outer loop
vertex 155.18951149999998 -127.19572460000008 1
vertex 156.16600207134198 -123.1604171000001 1
vertex 157.75261060000003 -116.60382199999985 1
endloop
endfacet
facet normal 0 0 -1
outer loop
vertex 155.18951149999998 -127.19572460000008 1
vertex 157.75261060000003 -116.60382199999985 1
vertex 157.75261059999997 -116.60382200000019 0
endloop
endfacet
facet normal 0 0 -1
outer loop
vertex 155.18951149999998 -127.19572460000008 1
vertex 157.75261059999997 -116.60382200000019 0
vertex 156.1660020713421 -123.1604170999998 0
endloop
endfacet
facet normal 0 0 -1
outer loop
vertex 155.18951149999998 -127.19572460000008 1
vertex 156.1660020713421 -123.1604170999998 0
vertex 156.02414741122638 -123.74662570321054 0
endloop
endfacet
facet normal 0 0 -1
outer loop
vertex 155.18951149999998 -127.19572460000008 1
vertex 156.02414741122638 -123.74662570321054 0
vertex 155.8857304587479 -124.31862811967626 0
endloop
endfacet
facet normal 0 0 -1
outer loop
vertex 155.18951149999998 -127.19572460000008 1
vertex 155.8857304587479 -124.31862811967626 0
vertex 155.7537497881328 -124.86403286358086 0
endloop
endfacet
facet normal 0 0 -1
outer loop
vertex 155.18951149999998 -127.19572460000008 1
vertex 155.7537497881328 -124.86403286358086 0
vertex 155.63106372310332 -125.37102802860181 0
endloop
endfacet
facet normal 0 0 -1
outer loop
vertex 155.18951149999998 -127.19572460000008 1
vertex 155.63106372310332 -125.37102802860181 0
vertex 155.52032929281782 -125.82863354999992 0
endloop
endfacet
facet normal 0 0 -1
outer loop
vertex 155.18951149999998 -127.19572460000008 1
vertex 155.52032929281782 -125.82863354999992 0
vertex 155.1895115 -127.19572459999979 0
endloop
endfacet
facet normal -0.9871261344822888 0.15994372329683423 0
outer loop
vertex 155.091354475879 -127.80152120017667 1
vertex 155.18951149999998 -127.19572460000008 1
vertex 155.1895115 -127.19572459999979 0
endloop
endfacet
facet normal -0.9871261344822888 0.15994372329683423 0
outer loop
vertex 155.091354475879 -127.80152120017667 1
vertex 155.1895115 -127.19572459999979 0
vertex 155.091354475879 -127.80152120017661 0
endloop
endfacet
facet normal -0.9999750892402568 0.007058392093142629 0
outer loop
vertex 155.0870227600188 -128.4152031686327 1
vertex 155.091354475879 -127.80152120017667 1
vertex 155.091354475879 -127.80152120017661 0
endloop
endfacet
facet normal -0.9999750892402568 0.007058392093142629 0
outer loop
vertex 155.0870227600188 -128.4152031686327 1
vertex 155.091354475879 -127.80152120017661 0
vertex 155.0870227600188 -128.41520316863267 0
endloop
endfacet
facet normal -0.9892856102374671 -0.14599308674414155 0
outer loop
vertex 155.17661831676622 -129.0223250331548 1
vertex 155.0870227600188 -128.4152031686327 1
vertex 155.0870227600188 -128.41520316863267 0
endloop
endfacet
facet normal -0.9892856102374671 -0.14599308674414155 0
outer loop
vertex 155.17661831676622 -129.0223250331548 1
vertex 155.0870227600188 -128.41520316863267 0
vertex 155.17661831676625 -129.022325033155 0
endloop
endfacet
facet normal -0.9553093173354161 -0.29560803137286584 0
outer loop
vertex 155.35803215450719 -129.6085957399507 1
vertex 155.17661831676622 -129.0223250331548 1
vertex 155.17661831676625 -129.022325033155 0
endloop
endfacet
facet normal -0.9553093173354161 -0.29560803137286584 0
outer loop
vertex 155.35803215450719 -129.6085957399507 1
vertex 155.17661831676625 -129.022325033155 0
vertex 155.35803215450707 -129.60859573995043 0
endloop
endfacet
facet normal -0.8988459791768414 -0.4382646525988893 0
outer loop
vertex 155.62699396926158 -130.16021505104612 1
vertex 155.35803215450719 -129.6085957399507 1
vertex 155.35803215450707 -129.60859573995043 0
endloop
endfacet
facet normal -0.8988459791768414 -0.4382646525988893 0
outer loop
vertex 155.62699396926158 -130.16021505104612 1
vertex 155.35803215450707 -129.60859573995043 0
vertex 155.62699396926163 -130.16021505104624 0
endloop
endfacet
facet normal -0.8212246874155829 -0.5706049533426593 0
outer loop
vertex 155.97717266345717 -130.6641983883721 1
vertex 155.62699396926158 -130.16021505104612 1
vertex 155.62699396926163 -130.16021505104624 0
endloop
endfacet
facet normal -0.8212246874155829 -0.5706049533426593 0
outer loop
vertex 155.97717266345717 -130.6641983883721 1
vertex 155.62699396926163 -130.16021505104624 0
vertex 155.97717266345705 -130.66419838837197 0
endloop
endfacet
facet normal -0.7242725712013848 -0.6895137726001817 0
outer loop
vertex 156.40032537375913 -131.10868247800164 1
vertex 155.97717266345717 -130.6641983883721 1
vertex 155.97717266345705 -130.66419838837197 0
endloop
endfacet
facet normal -0.7242725712013848 -0.6895137726001817 0
outer loop
vertex 156.40032537375913 -131.10868247800164 1
vertex 155.97717266345705 -130.66419838837197 0
vertex 156.40032537375924 -131.10868247800175 0
endloop
endfacet
facet normal -0.6102753106370215 -0.7921893998450666 0
outer loop
vertex 156.88649300000006 -131.48320920000003 1
vertex 156.40032537375913 -131.10868247800164 1
vertex 156.40032537375924 -131.10868247800175 0
endloop
endfacet
facet normal -0.6102753106370215 -0.7921893998450666 0
outer loop
vertex 156.88649300000006 -131.48320920000003 1
vertex 156.40032537375924 -131.10868247800175 0
vertex 156.88649299999986 -131.4832091999999 0
endloop
endfacet
facet normal -0.5477018518335973 -0.8366735812119613 0
outer loop
vertex 209.65071229999987 -166.02363364999988 1
vertex 156.88649300000006 -131.48320920000003 1
vertex 156.88649299999986 -131.4832091999999 0
endloop
endfacet
facet normal -0.5477018518335973 -0.8366735812119613 0
outer loop
vertex 209.65071229999987 -166.02363364999988 1
vertex 156.88649299999986 -131.4832091999999 0
vertex 209.6507123 -166.02363364999997 0
endloop
endfacet
facet normal -0.4758994316872312 -0.8794997049003316 0
outer loop
vertex 210.238426178459 -166.341647060573 1
vertex 209.65071229999987 -166.02363364999988 1
vertex 209.6507123 -166.02363364999997 0
endloop
endfacet
facet normal -0.4758994316872312 -0.8794997049003316 0
outer loop
vertex 210.238426178459 -166.341647060573 1
vertex 209.6507123 -166.02363364999997 0
vertex 210.23842617845904 -166.34164706057302 0
endloop
endfacet
facet normal -0.3228435520805137 -0.9464523447485546 0
outer loop
vertex 210.87088026026188 -166.5573829329917 1
vertex 210.238426178459 -166.341647060573 1
vertex 210.23842617845904 -166.34164706057302 0
endloop
endfacet
facet normal -0.3228435520805137 -0.9464523447485546 0
outer loop
vertex 210.87088026026188 -166.5573829329917 1
vertex 210.23842617845904 -166.34164706057302 0
vertex 210.87088026026188 -166.55738293299171 0
endloop
endfacet
facet normal -0.16077750982134353 -0.9869906748980193 0
outer loop
vertex 211.53042353732627 -166.6648203469437 1
vertex 210.87088026026188 -166.5573829329917 1
vertex 210.87088026026188 -166.55738293299171 0
endloop
endfacet
facet normal -0.16077750982134353 -0.9869906748980193 0
outer loop
vertex 211.53042353732627 -166.6648203469437 1
vertex 210.87088026026188 -166.55738293299171 0
vertex 211.53042353732616 -166.66482034694374 0
endloop
endfacet
facet normal 0.005775633093747956 -0.9999833208920869 0
outer loop
vertex 212.19864897576718 -166.66096085761453 1
vertex 211.53042353732627 -166.6648203469437 1
vertex 211.53042353732616 -166.66482034694374 0
endloop
endfacet
facet normal 0.005775633093747956 -0.9999833208920869 0
outer loop
vertex 212.19864897576718 -166.66096085761453 1
vertex 211.53042353732616 -166.66482034694374 0
vertex 212.19864897576718 -166.66096085761455 0
endloop
endfacet
facet normal 0.17216758526109344 -0.9850676741145069 0
outer loop
vertex 212.85690723335648 -166.54591217855884 1
vertex 212.19864897576718 -166.66096085761453 1
vertex 212.19864897576718 -166.66096085761455 0
endloop
endfacet
facet normal 0.17216758526109344 -0.9850676741145069 0
outer loop
vertex 212.85690723335648 -166.54591217855884 1
vertex 212.19864897576718 -166.66096085761455 0
vertex 212.85690723335634 -166.5459121785589 0
endloop
endfacet
facet normal 0.3337545539102964 -0.9426600117455599 0
outer loop
vertex 213.48682713950825 -166.32288517554895 1
vertex 212.85690723335648 -166.54591217855884 1
vertex 212.85690723335634 -166.5459121785589 0
endloop
endfacet
facet normal 0.3337545539102964 -0.9426600117455599 0
outer loop
vertex 213.48682713950825 -166.32288517554895 1
vertex 212.85690723335634 -166.5459121785589 0
vertex 213.48682713950834 -166.32288517554892 0
endloop
endfacet
facet normal 0.4860268473946404 -0.8739438789828708 0
outer loop
vertex 214.07082841183458 -165.99810425529859 1
vertex 213.48682713950825 -166.32288517554895 1
vertex 213.48682713950834 -166.32288517554892 0
endloop
endfacet
facet normal 0.4860268473946404 -0.8739438789828708 0
outer loop
vertex 214.07082841183458 -165.99810425529859 1
vertex 213.48682713950834 -166.32288517554892 0
vertex 214.07082841183455 -165.9981042552986 0
endloop
endfacet
facet normal 0.6247297257562187 -0.7808410656187083 0
outer loop
vertex 214.59261459999965 -165.58063730000026 1
vertex 214.07082841183458 -165.99810425529859 1
vertex 214.07082841183455 -165.9981042552986 0
endloop
endfacet
facet normal 0.6247297257562187 -0.7808410656187083 0
outer loop
vertex 214.59261459999965 -165.58063730000026 1
vertex 214.07082841183455 -165.9981042552986 0
vertex 214.59261459999985 -165.58063730000012 0
endloop
endfacet
facet normal 0.6877734158641091 -0.7259254289736758 0
outer loop
vertex 233.39278195000014 -147.76853869999982 1
vertex 214.59261459999965 -165.58063730000026 1
vertex 214.59261459999985 -165.58063730000012 0
endloop
endfacet
facet normal 0.6877734158641091 -0.7259254289736758 0
outer loop
vertex 233.39278195000014 -147.76853869999982 1
vertex 214.59261459999985 -165.58063730000012 0
vertex 233.39278194999966 -147.7685387000003 0
endloop
endfacet
facet normal 0.7482616857023359 -0.6634036853303567 0
outer loop
vertex 233.85402969117754 -147.24829134537748 1
vertex 233.39278195000014 -147.76853869999982 1
vertex 233.39278194999966 -147.7685387000003 0
endloop
endfacet
facet normal 0.7482616857023359 -0.6634036853303567 0
outer loop
vertex 233.85402969117754 -147.24829134537748 1
vertex 233.39278194999966 -147.7685387000003 0
vertex 233.85402969117757 -147.2482913453774 0
endloop
endfacet
facet normal 0.851833719861121 -0.5238122886183229 0
outer loop
vertex 234.21822307790194 -146.65603298469532 1
vertex 233.85402969117754 -147.24829134537748 1
vertex 233.85402969117757 -147.2482913453774 0
endloop
endfacet
facet normal 0.851833719861121 -0.5238122886183229 0
outer loop
vertex 234.21822307790194 -146.65603298469532 1
vertex 233.85402969117757 -147.2482913453774 0
vertex 234.2182230779021 -146.65603298469503 0
endloop
endfacet
facet normal 0.9296693663291228 -0.3683949908850652 0
outer loop
vertex 234.47435876295225 -146.00965747496616 1
vertex 234.21822307790194 -146.65603298469532 1
vertex 234.2182230779021 -146.65603298469503 0
endloop
endfacet
facet normal 0.9296693663291228 -0.3683949908850652 0
outer loop
vertex 234.47435876295225 -146.00965747496616 1
vertex 234.2182230779021 -146.65603298469503 0
vertex 234.47435876295225 -146.00965747496636 0
endloop
endfacet
facet normal 0.9794169826120952 -0.20184740318126193 0
outer loop
vertex 234.61469813826557 -145.32869371053476 1
vertex 234.47435876295225 -146.00965747496616 1
vertex 234.47435876295225 -146.00965747496636 0
endloop
endfacet
facet normal 0.9794169826120952 -0.20184740318126193 0
outer loop
vertex 234.61469813826557 -145.32869371053476 1
vertex 234.47435876295225 -146.00965747496636 0
vertex 234.61469813826557 -145.32869371053488 0
endloop
endfacet
facet normal 0.9995735477453929 -0.029201415165857725 0
outer loop
vertex 234.6350011409203 -144.63371559806222 1
vertex 234.61469813826557 -145.32869371053476 1
vertex 234.61469813826557 -145.32869371053488 0
endloop
endfacet
facet normal 0.9995735477453929 -0.029201415165857725 0
outer loop
vertex 234.6350011409203 -144.63371559806222 1
vertex 234.61469813826557 -145.32869371053488 0
vertex 234.6350011409203 -144.63371559806228 0
endloop
endfacet
facet normal 0.98953007295259 0.1443268329952616 0
outer loop
vertex 234.5346543578342 -143.94572045864834 1
vertex 234.6350011409203 -144.63371559806222 1
vertex 234.6350011409203 -144.63371559806228 0
endloop
endfacet
facet normal 0.98953007295259 0.1443268329952616 0
outer loop
vertex 234.5346543578342 -143.94572045864834 1
vertex 234.6350011409203 -144.63371559806228 0
vertex 234.53465435783423 -143.94572045864842 0
endloop
endfacet
facet normal 0.9495900009772595 0.3134945454772832 0
outer loop
vertex 234.3166895587679 -143.2854946373562 1
vertex 234.5346543578342 -143.94572045864834 1
vertex 234.53465435783423 -143.94572045864842 0
endloop
endfacet
facet normal 0.9495900009772595 0.3134945454772832 0
outer loop
vertex 234.3166895587679 -143.2854946373562 1
vertex 234.53465435783423 -143.94572045864842 0
vertex 234.3166895587679 -143.2854946373562 0
endloop
endfacet
facet normal 0.8809600381903323 0.47319067098970585 0
outer loop
vertex 233.987692097695 -142.67298548694305 1
vertex 234.3166895587679 -143.2854946373562 1
vertex 234.3166895587679 -143.2854946373562 0
endloop
endfacet
facet normal 0.8809600381903323 0.47319067098970585 0
outer loop
vertex 233.987692097695 -142.67298548694305 1
vertex 234.3166895587679 -143.2854946373562 0
vertex 233.98769209769492 -142.6729854869429 0
endloop
endfacet
facet normal 0.7857157750874556 0.618587682369055 0
outer loop
vertex 233.55760389999975 -142.12669739999973 1
vertex 233.987692097695 -142.67298548694305 1
vertex 233.98769209769492 -142.6729854869429 0
endloop
endfacet
facet normal 0.7857157750874556 0.618587682369055 0
outer loop
vertex 233.55760389999975 -142.12669739999973 1
vertex 233.98769209769492 -142.6729854869429 0
vertex 233.5576039 -142.1266974 0
endloop
endfacet
facet normal 0.7289801249348788 0.6845348621143619 0
outer loop
vertex 218.25321835000005 -125.82863355000006 1
vertex 233.55760389999975 -142.12669739999973 1
vertex 233.5576039 -142.1266974 0
endloop
endfacet
facet normal 0.7289801249348788 0.6845348621143619 0
outer loop
vertex 218.25321835000005 -125.82863355000006 1
vertex 233.5576039 -142.1266974 0
vertex 218.25321834999994 -125.82863354999992 0
endloop
endfacet
facet normal 0.777375274399484 0.6290371076115677 0
outer loop
vertex 217.88293277096636 -125.37102802860177 1
vertex 218.25321835000005 -125.82863355000006 1
vertex 218.25321834999994 -125.82863354999992 0
endloop
endfacet
facet normal 0.777375274399484 0.6290371076115677 0
outer loop
vertex 217.88293277096636 -125.37102802860177 1
vertex 218.25321834999994 -125.82863354999992 0
vertex 217.88293277096642 -125.37102802860181 0
endloop
endfacet
facet normal 0.8612778629129648 0.5081342764034681 0
outer loop
vertex 217.58381719815176 -124.86403286358126 1
vertex 217.88293277096636 -125.37102802860177 1
vertex 217.88293277096642 -125.37102802860181 0
endloop
endfacet
facet normal 0.8612778629129648 0.5081342764034681 0
outer loop
vertex 217.58381719815176 -124.86403286358126 1
vertex 217.88293277096642 -125.37102802860181 0
vertex 217.58381719815154 -124.86403286358086 0
endloop
endfacet
facet normal 0.9265276370718689 0.3762267105642812 0
outer loop
vertex 217.36234961907965 -124.31862811967581 1
vertex 217.58381719815176 -124.86403286358126 1
vertex 217.58381719815154 -124.86403286358086 0
endloop
endfacet
facet normal 0.9265276370718689 0.3762267105642812 0
outer loop
vertex 217.36234961907965 -124.31862811967581 1
vertex 217.58381719815154 -124.86403286358086 0
vertex 217.3623496190798 -124.31862811967626 0
endloop
endfacet
facet normal 0.9717114734505238 0.2361711505764669 0
outer loop
vertex 217.22332638788387 -123.74662570321061 1
vertex 217.36234961907965 -124.31862811967581 1
vertex 217.3623496190798 -124.31862811967626 0
endloop
endfacet
facet normal 0.9717114734505238 0.2361711505764669 0
outer loop
vertex 217.22332638788387 -123.74662570321061 1
vertex 217.3623496190798 -124.31862811967626 0
vertex 217.2233263878839 -123.74662570321054 0
endloop
endfacet
facet normal 0.9958505154605665 0.0910041254939812 0
outer loop
vertex 217.1697567 -123.1604171000001 1
vertex 217.22332638788387 -123.74662570321061 1
vertex 217.2233263878839 -123.74662570321054 0
endloop
endfacet
facet normal 0.9958505154605665 0.0910041254939812 0
outer loop
vertex 217.1697567 -123.1604171000001 1
vertex 217.2233263878839 -123.74662570321054 0
vertex 217.1697567 -123.1604170999998 0
endloop
endfacet
facet normal 0 0 -1
outer loop
vertex 215.94594834999998 -53.16618870000002 1
vertex 216.96873255665938 -111.66308599999999 1
vertex 216.96961795940194 -111.71372553174476 1
endloop
endfacet
facet normal 0 0 -1
outer loop
vertex 215.94594834999998 -53.16618870000002 1
vertex 216.96961795940194 -111.71372553174476 1
vertex 216.9723763791854 -111.87148999245005 1
endloop
endfacet
facet normal 0 0 -1
outer loop
vertex 215.94594834999998 -53.16618870000002 1
vertex 216.9723763791854 -111.87148999245005 1
vertex 216.976932993757 -112.13210001448162 1
endloop
endfacet
facet normal 0 0 -1
outer loop
vertex 215.94594834999998 -53.16618870000002 1
vertex 216.976932993757 -112.13210001448162 1
vertex 216.98316420475481 -112.48848654002715 1
endloop
endfacet
facet normal 0 0 -1
outer loop
vertex 215.94594834999998 -53.16618870000002 1
vertex 216.98316420475481 -112.48848654002715 1
vertex 216.99090099031838 -112.93098256958669 1
endloop
endfacet
facet normal 0 0 -1
outer loop
vertex 215.94594834999998 -53.16618870000002 1
vertex 216.99090099031838 -112.93098256958669 1
vertex 216.9999334898137 -113.44758537974117 1
endloop
endfacet
facet normal 0 0 -1
outer loop
vertex 215.94594834999998 -53.16618870000002 1
vertex 216.9999334898137 -113.44758537974117 1
vertex 217.01001669631205 -114.02428209753026 1
endloop
endfacet
facet normal 0 0 -1
outer loop
vertex 215.94594834999998 -53.16618870000002 1
vertex 217.01001669631205 -114.02428209753026 1
vertex 217.02087710241284 -114.6454298002195 1
endloop
endfacet
facet normal 0 0 -1
outer loop
vertex 215.94594834999998 -53.16618870000002 1
vertex 217.02087710241284 -114.6454298002195 1
vertex 217.03222011914366 -115.29417983024013 1
endloop
endfacet
facet normal 0 0 -1
outer loop
vertex 215.94594834999998 -53.16618870000002 1
vertex 217.03222011914366 -115.29417983024013 1
vertex 217.04373806669847 -115.95293481573304 1
endloop
endfacet
facet normal 0 0 -1
outer loop
vertex 215.94594834999998 -53.16618870000002 1
vertex 217.04373806669847 -115.95293481573304 1
vertex 217.05511845032754 -116.60382199999985 1
endloop
endfacet
facet normal 0 0 -1
outer loop
vertex 215.94594834999998 -53.16618870000002 1
vertex 217.05511845032754 -116.60382199999985 1
vertex 217.1697567 -123.1604171000001 1
endloop
endfacet
facet normal 0 0 -1
outer loop
vertex 215.94594834999998 -53.16618870000002 1
vertex 217.1697567 -123.1604171000001 1
vertex 217.1697567 -123.1604170999998 0
endloop
endfacet
facet normal 0 0 -1
outer loop
vertex 215.94594834999998 -53.16618870000002 1
vertex 217.1697567 -123.1604170999998 0
vertex 217.05511845032754 -116.60382200000019 0
endloop
endfacet
facet normal 0 0 -1
outer loop
vertex 215.94594834999998 -53.16618870000002 1
vertex 217.05511845032754 -116.60382200000019 0
vertex 217.04373806669844 -115.9529348157329 0
endloop
endfacet
facet normal 0 0 -1
outer loop
vertex 215.94594834999998 -53.16618870000002 1
vertex 217.04373806669844 -115.9529348157329 0
vertex 217.03222011914363 -115.29417983024037 0
endloop
endfacet
facet normal 0 0 -1
outer loop
vertex 215.94594834999998 -53.16618870000002 1
vertex 217.03222011914363 -115.29417983024037 0
vertex 217.0208771024128 -114.64542980021942 0
endloop
endfacet
facet normal 0 0 -1
outer loop
vertex 215.94594834999998 -53.16618870000002 1
vertex 217.0208771024128 -114.64542980021942 0
vertex 217.01001669631205 -114.02428209753015 0
endloop
endfacet
facet normal 0 0 -1
outer loop
vertex 215.94594834999998 -53.16618870000002 1
vertex 217.01001669631205 -114.02428209753015 0
vertex 216.99993348981374 -113.44758537974117 0
endloop
endfacet
facet normal 0 0 -1
outer loop
vertex 215.94594834999998 -53.16618870000002 1
vertex 216.99993348981374 -113.44758537974117 0
vertex 216.99090099031838 -112.9309825695868 0
endloop
endfacet
facet normal 0 0 -1
outer loop
vertex 215.94594834999998 -53.16618870000002 1
vertex 216.99090099031838 -112.9309825695868 0
vertex 216.98316420475484 -112.4884865400271 0
endloop
endfacet
facet normal 0 0 -1
outer loop
vertex 215.94594834999998 -53.16618870000002 1
vertex 216.98316420475484 -112.4884865400271 0
vertex 216.976932993757 -112.13210001448164 0
endloop
endfacet
facet normal 0 0 -1
outer loop
vertex 215.94594834999998 -53.16618870000002 1
vertex 216.976932993757 -112.13210001448164 0
vertex 216.97237637918542 -111.87148999245004 0
endloop
endfacet
facet normal 0 0 -1
outer loop
vertex 215.94594834999998 -53.16618870000002 1
vertex 216.97237637918542 -111.87148999245004 0
vertex 216.96961795940197 -111.71372553174471 0
endloop
endfacet
facet normal 0 0 -1
outer loop
vertex 215.94594834999998 -53.16618870000002 1
vertex 216.96961795940197 -111.71372553174471 0
vertex 216.9687325566594 -111.66308599999999 0
endloop
endfacet
facet normal 0 0 -1
outer loop
vertex 215.94594834999998 -53.16618870000002 1
vertex 216.9687325566594 -111.66308599999999 0
vertex 215.94594834999995 -53.1661886999997 0
endloop
endfacet
facet normal 0.9952851969408142 0.09699163237354481 0
outer loop
vertex 215.88420236622738 -52.53257874710501 1
vertex 215.94594834999998 -53.16618870000002 1
vertex 215.94594834999995 -53.1661886999997 0
endloop
endfacet
facet normal 0.9952851969408142 0.09699163237354481 0
outer loop
vertex 215.88420236622738 -52.53257874710501 1
vertex 215.94594834999995 -53.1661886999997 0
vertex 215.88420236622738 -52.532578747105134 0
endloop
endfacet
facet normal 0.9672925489922924 0.2536634082085817 0
outer loop
vertex 215.7227173359866 -51.9167892344242 1
vertex 215.88420236622738 -52.53257874710501 1
vertex 215.88420236622738 -52.532578747105134 0
endloop
endfacet
facet normal 0.9672925489922924 0.2536634082085817 0
outer loop
vertex 215.7227173359866 -51.9167892344242 1
vertex 215.88420236622738 -52.532578747105134 0
vertex 215.72271733598652 -51.916789234423916 0
endloop
endfacet
facet normal 0.9147987351140092 0.403909982835048 0
outer loop
vertex 215.46558361593875 -51.3344178847391 1
vertex 215.7227173359866 -51.9167892344242 1
vertex 215.72271733598652 -51.916789234423916 0
endloop
endfacet
facet normal 0.9147987351140092 0.403909982835048 0
outer loop
vertex 215.46558361593875 -51.3344178847391 1
vertex 215.72271733598652 -51.916789234423916 0
vertex 215.4655836159389 -51.33441788473935 0
endloop
endfacet
facet normal 0.8391334043820985 0.5439256655556066 0
outer loop
vertex 215.11931430902024 -50.80021595100471 1
vertex 215.46558361593875 -51.3344178847391 1
vertex 215.4655836159389 -51.33441788473935 0
endloop
endfacet
facet normal 0.8391334043820985 0.5439256655556066 0
outer loop
vertex 215.11931430902024 -50.80021595100471 1
vertex 215.4655836159389 -51.33441788473935 0
vertex 215.11931430902024 -50.80021595100476 0
endloop
endfacet
facet normal 0.7422131319064518 0.6701639104171576 0
outer loop
vertex 214.69268028993054 -50.32771457251466 1
vertex 215.11931430902024 -50.80021595100471 1
vertex 215.11931430902024 -50.80021595100476 0
endloop
endfacet
facet normal 0.7422131319064518 0.6701639104171576 0
outer loop
vertex 214.69268028993054 -50.32771457251466 1
vertex 215.11931430902024 -50.80021595100476 0
vertex 214.6926802899304 -50.327714572514544 0
endloop
endfacet
facet normal 0.6264928726853016 0.7794271489206148 0
outer loop
vertex 214.19648804208995 -49.928882036100795 1
vertex 214.69268028993054 -50.32771457251466 1
vertex 214.6926802899304 -50.327714572514544 0
endloop
endfacet
facet normal 0.6264928726853016 0.7794271489206148 0
outer loop
vertex 214.19648804208995 -49.928882036100795 1
vertex 214.6926802899304 -50.327714572514544 0
vertex 214.19648804208984 -49.92888203610071 0
endloop
endfacet
facet normal 0.49490377849437595 0.8689477832597249 0
outer loop
vertex 213.64330593337183 -49.613820623810795 1
vertex 214.19648804208995 -49.928882036100795 1
vertex 214.19648804208984 -49.92888203610071 0
endloop
endfacet
facet normal 0.49490377849437595 0.8689477832597249 0
outer loop
vertex 213.64330593337183 -49.613820623810795 1
vertex 214.19648804208984 -49.92888203610071 0
vertex 213.64330593337192 -49.613820623810824 0
endloop
endfacet
facet normal 0.3507789528860635 0.9364582885596973 0
outer loop
vertex 213.04714586395053 -49.39051072580592 1
vertex 213.64330593337183 -49.613820623810795 1
vertex 213.64330593337192 -49.613820623810824 0
endloop
endfacet
facet normal 0.3507789528860635 0.9364582885596973 0
outer loop
vertex 213.04714586395053 -49.39051072580592 1
vertex 213.64330593337192 -49.613820623810824 0
vertex 213.0471458639506 -49.39051072580593 0
endloop
endfacet
facet normal 0.19777048462182112 0.9802483539452898 0
outer loop
vertex 212.4231067000001 -49.26460740000002 1
vertex 213.04714586395053 -49.39051072580592 1
vertex 213.0471458639506 -49.39051072580593 0
endloop
endfacet
facet normal 0.19777048462182112 0.9802483539452898 0
outer loop
vertex 212.4231067000001 -49.26460740000002 1
vertex 213.0471458639506 -49.39051072580593 0
vertex 212.42310670000006 -49.26460740000001 0
endloop
endfacet
facet normal 0.11913536486003193 0.9928780211283093 0
outer loop
vertex 136.37043124999997 -40.139052150000005 1
vertex 212.4231067000001 -49.26460740000002 1
vertex 212.42310670000006 -49.26460740000001 0
endloop
endfacet
facet normal 0.11913536486003193 0.9928780211283093 0
outer loop
vertex 136.37043124999997 -40.139052150000005 1
vertex 212.42310670000006 -49.26460740000001 0
vertex 136.37043125000002 -40.139052150000005 0
endloop
endfacet
facet normal 0.07140192167230452 0.9974476254829134 0
outer loop
vertex 135.98785358482502 -40.111665468449516 1
vertex 136.37043124999997 -40.139052150000005 1
vertex 136.37043125000002 -40.139052150000005 0
endloop
endfacet
facet normal 0.07140192167230452 0.9974476254829134 0
outer loop
vertex 135.98785358482502 -40.111665468449516 1
vertex 136.37043125000002 -40.139052150000005 0
vertex 135.98785358482502 -40.11166546844951 0
endloop
endfacet
facet normal -0.024460764028958696 0.9997007907484717 0
outer loop
vertex 135.60441170313916 -40.12104755704396 1
vertex 135.98785358482502 -40.111665468449516 1
vertex 135.98785358482502 -40.11166546844951 0
endloop
endfacet
facet normal -0.024460764028958696 0.9997007907484717 0
outer loop
vertex 135.60441170313916 -40.12104755704396 1
vertex 135.98785358482502 -40.11166546844951 0
vertex 135.60441170313922 -40.12104755704395 0
endloop
endfacet
facet normal -0.1201044527355605 0.9927612605420759 0
outer loop
vertex 135.22363250000006 -40.167114299999994 1
vertex 135.60441170313916 -40.12104755704396 1
vertex 135.60441170313922 -40.12104755704395 0
endloop
endfacet
facet normal -0.1201044527355605 0.9927612605420759 0
outer loop
vertex 135.22363250000006 -40.167114299999994 1
vertex 135.60441170313922 -40.12104755704395 0
vertex 135.22363250000006 -40.167114299999994 0
endloop
endfacet
facet normal -0.167564892026192 0.9858610485054426 0
outer loop
vertex 107.68683064999962 -44.847491150000074 1
vertex 135.22363250000006 -40.167114299999994 1
vertex 135.22363250000006 -40.167114299999994 0
endloop
endfacet
facet normal -0.167564892026192 0.9858610485054426 0
outer loop
vertex 107.68683064999962 -44.847491150000074 1
vertex 135.22363250000006 -40.167114299999994 0
vertex 107.68683064999965 -44.84749115000006 0
endloop
endfacet
facet normal -0.18774906301977967 0.9822170276141596 0
outer loop
vertex 107.5257014601649 -44.87829071218043 1
vertex 107.68683064999962 -44.847491150000074 1
vertex 107.68683064999965 -44.84749115000006 0
endloop
endfacet
facet normal -0.18774906301977967 0.9822170276141596 0
outer loop
vertex 107.5257014601649 -44.87829071218043 1
vertex 107.68683064999965 -44.84749115000006 0
vertex 107.52570146016511 -44.87829071218038 0
endloop
endfacet
facet normal -0.22787252338969174 0.973690974120647 0
outer loop
vertex 107.36597130000015 -44.91567229999997 1
vertex 107.5257014601649 -44.87829071218043 1
vertex 107.52570146016511 -44.87829071218038 0
endloop
endfacet
facet normal -0.22787252338969174 0.973690974120647 0
outer loop
vertex 107.36597130000015 -44.91567229999997 1
vertex 107.52570146016511 -44.87829071218038 0
vertex 107.36597130000015 -44.91567229999997 0
endloop
endfacet
facet normal -0.24777860677858168 0.9688166813297886 0
outer loop
vertex 90.98388 -49.1054554 1
vertex 107.36597130000015 -44.91567229999997 1
vertex 107.36597130000015 -44.91567229999997 0
endloop
endfacet
facet normal -0.24777860677858168 0.9688166813297886 0
outer loop
vertex 90.98388 -49.1054554 1
vertex 107.36597130000015 -44.91567229999997 0
vertex 90.9838800000001 -49.10545539999997 0
endloop
endfacet
facet normal -0.3267982909075895 0.9450941101604002 0
outer loop
vertex 90.36063125782515 -49.3209647567544 1
vertex 90.98388 -49.1054554 1
vertex 90.9838800000001 -49.10545539999997 0
endloop
endfacet
facet normal -0.3267982909075895 0.9450941101604002 0
outer loop
vertex 90.36063125782515 -49.3209647567544 1
vertex 90.9838800000001 -49.10545539999997 0
vertex 90.36063125782508 -49.320964756754435 0
endloop
endfacet
facet normal -0.4776389759644107 0.8785562068756154 0
outer loop
vertex 89.78126138875227 -49.635947029718736 1
vertex 90.36063125782515 -49.3209647567544 1
vertex 90.36063125782508 -49.320964756754435 0
endloop
endfacet
facet normal -0.4776389759644107 0.8785562068756154 0
outer loop
vertex 89.78126138875227 -49.635947029718736 1
vertex 90.36063125782508 -49.320964756754435 0
vertex 89.78126138875228 -49.63594702971872 0
endloop
endfacet
facet normal -0.6154973358140426 0.7881389659227716 0
outer loop
vertex 89.26151778450212 -50.0418409361922 1
vertex 89.78126138875227 -49.635947029718736 1
vertex 89.78126138875228 -49.63594702971872 0
endloop
endfacet
facet normal -0.6154973358140426 0.7881389659227716 0
outer loop
vertex 89.26151778450212 -50.0418409361922 1
vertex 89.78126138875228 -49.63594702971872 0
vertex 89.26151778450215 -50.041840936192195 0
endloop
endfacet
facet normal -0.7366263519965657 0.676299946432226 0
outer loop
vertex 88.81552718270343 -50.52761419665282 1
vertex 89.26151778450212 -50.0418409361922 1
vertex 89.26151778450215 -50.041840936192195 0
endloop
endfacet
facet normal -0.7366263519965657 0.676299946432226 0
outer loop
vertex 88.81552718270343 -50.52761419665282 1
vertex 89.26151778450215 -50.041840936192195 0
vertex 88.81552718270339 -50.527614196652884 0
endloop
endfacet
facet normal -0.8377337130398402 0.5460789558630533 0
outer loop
vertex 88.4554116992707 -51.08006339437452 1
vertex 88.81552718270343 -50.52761419665282 1
vertex 88.81552718270339 -50.527614196652884 0
endloop
endfacet
facet normal -0.8377337130398402 0.5460789558630533 0
outer loop
vertex 88.4554116992707 -51.08006339437452 1
vertex 88.81552718270339 -50.527614196652884 0
vertex 88.45541169927068 -51.08006339437455 0
endloop
endfacet
facet normal -0.9160713001596917 0.4010154274136249 0
outer loop
vertex 88.19095934681046 -51.68417284699831 1
vertex 88.4554116992707 -51.08006339437452 1
vertex 88.45541169927068 -51.08006339437455 0
endloop
endfacet
facet normal -0.9160713001596917 0.4010154274136249 0
outer loop
vertex 88.19095934681046 -51.68417284699831 1
vertex 88.45541169927068 -51.08006339437455 0
vertex 88.19095934681043 -51.68417284699838 0
endloop
endfacet
facet normal -0.9695098816913641 0.24505221750230494 0
outer loop
vertex 88.02935799443344 -52.323522735855086 1
vertex 88.19095934681046 -51.68417284699831 1
vertex 88.19095934681043 -51.68417284699838 0
endloop
endfacet
facet normal -0.9695098816913641 0.24505221750230494 0
outer loop
vertex 88.02935799443344 -52.323522735855086 1
vertex 88.19095934681043 -51.68417284699838 0
vertex 88.02935799443345 -52.323522735855015 0
endloop
endfacet
facet normal -0.996596938647619 0.08242901114410013 0
outer loop
vertex 87.975 -52.98073079999992 1
vertex 88.02935799443344 -52.323522735855086 1
vertex 88.02935799443345 -52.323522735855015 0
endloop
endfacet
facet normal -0.996596938647619 0.08242901114410013 0
outer loop
vertex 87.975 -52.98073079999992 1
vertex 88.02935799443345 -52.323522735855015 0
vertex 87.975 -52.98073080000004 0
endloop
endfacet
facet normal -0.9999999999999998 2.1809370309711085e-8 0
outer loop
vertex 87.9749988 -108.00296060000015 1
vertex 87.975 -52.98073079999992 1
vertex 87.975 -52.98073080000004 0
endloop
endfacet
facet normal -0.9999999999999998 2.1809370309711085e-8 0
outer loop
vertex 87.9749988 -108.00296060000015 1
vertex 87.975 -52.98073080000004 0
vertex 87.97499879999998 -108.0029605999999 0
endloop
endfacet
endsolid csg.js
