solid csg.js
facet normal 0 0 -1
outer loop
vertex 350.14609503520114 -40.621229147913766 0
vertex 350.52786359999993 -40.6673686 0
vertex 378.0507455000001 -45.34537580000002 0
endloop
endfacet
facet normal 0 0 -1
outer loop
vertex 350.14609503520114 -40.621229147913766 0
vertex 378.0507455000001 -45.34537580000002 0
vertex 378.22417811846543 -45.37881392957741 0
endloop
endfacet
facet normal 0 0 -1
outer loop
vertex 350.14609503520114 -40.621229147913766 0
vertex 378.22417811846543 -45.37881392957741 0
vertex 378.39596099999994 -45.41987159999997 0
endloop
endfacet
facet normal 0 0 -1
outer loop
vertex 350.14609503520114 -40.621229147913766 0
vertex 378.39596099999994 -45.41987159999997 0
vertex 394.2904749999999 -49.59165739999996 0
endloop
endfacet
facet normal 0 0 -1
outer loop
vertex 350.14609503520114 -40.621229147913766 0
vertex 394.2904749999999 -49.59165739999996 0
vertex 394.90948423844344 -49.80979651153827 0
endloop
endfacet
facet normal 0 0 -1
outer loop
vertex 350.14609503520114 -40.621229147913766 0
vertex 394.90948423844344 -49.80979651153827 0
vertex 395.4844892356702 -50.126224011015445 0
endloop
endfacet
facet normal 0 0 -1
outer loop
vertex 350.14609503520114 -40.621229147913766 0
vertex 395.4844892356702 -50.126224011015445 0
vertex 396.000009523529 -50.532420936246034 0
endloop
endfacet
facet normal 0 0 -1
outer loop
vertex 350.14609503520114 -40.621229147913766 0
vertex 396.000009523529 -50.532420936246034 0
vertex 396.4421661002104 -51.01745152389921 0
endloop
endfacet
facet normal 0 0 -1
outer loop
vertex 350.14609503520114 -40.621229147913766 0
vertex 396.4421661002104 -51.01745152389921 0
vertex 396.79905508516254 -51.56825762560882 0
endloop
endfacet
facet normal 0 0 -1
outer loop
vertex 350.14609503520114 -40.621229147913766 0
vertex 396.79905508516254 -51.56825762560882 0
vertex 397.06106819916823 -52.17001026361723 0
endloop
endfacet
facet normal 0 0 -1
outer loop
vertex 350.14609503520114 -40.621229147913766 0
vertex 397.06106819916823 -52.17001026361723 0
vertex 397.2211514415039 -52.80650886124705 0
endloop
endfacet
facet normal 0 0 -1
outer loop
vertex 350.14609503520114 -40.621229147913766 0
vertex 397.2211514415039 -52.80650886124705 0
vertex 397.275 -53.46061480000036 0
endloop
endfacet
facet normal 0 0 -1
outer loop
vertex 350.14609503520114 -40.621229147913766 0
vertex 397.275 -53.46061480000036 0
vertex 397.2750012 -107.50296060000012 0
endloop
endfacet
facet normal 0 0 -1
outer loop
vertex 350.14609503520114 -40.621229147913766 0
vertex 397.2750012 -107.50296060000012 0
vertex 397.22541017641214 -108.13086935888659 0
endloop
endfacet
facet normal 0 0 -1
outer loop
vertex 350.14609503520114 -40.621229147913766 0
vertex 397.22541017641214 -108.13086935888659 0
vertex 397.0778666193784 -108.74320878917217 0
endloop
endfacet
facet normal 0 0 -1
outer loop
vertex 350.14609503520114 -40.621229147913766 0
vertex 397.0778666193784 -108.74320878917217 0
vertex 396.83602895142894 -109.32479560252568 0
endloop
endfacet
facet normal 0 0 -1
outer loop
vertex 350.14609503520114 -40.621229147913766 0
vertex 396.83602895142894 -109.32479560252568 0
vertex 396.5058936687245 -109.8612090384303 0
endloop
endfacet
facet normal 0 0 -1
outer loop
vertex 350.14609503520114 -40.621229147913766 0
vertex 396.5058936687245 -109.8612090384303 0
vertex 396.0956466546786 -110.33914843476985 0
endloop
endfacet
facet normal 0 0 -1
outer loop
vertex 350.14609503520114 -40.621229147913766 0
vertex 396.0956466546786 -110.33914843476985 0
vertex 395.61546020654197 -110.74676302495507 0
endloop
endfacet
facet normal 0 0 -1
outer loop
vertex 350.14609503520114 -40.621229147913766 0
vertex 395.61546020654197 -110.74676302495507 0
vertex 395.0772408077702 -111.0739457841146 0
endloop
endfacet
facet normal 0 0 -1
outer loop
vertex 350.14609503520114 -40.621229147913766 0
vertex 395.0772408077702 -111.0739457841146 0
vertex 394.85971223774493 -111.16300055 0
endloop
endfacet
facet normal 0 0 -1
outer loop
vertex 350.14609503520114 -40.621229147913766 0
vertex 394.85971223774493 -111.16300055 0
vertex 331.3915621999999 -111.16300055 0
endloop
endfacet
facet normal 0 0 -1
outer loop
vertex 350.14609503520114 -40.621229147913766 0
vertex 331.3915621999999 -111.16300055 0
vertex 269.45962254987325 -111.16300055 0
endloop
endfacet
facet normal 0 0 -1
outer loop
vertex 350.14609503520114 -40.621229147913766 0
vertex 269.45962254987325 -111.16300055 0
vertex 270.31314384999996 -53.67301270000064 0
endloop
endfacet
facet normal 0 0 -1
outer loop
vertex 350.14609503520114 -40.621229147913766 0
vertex 270.31314384999996 -53.67301270000064 0
vertex 270.37336355985417 -53.038412027325144 0
endloop
endfacet
facet normal 0 0 -1
outer loop
vertex 350.14609503520114 -40.621229147913766 0
vertex 270.37336355985417 -53.038412027325144 0
vertex 270.53362881244254 -52.42143595321319 0
endloop
endfacet
facet normal 0 0 -1
outer loop
vertex 350.14609503520114 -40.621229147913766 0
vertex 270.53362881244254 -52.42143595321319 0
vertex 270.7898694269989 -51.83775352700317 0
endloop
endfacet
facet normal 0 0 -1
outer loop
vertex 350.14609503520114 -40.621229147913766 0
vertex 270.7898694269989 -51.83775352700317 0
vertex 271.13557778191307 -51.30218825501859 0
endloop
endfacet
facet normal 0 0 -1
outer loop
vertex 350.14609503520114 -40.621229147913766 0
vertex 271.13557778191307 -51.30218825501859 0
vertex 271.5619740857197 -50.82834163498808 0
endloop
endfacet
facet normal 0 0 -1
outer loop
vertex 350.14609503520114 -40.621229147913766 0
vertex 271.5619740857197 -50.82834163498808 0
vertex 272.05822935330343 -50.428247725250046 0
endloop
endfacet
facet normal 0 0 -1
outer loop
vertex 350.14609503520114 -40.621229147913766 0
vertex 272.05822935330343 -50.428247725250046 0
vertex 272.61174042451086 -50.112067521465825 0
endloop
endfacet
facet normal 0 0 -1
outer loop
vertex 350.14609503520114 -40.621229147913766 0
vertex 272.61174042451086 -50.112067521465825 0
vertex 273.20845004064245 -49.887830902623286 0
endloop
endfacet
facet normal 0 0 -1
outer loop
vertex 350.14609503520114 -40.621229147913766 0
vertex 273.20845004064245 -49.887830902623286 0
vertex 273.83320769999983 -49.76123540000002 0
endloop
endfacet
facet normal 0 0 -1
outer loop
vertex 350.14609503520114 -40.621229147913766 0
vertex 273.83320769999983 -49.76123540000002 0
vertex 349.3781068000002 -40.639664299999986 0
endloop
endfacet
facet normal 0 0 -1
outer loop
vertex 350.14609503520114 -40.621229147913766 0
vertex 349.3781068000002 -40.639664299999986 0
vertex 349.7616573283217 -40.611967280671415 0
endloop
endfacet
facet normal 0 0 -1
outer loop
vertex 331.3915621999999 -111.16300055 0
vertex 330.73579090221807 -111.21347113797054 0
vertex 269.4588732416289 -111.21347113797054 0
endloop
endfacet
facet normal 0 0 -1
outer loop
vertex 331.3915621999999 -111.16300055 0
vertex 269.4588732416289 -111.21347113797054 0
vertex 269.45962254987325 -111.16300055 0
endloop
endfacet
facet normal 0 0 -1
outer loop
vertex 330.73579090221807 -111.21347113797054 0
vertex 330.09715513682056 -111.37072136658587 0
vertex 269.45653863651603 -111.37072136658587 0
endloop
endfacet
facet normal 0 0 -1
outer loop
vertex 330.73579090221807 -111.21347113797054 0
vertex 269.45653863651603 -111.37072136658587 0
vertex 269.4588732416289 -111.21347113797054 0
endloop
endfacet
facet normal 0 0 -1
outer loop
vertex 394.85971223774493 -111.16300055 0
vertex 394.49433390030913 -111.31258403825704 0
vertex 393.88119297712376 -111.45676062242295 0
endloop
endfacet
facet normal 0 0 -1
outer loop
vertex 394.85971223774493 -111.16300055 0
vertex 393.88119297712376 -111.45676062242295 0
vertex 393.25302240000013 -111.50290120000001 0
endloop
endfacet
facet normal 0 0 -1
outer loop
vertex 394.85971223774493 -111.16300055 0
vertex 393.25302240000013 -111.50290120000001 0
vertex 331.3915621999999 -111.16300055 0
endloop
endfacet
facet normal 0 0 -1
outer loop
vertex 330.09715513682056 -111.37072136658587 0
vertex 329.49292135074967 -111.63049974716331 0
vertex 269.45268185398004 -111.63049974716331 0
endloop
endfacet
facet normal 0 0 -1
outer loop
vertex 330.09715513682056 -111.37072136658587 0
vertex 269.45268185398004 -111.63049974716331 0
vertex 269.45653863651603 -111.37072136658587 0
endloop
endfacet
facet normal 0 0 -1
outer loop
vertex 329.49292135074967 -111.63049974716331 0
vertex 328.93942588339297 -111.98578279328332 0
vertex 269.4474071677472 -111.98578279328332 0
endloop
endfacet
facet normal 0 0 -1
outer loop
vertex 329.49292135074967 -111.63049974716331 0
vertex 269.4474071677472 -111.98578279328332 0
vertex 269.45268185398004 -111.63049974716331 0
endloop
endfacet
facet normal 0 0 -1
outer loop
vertex 328.93942588339297 -111.98578279328332 0
vertex 328.4516332898819 -112.42696491096265 0
vertex 269.44085718663297 -112.42696491096265 0
endloop
endfacet
facet normal 0 0 -1
outer loop
vertex 328.93942588339297 -111.98578279328332 0
vertex 269.44085718663297 -112.42696491096265 0
vertex 269.4474071677472 -111.98578279328332 0
endloop
endfacet
facet normal 0 0 -1
outer loop
vertex 328.4516332898819 -112.42696491096265 0
vertex 328.04273175257475 -112.94211809986152 0
vertex 269.43320899890506 -112.94211809986152 0
endloop
endfacet
facet normal 0 0 -1
outer loop
vertex 328.4516332898819 -112.42696491096265 0
vertex 269.43320899890506 -112.94211809986152 0
vertex 269.44085718663297 -112.42696491096265 0
endloop
endfacet
facet normal 0 0 -1
outer loop
vertex 328.04273175257475 -112.94211809986152 0
vertex 327.72377651936307 -113.51731444412295 0
vertex 269.4246693844445 -113.51731444412295 0
endloop
endfacet
facet normal 0 0 -1
outer loop
vertex 328.04273175257475 -112.94211809986152 0
vertex 269.4246693844445 -113.51731444412295 0
vertex 269.43320899890506 -112.94211809986152 0
endloop
endfacet
facet normal 0 0 -1
outer loop
vertex 327.72377651936307 -113.51731444412295 0
vertex 327.5033910089619 -114.13700267384027 0
vertex 269.4154692241508 -114.13700267384027 0
endloop
endfacet
facet normal 0 0 -1
outer loop
vertex 327.72377651936307 -113.51731444412295 0
vertex 269.4154692241508 -114.13700267384027 0
vertex 269.4246693844445 -113.51731444412295 0
endloop
endfacet
facet normal 0 0 -1
outer loop
vertex 327.5033910089619 -114.13700267384027 0
vertex 327.38753366424044 -114.78442861626014 0
vertex 269.40585725774105 -114.78442861626014 0
endloop
endfacet
facet normal 0 0 -1
outer loop
vertex 327.5033910089619 -114.13700267384027 0
vertex 269.40585725774105 -114.78442861626014 0
vertex 269.4154692241508 -114.13700267384027 0
endloop
endfacet
facet normal 0 0 -1
outer loop
vertex 327.38753366424044 -114.78442861626014 0
vertex 327.37933685705104 -115.44208816921787 0
vertex 269.3960933587097 -115.44208816921787 0
endloop
endfacet
facet normal 0 0 -1
outer loop
vertex 327.38753366424044 -114.78442861626014 0
vertex 269.3960933587097 -115.44208816921787 0
vertex 269.40585725774105 -114.78442861626014 0
endloop
endfacet
facet normal 0 0 -1
outer loop
vertex 327.37933685705104 -115.44208816921787 0
vertex 327.47902440000007 -116.09220110000027 0
vertex 269.38644150010504 -116.09220110000027 0
endloop
endfacet
facet normal 0 0 -1
outer loop
vertex 327.37933685705104 -115.44208816921787 0
vertex 269.38644150010504 -116.09220110000027 0
vertex 269.3960933587097 -115.44208816921787 0
endloop
endfacet
facet normal 0 0 -1
outer loop
vertex 327.47902440000007 -116.09220110000027 0
vertex 329.1747550940987 -123.19177810000049 0
vertex 269.2810381 -123.19177810000049 0
endloop
endfacet
facet normal 0 0 -1
outer loop
vertex 327.47902440000007 -116.09220110000027 0
vertex 269.2810381 -123.19177810000049 0
vertex 269.38644150010504 -116.09220110000027 0
endloop
endfacet
facet normal 0 0 -1
outer loop
vertex 329.1747550940987 -123.19177810000049 0
vertex 329.31727604445933 -123.78847571520554 0
vertex 269.22730871631086 -123.78847571520554 0
endloop
endfacet
facet normal 0 0 -1
outer loop
vertex 329.1747550940987 -123.19177810000049 0
vertex 269.22730871631086 -123.78847571520554 0
vertex 269.2810381 -123.19177810000049 0
endloop
endfacet
facet normal 0 0 -1
outer loop
vertex 329.31727604445933 -123.78847571520554 0
vertex 329.4562825269952 -124.37045918091553 0
vertex 269.08505868412215 -124.37045918091553 0
endloop
endfacet
facet normal 0 0 -1
outer loop
vertex 329.31727604445933 -123.78847571520554 0
vertex 269.08505868412215 -124.37045918091553 0
vertex 269.22730871631086 -123.78847571520554 0
endloop
endfacet
facet normal 0 0 -1
outer loop
vertex 329.4562825269952 -124.37045918091553 0
vertex 329.58865513919955 -124.9246683818852 0
vertex 268.85748015354636 -124.9246683818852 0
endloop
endfacet
facet normal 0 0 -1
outer loop
vertex 329.4562825269952 -124.37045918091553 0
vertex 268.85748015354636 -124.9246683818852 0
vertex 269.08505868412215 -124.37045918091553 0
endloop
endfacet
facet normal 0 0 -1
outer loop
vertex 329.58865513919955 -124.9246683818852 0
vertex 329.71142426842255 -125.43867033347729 0
vertex 268.54967856196976 -125.43867033347729 0
endloop
endfacet
facet normal 0 0 -1
outer loop
vertex 329.58865513919955 -124.9246683818852 0
vertex 268.54967856196976 -125.43867033347729 0
vertex 268.85748015354636 -124.9246683818852 0
endloop
endfacet
facet normal 0 0 -1
outer loop
vertex 329.71142426842255 -125.43867033347729 0
vertex 329.8218357440462 -125.90093404999902 0
vertex 268.1685590500009 -125.90093404999902 0
endloop
endfacet
facet normal 0 0 -1
outer loop
vertex 329.71142426842255 -125.43867033347729 0
vertex 268.1685590500009 -125.90093404999902 0
vertex 268.54967856196976 -125.43867033347729 0
endloop
endfacet
facet normal 0 0 -1
outer loop
vertex 329.8218357440462 -125.90093404999902 0
vertex 330.21282445000014 -127.53790060000057 0
vertex 330.3093144738058 -128.14559667667226 0
endloop
endfacet
facet normal 0 0 -1
outer loop
vertex 329.8218357440462 -125.90093404999902 0
vertex 330.3093144738058 -128.14559667667226 0
vertex 330.31145961901086 -128.7609016779918 0
endloop
endfacet
facet normal 0 0 -1
outer loop
vertex 329.8218357440462 -125.90093404999902 0
vertex 330.31145961901086 -128.7609016779918 0
vertex 330.2192091254671 -129.36925576299313 0
endloop
endfacet
facet normal 0 0 -1
outer loop
vertex 329.8218357440462 -125.90093404999902 0
vertex 330.2192091254671 -129.36925576299313 0
vertex 330.0347458984198 -129.95626356887394 0
endloop
endfacet
facet normal 0 0 -1
outer loop
vertex 329.8218357440462 -125.90093404999902 0
vertex 330.0347458984198 -129.95626356887394 0
vertex 329.7624348548523 -130.50803484562516 0
endloop
endfacet
facet normal 0 0 -1
outer loop
vertex 329.8218357440462 -125.90093404999902 0
vertex 329.7624348548523 -130.50803484562516 0
vertex 329.4087196373138 -131.01151313828376 0
endloop
endfacet
facet normal 0 0 -1
outer loop
vertex 329.8218357440462 -125.90093404999902 0
vertex 329.4087196373138 -131.01151313828376 0
vertex 328.9819701392771 -131.45478473924965 0
endloop
endfacet
facet normal 0 0 -1
outer loop
vertex 329.8218357440462 -125.90093404999902 0
vertex 328.9819701392771 -131.45478473924965 0
vertex 328.4922889000002 -131.82736119999993 0
endloop
endfacet
facet normal 0 0 -1
outer loop
vertex 329.8218357440462 -125.90093404999902 0
vertex 328.4922889000002 -131.82736119999993 0
vertex 276.4249177500001 -165.4526052 0
endloop
endfacet
facet normal 0 0 -1
outer loop
vertex 329.8218357440462 -125.90093404999902 0
vertex 276.4249177500001 -165.4526052 0
vertex 275.84177392930195 -165.7641580263733 0
endloop
endfacet
facet normal 0 0 -1
outer loop
vertex 329.8218357440462 -125.90093404999902 0
vertex 275.84177392930195 -165.7641580263733 0
vertex 275.215276109748 -165.9753980825474 0
endloop
endfacet
facet normal 0 0 -1
outer loop
vertex 329.8218357440462 -125.90093404999902 0
vertex 275.215276109748 -165.9753980825474 0
vertex 274.5625402853502 -166.08055426537751 0
endloop
endfacet
facet normal 0 0 -1
outer loop
vertex 329.8218357440462 -125.90093404999902 0
vertex 274.5625402853502 -166.08055426537751 0
vertex 273.90139927549814 -166.07675369559757 0
endloop
endfacet
facet normal 0 0 -1
outer loop
vertex 329.8218357440462 -125.90093404999902 0
vertex 273.90139927549814 -166.07675369559757 0
vertex 273.24991553023267 -165.9641002052204 0
endloop
endfacet
facet normal 0 0 -1
outer loop
vertex 329.8218357440462 -125.90093404999902 0
vertex 273.24991553023267 -165.9641002052204 0
vertex 272.6258876619933 -165.7456715008346 0
endloop
endfacet
facet normal 0 0 -1
outer loop
vertex 329.8218357440462 -125.90093404999902 0
vertex 272.6258876619933 -165.7456715008346 0
vertex 272.0463641854339 -165.42743508029898 0
endloop
endfacet
facet normal 0 0 -1
outer loop
vertex 329.8218357440462 -125.90093404999902 0
vertex 272.0463641854339 -165.42743508029898 0
vertex 271.5271754999998 -165.01808039999983 0
endloop
endfacet
facet normal 0 0 -1
outer loop
vertex 329.8218357440462 -125.90093404999902 0
vertex 271.5271754999998 -165.01808039999983 0
vertex 252.916429 -147.66654805 0
endloop
endfacet
facet normal 0 0 -1
outer loop
vertex 329.8218357440462 -125.90093404999902 0
vertex 252.916429 -147.66654805 0
vertex 252.48888111303867 -147.19939064993804 0
endloop
endfacet
facet normal 0 0 -1
outer loop
vertex 329.8218357440462 -125.90093404999902 0
vertex 252.48888111303867 -147.19939064993804 0
vertex 252.14041870263088 -146.67061169743536 0
endloop
endfacet
facet normal 0 0 -1
outer loop
vertex 329.8218357440462 -125.90093404999902 0
vertex 252.14041870263088 -146.67061169743536 0
vertex 251.87977583169487 -146.09346481326426 0
endloop
endfacet
facet normal 0 0 -1
outer loop
vertex 329.8218357440462 -125.90093404999902 0
vertex 251.87977583169487 -146.09346481326426 0
vertex 251.71348540354066 -145.48241593994766 0
endloop
endfacet
facet normal 0 0 -1
outer loop
vertex 329.8218357440462 -125.90093404999902 0
vertex 251.71348540354066 -145.48241593994766 0
vertex 251.64571541740952 -144.85278075902357 0
endloop
endfacet
facet normal 0 0 -1
outer loop
vertex 329.8218357440462 -125.90093404999902 0
vertex 251.64571541740952 -144.85278075902357 0
vertex 251.67816449933756 -144.22034080996926 0
endloop
endfacet
facet normal 0 0 -1
outer loop
vertex 329.8218357440462 -125.90093404999902 0
vertex 251.67816449933756 -144.22034080996926 0
vertex 251.81001932681195 -143.60094793258946 0
endloop
endfacet
facet normal 0 0 -1
outer loop
vertex 329.8218357440462 -125.90093404999902 0
vertex 251.81001932681195 -143.60094793258946 0
vertex 252.03797501435633 -143.0101269473543 0
endloop
endfacet
facet normal 0 0 -1
outer loop
vertex 329.8218357440462 -125.90093404999902 0
vertex 252.03797501435633 -143.0101269473543 0
vertex 252.35631794908602 -142.46268653234554 0
endloop
endfacet
facet normal 0 0 -1
outer loop
vertex 329.8218357440462 -125.90093404999902 0
vertex 252.35631794908602 -142.46268653234554 0
vertex 252.75706800000015 -141.9723460999998 0
endloop
endfacet
facet normal 0 0 -1
outer loop
vertex 329.8218357440462 -125.90093404999902 0
vertex 252.75706800000015 -141.9723460999998 0
vertex 268.1685590500009 -125.90093404999902 0
endloop
endfacet
facet normal 0 0 1
outer loop
vertex 275.21527610974795 -165.97539808254743 1
vertex 275.84177392930206 -165.76415802637328 1
vertex 276.42491775 -165.45260520000005 1
endloop
endfacet
facet normal 0 0 1
outer loop
vertex 275.21527610974795 -165.97539808254743 1
vertex 276.42491775 -165.45260520000005 1
vertex 328.4922888999999 -131.8273612000001 1
endloop
endfacet
facet normal 0 0 1
outer loop
vertex 275.21527610974795 -165.97539808254743 1
vertex 328.4922888999999 -131.8273612000001 1
vertex 328.9819701392771 -131.45478473924965 1
endloop
endfacet
facet normal 0 0 1
outer loop
vertex 275.21527610974795 -165.97539808254743 1
vertex 328.9819701392771 -131.45478473924965 1
vertex 329.4087196373135 -131.0115131382841 1
endloop
endfacet
facet normal 0 0 1
outer loop
vertex 275.21527610974795 -165.97539808254743 1
vertex 329.4087196373135 -131.0115131382841 1
vertex 329.7624348548526 -130.50803484562462 1
endloop
endfacet
facet normal 0 0 1
outer loop
vertex 275.21527610974795 -165.97539808254743 1
vertex 329.7624348548526 -130.50803484562462 1
vertex 330.0347458984198 -129.95626356887394 1
endloop
endfacet
facet normal 0 0 1
outer loop
vertex 275.21527610974795 -165.97539808254743 1
vertex 330.0347458984198 -129.95626356887394 1
vertex 330.21920912546716 -129.36925576299294 1
endloop
endfacet
facet normal 0 0 1
outer loop
vertex 275.21527610974795 -165.97539808254743 1
vertex 330.21920912546716 -129.36925576299294 1
vertex 330.31145961901086 -128.7609016779918 1
endloop
endfacet
facet normal 0 0 1
outer loop
vertex 275.21527610974795 -165.97539808254743 1
vertex 330.31145961901086 -128.7609016779918 1
vertex 330.3093144738058 -128.14559667667234 1
endloop
endfacet
facet normal 0 0 1
outer loop
vertex 275.21527610974795 -165.97539808254743 1
vertex 330.3093144738058 -128.14559667667234 1
vertex 330.21282445000014 -127.53790060000074 1
endloop
endfacet
facet normal 0 0 1
outer loop
vertex 275.21527610974795 -165.97539808254743 1
vertex 330.21282445000014 -127.53790060000074 1
vertex 329.8218357440464 -125.90093404999982 1
endloop
endfacet
facet normal 0 0 1
outer loop
vertex 275.21527610974795 -165.97539808254743 1
vertex 329.8218357440464 -125.90093404999982 1
vertex 268.16855905000017 -125.90093404999982 1
endloop
endfacet
facet normal 0 0 1
outer loop
vertex 275.21527610974795 -165.97539808254743 1
vertex 268.16855905000017 -125.90093404999982 1
vertex 252.75706799999975 -141.97234610000027 1
endloop
endfacet
facet normal 0 0 1
outer loop
vertex 275.21527610974795 -165.97539808254743 1
vertex 252.75706799999975 -141.97234610000027 1
vertex 252.35631794908605 -142.4626865323455 1
endloop
endfacet
facet normal 0 0 1
outer loop
vertex 275.21527610974795 -165.97539808254743 1
vertex 252.35631794908605 -142.4626865323455 1
vertex 252.03797501435616 -143.01012694735454 1
endloop
endfacet
facet normal 0 0 1
outer loop
vertex 275.21527610974795 -165.97539808254743 1
vertex 252.03797501435616 -143.01012694735454 1
vertex 251.81001932681204 -143.60094793258904 1
endloop
endfacet
facet normal 0 0 1
outer loop
vertex 275.21527610974795 -165.97539808254743 1
vertex 251.81001932681204 -143.60094793258904 1
vertex 251.67816449933753 -144.2203408099694 1
endloop
endfacet
facet normal 0 0 1
outer loop
vertex 275.21527610974795 -165.97539808254743 1
vertex 251.67816449933753 -144.2203408099694 1
vertex 251.6457154174095 -144.85278075902343 1
endloop
endfacet
facet normal 0 0 1
outer loop
vertex 275.21527610974795 -165.97539808254743 1
vertex 251.6457154174095 -144.85278075902343 1
vertex 251.71348540354063 -145.4824159399476 1
endloop
endfacet
facet normal 0 0 1
outer loop
vertex 275.21527610974795 -165.97539808254743 1
vertex 251.71348540354063 -145.4824159399476 1
vertex 251.87977583169487 -146.09346481326423 1
endloop
endfacet
facet normal 0 0 1
outer loop
vertex 275.21527610974795 -165.97539808254743 1
vertex 251.87977583169487 -146.09346481326423 1
vertex 252.14041870263085 -146.67061169743525 1
endloop
endfacet
facet normal 0 0 1
outer loop
vertex 275.21527610974795 -165.97539808254743 1
vertex 252.14041870263085 -146.67061169743525 1
vertex 252.48888111303881 -147.19939064993818 1
endloop
endfacet
facet normal 0 0 1
outer loop
vertex 275.21527610974795 -165.97539808254743 1
vertex 252.48888111303881 -147.19939064993818 1
vertex 252.9164290000001 -147.66654805000013 1
endloop
endfacet
facet normal 0 0 1
outer loop
vertex 275.21527610974795 -165.97539808254743 1
vertex 252.9164290000001 -147.66654805000013 1
vertex 271.52717549999994 -165.01808039999992 1
endloop
endfacet
facet normal 0 0 1
outer loop
vertex 275.21527610974795 -165.97539808254743 1
vertex 271.52717549999994 -165.01808039999992 1
vertex 272.04636418543384 -165.42743508029895 1
endloop
endfacet
facet normal 0 0 1
outer loop
vertex 275.21527610974795 -165.97539808254743 1
vertex 272.04636418543384 -165.42743508029895 1
vertex 272.6258876619934 -165.74567150083462 1
endloop
endfacet
facet normal 0 0 1
outer loop
vertex 275.21527610974795 -165.97539808254743 1
vertex 272.6258876619934 -165.74567150083462 1
vertex 273.2499155302326 -165.96410020522038 1
endloop
endfacet
facet normal 0 0 1
outer loop
vertex 275.21527610974795 -165.97539808254743 1
vertex 273.2499155302326 -165.96410020522038 1
vertex 273.90139927549814 -166.07675369559755 1
endloop
endfacet
facet normal 0 0 1
outer loop
vertex 275.21527610974795 -165.97539808254743 1
vertex 273.90139927549814 -166.07675369559755 1
vertex 274.56254028535045 -166.0805542653775 1
endloop
endfacet
facet normal 0 0 1
outer loop
vertex 329.8218357440464 -125.90093404999982 1
vertex 329.71142426842243 -125.43867033347703 1
vertex 268.54967856196987 -125.43867033347703 1
endloop
endfacet
facet normal 0 0 1
outer loop
vertex 329.8218357440464 -125.90093404999982 1
vertex 268.54967856196987 -125.43867033347703 1
vertex 268.16855905000017 -125.90093404999982 1
endloop
endfacet
facet normal 0 0 1
outer loop
vertex 329.71142426842243 -125.43867033347703 1
vertex 329.58865513919955 -124.92466838188518 1
vertex 268.8574801535464 -124.92466838188518 1
endloop
endfacet
facet normal 0 0 1
outer loop
vertex 329.71142426842243 -125.43867033347703 1
vertex 268.8574801535464 -124.92466838188518 1
vertex 268.54967856196987 -125.43867033347703 1
endloop
endfacet
facet normal 0 0 1
outer loop
vertex 329.58865513919955 -124.92466838188518 1
vertex 329.4562825269952 -124.37045918091584 1
vertex 269.08505868412203 -124.37045918091584 1
endloop
endfacet
facet normal 0 0 1
outer loop
vertex 329.58865513919955 -124.92466838188518 1
vertex 269.08505868412203 -124.37045918091584 1
vertex 268.8574801535464 -124.92466838188518 1
endloop
endfacet
facet normal 0 0 1
outer loop
vertex 329.4562825269952 -124.37045918091584 1
vertex 329.31727604445933 -123.78847571520552 1
vertex 269.22730871631086 -123.78847571520552 1
endloop
endfacet
facet normal 0 0 1
outer loop
vertex 329.4562825269952 -124.37045918091584 1
vertex 269.22730871631086 -123.78847571520552 1
vertex 269.08505868412203 -124.37045918091584 1
endloop
endfacet
facet normal 0 0 1
outer loop
vertex 329.31727604445933 -123.78847571520552 1
vertex 329.17475509409866 -123.19177810000052 1
vertex 269.2810381 -123.19177810000052 1
endloop
endfacet
facet normal 0 0 1
outer loop
vertex 329.31727604445933 -123.78847571520552 1
vertex 269.2810381 -123.19177810000052 1
vertex 269.22730871631086 -123.78847571520552 1
endloop
endfacet
facet normal 0 0 1
outer loop
vertex 329.17475509409866 -123.19177810000052 1
vertex 327.4790244000001 -116.09220110000078 1
vertex 269.38644150010504 -116.09220110000078 1
endloop
endfacet
facet normal 0 0 1
outer loop
vertex 329.17475509409866 -123.19177810000052 1
vertex 269.38644150010504 -116.09220110000078 1
vertex 269.2810381 -123.19177810000052 1
endloop
endfacet
facet normal 0 0 1
outer loop
vertex 327.4790244000001 -116.09220110000078 1
vertex 327.379336857051 -115.44208816921797 1
vertex 269.3960933587097 -115.44208816921797 1
endloop
endfacet
facet normal 0 0 1
outer loop
vertex 327.4790244000001 -116.09220110000078 1
vertex 269.3960933587097 -115.44208816921797 1
vertex 269.38644150010504 -116.09220110000078 1
endloop
endfacet
facet normal 0 0 1
outer loop
vertex 327.379336857051 -115.44208816921797 1
vertex 327.3875336642404 -114.7844286162608 1
vertex 269.40585725774105 -114.7844286162608 1
endloop
endfacet
facet normal 0 0 1
outer loop
vertex 327.379336857051 -115.44208816921797 1
vertex 269.40585725774105 -114.7844286162608 1
vertex 269.3960933587097 -115.44208816921797 1
endloop
endfacet
facet normal 0 0 1
outer loop
vertex 327.3875336642404 -114.7844286162608 1
vertex 327.5033910089619 -114.13700267384029 1
vertex 269.4154692241508 -114.13700267384029 1
endloop
endfacet
facet normal 0 0 1
outer loop
vertex 327.3875336642404 -114.7844286162608 1
vertex 269.4154692241508 -114.13700267384029 1
vertex 269.40585725774105 -114.7844286162608 1
endloop
endfacet
facet normal 0 0 1
outer loop
vertex 327.5033910089619 -114.13700267384029 1
vertex 327.7237765193631 -113.51731444412287 1
vertex 269.4246693844445 -113.51731444412287 1
endloop
endfacet
facet normal 0 0 1
outer loop
vertex 327.5033910089619 -114.13700267384029 1
vertex 269.4246693844445 -113.51731444412287 1
vertex 269.4154692241508 -114.13700267384029 1
endloop
endfacet
facet normal 0 0 1
outer loop
vertex 327.7237765193631 -113.51731444412287 1
vertex 328.04273175257435 -112.9421180998621 1
vertex 269.433208998905 -112.9421180998621 1
endloop
endfacet
facet normal 0 0 1
outer loop
vertex 327.7237765193631 -113.51731444412287 1
vertex 269.433208998905 -112.9421180998621 1
vertex 269.4246693844445 -113.51731444412287 1
endloop
endfacet
facet normal 0 0 1
outer loop
vertex 328.04273175257435 -112.9421180998621 1
vertex 328.45163328988207 -112.42696491096251 1
vertex 269.44085718663297 -112.42696491096251 1
endloop
endfacet
facet normal 0 0 1
outer loop
vertex 328.04273175257435 -112.9421180998621 1
vertex 269.44085718663297 -112.42696491096251 1
vertex 269.433208998905 -112.9421180998621 1
endloop
endfacet
facet normal 0 0 1
outer loop
vertex 328.45163328988207 -112.42696491096251 1
vertex 328.93942588339314 -111.98578279328318 1
vertex 269.4474071677472 -111.98578279328318 1
endloop
endfacet
facet normal 0 0 1
outer loop
vertex 328.45163328988207 -112.42696491096251 1
vertex 269.4474071677472 -111.98578279328318 1
vertex 269.44085718663297 -112.42696491096251 1
endloop
endfacet
facet normal 0 0 1
outer loop
vertex 328.93942588339314 -111.98578279328318 1
vertex 329.4929213507497 -111.63049974716326 1
vertex 269.45268185398004 -111.63049974716326 1
endloop
endfacet
facet normal 0 0 1
outer loop
vertex 328.93942588339314 -111.98578279328318 1
vertex 269.45268185398004 -111.63049974716326 1
vertex 269.4474071677472 -111.98578279328318 1
endloop
endfacet
facet normal 0 0 1
outer loop
vertex 329.4929213507497 -111.63049974716326 1
vertex 330.0971551368204 -111.37072136658595 1
vertex 269.45653863651603 -111.37072136658595 1
endloop
endfacet
facet normal 0 0 1
outer loop
vertex 329.4929213507497 -111.63049974716326 1
vertex 269.45653863651603 -111.37072136658595 1
vertex 269.45268185398004 -111.63049974716326 1
endloop
endfacet
facet normal 0 0 1
outer loop
vertex 330.0971551368204 -111.37072136658595 1
vertex 330.73579090221807 -111.21347113797054 1
vertex 269.4588732416289 -111.21347113797054 1
endloop
endfacet
facet normal 0 0 1
outer loop
vertex 330.0971551368204 -111.37072136658595 1
vertex 269.4588732416289 -111.21347113797054 1
vertex 269.45653863651603 -111.37072136658595 1
endloop
endfacet
facet normal 0 0 1
outer loop
vertex 330.73579090221807 -111.21347113797054 1
vertex 331.3915622 -111.16300055 1
vertex 269.45962254987325 -111.16300055 1
endloop
endfacet
facet normal 0 0 1
outer loop
vertex 330.73579090221807 -111.21347113797054 1
vertex 269.45962254987325 -111.16300055 1
vertex 269.4588732416289 -111.21347113797054 1
endloop
endfacet
facet normal 0 0 1
outer loop
vertex 393.8811929771238 -111.45676062242293 1
vertex 394.4943339003092 -111.31258403825703 1
vertex 394.85971223774493 -111.16300055 1
endloop
endfacet
facet normal 0 0 1
outer loop
vertex 393.8811929771238 -111.45676062242293 1
vertex 394.85971223774493 -111.16300055 1
vertex 331.3915622 -111.16300055 1
endloop
endfacet
facet normal 0 0 1
outer loop
vertex 393.8811929771238 -111.45676062242293 1
vertex 331.3915622 -111.16300055 1
vertex 393.2530224000002 -111.50290120000001 1
endloop
endfacet
facet normal 0 0 1
outer loop
vertex 331.3915622 -111.16300055 1
vertex 394.85971223774493 -111.16300055 1
vertex 395.07724080777 -111.07394578411467 1
endloop
endfacet
facet normal 0 0 1
outer loop
vertex 331.3915622 -111.16300055 1
vertex 395.07724080777 -111.07394578411467 1
vertex 395.61546020654185 -110.74676302495513 1
endloop
endfacet
facet normal 0 0 1
outer loop
vertex 331.3915622 -111.16300055 1
vertex 395.61546020654185 -110.74676302495513 1
vertex 396.0956466546787 -110.33914843476975 1
endloop
endfacet
facet normal 0 0 1
outer loop
vertex 331.3915622 -111.16300055 1
vertex 396.0956466546787 -110.33914843476975 1
vertex 396.50589366872435 -109.8612090384305 1
endloop
endfacet
facet normal 0 0 1
outer loop
vertex 331.3915622 -111.16300055 1
vertex 396.50589366872435 -109.8612090384305 1
vertex 396.83602895142894 -109.32479560252564 1
endloop
endfacet
facet normal 0 0 1
outer loop
vertex 331.3915622 -111.16300055 1
vertex 396.83602895142894 -109.32479560252564 1
vertex 397.0778666193785 -108.74320878917197 1
endloop
endfacet
facet normal 0 0 1
outer loop
vertex 331.3915622 -111.16300055 1
vertex 397.0778666193785 -108.74320878917197 1
vertex 397.2254101764122 -108.13086935888614 1
endloop
endfacet
facet normal 0 0 1
outer loop
vertex 331.3915622 -111.16300055 1
vertex 397.2254101764122 -108.13086935888614 1
vertex 397.2750012 -107.50296059999968 1
endloop
endfacet
facet normal 0 0 1
outer loop
vertex 331.3915622 -111.16300055 1
vertex 397.2750012 -107.50296059999968 1
vertex 397.2749999999999 -53.460614799999334 1
endloop
endfacet
facet normal 0 0 1
outer loop
vertex 331.3915622 -111.16300055 1
vertex 397.2749999999999 -53.460614799999334 1
vertex 397.2211514415039 -52.806508861247046 1
endloop
endfacet
facet normal 0 0 1
outer loop
vertex 331.3915622 -111.16300055 1
vertex 397.2211514415039 -52.806508861247046 1
vertex 397.06106819916823 -52.170010263617314 1
endloop
endfacet
facet normal 0 0 1
outer loop
vertex 331.3915622 -111.16300055 1
vertex 397.06106819916823 -52.170010263617314 1
vertex 396.7990550851626 -51.568257625608915 1
endloop
endfacet
facet normal 0 0 1
outer loop
vertex 331.3915622 -111.16300055 1
vertex 396.7990550851626 -51.568257625608915 1
vertex 396.4421661002103 -51.017451523899055 1
endloop
endfacet
facet normal 0 0 1
outer loop
vertex 331.3915622 -111.16300055 1
vertex 396.4421661002103 -51.017451523899055 1
vertex 396.00000952352923 -50.53242093624621 1
endloop
endfacet
facet normal 0 0 1
outer loop
vertex 331.3915622 -111.16300055 1
vertex 396.00000952352923 -50.53242093624621 1
vertex 395.4844892356703 -50.126224011015516 1
endloop
endfacet
facet normal 0 0 1
outer loop
vertex 331.3915622 -111.16300055 1
vertex 395.4844892356703 -50.126224011015516 1
vertex 394.90948423844344 -49.80979651153826 1
endloop
endfacet
facet normal 0 0 1
outer loop
vertex 331.3915622 -111.16300055 1
vertex 394.90948423844344 -49.80979651153826 1
vertex 394.29047500000013 -49.591657400000024 1
endloop
endfacet
facet normal 0 0 1
outer loop
vertex 331.3915622 -111.16300055 1
vertex 394.29047500000013 -49.591657400000024 1
vertex 378.3959610000001 -45.419871600000036 1
endloop
endfacet
facet normal 0 0 1
outer loop
vertex 331.3915622 -111.16300055 1
vertex 378.3959610000001 -45.419871600000036 1
vertex 378.22417811846475 -45.37881392957728 1
endloop
endfacet
facet normal 0 0 1
outer loop
vertex 331.3915622 -111.16300055 1
vertex 378.22417811846475 -45.37881392957728 1
vertex 378.0507455000002 -45.34537580000003 1
endloop
endfacet
facet normal 0 0 1
outer loop
vertex 331.3915622 -111.16300055 1
vertex 378.0507455000002 -45.34537580000003 1
vertex 350.5278635999999 -40.66736859999999 1
endloop
endfacet
facet normal 0 0 1
outer loop
vertex 331.3915622 -111.16300055 1
vertex 350.5278635999999 -40.66736859999999 1
vertex 350.14609503520126 -40.62122914791377 1
endloop
endfacet
facet normal 0 0 1
outer loop
vertex 331.3915622 -111.16300055 1
vertex 350.14609503520126 -40.62122914791377 1
vertex 349.7616573283216 -40.611967280671415 1
endloop
endfacet
facet normal 0 0 1
outer loop
vertex 331.3915622 -111.16300055 1
vertex 349.7616573283216 -40.611967280671415 1
vertex 349.3781068000004 -40.63966429999996 1
endloop
endfacet
facet normal 0 0 1
outer loop
vertex 331.3915622 -111.16300055 1
vertex 349.3781068000004 -40.63966429999996 1
vertex 273.8332076999999 -49.76123540000002 1
endloop
endfacet
facet normal 0 0 1
outer loop
vertex 331.3915622 -111.16300055 1
vertex 273.8332076999999 -49.76123540000002 1
vertex 273.2084500406424 -49.887830902623314 1
endloop
endfacet
facet normal 0 0 1
outer loop
vertex 331.3915622 -111.16300055 1
vertex 273.2084500406424 -49.887830902623314 1
vertex 272.6117404245108 -50.11206752146585 1
endloop
endfacet
facet normal 0 0 1
outer loop
vertex 331.3915622 -111.16300055 1
vertex 272.6117404245108 -50.11206752146585 1
vertex 272.0582293533035 -50.42824772525 1
endloop
endfacet
facet normal 0 0 1
outer loop
vertex 331.3915622 -111.16300055 1
vertex 272.0582293533035 -50.42824772525 1
vertex 271.5619740857198 -50.82834163498803 1
endloop
endfacet
facet normal 0 0 1
outer loop
vertex 331.3915622 -111.16300055 1
vertex 271.5619740857198 -50.82834163498803 1
vertex 271.135577781913 -51.30218825501869 1
endloop
endfacet
facet normal 0 0 1
outer loop
vertex 331.3915622 -111.16300055 1
vertex 271.135577781913 -51.30218825501869 1
vertex 270.78986942699896 -51.83775352700314 1
endloop
endfacet
facet normal 0 0 1
outer loop
vertex 331.3915622 -111.16300055 1
vertex 270.78986942699896 -51.83775352700314 1
vertex 270.53362881244243 -52.42143595321349 1
endloop
endfacet
facet normal 0 0 1
outer loop
vertex 331.3915622 -111.16300055 1
vertex 270.53362881244243 -52.42143595321349 1
vertex 270.37336355985417 -53.03841202732495 1
endloop
endfacet
facet normal 0 0 1
outer loop
vertex 331.3915622 -111.16300055 1
vertex 270.37336355985417 -53.03841202732495 1
vertex 270.31314384999996 -53.6730127000003 1
endloop
endfacet
facet normal 0 0 1
outer loop
vertex 331.3915622 -111.16300055 1
vertex 270.31314384999996 -53.6730127000003 1
vertex 269.45962254987325 -111.16300055 1
endloop
endfacet
facet normal 0.9999999999999998 2.2204801553016296e-8 0
outer loop
vertex 397.2749999999999 -53.460614799999334 1
vertex 397.2750012 -107.50296059999968 1
vertex 397.2750012 -107.50296060000012 0
endloop
endfacet
facet normal 0.9999999999999998 2.2204801553016296e-8 0
outer loop
vertex 397.2749999999999 -53.460614799999334 1
vertex 397.2750012 -107.50296060000012 0
vertex 397.275 -53.46061480000036 0
endloop
endfacet
facet normal 0.9966285142584121 0.08204635620836605 0
outer loop
vertex 397.2211514415039 -52.806508861247046 1
vertex 397.2749999999999 -53.460614799999334 1
vertex 397.275 -53.46061480000036 0
endloop
endfacet
facet normal 0.9966285142584121 0.08204635620836605 0
outer loop
vertex 397.2211514415039 -52.806508861247046 1
vertex 397.275 -53.46061480000036 0
vertex 397.2211514415039 -52.80650886124705 0
endloop
endfacet
facet normal 0.9697978661870917 0.24391002180919896 0
outer loop
vertex 397.06106819916823 -52.170010263617314 1
vertex 397.2211514415039 -52.806508861247046 1
vertex 397.2211514415039 -52.80650886124705 0
endloop
endfacet
facet normal 0.9697978661870917 0.24391002180919896 0
outer loop
vertex 397.06106819916823 -52.170010263617314 1
vertex 397.2211514415039 -52.80650886124705 0
vertex 397.06106819916823 -52.17001026361723 0
endloop
endfacet
facet normal 0.9168573607017894 0.3992149547887065 0
outer loop
vertex 396.7990550851626 -51.568257625608915 1
vertex 397.06106819916823 -52.170010263617314 1
vertex 397.06106819916823 -52.17001026361723 0
endloop
endfacet
facet normal 0.9168573607017894 0.3992149547887065 0
outer loop
vertex 396.7990550851626 -51.568257625608915 1
vertex 397.06106819916823 -52.17001026361723 0
vertex 396.79905508516254 -51.56825762560882 0
endloop
endfacet
facet normal 0.8392329285726363 0.5437720952746622 0
outer loop
vertex 396.4421661002103 -51.017451523899055 1
vertex 396.7990550851626 -51.568257625608915 1
vertex 396.79905508516254 -51.56825762560882 0
endloop
endfacet
facet normal 0.8392329285726363 0.5437720952746622 0
outer loop
vertex 396.4421661002103 -51.017451523899055 1
vertex 396.79905508516254 -51.56825762560882 0
vertex 396.4421661002104 -51.01745152389921 0
endloop
endfacet
facet normal 0.7390143995492403 0.6736896297694333 0
outer loop
vertex 396.00000952352923 -50.53242093624621 1
vertex 396.4421661002103 -51.017451523899055 1
vertex 396.4421661002104 -51.01745152389921 0
endloop
endfacet
facet normal 0.7390143995492403 0.6736896297694333 0
outer loop
vertex 396.00000952352923 -50.53242093624621 1
vertex 396.4421661002104 -51.01745152389921 0
vertex 396.000009523529 -50.532420936246034 0
endloop
endfacet
facet normal 0.6188998888725877 0.7854698769230418 0
outer loop
vertex 395.4844892356703 -50.126224011015516 1
vertex 396.00000952352923 -50.53242093624621 1
vertex 396.000009523529 -50.532420936246034 0
endloop
endfacet
facet normal 0.6188998888725877 0.7854698769230418 0
outer loop
vertex 395.4844892356703 -50.126224011015516 1
vertex 396.000009523529 -50.532420936246034 0
vertex 395.4844892356702 -50.126224011015445 0
endloop
endfacet
facet normal 0.48212315775510317 0.876103453226985 0
outer loop
vertex 394.90948423844344 -49.80979651153826 1
vertex 395.4844892356703 -50.126224011015516 1
vertex 395.4844892356702 -50.126224011015445 0
endloop
endfacet
facet normal 0.48212315775510317 0.876103453226985 0
outer loop
vertex 394.90948423844344 -49.80979651153826 1
vertex 395.4844892356702 -50.126224011015445 0
vertex 394.90948423844344 -49.80979651153827 0
endloop
endfacet
facet normal 0.33236655302880536 0.9431502925980304 0
outer loop
vertex 394.29047500000013 -49.591657400000024 1
vertex 394.90948423844344 -49.80979651153826 1
vertex 394.90948423844344 -49.80979651153827 0
endloop
endfacet
facet normal 0.33236655302880536 0.9431502925980304 0
outer loop
vertex 394.29047500000013 -49.591657400000024 1
vertex 394.90948423844344 -49.80979651153827 0
vertex 394.2904749999999 -49.59165739999996 0
endloop
endfacet
facet normal 0.25386828946651696 0.9672387976106753 0
outer loop
vertex 378.3959610000001 -45.419871600000036 1
vertex 394.29047500000013 -49.591657400000024 1
vertex 394.2904749999999 -49.59165739999996 0
endloop
endfacet
facet normal 0.25386828946651696 0.9672387976106753 0
outer loop
vertex 378.3959610000001 -45.419871600000036 1
vertex 394.2904749999999 -49.59165739999996 0
vertex 378.39596099999994 -45.41987159999997 0
endloop
endfacet
facet normal 0.23246157607582787 0.9726055807203361 0
outer loop
vertex 378.22417811846475 -45.37881392957728 1
vertex 378.3959610000001 -45.419871600000036 1
vertex 378.39596099999994 -45.41987159999997 0
endloop
endfacet
facet normal 0.23246157607582787 0.9726055807203361 0
outer loop
vertex 378.22417811846475 -45.37881392957728 1
vertex 378.39596099999994 -45.41987159999997 0
vertex 378.22417811846543 -45.37881392957741 0
endloop
endfacet
facet normal 0.18931528849386928 0.9819163516015421 0
outer loop
vertex 378.0507455000002 -45.34537580000003 1
vertex 378.22417811846475 -45.37881392957728 1
vertex 378.22417811846543 -45.37881392957741 0
endloop
endfacet
facet normal 0.18931528849386928 0.9819163516015421 0
outer loop
vertex 378.0507455000002 -45.34537580000003 1
vertex 378.22417811846543 -45.37881392957741 0
vertex 378.0507455000001 -45.34537580000002 0
endloop
endfacet
facet normal 0.16756476310761317 0.9858610704174751 0
outer loop
vertex 350.5278635999999 -40.66736859999999 1
vertex 378.0507455000002 -45.34537580000003 1
vertex 378.0507455000001 -45.34537580000002 0
endloop
endfacet
facet normal 0.16756476310761317 0.9858610704174751 0
outer loop
vertex 350.5278635999999 -40.66736859999999 1
vertex 378.0507455000001 -45.34537580000002 0
vertex 350.52786359999993 -40.6673686 0
endloop
endfacet
facet normal 0.11998403396275603 0.9927758214189266 0
outer loop
vertex 350.14609503520126 -40.62122914791377 1
vertex 350.5278635999999 -40.66736859999999 1
vertex 350.52786359999993 -40.6673686 0
endloop
endfacet
facet normal 0.11998403396275603 0.9927758214189266 0
outer loop
vertex 350.14609503520126 -40.62122914791377 1
vertex 350.52786359999993 -40.6673686 0
vertex 350.14609503520114 -40.621229147913766 0
endloop
endfacet
facet normal 0.024084995676787457 0.9997099144168018 0
outer loop
vertex 349.7616573283216 -40.611967280671415 1
vertex 350.14609503520126 -40.62122914791377 1
vertex 350.14609503520114 -40.621229147913766 0
endloop
endfacet
facet normal 0.024084995676787457 0.9997099144168018 0
outer loop
vertex 349.7616573283216 -40.611967280671415 1
vertex 350.14609503520114 -40.621229147913766 0
vertex 349.7616573283217 -40.611967280671415 0
endloop
endfacet
facet normal -0.07202463319046616 0.9974028535219752 0
outer loop
vertex 349.3781068000004 -40.63966429999996 1
vertex 349.7616573283216 -40.611967280671415 1
vertex 349.7616573283217 -40.611967280671415 0
endloop
endfacet
facet normal -0.07202463319046616 0.9974028535219752 0
outer loop
vertex 349.3781068000004 -40.63966429999996 1
vertex 349.7616573283217 -40.611967280671415 0
vertex 349.3781068000002 -40.639664299999986 0
endloop
endfacet
facet normal -0.11987305086692851 0.9927892282231183 0
outer loop
vertex 273.8332076999999 -49.76123540000002 1
vertex 349.3781068000004 -40.63966429999996 1
vertex 349.3781068000002 -40.639664299999986 0
endloop
endfacet
facet normal -0.11987305086692851 0.9927892282231183 0
outer loop
vertex 273.8332076999999 -49.76123540000002 1
vertex 349.3781068000002 -40.639664299999986 0
vertex 273.83320769999983 -49.76123540000002 0
endloop
endfacet
facet normal -0.19859527795497914 0.9800815861824895 0
outer loop
vertex 273.2084500406424 -49.887830902623314 1
vertex 273.8332076999999 -49.76123540000002 1
vertex 273.83320769999983 -49.76123540000002 0
endloop
endfacet
facet normal -0.19859527795497914 0.9800815861824895 0
outer loop
vertex 273.2084500406424 -49.887830902623314 1
vertex 273.83320769999983 -49.76123540000002 0
vertex 273.20845004064245 -49.887830902623286 0
endloop
endfacet
facet normal -0.3517704726269238 0.9360862858667628 0
outer loop
vertex 272.6117404245108 -50.11206752146585 1
vertex 273.2084500406424 -49.887830902623314 1
vertex 273.20845004064245 -49.887830902623286 0
endloop
endfacet
facet normal -0.3517704726269238 0.9360862858667628 0
outer loop
vertex 272.6117404245108 -50.11206752146585 1
vertex 273.20845004064245 -49.887830902623286 0
vertex 272.61174042451086 -50.112067521465825 0
endloop
endfacet
facet normal -0.49600667497798967 0.8683187078355958 0
outer loop
vertex 272.0582293533035 -50.42824772525 1
vertex 272.6117404245108 -50.11206752146585 1
vertex 272.61174042451086 -50.112067521465825 0
endloop
endfacet
facet normal -0.49600667497798967 0.8683187078355958 0
outer loop
vertex 272.0582293533035 -50.42824772525 1
vertex 272.61174042451086 -50.112067521465825 0
vertex 272.05822935330343 -50.428247725250046 0
endloop
endfacet
facet normal -0.6276460305642284 0.7784988505559708 0
outer loop
vertex 271.5619740857198 -50.82834163498803 1
vertex 272.0582293533035 -50.42824772525 1
vertex 272.05822935330343 -50.428247725250046 0
endloop
endfacet
facet normal -0.6276460305642284 0.7784988505559708 0
outer loop
vertex 271.5619740857198 -50.82834163498803 1
vertex 272.05822935330343 -50.428247725250046 0
vertex 271.5619740857197 -50.82834163498808 0
endloop
endfacet
facet normal -0.7433453569764629 0.6689078264316654 0
outer loop
vertex 271.135577781913 -51.30218825501869 1
vertex 271.5619740857198 -50.82834163498803 1
vertex 271.5619740857197 -50.82834163498808 0
endloop
endfacet
facet normal -0.7433453569764629 0.6689078264316654 0
outer loop
vertex 271.135577781913 -51.30218825501869 1
vertex 271.5619740857197 -50.82834163498808 0
vertex 271.13557778191307 -51.30218825501859 0
endloop
endfacet
facet normal -0.8401662931823943 0.5423288668328056 0
outer loop
vertex 270.78986942699896 -51.83775352700314 1
vertex 271.135577781913 -51.30218825501869 1
vertex 271.13557778191307 -51.30218825501859 0
endloop
endfacet
facet normal -0.8401662931823943 0.5423288668328056 0
outer loop
vertex 270.78986942699896 -51.83775352700314 1
vertex 271.13557778191307 -51.30218825501859 0
vertex 270.7898694269989 -51.83775352700317 0
endloop
endfacet
facet normal -0.9156499236902033 0.4019766376869741 0
outer loop
vertex 270.53362881244243 -52.42143595321349 1
vertex 270.78986942699896 -51.83775352700314 1
vertex 270.7898694269989 -51.83775352700317 0
endloop
endfacet
facet normal -0.9156499236902033 0.4019766376869741 0
outer loop
vertex 270.53362881244243 -52.42143595321349 1
vertex 270.7898694269989 -51.83775352700317 0
vertex 270.53362881244254 -52.42143595321319 0
endloop
endfacet
facet normal -0.9678792264624283 0.25141559812885794 0
outer loop
vertex 270.37336355985417 -53.03841202732495 1
vertex 270.53362881244243 -52.42143595321349 1
vertex 270.53362881244254 -52.42143595321319 0
endloop
endfacet
facet normal -0.9678792264624283 0.25141559812885794 0
outer loop
vertex 270.37336355985417 -53.03841202732495 1
vertex 270.53362881244254 -52.42143595321319 0
vertex 270.37336355985417 -53.038412027325144 0
endloop
endfacet
facet normal -0.9955277586165477 0.09446947561997387 0
outer loop
vertex 270.31314384999996 -53.6730127000003 1
vertex 270.37336355985417 -53.03841202732495 1
vertex 270.37336355985417 -53.038412027325144 0
endloop
endfacet
facet normal -0.9955277586165477 0.09446947561997387 0
outer loop
vertex 270.31314384999996 -53.6730127000003 1
vertex 270.37336355985417 -53.038412027325144 0
vertex 270.31314384999996 -53.67301270000064 0
endloop
endfacet
facet normal 0 0 -1
outer loop
vertex 269.2810381 -123.19177810000052 1
vertex 269.38644150010504 -116.09220110000078 1
vertex 269.3960933587097 -115.44208816921797 1
endloop
endfacet
facet normal 0 0 -1
outer loop
vertex 269.2810381 -123.19177810000052 1
vertex 269.3960933587097 -115.44208816921797 1
vertex 269.40585725774105 -114.7844286162608 1
endloop
endfacet
facet normal 0 0 -1
outer loop
vertex 269.2810381 -123.19177810000052 1
vertex 269.40585725774105 -114.7844286162608 1
vertex 269.4154692241508 -114.13700267384029 1
endloop
endfacet
facet normal 0 0 -1
outer loop
vertex 269.2810381 -123.19177810000052 1
vertex 269.4154692241508 -114.13700267384029 1
vertex 269.4246693844445 -113.51731444412287 1
endloop
endfacet
facet normal 0 0 -1
outer loop
vertex 269.2810381 -123.19177810000052 1
vertex 269.4246693844445 -113.51731444412287 1
vertex 269.433208998905 -112.9421180998621 1
endloop
endfacet
facet normal 0 0 -1
outer loop
vertex 269.2810381 -123.19177810000052 1
vertex 269.433208998905 -112.9421180998621 1
vertex 269.44085718663297 -112.42696491096251 1
endloop
endfacet
facet normal 0 0 -1
outer loop
vertex 269.2810381 -123.19177810000052 1
vertex 269.44085718663297 -112.42696491096251 1
vertex 269.4474071677472 -111.98578279328318 1
endloop
endfacet
facet normal 0 0 -1
outer loop
vertex 269.2810381 -123.19177810000052 1
vertex 269.4474071677472 -111.98578279328318 1
vertex 269.45268185398004 -111.63049974716326 1
endloop
endfacet
facet normal 0 0 -1
outer loop
vertex 269.2810381 -123.19177810000052 1
vertex 269.45268185398004 -111.63049974716326 1
vertex 269.45653863651603 -111.37072136658595 1
endloop
endfacet
facet normal 0 0 -1
outer loop
vertex 269.2810381 -123.19177810000052 1
vertex 269.45653863651603 -111.37072136658595 1
vertex 269.4588732416289 -111.21347113797054 1
endloop
endfacet
facet normal 0 0 -1
outer loop
vertex 269.2810381 -123.19177810000052 1
vertex 269.4588732416289 -111.21347113797054 1
vertex 269.45962254987325 -111.16300055 1
endloop
endfacet
facet normal 0 0 -1
outer loop
vertex 269.2810381 -123.19177810000052 1
vertex 269.45962254987325 -111.16300055 1
vertex 270.31314384999996 -53.6730127000003 1
endloop
endfacet
facet normal 0 0 -1
outer loop
vertex 269.2810381 -123.19177810000052 1
vertex 270.31314384999996 -53.6730127000003 1
vertex 270.31314384999996 -53.67301270000064 0
endloop
endfacet
facet normal 0 0 -1
outer loop
vertex 269.2810381 -123.19177810000052 1
vertex 270.31314384999996 -53.67301270000064 0
vertex 269.45962254987325 -111.16300055 0
endloop
endfacet
facet normal 0 0 -1
outer loop
vertex 269.2810381 -123.19177810000052 1
vertex 269.45962254987325 -111.16300055 0
vertex 269.4588732416289 -111.21347113797054 0
endloop
endfacet
facet normal 0 0 -1
outer loop
vertex 269.2810381 -123.19177810000052 1
vertex 269.4588732416289 -111.21347113797054 0
vertex 269.45653863651603 -111.37072136658587 0
endloop
endfacet
facet normal 0 0 -1
outer loop
vertex 269.2810381 -123.19177810000052 1
vertex 269.45653863651603 -111.37072136658587 0
vertex 269.45268185398004 -111.63049974716331 0
endloop
endfacet
facet normal 0 0 -1
outer loop
vertex 269.2810381 -123.19177810000052 1
vertex 269.45268185398004 -111.63049974716331 0
vertex 269.4474071677472 -111.98578279328332 0
endloop
endfacet
facet normal 0 0 -1
outer loop
vertex 269.2810381 -123.19177810000052 1
vertex 269.4474071677472 -111.98578279328332 0
vertex 269.44085718663297 -112.42696491096265 0
endloop
endfacet
facet normal 0 0 -1
outer loop
vertex 269.2810381 -123.19177810000052 1
vertex 269.44085718663297 -112.42696491096265 0
vertex 269.43320899890506 -112.94211809986152 0
endloop
endfacet
facet normal 0 0 -1
outer loop
vertex 269.2810381 -123.19177810000052 1
vertex 269.43320899890506 -112.94211809986152 0
vertex 269.4246693844445 -113.51731444412295 0
endloop
endfacet
facet normal 0 0 -1
outer loop
vertex 269.2810381 -123.19177810000052 1
vertex 269.4246693844445 -113.51731444412295 0
vertex 269.4154692241508 -114.13700267384027 0
endloop
endfacet
facet normal 0 0 -1
outer loop
vertex 269.2810381 -123.19177810000052 1
vertex 269.4154692241508 -114.13700267384027 0
vertex 269.40585725774105 -114.78442861626014 0
endloop
endfacet
facet normal 0 0 -1
outer loop
vertex 269.2810381 -123.19177810000052 1
vertex 269.40585725774105 -114.78442861626014 0
vertex 269.3960933587097 -115.44208816921787 0
endloop
endfacet
facet normal 0 0 -1
outer loop
vertex 269.2810381 -123.19177810000052 1
vertex 269.3960933587097 -115.44208816921787 0
vertex 269.38644150010504 -116.09220110000027 0
endloop
endfacet
facet normal 0 0 -1
outer loop
vertex 269.2810381 -123.19177810000052 1
vertex 269.38644150010504 -116.09220110000027 0
vertex 269.2810381 -123.19177810000049 0
endloop
endfacet
facet normal -0.9959704743110536 0.08968173894731984 0
outer loop
vertex 269.22730871631086 -123.78847571520552 1
vertex 269.2810381 -123.19177810000052 1
vertex 269.2810381 -123.19177810000049 0
endloop
endfacet
facet normal -0.9959704743110536 0.08968173894731984 0
outer loop
vertex 269.22730871631086 -123.78847571520552 1
vertex 269.2810381 -123.19177810000049 0
vertex 269.22730871631086 -123.78847571520554 0
endloop
endfacet
facet normal -0.9714038545517452 0.23743325664702467 0
outer loop
vertex 269.08505868412203 -124.37045918091584 1
vertex 269.22730871631086 -123.78847571520552 1
vertex 269.22730871631086 -123.78847571520554 0
endloop
endfacet
facet normal -0.9714038545517452 0.23743325664702467 0
outer loop
vertex 269.08505868412203 -124.37045918091584 1
vertex 269.22730871631086 -123.78847571520554 0
vertex 269.08505868412215 -124.37045918091553 0
endloop
endfacet
facet normal -0.9250451013973203 0.37985728949280595 0
outer loop
vertex 268.8574801535464 -124.92466838188518 1
vertex 269.08505868412203 -124.37045918091584 1
vertex 269.08505868412215 -124.37045918091553 0
endloop
endfacet
facet normal -0.9250451013973203 0.37985728949280595 0
outer loop
vertex 268.8574801535464 -124.92466838188518 1
vertex 269.08505868412215 -124.37045918091553 0
vertex 268.85748015354636 -124.9246683818852 0
endloop
endfacet
facet normal -0.8579341277582054 0.5137597030010891 0
outer loop
vertex 268.54967856196987 -125.43867033347703 1
vertex 268.8574801535464 -124.92466838188518 1
vertex 268.85748015354636 -124.9246683818852 0
endloop
endfacet
facet normal -0.8579341277582054 0.5137597030010891 0
outer loop
vertex 268.54967856196987 -125.43867033347703 1
vertex 268.85748015354636 -124.9246683818852 0
vertex 268.54967856196976 -125.43867033347729 0
endloop
endfacet
facet normal -0.7715764837096254 0.6361365653586423 0
outer loop
vertex 268.16855905000017 -125.90093404999982 1
vertex 268.54967856196987 -125.43867033347703 1
vertex 268.54967856196976 -125.43867033347729 0
endloop
endfacet
facet normal -0.7715764837096254 0.6361365653586423 0
outer loop
vertex 268.16855905000017 -125.90093404999982 1
vertex 268.54967856196976 -125.43867033347729 0
vertex 268.1685590500009 -125.90093404999902 0
endloop
endfacet
facet normal -0.7217700770563034 0.6921329033257543 0
outer loop
vertex 252.75706799999975 -141.97234610000027 1
vertex 268.16855905000017 -125.90093404999982 1
vertex 268.1685590500009 -125.90093404999902 0
endloop
endfacet
facet normal -0.7217700770563034 0.6921329033257543 0
outer loop
vertex 252.75706799999975 -141.97234610000027 1
vertex 268.1685590500009 -125.90093404999902 0
vertex 252.75706800000015 -141.9723460999998 0
endloop
endfacet
facet normal -0.7742958346386589 0.6328237989055269 0
outer loop
vertex 252.35631794908605 -142.4626865323455 1
vertex 252.75706799999975 -141.97234610000027 1
vertex 252.75706800000015 -141.9723460999998 0
endloop
endfacet
facet normal -0.7742958346386589 0.6328237989055269 0
outer loop
vertex 252.35631794908605 -142.4626865323455 1
vertex 252.75706800000015 -141.9723460999998 0
vertex 252.35631794908602 -142.46268653234554 0
endloop
endfacet
facet normal -0.8644635280848626 0.5026955426608356 0
outer loop
vertex 252.03797501435616 -143.01012694735454 1
vertex 252.35631794908605 -142.4626865323455 1
vertex 252.35631794908602 -142.46268653234554 0
endloop
endfacet
facet normal -0.8644635280848626 0.5026955426608356 0
outer loop
vertex 252.03797501435616 -143.01012694735454 1
vertex 252.35631794908602 -142.46268653234554 0
vertex 252.03797501435633 -143.0101269473543 0
endloop
endfacet
facet normal -0.9329658157486834 0.35996497974718816 0
outer loop
vertex 251.81001932681204 -143.60094793258904 1
vertex 252.03797501435616 -143.01012694735454 1
vertex 252.03797501435633 -143.0101269473543 0
endloop
endfacet
facet normal -0.9329658157486834 0.35996497974718816 0
outer loop
vertex 251.81001932681204 -143.60094793258904 1
vertex 252.03797501435633 -143.0101269473543 0
vertex 251.81001932681195 -143.60094793258946 0
endloop
endfacet
facet normal -0.9780837098808286 0.20821204687950984 0
outer loop
vertex 251.67816449933753 -144.2203408099694 1
vertex 251.81001932681204 -143.60094793258904 1
vertex 251.81001932681195 -143.60094793258946 0
endloop
endfacet
facet normal -0.9780837098808286 0.20821204687950984 0
outer loop
vertex 251.67816449933753 -144.2203408099694 1
vertex 251.81001932681195 -143.60094793258946 0
vertex 251.67816449933756 -144.22034080996926 0
endloop
endfacet
facet normal -0.9986863495494591 0.05124036712959425 0
outer loop
vertex 251.6457154174095 -144.85278075902343 1
vertex 251.67816449933753 -144.2203408099694 1
vertex 251.67816449933756 -144.22034080996926 0
endloop
endfacet
facet normal -0.9986863495494591 0.05124036712959425 0
outer loop
vertex 251.6457154174095 -144.85278075902343 1
vertex 251.67816449933756 -144.22034080996926 0
vertex 251.64571541740952 -144.85278075902357 0
endloop
endfacet
facet normal -0.9942573383061286 -0.10701563074809443 0
outer loop
vertex 251.71348540354063 -145.4824159399476 1
vertex 251.6457154174095 -144.85278075902343 1
vertex 251.64571541740952 -144.85278075902357 0
endloop
endfacet
facet normal -0.9942573383061286 -0.10701563074809443 0
outer loop
vertex 251.71348540354063 -145.4824159399476 1
vertex 251.64571541740952 -144.85278075902357 0
vertex 251.71348540354066 -145.48241593994766 0
endloop
endfacet
facet normal -0.9649076874441808 -0.26258932710817334 0
outer loop
vertex 251.87977583169487 -146.09346481326423 1
vertex 251.71348540354063 -145.4824159399476 1
vertex 251.71348540354066 -145.48241593994766 0
endloop
endfacet
facet normal -0.9649076874441808 -0.26258932710817334 0
outer loop
vertex 251.87977583169487 -146.09346481326423 1
vertex 251.71348540354066 -145.48241593994766 0
vertex 251.87977583169487 -146.09346481326426 0
endloop
endfacet
facet normal -0.911373033547731 -0.4115813330582504 0
outer loop
vertex 252.14041870263085 -146.67061169743525 1
vertex 251.87977583169487 -146.09346481326423 1
vertex 251.87977583169487 -146.09346481326426 0
endloop
endfacet
facet normal -0.911373033547731 -0.4115813330582504 0
outer loop
vertex 252.14041870263085 -146.67061169743525 1
vertex 251.87977583169487 -146.09346481326426 0
vertex 252.14041870263088 -146.67061169743536 0
endloop
endfacet
facet normal -0.8349952000717732 -0.5502572269921584 0
outer loop
vertex 252.48888111303881 -147.19939064993818 1
vertex 252.14041870263085 -146.67061169743525 1
vertex 252.14041870263088 -146.67061169743536 0
endloop
endfacet
facet normal -0.8349952000717732 -0.5502572269921584 0
outer loop
vertex 252.48888111303881 -147.19939064993818 1
vertex 252.14041870263088 -146.67061169743536 0
vertex 252.48888111303867 -147.19939064993804 0
endloop
endfacet
facet normal -0.7376885651049387 -0.6751411562876437 0
outer loop
vertex 252.9164290000001 -147.66654805000013 1
vertex 252.48888111303881 -147.19939064993818 1
vertex 252.48888111303867 -147.19939064993804 0
endloop
endfacet
facet normal -0.7376885651049387 -0.6751411562876437 0
outer loop
vertex 252.9164290000001 -147.66654805000013 1
vertex 252.48888111303867 -147.19939064993804 0
vertex 252.916429 -147.66654805 0
endloop
endfacet
facet normal -0.6819296278355679 -0.731417789420003 0
outer loop
vertex 271.52717549999994 -165.01808039999992 1
vertex 252.9164290000001 -147.66654805000013 1
vertex 252.916429 -147.66654805 0
endloop
endfacet
facet normal -0.6819296278355679 -0.731417789420003 0
outer loop
vertex 271.52717549999994 -165.01808039999992 1
vertex 252.916429 -147.66654805 0
vertex 271.5271754999998 -165.01808039999983 0
endloop
endfacet
facet normal -0.6191492840221352 -0.7852733053497218 0
outer loop
vertex 272.04636418543384 -165.42743508029895 1
vertex 271.52717549999994 -165.01808039999992 1
vertex 271.5271754999998 -165.01808039999983 0
endloop
endfacet
facet normal -0.6191492840221352 -0.7852733053497218 0
outer loop
vertex 272.04636418543384 -165.42743508029895 1
vertex 271.5271754999998 -165.01808039999983 0
vertex 272.0463641854339 -165.42743508029898 0
endloop
endfacet
facet normal -0.48133629259184463 -0.8765360080646649 0
outer loop
vertex 272.6258876619934 -165.74567150083462 1
vertex 272.04636418543384 -165.42743508029895 1
vertex 272.0463641854339 -165.42743508029898 0
endloop
endfacet
facet normal -0.48133629259184463 -0.8765360080646649 0
outer loop
vertex 272.6258876619934 -165.74567150083462 1
vertex 272.0463641854339 -165.42743508029898 0
vertex 272.6258876619933 -165.7456715008346 0
endloop
endfacet
facet normal -0.33037595944465203 -0.9438494188275086 0
outer loop
vertex 273.2499155302326 -165.96410020522038 1
vertex 272.6258876619934 -165.74567150083462 1
vertex 272.6258876619933 -165.7456715008346 0
endloop
endfacet
facet normal -0.33037595944465203 -0.9438494188275086 0
outer loop
vertex 273.2499155302326 -165.96410020522038 1
vertex 272.6258876619933 -165.7456715008346 0
vertex 273.24991553023267 -165.9641002052204 0
endloop
endfacet
facet normal -0.17038971628196017 -0.9853767526105703 0
outer loop
vertex 273.90139927549814 -166.07675369559755 1
vertex 273.2499155302326 -165.96410020522038 1
vertex 273.24991553023267 -165.9641002052204 0
endloop
endfacet
facet normal -0.17038971628196017 -0.9853767526105703 0
outer loop
vertex 273.90139927549814 -166.07675369559755 1
vertex 273.24991553023267 -165.9641002052204 0
vertex 273.90139927549814 -166.07675369559757 0
endloop
endfacet
facet normal -0.005748406057790589 -0.9999834777774055 0
outer loop
vertex 274.56254028535045 -166.0805542653775 1
vertex 273.90139927549814 -166.07675369559755 1
vertex 273.90139927549814 -166.07675369559757 0
endloop
endfacet
facet normal -0.005748406057790589 -0.9999834777774055 0
outer loop
vertex 274.56254028535045 -166.0805542653775 1
vertex 273.90139927549814 -166.07675369559757 0
vertex 274.5625402853502 -166.08055426537751 0
endloop
endfacet
facet normal 0.15904995129511734 -0.9872705368808596 0
outer loop
vertex 275.21527610974795 -165.97539808254743 1
vertex 274.56254028535045 -166.0805542653775 1
vertex 274.5625402853502 -166.08055426537751 0
endloop
endfacet
facet normal 0.15904995129511734 -0.9872705368808596 0
outer loop
vertex 275.21527610974795 -165.97539808254743 1
vertex 274.5625402853502 -166.08055426537751 0
vertex 275.215276109748 -165.9753980825474 0
endloop
endfacet
facet normal 0.3195030452977789 -0.9475852489593988 0
outer loop
vertex 275.84177392930206 -165.76415802637328 1
vertex 275.21527610974795 -165.97539808254743 1
vertex 275.215276109748 -165.9753980825474 0
endloop
endfacet
facet normal 0.3195030452977789 -0.9475852489593988 0
outer loop
vertex 275.84177392930206 -165.76415802637328 1
vertex 275.215276109748 -165.9753980825474 0
vertex 275.84177392930195 -165.7641580263733 0
endloop
endfacet
facet normal 0.47122727857646307 -0.8820118207401874 0
outer loop
vertex 276.42491775 -165.45260520000005 1
vertex 275.84177392930206 -165.76415802637328 1
vertex 275.84177392930195 -165.7641580263733 0
endloop
endfacet
facet normal 0.47122727857646307 -0.8820118207401874 0
outer loop
vertex 276.42491775 -165.45260520000005 1
vertex 275.84177392930195 -165.7641580263733 0
vertex 276.4249177500001 -165.4526052 0
endloop
endfacet
facet normal 0.5425072165888292 -0.840051141270007 0
outer loop
vertex 328.4922888999999 -131.8273612000001 1
vertex 276.42491775 -165.45260520000005 1
vertex 276.4249177500001 -165.4526052 0
endloop
endfacet
facet normal 0.5425072165888292 -0.840051141270007 0
outer loop
vertex 328.4922888999999 -131.8273612000001 1
vertex 276.4249177500001 -165.4526052 0
vertex 328.4922889000002 -131.82736119999993 0
endloop
endfacet
facet normal 0.6055145337145676 -0.7958342474789772 0
outer loop
vertex 328.9819701392771 -131.45478473924965 1
vertex 328.4922888999999 -131.8273612000001 1
vertex 328.4922889000002 -131.82736119999993 0
endloop
endfacet
facet normal 0.6055145337145676 -0.7958342474789772 0
outer loop
vertex 328.9819701392771 -131.45478473924965 1
vertex 328.4922889000002 -131.82736119999993 0
vertex 328.9819701392771 -131.45478473924965 0
endloop
endfacet
facet normal 0.7204051749874295 -0.6935534470041448 0
outer loop
vertex 329.4087196373135 -131.0115131382841 1
vertex 328.9819701392771 -131.45478473924965 1
vertex 328.9819701392771 -131.45478473924965 0
endloop
endfacet
facet normal 0.7204051749874295 -0.6935534470041448 0
outer loop
vertex 329.4087196373135 -131.0115131382841 1
vertex 328.9819701392771 -131.45478473924965 0
vertex 329.4087196373138 -131.01151313828376 0
endloop
endfacet
facet normal 0.818253113294644 -0.5748581064781312 0
outer loop
vertex 329.7624348548526 -130.50803484562462 1
vertex 329.4087196373135 -131.0115131382841 1
vertex 329.4087196373138 -131.01151313828376 0
endloop
endfacet
facet normal 0.818253113294644 -0.5748581064781312 0
outer loop
vertex 329.7624348548526 -130.50803484562462 1
vertex 329.4087196373138 -131.01151313828376 0
vertex 329.7624348548523 -130.50803484562516 0
endloop
endfacet
facet normal 0.8967388894649235 -0.44256001188676725 0
outer loop
vertex 330.0347458984198 -129.95626356887394 1
vertex 329.7624348548526 -130.50803484562462 1
vertex 329.7624348548523 -130.50803484562516 0
endloop
endfacet
facet normal 0.8967388894649235 -0.44256001188676725 0
outer loop
vertex 330.0347458984198 -129.95626356887394 1
vertex 329.7624348548523 -130.50803484562516 0
vertex 330.0347458984198 -129.95626356887394 0
endloop
endfacet
facet normal 0.9540053100468259 -0.2997897069654988 0
outer loop
vertex 330.21920912546716 -129.36925576299294 1
vertex 330.0347458984198 -129.95626356887394 1
vertex 330.0347458984198 -129.95626356887394 0
endloop
endfacet
facet normal 0.9540053100468259 -0.2997897069654988 0
outer loop
vertex 330.21920912546716 -129.36925576299294 1
vertex 330.0347458984198 -129.95626356887394 0
vertex 330.2192091254671 -129.36925576299313 0
endloop
endfacet
facet normal 0.9886972910176678 -0.14992553729877084 0
outer loop
vertex 330.31145961901086 -128.7609016779918 1
vertex 330.21920912546716 -129.36925576299294 1
vertex 330.2192091254671 -129.36925576299313 0
endloop
endfacet
facet normal 0.9886972910176678 -0.14992553729877084 0
outer loop
vertex 330.31145961901086 -128.7609016779918 1
vertex 330.2192091254671 -129.36925576299313 0
vertex 330.31145961901086 -128.7609016779918 0
endloop
endfacet
facet normal 0.9999939228697438 0.003486290805597037 0
outer loop
vertex 330.3093144738058 -128.14559667667234 1
vertex 330.31145961901086 -128.7609016779918 1
vertex 330.31145961901086 -128.7609016779918 0
endloop
endfacet
facet normal 0.9999939228697438 0.003486290805597037 0
outer loop
vertex 330.3093144738058 -128.14559667667234 1
vertex 330.31145961901086 -128.7609016779918 0
vertex 330.3093144738058 -128.14559667667226 0
endloop
endfacet
facet normal 0.9876278956302154 0.15681562349789094 0
outer loop
vertex 330.21282445000014 -127.53790060000074 1
vertex 330.3093144738058 -128.14559667667234 1
vertex 330.3093144738058 -128.14559667667226 0
endloop
endfacet
facet normal 0.9876278956302154 0.15681562349789094 0
outer loop
vertex 330.21282445000014 -127.53790060000074 1
vertex 330.3093144738058 -128.14559667667226 0
vertex 330.21282445000014 -127.53790060000057 0
endloop
endfacet
facet normal 0 0 1
outer loop
vertex 327.4790244000001 -116.09220110000078 1
vertex 329.17475509409866 -123.19177810000052 1
vertex 329.31727604445933 -123.78847571520552 1
endloop
endfacet
facet normal 0 0 1
outer loop
vertex 327.4790244000001 -116.09220110000078 1
vertex 329.31727604445933 -123.78847571520552 1
vertex 329.4562825269952 -124.37045918091584 1
endloop
endfacet
facet normal 0 0 1
outer loop
vertex 327.4790244000001 -116.09220110000078 1
vertex 329.4562825269952 -124.37045918091584 1
vertex 329.58865513919955 -124.92466838188518 1
endloop
endfacet
facet normal 0 0 1
outer loop
vertex 327.4790244000001 -116.09220110000078 1
vertex 329.58865513919955 -124.92466838188518 1
vertex 329.71142426842243 -125.43867033347703 1
endloop
endfacet
facet normal 0 0 1
outer loop
vertex 327.4790244000001 -116.09220110000078 1
vertex 329.71142426842243 -125.43867033347703 1
vertex 329.8218357440464 -125.90093404999982 1
endloop
endfacet
facet normal 0 0 1
outer loop
vertex 327.4790244000001 -116.09220110000078 1
vertex 329.8218357440464 -125.90093404999982 1
vertex 330.21282445000014 -127.53790060000074 1
endloop
endfacet
facet normal 0 0 1
outer loop
vertex 327.4790244000001 -116.09220110000078 1
vertex 330.21282445000014 -127.53790060000074 1
vertex 330.21282445000014 -127.53790060000057 0
endloop
endfacet
facet normal 0 0 1
outer loop
vertex 327.4790244000001 -116.09220110000078 1
vertex 330.21282445000014 -127.53790060000057 0
vertex 329.8218357440462 -125.90093404999902 0
endloop
endfacet
facet normal 0 0 1
outer loop
vertex 327.4790244000001 -116.09220110000078 1
vertex 329.8218357440462 -125.90093404999902 0
vertex 329.71142426842255 -125.43867033347729 0
endloop
endfacet
facet normal 0 0 1
outer loop
vertex 327.4790244000001 -116.09220110000078 1
vertex 329.71142426842255 -125.43867033347729 0
vertex 329.58865513919955 -124.9246683818852 0
endloop
endfacet
facet normal 0 0 1
outer loop
vertex 327.4790244000001 -116.09220110000078 1
vertex 329.58865513919955 -124.9246683818852 0
vertex 329.4562825269952 -124.37045918091553 0
endloop
endfacet
facet normal 0 0 1
outer loop
vertex 327.4790244000001 -116.09220110000078 1
vertex 329.4562825269952 -124.37045918091553 0
vertex 329.31727604445933 -123.78847571520554 0
endloop
endfacet
facet normal 0 0 1
outer loop
vertex 327.4790244000001 -116.09220110000078 1
vertex 329.31727604445933 -123.78847571520554 0
vertex 329.1747550940987 -123.19177810000049 0
endloop
endfacet
facet normal 0 0 1
outer loop
vertex 327.4790244000001 -116.09220110000078 1
vertex 329.1747550940987 -123.19177810000049 0
vertex 327.47902440000007 -116.09220110000027 0
endloop
endfacet
facet normal 0.9884469436029515 0.1515672777415488 0
outer loop
vertex 327.379336857051 -115.44208816921797 1
vertex 327.4790244000001 -116.09220110000078 1
vertex 327.47902440000007 -116.09220110000027 0
endloop
endfacet
facet normal 0.9884469436029515 0.1515672777415488 0
outer loop
vertex 327.379336857051 -115.44208816921797 1
vertex 327.47902440000007 -116.09220110000027 0
vertex 327.37933685705104 -115.44208816921787 0
endloop
endfacet
facet normal 0.9999223383554126 -0.012462634466430696 0
outer loop
vertex 327.3875336642404 -114.7844286162608 1
vertex 327.379336857051 -115.44208816921797 1
vertex 327.37933685705104 -115.44208816921787 0
endloop
endfacet
facet normal 0.9999223383554126 -0.012462634466430696 0
outer loop
vertex 327.3875336642404 -114.7844286162608 1
vertex 327.37933685705104 -115.44208816921787 0
vertex 327.38753366424044 -114.78442861626014 0
endloop
endfacet
facet normal 0.9843628961904818 -0.17615245840886457 0
outer loop
vertex 327.5033910089619 -114.13700267384029 1
vertex 327.3875336642404 -114.7844286162608 1
vertex 327.38753366424044 -114.78442861626014 0
endloop
endfacet
facet normal 0.9843628961904818 -0.17615245840886457 0
outer loop
vertex 327.5033910089619 -114.13700267384029 1
vertex 327.38753366424044 -114.78442861626014 0
vertex 327.5033910089619 -114.13700267384027 0
endloop
endfacet
facet normal 0.9421897711715728 -0.3350797443887937 0
outer loop
vertex 327.7237765193631 -113.51731444412287 1
vertex 327.5033910089619 -114.13700267384029 1
vertex 327.5033910089619 -114.13700267384027 0
endloop
endfacet
facet normal 0.9421897711715728 -0.3350797443887937 0
outer loop
vertex 327.7237765193631 -113.51731444412287 1
vertex 327.5033910089619 -114.13700267384027 0
vertex 327.72377651936307 -113.51731444412295 0
endloop
endfacet
facet normal 0.8745431750829761 -0.4849476620376546 0
outer loop
vertex 328.04273175257435 -112.9421180998621 1
vertex 327.7237765193631 -113.51731444412287 1
vertex 327.72377651936307 -113.51731444412295 0
endloop
endfacet
facet normal 0.8745431750829761 -0.4849476620376546 0
outer loop
vertex 328.04273175257435 -112.9421180998621 1
vertex 327.72377651936307 -113.51731444412295 0
vertex 328.04273175257475 -112.94211809986152 0
endloop
endfacet
facet normal 0.7832520320555917 -0.6217043141886555 0
outer loop
vertex 328.45163328988207 -112.42696491096251 1
vertex 328.04273175257435 -112.9421180998621 1
vertex 328.04273175257475 -112.94211809986152 0
endloop
endfacet
facet normal 0.7832520320555917 -0.6217043141886555 0
outer loop
vertex 328.45163328988207 -112.42696491096251 1
vertex 328.04273175257475 -112.94211809986152 0
vertex 328.4516332898819 -112.42696491096265 0
endloop
endfacet
facet normal 0.6707845309426527 -0.7416522858105715 0
outer loop
vertex 328.93942588339314 -111.98578279328318 1
vertex 328.45163328988207 -112.42696491096251 1
vertex 328.4516332898819 -112.42696491096265 0
endloop
endfacet
facet normal 0.6707845309426527 -0.7416522858105715 0
outer loop
vertex 328.93942588339314 -111.98578279328318 1
vertex 328.4516332898819 -112.42696491096265 0
vertex 328.93942588339297 -111.98578279328332 0
endloop
endfacet
facet normal 0.5401813942435695 -0.8415486090019241 0
outer loop
vertex 329.4929213507497 -111.63049974716326 1
vertex 328.93942588339314 -111.98578279328318 1
vertex 328.93942588339297 -111.98578279328332 0
endloop
endfacet
facet normal 0.5401813942435695 -0.8415486090019241 0
outer loop
vertex 329.4929213507497 -111.63049974716326 1
vertex 328.93942588339297 -111.98578279328332 0
vertex 329.49292135074967 -111.63049974716331 0
endloop
endfacet
facet normal 0.39497366774776405 -0.9186924413457852 0
outer loop
vertex 330.0971551368204 -111.37072136658595 1
vertex 329.4929213507497 -111.63049974716326 1
vertex 329.49292135074967 -111.63049974716331 0
endloop
endfacet
facet normal 0.39497366774776405 -0.9186924413457852 0
outer loop
vertex 330.0971551368204 -111.37072136658595 1
vertex 329.49292135074967 -111.63049974716331 0
vertex 330.09715513682056 -111.37072136658587 0
endloop
endfacet
facet normal 0.23908725357497854 -0.9709980871134475 0
outer loop
vertex 330.73579090221807 -111.21347113797054 1
vertex 330.0971551368204 -111.37072136658595 1
vertex 330.09715513682056 -111.37072136658587 0
endloop
endfacet
facet normal 0.23908725357497854 -0.9709980871134475 0
outer loop
vertex 330.73579090221807 -111.21347113797054 1
vertex 330.09715513682056 -111.37072136658587 0
vertex 330.73579090221807 -111.21347113797054 0
endloop
endfacet
facet normal 0.07673676770102142 -0.9970513870823307 0
outer loop
vertex 331.3915622 -111.16300055 1
vertex 330.73579090221807 -111.21347113797054 1
vertex 330.73579090221807 -111.21347113797054 0
endloop
endfacet
facet normal 0.07673676770102142 -0.9970513870823307 0
outer loop
vertex 331.3915622 -111.16300055 1
vertex 330.73579090221807 -111.21347113797054 0
vertex 331.3915621999999 -111.16300055 0
endloop
endfacet
facet normal -0.005494463244332337 -0.9999849053229038 0
outer loop
vertex 393.2530224000002 -111.50290120000001 1
vertex 331.3915622 -111.16300055 1
vertex 331.3915621999999 -111.16300055 0
endloop
endfacet
facet normal -0.005494463244332337 -0.9999849053229038 0
outer loop
vertex 393.2530224000002 -111.50290120000001 1
vertex 331.3915621999999 -111.16300055 0
vertex 393.25302240000013 -111.50290120000001 0
endloop
endfacet
facet normal 0.07325495794111697 -0.9973132462456544 0
outer loop
vertex 393.8811929771238 -111.45676062242293 1
vertex 393.2530224000002 -111.50290120000001 1
vertex 393.25302240000013 -111.50290120000001 0
endloop
endfacet
facet normal 0.07325495794111697 -0.9973132462456544 0
outer loop
vertex 393.8811929771238 -111.45676062242293 1
vertex 393.25302240000013 -111.50290120000001 0
vertex 393.88119297712376 -111.45676062242295 0
endloop
endfacet
facet normal 0.22890112853070835 -0.9734496768489721 0
outer loop
vertex 394.4943339003092 -111.31258403825703 1
vertex 393.8811929771238 -111.45676062242293 1
vertex 393.88119297712376 -111.45676062242295 0
endloop
endfacet
facet normal 0.22890112853070835 -0.9734496768489721 0
outer loop
vertex 394.4943339003092 -111.31258403825703 1
vertex 393.88119297712376 -111.45676062242295 0
vertex 394.49433390030913 -111.31258403825704 0
endloop
endfacet
facet normal 0 0 -1
outer loop
vertex 395.07724080777 -111.07394578411467 1
vertex 394.85971223774493 -111.16300055 1
vertex 394.4943339003092 -111.31258403825703 1
endloop
endfacet
facet normal 0 0 -1
outer loop
vertex 395.07724080777 -111.07394578411467 1
vertex 394.4943339003092 -111.31258403825703 1
vertex 394.49433390030913 -111.31258403825704 0
endloop
endfacet
facet normal 0 0 -1
outer loop
vertex 395.07724080777 -111.07394578411467 1
vertex 394.49433390030913 -111.31258403825704 0
vertex 394.85971223774493 -111.16300055 0
endloop
endfacet
facet normal 0 0 -1
outer loop
vertex 395.07724080777 -111.07394578411467 1
vertex 394.85971223774493 -111.16300055 0
vertex 395.0772408077702 -111.0739457841146 0
endloop
endfacet
facet normal 0.5194498346646118 -0.8545009474932767 0
outer loop
vertex 395.61546020654185 -110.74676302495513 1
vertex 395.07724080777 -111.07394578411467 1
vertex 395.0772408077702 -111.0739457841146 0
endloop
endfacet
facet normal 0.5194498346646118 -0.8545009474932767 0
outer loop
vertex 395.61546020654185 -110.74676302495513 1
vertex 395.0772408077702 -111.0739457841146 0
vertex 395.61546020654197 -110.74676302495507 0
endloop
endfacet
facet normal 0.6471469707706207 -0.7623652656190532 0
outer loop
vertex 396.0956466546787 -110.33914843476975 1
vertex 395.61546020654185 -110.74676302495513 1
vertex 395.61546020654197 -110.74676302495507 0
endloop
endfacet
facet normal 0.6471469707706207 -0.7623652656190532 0
outer loop
vertex 396.0956466546787 -110.33914843476975 1
vertex 395.61546020654197 -110.74676302495507 0
vertex 396.0956466546786 -110.33914843476985 0
endloop
endfacet
facet normal 0.7587977466953318 -0.6513263234432392 0
outer loop
vertex 396.50589366872435 -109.8612090384305 1
vertex 396.0956466546787 -110.33914843476975 1
vertex 396.0956466546786 -110.33914843476985 0
endloop
endfacet
facet normal 0.7587977466953318 -0.6513263234432392 0
outer loop
vertex 396.50589366872435 -109.8612090384305 1
vertex 396.0956466546786 -110.33914843476985 0
vertex 396.5058936687245 -109.8612090384303 0
endloop
endfacet
facet normal 0.8516337208853774 -0.5241373917694933 0
outer loop
vertex 396.83602895142894 -109.32479560252564 1
vertex 396.50589366872435 -109.8612090384305 1
vertex 396.5058936687245 -109.8612090384303 0
endloop
endfacet
facet normal 0.8516337208853774 -0.5241373917694933 0
outer loop
vertex 396.83602895142894 -109.32479560252564 1
vertex 396.5058936687245 -109.8612090384303 0
vertex 396.83602895142894 -109.32479560252568 0
endloop
endfacet
facet normal 0.923352975002348 -0.38395218915160956 0
outer loop
vertex 397.0778666193785 -108.74320878917197 1
vertex 396.83602895142894 -109.32479560252564 1
vertex 396.83602895142894 -109.32479560252568 0
endloop
endfacet
facet normal 0.923352975002348 -0.38395218915160956 0
outer loop
vertex 397.0778666193785 -108.74320878917197 1
vertex 396.83602895142894 -109.32479560252568 0
vertex 397.0778666193784 -108.74320878917217 0
endloop
endfacet
facet normal 0.9721771912367803 -0.23424668373098687 0
outer loop
vertex 397.2254101764122 -108.13086935888614 1
vertex 397.0778666193785 -108.74320878917197 1
vertex 397.0778666193784 -108.74320878917217 0
endloop
endfacet
facet normal 0.9721771912367803 -0.23424668373098687 0
outer loop
vertex 397.2254101764122 -108.13086935888614 1
vertex 397.0778666193784 -108.74320878917217 0
vertex 397.22541017641214 -108.13086935888659 0
endloop
endfacet
facet normal 0.996895746662648 -0.07873290472173262 0
outer loop
vertex 397.2750012 -107.50296059999968 1
vertex 397.2254101764122 -108.13086935888614 1
vertex 397.22541017641214 -108.13086935888659 0
endloop
endfacet
facet normal 0.996895746662648 -0.07873290472173262 0
outer loop
vertex 397.2750012 -107.50296059999968 1
vertex 397.22541017641214 -108.13086935888659 0
vertex 397.2750012 -107.50296060000012 0
endloop
endfacet
endsolid csg.js
