solid csg.js
facet normal 0 0 -1
outer loop
vertex 136.37189320000002 -40.6396643 0
vertex 211.43650990000003 -49.7032443 0
vertex 212.1163731594558 -49.84610319667572 0
endloop
endfacet
facet normal 0 0 -1
outer loop
vertex 136.37189320000002 -40.6396643 0
vertex 212.1163731594558 -49.84610319667572 0
vertex 212.7612655668563 -50.10443557273518 0
endloop
endfacet
facet normal 0 0 -1
outer loop
vertex 136.37189320000002 -40.6396643 0
vertex 212.7612655668563 -50.10443557273518 0
vertex 213.3517347249414 -50.4704519753644 0
endloop
endfacet
facet normal 0 0 -1
outer loop
vertex 136.37189320000002 -40.6396643 0
vertex 213.3517347249414 -50.4704519753644 0
vertex 213.8699698019746 -50.93311193535223 0
endloop
endfacet
facet normal 0 0 -1
outer loop
vertex 136.37189320000002 -40.6396643 0
vertex 213.8699698019746 -50.93311193535223 0
vertex 214.3003388252596 -51.47845984030812 0
endloop
endfacet
facet normal 0 0 -1
outer loop
vertex 136.37189320000002 -40.6396643 0
vertex 214.3003388252596 -51.47845984030812 0
vertex 214.6298602018492 -52.09004588986617 0
endloop
endfacet
facet normal 0 0 -1
outer loop
vertex 136.37189320000002 -40.6396643 0
vertex 214.6298602018492 -52.09004588986617 0
vertex 214.84859429355603 -52.74942228523412 0
endloop
endfacet
facet normal 0 0 -1
outer loop
vertex 136.37189320000002 -40.6396643 0
vertex 214.84859429355603 -52.74942228523412 0
vertex 214.94994323485398 -53.43669968610031 0
endloop
endfacet
facet normal 0 0 -1
outer loop
vertex 136.37189320000002 -40.6396643 0
vertex 214.94994323485398 -53.43669968610031 0
vertex 214.93084995000004 -54.1311471499995 0
endloop
endfacet
facet normal 0 0 -1
outer loop
vertex 136.37189320000002 -40.6396643 0
vertex 214.93084995000004 -54.1311471499995 0
vertex 208.37560342967274 -111.16300054999999 0
endloop
endfacet
facet normal 0 0 -1
outer loop
vertex 136.37189320000002 -40.6396643 0
vertex 208.37560342967274 -111.16300054999999 0
vertex 154.3584377999997 -111.16300054999999 0
endloop
endfacet
facet normal 0 0 -1
outer loop
vertex 136.37189320000002 -40.6396643 0
vertex 154.3584377999997 -111.16300054999999 0
vertex 90.89028776225507 -111.16300054999999 0
endloop
endfacet
facet normal 0 0 -1
outer loop
vertex 136.37189320000002 -40.6396643 0
vertex 90.89028776225507 -111.16300054999999 0
vertex 90.67275919222996 -111.07394578411464 0
endloop
endfacet
facet normal 0 0 -1
outer loop
vertex 136.37189320000002 -40.6396643 0
vertex 90.67275919222996 -111.07394578411464 0
vertex 90.1345397934578 -110.7467630249549 0
endloop
endfacet
facet normal 0 0 -1
outer loop
vertex 136.37189320000002 -40.6396643 0
vertex 90.1345397934578 -110.7467630249549 0
vertex 89.6543533453212 -110.33914843476974 0
endloop
endfacet
facet normal 0 0 -1
outer loop
vertex 136.37189320000002 -40.6396643 0
vertex 89.6543533453212 -110.33914843476974 0
vertex 89.24410633127589 -109.86120903843084 0
endloop
endfacet
facet normal 0 0 -1
outer loop
vertex 136.37189320000002 -40.6396643 0
vertex 89.24410633127589 -109.86120903843084 0
vertex 88.91397104857113 -109.32479560252575 0
endloop
endfacet
facet normal 0 0 -1
outer loop
vertex 136.37189320000002 -40.6396643 0
vertex 88.91397104857113 -109.32479560252575 0
vertex 88.67213338062172 -108.74320878917234 0
endloop
endfacet
facet normal 0 0 -1
outer loop
vertex 136.37189320000002 -40.6396643 0
vertex 88.67213338062172 -108.74320878917234 0
vertex 88.52458982358775 -108.13086935888586 0
endloop
endfacet
facet normal 0 0 -1
outer loop
vertex 136.37189320000002 -40.6396643 0
vertex 88.52458982358775 -108.13086935888586 0
vertex 88.4749988 -107.50296059999987 0
endloop
endfacet
facet normal 0 0 -1
outer loop
vertex 136.37189320000002 -40.6396643 0
vertex 88.4749988 -107.50296059999987 0
vertex 88.475 -53.46061480000012 0
endloop
endfacet
facet normal 0 0 -1
outer loop
vertex 136.37189320000002 -40.6396643 0
vertex 88.475 -53.46061480000012 0
vertex 88.52883973226616 -52.8065070293574 0
endloop
endfacet
facet normal 0 0 -1
outer loop
vertex 136.37189320000002 -40.6396643 0
vertex 88.52883973226616 -52.8065070293574 0
vertex 88.68892473900952 -52.170006893622016 0
endloop
endfacet
facet normal 0 0 -1
outer loop
vertex 136.37189320000002 -40.6396643 0
vertex 88.68892473900952 -52.170006893622016 0
vertex 88.95094013531622 -51.5682531530658 0
endloop
endfacet
facet normal 0 0 -1
outer loop
vertex 136.37189320000002 -40.6396643 0
vertex 88.95094013531622 -51.5682531530658 0
vertex 89.30783181770249 -51.01744650893533 0
endloop
endfacet
facet normal 0 0 -1
outer loop
vertex 136.37189320000002 -40.6396643 0
vertex 89.30783181770249 -51.01744650893533 0
vertex 89.7499913780543 -50.53241604044415 0
endloop
endfacet
facet normal 0 0 -1
outer loop
vertex 136.37189320000002 -40.6396643 0
vertex 89.7499913780543 -50.53241604044415 0
vertex 90.26551478577248 -50.1262199692303 0
endloop
endfacet
facet normal 0 0 -1
outer loop
vertex 136.37189320000002 -40.6396643 0
vertex 90.26551478577248 -50.1262199692303 0
vertex 90.84052287376458 -49.80979409968263 0
endloop
endfacet
facet normal 0 0 -1
outer loop
vertex 136.37189320000002 -40.6396643 0
vertex 90.84052287376458 -49.80979409968263 0
vertex 91.45953500000009 -49.59165739999996 0
endloop
endfacet
facet normal 0 0 -1
outer loop
vertex 136.37189320000002 -40.6396643 0
vertex 91.45953500000009 -49.59165739999996 0
vertex 107.35403899999966 -45.41987160000008 0
endloop
endfacet
facet normal 0 0 -1
outer loop
vertex 136.37189320000002 -40.6396643 0
vertex 107.35403899999966 -45.41987160000008 0
vertex 107.52582188153487 -45.37881392957736 0
endloop
endfacet
facet normal 0 0 -1
outer loop
vertex 136.37189320000002 -40.6396643 0
vertex 107.52582188153487 -45.37881392957736 0
vertex 107.69925450000058 -45.34537579999989 0
endloop
endfacet
facet normal 0 0 -1
outer loop
vertex 136.37189320000002 -40.6396643 0
vertex 107.69925450000058 -45.34537579999989 0
vertex 135.22213639999995 -40.6673686 0
endloop
endfacet
facet normal 0 0 -1
outer loop
vertex 136.37189320000002 -40.6396643 0
vertex 135.22213639999995 -40.6673686 0
vertex 135.60390496479874 -40.621229147913766 0
endloop
endfacet
facet normal 0 0 -1
outer loop
vertex 136.37189320000002 -40.6396643 0
vertex 135.60390496479874 -40.621229147913766 0
vertex 135.98834267167828 -40.611967280671415 0
endloop
endfacet
facet normal 0 0 -1
outer loop
vertex 208.37560342967274 -111.16300054999999 0
vertex 208.3698023356095 -111.21347113797056 0
vertex 155.01420909778201 -111.21347113797056 0
endloop
endfacet
facet normal 0 0 -1
outer loop
vertex 208.37560342967274 -111.16300054999999 0
vertex 155.01420909778201 -111.21347113797056 0
vertex 154.3584377999997 -111.16300054999999 0
endloop
endfacet
facet normal 0 0 -1
outer loop
vertex 208.3698023356095 -111.21347113797056 0
vertex 208.35172797974522 -111.37072136658597 0
vertex 155.65284486317972 -111.37072136658597 0
endloop
endfacet
facet normal 0 0 -1
outer loop
vertex 208.3698023356095 -111.21347113797056 0
vertex 155.65284486317972 -111.37072136658597 0
vertex 155.01420909778201 -111.21347113797056 0
endloop
endfacet
facet normal 0 0 -1
outer loop
vertex 154.3584377999997 -111.16300054999999 0
vertex 92.49697759999975 -111.50290119999998 0
vertex 91.8688070228761 -111.45676062242292 0
endloop
endfacet
facet normal 0 0 -1
outer loop
vertex 154.3584377999997 -111.16300054999999 0
vertex 91.8688070228761 -111.45676062242292 0
vertex 91.25566609969091 -111.31258403825706 0
endloop
endfacet
facet normal 0 0 -1
outer loop
vertex 154.3584377999997 -111.16300054999999 0
vertex 91.25566609969091 -111.31258403825706 0
vertex 90.89028776225507 -111.16300054999999 0
endloop
endfacet
facet normal 0 0 -1
outer loop
vertex 208.35172797974522 -111.37072136658597 0
vertex 208.32186902858345 -111.63049974716327 0
vertex 156.25707864925036 -111.63049974716327 0
endloop
endfacet
facet normal 0 0 -1
outer loop
vertex 208.35172797974522 -111.37072136658597 0
vertex 156.25707864925036 -111.63049974716327 0
vertex 155.65284486317972 -111.37072136658597 0
endloop
endfacet
facet normal 0 0 -1
outer loop
vertex 208.32186902858345 -111.63049974716327 0
vertex 208.2810327623048 -111.98578279328322 0
vertex 156.810574116607 -111.98578279328322 0
endloop
endfacet
facet normal 0 0 -1
outer loop
vertex 208.32186902858345 -111.63049974716327 0
vertex 156.810574116607 -111.98578279328322 0
vertex 156.25707864925036 -111.63049974716327 0
endloop
endfacet
facet normal 0 0 -1
outer loop
vertex 208.2810327623048 -111.98578279328322 0
vertex 208.23032324877266 -112.42696491096274 0
vertex 157.29836671011827 -112.42696491096274 0
endloop
endfacet
facet normal 0 0 -1
outer loop
vertex 208.2810327623048 -111.98578279328322 0
vertex 157.29836671011827 -112.42696491096274 0
vertex 156.810574116607 -111.98578279328322 0
endloop
endfacet
facet normal 0 0 -1
outer loop
vertex 208.23032324877266 -112.42696491096274 0
vertex 208.17111149345268 -112.94211809986169 0
vertex 157.7072682474255 -112.94211809986169 0
endloop
endfacet
facet normal 0 0 -1
outer loop
vertex 208.23032324877266 -112.42696491096274 0
vertex 157.7072682474255 -112.94211809986169 0
vertex 157.29836671011827 -112.42696491096274 0
endloop
endfacet
facet normal 0 0 -1
outer loop
vertex 208.17111149345268 -112.94211809986169 0
vertex 208.1049983722855 -113.5173144441229 0
vertex 158.026223480637 -113.5173144441229 0
endloop
endfacet
facet normal 0 0 -1
outer loop
vertex 208.17111149345268 -112.94211809986169 0
vertex 158.026223480637 -113.5173144441229 0
vertex 157.7072682474255 -112.94211809986169 0
endloop
endfacet
facet normal 0 0 -1
outer loop
vertex 208.1049983722855 -113.5173144441229 0
vertex 208.03377134967673 -114.13700267384023 0
vertex 158.24660899103813 -114.13700267384023 0
endloop
endfacet
facet normal 0 0 -1
outer loop
vertex 208.1049983722855 -113.5173144441229 0
vertex 158.24660899103813 -114.13700267384023 0
vertex 158.026223480637 -113.5173144441229 0
endloop
endfacet
facet normal 0 0 -1
outer loop
vertex 208.03377134967673 -114.13700267384023 0
vertex 207.95935615179684 -114.78442861626017 0
vertex 158.3624663357596 -114.78442861626017 0
endloop
endfacet
facet normal 0 0 -1
outer loop
vertex 208.03377134967673 -114.13700267384023 0
vertex 158.3624663357596 -114.78442861626017 0
vertex 158.24660899103813 -114.13700267384023 0
endloop
endfacet
facet normal 0 0 -1
outer loop
vertex 207.95935615179684 -114.78442861626017 0
vertex 207.88726090000006 -115.41167059999916 0
vertex 158.37028403045997 -115.41167059999916 0
endloop
endfacet
facet normal 0 0 -1
outer loop
vertex 207.95935615179684 -114.78442861626017 0
vertex 158.37028403045997 -115.41167059999916 0
vertex 158.3624663357596 -114.78442861626017 0
endloop
endfacet
facet normal 0 0 -1
outer loop
vertex 207.88726090000006 -115.41167059999916 0
vertex 207.88608748037987 -115.4420881692182 0
vertex 158.37066314294898 -115.4420881692182 0
endloop
endfacet
facet normal 0 0 -1
outer loop
vertex 207.88726090000006 -115.41167059999916 0
vertex 158.37066314294898 -115.4420881692182 0
vertex 158.37028403045997 -115.41167059999916 0
endloop
endfacet
facet normal 0 0 -1
outer loop
vertex 207.88608748037987 -115.4420881692182 0
vertex 207.8638845426475 -116.01763623720225 0
vertex 158.28240928730366 -116.01763623720225 0
endloop
endfacet
facet normal 0 0 -1
outer loop
vertex 207.88608748037987 -115.4420881692182 0
vertex 158.28240928730366 -116.01763623720225 0
vertex 158.37066314294898 -115.4420881692182 0
endloop
endfacet
facet normal 0 0 -1
outer loop
vertex 207.8638845426475 -116.01763623720225 0
vertex 207.87236034491164 -116.09220110000028 0
vertex 158.27097559999996 -116.09220110000028 0
endloop
endfacet
facet normal 0 0 -1
outer loop
vertex 207.8638845426475 -116.01763623720225 0
vertex 158.27097559999996 -116.09220110000028 0
vertex 158.28240928730366 -116.01763623720225 0
endloop
endfacet
facet normal 0 0 -1
outer loop
vertex 207.87236034491164 -116.09220110000028 0
vertex 207.93237500176718 -116.62017290902187 0
vertex 158.14486977676896 -116.62017290902187 0
endloop
endfacet
facet normal 0 0 -1
outer loop
vertex 207.87236034491164 -116.09220110000028 0
vertex 158.14486977676896 -116.62017290902187 0
vertex 158.27097559999996 -116.09220110000028 0
endloop
endfacet
facet normal 0 0 -1
outer loop
vertex 207.93237500176718 -116.62017290902187 0
vertex 208.09116265384537 -117.20543171111342 0
vertex 158.00508098164806 -117.20543171111342 0
endloop
endfacet
facet normal 0 0 -1
outer loop
vertex 207.93237500176718 -116.62017290902187 0
vertex 158.00508098164806 -117.20543171111342 0
vertex 158.14486977676896 -116.62017290902187 0
endloop
endfacet
facet normal 0 0 -1
outer loop
vertex 208.09116265384537 -117.20543171111342 0
vertex 208.33659794944978 -117.75996115086377 0
vertex 157.87263188055852 -117.75996115086377 0
endloop
endfacet
facet normal 0 0 -1
outer loop
vertex 208.09116265384537 -117.20543171111342 0
vertex 157.87263188055852 -117.75996115086377 0
vertex 158.00508098164806 -117.20543171111342 0
endloop
endfacet
facet normal 0 0 -1
outer loop
vertex 208.33659794944978 -117.75996115086377 0
vertex 208.66303984387633 -118.27101601429887 0
vertex 157.7505666619835 -118.27101601429887 0
endloop
endfacet
facet normal 0 0 -1
outer loop
vertex 208.33659794944978 -117.75996115086377 0
vertex 157.7505666619835 -118.27101601429887 0
vertex 157.87263188055852 -117.75996115086377 0
endloop
endfacet
facet normal 0 0 -1
outer loop
vertex 208.66303984387633 -118.27101601429887 0
vertex 209.06298545000027 -118.72685030000025 0
vertex 157.6416908529478 -118.72685030000025 0
endloop
endfacet
facet normal 0 0 -1
outer loop
vertex 208.66303984387633 -118.27101601429887 0
vertex 157.6416908529478 -118.72685030000025 0
vertex 157.7505666619835 -118.27101601429887 0
endloop
endfacet
facet normal 0 0 -1
outer loop
vertex 209.06298545000027 -118.72685030000025 0
vertex 232.80858950000015 -141.97136740000013 0
vertex 233.23215257518422 -142.45896211645612 0
endloop
endfacet
facet normal 0 0 -1
outer loop
vertex 209.06298545000027 -118.72685030000025 0
vertex 233.23215257518422 -142.45896211645612 0
vertex 233.57172304870434 -143.00837435856175 0
endloop
endfacet
facet normal 0 0 -1
outer loop
vertex 209.06298545000027 -118.72685030000025 0
vertex 233.57172304870434 -143.00837435856175 0
vertex 233.81844267867768 -143.60527580976432 0
endloop
endfacet
facet normal 0 0 -1
outer loop
vertex 209.06298545000027 -118.72685030000025 0
vertex 233.81844267867768 -143.60527580976432 0
vertex 233.96587883797233 -144.23410368541414 0
endloop
endfacet
facet normal 0 0 -1
outer loop
vertex 209.06298545000027 -118.72685030000025 0
vertex 233.96587883797233 -144.23410368541414 0
vertex 234.01018747964875 -144.87846279533238 0
endloop
endfacet
facet normal 0 0 -1
outer loop
vertex 209.06298545000027 -118.72685030000025 0
vertex 234.01018747964875 -144.87846279533238 0
vertex 233.9502133613346 -145.5215530093729 0
endloop
endfacet
facet normal 0 0 -1
outer loop
vertex 209.06298545000027 -118.72685030000025 0
vertex 233.9502133613346 -145.5215530093729 0
vertex 233.78752016541998 -146.14660728082865 0
endloop
endfacet
facet normal 0 0 -1
outer loop
vertex 209.06298545000027 -118.72685030000025 0
vertex 233.78752016541998 -146.14660728082865 0
vertex 233.52634972976122 -146.73732880726806 0
endloop
endfacet
facet normal 0 0 -1
outer loop
vertex 209.06298545000027 -118.72685030000025 0
vertex 233.52634972976122 -146.73732880726806 0
vertex 233.17351145185305 -147.27831593087262 0
endloop
endfacet
facet normal 0 0 -1
outer loop
vertex 209.06298545000027 -118.72685030000025 0
vertex 233.17351145185305 -147.27831593087262 0
vertex 232.73820475000045 -147.75546369999955 0
endloop
endfacet
facet normal 0 0 -1
outer loop
vertex 209.06298545000027 -118.72685030000025 0
vertex 232.73820475000045 -147.75546369999955 0
vertex 214.2228244999996 -165.01808040000031 0
endloop
endfacet
facet normal 0 0 -1
outer loop
vertex 209.06298545000027 -118.72685030000025 0
vertex 214.2228244999996 -165.01808040000031 0
vertex 213.70363581456627 -165.42743508029892 0
endloop
endfacet
facet normal 0 0 -1
outer loop
vertex 209.06298545000027 -118.72685030000025 0
vertex 213.70363581456627 -165.42743508029892 0
vertex 213.12411233800674 -165.74567150083456 0
endloop
endfacet
facet normal 0 0 -1
outer loop
vertex 209.06298545000027 -118.72685030000025 0
vertex 213.12411233800674 -165.74567150083456 0
vertex 212.50008446976727 -165.9641002052204 0
endloop
endfacet
facet normal 0 0 -1
outer loop
vertex 209.06298545000027 -118.72685030000025 0
vertex 212.50008446976727 -165.9641002052204 0
vertex 211.848600724502 -166.07675369559755 0
endloop
endfacet
facet normal 0 0 -1
outer loop
vertex 209.06298545000027 -118.72685030000025 0
vertex 211.848600724502 -166.07675369559755 0
vertex 211.18745971464966 -166.0805542653775 0
endloop
endfacet
facet normal 0 0 -1
outer loop
vertex 209.06298545000027 -118.72685030000025 0
vertex 211.18745971464966 -166.0805542653775 0
vertex 210.5347238902523 -165.97539808254743 0
endloop
endfacet
facet normal 0 0 -1
outer loop
vertex 209.06298545000027 -118.72685030000025 0
vertex 210.5347238902523 -165.97539808254743 0
vertex 209.90822607069768 -165.7641580263731 0
endloop
endfacet
facet normal 0 0 -1
outer loop
vertex 209.06298545000027 -118.72685030000025 0
vertex 209.90822607069768 -165.7641580263731 0
vertex 209.32508225000007 -165.45260520000005 0
endloop
endfacet
facet normal 0 0 -1
outer loop
vertex 209.06298545000027 -118.72685030000025 0
vertex 209.32508225000007 -165.45260520000005 0
vertex 157.25771109999977 -131.82736119999987 0
endloop
endfacet
facet normal 0 0 -1
outer loop
vertex 209.06298545000027 -118.72685030000025 0
vertex 157.25771109999977 -131.82736119999987 0
vertex 156.76802986072283 -131.45478473924965 0
endloop
endfacet
facet normal 0 0 -1
outer loop
vertex 209.06298545000027 -118.72685030000025 0
vertex 156.76802986072283 -131.45478473924965 0
vertex 156.34128036268623 -131.01151313828385 0
endloop
endfacet
facet normal 0 0 -1
outer loop
vertex 209.06298545000027 -118.72685030000025 0
vertex 156.34128036268623 -131.01151313828385 0
vertex 155.98756514514767 -130.5080348456251 0
endloop
endfacet
facet normal 0 0 -1
outer loop
vertex 209.06298545000027 -118.72685030000025 0
vertex 155.98756514514767 -130.5080348456251 0
vertex 155.71525410157994 -129.9562635688735 0
endloop
endfacet
facet normal 0 0 -1
outer loop
vertex 209.06298545000027 -118.72685030000025 0
vertex 155.71525410157994 -129.9562635688735 0
vertex 155.53079087453293 -129.36925576299353 0
endloop
endfacet
facet normal 0 0 -1
outer loop
vertex 209.06298545000027 -118.72685030000025 0
vertex 155.53079087453293 -129.36925576299353 0
vertex 155.43854038098914 -128.76090167799208 0
endloop
endfacet
facet normal 0 0 -1
outer loop
vertex 209.06298545000027 -118.72685030000025 0
vertex 155.43854038098914 -128.76090167799208 0
vertex 155.44068552619424 -128.1455966766721 0
endloop
endfacet
facet normal 0 0 -1
outer loop
vertex 209.06298545000027 -118.72685030000025 0
vertex 155.44068552619424 -128.1455966766721 0
vertex 155.53717554999997 -127.5379006000001 0
endloop
endfacet
facet normal 0 0 -1
outer loop
vertex 209.06298545000027 -118.72685030000025 0
vertex 155.53717554999997 -127.5379006000001 0
vertex 157.6416908529478 -118.72685030000025 0
endloop
endfacet
facet normal 0 0 1
outer loop
vertex 211.84860072450226 -166.07675369559752 1
vertex 212.50008446976727 -165.96410020522043 1
vertex 213.12411233800654 -165.74567150083467 1
endloop
endfacet
facet normal 0 0 1
outer loop
vertex 211.84860072450226 -166.07675369559752 1
vertex 213.12411233800654 -165.74567150083467 1
vertex 213.70363581456627 -165.42743508029892 1
endloop
endfacet
facet normal 0 0 1
outer loop
vertex 211.84860072450226 -166.07675369559752 1
vertex 213.70363581456627 -165.42743508029892 1
vertex 214.22282449999977 -165.0180804000002 1
endloop
endfacet
facet normal 0 0 1
outer loop
vertex 211.84860072450226 -166.07675369559752 1
vertex 214.22282449999977 -165.0180804000002 1
vertex 232.73820475000073 -147.75546369999927 1
endloop
endfacet
facet normal 0 0 1
outer loop
vertex 211.84860072450226 -166.07675369559752 1
vertex 232.73820475000073 -147.75546369999927 1
vertex 233.17351145185316 -147.27831593087254 1
endloop
endfacet
facet normal 0 0 1
outer loop
vertex 211.84860072450226 -166.07675369559752 1
vertex 233.17351145185316 -147.27831593087254 1
vertex 233.52634972976102 -146.73732880726845 1
endloop
endfacet
facet normal 0 0 1
outer loop
vertex 211.84860072450226 -166.07675369559752 1
vertex 233.52634972976102 -146.73732880726845 1
vertex 233.78752016542 -146.14660728082856 1
endloop
endfacet
facet normal 0 0 1
outer loop
vertex 211.84860072450226 -166.07675369559752 1
vertex 233.78752016542 -146.14660728082856 1
vertex 233.9502133613346 -145.5215530093728 1
endloop
endfacet
facet normal 0 0 1
outer loop
vertex 211.84860072450226 -166.07675369559752 1
vertex 233.9502133613346 -145.5215530093728 1
vertex 234.01018747964875 -144.87846279533244 1
endloop
endfacet
facet normal 0 0 1
outer loop
vertex 211.84860072450226 -166.07675369559752 1
vertex 234.01018747964875 -144.87846279533244 1
vertex 233.96587883797233 -144.2341036854142 1
endloop
endfacet
facet normal 0 0 1
outer loop
vertex 211.84860072450226 -166.07675369559752 1
vertex 233.96587883797233 -144.2341036854142 1
vertex 233.8184426786776 -143.60527580976404 1
endloop
endfacet
facet normal 0 0 1
outer loop
vertex 211.84860072450226 -166.07675369559752 1
vertex 233.8184426786776 -143.60527580976404 1
vertex 233.57172304870446 -143.00837435856192 1
endloop
endfacet
facet normal 0 0 1
outer loop
vertex 211.84860072450226 -166.07675369559752 1
vertex 233.57172304870446 -143.00837435856192 1
vertex 233.23215257518427 -142.45896211645626 1
endloop
endfacet
facet normal 0 0 1
outer loop
vertex 211.84860072450226 -166.07675369559752 1
vertex 233.23215257518427 -142.45896211645626 1
vertex 232.8085894999997 -141.97136739999968 1
endloop
endfacet
facet normal 0 0 1
outer loop
vertex 211.84860072450226 -166.07675369559752 1
vertex 232.8085894999997 -141.97136739999968 1
vertex 209.06298545000007 -118.72685030000004 1
endloop
endfacet
facet normal 0 0 1
outer loop
vertex 211.84860072450226 -166.07675369559752 1
vertex 209.06298545000007 -118.72685030000004 1
vertex 157.64169085294787 -118.72685030000004 1
endloop
endfacet
facet normal 0 0 1
outer loop
vertex 211.84860072450226 -166.07675369559752 1
vertex 157.64169085294787 -118.72685030000004 1
vertex 155.53717554999997 -127.53790060000013 1
endloop
endfacet
facet normal 0 0 1
outer loop
vertex 211.84860072450226 -166.07675369559752 1
vertex 155.53717554999997 -127.53790060000013 1
vertex 155.44068552619422 -128.14559667667223 1
endloop
endfacet
facet normal 0 0 1
outer loop
vertex 211.84860072450226 -166.07675369559752 1
vertex 155.44068552619422 -128.14559667667223 1
vertex 155.4385403809891 -128.76090167799182 1
endloop
endfacet
facet normal 0 0 1
outer loop
vertex 211.84860072450226 -166.07675369559752 1
vertex 155.4385403809891 -128.76090167799182 1
vertex 155.53079087453293 -129.36925576299348 1
endloop
endfacet
facet normal 0 0 1
outer loop
vertex 211.84860072450226 -166.07675369559752 1
vertex 155.53079087453293 -129.36925576299348 1
vertex 155.71525410157997 -129.95626356887354 1
endloop
endfacet
facet normal 0 0 1
outer loop
vertex 211.84860072450226 -166.07675369559752 1
vertex 155.71525410157997 -129.95626356887354 1
vertex 155.9875651451477 -130.50803484562516 1
endloop
endfacet
facet normal 0 0 1
outer loop
vertex 211.84860072450226 -166.07675369559752 1
vertex 155.9875651451477 -130.50803484562516 1
vertex 156.34128036268615 -131.0115131382838 1
endloop
endfacet
facet normal 0 0 1
outer loop
vertex 211.84860072450226 -166.07675369559752 1
vertex 156.34128036268615 -131.0115131382838 1
vertex 156.76802986072272 -131.45478473924953 1
endloop
endfacet
facet normal 0 0 1
outer loop
vertex 211.84860072450226 -166.07675369559752 1
vertex 156.76802986072272 -131.45478473924953 1
vertex 157.2577110999999 -131.82736119999996 1
endloop
endfacet
facet normal 0 0 1
outer loop
vertex 211.84860072450226 -166.07675369559752 1
vertex 157.2577110999999 -131.82736119999996 1
vertex 209.32508225000004 -165.45260520000002 1
endloop
endfacet
facet normal 0 0 1
outer loop
vertex 211.84860072450226 -166.07675369559752 1
vertex 209.32508225000004 -165.45260520000002 1
vertex 209.9082260706976 -165.76415802637305 1
endloop
endfacet
facet normal 0 0 1
outer loop
vertex 211.84860072450226 -166.07675369559752 1
vertex 209.9082260706976 -165.76415802637305 1
vertex 210.53472389025228 -165.9753980825474 1
endloop
endfacet
facet normal 0 0 1
outer loop
vertex 211.84860072450226 -166.07675369559752 1
vertex 210.53472389025228 -165.9753980825474 1
vertex 211.18745971464972 -166.08055426537746 1
endloop
endfacet
facet normal 0 0 1
outer loop
vertex 209.06298545000007 -118.72685030000004 1
vertex 208.66303984387636 -118.27101601429891 1
vertex 157.75056666198353 -118.27101601429891 1
endloop
endfacet
facet normal 0 0 1
outer loop
vertex 209.06298545000007 -118.72685030000004 1
vertex 157.75056666198353 -118.27101601429891 1
vertex 157.64169085294787 -118.72685030000004 1
endloop
endfacet
facet normal 0 0 1
outer loop
vertex 208.66303984387636 -118.27101601429891 1
vertex 208.33659794944967 -117.7599611508636 1
vertex 157.8726318805586 -117.7599611508636 1
endloop
endfacet
facet normal 0 0 1
outer loop
vertex 208.66303984387636 -118.27101601429891 1
vertex 157.8726318805586 -117.7599611508636 1
vertex 157.75056666198353 -118.27101601429891 1
endloop
endfacet
facet normal 0 0 1
outer loop
vertex 208.33659794944967 -117.7599611508636 1
vertex 208.09116265384534 -117.20543171111343 1
vertex 158.00508098164812 -117.20543171111343 1
endloop
endfacet
facet normal 0 0 1
outer loop
vertex 208.33659794944967 -117.7599611508636 1
vertex 158.00508098164812 -117.20543171111343 1
vertex 157.8726318805586 -117.7599611508636 1
endloop
endfacet
facet normal 0 0 1
outer loop
vertex 208.09116265384534 -117.20543171111343 1
vertex 207.9323750017672 -116.62017290902207 1
vertex 158.14486977676896 -116.62017290902207 1
endloop
endfacet
facet normal 0 0 1
outer loop
vertex 208.09116265384534 -117.20543171111343 1
vertex 158.14486977676896 -116.62017290902207 1
vertex 158.00508098164812 -117.20543171111343 1
endloop
endfacet
facet normal 0 0 1
outer loop
vertex 207.9323750017672 -116.62017290902207 1
vertex 207.87236034491164 -116.09220110000034 1
vertex 158.27097559999996 -116.09220110000034 1
endloop
endfacet
facet normal 0 0 1
outer loop
vertex 207.9323750017672 -116.62017290902207 1
vertex 158.27097559999996 -116.09220110000034 1
vertex 158.14486977676896 -116.62017290902207 1
endloop
endfacet
facet normal 0 0 1
outer loop
vertex 207.87236034491164 -116.09220110000034 1
vertex 207.8638845426475 -116.01763623720221 1
vertex 158.2824092873037 -116.01763623720221 1
endloop
endfacet
facet normal 0 0 1
outer loop
vertex 207.87236034491164 -116.09220110000034 1
vertex 158.2824092873037 -116.01763623720221 1
vertex 158.27097559999996 -116.09220110000034 1
endloop
endfacet
facet normal 0 0 1
outer loop
vertex 207.8638845426475 -116.01763623720221 1
vertex 207.88608748037984 -115.44208816921834 1
vertex 158.37066314294898 -115.44208816921834 1
endloop
endfacet
facet normal 0 0 1
outer loop
vertex 207.8638845426475 -116.01763623720221 1
vertex 158.37066314294898 -115.44208816921834 1
vertex 158.2824092873037 -116.01763623720221 1
endloop
endfacet
facet normal 0 0 1
outer loop
vertex 207.88608748037984 -115.44208816921834 1
vertex 207.88726090000003 -115.41167059999957 1
vertex 158.37028403045994 -115.41167059999957 1
endloop
endfacet
facet normal 0 0 1
outer loop
vertex 207.88608748037984 -115.44208816921834 1
vertex 158.37028403045994 -115.41167059999957 1
vertex 158.37066314294898 -115.44208816921834 1
endloop
endfacet
facet normal 0 0 1
outer loop
vertex 207.88726090000003 -115.41167059999957 1
vertex 207.9593561517968 -114.78442861626013 1
vertex 158.3624663357596 -114.78442861626013 1
endloop
endfacet
facet normal 0 0 1
outer loop
vertex 207.88726090000003 -115.41167059999957 1
vertex 158.3624663357596 -114.78442861626013 1
vertex 158.37028403045994 -115.41167059999957 1
endloop
endfacet
facet normal 0 0 1
outer loop
vertex 207.9593561517968 -114.78442861626013 1
vertex 208.0337713496767 -114.13700267384027 1
vertex 158.24660899103816 -114.13700267384027 1
endloop
endfacet
facet normal 0 0 1
outer loop
vertex 207.9593561517968 -114.78442861626013 1
vertex 158.24660899103816 -114.13700267384027 1
vertex 158.3624663357596 -114.78442861626013 1
endloop
endfacet
facet normal 0 0 1
outer loop
vertex 208.0337713496767 -114.13700267384027 1
vertex 208.10499837228548 -113.51731444412297 1
vertex 158.02622348063701 -113.51731444412297 1
endloop
endfacet
facet normal 0 0 1
outer loop
vertex 208.0337713496767 -114.13700267384027 1
vertex 158.02622348063701 -113.51731444412297 1
vertex 158.24660899103816 -114.13700267384027 1
endloop
endfacet
facet normal 0 0 1
outer loop
vertex 208.10499837228548 -113.51731444412297 1
vertex 208.17111149345268 -112.94211809986164 1
vertex 157.70726824742547 -112.94211809986164 1
endloop
endfacet
facet normal 0 0 1
outer loop
vertex 208.10499837228548 -113.51731444412297 1
vertex 157.70726824742547 -112.94211809986164 1
vertex 158.02622348063701 -113.51731444412297 1
endloop
endfacet
facet normal 0 0 1
outer loop
vertex 208.17111149345268 -112.94211809986164 1
vertex 208.23032324877263 -112.4269649109628 1
vertex 157.29836671011833 -112.4269649109628 1
endloop
endfacet
facet normal 0 0 1
outer loop
vertex 208.17111149345268 -112.94211809986164 1
vertex 157.29836671011833 -112.4269649109628 1
vertex 157.70726824742547 -112.94211809986164 1
endloop
endfacet
facet normal 0 0 1
outer loop
vertex 208.23032324877263 -112.4269649109628 1
vertex 208.28103276230476 -111.98578279328325 1
vertex 156.81057411660703 -111.98578279328325 1
endloop
endfacet
facet normal 0 0 1
outer loop
vertex 208.23032324877263 -112.4269649109628 1
vertex 156.81057411660703 -111.98578279328325 1
vertex 157.29836671011833 -112.4269649109628 1
endloop
endfacet
facet normal 0 0 1
outer loop
vertex 208.28103276230476 -111.98578279328325 1
vertex 208.32186902858345 -111.63049974716321 1
vertex 156.25707864925027 -111.63049974716321 1
endloop
endfacet
facet normal 0 0 1
outer loop
vertex 208.28103276230476 -111.98578279328325 1
vertex 156.25707864925027 -111.63049974716321 1
vertex 156.81057411660703 -111.98578279328325 1
endloop
endfacet
facet normal 0 0 1
outer loop
vertex 208.32186902858345 -111.63049974716321 1
vertex 208.35172797974522 -111.37072136658595 1
vertex 155.6528448631797 -111.37072136658595 1
endloop
endfacet
facet normal 0 0 1
outer loop
vertex 208.32186902858345 -111.63049974716321 1
vertex 155.6528448631797 -111.37072136658595 1
vertex 156.25707864925027 -111.63049974716321 1
endloop
endfacet
facet normal 0 0 1
outer loop
vertex 208.35172797974522 -111.37072136658595 1
vertex 208.3698023356095 -111.21347113797054 1
vertex 155.0142090977819 -111.21347113797054 1
endloop
endfacet
facet normal 0 0 1
outer loop
vertex 208.35172797974522 -111.37072136658595 1
vertex 155.0142090977819 -111.21347113797054 1
vertex 155.6528448631797 -111.37072136658595 1
endloop
endfacet
facet normal 0 0 1
outer loop
vertex 154.35843779999973 -111.16300054999999 1
vertex 90.89028776225507 -111.16300054999999 1
vertex 91.25566609969093 -111.31258403825706 1
endloop
endfacet
facet normal 0 0 1
outer loop
vertex 154.35843779999973 -111.16300054999999 1
vertex 91.25566609969093 -111.31258403825706 1
vertex 91.86880702287607 -111.4567606224229 1
endloop
endfacet
facet normal 0 0 1
outer loop
vertex 154.35843779999973 -111.16300054999999 1
vertex 91.86880702287607 -111.4567606224229 1
vertex 92.49697759999984 -111.50290119999998 1
endloop
endfacet
facet normal 0 0 1
outer loop
vertex 208.3698023356095 -111.21347113797054 1
vertex 208.37560342967274 -111.16300054999999 1
vertex 154.35843779999973 -111.16300054999999 1
endloop
endfacet
facet normal 0 0 1
outer loop
vertex 208.3698023356095 -111.21347113797054 1
vertex 154.35843779999973 -111.16300054999999 1
vertex 155.0142090977819 -111.21347113797054 1
endloop
endfacet
facet normal 0 0 1
outer loop
vertex 154.35843779999973 -111.16300054999999 1
vertex 208.37560342967274 -111.16300054999999 1
vertex 214.93084995 -54.131147149999855 1
endloop
endfacet
facet normal 0 0 1
outer loop
vertex 154.35843779999973 -111.16300054999999 1
vertex 214.93084995 -54.131147149999855 1
vertex 214.94994323485398 -53.43669968610018 1
endloop
endfacet
facet normal 0 0 1
outer loop
vertex 154.35843779999973 -111.16300054999999 1
vertex 214.94994323485398 -53.43669968610018 1
vertex 214.84859429355606 -52.749422285234104 1
endloop
endfacet
facet normal 0 0 1
outer loop
vertex 154.35843779999973 -111.16300054999999 1
vertex 214.84859429355606 -52.749422285234104 1
vertex 214.62986020184925 -52.090045889866246 1
endloop
endfacet
facet normal 0 0 1
outer loop
vertex 154.35843779999973 -111.16300054999999 1
vertex 214.62986020184925 -52.090045889866246 1
vertex 214.30033882525962 -51.47845984030816 1
endloop
endfacet
facet normal 0 0 1
outer loop
vertex 154.35843779999973 -111.16300054999999 1
vertex 214.30033882525962 -51.47845984030816 1
vertex 213.86996980197458 -50.933111935352215 1
endloop
endfacet
facet normal 0 0 1
outer loop
vertex 154.35843779999973 -111.16300054999999 1
vertex 213.86996980197458 -50.933111935352215 1
vertex 213.35173472494137 -50.47045197536436 1
endloop
endfacet
facet normal 0 0 1
outer loop
vertex 154.35843779999973 -111.16300054999999 1
vertex 213.35173472494137 -50.47045197536436 1
vertex 212.76126556685637 -50.1044355727352 1
endloop
endfacet
facet normal 0 0 1
outer loop
vertex 154.35843779999973 -111.16300054999999 1
vertex 212.76126556685637 -50.1044355727352 1
vertex 212.1163731594558 -49.84610319667573 1
endloop
endfacet
facet normal 0 0 1
outer loop
vertex 154.35843779999973 -111.16300054999999 1
vertex 212.1163731594558 -49.84610319667573 1
vertex 211.43650989999995 -49.703244299999994 1
endloop
endfacet
facet normal 0 0 1
outer loop
vertex 154.35843779999973 -111.16300054999999 1
vertex 211.43650989999995 -49.703244299999994 1
vertex 136.37189320000007 -40.63966430000001 1
endloop
endfacet
facet normal 0 0 1
outer loop
vertex 154.35843779999973 -111.16300054999999 1
vertex 136.37189320000007 -40.63966430000001 1
vertex 135.9883426716782 -40.611967280671415 1
endloop
endfacet
facet normal 0 0 1
outer loop
vertex 154.35843779999973 -111.16300054999999 1
vertex 135.9883426716782 -40.611967280671415 1
vertex 135.60390496479872 -40.621229147913766 1
endloop
endfacet
facet normal 0 0 1
outer loop
vertex 154.35843779999973 -111.16300054999999 1
vertex 135.60390496479872 -40.621229147913766 1
vertex 135.2221364 -40.667368599999996 1
endloop
endfacet
facet normal 0 0 1
outer loop
vertex 154.35843779999973 -111.16300054999999 1
vertex 135.2221364 -40.667368599999996 1
vertex 107.6992545000003 -45.34537579999995 1
endloop
endfacet
facet normal 0 0 1
outer loop
vertex 154.35843779999973 -111.16300054999999 1
vertex 107.6992545000003 -45.34537579999995 1
vertex 107.52582188153482 -45.378813929577376 1
endloop
endfacet
facet normal 0 0 1
outer loop
vertex 154.35843779999973 -111.16300054999999 1
vertex 107.52582188153482 -45.378813929577376 1
vertex 107.35403899999926 -45.41987160000018 1
endloop
endfacet
facet normal 0 0 1
outer loop
vertex 154.35843779999973 -111.16300054999999 1
vertex 107.35403899999926 -45.41987160000018 1
vertex 91.45953499999989 -49.591657400000024 1
endloop
endfacet
facet normal 0 0 1
outer loop
vertex 154.35843779999973 -111.16300054999999 1
vertex 91.45953499999989 -49.591657400000024 1
vertex 90.84052287376451 -49.80979409968265 1
endloop
endfacet
facet normal 0 0 1
outer loop
vertex 154.35843779999973 -111.16300054999999 1
vertex 90.84052287376451 -49.80979409968265 1
vertex 90.2655147857725 -50.12621996923028 1
endloop
endfacet
facet normal 0 0 1
outer loop
vertex 154.35843779999973 -111.16300054999999 1
vertex 90.2655147857725 -50.12621996923028 1
vertex 89.74999137805429 -50.53241604044416 1
endloop
endfacet
facet normal 0 0 1
outer loop
vertex 154.35843779999973 -111.16300054999999 1
vertex 89.74999137805429 -50.53241604044416 1
vertex 89.30783181770256 -51.01744650893526 1
endloop
endfacet
facet normal 0 0 1
outer loop
vertex 154.35843779999973 -111.16300054999999 1
vertex 89.30783181770256 -51.01744650893526 1
vertex 88.95094013531619 -51.56825315306586 1
endloop
endfacet
facet normal 0 0 1
outer loop
vertex 154.35843779999973 -111.16300054999999 1
vertex 88.95094013531619 -51.56825315306586 1
vertex 88.68892473900952 -52.17000689362203 1
endloop
endfacet
facet normal 0 0 1
outer loop
vertex 154.35843779999973 -111.16300054999999 1
vertex 88.68892473900952 -52.17000689362203 1
vertex 88.52883973226616 -52.80650702935741 1
endloop
endfacet
facet normal 0 0 1
outer loop
vertex 154.35843779999973 -111.16300054999999 1
vertex 88.52883973226616 -52.80650702935741 1
vertex 88.475 -53.46061480000005 1
endloop
endfacet
facet normal 0 0 1
outer loop
vertex 154.35843779999973 -111.16300054999999 1
vertex 88.475 -53.46061480000005 1
vertex 88.4749988 -107.50296059999987 1
endloop
endfacet
facet normal 0 0 1
outer loop
vertex 154.35843779999973 -111.16300054999999 1
vertex 88.4749988 -107.50296059999987 1
vertex 88.52458982358775 -108.13086935888582 1
endloop
endfacet
facet normal 0 0 1
outer loop
vertex 154.35843779999973 -111.16300054999999 1
vertex 88.52458982358775 -108.13086935888582 1
vertex 88.67213338062172 -108.74320878917234 1
endloop
endfacet
facet normal 0 0 1
outer loop
vertex 154.35843779999973 -111.16300054999999 1
vertex 88.67213338062172 -108.74320878917234 1
vertex 88.91397104857117 -109.32479560252585 1
endloop
endfacet
facet normal 0 0 1
outer loop
vertex 154.35843779999973 -111.16300054999999 1
vertex 88.91397104857117 -109.32479560252585 1
vertex 89.24410633127583 -109.86120903843076 1
endloop
endfacet
facet normal 0 0 1
outer loop
vertex 154.35843779999973 -111.16300054999999 1
vertex 89.24410633127583 -109.86120903843076 1
vertex 89.65435334532125 -110.33914843476978 1
endloop
endfacet
facet normal 0 0 1
outer loop
vertex 154.35843779999973 -111.16300054999999 1
vertex 89.65435334532125 -110.33914843476978 1
vertex 90.13453979345786 -110.74676302495493 1
endloop
endfacet
facet normal 0 0 1
outer loop
vertex 154.35843779999973 -111.16300054999999 1
vertex 90.13453979345786 -110.74676302495493 1
vertex 90.67275919223002 -111.07394578411467 1
endloop
endfacet
facet normal 0 0 1
outer loop
vertex 154.35843779999973 -111.16300054999999 1
vertex 90.67275919223002 -111.07394578411467 1
vertex 90.89028776225507 -111.16300054999999 1
endloop
endfacet
facet normal -0.9968957466626515 -0.07873290472169006 0
outer loop
vertex 88.52458982358775 -108.13086935888582 1
vertex 88.4749988 -107.50296059999987 1
vertex 88.4749988 -107.50296059999987 0
endloop
endfacet
facet normal -0.9968957466626515 -0.07873290472169006 0
outer loop
vertex 88.52458982358775 -108.13086935888582 1
vertex 88.4749988 -107.50296059999987 0
vertex 88.52458982358775 -108.13086935888586 0
endloop
endfacet
facet normal -0.9721771912367665 -0.23424668373104382 0
outer loop
vertex 88.67213338062172 -108.74320878917234 1
vertex 88.52458982358775 -108.13086935888582 1
vertex 88.52458982358775 -108.13086935888586 0
endloop
endfacet
facet normal -0.9721771912367665 -0.23424668373104382 0
outer loop
vertex 88.67213338062172 -108.74320878917234 1
vertex 88.52458982358775 -108.13086935888586 0
vertex 88.67213338062172 -108.74320878917234 0
endloop
endfacet
facet normal -0.9233529750023636 -0.3839521891515719 0
outer loop
vertex 88.91397104857117 -109.32479560252585 1
vertex 88.67213338062172 -108.74320878917234 1
vertex 88.67213338062172 -108.74320878917234 0
endloop
endfacet
facet normal -0.9233529750023636 -0.3839521891515719 0
outer loop
vertex 88.91397104857117 -109.32479560252585 1
vertex 88.67213338062172 -108.74320878917234 0
vertex 88.91397104857113 -109.32479560252575 0
endloop
endfacet
facet normal -0.8516337208853696 -0.5241373917695058 0
outer loop
vertex 89.24410633127583 -109.86120903843076 1
vertex 88.91397104857117 -109.32479560252585 1
vertex 88.91397104857113 -109.32479560252575 0
endloop
endfacet
facet normal -0.8516337208853696 -0.5241373917695058 0
outer loop
vertex 89.24410633127583 -109.86120903843076 1
vertex 88.91397104857113 -109.32479560252575 0
vertex 89.24410633127589 -109.86120903843084 0
endloop
endfacet
facet normal -0.7587977466953459 -0.6513263234432229 0
outer loop
vertex 89.65435334532125 -110.33914843476978 1
vertex 89.24410633127583 -109.86120903843076 1
vertex 89.24410633127589 -109.86120903843084 0
endloop
endfacet
facet normal -0.7587977466953459 -0.6513263234432229 0
outer loop
vertex 89.65435334532125 -110.33914843476978 1
vertex 89.24410633127589 -109.86120903843084 0
vertex 89.6543533453212 -110.33914843476974 0
endloop
endfacet
facet normal -0.6471469707706207 -0.7623652656190532 0
outer loop
vertex 90.13453979345786 -110.74676302495493 1
vertex 89.65435334532125 -110.33914843476978 1
vertex 89.6543533453212 -110.33914843476974 0
endloop
endfacet
facet normal -0.6471469707706207 -0.7623652656190532 0
outer loop
vertex 90.13453979345786 -110.74676302495493 1
vertex 89.6543533453212 -110.33914843476974 0
vertex 90.1345397934578 -110.7467630249549 0
endloop
endfacet
facet normal -0.5194498346645561 -0.8545009474933105 0
outer loop
vertex 90.67275919223002 -111.07394578411467 1
vertex 90.13453979345786 -110.74676302495493 1
vertex 90.1345397934578 -110.7467630249549 0
endloop
endfacet
facet normal -0.5194498346645561 -0.8545009474933105 0
outer loop
vertex 90.67275919223002 -111.07394578411467 1
vertex 90.1345397934578 -110.7467630249549 0
vertex 90.67275919222996 -111.07394578411464 0
endloop
endfacet
facet normal 0 0 1
outer loop
vertex 91.25566609969093 -111.31258403825706 1
vertex 90.89028776225507 -111.16300054999999 1
vertex 90.67275919223002 -111.07394578411467 1
endloop
endfacet
facet normal 0 0 1
outer loop
vertex 91.25566609969093 -111.31258403825706 1
vertex 90.67275919223002 -111.07394578411467 1
vertex 90.67275919222996 -111.07394578411464 0
endloop
endfacet
facet normal 0 0 1
outer loop
vertex 91.25566609969093 -111.31258403825706 1
vertex 90.67275919222996 -111.07394578411464 0
vertex 90.89028776225507 -111.16300054999999 0
endloop
endfacet
facet normal 0 0 1
outer loop
vertex 91.25566609969093 -111.31258403825706 1
vertex 90.89028776225507 -111.16300054999999 0
vertex 91.25566609969091 -111.31258403825706 0
endloop
endfacet
facet normal -0.2289011285306941 -0.9734496768489755 0
outer loop
vertex 91.86880702287607 -111.4567606224229 1
vertex 91.25566609969093 -111.31258403825706 1
vertex 91.25566609969091 -111.31258403825706 0
endloop
endfacet
facet normal -0.2289011285306941 -0.9734496768489755 0
outer loop
vertex 91.86880702287607 -111.4567606224229 1
vertex 91.25566609969091 -111.31258403825706 0
vertex 91.8688070228761 -111.45676062242292 0
endloop
endfacet
facet normal -0.07325495794110284 -0.9973132462456554 0
outer loop
vertex 92.49697759999984 -111.50290119999998 1
vertex 91.86880702287607 -111.4567606224229 1
vertex 91.8688070228761 -111.45676062242292 0
endloop
endfacet
facet normal -0.07325495794110284 -0.9973132462456554 0
outer loop
vertex 92.49697759999984 -111.50290119999998 1
vertex 91.8688070228761 -111.45676062242292 0
vertex 92.49697759999975 -111.50290119999998 0
endloop
endfacet
facet normal 0.005494463244332337 -0.9999849053229037 0
outer loop
vertex 154.35843779999973 -111.16300054999999 1
vertex 92.49697759999984 -111.50290119999998 1
vertex 92.49697759999975 -111.50290119999998 0
endloop
endfacet
facet normal 0.005494463244332337 -0.9999849053229037 0
outer loop
vertex 154.35843779999973 -111.16300054999999 1
vertex 92.49697759999975 -111.50290119999998 0
vertex 154.3584377999997 -111.16300054999999 0
endloop
endfacet
facet normal -0.07673676770100708 -0.9970513870823319 0
outer loop
vertex 155.0142090977819 -111.21347113797054 1
vertex 154.35843779999973 -111.16300054999999 1
vertex 154.3584377999997 -111.16300054999999 0
endloop
endfacet
facet normal -0.07673676770100708 -0.9970513870823319 0
outer loop
vertex 155.0142090977819 -111.21347113797054 1
vertex 154.3584377999997 -111.16300054999999 0
vertex 155.01420909778201 -111.21347113797056 0
endloop
endfacet
facet normal -0.23908725357499358 -0.9709980871134437 0
outer loop
vertex 155.6528448631797 -111.37072136658595 1
vertex 155.0142090977819 -111.21347113797054 1
vertex 155.01420909778201 -111.21347113797056 0
endloop
endfacet
facet normal -0.23908725357499358 -0.9709980871134437 0
outer loop
vertex 155.6528448631797 -111.37072136658595 1
vertex 155.01420909778201 -111.21347113797056 0
vertex 155.65284486317972 -111.37072136658597 0
endloop
endfacet
facet normal -0.3949736677477203 -0.918692441345804 0
outer loop
vertex 156.25707864925027 -111.63049974716321 1
vertex 155.6528448631797 -111.37072136658595 1
vertex 155.65284486317972 -111.37072136658597 0
endloop
endfacet
facet normal -0.3949736677477203 -0.918692441345804 0
outer loop
vertex 156.25707864925027 -111.63049974716321 1
vertex 155.65284486317972 -111.37072136658597 0
vertex 156.25707864925036 -111.63049974716327 0
endloop
endfacet
facet normal -0.5401813942435926 -0.8415486090019092 0
outer loop
vertex 156.81057411660703 -111.98578279328325 1
vertex 156.25707864925027 -111.63049974716321 1
vertex 156.25707864925036 -111.63049974716327 0
endloop
endfacet
facet normal -0.5401813942435926 -0.8415486090019092 0
outer loop
vertex 156.81057411660703 -111.98578279328325 1
vertex 156.25707864925036 -111.63049974716327 0
vertex 156.810574116607 -111.98578279328322 0
endloop
endfacet
facet normal -0.670784530942675 -0.7416522858105513 0
outer loop
vertex 157.29836671011833 -112.4269649109628 1
vertex 156.81057411660703 -111.98578279328325 1
vertex 156.810574116607 -111.98578279328322 0
endloop
endfacet
facet normal -0.670784530942675 -0.7416522858105513 0
outer loop
vertex 157.29836671011833 -112.4269649109628 1
vertex 156.810574116607 -111.98578279328322 0
vertex 157.29836671011827 -112.42696491096274 0
endloop
endfacet
facet normal -0.7832520320555676 -0.6217043141886858 0
outer loop
vertex 157.70726824742547 -112.94211809986164 1
vertex 157.29836671011833 -112.4269649109628 1
vertex 157.29836671011827 -112.42696491096274 0
endloop
endfacet
facet normal -0.7832520320555676 -0.6217043141886858 0
outer loop
vertex 157.70726824742547 -112.94211809986164 1
vertex 157.29836671011827 -112.42696491096274 0
vertex 157.7072682474255 -112.94211809986169 0
endloop
endfacet
facet normal -0.8745431750829761 -0.4849476620376546 0
outer loop
vertex 158.02622348063701 -113.51731444412297 1
vertex 157.70726824742547 -112.94211809986164 1
vertex 157.7072682474255 -112.94211809986169 0
endloop
endfacet
facet normal -0.8745431750829761 -0.4849476620376546 0
outer loop
vertex 158.02622348063701 -113.51731444412297 1
vertex 157.7072682474255 -112.94211809986169 0
vertex 158.026223480637 -113.5173144441229 0
endloop
endfacet
facet normal -0.9421897711715931 -0.33507974438873644 0
outer loop
vertex 158.24660899103816 -114.13700267384027 1
vertex 158.02622348063701 -113.51731444412297 1
vertex 158.026223480637 -113.5173144441229 0
endloop
endfacet
facet normal -0.9421897711715931 -0.33507974438873644 0
outer loop
vertex 158.24660899103816 -114.13700267384027 1
vertex 158.026223480637 -113.5173144441229 0
vertex 158.24660899103813 -114.13700267384023 0
endloop
endfacet
facet normal -0.9843628961904818 -0.17615245840886457 0
outer loop
vertex 158.3624663357596 -114.78442861626013 1
vertex 158.24660899103816 -114.13700267384027 1
vertex 158.24660899103813 -114.13700267384023 0
endloop
endfacet
facet normal -0.9843628961904818 -0.17615245840886457 0
outer loop
vertex 158.3624663357596 -114.78442861626013 1
vertex 158.24660899103813 -114.13700267384023 0
vertex 158.3624663357596 -114.78442861626017 0
endloop
endfacet
facet normal 0 0 -1
outer loop
vertex 158.37066314294898 -115.44208816921834 1
vertex 158.37028403045994 -115.41167059999957 1
vertex 158.3624663357596 -114.78442861626013 1
endloop
endfacet
facet normal 0 0 -1
outer loop
vertex 158.37066314294898 -115.44208816921834 1
vertex 158.3624663357596 -114.78442861626013 1
vertex 158.3624663357596 -114.78442861626017 0
endloop
endfacet
facet normal 0 0 -1
outer loop
vertex 158.37066314294898 -115.44208816921834 1
vertex 158.3624663357596 -114.78442861626017 0
vertex 158.37028403045997 -115.41167059999916 0
endloop
endfacet
facet normal 0 0 -1
outer loop
vertex 158.37066314294898 -115.44208816921834 1
vertex 158.37028403045997 -115.41167059999916 0
vertex 158.37066314294898 -115.4420881692182 0
endloop
endfacet
facet normal 0 0 1
outer loop
vertex 158.27097559999996 -116.09220110000034 1
vertex 158.2824092873037 -116.01763623720221 1
vertex 158.37066314294898 -115.44208816921834 1
endloop
endfacet
facet normal 0 0 1
outer loop
vertex 158.27097559999996 -116.09220110000034 1
vertex 158.37066314294898 -115.44208816921834 1
vertex 158.37066314294898 -115.4420881692182 0
endloop
endfacet
facet normal 0 0 1
outer loop
vertex 158.27097559999996 -116.09220110000034 1
vertex 158.37066314294898 -115.4420881692182 0
vertex 158.28240928730366 -116.01763623720225 0
endloop
endfacet
facet normal 0 0 1
outer loop
vertex 158.27097559999996 -116.09220110000034 1
vertex 158.28240928730366 -116.01763623720225 0
vertex 158.27097559999996 -116.09220110000028 0
endloop
endfacet
facet normal 0 0 1
outer loop
vertex 155.53717554999997 -127.53790060000013 1
vertex 157.64169085294787 -118.72685030000004 1
vertex 157.75056666198353 -118.27101601429891 1
endloop
endfacet
facet normal 0 0 1
outer loop
vertex 155.53717554999997 -127.53790060000013 1
vertex 157.75056666198353 -118.27101601429891 1
vertex 157.8726318805586 -117.7599611508636 1
endloop
endfacet
facet normal 0 0 1
outer loop
vertex 155.53717554999997 -127.53790060000013 1
vertex 157.8726318805586 -117.7599611508636 1
vertex 158.00508098164812 -117.20543171111343 1
endloop
endfacet
facet normal 0 0 1
outer loop
vertex 155.53717554999997 -127.53790060000013 1
vertex 158.00508098164812 -117.20543171111343 1
vertex 158.14486977676896 -116.62017290902207 1
endloop
endfacet
facet normal 0 0 1
outer loop
vertex 155.53717554999997 -127.53790060000013 1
vertex 158.14486977676896 -116.62017290902207 1
vertex 158.27097559999996 -116.09220110000034 1
endloop
endfacet
facet normal 0 0 1
outer loop
vertex 155.53717554999997 -127.53790060000013 1
vertex 158.27097559999996 -116.09220110000034 1
vertex 158.27097559999996 -116.09220110000028 0
endloop
endfacet
facet normal 0 0 1
outer loop
vertex 155.53717554999997 -127.53790060000013 1
vertex 158.27097559999996 -116.09220110000028 0
vertex 158.14486977676896 -116.62017290902187 0
endloop
endfacet
facet normal 0 0 1
outer loop
vertex 155.53717554999997 -127.53790060000013 1
vertex 158.14486977676896 -116.62017290902187 0
vertex 158.00508098164806 -117.20543171111342 0
endloop
endfacet
facet normal 0 0 1
outer loop
vertex 155.53717554999997 -127.53790060000013 1
vertex 158.00508098164806 -117.20543171111342 0
vertex 157.87263188055852 -117.75996115086377 0
endloop
endfacet
facet normal 0 0 1
outer loop
vertex 155.53717554999997 -127.53790060000013 1
vertex 157.87263188055852 -117.75996115086377 0
vertex 157.7505666619835 -118.27101601429887 0
endloop
endfacet
facet normal 0 0 1
outer loop
vertex 155.53717554999997 -127.53790060000013 1
vertex 157.7505666619835 -118.27101601429887 0
vertex 157.6416908529478 -118.72685030000025 0
endloop
endfacet
facet normal 0 0 1
outer loop
vertex 155.53717554999997 -127.53790060000013 1
vertex 157.6416908529478 -118.72685030000025 0
vertex 155.53717554999997 -127.5379006000001 0
endloop
endfacet
facet normal -0.9876278956302109 0.15681562349791978 0
outer loop
vertex 155.44068552619422 -128.14559667667223 1
vertex 155.53717554999997 -127.53790060000013 1
vertex 155.53717554999997 -127.5379006000001 0
endloop
endfacet
facet normal -0.9876278956302109 0.15681562349791978 0
outer loop
vertex 155.44068552619422 -128.14559667667223 1
vertex 155.53717554999997 -127.5379006000001 0
vertex 155.44068552619424 -128.1455966766721 0
endloop
endfacet
facet normal -0.9999939228697435 0.0034862908056538804 0
outer loop
vertex 155.4385403809891 -128.76090167799182 1
vertex 155.44068552619422 -128.14559667667223 1
vertex 155.44068552619424 -128.1455966766721 0
endloop
endfacet
facet normal -0.9999939228697435 0.0034862908056538804 0
outer loop
vertex 155.4385403809891 -128.76090167799182 1
vertex 155.44068552619424 -128.1455966766721 0
vertex 155.43854038098914 -128.76090167799208 0
endloop
endfacet
facet normal -0.9886972910176549 -0.14992553729885577 0
outer loop
vertex 155.53079087453293 -129.36925576299348 1
vertex 155.4385403809891 -128.76090167799182 1
vertex 155.43854038098914 -128.76090167799208 0
endloop
endfacet
facet normal -0.9886972910176549 -0.14992553729885577 0
outer loop
vertex 155.53079087453293 -129.36925576299348 1
vertex 155.43854038098914 -128.76090167799208 0
vertex 155.53079087453293 -129.36925576299353 0
endloop
endfacet
facet normal -0.9540053100468171 -0.29978970696552665 0
outer loop
vertex 155.71525410157997 -129.95626356887354 1
vertex 155.53079087453293 -129.36925576299348 1
vertex 155.53079087453293 -129.36925576299353 0
endloop
endfacet
facet normal -0.9540053100468171 -0.29978970696552665 0
outer loop
vertex 155.71525410157997 -129.95626356887354 1
vertex 155.53079087453293 -129.36925576299353 0
vertex 155.71525410157994 -129.9562635688735 0
endloop
endfacet
facet normal -0.8967388894649363 -0.4425600118867416 0
outer loop
vertex 155.9875651451477 -130.50803484562516 1
vertex 155.71525410157997 -129.95626356887354 1
vertex 155.71525410157994 -129.9562635688735 0
endloop
endfacet
facet normal -0.8967388894649363 -0.4425600118867416 0
outer loop
vertex 155.9875651451477 -130.50803484562516 1
vertex 155.71525410157994 -129.9562635688735 0
vertex 155.98756514514767 -130.5080348456251 0
endloop
endfacet
facet normal -0.8182531132946836 -0.5748581064780748 0
outer loop
vertex 156.34128036268615 -131.0115131382838 1
vertex 155.9875651451477 -130.50803484562516 1
vertex 155.98756514514767 -130.5080348456251 0
endloop
endfacet
facet normal -0.8182531132946836 -0.5748581064780748 0
outer loop
vertex 156.34128036268615 -131.0115131382838 1
vertex 155.98756514514767 -130.5080348456251 0
vertex 156.34128036268623 -131.01151313828385 0
endloop
endfacet
facet normal -0.7204051749874296 -0.6935534470041447 0
outer loop
vertex 156.76802986072272 -131.45478473924953 1
vertex 156.34128036268615 -131.0115131382838 1
vertex 156.34128036268623 -131.01151313828385 0
endloop
endfacet
facet normal -0.7204051749874296 -0.6935534470041447 0
outer loop
vertex 156.76802986072272 -131.45478473924953 1
vertex 156.34128036268623 -131.01151313828385 0
vertex 156.76802986072283 -131.45478473924965 0
endloop
endfacet
facet normal -0.6055145337145538 -0.7958342474789877 0
outer loop
vertex 157.2577110999999 -131.82736119999996 1
vertex 156.76802986072272 -131.45478473924953 1
vertex 156.76802986072283 -131.45478473924965 0
endloop
endfacet
facet normal -0.6055145337145538 -0.7958342474789877 0
outer loop
vertex 157.2577110999999 -131.82736119999996 1
vertex 156.76802986072283 -131.45478473924965 0
vertex 157.25771109999977 -131.82736119999987 0
endloop
endfacet
facet normal -0.5425072165888201 -0.840051141270013 0
outer loop
vertex 209.32508225000004 -165.45260520000002 1
vertex 157.2577110999999 -131.82736119999996 1
vertex 157.25771109999977 -131.82736119999987 0
endloop
endfacet
facet normal -0.5425072165888201 -0.840051141270013 0
outer loop
vertex 209.32508225000004 -165.45260520000002 1
vertex 157.25771109999977 -131.82736119999987 0
vertex 209.32508225000007 -165.45260520000005 0
endloop
endfacet
facet normal -0.4712272785764996 -0.8820118207401679 0
outer loop
vertex 209.9082260706976 -165.76415802637305 1
vertex 209.32508225000004 -165.45260520000002 1
vertex 209.32508225000007 -165.45260520000005 0
endloop
endfacet
facet normal -0.4712272785764996 -0.8820118207401679 0
outer loop
vertex 209.9082260706976 -165.76415802637305 1
vertex 209.32508225000007 -165.45260520000005 0
vertex 209.90822607069768 -165.7641580263731 0
endloop
endfacet
facet normal -0.3195030452978076 -0.947585248959389 0
outer loop
vertex 210.53472389025228 -165.9753980825474 1
vertex 209.9082260706976 -165.76415802637305 1
vertex 209.90822607069768 -165.7641580263731 0
endloop
endfacet
facet normal -0.3195030452978076 -0.947585248959389 0
outer loop
vertex 210.53472389025228 -165.9753980825474 1
vertex 209.90822607069768 -165.7641580263731 0
vertex 210.5347238902523 -165.97539808254743 0
endloop
endfacet
facet normal -0.15904995129511681 -0.9872705368808599 0
outer loop
vertex 211.18745971464972 -166.08055426537746 1
vertex 210.53472389025228 -165.9753980825474 1
vertex 210.5347238902523 -165.97539808254743 0
endloop
endfacet
facet normal -0.15904995129511681 -0.9872705368808599 0
outer loop
vertex 211.18745971464972 -166.08055426537746 1
vertex 210.5347238902523 -165.97539808254743 0
vertex 211.18745971464966 -166.0805542653775 0
endloop
endfacet
facet normal 0.005748406057819011 -0.9999834777774053 0
outer loop
vertex 211.84860072450226 -166.07675369559752 1
vertex 211.18745971464972 -166.08055426537746 1
vertex 211.18745971464966 -166.0805542653775 0
endloop
endfacet
facet normal 0.005748406057819011 -0.9999834777774053 0
outer loop
vertex 211.84860072450226 -166.07675369559752 1
vertex 211.18745971464966 -166.0805542653775 0
vertex 211.848600724502 -166.07675369559755 0
endloop
endfacet
facet normal 0.17038971628196017 -0.9853767526105703 0
outer loop
vertex 212.50008446976727 -165.96410020522043 1
vertex 211.84860072450226 -166.07675369559752 1
vertex 211.848600724502 -166.07675369559755 0
endloop
endfacet
facet normal 0.17038971628196017 -0.9853767526105703 0
outer loop
vertex 212.50008446976727 -165.96410020522043 1
vertex 211.848600724502 -166.07675369559755 0
vertex 212.50008446976727 -165.9641002052204 0
endloop
endfacet
facet normal 0.3303759594446636 -0.9438494188275046 0
outer loop
vertex 213.12411233800654 -165.74567150083467 1
vertex 212.50008446976727 -165.96410020522043 1
vertex 212.50008446976727 -165.9641002052204 0
endloop
endfacet
facet normal 0.3303759594446636 -0.9438494188275046 0
outer loop
vertex 213.12411233800654 -165.74567150083467 1
vertex 212.50008446976727 -165.9641002052204 0
vertex 213.12411233800674 -165.74567150083456 0
endloop
endfacet
facet normal 0.4813362925918597 -0.8765360080646566 0
outer loop
vertex 213.70363581456627 -165.42743508029892 1
vertex 213.12411233800654 -165.74567150083467 1
vertex 213.12411233800674 -165.74567150083456 0
endloop
endfacet
facet normal 0.4813362925918597 -0.8765360080646566 0
outer loop
vertex 213.70363581456627 -165.42743508029892 1
vertex 213.12411233800674 -165.74567150083456 0
vertex 213.70363581456627 -165.42743508029892 0
endloop
endfacet
facet normal 0.6191492840221482 -0.7852733053497115 0
outer loop
vertex 214.22282449999977 -165.0180804000002 1
vertex 213.70363581456627 -165.42743508029892 1
vertex 213.70363581456627 -165.42743508029892 0
endloop
endfacet
facet normal 0.6191492840221482 -0.7852733053497115 0
outer loop
vertex 214.22282449999977 -165.0180804000002 1
vertex 213.70363581456627 -165.42743508029892 0
vertex 214.2228244999996 -165.01808040000031 0
endloop
endfacet
facet normal 0.6819295868994768 -0.7314178275863317 0
outer loop
vertex 232.73820475000073 -147.75546369999927 1
vertex 214.22282449999977 -165.0180804000002 1
vertex 214.2228244999996 -165.01808040000031 0
endloop
endfacet
facet normal 0.6819295868994768 -0.7314178275863317 0
outer loop
vertex 232.73820475000073 -147.75546369999927 1
vertex 214.2228244999996 -165.01808040000031 0
vertex 232.73820475000045 -147.75546369999955 0
endloop
endfacet
facet normal 0.7387552321407131 -0.673973817729384 0
outer loop
vertex 233.17351145185316 -147.27831593087254 1
vertex 232.73820475000073 -147.75546369999927 1
vertex 232.73820475000045 -147.75546369999955 0
endloop
endfacet
facet normal 0.7387552321407131 -0.673973817729384 0
outer loop
vertex 233.17351145185316 -147.27831593087254 1
vertex 232.73820475000045 -147.75546369999955 0
vertex 233.17351145185305 -147.27831593087262 0
endloop
endfacet
facet normal 0.8375960110086857 -0.5462901448336202 0
outer loop
vertex 233.52634972976102 -146.73732880726845 1
vertex 233.17351145185316 -147.27831593087254 1
vertex 233.17351145185305 -147.27831593087262 0
endloop
endfacet
facet normal 0.8375960110086857 -0.5462901448336202 0
outer loop
vertex 233.52634972976102 -146.73732880726845 1
vertex 233.17351145185305 -147.27831593087262 0
vertex 233.52634972976122 -146.73732880726806 0
endloop
endfacet
facet normal 0.9145984674590805 -0.40436325664123013 0
outer loop
vertex 233.78752016542 -146.14660728082856 1
vertex 233.52634972976102 -146.73732880726845 1
vertex 233.52634972976122 -146.73732880726806 0
endloop
endfacet
facet normal 0.9145984674590805 -0.40436325664123013 0
outer loop
vertex 233.78752016542 -146.14660728082856 1
vertex 233.52634972976122 -146.73732880726806 0
vertex 233.78752016541998 -146.14660728082865 0
endloop
endfacet
facet normal 0.9677549457141905 -0.25189355896037563 0
outer loop
vertex 233.9502133613346 -145.5215530093728 1
vertex 233.78752016542 -146.14660728082856 1
vertex 233.78752016541998 -146.14660728082865 0
endloop
endfacet
facet normal 0.9677549457141905 -0.25189355896037563 0
outer loop
vertex 233.9502133613346 -145.5215530093728 1
vertex 233.78752016541998 -146.14660728082865 0
vertex 233.9502133613346 -145.5215530093729 0
endloop
endfacet
facet normal 0.9956795171216845 -0.09285633626376477 0
outer loop
vertex 234.01018747964875 -144.87846279533244 1
vertex 233.9502133613346 -145.5215530093728 1
vertex 233.9502133613346 -145.5215530093729 0
endloop
endfacet
facet normal 0.9956795171216845 -0.09285633626376477 0
outer loop
vertex 234.01018747964875 -144.87846279533244 1
vertex 233.9502133613346 -145.5215530093729 0
vertex 234.01018747964875 -144.87846279533238 0
endloop
endfacet
facet normal 0.9976441149456553 0.06860189439294113 0
outer loop
vertex 233.96587883797233 -144.2341036854142 1
vertex 234.01018747964875 -144.87846279533244 1
vertex 234.01018747964875 -144.87846279533238 0
endloop
endfacet
facet normal 0.9976441149456553 0.06860189439294113 0
outer loop
vertex 233.96587883797233 -144.2341036854142 1
vertex 234.01018747964875 -144.87846279533238 0
vertex 233.96587883797233 -144.23410368541414 0
endloop
endfacet
facet normal 0.9735975169737858 0.22827149393316476 0
outer loop
vertex 233.8184426786776 -143.60527580976404 1
vertex 233.96587883797233 -144.2341036854142 1
vertex 233.96587883797233 -144.23410368541414 0
endloop
endfacet
facet normal 0.9735975169737858 0.22827149393316476 0
outer loop
vertex 233.8184426786776 -143.60527580976404 1
vertex 233.96587883797233 -144.23410368541414 0
vertex 233.81844267867768 -143.60527580976432 0
endloop
endfacet
facet normal 0.9241666810146687 0.38198945758009034 0
outer loop
vertex 233.57172304870446 -143.00837435856192 1
vertex 233.8184426786776 -143.60527580976404 1
vertex 233.81844267867768 -143.60527580976432 0
endloop
endfacet
facet normal 0.9241666810146687 0.38198945758009034 0
outer loop
vertex 233.57172304870446 -143.00837435856192 1
vertex 233.81844267867768 -143.60527580976432 0
vertex 233.57172304870434 -143.00837435856175 0
endloop
endfacet
facet normal 0.850640398465183 0.5257479552970178 0
outer loop
vertex 233.23215257518427 -142.45896211645626 1
vertex 233.57172304870446 -143.00837435856192 1
vertex 233.57172304870434 -143.00837435856175 0
endloop
endfacet
facet normal 0.850640398465183 0.5257479552970178 0
outer loop
vertex 233.23215257518427 -142.45896211645626 1
vertex 233.57172304870434 -143.00837435856175 0
vertex 233.23215257518422 -142.45896211645612 0
endloop
endfacet
facet normal 0.7549368694457421 0.655797471138356 0
outer loop
vertex 232.8085894999997 -141.97136739999968 1
vertex 233.23215257518427 -142.45896211645626 1
vertex 233.23215257518422 -142.45896211645612 0
endloop
endfacet
facet normal 0.7549368694457421 0.655797471138356 0
outer loop
vertex 232.8085894999997 -141.97136739999968 1
vertex 233.23215257518422 -142.45896211645612 0
vertex 232.80858950000015 -141.97136740000013 0
endloop
endfacet
facet normal 0.6995266589786908 0.7146065024739912 0
outer loop
vertex 209.06298545000007 -118.72685030000004 1
vertex 232.8085894999997 -141.97136739999968 1
vertex 232.80858950000015 -141.97136740000013 0
endloop
endfacet
facet normal 0.6995266589786908 0.7146065024739912 0
outer loop
vertex 209.06298545000007 -118.72685030000004 1
vertex 232.80858950000015 -141.97136740000013 0
vertex 209.06298545000027 -118.72685030000025 0
endloop
endfacet
facet normal 0.7516847415956162 0.6595225919195883 0
outer loop
vertex 208.66303984387636 -118.27101601429891 1
vertex 209.06298545000007 -118.72685030000004 1
vertex 209.06298545000027 -118.72685030000025 0
endloop
endfacet
facet normal 0.7516847415956162 0.6595225919195883 0
outer loop
vertex 208.66303984387636 -118.27101601429891 1
vertex 209.06298545000027 -118.72685030000025 0
vertex 208.66303984387633 -118.27101601429887 0
endloop
endfacet
facet normal 0.8427451708069341 0.538312713096757 0
outer loop
vertex 208.33659794944967 -117.7599611508636 1
vertex 208.66303984387636 -118.27101601429891 1
vertex 208.66303984387633 -118.27101601429887 0
endloop
endfacet
facet normal 0.8427451708069341 0.538312713096757 0
outer loop
vertex 208.33659794944967 -117.7599611508636 1
vertex 208.66303984387633 -118.27101601429887 0
vertex 208.33659794944978 -117.75996115086377 0
endloop
endfacet
facet normal 0.9144360828076171 0.40473034289445237 0
outer loop
vertex 208.09116265384534 -117.20543171111343 1
vertex 208.33659794944967 -117.7599611508636 1
vertex 208.33659794944978 -117.75996115086377 0
endloop
endfacet
facet normal 0.9144360828076171 0.40473034289445237 0
outer loop
vertex 208.09116265384534 -117.20543171111343 1
vertex 208.33659794944978 -117.75996115086377 0
vertex 208.09116265384537 -117.20543171111342 0
endloop
endfacet
facet normal 0.9651097453983748 0.26184571666743817 0
outer loop
vertex 207.9323750017672 -116.62017290902207 1
vertex 208.09116265384534 -117.20543171111343 1
vertex 208.09116265384537 -117.20543171111342 0
endloop
endfacet
facet normal 0.9651097453983748 0.26184571666743817 0
outer loop
vertex 207.9323750017672 -116.62017290902207 1
vertex 208.09116265384537 -117.20543171111342 0
vertex 207.93237500176718 -116.62017290902187 0
endloop
endfacet
facet normal 0 0 1
outer loop
vertex 207.8638845426475 -116.01763623720221 1
vertex 207.87236034491164 -116.09220110000034 1
vertex 207.9323750017672 -116.62017290902207 1
endloop
endfacet
facet normal 0 0 1
outer loop
vertex 207.8638845426475 -116.01763623720221 1
vertex 207.9323750017672 -116.62017290902207 1
vertex 207.93237500176718 -116.62017290902187 0
endloop
endfacet
facet normal 0 0 1
outer loop
vertex 207.8638845426475 -116.01763623720221 1
vertex 207.93237500176718 -116.62017290902187 0
vertex 207.87236034491164 -116.09220110000028 0
endloop
endfacet
facet normal 0 0 1
outer loop
vertex 207.8638845426475 -116.01763623720221 1
vertex 207.87236034491164 -116.09220110000028 0
vertex 207.8638845426475 -116.01763623720225 0
endloop
endfacet
facet normal 0 0 -1
outer loop
vertex 207.88726090000003 -115.41167059999957 1
vertex 207.88608748037984 -115.44208816921834 1
vertex 207.8638845426475 -116.01763623720221 1
endloop
endfacet
facet normal 0 0 -1
outer loop
vertex 207.88726090000003 -115.41167059999957 1
vertex 207.8638845426475 -116.01763623720221 1
vertex 207.8638845426475 -116.01763623720225 0
endloop
endfacet
facet normal 0 0 -1
outer loop
vertex 207.88726090000003 -115.41167059999957 1
vertex 207.8638845426475 -116.01763623720225 0
vertex 207.88608748037987 -115.4420881692182 0
endloop
endfacet
facet normal 0 0 -1
outer loop
vertex 207.88726090000003 -115.41167059999957 1
vertex 207.88608748037987 -115.4420881692182 0
vertex 207.88726090000006 -115.41167059999916 0
endloop
endfacet
facet normal 0 0 -1
outer loop
vertex 214.93084995 -54.131147149999855 1
vertex 208.37560342967274 -111.16300054999999 1
vertex 208.3698023356095 -111.21347113797054 1
endloop
endfacet
facet normal 0 0 -1
outer loop
vertex 214.93084995 -54.131147149999855 1
vertex 208.3698023356095 -111.21347113797054 1
vertex 208.35172797974522 -111.37072136658595 1
endloop
endfacet
facet normal 0 0 -1
outer loop
vertex 214.93084995 -54.131147149999855 1
vertex 208.35172797974522 -111.37072136658595 1
vertex 208.32186902858345 -111.63049974716321 1
endloop
endfacet
facet normal 0 0 -1
outer loop
vertex 214.93084995 -54.131147149999855 1
vertex 208.32186902858345 -111.63049974716321 1
vertex 208.28103276230476 -111.98578279328325 1
endloop
endfacet
facet normal 0 0 -1
outer loop
vertex 214.93084995 -54.131147149999855 1
vertex 208.28103276230476 -111.98578279328325 1
vertex 208.23032324877263 -112.4269649109628 1
endloop
endfacet
facet normal 0 0 -1
outer loop
vertex 214.93084995 -54.131147149999855 1
vertex 208.23032324877263 -112.4269649109628 1
vertex 208.17111149345268 -112.94211809986164 1
endloop
endfacet
facet normal 0 0 -1
outer loop
vertex 214.93084995 -54.131147149999855 1
vertex 208.17111149345268 -112.94211809986164 1
vertex 208.10499837228548 -113.51731444412297 1
endloop
endfacet
facet normal 0 0 -1
outer loop
vertex 214.93084995 -54.131147149999855 1
vertex 208.10499837228548 -113.51731444412297 1
vertex 208.0337713496767 -114.13700267384027 1
endloop
endfacet
facet normal 0 0 -1
outer loop
vertex 214.93084995 -54.131147149999855 1
vertex 208.0337713496767 -114.13700267384027 1
vertex 207.9593561517968 -114.78442861626013 1
endloop
endfacet
facet normal 0 0 -1
outer loop
vertex 214.93084995 -54.131147149999855 1
vertex 207.9593561517968 -114.78442861626013 1
vertex 207.88726090000003 -115.41167059999957 1
endloop
endfacet
facet normal 0 0 -1
outer loop
vertex 214.93084995 -54.131147149999855 1
vertex 207.88726090000003 -115.41167059999957 1
vertex 207.88726090000006 -115.41167059999916 0
endloop
endfacet
facet normal 0 0 -1
outer loop
vertex 214.93084995 -54.131147149999855 1
vertex 207.88726090000006 -115.41167059999916 0
vertex 207.95935615179684 -114.78442861626017 0
endloop
endfacet
facet normal 0 0 -1
outer loop
vertex 214.93084995 -54.131147149999855 1
vertex 207.95935615179684 -114.78442861626017 0
vertex 208.03377134967673 -114.13700267384023 0
endloop
endfacet
facet normal 0 0 -1
outer loop
vertex 214.93084995 -54.131147149999855 1
vertex 208.03377134967673 -114.13700267384023 0
vertex 208.1049983722855 -113.5173144441229 0
endloop
endfacet
facet normal 0 0 -1
outer loop
vertex 214.93084995 -54.131147149999855 1
vertex 208.1049983722855 -113.5173144441229 0
vertex 208.17111149345268 -112.94211809986169 0
endloop
endfacet
facet normal 0 0 -1
outer loop
vertex 214.93084995 -54.131147149999855 1
vertex 208.17111149345268 -112.94211809986169 0
vertex 208.23032324877266 -112.42696491096274 0
endloop
endfacet
facet normal 0 0 -1
outer loop
vertex 214.93084995 -54.131147149999855 1
vertex 208.23032324877266 -112.42696491096274 0
vertex 208.2810327623048 -111.98578279328322 0
endloop
endfacet
facet normal 0 0 -1
outer loop
vertex 214.93084995 -54.131147149999855 1
vertex 208.2810327623048 -111.98578279328322 0
vertex 208.32186902858345 -111.63049974716327 0
endloop
endfacet
facet normal 0 0 -1
outer loop
vertex 214.93084995 -54.131147149999855 1
vertex 208.32186902858345 -111.63049974716327 0
vertex 208.35172797974522 -111.37072136658597 0
endloop
endfacet
facet normal 0 0 -1
outer loop
vertex 214.93084995 -54.131147149999855 1
vertex 208.35172797974522 -111.37072136658597 0
vertex 208.3698023356095 -111.21347113797056 0
endloop
endfacet
facet normal 0 0 -1
outer loop
vertex 214.93084995 -54.131147149999855 1
vertex 208.3698023356095 -111.21347113797056 0
vertex 208.37560342967274 -111.16300054999999 0
endloop
endfacet
facet normal 0 0 -1
outer loop
vertex 214.93084995 -54.131147149999855 1
vertex 208.37560342967274 -111.16300054999999 0
vertex 214.93084995000004 -54.1311471499995 0
endloop
endfacet
facet normal 0.9996222483428499 -0.027483824660805567 0
outer loop
vertex 214.94994323485398 -53.43669968610018 1
vertex 214.93084995 -54.131147149999855 1
vertex 214.93084995000004 -54.1311471499995 0
endloop
endfacet
facet normal 0.9996222483428499 -0.027483824660805567 0
outer loop
vertex 214.94994323485398 -53.43669968610018 1
vertex 214.93084995000004 -54.1311471499995 0
vertex 214.94994323485398 -53.43669968610031 0
endloop
endfacet
facet normal 0.9893013026944576 0.1458867111393261 0
outer loop
vertex 214.84859429355606 -52.749422285234104 1
vertex 214.94994323485398 -53.43669968610018 1
vertex 214.94994323485398 -53.43669968610031 0
endloop
endfacet
facet normal 0.9893013026944576 0.1458867111393261 0
outer loop
vertex 214.84859429355606 -52.749422285234104 1
vertex 214.94994323485398 -53.43669968610031 0
vertex 214.84859429355603 -52.74942228523412 0
endloop
endfacet
facet normal 0.9491392065003057 0.3148567399373406 0
outer loop
vertex 214.62986020184925 -52.090045889866246 1
vertex 214.84859429355606 -52.749422285234104 1
vertex 214.84859429355603 -52.74942228523412 0
endloop
endfacet
facet normal 0.9491392065003057 0.3148567399373406 0
outer loop
vertex 214.62986020184925 -52.090045889866246 1
vertex 214.84859429355603 -52.74942228523412 0
vertex 214.6298602018492 -52.09004588986617 0
endloop
endfacet
facet normal 0.8803474037921657 0.47432947266261427 0
outer loop
vertex 214.30033882525962 -51.47845984030816 1
vertex 214.62986020184925 -52.090045889866246 1
vertex 214.6298602018492 -52.09004588986617 0
endloop
endfacet
facet normal 0.8803474037921657 0.47432947266261427 0
outer loop
vertex 214.30033882525962 -51.47845984030816 1
vertex 214.6298602018492 -52.09004588986617 0
vertex 214.3003388252596 -51.47845984030812 0
endloop
endfacet
facet normal 0.7850009211926803 0.6194945953974444 0
outer loop
vertex 213.86996980197458 -50.933111935352215 1
vertex 214.30033882525962 -51.47845984030816 1
vertex 214.3003388252596 -51.47845984030812 0
endloop
endfacet
facet normal 0.7850009211926803 0.6194945953974444 0
outer loop
vertex 213.86996980197458 -50.933111935352215 1
vertex 214.3003388252596 -51.47845984030812 0
vertex 213.8699698019746 -50.93311193535223 0
endloop
endfacet
facet normal 0.6659757770933359 0.745973367034593 0
outer loop
vertex 213.35173472494137 -50.47045197536436 1
vertex 213.86996980197458 -50.933111935352215 1
vertex 213.8699698019746 -50.93311193535223 0
endloop
endfacet
facet normal 0.6659757770933359 0.745973367034593 0
outer loop
vertex 213.35173472494137 -50.47045197536436 1
vertex 213.8699698019746 -50.93311193535223 0
vertex 213.3517347249414 -50.4704519753644 0
endloop
endfacet
facet normal 0.5268622298250407 0.8499506990312945 0
outer loop
vertex 212.76126556685637 -50.1044355727352 1
vertex 213.35173472494137 -50.47045197536436 1
vertex 213.3517347249414 -50.4704519753644 0
endloop
endfacet
facet normal 0.5268622298250407 0.8499506990312945 0
outer loop
vertex 212.76126556685637 -50.1044355727352 1
vertex 213.3517347249414 -50.4704519753644 0
vertex 212.7612655668563 -50.10443557273518 0
endloop
endfacet
facet normal 0.3718564815920618 0.9282902332234098 0
outer loop
vertex 212.1163731594558 -49.84610319667573 1
vertex 212.76126556685637 -50.1044355727352 1
vertex 212.7612655668563 -50.10443557273518 0
endloop
endfacet
facet normal 0.3718564815920618 0.9282902332234098 0
outer loop
vertex 212.1163731594558 -49.84610319667573 1
vertex 212.7612655668563 -50.10443557273518 0
vertex 212.1163731594558 -49.84610319667572 0
endloop
endfacet
facet normal 0.20563801926669711 0.9786281239735907 0
outer loop
vertex 211.43650989999995 -49.703244299999994 1
vertex 212.1163731594558 -49.84610319667573 1
vertex 212.1163731594558 -49.84610319667572 0
endloop
endfacet
facet normal 0.20563801926669711 0.9786281239735907 0
outer loop
vertex 211.43650989999995 -49.703244299999994 1
vertex 212.1163731594558 -49.84610319667572 0
vertex 211.43650990000003 -49.7032443 0
endloop
endfacet
facet normal 0.11987305056693742 0.9927892282593402 0
outer loop
vertex 136.37189320000007 -40.63966430000001 1
vertex 211.43650989999995 -49.703244299999994 1
vertex 211.43650990000003 -49.7032443 0
endloop
endfacet
facet normal 0.11987305056693742 0.9927892282593402 0
outer loop
vertex 136.37189320000007 -40.63966430000001 1
vertex 211.43650990000003 -49.7032443 0
vertex 136.37189320000002 -40.6396643 0
endloop
endfacet
facet normal 0.07202463319046615 0.9974028535219752 0
outer loop
vertex 135.9883426716782 -40.611967280671415 1
vertex 136.37189320000007 -40.63966430000001 1
vertex 136.37189320000002 -40.6396643 0
endloop
endfacet
facet normal 0.07202463319046615 0.9974028535219752 0
outer loop
vertex 135.9883426716782 -40.611967280671415 1
vertex 136.37189320000002 -40.6396643 0
vertex 135.98834267167828 -40.611967280671415 0
endloop
endfacet
facet normal -0.024084995676801668 0.9997099144168016 0
outer loop
vertex 135.60390496479872 -40.621229147913766 1
vertex 135.9883426716782 -40.611967280671415 1
vertex 135.98834267167828 -40.611967280671415 0
endloop
endfacet
facet normal -0.024084995676801668 0.9997099144168016 0
outer loop
vertex 135.60390496479872 -40.621229147913766 1
vertex 135.98834267167828 -40.611967280671415 0
vertex 135.60390496479874 -40.621229147913766 0
endloop
endfacet
facet normal -0.11998403396277976 0.9927758214189237 0
outer loop
vertex 135.2221364 -40.667368599999996 1
vertex 135.60390496479872 -40.621229147913766 1
vertex 135.60390496479874 -40.621229147913766 0
endloop
endfacet
facet normal -0.11998403396277976 0.9927758214189237 0
outer loop
vertex 135.2221364 -40.667368599999996 1
vertex 135.60390496479874 -40.621229147913766 0
vertex 135.22213639999995 -40.6673686 0
endloop
endfacet
facet normal -0.16756476310763424 0.9858610704174713 0
outer loop
vertex 107.6992545000003 -45.34537579999995 1
vertex 135.2221364 -40.667368599999996 1
vertex 135.22213639999995 -40.6673686 0
endloop
endfacet
facet normal -0.16756476310763424 0.9858610704174713 0
outer loop
vertex 107.6992545000003 -45.34537579999995 1
vertex 135.22213639999995 -40.6673686 0
vertex 107.69925450000058 -45.34537579999989 0
endloop
endfacet
facet normal -0.18931528849391546 0.9819163516015332 0
outer loop
vertex 107.52582188153482 -45.378813929577376 1
vertex 107.6992545000003 -45.34537579999995 1
vertex 107.69925450000058 -45.34537579999989 0
endloop
endfacet
facet normal -0.18931528849391546 0.9819163516015332 0
outer loop
vertex 107.52582188153482 -45.378813929577376 1
vertex 107.69925450000058 -45.34537579999989 0
vertex 107.52582188153487 -45.37881392957736 0
endloop
endfacet
facet normal -0.232461576075778 0.972605580720348 0
outer loop
vertex 107.35403899999926 -45.41987160000018 1
vertex 107.52582188153482 -45.378813929577376 1
vertex 107.52582188153487 -45.37881392957736 0
endloop
endfacet
facet normal -0.232461576075778 0.972605580720348 0
outer loop
vertex 107.35403899999926 -45.41987160000018 1
vertex 107.52582188153487 -45.37881392957736 0
vertex 107.35403899999966 -45.41987160000008 0
endloop
endfacet
facet normal -0.2538684388934196 0.9672387583910284 0
outer loop
vertex 91.45953499999989 -49.591657400000024 1
vertex 107.35403899999926 -45.41987160000018 1
vertex 107.35403899999966 -45.41987160000008 0
endloop
endfacet
facet normal -0.2538684388934196 0.9672387583910284 0
outer loop
vertex 91.45953499999989 -49.591657400000024 1
vertex 107.35403899999966 -45.41987160000008 0
vertex 91.45953500000009 -49.59165739999996 0
endloop
endfacet
facet normal -0.3323619049084806 0.9431519305846784 0
outer loop
vertex 90.84052287376451 -49.80979409968265 1
vertex 91.45953499999989 -49.591657400000024 1
vertex 91.45953500000009 -49.59165739999996 0
endloop
endfacet
facet normal -0.3323619049084806 0.9431519305846784 0
outer loop
vertex 90.84052287376451 -49.80979409968265 1
vertex 91.45953500000009 -49.59165739999996 0
vertex 90.84052287376458 -49.80979409968263 0
endloop
endfacet
facet normal -0.4821192624539639 0.876105596815159 0
outer loop
vertex 90.2655147857725 -50.12621996923028 1
vertex 90.84052287376451 -49.80979409968265 1
vertex 90.84052287376458 -49.80979409968263 0
endloop
endfacet
facet normal -0.4821192624539639 0.876105596815159 0
outer loop
vertex 90.2655147857725 -50.12621996923028 1
vertex 90.84052287376458 -49.80979409968263 0
vertex 90.26551478577248 -50.1262199692303 0
endloop
endfacet
facet normal -0.6188967752395231 0.7854723302562091 0
outer loop
vertex 89.74999137805429 -50.53241604044416 1
vertex 90.2655147857725 -50.12621996923028 1
vertex 90.26551478577248 -50.1262199692303 0
endloop
endfacet
facet normal -0.6188967752395231 0.7854723302562091 0
outer loop
vertex 89.74999137805429 -50.53241604044416 1
vertex 90.26551478577248 -50.1262199692303 0
vertex 89.7499913780543 -50.53241604044415 0
endloop
endfacet
facet normal -0.7390120538215152 0.6736922029432327 0
outer loop
vertex 89.30783181770256 -51.01744650893526 1
vertex 89.74999137805429 -50.53241604044416 1
vertex 89.7499913780543 -50.53241604044415 0
endloop
endfacet
facet normal -0.7390120538215152 0.6736922029432327 0
outer loop
vertex 89.30783181770256 -51.01744650893526 1
vertex 89.7499913780543 -50.53241604044415 0
vertex 89.30783181770249 -51.01744650893533 0
endloop
endfacet
facet normal -0.8392312973737084 0.5437746127840488 0
outer loop
vertex 88.95094013531619 -51.56825315306586 1
vertex 89.30783181770256 -51.01744650893526 1
vertex 89.30783181770249 -51.01744650893533 0
endloop
endfacet
facet normal -0.8392312973737084 0.5437746127840488 0
outer loop
vertex 88.95094013531619 -51.56825315306586 1
vertex 89.30783181770249 -51.01744650893533 0
vertex 88.95094013531622 -51.5682531530658 0
endloop
endfacet
facet normal -0.9168563556154912 0.39921726311305755 0
outer loop
vertex 88.68892473900952 -52.17000689362203 1
vertex 88.95094013531619 -51.56825315306586 1
vertex 88.95094013531622 -51.5682531530658 0
endloop
endfacet
facet normal -0.9168563556154912 0.39921726311305755 0
outer loop
vertex 88.68892473900952 -52.17000689362203 1
vertex 88.95094013531622 -51.5682531530658 0
vertex 88.68892473900952 -52.170006893622016 0
endloop
endfacet
facet normal -0.9697973697008794 0.2439119958535367 0
outer loop
vertex 88.52883973226616 -52.80650702935741 1
vertex 88.68892473900952 -52.17000689362203 1
vertex 88.68892473900952 -52.170006893622016 0
endloop
endfacet
facet normal -0.9697973697008794 0.2439119958535367 0
outer loop
vertex 88.52883973226616 -52.80650702935741 1
vertex 88.68892473900952 -52.170006893622016 0
vertex 88.52883973226616 -52.8065070293574 0
endloop
endfacet
facet normal -0.9966296325993214 0.0820327704331731 0
outer loop
vertex 88.475 -53.46061480000005 1
vertex 88.52883973226616 -52.80650702935741 1
vertex 88.52883973226616 -52.8065070293574 0
endloop
endfacet
facet normal -0.9966296325993214 0.0820327704331731 0
outer loop
vertex 88.475 -53.46061480000005 1
vertex 88.52883973226616 -52.8065070293574 0
vertex 88.475 -53.46061480000012 0
endloop
endfacet
facet normal -0.9999999999999998 2.220481576387101e-8 0
outer loop
vertex 88.4749988 -107.50296059999987 1
vertex 88.475 -53.46061480000005 1
vertex 88.475 -53.46061480000012 0
endloop
endfacet
facet normal -0.9999999999999998 2.220481576387101e-8 0
outer loop
vertex 88.4749988 -107.50296059999987 1
vertex 88.475 -53.46061480000012 0
vertex 88.4749988 -107.50296059999987 0
endloop
endfacet
endsolid csg.js
