solid csg.js
facet normal 0 0 -1
outer loop
vertex 136.3718932000001 -40.63966430000001 0
vertex 211.9167923 -49.76123539999999 0
vertex 212.5415499593575 -49.88783090262328 0
endloop
endfacet
facet normal 0 0 -1
outer loop
vertex 136.3718932000001 -40.63966430000001 0
vertex 212.5415499593575 -49.88783090262328 0
vertex 213.13825957548926 -50.11206752146589 0
endloop
endfacet
facet normal 0 0 -1
outer loop
vertex 136.3718932000001 -40.63966430000001 0
vertex 213.13825957548926 -50.11206752146589 0
vertex 213.69177064669657 -50.42824772525007 0
endloop
endfacet
facet normal 0 0 -1
outer loop
vertex 136.3718932000001 -40.63966430000001 0
vertex 213.69177064669657 -50.42824772525007 0
vertex 214.18802591428033 -50.82834163498812 0
endloop
endfacet
facet normal 0 0 -1
outer loop
vertex 136.3718932000001 -40.63966430000001 0
vertex 214.18802591428033 -50.82834163498812 0
vertex 214.61442221808676 -51.30218825501847 0
endloop
endfacet
facet normal 0 0 -1
outer loop
vertex 136.3718932000001 -40.63966430000001 0
vertex 214.61442221808676 -51.30218825501847 0
vertex 214.96013057300127 -51.8377535270035 0
endloop
endfacet
facet normal 0 0 -1
outer loop
vertex 136.3718932000001 -40.63966430000001 0
vertex 214.96013057300127 -51.8377535270035 0
vertex 215.21637118755746 -52.42143595321318 0
endloop
endfacet
facet normal 0 0 -1
outer loop
vertex 136.3718932000001 -40.63966430000001 0
vertex 215.21637118755746 -52.42143595321318 0
vertex 215.37663644014592 -53.03841202732537 0
endloop
endfacet
facet normal 0 0 -1
outer loop
vertex 136.3718932000001 -40.63966430000001 0
vertex 215.37663644014592 -53.03841202732537 0
vertex 215.43685615 -53.67301270000005 0
endloop
endfacet
facet normal 0 0 -1
outer loop
vertex 136.3718932000001 -40.63966430000001 0
vertex 215.43685615 -53.67301270000005 0
vertex 216.29037745012675 -111.16300054999999 0
endloop
endfacet
facet normal 0 0 -1
outer loop
vertex 136.3718932000001 -40.63966430000001 0
vertex 216.29037745012675 -111.16300054999999 0
vertex 154.3584377999997 -111.16300054999999 0
endloop
endfacet
facet normal 0 0 -1
outer loop
vertex 136.3718932000001 -40.63966430000001 0
vertex 154.3584377999997 -111.16300054999999 0
vertex 90.89028776225507 -111.16300054999999 0
endloop
endfacet
facet normal 0 0 -1
outer loop
vertex 136.3718932000001 -40.63966430000001 0
vertex 90.89028776225507 -111.16300054999999 0
vertex 90.67275919222996 -111.07394578411464 0
endloop
endfacet
facet normal 0 0 -1
outer loop
vertex 136.3718932000001 -40.63966430000001 0
vertex 90.67275919222996 -111.07394578411464 0
vertex 90.1345397934578 -110.7467630249549 0
endloop
endfacet
facet normal 0 0 -1
outer loop
vertex 136.3718932000001 -40.63966430000001 0
vertex 90.1345397934578 -110.7467630249549 0
vertex 89.6543533453212 -110.33914843476974 0
endloop
endfacet
facet normal 0 0 -1
outer loop
vertex 136.3718932000001 -40.63966430000001 0
vertex 89.6543533453212 -110.33914843476974 0
vertex 89.24410633127589 -109.86120903843084 0
endloop
endfacet
facet normal 0 0 -1
outer loop
vertex 136.3718932000001 -40.63966430000001 0
vertex 89.24410633127589 -109.86120903843084 0
vertex 88.91397104857113 -109.32479560252575 0
endloop
endfacet
facet normal 0 0 -1
outer loop
vertex 136.3718932000001 -40.63966430000001 0
vertex 88.91397104857113 -109.32479560252575 0
vertex 88.67213338062172 -108.74320878917234 0
endloop
endfacet
facet normal 0 0 -1
outer loop
vertex 136.3718932000001 -40.63966430000001 0
vertex 88.67213338062172 -108.74320878917234 0
vertex 88.52458982358775 -108.13086935888586 0
endloop
endfacet
facet normal 0 0 -1
outer loop
vertex 136.3718932000001 -40.63966430000001 0
vertex 88.52458982358775 -108.13086935888586 0
vertex 88.4749988 -107.50296059999987 0
endloop
endfacet
facet normal 0 0 -1
outer loop
vertex 136.3718932000001 -40.63966430000001 0
vertex 88.4749988 -107.50296059999987 0
vertex 88.475 -53.46061480000013 0
endloop
endfacet
facet normal 0 0 -1
outer loop
vertex 136.3718932000001 -40.63966430000001 0
vertex 88.475 -53.46061480000013 0
vertex 88.52883973226616 -52.806507029357405 0
endloop
endfacet
facet normal 0 0 -1
outer loop
vertex 136.3718932000001 -40.63966430000001 0
vertex 88.52883973226616 -52.806507029357405 0
vertex 88.68892473900952 -52.17000689362203 0
endloop
endfacet
facet normal 0 0 -1
outer loop
vertex 136.3718932000001 -40.63966430000001 0
vertex 88.68892473900952 -52.17000689362203 0
vertex 88.95094013531617 -51.56825315306589 0
endloop
endfacet
facet normal 0 0 -1
outer loop
vertex 136.3718932000001 -40.63966430000001 0
vertex 88.95094013531617 -51.56825315306589 0
vertex 89.30783181770254 -51.0174465089353 0
endloop
endfacet
facet normal 0 0 -1
outer loop
vertex 136.3718932000001 -40.63966430000001 0
vertex 89.30783181770254 -51.0174465089353 0
vertex 89.74999137805433 -50.532416040444126 0
endloop
endfacet
facet normal 0 0 -1
outer loop
vertex 136.3718932000001 -40.63966430000001 0
vertex 89.74999137805433 -50.532416040444126 0
vertex 90.26551478577251 -50.12621996923028 0
endloop
endfacet
facet normal 0 0 -1
outer loop
vertex 136.3718932000001 -40.63966430000001 0
vertex 90.26551478577251 -50.12621996923028 0
vertex 90.84052287376454 -49.80979409968264 0
endloop
endfacet
facet normal 0 0 -1
outer loop
vertex 136.3718932000001 -40.63966430000001 0
vertex 90.84052287376454 -49.80979409968264 0
vertex 91.45953500000005 -49.591657399999974 0
endloop
endfacet
facet normal 0 0 -1
outer loop
vertex 136.3718932000001 -40.63966430000001 0
vertex 91.45953500000005 -49.591657399999974 0
vertex 107.3540390000001 -45.419871599999965 0
endloop
endfacet
facet normal 0 0 -1
outer loop
vertex 136.3718932000001 -40.63966430000001 0
vertex 107.3540390000001 -45.419871599999965 0
vertex 107.52582188153468 -45.3788139295774 0
endloop
endfacet
facet normal 0 0 -1
outer loop
vertex 136.3718932000001 -40.63966430000001 0
vertex 107.52582188153468 -45.3788139295774 0
vertex 107.6992545000004 -45.34537579999993 0
endloop
endfacet
facet normal 0 0 -1
outer loop
vertex 136.3718932000001 -40.63966430000001 0
vertex 107.6992545000004 -45.34537579999993 0
vertex 135.2221364000002 -40.66736859999997 0
endloop
endfacet
facet normal 0 0 -1
outer loop
vertex 136.3718932000001 -40.63966430000001 0
vertex 135.2221364000002 -40.66736859999997 0
vertex 135.6039049647987 -40.621229147913766 0
endloop
endfacet
facet normal 0 0 -1
outer loop
vertex 136.3718932000001 -40.63966430000001 0
vertex 135.6039049647987 -40.621229147913766 0
vertex 135.98834267167823 -40.611967280671415 0
endloop
endfacet
facet normal 0 0 -1
outer loop
vertex 216.29037745012675 -111.16300054999999 0
vertex 216.2911267583711 -111.21347113797054 0
vertex 155.01420909778184 -111.21347113797054 0
endloop
endfacet
facet normal 0 0 -1
outer loop
vertex 216.29037745012675 -111.16300054999999 0
vertex 155.01420909778184 -111.21347113797054 0
vertex 154.3584377999997 -111.16300054999999 0
endloop
endfacet
facet normal 0 0 -1
outer loop
vertex 216.2911267583711 -111.21347113797054 0
vertex 216.29346136348394 -111.37072136658597 0
vertex 155.65284486317972 -111.37072136658597 0
endloop
endfacet
facet normal 0 0 -1
outer loop
vertex 216.2911267583711 -111.21347113797054 0
vertex 155.65284486317972 -111.37072136658597 0
vertex 155.01420909778184 -111.21347113797054 0
endloop
endfacet
facet normal 0 0 -1
outer loop
vertex 154.3584377999997 -111.16300054999999 0
vertex 92.49697759999974 -111.50290119999998 0
vertex 91.86880702287608 -111.45676062242292 0
endloop
endfacet
facet normal 0 0 -1
outer loop
vertex 154.3584377999997 -111.16300054999999 0
vertex 91.86880702287608 -111.45676062242292 0
vertex 91.25566609969091 -111.31258403825706 0
endloop
endfacet
facet normal 0 0 -1
outer loop
vertex 154.3584377999997 -111.16300054999999 0
vertex 91.25566609969091 -111.31258403825706 0
vertex 90.89028776225507 -111.16300054999999 0
endloop
endfacet
facet normal 0 0 -1
outer loop
vertex 216.29346136348394 -111.37072136658597 0
vertex 216.29731814601996 -111.63049974716323 0
vertex 156.25707864925027 -111.63049974716323 0
endloop
endfacet
facet normal 0 0 -1
outer loop
vertex 216.29346136348394 -111.37072136658597 0
vertex 156.25707864925027 -111.63049974716323 0
vertex 155.65284486317972 -111.37072136658597 0
endloop
endfacet
facet normal 0 0 -1
outer loop
vertex 216.29731814601996 -111.63049974716323 0
vertex 216.30259283225277 -111.98578279328325 0
vertex 156.81057411660703 -111.98578279328325 0
endloop
endfacet
facet normal 0 0 -1
outer loop
vertex 216.29731814601996 -111.63049974716323 0
vertex 156.81057411660703 -111.98578279328325 0
vertex 156.25707864925027 -111.63049974716323 0
endloop
endfacet
facet normal 0 0 -1
outer loop
vertex 216.30259283225277 -111.98578279328325 0
vertex 216.309142813367 -112.42696491096277 0
vertex 157.2983667101183 -112.42696491096277 0
endloop
endfacet
facet normal 0 0 -1
outer loop
vertex 216.30259283225277 -111.98578279328325 0
vertex 157.2983667101183 -112.42696491096277 0
vertex 156.81057411660703 -111.98578279328325 0
endloop
endfacet
facet normal 0 0 -1
outer loop
vertex 216.309142813367 -112.42696491096277 0
vertex 216.31679100109494 -112.9421180998617 0
vertex 157.7072682474255 -112.9421180998617 0
endloop
endfacet
facet normal 0 0 -1
outer loop
vertex 216.309142813367 -112.42696491096277 0
vertex 157.7072682474255 -112.9421180998617 0
vertex 157.2983667101183 -112.42696491096277 0
endloop
endfacet
facet normal 0 0 -1
outer loop
vertex 216.31679100109494 -112.9421180998617 0
vertex 216.32533061555552 -113.51731444412295 0
vertex 158.026223480637 -113.51731444412295 0
endloop
endfacet
facet normal 0 0 -1
outer loop
vertex 216.31679100109494 -112.9421180998617 0
vertex 158.026223480637 -113.51731444412295 0
vertex 157.7072682474255 -112.9421180998617 0
endloop
endfacet
facet normal 0 0 -1
outer loop
vertex 216.32533061555552 -113.51731444412295 0
vertex 216.3345307758492 -114.1370026738403 0
vertex 158.24660899103816 -114.1370026738403 0
endloop
endfacet
facet normal 0 0 -1
outer loop
vertex 216.32533061555552 -113.51731444412295 0
vertex 158.24660899103816 -114.1370026738403 0
vertex 158.026223480637 -113.51731444412295 0
endloop
endfacet
facet normal 0 0 -1
outer loop
vertex 216.3345307758492 -114.1370026738403 0
vertex 216.34414274225892 -114.7844286162601 0
vertex 158.3624663357596 -114.7844286162601 0
endloop
endfacet
facet normal 0 0 -1
outer loop
vertex 216.3345307758492 -114.1370026738403 0
vertex 158.3624663357596 -114.7844286162601 0
vertex 158.24660899103816 -114.1370026738403 0
endloop
endfacet
facet normal 0 0 -1
outer loop
vertex 216.34414274225892 -114.7844286162601 0
vertex 216.3539066412903 -115.4420881692182 0
vertex 158.37066314294898 -115.4420881692182 0
endloop
endfacet
facet normal 0 0 -1
outer loop
vertex 216.34414274225892 -114.7844286162601 0
vertex 158.37066314294898 -115.4420881692182 0
vertex 158.3624663357596 -114.7844286162601 0
endloop
endfacet
facet normal 0 0 -1
outer loop
vertex 216.3539066412903 -115.4420881692182 0
vertex 216.36355849989494 -116.09220110000028 0
vertex 158.27097559999996 -116.09220110000028 0
endloop
endfacet
facet normal 0 0 -1
outer loop
vertex 216.3539066412903 -115.4420881692182 0
vertex 158.27097559999996 -116.09220110000028 0
vertex 158.37066314294898 -115.4420881692182 0
endloop
endfacet
facet normal 0 0 -1
outer loop
vertex 216.36355849989494 -116.09220110000028 0
vertex 216.4689619 -123.19177809999998 0
vertex 156.57524490590146 -123.19177809999998 0
endloop
endfacet
facet normal 0 0 -1
outer loop
vertex 216.36355849989494 -116.09220110000028 0
vertex 156.57524490590146 -123.19177809999998 0
vertex 158.27097559999996 -116.09220110000028 0
endloop
endfacet
facet normal 0 0 -1
outer loop
vertex 216.4689619 -123.19177809999998 0
vertex 216.52269128368917 -123.7884757152057 0
vertex 156.43272395554064 -123.7884757152057 0
endloop
endfacet
facet normal 0 0 -1
outer loop
vertex 216.4689619 -123.19177809999998 0
vertex 156.43272395554064 -123.7884757152057 0
vertex 156.57524490590146 -123.19177809999998 0
endloop
endfacet
facet normal 0 0 -1
outer loop
vertex 216.52269128368917 -123.7884757152057 0
vertex 216.66494131587794 -124.37045918091586 0
vertex 156.29371747300476 -124.37045918091586 0
endloop
endfacet
facet normal 0 0 -1
outer loop
vertex 216.52269128368917 -123.7884757152057 0
vertex 156.29371747300476 -124.37045918091586 0
vertex 156.43272395554064 -123.7884757152057 0
endloop
endfacet
facet normal 0 0 -1
outer loop
vertex 216.66494131587794 -124.37045918091586 0
vertex 216.89251984645352 -124.92466838188494 0
vertex 156.1613448608005 -124.92466838188494 0
endloop
endfacet
facet normal 0 0 -1
outer loop
vertex 216.66494131587794 -124.37045918091586 0
vertex 156.1613448608005 -124.92466838188494 0
vertex 156.29371747300476 -124.37045918091586 0
endloop
endfacet
facet normal 0 0 -1
outer loop
vertex 216.89251984645352 -124.92466838188494 0
vertex 217.2003214380303 -125.43867033347722 0
vertex 156.03857573157754 -125.43867033347722 0
endloop
endfacet
facet normal 0 0 -1
outer loop
vertex 216.89251984645352 -124.92466838188494 0
vertex 156.03857573157754 -125.43867033347722 0
vertex 156.1613448608005 -124.92466838188494 0
endloop
endfacet
facet normal 0 0 -1
outer loop
vertex 217.2003214380303 -125.43867033347722 0
vertex 217.58144094999994 -125.90093404999992 0
vertex 155.92816425595362 -125.90093404999992 0
endloop
endfacet
facet normal 0 0 -1
outer loop
vertex 217.2003214380303 -125.43867033347722 0
vertex 155.92816425595362 -125.90093404999992 0
vertex 156.03857573157754 -125.43867033347722 0
endloop
endfacet
facet normal 0 0 -1
outer loop
vertex 217.58144094999994 -125.90093404999992 0
vertex 232.99293200000005 -141.97234610000004 0
vertex 233.39368205091392 -142.4626865323455 0
endloop
endfacet
facet normal 0 0 -1
outer loop
vertex 217.58144094999994 -125.90093404999992 0
vertex 233.39368205091392 -142.4626865323455 0
vertex 233.71202498564386 -143.01012694735468 0
endloop
endfacet
facet normal 0 0 -1
outer loop
vertex 217.58144094999994 -125.90093404999992 0
vertex 233.71202498564386 -143.01012694735468 0
vertex 233.93998067318793 -143.60094793258907 0
endloop
endfacet
facet normal 0 0 -1
outer loop
vertex 217.58144094999994 -125.90093404999992 0
vertex 233.93998067318793 -143.60094793258907 0
vertex 234.07183550066244 -144.22034080996946 0
endloop
endfacet
facet normal 0 0 -1
outer loop
vertex 217.58144094999994 -125.90093404999992 0
vertex 234.07183550066244 -144.22034080996946 0
vertex 234.10428458259048 -144.85278075902357 0
endloop
endfacet
facet normal 0 0 -1
outer loop
vertex 217.58144094999994 -125.90093404999992 0
vertex 234.10428458259048 -144.85278075902357 0
vertex 234.0365145964593 -145.4824159399477 0
endloop
endfacet
facet normal 0 0 -1
outer loop
vertex 217.58144094999994 -125.90093404999992 0
vertex 234.0365145964593 -145.4824159399477 0
vertex 233.870224168305 -146.09346481326463 0
endloop
endfacet
facet normal 0 0 -1
outer loop
vertex 217.58144094999994 -125.90093404999992 0
vertex 233.870224168305 -146.09346481326463 0
vertex 233.60958129736932 -146.67061169743496 0
endloop
endfacet
facet normal 0 0 -1
outer loop
vertex 217.58144094999994 -125.90093404999992 0
vertex 233.60958129736932 -146.67061169743496 0
vertex 233.26111888696101 -147.19939064993844 0
endloop
endfacet
facet normal 0 0 -1
outer loop
vertex 217.58144094999994 -125.90093404999992 0
vertex 233.26111888696101 -147.19939064993844 0
vertex 232.8335710000003 -147.6665480499997 0
endloop
endfacet
facet normal 0 0 -1
outer loop
vertex 217.58144094999994 -125.90093404999992 0
vertex 232.8335710000003 -147.6665480499997 0
vertex 214.22282449999972 -165.01808040000023 0
endloop
endfacet
facet normal 0 0 -1
outer loop
vertex 217.58144094999994 -125.90093404999992 0
vertex 214.22282449999972 -165.01808040000023 0
vertex 213.70363581456627 -165.42743508029892 0
endloop
endfacet
facet normal 0 0 -1
outer loop
vertex 217.58144094999994 -125.90093404999992 0
vertex 213.70363581456627 -165.42743508029892 0
vertex 213.12411233800674 -165.74567150083456 0
endloop
endfacet
facet normal 0 0 -1
outer loop
vertex 217.58144094999994 -125.90093404999992 0
vertex 213.12411233800674 -165.74567150083456 0
vertex 212.50008446976727 -165.9641002052204 0
endloop
endfacet
facet normal 0 0 -1
outer loop
vertex 217.58144094999994 -125.90093404999992 0
vertex 212.50008446976727 -165.9641002052204 0
vertex 211.848600724502 -166.07675369559755 0
endloop
endfacet
facet normal 0 0 -1
outer loop
vertex 217.58144094999994 -125.90093404999992 0
vertex 211.848600724502 -166.07675369559755 0
vertex 211.18745971464966 -166.0805542653775 0
endloop
endfacet
facet normal 0 0 -1
outer loop
vertex 217.58144094999994 -125.90093404999992 0
vertex 211.18745971464966 -166.0805542653775 0
vertex 210.5347238902523 -165.97539808254743 0
endloop
endfacet
facet normal 0 0 -1
outer loop
vertex 217.58144094999994 -125.90093404999992 0
vertex 210.5347238902523 -165.97539808254743 0
vertex 209.90822607069768 -165.7641580263731 0
endloop
endfacet
facet normal 0 0 -1
outer loop
vertex 217.58144094999994 -125.90093404999992 0
vertex 209.90822607069768 -165.7641580263731 0
vertex 209.32508225000007 -165.45260520000005 0
endloop
endfacet
facet normal 0 0 -1
outer loop
vertex 217.58144094999994 -125.90093404999992 0
vertex 209.32508225000007 -165.45260520000005 0
vertex 157.25771109999977 -131.82736119999987 0
endloop
endfacet
facet normal 0 0 -1
outer loop
vertex 217.58144094999994 -125.90093404999992 0
vertex 157.25771109999977 -131.82736119999987 0
vertex 156.76802986072283 -131.45478473924965 0
endloop
endfacet
facet normal 0 0 -1
outer loop
vertex 217.58144094999994 -125.90093404999992 0
vertex 156.76802986072283 -131.45478473924965 0
vertex 156.34128036268623 -131.01151313828385 0
endloop
endfacet
facet normal 0 0 -1
outer loop
vertex 217.58144094999994 -125.90093404999992 0
vertex 156.34128036268623 -131.01151313828385 0
vertex 155.98756514514767 -130.5080348456251 0
endloop
endfacet
facet normal 0 0 -1
outer loop
vertex 217.58144094999994 -125.90093404999992 0
vertex 155.98756514514767 -130.5080348456251 0
vertex 155.71525410157994 -129.9562635688735 0
endloop
endfacet
facet normal 0 0 -1
outer loop
vertex 217.58144094999994 -125.90093404999992 0
vertex 155.71525410157994 -129.9562635688735 0
vertex 155.53079087453293 -129.36925576299353 0
endloop
endfacet
facet normal 0 0 -1
outer loop
vertex 217.58144094999994 -125.90093404999992 0
vertex 155.53079087453293 -129.36925576299353 0
vertex 155.43854038098914 -128.76090167799208 0
endloop
endfacet
facet normal 0 0 -1
outer loop
vertex 217.58144094999994 -125.90093404999992 0
vertex 155.43854038098914 -128.76090167799208 0
vertex 155.44068552619424 -128.1455966766721 0
endloop
endfacet
facet normal 0 0 -1
outer loop
vertex 217.58144094999994 -125.90093404999992 0
vertex 155.44068552619424 -128.1455966766721 0
vertex 155.53717554999997 -127.5379006000001 0
endloop
endfacet
facet normal 0 0 -1
outer loop
vertex 217.58144094999994 -125.90093404999992 0
vertex 155.53717554999997 -127.5379006000001 0
vertex 155.92816425595362 -125.90093404999992 0
endloop
endfacet
facet normal 0 0 1
outer loop
vertex 211.8486007245023 -166.07675369559752 1
vertex 212.50008446976713 -165.96410020522046 1
vertex 213.12411233800674 -165.7456715008346 1
endloop
endfacet
facet normal 0 0 1
outer loop
vertex 211.8486007245023 -166.07675369559752 1
vertex 213.12411233800674 -165.7456715008346 1
vertex 213.7036358145662 -165.42743508029898 1
endloop
endfacet
facet normal 0 0 1
outer loop
vertex 211.8486007245023 -166.07675369559752 1
vertex 213.7036358145662 -165.42743508029898 1
vertex 214.22282449999958 -165.01808040000037 1
endloop
endfacet
facet normal 0 0 1
outer loop
vertex 211.8486007245023 -166.07675369559752 1
vertex 214.22282449999958 -165.01808040000037 1
vertex 232.83357100000057 -147.66654804999948 1
endloop
endfacet
facet normal 0 0 1
outer loop
vertex 211.8486007245023 -166.07675369559752 1
vertex 232.83357100000057 -147.66654804999948 1
vertex 233.26111888696104 -147.19939064993844 1
endloop
endfacet
facet normal 0 0 1
outer loop
vertex 211.8486007245023 -166.07675369559752 1
vertex 233.26111888696104 -147.19939064993844 1
vertex 233.6095812973691 -146.67061169743533 1
endloop
endfacet
facet normal 0 0 1
outer loop
vertex 211.8486007245023 -166.07675369559752 1
vertex 233.6095812973691 -146.67061169743533 1
vertex 233.87022416830501 -146.09346481326443 1
endloop
endfacet
facet normal 0 0 1
outer loop
vertex 211.8486007245023 -166.07675369559752 1
vertex 233.87022416830501 -146.09346481326443 1
vertex 234.03651459645934 -145.48241593994754 1
endloop
endfacet
facet normal 0 0 1
outer loop
vertex 211.8486007245023 -166.07675369559752 1
vertex 234.03651459645934 -145.48241593994754 1
vertex 234.10428458259048 -144.8527807590233 1
endloop
endfacet
facet normal 0 0 1
outer loop
vertex 211.8486007245023 -166.07675369559752 1
vertex 234.10428458259048 -144.8527807590233 1
vertex 234.07183550066244 -144.2203408099694 1
endloop
endfacet
facet normal 0 0 1
outer loop
vertex 211.8486007245023 -166.07675369559752 1
vertex 234.07183550066244 -144.2203408099694 1
vertex 233.93998067318793 -143.60094793258907 1
endloop
endfacet
facet normal 0 0 1
outer loop
vertex 211.8486007245023 -166.07675369559752 1
vertex 233.93998067318793 -143.60094793258907 1
vertex 233.71202498564384 -143.01012694735465 1
endloop
endfacet
facet normal 0 0 1
outer loop
vertex 211.8486007245023 -166.07675369559752 1
vertex 233.71202498564384 -143.01012694735465 1
vertex 233.39368205091395 -142.46268653234557 1
endloop
endfacet
facet normal 0 0 1
outer loop
vertex 211.8486007245023 -166.07675369559752 1
vertex 233.39368205091395 -142.46268653234557 1
vertex 232.9929319999998 -141.9723460999998 1
endloop
endfacet
facet normal 0 0 1
outer loop
vertex 211.8486007245023 -166.07675369559752 1
vertex 232.9929319999998 -141.9723460999998 1
vertex 217.5814409499999 -125.90093404999986 1
endloop
endfacet
facet normal 0 0 1
outer loop
vertex 211.8486007245023 -166.07675369559752 1
vertex 217.5814409499999 -125.90093404999986 1
vertex 155.9281642559536 -125.90093404999986 1
endloop
endfacet
facet normal 0 0 1
outer loop
vertex 211.8486007245023 -166.07675369559752 1
vertex 155.9281642559536 -125.90093404999986 1
vertex 155.53717554999997 -127.53790060000013 1
endloop
endfacet
facet normal 0 0 1
outer loop
vertex 211.8486007245023 -166.07675369559752 1
vertex 155.53717554999997 -127.53790060000013 1
vertex 155.44068552619422 -128.14559667667223 1
endloop
endfacet
facet normal 0 0 1
outer loop
vertex 211.8486007245023 -166.07675369559752 1
vertex 155.44068552619422 -128.14559667667223 1
vertex 155.4385403809891 -128.76090167799182 1
endloop
endfacet
facet normal 0 0 1
outer loop
vertex 211.8486007245023 -166.07675369559752 1
vertex 155.4385403809891 -128.76090167799182 1
vertex 155.53079087453293 -129.36925576299348 1
endloop
endfacet
facet normal 0 0 1
outer loop
vertex 211.8486007245023 -166.07675369559752 1
vertex 155.53079087453293 -129.36925576299348 1
vertex 155.71525410157997 -129.95626356887354 1
endloop
endfacet
facet normal 0 0 1
outer loop
vertex 211.8486007245023 -166.07675369559752 1
vertex 155.71525410157997 -129.95626356887354 1
vertex 155.9875651451477 -130.50803484562516 1
endloop
endfacet
facet normal 0 0 1
outer loop
vertex 211.8486007245023 -166.07675369559752 1
vertex 155.9875651451477 -130.50803484562516 1
vertex 156.34128036268615 -131.0115131382838 1
endloop
endfacet
facet normal 0 0 1
outer loop
vertex 211.8486007245023 -166.07675369559752 1
vertex 156.34128036268615 -131.0115131382838 1
vertex 156.76802986072272 -131.45478473924953 1
endloop
endfacet
facet normal 0 0 1
outer loop
vertex 211.8486007245023 -166.07675369559752 1
vertex 156.76802986072272 -131.45478473924953 1
vertex 157.2577110999999 -131.82736119999996 1
endloop
endfacet
facet normal 0 0 1
outer loop
vertex 211.8486007245023 -166.07675369559752 1
vertex 157.2577110999999 -131.82736119999996 1
vertex 209.32508225 -165.45260520000002 1
endloop
endfacet
facet normal 0 0 1
outer loop
vertex 211.8486007245023 -166.07675369559752 1
vertex 209.32508225 -165.45260520000002 1
vertex 209.90822607069754 -165.76415802637302 1
endloop
endfacet
facet normal 0 0 1
outer loop
vertex 211.8486007245023 -166.07675369559752 1
vertex 209.90822607069754 -165.76415802637302 1
vertex 210.53472389025234 -165.9753980825474 1
endloop
endfacet
facet normal 0 0 1
outer loop
vertex 211.8486007245023 -166.07675369559752 1
vertex 210.53472389025234 -165.9753980825474 1
vertex 211.18745971464978 -166.08055426537746 1
endloop
endfacet
facet normal 0 0 1
outer loop
vertex 217.5814409499999 -125.90093404999986 1
vertex 217.20032143803027 -125.4386703334772 1
vertex 156.0385757315775 -125.4386703334772 1
endloop
endfacet
facet normal 0 0 1
outer loop
vertex 217.5814409499999 -125.90093404999986 1
vertex 156.0385757315775 -125.4386703334772 1
vertex 155.9281642559536 -125.90093404999986 1
endloop
endfacet
facet normal 0 0 1
outer loop
vertex 217.20032143803027 -125.4386703334772 1
vertex 216.89251984645355 -124.92466838188501 1
vertex 156.16134486080048 -124.92466838188501 1
endloop
endfacet
facet normal 0 0 1
outer loop
vertex 217.20032143803027 -125.4386703334772 1
vertex 156.16134486080048 -124.92466838188501 1
vertex 156.0385757315775 -125.4386703334772 1
endloop
endfacet
facet normal 0 0 1
outer loop
vertex 216.89251984645355 -124.92466838188501 1
vertex 216.6649413158779 -124.37045918091577 1
vertex 156.29371747300476 -124.37045918091577 1
endloop
endfacet
facet normal 0 0 1
outer loop
vertex 216.89251984645355 -124.92466838188501 1
vertex 156.29371747300476 -124.37045918091577 1
vertex 156.16134486080048 -124.92466838188501 1
endloop
endfacet
facet normal 0 0 1
outer loop
vertex 216.6649413158779 -124.37045918091577 1
vertex 216.52269128368917 -123.78847571520576 1
vertex 156.4327239555406 -123.78847571520576 1
endloop
endfacet
facet normal 0 0 1
outer loop
vertex 216.6649413158779 -124.37045918091577 1
vertex 156.4327239555406 -123.78847571520576 1
vertex 156.29371747300476 -124.37045918091577 1
endloop
endfacet
facet normal 0 0 1
outer loop
vertex 216.52269128368917 -123.78847571520576 1
vertex 216.4689619 -123.19177809999991 1
vertex 156.57524490590146 -123.19177809999991 1
endloop
endfacet
facet normal 0 0 1
outer loop
vertex 216.52269128368917 -123.78847571520576 1
vertex 156.57524490590146 -123.19177809999991 1
vertex 156.4327239555406 -123.78847571520576 1
endloop
endfacet
facet normal 0 0 1
outer loop
vertex 216.4689619 -123.19177809999991 1
vertex 216.36355849989494 -116.09220110000024 1
vertex 158.27097559999996 -116.09220110000024 1
endloop
endfacet
facet normal 0 0 1
outer loop
vertex 216.4689619 -123.19177809999991 1
vertex 158.27097559999996 -116.09220110000024 1
vertex 156.57524490590146 -123.19177809999991 1
endloop
endfacet
facet normal 0 0 1
outer loop
vertex 216.36355849989494 -116.09220110000024 1
vertex 216.3539066412903 -115.4420881692183 1
vertex 158.37066314294898 -115.4420881692183 1
endloop
endfacet
facet normal 0 0 1
outer loop
vertex 216.36355849989494 -116.09220110000024 1
vertex 158.37066314294898 -115.4420881692183 1
vertex 158.27097559999996 -116.09220110000024 1
endloop
endfacet
facet normal 0 0 1
outer loop
vertex 216.3539066412903 -115.4420881692183 1
vertex 216.34414274225892 -114.78442861626009 1
vertex 158.3624663357596 -114.78442861626009 1
endloop
endfacet
facet normal 0 0 1
outer loop
vertex 216.3539066412903 -115.4420881692183 1
vertex 158.3624663357596 -114.78442861626009 1
vertex 158.37066314294898 -115.4420881692183 1
endloop
endfacet
facet normal 0 0 1
outer loop
vertex 216.34414274225892 -114.78442861626009 1
vertex 216.3345307758492 -114.13700267384039 1
vertex 158.2466089910382 -114.13700267384039 1
endloop
endfacet
facet normal 0 0 1
outer loop
vertex 216.34414274225892 -114.78442861626009 1
vertex 158.2466089910382 -114.13700267384039 1
vertex 158.3624663357596 -114.78442861626009 1
endloop
endfacet
facet normal 0 0 1
outer loop
vertex 216.3345307758492 -114.13700267384039 1
vertex 216.32533061555552 -113.51731444412295 1
vertex 158.026223480637 -113.51731444412295 1
endloop
endfacet
facet normal 0 0 1
outer loop
vertex 216.3345307758492 -114.13700267384039 1
vertex 158.026223480637 -113.51731444412295 1
vertex 158.2466089910382 -114.13700267384039 1
endloop
endfacet
facet normal 0 0 1
outer loop
vertex 216.32533061555552 -113.51731444412295 1
vertex 216.31679100109494 -112.9421180998617 1
vertex 157.7072682474255 -112.9421180998617 1
endloop
endfacet
facet normal 0 0 1
outer loop
vertex 216.32533061555552 -113.51731444412295 1
vertex 157.7072682474255 -112.9421180998617 1
vertex 158.026223480637 -113.51731444412295 1
endloop
endfacet
facet normal 0 0 1
outer loop
vertex 216.31679100109494 -112.9421180998617 1
vertex 216.309142813367 -112.42696491096278 1
vertex 157.2983667101183 -112.42696491096278 1
endloop
endfacet
facet normal 0 0 1
outer loop
vertex 216.31679100109494 -112.9421180998617 1
vertex 157.2983667101183 -112.42696491096278 1
vertex 157.7072682474255 -112.9421180998617 1
endloop
endfacet
facet normal 0 0 1
outer loop
vertex 216.309142813367 -112.42696491096278 1
vertex 216.30259283225277 -111.98578279328324 1
vertex 156.810574116607 -111.98578279328324 1
endloop
endfacet
facet normal 0 0 1
outer loop
vertex 216.309142813367 -112.42696491096278 1
vertex 156.810574116607 -111.98578279328324 1
vertex 157.2983667101183 -112.42696491096278 1
endloop
endfacet
facet normal 0 0 1
outer loop
vertex 216.30259283225277 -111.98578279328324 1
vertex 216.29731814601996 -111.6304997471632 1
vertex 156.25707864925025 -111.6304997471632 1
endloop
endfacet
facet normal 0 0 1
outer loop
vertex 216.30259283225277 -111.98578279328324 1
vertex 156.25707864925025 -111.6304997471632 1
vertex 156.810574116607 -111.98578279328324 1
endloop
endfacet
facet normal 0 0 1
outer loop
vertex 216.29731814601996 -111.6304997471632 1
vertex 216.29346136348394 -111.37072136658594 1
vertex 155.65284486317967 -111.37072136658594 1
endloop
endfacet
facet normal 0 0 1
outer loop
vertex 216.29731814601996 -111.6304997471632 1
vertex 155.65284486317967 -111.37072136658594 1
vertex 156.25707864925025 -111.6304997471632 1
endloop
endfacet
facet normal 0 0 1
outer loop
vertex 216.29346136348394 -111.37072136658594 1
vertex 216.2911267583711 -111.21347113797056 1
vertex 155.014209097782 -111.21347113797056 1
endloop
endfacet
facet normal 0 0 1
outer loop
vertex 216.29346136348394 -111.37072136658594 1
vertex 155.014209097782 -111.21347113797056 1
vertex 155.65284486317967 -111.37072136658594 1
endloop
endfacet
facet normal 0 0 1
outer loop
vertex 154.35843779999942 -111.16300055 1
vertex 90.89028776225508 -111.16300055 1
vertex 91.2556660996909 -111.31258403825706 1
endloop
endfacet
facet normal 0 0 1
outer loop
vertex 154.35843779999942 -111.16300055 1
vertex 91.2556660996909 -111.31258403825706 1
vertex 91.86880702287607 -111.45676062242292 1
endloop
endfacet
facet normal 0 0 1
outer loop
vertex 154.35843779999942 -111.16300055 1
vertex 91.86880702287607 -111.45676062242292 1
vertex 92.49697759999978 -111.5029012 1
endloop
endfacet
facet normal 0 0 1
outer loop
vertex 216.2911267583711 -111.21347113797056 1
vertex 216.29037745012675 -111.16300055 1
vertex 154.35843779999942 -111.16300055 1
endloop
endfacet
facet normal 0 0 1
outer loop
vertex 216.2911267583711 -111.21347113797056 1
vertex 154.35843779999942 -111.16300055 1
vertex 155.014209097782 -111.21347113797056 1
endloop
endfacet
facet normal 0 0 1
outer loop
vertex 154.35843779999942 -111.16300055 1
vertex 216.29037745012675 -111.16300055 1
vertex 215.43685614999998 -53.673012699999795 1
endloop
endfacet
facet normal 0 0 1
outer loop
vertex 154.35843779999942 -111.16300055 1
vertex 215.43685614999998 -53.673012699999795 1
vertex 215.37663644014592 -53.03841202732532 1
endloop
endfacet
facet normal 0 0 1
outer loop
vertex 154.35843779999942 -111.16300055 1
vertex 215.37663644014592 -53.03841202732532 1
vertex 215.21637118755746 -52.42143595321314 1
endloop
endfacet
facet normal 0 0 1
outer loop
vertex 154.35843779999942 -111.16300055 1
vertex 215.21637118755746 -52.42143595321314 1
vertex 214.9601305730013 -51.83775352700353 1
endloop
endfacet
facet normal 0 0 1
outer loop
vertex 154.35843779999942 -111.16300055 1
vertex 214.9601305730013 -51.83775352700353 1
vertex 214.6144222180868 -51.30218825501852 1
endloop
endfacet
facet normal 0 0 1
outer loop
vertex 154.35843779999942 -111.16300055 1
vertex 214.6144222180868 -51.30218825501852 1
vertex 214.1880259142802 -50.828341634988 1
endloop
endfacet
facet normal 0 0 1
outer loop
vertex 154.35843779999942 -111.16300055 1
vertex 214.1880259142802 -50.828341634988 1
vertex 213.6917706466965 -50.42824772525003 1
endloop
endfacet
facet normal 0 0 1
outer loop
vertex 154.35843779999942 -111.16300055 1
vertex 213.6917706466965 -50.42824772525003 1
vertex 213.1382595754892 -50.11206752146587 1
endloop
endfacet
facet normal 0 0 1
outer loop
vertex 154.35843779999942 -111.16300055 1
vertex 213.1382595754892 -50.11206752146587 1
vertex 212.5415499593575 -49.887830902623286 1
endloop
endfacet
facet normal 0 0 1
outer loop
vertex 154.35843779999942 -111.16300055 1
vertex 212.5415499593575 -49.887830902623286 1
vertex 211.91679229999994 -49.76123539999999 1
endloop
endfacet
facet normal 0 0 1
outer loop
vertex 154.35843779999942 -111.16300055 1
vertex 211.91679229999994 -49.76123539999999 1
vertex 136.3718932000001 -40.63966430000001 1
endloop
endfacet
facet normal 0 0 1
outer loop
vertex 154.35843779999942 -111.16300055 1
vertex 136.3718932000001 -40.63966430000001 1
vertex 135.98834267167823 -40.611967280671415 1
endloop
endfacet
facet normal 0 0 1
outer loop
vertex 154.35843779999942 -111.16300055 1
vertex 135.98834267167823 -40.611967280671415 1
vertex 135.60390496479872 -40.621229147913766 1
endloop
endfacet
facet normal 0 0 1
outer loop
vertex 154.35843779999942 -111.16300055 1
vertex 135.60390496479872 -40.621229147913766 1
vertex 135.2221364 -40.667368599999996 1
endloop
endfacet
facet normal 0 0 1
outer loop
vertex 154.35843779999942 -111.16300055 1
vertex 135.2221364 -40.667368599999996 1
vertex 107.6992545000003 -45.34537579999995 1
endloop
endfacet
facet normal 0 0 1
outer loop
vertex 154.35843779999942 -111.16300055 1
vertex 107.6992545000003 -45.34537579999995 1
vertex 107.52582188153482 -45.378813929577376 1
endloop
endfacet
facet normal 0 0 1
outer loop
vertex 154.35843779999942 -111.16300055 1
vertex 107.52582188153482 -45.378813929577376 1
vertex 107.35403899999926 -45.41987160000018 1
endloop
endfacet
facet normal 0 0 1
outer loop
vertex 154.35843779999942 -111.16300055 1
vertex 107.35403899999926 -45.41987160000018 1
vertex 91.45953499999989 -49.591657400000024 1
endloop
endfacet
facet normal 0 0 1
outer loop
vertex 154.35843779999942 -111.16300055 1
vertex 91.45953499999989 -49.591657400000024 1
vertex 90.84052287376451 -49.80979409968265 1
endloop
endfacet
facet normal 0 0 1
outer loop
vertex 154.35843779999942 -111.16300055 1
vertex 90.84052287376451 -49.80979409968265 1
vertex 90.2655147857725 -50.12621996923028 1
endloop
endfacet
facet normal 0 0 1
outer loop
vertex 154.35843779999942 -111.16300055 1
vertex 90.2655147857725 -50.12621996923028 1
vertex 89.74999137805429 -50.53241604044416 1
endloop
endfacet
facet normal 0 0 1
outer loop
vertex 154.35843779999942 -111.16300055 1
vertex 89.74999137805429 -50.53241604044416 1
vertex 89.30783181770256 -51.01744650893526 1
endloop
endfacet
facet normal 0 0 1
outer loop
vertex 154.35843779999942 -111.16300055 1
vertex 89.30783181770256 -51.01744650893526 1
vertex 88.95094013531619 -51.56825315306586 1
endloop
endfacet
facet normal 0 0 1
outer loop
vertex 154.35843779999942 -111.16300055 1
vertex 88.95094013531619 -51.56825315306586 1
vertex 88.68892473900952 -52.17000689362203 1
endloop
endfacet
facet normal 0 0 1
outer loop
vertex 154.35843779999942 -111.16300055 1
vertex 88.68892473900952 -52.17000689362203 1
vertex 88.52883973226616 -52.80650702935741 1
endloop
endfacet
facet normal 0 0 1
outer loop
vertex 154.35843779999942 -111.16300055 1
vertex 88.52883973226616 -52.80650702935741 1
vertex 88.475 -53.46061480000005 1
endloop
endfacet
facet normal 0 0 1
outer loop
vertex 154.35843779999942 -111.16300055 1
vertex 88.475 -53.46061480000005 1
vertex 88.4749988 -107.5029606 1
endloop
endfacet
facet normal 0 0 1
outer loop
vertex 154.35843779999942 -111.16300055 1
vertex 88.4749988 -107.5029606 1
vertex 88.52458982358773 -108.13086935888578 1
endloop
endfacet
facet normal 0 0 1
outer loop
vertex 154.35843779999942 -111.16300055 1
vertex 88.52458982358773 -108.13086935888578 1
vertex 88.67213338062172 -108.74320878917231 1
endloop
endfacet
facet normal 0 0 1
outer loop
vertex 154.35843779999942 -111.16300055 1
vertex 88.67213338062172 -108.74320878917231 1
vertex 88.9139710485712 -109.32479560252588 1
endloop
endfacet
facet normal 0 0 1
outer loop
vertex 154.35843779999942 -111.16300055 1
vertex 88.9139710485712 -109.32479560252588 1
vertex 89.24410633127584 -109.86120903843079 1
endloop
endfacet
facet normal 0 0 1
outer loop
vertex 154.35843779999942 -111.16300055 1
vertex 89.24410633127584 -109.86120903843079 1
vertex 89.65435334532123 -110.33914843476975 1
endloop
endfacet
facet normal 0 0 1
outer loop
vertex 154.35843779999942 -111.16300055 1
vertex 89.65435334532123 -110.33914843476975 1
vertex 90.13453979345788 -110.74676302495493 1
endloop
endfacet
facet normal 0 0 1
outer loop
vertex 154.35843779999942 -111.16300055 1
vertex 90.13453979345788 -110.74676302495493 1
vertex 90.67275919223007 -111.0739457841147 1
endloop
endfacet
facet normal 0 0 1
outer loop
vertex 154.35843779999942 -111.16300055 1
vertex 90.67275919223007 -111.0739457841147 1
vertex 90.89028776225508 -111.16300055 1
endloop
endfacet
facet normal -0.9968957466626515 -0.07873290472169006 0
outer loop
vertex 88.52458982358773 -108.13086935888578 1
vertex 88.4749988 -107.5029606 1
vertex 88.4749988 -107.50296059999987 0
endloop
endfacet
facet normal -0.9968957466626515 -0.07873290472169006 0
outer loop
vertex 88.52458982358773 -108.13086935888578 1
vertex 88.4749988 -107.50296059999987 0
vertex 88.52458982358775 -108.13086935888586 0
endloop
endfacet
facet normal -0.9721771912367665 -0.23424668373104382 0
outer loop
vertex 88.67213338062172 -108.74320878917231 1
vertex 88.52458982358773 -108.13086935888578 1
vertex 88.52458982358775 -108.13086935888586 0
endloop
endfacet
facet normal -0.9721771912367665 -0.23424668373104382 0
outer loop
vertex 88.67213338062172 -108.74320878917231 1
vertex 88.52458982358775 -108.13086935888586 0
vertex 88.67213338062172 -108.74320878917234 0
endloop
endfacet
facet normal -0.9233529750023636 -0.3839521891515719 0
outer loop
vertex 88.9139710485712 -109.32479560252588 1
vertex 88.67213338062172 -108.74320878917231 1
vertex 88.67213338062172 -108.74320878917234 0
endloop
endfacet
facet normal -0.9233529750023636 -0.3839521891515719 0
outer loop
vertex 88.9139710485712 -109.32479560252588 1
vertex 88.67213338062172 -108.74320878917234 0
vertex 88.91397104857113 -109.32479560252575 0
endloop
endfacet
facet normal -0.8516337208853633 -0.5241373917695159 0
outer loop
vertex 89.24410633127584 -109.86120903843079 1
vertex 88.9139710485712 -109.32479560252588 1
vertex 88.91397104857113 -109.32479560252575 0
endloop
endfacet
facet normal -0.8516337208853633 -0.5241373917695159 0
outer loop
vertex 89.24410633127584 -109.86120903843079 1
vertex 88.91397104857113 -109.32479560252575 0
vertex 89.24410633127589 -109.86120903843084 0
endloop
endfacet
facet normal -0.7587977466953579 -0.6513263234432087 0
outer loop
vertex 89.65435334532123 -110.33914843476975 1
vertex 89.24410633127584 -109.86120903843079 1
vertex 89.24410633127589 -109.86120903843084 0
endloop
endfacet
facet normal -0.7587977466953579 -0.6513263234432087 0
outer loop
vertex 89.65435334532123 -110.33914843476975 1
vertex 89.24410633127589 -109.86120903843084 0
vertex 89.6543533453212 -110.33914843476974 0
endloop
endfacet
facet normal -0.6471469707706207 -0.7623652656190532 0
outer loop
vertex 90.13453979345788 -110.74676302495493 1
vertex 89.65435334532123 -110.33914843476975 1
vertex 89.6543533453212 -110.33914843476974 0
endloop
endfacet
facet normal -0.6471469707706207 -0.7623652656190532 0
outer loop
vertex 90.13453979345788 -110.74676302495493 1
vertex 89.6543533453212 -110.33914843476974 0
vertex 90.1345397934578 -110.7467630249549 0
endloop
endfacet
facet normal -0.519449834664578 -0.8545009474932972 0
outer loop
vertex 90.67275919223007 -111.0739457841147 1
vertex 90.13453979345788 -110.74676302495493 1
vertex 90.1345397934578 -110.7467630249549 0
endloop
endfacet
facet normal -0.519449834664578 -0.8545009474932972 0
outer loop
vertex 90.67275919223007 -111.0739457841147 1
vertex 90.1345397934578 -110.7467630249549 0
vertex 90.67275919222996 -111.07394578411464 0
endloop
endfacet
facet normal 0 0 -1
outer loop
vertex 91.2556660996909 -111.31258403825706 1
vertex 90.89028776225508 -111.16300055 1
vertex 90.67275919223007 -111.0739457841147 1
endloop
endfacet
facet normal 0 0 -1
outer loop
vertex 91.2556660996909 -111.31258403825706 1
vertex 90.67275919223007 -111.0739457841147 1
vertex 90.67275919222996 -111.07394578411464 0
endloop
endfacet
facet normal 0 0 -1
outer loop
vertex 91.2556660996909 -111.31258403825706 1
vertex 90.67275919222996 -111.07394578411464 0
vertex 90.89028776225507 -111.16300054999999 0
endloop
endfacet
facet normal 0 0 -1
outer loop
vertex 91.2556660996909 -111.31258403825706 1
vertex 90.89028776225507 -111.16300054999999 0
vertex 91.25566609969091 -111.31258403825706 0
endloop
endfacet
facet normal -0.2289011285306941 -0.9734496768489755 0
outer loop
vertex 91.86880702287607 -111.45676062242292 1
vertex 91.2556660996909 -111.31258403825706 1
vertex 91.25566609969091 -111.31258403825706 0
endloop
endfacet
facet normal -0.2289011285306941 -0.9734496768489755 0
outer loop
vertex 91.86880702287607 -111.45676062242292 1
vertex 91.25566609969091 -111.31258403825706 0
vertex 91.86880702287608 -111.45676062242292 0
endloop
endfacet
facet normal -0.07325495794110284 -0.9973132462456554 0
outer loop
vertex 92.49697759999978 -111.5029012 1
vertex 91.86880702287607 -111.45676062242292 1
vertex 91.86880702287608 -111.45676062242292 0
endloop
endfacet
facet normal -0.07325495794110284 -0.9973132462456554 0
outer loop
vertex 92.49697759999978 -111.5029012 1
vertex 91.86880702287608 -111.45676062242292 0
vertex 92.49697759999974 -111.50290119999998 0
endloop
endfacet
facet normal 0.005494463244332337 -0.9999849053229037 0
outer loop
vertex 154.35843779999942 -111.16300055 1
vertex 92.49697759999978 -111.5029012 1
vertex 92.49697759999974 -111.50290119999998 0
endloop
endfacet
facet normal 0.005494463244332337 -0.9999849053229037 0
outer loop
vertex 154.35843779999942 -111.16300055 1
vertex 92.49697759999974 -111.50290119999998 0
vertex 154.3584377999997 -111.16300054999999 0
endloop
endfacet
facet normal -0.07673676770100708 -0.9970513870823319 0
outer loop
vertex 155.014209097782 -111.21347113797056 1
vertex 154.35843779999942 -111.16300055 1
vertex 154.3584377999997 -111.16300054999999 0
endloop
endfacet
facet normal -0.07673676770100708 -0.9970513870823319 0
outer loop
vertex 155.014209097782 -111.21347113797056 1
vertex 154.3584377999997 -111.16300054999999 0
vertex 155.01420909778184 -111.21347113797054 0
endloop
endfacet
facet normal -0.23908725357499355 -0.9709980871134436 0
outer loop
vertex 155.65284486317967 -111.37072136658594 1
vertex 155.014209097782 -111.21347113797056 1
vertex 155.01420909778184 -111.21347113797054 0
endloop
endfacet
facet normal -0.23908725357499355 -0.9709980871134436 0
outer loop
vertex 155.65284486317967 -111.37072136658594 1
vertex 155.01420909778184 -111.21347113797054 0
vertex 155.65284486317972 -111.37072136658597 0
endloop
endfacet
facet normal -0.39497366774769976 -0.9186924413458128 0
outer loop
vertex 156.25707864925025 -111.6304997471632 1
vertex 155.65284486317967 -111.37072136658594 1
vertex 155.65284486317972 -111.37072136658597 0
endloop
endfacet
facet normal -0.39497366774769976 -0.9186924413458128 0
outer loop
vertex 156.25707864925025 -111.6304997471632 1
vertex 155.65284486317972 -111.37072136658597 0
vertex 156.25707864925027 -111.63049974716323 0
endloop
endfacet
facet normal -0.5401813942435926 -0.8415486090019092 0
outer loop
vertex 156.810574116607 -111.98578279328324 1
vertex 156.25707864925025 -111.6304997471632 1
vertex 156.25707864925027 -111.63049974716323 0
endloop
endfacet
facet normal -0.5401813942435926 -0.8415486090019092 0
outer loop
vertex 156.810574116607 -111.98578279328324 1
vertex 156.25707864925027 -111.63049974716323 0
vertex 156.81057411660703 -111.98578279328325 0
endloop
endfacet
facet normal -0.6707845309426609 -0.741652285810564 0
outer loop
vertex 157.2983667101183 -112.42696491096278 1
vertex 156.810574116607 -111.98578279328324 1
vertex 156.81057411660703 -111.98578279328325 0
endloop
endfacet
facet normal -0.6707845309426609 -0.741652285810564 0
outer loop
vertex 157.2983667101183 -112.42696491096278 1
vertex 156.81057411660703 -111.98578279328325 0
vertex 157.2983667101183 -112.42696491096277 0
endloop
endfacet
facet normal -0.7832520320555676 -0.6217043141886858 0
outer loop
vertex 157.7072682474255 -112.9421180998617 1
vertex 157.2983667101183 -112.42696491096278 1
vertex 157.2983667101183 -112.42696491096277 0
endloop
endfacet
facet normal -0.7832520320555676 -0.6217043141886858 0
outer loop
vertex 157.7072682474255 -112.9421180998617 1
vertex 157.2983667101183 -112.42696491096277 0
vertex 157.7072682474255 -112.9421180998617 0
endloop
endfacet
facet normal -0.8745431750829606 -0.4849476620376824 0
outer loop
vertex 158.026223480637 -113.51731444412295 1
vertex 157.7072682474255 -112.9421180998617 1
vertex 157.7072682474255 -112.9421180998617 0
endloop
endfacet
facet normal -0.8745431750829606 -0.4849476620376824 0
outer loop
vertex 158.026223480637 -113.51731444412295 1
vertex 157.7072682474255 -112.9421180998617 0
vertex 158.026223480637 -113.51731444412295 0
endloop
endfacet
facet normal -0.9421897711715931 -0.33507974438873644 0
outer loop
vertex 158.2466089910382 -114.13700267384039 1
vertex 158.026223480637 -113.51731444412295 1
vertex 158.026223480637 -113.51731444412295 0
endloop
endfacet
facet normal -0.9421897711715931 -0.33507974438873644 0
outer loop
vertex 158.2466089910382 -114.13700267384039 1
vertex 158.026223480637 -113.51731444412295 0
vertex 158.24660899103816 -114.1370026738403 0
endloop
endfacet
facet normal -0.9843628961904767 -0.17615245840889335 0
outer loop
vertex 158.3624663357596 -114.78442861626009 1
vertex 158.2466089910382 -114.13700267384039 1
vertex 158.24660899103816 -114.1370026738403 0
endloop
endfacet
facet normal -0.9843628961904767 -0.17615245840889335 0
outer loop
vertex 158.3624663357596 -114.78442861626009 1
vertex 158.24660899103816 -114.1370026738403 0
vertex 158.3624663357596 -114.7844286162601 0
endloop
endfacet
facet normal -0.9999223383554126 -0.0124626344664307 0
outer loop
vertex 158.37066314294898 -115.4420881692183 1
vertex 158.3624663357596 -114.78442861626009 1
vertex 158.3624663357596 -114.7844286162601 0
endloop
endfacet
facet normal -0.9999223383554126 -0.0124626344664307 0
outer loop
vertex 158.37066314294898 -115.4420881692183 1
vertex 158.3624663357596 -114.7844286162601 0
vertex 158.37066314294898 -115.4420881692182 0
endloop
endfacet
facet normal -0.9884469436029427 0.15156727774160594 0
outer loop
vertex 158.27097559999996 -116.09220110000024 1
vertex 158.37066314294898 -115.4420881692183 1
vertex 158.37066314294898 -115.4420881692182 0
endloop
endfacet
facet normal -0.9884469436029427 0.15156727774160594 0
outer loop
vertex 158.27097559999996 -116.09220110000024 1
vertex 158.37066314294898 -115.4420881692182 0
vertex 158.27097559999996 -116.09220110000028 0
endloop
endfacet
facet normal 0 0 -1
outer loop
vertex 155.53717554999997 -127.53790060000013 1
vertex 155.9281642559536 -125.90093404999986 1
vertex 156.0385757315775 -125.4386703334772 1
endloop
endfacet
facet normal 0 0 -1
outer loop
vertex 155.53717554999997 -127.53790060000013 1
vertex 156.0385757315775 -125.4386703334772 1
vertex 156.16134486080048 -124.92466838188501 1
endloop
endfacet
facet normal 0 0 -1
outer loop
vertex 155.53717554999997 -127.53790060000013 1
vertex 156.16134486080048 -124.92466838188501 1
vertex 156.29371747300476 -124.37045918091577 1
endloop
endfacet
facet normal 0 0 -1
outer loop
vertex 155.53717554999997 -127.53790060000013 1
vertex 156.29371747300476 -124.37045918091577 1
vertex 156.4327239555406 -123.78847571520576 1
endloop
endfacet
facet normal 0 0 -1
outer loop
vertex 155.53717554999997 -127.53790060000013 1
vertex 156.4327239555406 -123.78847571520576 1
vertex 156.57524490590146 -123.19177809999991 1
endloop
endfacet
facet normal 0 0 -1
outer loop
vertex 155.53717554999997 -127.53790060000013 1
vertex 156.57524490590146 -123.19177809999991 1
vertex 158.27097559999996 -116.09220110000024 1
endloop
endfacet
facet normal 0 0 -1
outer loop
vertex 155.53717554999997 -127.53790060000013 1
vertex 158.27097559999996 -116.09220110000024 1
vertex 158.27097559999996 -116.09220110000028 0
endloop
endfacet
facet normal 0 0 -1
outer loop
vertex 155.53717554999997 -127.53790060000013 1
vertex 158.27097559999996 -116.09220110000028 0
vertex 156.57524490590146 -123.19177809999998 0
endloop
endfacet
facet normal 0 0 -1
outer loop
vertex 155.53717554999997 -127.53790060000013 1
vertex 156.57524490590146 -123.19177809999998 0
vertex 156.43272395554064 -123.7884757152057 0
endloop
endfacet
facet normal 0 0 -1
outer loop
vertex 155.53717554999997 -127.53790060000013 1
vertex 156.43272395554064 -123.7884757152057 0
vertex 156.29371747300476 -124.37045918091586 0
endloop
endfacet
facet normal 0 0 -1
outer loop
vertex 155.53717554999997 -127.53790060000013 1
vertex 156.29371747300476 -124.37045918091586 0
vertex 156.1613448608005 -124.92466838188494 0
endloop
endfacet
facet normal 0 0 -1
outer loop
vertex 155.53717554999997 -127.53790060000013 1
vertex 156.1613448608005 -124.92466838188494 0
vertex 156.03857573157754 -125.43867033347722 0
endloop
endfacet
facet normal 0 0 -1
outer loop
vertex 155.53717554999997 -127.53790060000013 1
vertex 156.03857573157754 -125.43867033347722 0
vertex 155.92816425595362 -125.90093404999992 0
endloop
endfacet
facet normal 0 0 -1
outer loop
vertex 155.53717554999997 -127.53790060000013 1
vertex 155.92816425595362 -125.90093404999992 0
vertex 155.53717554999997 -127.5379006000001 0
endloop
endfacet
facet normal -0.9876278956302109 0.15681562349791978 0
outer loop
vertex 155.44068552619422 -128.14559667667223 1
vertex 155.53717554999997 -127.53790060000013 1
vertex 155.53717554999997 -127.5379006000001 0
endloop
endfacet
facet normal -0.9876278956302109 0.15681562349791978 0
outer loop
vertex 155.44068552619422 -128.14559667667223 1
vertex 155.53717554999997 -127.5379006000001 0
vertex 155.44068552619424 -128.1455966766721 0
endloop
endfacet
facet normal -0.9999939228697435 0.0034862908056538804 0
outer loop
vertex 155.4385403809891 -128.76090167799182 1
vertex 155.44068552619422 -128.14559667667223 1
vertex 155.44068552619424 -128.1455966766721 0
endloop
endfacet
facet normal -0.9999939228697435 0.0034862908056538804 0
outer loop
vertex 155.4385403809891 -128.76090167799182 1
vertex 155.44068552619424 -128.1455966766721 0
vertex 155.43854038098914 -128.76090167799208 0
endloop
endfacet
facet normal -0.9886972910176549 -0.14992553729885577 0
outer loop
vertex 155.53079087453293 -129.36925576299348 1
vertex 155.4385403809891 -128.76090167799182 1
vertex 155.43854038098914 -128.76090167799208 0
endloop
endfacet
facet normal -0.9886972910176549 -0.14992553729885577 0
outer loop
vertex 155.53079087453293 -129.36925576299348 1
vertex 155.43854038098914 -128.76090167799208 0
vertex 155.53079087453293 -129.36925576299353 0
endloop
endfacet
facet normal -0.9540053100468171 -0.29978970696552665 0
outer loop
vertex 155.71525410157997 -129.95626356887354 1
vertex 155.53079087453293 -129.36925576299348 1
vertex 155.53079087453293 -129.36925576299353 0
endloop
endfacet
facet normal -0.9540053100468171 -0.29978970696552665 0
outer loop
vertex 155.71525410157997 -129.95626356887354 1
vertex 155.53079087453293 -129.36925576299353 0
vertex 155.71525410157994 -129.9562635688735 0
endloop
endfacet
facet normal -0.8967388894649222 -0.4425600118867701 0
outer loop
vertex 155.9875651451477 -130.50803484562516 1
vertex 155.71525410157997 -129.95626356887354 1
vertex 155.71525410157994 -129.9562635688735 0
endloop
endfacet
facet normal -0.8967388894649222 -0.4425600118867701 0
outer loop
vertex 155.9875651451477 -130.50803484562516 1
vertex 155.71525410157994 -129.9562635688735 0
vertex 155.98756514514767 -130.5080348456251 0
endloop
endfacet
facet normal -0.8182531132946792 -0.5748581064780812 0
outer loop
vertex 156.34128036268615 -131.0115131382838 1
vertex 155.9875651451477 -130.50803484562516 1
vertex 155.98756514514767 -130.5080348456251 0
endloop
endfacet
facet normal -0.8182531132946792 -0.5748581064780812 0
outer loop
vertex 156.34128036268615 -131.0115131382838 1
vertex 155.98756514514767 -130.5080348456251 0
vertex 156.34128036268623 -131.01151313828385 0
endloop
endfacet
facet normal -0.7204051749874445 -0.6935534470041294 0
outer loop
vertex 156.76802986072272 -131.45478473924953 1
vertex 156.34128036268615 -131.0115131382838 1
vertex 156.34128036268623 -131.01151313828385 0
endloop
endfacet
facet normal -0.7204051749874445 -0.6935534470041294 0
outer loop
vertex 156.76802986072272 -131.45478473924953 1
vertex 156.34128036268623 -131.01151313828385 0
vertex 156.76802986072283 -131.45478473924965 0
endloop
endfacet
facet normal -0.6055145337145583 -0.7958342474789842 0
outer loop
vertex 157.2577110999999 -131.82736119999996 1
vertex 156.76802986072272 -131.45478473924953 1
vertex 156.76802986072283 -131.45478473924965 0
endloop
endfacet
facet normal -0.6055145337145583 -0.7958342474789842 0
outer loop
vertex 157.2577110999999 -131.82736119999996 1
vertex 156.76802986072283 -131.45478473924965 0
vertex 157.25771109999977 -131.82736119999987 0
endloop
endfacet
facet normal -0.5425072165888201 -0.840051141270013 0
outer loop
vertex 209.32508225 -165.45260520000002 1
vertex 157.2577110999999 -131.82736119999996 1
vertex 157.25771109999977 -131.82736119999987 0
endloop
endfacet
facet normal -0.5425072165888201 -0.840051141270013 0
outer loop
vertex 209.32508225 -165.45260520000002 1
vertex 157.25771109999977 -131.82736119999987 0
vertex 209.32508225000007 -165.45260520000005 0
endloop
endfacet
facet normal -0.4712272785765206 -0.8820118207401566 0
outer loop
vertex 209.90822607069754 -165.76415802637302 1
vertex 209.32508225 -165.45260520000002 1
vertex 209.32508225000007 -165.45260520000005 0
endloop
endfacet
facet normal -0.4712272785765206 -0.8820118207401566 0
outer loop
vertex 209.90822607069754 -165.76415802637302 1
vertex 209.32508225000007 -165.45260520000005 0
vertex 209.90822607069768 -165.7641580263731 0
endloop
endfacet
facet normal -0.3195030452978076 -0.947585248959389 0
outer loop
vertex 210.53472389025234 -165.9753980825474 1
vertex 209.90822607069754 -165.76415802637302 1
vertex 209.90822607069768 -165.7641580263731 0
endloop
endfacet
facet normal -0.3195030452978076 -0.947585248959389 0
outer loop
vertex 210.53472389025234 -165.9753980825474 1
vertex 209.90822607069768 -165.7641580263731 0
vertex 210.5347238902523 -165.97539808254743 0
endloop
endfacet
facet normal -0.15904995129511681 -0.9872705368808599 0
outer loop
vertex 211.18745971464978 -166.08055426537746 1
vertex 210.53472389025234 -165.9753980825474 1
vertex 210.5347238902523 -165.97539808254743 0
endloop
endfacet
facet normal -0.15904995129511681 -0.9872705368808599 0
outer loop
vertex 211.18745971464978 -166.08055426537746 1
vertex 210.5347238902523 -165.97539808254743 0
vertex 211.18745971464966 -166.0805542653775 0
endloop
endfacet
facet normal 0.005748406057819011 -0.9999834777774053 0
outer loop
vertex 211.8486007245023 -166.07675369559752 1
vertex 211.18745971464978 -166.08055426537746 1
vertex 211.18745971464966 -166.0805542653775 0
endloop
endfacet
facet normal 0.005748406057819011 -0.9999834777774053 0
outer loop
vertex 211.8486007245023 -166.07675369559752 1
vertex 211.18745971464966 -166.0805542653775 0
vertex 211.848600724502 -166.07675369559755 0
endloop
endfacet
facet normal 0.1703897162819314 -0.9853767526105754 0
outer loop
vertex 212.50008446976713 -165.96410020522046 1
vertex 211.8486007245023 -166.07675369559752 1
vertex 211.848600724502 -166.07675369559755 0
endloop
endfacet
facet normal 0.1703897162819314 -0.9853767526105754 0
outer loop
vertex 212.50008446976713 -165.96410020522046 1
vertex 211.848600724502 -166.07675369559755 0
vertex 212.50008446976727 -165.9641002052204 0
endloop
endfacet
facet normal 0.330375959444668 -0.943849418827503 0
outer loop
vertex 213.12411233800674 -165.7456715008346 1
vertex 212.50008446976713 -165.96410020522046 1
vertex 212.50008446976727 -165.9641002052204 0
endloop
endfacet
facet normal 0.330375959444668 -0.943849418827503 0
outer loop
vertex 213.12411233800674 -165.7456715008346 1
vertex 212.50008446976727 -165.9641002052204 0
vertex 213.12411233800674 -165.74567150083456 0
endloop
endfacet
facet normal 0.4813362925918657 -0.8765360080646533 0
outer loop
vertex 213.7036358145662 -165.42743508029898 1
vertex 213.12411233800674 -165.7456715008346 1
vertex 213.12411233800674 -165.74567150083456 0
endloop
endfacet
facet normal 0.4813362925918657 -0.8765360080646533 0
outer loop
vertex 213.7036358145662 -165.42743508029898 1
vertex 213.12411233800674 -165.74567150083456 0
vertex 213.70363581456627 -165.42743508029892 0
endloop
endfacet
facet normal 0.6191492840221343 -0.7852733053497224 0
outer loop
vertex 214.22282449999958 -165.01808040000037 1
vertex 213.7036358145662 -165.42743508029898 1
vertex 213.70363581456627 -165.42743508029892 0
endloop
endfacet
facet normal 0.6191492840221343 -0.7852733053497224 0
outer loop
vertex 214.22282449999958 -165.01808040000037 1
vertex 213.70363581456627 -165.42743508029892 0
vertex 214.22282449999972 -165.01808040000023 0
endloop
endfacet
facet normal 0.6819296278355677 -0.7314177894200032 0
outer loop
vertex 232.83357100000057 -147.66654804999948 1
vertex 214.22282449999958 -165.01808040000037 1
vertex 214.22282449999972 -165.01808040000023 0
endloop
endfacet
facet normal 0.6819296278355677 -0.7314177894200032 0
outer loop
vertex 232.83357100000057 -147.66654804999948 1
vertex 214.22282449999972 -165.01808040000023 0
vertex 232.8335710000003 -147.6665480499997 0
endloop
endfacet
facet normal 0.7376885651049526 -0.6751411562876286 0
outer loop
vertex 233.26111888696104 -147.19939064993844 1
vertex 232.83357100000057 -147.66654804999948 1
vertex 232.8335710000003 -147.6665480499997 0
endloop
endfacet
facet normal 0.7376885651049526 -0.6751411562876286 0
outer loop
vertex 233.26111888696104 -147.19939064993844 1
vertex 232.8335710000003 -147.6665480499997 0
vertex 233.26111888696101 -147.19939064993844 0
endloop
endfacet
facet normal 0.8349952000717732 -0.5502572269921584 0
outer loop
vertex 233.6095812973691 -146.67061169743533 1
vertex 233.26111888696104 -147.19939064993844 1
vertex 233.26111888696101 -147.19939064993844 0
endloop
endfacet
facet normal 0.8349952000717732 -0.5502572269921584 0
outer loop
vertex 233.6095812973691 -146.67061169743533 1
vertex 233.26111888696101 -147.19939064993844 0
vertex 233.60958129736932 -146.67061169743496 0
endloop
endfacet
facet normal 0.9113730335477441 -0.4115813330582215 0
outer loop
vertex 233.87022416830501 -146.09346481326443 1
vertex 233.6095812973691 -146.67061169743533 1
vertex 233.60958129736932 -146.67061169743496 0
endloop
endfacet
facet normal 0.9113730335477441 -0.4115813330582215 0
outer loop
vertex 233.87022416830501 -146.09346481326443 1
vertex 233.60958129736932 -146.67061169743496 0
vertex 233.870224168305 -146.09346481326463 0
endloop
endfacet
facet normal 0.9649076874441962 -0.26258932710811683 0
outer loop
vertex 234.03651459645934 -145.48241593994754 1
vertex 233.87022416830501 -146.09346481326443 1
vertex 233.870224168305 -146.09346481326463 0
endloop
endfacet
facet normal 0.9649076874441962 -0.26258932710811683 0
outer loop
vertex 234.03651459645934 -145.48241593994754 1
vertex 233.870224168305 -146.09346481326463 0
vertex 234.0365145964593 -145.4824159399477 0
endloop
endfacet
facet normal 0.9942573383061286 -0.10701563074809443 0
outer loop
vertex 234.10428458259048 -144.8527807590233 1
vertex 234.03651459645934 -145.48241593994754 1
vertex 234.0365145964593 -145.4824159399477 0
endloop
endfacet
facet normal 0.9942573383061286 -0.10701563074809443 0
outer loop
vertex 234.10428458259048 -144.8527807590233 1
vertex 234.0365145964593 -145.4824159399477 0
vertex 234.10428458259048 -144.85278075902357 0
endloop
endfacet
facet normal 0.998686349549462 0.05124036712953737 0
outer loop
vertex 234.07183550066244 -144.2203408099694 1
vertex 234.10428458259048 -144.8527807590233 1
vertex 234.10428458259048 -144.85278075902357 0
endloop
endfacet
facet normal 0.998686349549462 0.05124036712953737 0
outer loop
vertex 234.07183550066244 -144.2203408099694 1
vertex 234.10428458259048 -144.85278075902357 0
vertex 234.07183550066244 -144.22034080996946 0
endloop
endfacet
facet normal 0.9780837098808225 0.20821204687953848 0
outer loop
vertex 233.93998067318793 -143.60094793258907 1
vertex 234.07183550066244 -144.2203408099694 1
vertex 234.07183550066244 -144.22034080996946 0
endloop
endfacet
facet normal 0.9780837098808225 0.20821204687953848 0
outer loop
vertex 233.93998067318793 -143.60094793258907 1
vertex 234.07183550066244 -144.22034080996946 0
vertex 233.93998067318793 -143.60094793258907 0
endloop
endfacet
facet normal 0.9329658157486825 0.35996497974719055 0
outer loop
vertex 233.71202498564384 -143.01012694735465 1
vertex 233.93998067318793 -143.60094793258907 1
vertex 233.93998067318793 -143.60094793258907 0
endloop
endfacet
facet normal 0.9329658157486825 0.35996497974719055 0
outer loop
vertex 233.71202498564384 -143.01012694735465 1
vertex 233.93998067318793 -143.60094793258907 0
vertex 233.71202498564386 -143.01012694735468 0
endloop
endfacet
facet normal 0.8644635280848503 0.5026955426608569 0
outer loop
vertex 233.39368205091395 -142.46268653234557 1
vertex 233.71202498564384 -143.01012694735465 1
vertex 233.71202498564386 -143.01012694735468 0
endloop
endfacet
facet normal 0.8644635280848503 0.5026955426608569 0
outer loop
vertex 233.39368205091395 -142.46268653234557 1
vertex 233.71202498564386 -143.01012694735468 0
vertex 233.39368205091392 -142.4626865323455 0
endloop
endfacet
facet normal 0.7742958346386423 0.6328237989055473 0
outer loop
vertex 232.9929319999998 -141.9723460999998 1
vertex 233.39368205091395 -142.46268653234557 1
vertex 233.39368205091392 -142.4626865323455 0
endloop
endfacet
facet normal 0.7742958346386423 0.6328237989055473 0
outer loop
vertex 232.9929319999998 -141.9723460999998 1
vertex 233.39368205091392 -142.4626865323455 0
vertex 232.99293200000005 -141.97234610000004 0
endloop
endfacet
facet normal 0.7217700770563034 0.6921329033257543 0
outer loop
vertex 217.5814409499999 -125.90093404999986 1
vertex 232.9929319999998 -141.9723460999998 1
vertex 232.99293200000005 -141.97234610000004 0
endloop
endfacet
facet normal 0.7217700770563034 0.6921329033257543 0
outer loop
vertex 217.5814409499999 -125.90093404999986 1
vertex 232.99293200000005 -141.97234610000004 0
vertex 217.58144094999994 -125.90093404999992 0
endloop
endfacet
facet normal 0.7715764837096283 0.6361365653586388 0
outer loop
vertex 217.20032143803027 -125.4386703334772 1
vertex 217.5814409499999 -125.90093404999986 1
vertex 217.58144094999994 -125.90093404999992 0
endloop
endfacet
facet normal 0.7715764837096283 0.6361365653586388 0
outer loop
vertex 217.20032143803027 -125.4386703334772 1
vertex 217.58144094999994 -125.90093404999992 0
vertex 217.2003214380303 -125.43867033347722 0
endloop
endfacet
facet normal 0.8579341277582072 0.513759703001086 0
outer loop
vertex 216.89251984645355 -124.92466838188501 1
vertex 217.20032143803027 -125.4386703334772 1
vertex 217.2003214380303 -125.43867033347722 0
endloop
endfacet
facet normal 0.8579341277582072 0.513759703001086 0
outer loop
vertex 216.89251984645355 -124.92466838188501 1
vertex 217.2003214380303 -125.43867033347722 0
vertex 216.89251984645352 -124.92466838188494 0
endloop
endfacet
facet normal 0.9250451013972861 0.3798572894928889 0
outer loop
vertex 216.6649413158779 -124.37045918091577 1
vertex 216.89251984645355 -124.92466838188501 1
vertex 216.89251984645352 -124.92466838188494 0
endloop
endfacet
facet normal 0.9250451013972861 0.3798572894928889 0
outer loop
vertex 216.6649413158779 -124.37045918091577 1
vertex 216.89251984645352 -124.92466838188494 0
vertex 216.66494131587794 -124.37045918091586 0
endloop
endfacet
facet normal 0.9714038545517456 0.23743325664702303 0
outer loop
vertex 216.52269128368917 -123.78847571520576 1
vertex 216.6649413158779 -124.37045918091577 1
vertex 216.66494131587794 -124.37045918091586 0
endloop
endfacet
facet normal 0.9714038545517456 0.23743325664702303 0
outer loop
vertex 216.52269128368917 -123.78847571520576 1
vertex 216.66494131587794 -124.37045918091586 0
vertex 216.52269128368917 -123.7884757152057 0
endloop
endfacet
facet normal 0.9959704743110586 0.08968173894726313 0
outer loop
vertex 216.4689619 -123.19177809999991 1
vertex 216.52269128368917 -123.78847571520576 1
vertex 216.52269128368917 -123.7884757152057 0
endloop
endfacet
facet normal 0.9959704743110586 0.08968173894726313 0
outer loop
vertex 216.4689619 -123.19177809999991 1
vertex 216.52269128368917 -123.7884757152057 0
vertex 216.4689619 -123.19177809999998 0
endloop
endfacet
facet normal 0 0 1
outer loop
vertex 215.43685614999998 -53.673012699999795 1
vertex 216.29037745012675 -111.16300055 1
vertex 216.2911267583711 -111.21347113797056 1
endloop
endfacet
facet normal 0 0 1
outer loop
vertex 215.43685614999998 -53.673012699999795 1
vertex 216.2911267583711 -111.21347113797056 1
vertex 216.29346136348394 -111.37072136658594 1
endloop
endfacet
facet normal 0 0 1
outer loop
vertex 215.43685614999998 -53.673012699999795 1
vertex 216.29346136348394 -111.37072136658594 1
vertex 216.29731814601996 -111.6304997471632 1
endloop
endfacet
facet normal 0 0 1
outer loop
vertex 215.43685614999998 -53.673012699999795 1
vertex 216.29731814601996 -111.6304997471632 1
vertex 216.30259283225277 -111.98578279328324 1
endloop
endfacet
facet normal 0 0 1
outer loop
vertex 215.43685614999998 -53.673012699999795 1
vertex 216.30259283225277 -111.98578279328324 1
vertex 216.309142813367 -112.42696491096278 1
endloop
endfacet
facet normal 0 0 1
outer loop
vertex 215.43685614999998 -53.673012699999795 1
vertex 216.309142813367 -112.42696491096278 1
vertex 216.31679100109494 -112.9421180998617 1
endloop
endfacet
facet normal 0 0 1
outer loop
vertex 215.43685614999998 -53.673012699999795 1
vertex 216.31679100109494 -112.9421180998617 1
vertex 216.32533061555552 -113.51731444412295 1
endloop
endfacet
facet normal 0 0 1
outer loop
vertex 215.43685614999998 -53.673012699999795 1
vertex 216.32533061555552 -113.51731444412295 1
vertex 216.3345307758492 -114.13700267384039 1
endloop
endfacet
facet normal 0 0 1
outer loop
vertex 215.43685614999998 -53.673012699999795 1
vertex 216.3345307758492 -114.13700267384039 1
vertex 216.34414274225892 -114.78442861626009 1
endloop
endfacet
facet normal 0 0 1
outer loop
vertex 215.43685614999998 -53.673012699999795 1
vertex 216.34414274225892 -114.78442861626009 1
vertex 216.3539066412903 -115.4420881692183 1
endloop
endfacet
facet normal 0 0 1
outer loop
vertex 215.43685614999998 -53.673012699999795 1
vertex 216.3539066412903 -115.4420881692183 1
vertex 216.36355849989494 -116.09220110000024 1
endloop
endfacet
facet normal 0 0 1
outer loop
vertex 215.43685614999998 -53.673012699999795 1
vertex 216.36355849989494 -116.09220110000024 1
vertex 216.4689619 -123.19177809999991 1
endloop
endfacet
facet normal 0 0 1
outer loop
vertex 215.43685614999998 -53.673012699999795 1
vertex 216.4689619 -123.19177809999991 1
vertex 216.4689619 -123.19177809999998 0
endloop
endfacet
facet normal 0 0 1
outer loop
vertex 215.43685614999998 -53.673012699999795 1
vertex 216.4689619 -123.19177809999998 0
vertex 216.36355849989494 -116.09220110000028 0
endloop
endfacet
facet normal 0 0 1
outer loop
vertex 215.43685614999998 -53.673012699999795 1
vertex 216.36355849989494 -116.09220110000028 0
vertex 216.3539066412903 -115.4420881692182 0
endloop
endfacet
facet normal 0 0 1
outer loop
vertex 215.43685614999998 -53.673012699999795 1
vertex 216.3539066412903 -115.4420881692182 0
vertex 216.34414274225892 -114.7844286162601 0
endloop
endfacet
facet normal 0 0 1
outer loop
vertex 215.43685614999998 -53.673012699999795 1
vertex 216.34414274225892 -114.7844286162601 0
vertex 216.3345307758492 -114.1370026738403 0
endloop
endfacet
facet normal 0 0 1
outer loop
vertex 215.43685614999998 -53.673012699999795 1
vertex 216.3345307758492 -114.1370026738403 0
vertex 216.32533061555552 -113.51731444412295 0
endloop
endfacet
facet normal 0 0 1
outer loop
vertex 215.43685614999998 -53.673012699999795 1
vertex 216.32533061555552 -113.51731444412295 0
vertex 216.31679100109494 -112.9421180998617 0
endloop
endfacet
facet normal 0 0 1
outer loop
vertex 215.43685614999998 -53.673012699999795 1
vertex 216.31679100109494 -112.9421180998617 0
vertex 216.309142813367 -112.42696491096277 0
endloop
endfacet
facet normal 0 0 1
outer loop
vertex 215.43685614999998 -53.673012699999795 1
vertex 216.309142813367 -112.42696491096277 0
vertex 216.30259283225277 -111.98578279328325 0
endloop
endfacet
facet normal 0 0 1
outer loop
vertex 215.43685614999998 -53.673012699999795 1
vertex 216.30259283225277 -111.98578279328325 0
vertex 216.29731814601996 -111.63049974716323 0
endloop
endfacet
facet normal 0 0 1
outer loop
vertex 215.43685614999998 -53.673012699999795 1
vertex 216.29731814601996 -111.63049974716323 0
vertex 216.29346136348394 -111.37072136658597 0
endloop
endfacet
facet normal 0 0 1
outer loop
vertex 215.43685614999998 -53.673012699999795 1
vertex 216.29346136348394 -111.37072136658597 0
vertex 216.2911267583711 -111.21347113797054 0
endloop
endfacet
facet normal 0 0 1
outer loop
vertex 215.43685614999998 -53.673012699999795 1
vertex 216.2911267583711 -111.21347113797054 0
vertex 216.29037745012675 -111.16300054999999 0
endloop
endfacet
facet normal 0 0 1
outer loop
vertex 215.43685614999998 -53.673012699999795 1
vertex 216.29037745012675 -111.16300054999999 0
vertex 215.43685615 -53.67301270000005 0
endloop
endfacet
facet normal 0.9955277586165584 0.0944694756198602 0
outer loop
vertex 215.37663644014592 -53.03841202732532 1
vertex 215.43685614999998 -53.673012699999795 1
vertex 215.43685615 -53.67301270000005 0
endloop
endfacet
facet normal 0.9955277586165584 0.0944694756198602 0
outer loop
vertex 215.37663644014592 -53.03841202732532 1
vertex 215.43685615 -53.67301270000005 0
vertex 215.37663644014592 -53.03841202732537 0
endloop
endfacet
facet normal 0.967879226462421 0.2514155981288863 0
outer loop
vertex 215.21637118755746 -52.42143595321314 1
vertex 215.37663644014592 -53.03841202732532 1
vertex 215.37663644014592 -53.03841202732537 0
endloop
endfacet
facet normal 0.967879226462421 0.2514155981288863 0
outer loop
vertex 215.21637118755746 -52.42143595321314 1
vertex 215.37663644014592 -53.03841202732537 0
vertex 215.21637118755746 -52.42143595321318 0
endloop
endfacet
facet normal 0.9156499236902289 0.401976637686916 0
outer loop
vertex 214.9601305730013 -51.83775352700353 1
vertex 215.21637118755746 -52.42143595321314 1
vertex 215.21637118755746 -52.42143595321318 0
endloop
endfacet
facet normal 0.9156499236902289 0.401976637686916 0
outer loop
vertex 214.9601305730013 -51.83775352700353 1
vertex 215.21637118755746 -52.42143595321318 0
vertex 214.96013057300127 -51.8377535270035 0
endloop
endfacet
facet normal 0.8401662931823388 0.5423288668328917 0
outer loop
vertex 214.6144222180868 -51.30218825501852 1
vertex 214.9601305730013 -51.83775352700353 1
vertex 214.96013057300127 -51.8377535270035 0
endloop
endfacet
facet normal 0.8401662931823388 0.5423288668328917 0
outer loop
vertex 214.6144222180868 -51.30218825501852 1
vertex 214.96013057300127 -51.8377535270035 0
vertex 214.61442221808676 -51.30218825501847 0
endloop
endfacet
facet normal 0.7433453569765173 0.668907826431605 0
outer loop
vertex 214.1880259142802 -50.828341634988 1
vertex 214.6144222180868 -51.30218825501852 1
vertex 214.61442221808676 -51.30218825501847 0
endloop
endfacet
facet normal 0.7433453569765173 0.668907826431605 0
outer loop
vertex 214.1880259142802 -50.828341634988 1
vertex 214.61442221808676 -51.30218825501847 0
vertex 214.18802591428033 -50.82834163498812 0
endloop
endfacet
facet normal 0.627646030564206 0.778498850555989 0
outer loop
vertex 213.6917706466965 -50.42824772525003 1
vertex 214.1880259142802 -50.828341634988 1
vertex 214.18802591428033 -50.82834163498812 0
endloop
endfacet
facet normal 0.627646030564206 0.778498850555989 0
outer loop
vertex 213.6917706466965 -50.42824772525003 1
vertex 214.18802591428033 -50.82834163498812 0
vertex 213.69177064669657 -50.42824772525007 0
endloop
endfacet
facet normal 0.49600667497801887 0.8683187078355793 0
outer loop
vertex 213.1382595754892 -50.11206752146587 1
vertex 213.6917706466965 -50.42824772525003 1
vertex 213.69177064669657 -50.42824772525007 0
endloop
endfacet
facet normal 0.49600667497801887 0.8683187078355793 0
outer loop
vertex 213.1382595754892 -50.11206752146587 1
vertex 213.69177064669657 -50.42824772525007 0
vertex 213.13825957548926 -50.11206752146589 0
endloop
endfacet
facet normal 0.35177047262689964 0.9360862858667719 0
outer loop
vertex 212.5415499593575 -49.887830902623286 1
vertex 213.1382595754892 -50.11206752146587 1
vertex 213.13825957548926 -50.11206752146589 0
endloop
endfacet
facet normal 0.35177047262689964 0.9360862858667719 0
outer loop
vertex 212.5415499593575 -49.887830902623286 1
vertex 213.13825957548926 -50.11206752146589 0
vertex 212.5415499593575 -49.88783090262328 0
endloop
endfacet
facet normal 0.19859527795498091 0.9800815861824892 0
outer loop
vertex 211.91679229999994 -49.76123539999999 1
vertex 212.5415499593575 -49.887830902623286 1
vertex 212.5415499593575 -49.88783090262328 0
endloop
endfacet
facet normal 0.19859527795498091 0.9800815861824892 0
outer loop
vertex 211.91679229999994 -49.76123539999999 1
vertex 212.5415499593575 -49.88783090262328 0
vertex 211.9167923 -49.76123539999999 0
endloop
endfacet
facet normal 0.11987305086692857 0.9927892282231183 0
outer loop
vertex 136.3718932000001 -40.63966430000001 1
vertex 211.91679229999994 -49.76123539999999 1
vertex 211.9167923 -49.76123539999999 0
endloop
endfacet
facet normal 0.11987305086692857 0.9927892282231183 0
outer loop
vertex 136.3718932000001 -40.63966430000001 1
vertex 211.9167923 -49.76123539999999 0
vertex 136.3718932000001 -40.63966430000001 0
endloop
endfacet
facet normal 0.07202463319046615 0.9974028535219752 0
outer loop
vertex 135.98834267167823 -40.611967280671415 1
vertex 136.3718932000001 -40.63966430000001 1
vertex 136.3718932000001 -40.63966430000001 0
endloop
endfacet
facet normal 0.07202463319046615 0.9974028535219752 0
outer loop
vertex 135.98834267167823 -40.611967280671415 1
vertex 136.3718932000001 -40.63966430000001 0
vertex 135.98834267167823 -40.611967280671415 0
endloop
endfacet
facet normal -0.02408499567680167 0.9997099144168015 0
outer loop
vertex 135.60390496479872 -40.621229147913766 1
vertex 135.98834267167823 -40.611967280671415 1
vertex 135.98834267167823 -40.611967280671415 0
endloop
endfacet
facet normal -0.02408499567680167 0.9997099144168015 0
outer loop
vertex 135.60390496479872 -40.621229147913766 1
vertex 135.98834267167823 -40.611967280671415 0
vertex 135.6039049647987 -40.621229147913766 0
endloop
endfacet
facet normal -0.11998403396277976 0.9927758214189237 0
outer loop
vertex 135.2221364 -40.667368599999996 1
vertex 135.60390496479872 -40.621229147913766 1
vertex 135.6039049647987 -40.621229147913766 0
endloop
endfacet
facet normal -0.11998403396277976 0.9927758214189237 0
outer loop
vertex 135.2221364 -40.667368599999996 1
vertex 135.6039049647987 -40.621229147913766 0
vertex 135.2221364000002 -40.66736859999997 0
endloop
endfacet
facet normal -0.16756476310763455 0.9858610704174714 0
outer loop
vertex 107.6992545000003 -45.34537579999995 1
vertex 135.2221364 -40.667368599999996 1
vertex 135.2221364000002 -40.66736859999997 0
endloop
endfacet
facet normal -0.16756476310763455 0.9858610704174714 0
outer loop
vertex 107.6992545000003 -45.34537579999995 1
vertex 135.2221364000002 -40.66736859999997 0
vertex 107.6992545000004 -45.34537579999993 0
endloop
endfacet
facet normal -0.18931528849391546 0.9819163516015332 0
outer loop
vertex 107.52582188153482 -45.378813929577376 1
vertex 107.6992545000003 -45.34537579999995 1
vertex 107.6992545000004 -45.34537579999993 0
endloop
endfacet
facet normal -0.18931528849391546 0.9819163516015332 0
outer loop
vertex 107.52582188153482 -45.378813929577376 1
vertex 107.6992545000004 -45.34537579999993 0
vertex 107.52582188153468 -45.3788139295774 0
endloop
endfacet
facet normal -0.232461576075778 0.972605580720348 0
outer loop
vertex 107.35403899999926 -45.41987160000018 1
vertex 107.52582188153482 -45.378813929577376 1
vertex 107.52582188153468 -45.3788139295774 0
endloop
endfacet
facet normal -0.232461576075778 0.972605580720348 0
outer loop
vertex 107.35403899999926 -45.41987160000018 1
vertex 107.52582188153468 -45.3788139295774 0
vertex 107.3540390000001 -45.419871599999965 0
endloop
endfacet
facet normal -0.2538684388934196 0.9672387583910284 0
outer loop
vertex 91.45953499999989 -49.591657400000024 1
vertex 107.35403899999926 -45.41987160000018 1
vertex 107.3540390000001 -45.419871599999965 0
endloop
endfacet
facet normal -0.2538684388934196 0.9672387583910284 0
outer loop
vertex 91.45953499999989 -49.591657400000024 1
vertex 107.3540390000001 -45.419871599999965 0
vertex 91.45953500000005 -49.591657399999974 0
endloop
endfacet
facet normal -0.3323619049084806 0.9431519305846784 0
outer loop
vertex 90.84052287376451 -49.80979409968265 1
vertex 91.45953499999989 -49.591657400000024 1
vertex 91.45953500000005 -49.591657399999974 0
endloop
endfacet
facet normal -0.3323619049084806 0.9431519305846784 0
outer loop
vertex 90.84052287376451 -49.80979409968265 1
vertex 91.45953500000005 -49.591657399999974 0
vertex 90.84052287376454 -49.80979409968264 0
endloop
endfacet
facet normal -0.4821192624539639 0.876105596815159 0
outer loop
vertex 90.2655147857725 -50.12621996923028 1
vertex 90.84052287376451 -49.80979409968265 1
vertex 90.84052287376454 -49.80979409968264 0
endloop
endfacet
facet normal -0.4821192624539639 0.876105596815159 0
outer loop
vertex 90.2655147857725 -50.12621996923028 1
vertex 90.84052287376454 -49.80979409968264 0
vertex 90.26551478577251 -50.12621996923028 0
endloop
endfacet
facet normal -0.6188967752395198 0.7854723302562118 0
outer loop
vertex 89.74999137805429 -50.53241604044416 1
vertex 90.2655147857725 -50.12621996923028 1
vertex 90.26551478577251 -50.12621996923028 0
endloop
endfacet
facet normal -0.6188967752395198 0.7854723302562118 0
outer loop
vertex 89.74999137805429 -50.53241604044416 1
vertex 90.26551478577251 -50.12621996923028 0
vertex 89.74999137805433 -50.532416040444126 0
endloop
endfacet
facet normal -0.7390120538215152 0.6736922029432327 0
outer loop
vertex 89.30783181770256 -51.01744650893526 1
vertex 89.74999137805429 -50.53241604044416 1
vertex 89.74999137805433 -50.532416040444126 0
endloop
endfacet
facet normal -0.7390120538215152 0.6736922029432327 0
outer loop
vertex 89.30783181770256 -51.01744650893526 1
vertex 89.74999137805433 -50.532416040444126 0
vertex 89.30783181770254 -51.0174465089353 0
endloop
endfacet
facet normal -0.8392312973737084 0.5437746127840488 0
outer loop
vertex 88.95094013531619 -51.56825315306586 1
vertex 89.30783181770256 -51.01744650893526 1
vertex 89.30783181770254 -51.0174465089353 0
endloop
endfacet
facet normal -0.8392312973737084 0.5437746127840488 0
outer loop
vertex 88.95094013531619 -51.56825315306586 1
vertex 89.30783181770254 -51.0174465089353 0
vertex 88.95094013531617 -51.56825315306589 0
endloop
endfacet
facet normal -0.91685635561549 0.3992172631130601 0
outer loop
vertex 88.68892473900952 -52.17000689362203 1
vertex 88.95094013531619 -51.56825315306586 1
vertex 88.95094013531617 -51.56825315306589 0
endloop
endfacet
facet normal -0.91685635561549 0.3992172631130601 0
outer loop
vertex 88.68892473900952 -52.17000689362203 1
vertex 88.95094013531617 -51.56825315306589 0
vertex 88.68892473900952 -52.17000689362203 0
endloop
endfacet
facet normal -0.9697973697008794 0.2439119958535367 0
outer loop
vertex 88.52883973226616 -52.80650702935741 1
vertex 88.68892473900952 -52.17000689362203 1
vertex 88.68892473900952 -52.17000689362203 0
endloop
endfacet
facet normal -0.9697973697008794 0.2439119958535367 0
outer loop
vertex 88.52883973226616 -52.80650702935741 1
vertex 88.68892473900952 -52.17000689362203 0
vertex 88.52883973226616 -52.806507029357405 0
endloop
endfacet
facet normal -0.9966296325993214 0.0820327704331731 0
outer loop
vertex 88.475 -53.46061480000005 1
vertex 88.52883973226616 -52.80650702935741 1
vertex 88.52883973226616 -52.806507029357405 0
endloop
endfacet
facet normal -0.9966296325993214 0.0820327704331731 0
outer loop
vertex 88.475 -53.46061480000005 1
vertex 88.52883973226616 -52.806507029357405 0
vertex 88.475 -53.46061480000013 0
endloop
endfacet
facet normal -0.9999999999999998 2.220481576387101e-8 0
outer loop
vertex 88.4749988 -107.5029606 1
vertex 88.475 -53.46061480000005 1
vertex 88.475 -53.46061480000013 0
endloop
endfacet
facet normal -0.9999999999999998 2.220481576387101e-8 0
outer loop
vertex 88.4749988 -107.5029606 1
vertex 88.475 -53.46061480000013 0
vertex 88.4749988 -107.50296059999987 0
endloop
endfacet
endsolid csg.js
