solid csg.js
facet normal 0 0 -1
outer loop
vertex 350.14558829686086 -40.12104755704396 0
vertex 350.52636749999994 -40.16711429999999 0
vertex 378.0631693500002 -44.84749115000004 0
endloop
endfacet
facet normal 0 0 -1
outer loop
vertex 350.14558829686086 -40.12104755704396 0
vertex 378.0631693500002 -44.84749115000004 0
vertex 378.2242985398353 -44.878290712180466 0
endloop
endfacet
facet normal 0 0 -1
outer loop
vertex 350.14558829686086 -40.12104755704396 0
vertex 378.2242985398353 -44.878290712180466 0
vertex 378.38402870000004 -44.915672300000004 0
endloop
endfacet
facet normal 0 0 -1
outer loop
vertex 350.14558829686086 -40.12104755704396 0
vertex 378.38402870000004 -44.915672300000004 0
vertex 394.7661200000001 -49.10545540000005 0
endloop
endfacet
facet normal 0 0 -1
outer loop
vertex 350.14558829686086 -40.12104755704396 0
vertex 394.7661200000001 -49.10545540000005 0
vertex 395.3893687421749 -49.32096475675442 0
endloop
endfacet
facet normal 0 0 -1
outer loop
vertex 350.14558829686086 -40.12104755704396 0
vertex 395.3893687421749 -49.32096475675442 0
vertex 395.96873861124783 -49.635947029718785 0
endloop
endfacet
facet normal 0 0 -1
outer loop
vertex 350.14558829686086 -40.12104755704396 0
vertex 395.96873861124783 -49.635947029718785 0
vertex 396.4884822154981 -50.04184093619237 0
endloop
endfacet
facet normal 0 0 -1
outer loop
vertex 350.14558829686086 -40.12104755704396 0
vertex 396.4884822154981 -50.04184093619237 0
vertex 396.93447281729647 -50.527614196652685 0
endloop
endfacet
facet normal 0 0 -1
outer loop
vertex 350.14558829686086 -40.12104755704396 0
vertex 396.93447281729647 -50.527614196652685 0
vertex 397.29458830072934 -51.08006339437464 0
endloop
endfacet
facet normal 0 0 -1
outer loop
vertex 350.14558829686086 -40.12104755704396 0
vertex 397.29458830072934 -51.08006339437464 0
vertex 397.55904065318936 -51.68417284699798 0
endloop
endfacet
facet normal 0 0 -1
outer loop
vertex 350.14558829686086 -40.12104755704396 0
vertex 397.55904065318936 -51.68417284699798 0
vertex 397.7206420055665 -52.32352273585521 0
endloop
endfacet
facet normal 0 0 -1
outer loop
vertex 350.14558829686086 -40.12104755704396 0
vertex 397.7206420055665 -52.32352273585521 0
vertex 397.775 -52.98073079999995 0
endloop
endfacet
facet normal 0 0 -1
outer loop
vertex 350.14558829686086 -40.12104755704396 0
vertex 397.775 -52.98073079999995 0
vertex 397.7750012000001 -108.00296059999977 0
endloop
endfacet
facet normal 0 0 -1
outer loop
vertex 350.14558829686086 -40.12104755704396 0
vertex 397.7750012000001 -108.00296059999977 0
vertex 397.72541017641225 -108.63086935888576 0
endloop
endfacet
facet normal 0 0 -1
outer loop
vertex 350.14558829686086 -40.12104755704396 0
vertex 397.72541017641225 -108.63086935888576 0
vertex 397.5778666193783 -109.24320878917246 0
endloop
endfacet
facet normal 0 0 -1
outer loop
vertex 350.14558829686086 -40.12104755704396 0
vertex 397.5778666193783 -109.24320878917246 0
vertex 397.3360289514289 -109.82479560252573 0
endloop
endfacet
facet normal 0 0 -1
outer loop
vertex 350.14558829686086 -40.12104755704396 0
vertex 397.3360289514289 -109.82479560252573 0
vertex 397.005893668724 -110.36120903843096 0
endloop
endfacet
facet normal 0 0 -1
outer loop
vertex 350.14558829686086 -40.12104755704396 0
vertex 397.005893668724 -110.36120903843096 0
vertex 396.59564665467894 -110.83914843476957 0
endloop
endfacet
facet normal 0 0 -1
outer loop
vertex 350.14558829686086 -40.12104755704396 0
vertex 396.59564665467894 -110.83914843476957 0
vertex 396.1154602065418 -111.24676302495519 0
endloop
endfacet
facet normal 0 0 -1
outer loop
vertex 350.14558829686086 -40.12104755704396 0
vertex 396.1154602065418 -111.24676302495519 0
vertex 395.5772408077703 -111.57394578411453 0
endloop
endfacet
facet normal 0 0 -1
outer loop
vertex 350.14558829686086 -40.12104755704396 0
vertex 395.5772408077703 -111.57394578411453 0
vertex 395.3595035143136 -111.663086 0
endloop
endfacet
facet normal 0 0 -1
outer loop
vertex 350.14558829686086 -40.12104755704396 0
vertex 395.3595035143136 -111.663086 0
vertex 331.90716470000007 -111.663086 0
endloop
endfacet
facet normal 0 0 -1
outer loop
vertex 350.14558829686086 -40.12104755704396 0
vertex 331.90716470000007 -111.663086 0
vertex 268.78126744334054 -111.663086 0
endloop
endfacet
facet normal 0 0 -1
outer loop
vertex 350.14558829686086 -40.12104755704396 0
vertex 268.78126744334054 -111.663086 0
vertex 269.80405164999996 -53.16618870000106 0
endloop
endfacet
facet normal 0 0 -1
outer loop
vertex 350.14558829686086 -40.12104755704396 0
vertex 269.80405164999996 -53.16618870000106 0
vertex 269.86579763377273 -52.53257874710458 0
endloop
endfacet
facet normal 0 0 -1
outer loop
vertex 350.14558829686086 -40.12104755704396 0
vertex 269.86579763377273 -52.53257874710458 0
vertex 270.02728266401346 -51.91678923442393 0
endloop
endfacet
facet normal 0 0 -1
outer loop
vertex 350.14558829686086 -40.12104755704396 0
vertex 270.02728266401346 -51.91678923442393 0
vertex 270.2844163840611 -51.334417884739345 0
endloop
endfacet
facet normal 0 0 -1
outer loop
vertex 350.14558829686086 -40.12104755704396 0
vertex 270.2844163840611 -51.334417884739345 0
vertex 270.6306856909797 -50.80021595100482 0
endloop
endfacet
facet normal 0 0 -1
outer loop
vertex 350.14558829686086 -40.12104755704396 0
vertex 270.6306856909797 -50.80021595100482 0
vertex 271.05731971006975 -50.327714572514346 0
endloop
endfacet
facet normal 0 0 -1
outer loop
vertex 350.14558829686086 -40.12104755704396 0
vertex 271.05731971006975 -50.327714572514346 0
vertex 271.5535119579099 -49.92888203610085 0
endloop
endfacet
facet normal 0 0 -1
outer loop
vertex 350.14558829686086 -40.12104755704396 0
vertex 271.5535119579099 -49.92888203610085 0
vertex 272.1066940666281 -49.61382062381084 0
endloop
endfacet
facet normal 0 0 -1
outer loop
vertex 350.14558829686086 -40.12104755704396 0
vertex 272.1066940666281 -49.61382062381084 0
vertex 272.7028541360495 -49.39051072580592 0
endloop
endfacet
facet normal 0 0 -1
outer loop
vertex 350.14558829686086 -40.12104755704396 0
vertex 272.7028541360495 -49.39051072580592 0
vertex 273.3268933000001 -49.26460739999998 0
endloop
endfacet
facet normal 0 0 -1
outer loop
vertex 350.14558829686086 -40.12104755704396 0
vertex 273.3268933000001 -49.26460739999998 0
vertex 349.3795687499997 -40.13905215000003 0
endloop
endfacet
facet normal 0 0 -1
outer loop
vertex 350.14558829686086 -40.12104755704396 0
vertex 349.3795687499997 -40.13905215000003 0
vertex 349.762146415175 -40.111665468449516 0
endloop
endfacet
facet normal 0 0 -1
outer loop
vertex 331.90716470000007 -111.663086 0
vertex 331.25032658371885 -111.71372553174476 0
vertex 268.780382040598 -111.71372553174476 0
endloop
endfacet
facet normal 0 0 -1
outer loop
vertex 331.90716470000007 -111.663086 0
vertex 268.780382040598 -111.71372553174476 0
vertex 268.78126744334054 -111.663086 0
endloop
endfacet
facet normal 0 0 -1
outer loop
vertex 331.25032658371885 -111.71372553174476 0
vertex 330.6107086914482 -111.87148999244997 0
vertex 268.77762362081455 -111.87148999244997 0
endloop
endfacet
facet normal 0 0 -1
outer loop
vertex 331.25032658371885 -111.71372553174476 0
vertex 268.77762362081455 -111.87148999244997 0
vertex 268.780382040598 -111.71372553174476 0
endloop
endfacet
facet normal 0 0 -1
outer loop
vertex 395.3595035143136 -111.663086 0
vertex 394.99433390030896 -111.81258403825709 0
vertex 394.38119297712393 -111.95676062242292 0
endloop
endfacet
facet normal 0 0 -1
outer loop
vertex 395.3595035143136 -111.663086 0
vertex 394.38119297712393 -111.95676062242292 0
vertex 393.75302240000013 -112.0029012 0
endloop
endfacet
facet normal 0 0 -1
outer loop
vertex 395.3595035143136 -111.663086 0
vertex 393.75302240000013 -112.0029012 0
vertex 331.90716470000007 -111.663086 0
endloop
endfacet
facet normal 0 0 -1
outer loop
vertex 330.6107086914482 -111.87148999244997 0
vertex 330.0056606854254 -112.13210001448175 0
vertex 268.7730670062429 -112.13210001448175 0
endloop
endfacet
facet normal 0 0 -1
outer loop
vertex 330.6107086914482 -111.87148999244997 0
vertex 268.7730670062429 -112.13210001448175 0
vertex 268.77762362081455 -111.87148999244997 0
endloop
endfacet
facet normal 0 0 -1
outer loop
vertex 330.0056606854254 -112.13210001448175 0
vertex 329.45159451827203 -112.48848654002704 0
vertex 268.76683579524513 -112.48848654002704 0
endloop
endfacet
facet normal 0 0 -1
outer loop
vertex 330.0056606854254 -112.13210001448175 0
vertex 268.76683579524513 -112.48848654002704 0
vertex 268.7730670062429 -112.13210001448175 0
endloop
endfacet
facet normal 0 0 -1
outer loop
vertex 329.45159451827203 -112.48848654002704 0
vertex 328.9635392580823 -112.9309825695866 0
vertex 268.75909900968156 -112.9309825695866 0
endloop
endfacet
facet normal 0 0 -1
outer loop
vertex 329.45159451827203 -112.48848654002704 0
vertex 268.75909900968156 -112.9309825695866 0
vertex 268.76683579524513 -112.48848654002704 0
endloop
endfacet
facet normal 0 0 -1
outer loop
vertex 328.9635392580823 -112.9309825695866 0
vertex 328.5547334243233 -113.44758537974127 0
vertex 268.75006651018623 -113.44758537974127 0
endloop
endfacet
facet normal 0 0 -1
outer loop
vertex 328.9635392580823 -112.9309825695866 0
vertex 268.75006651018623 -113.44758537974127 0
vertex 268.75909900968156 -112.9309825695866 0
endloop
endfacet
facet normal 0 0 -1
outer loop
vertex 328.5547334243233 -113.44758537974127 0
vertex 328.2362658924356 -114.02428209753032 0
vertex 268.7399833036879 -114.02428209753032 0
endloop
endfacet
facet normal 0 0 -1
outer loop
vertex 328.5547334243233 -113.44758537974127 0
vertex 268.7399833036879 -114.02428209753032 0
vertex 268.75006651018623 -113.44758537974127 0
endloop
endfacet
facet normal 0 0 -1
outer loop
vertex 328.2362658924356 -114.02428209753032 0
vertex 328.0167751076211 -114.64542980021959 0
vertex 268.7291228975871 -114.64542980021959 0
endloop
endfacet
facet normal 0 0 -1
outer loop
vertex 328.2362658924356 -114.02428209753032 0
vertex 268.7291228975871 -114.64542980021959 0
vertex 268.7399833036879 -114.02428209753032 0
endloop
endfacet
facet normal 0 0 -1
outer loop
vertex 328.0167751076211 -114.64542980021959 0
vertex 327.9022147666522 -115.29417983024013 0
vertex 268.7177798808563 -115.29417983024013 0
endloop
endfacet
facet normal 0 0 -1
outer loop
vertex 328.0167751076211 -114.64542980021959 0
vertex 268.7177798808563 -115.29417983024013 0
vertex 268.7291228975871 -114.64542980021959 0
endloop
endfacet
facet normal 0 0 -1
outer loop
vertex 327.9022147666522 -115.29417983024013 0
vertex 327.89569232359776 -115.95293481573295 0
vertex 268.7062619333015 -115.95293481573295 0
endloop
endfacet
facet normal 0 0 -1
outer loop
vertex 327.9022147666522 -115.29417983024013 0
vertex 268.7062619333015 -115.95293481573295 0
vertex 268.7177798808563 -115.29417983024013 0
endloop
endfacet
facet normal 0 0 -1
outer loop
vertex 327.89569232359776 -115.95293481573295 0
vertex 327.9973893999999 -116.6038219999996 0
vertex 268.6948815496724 -116.6038219999996 0
endloop
endfacet
facet normal 0 0 -1
outer loop
vertex 327.89569232359776 -115.95293481573295 0
vertex 268.6948815496724 -116.6038219999996 0
vertex 268.7062619333015 -115.95293481573295 0
endloop
endfacet
facet normal 0 0 -1
outer loop
vertex 327.9973893999999 -116.6038219999996 0
vertex 329.58399792865833 -123.16041710000113 0
vertex 268.58024329999995 -123.16041710000113 0
endloop
endfacet
facet normal 0 0 -1
outer loop
vertex 327.9973893999999 -116.6038219999996 0
vertex 268.58024329999995 -123.16041710000113 0
vertex 268.6948815496724 -116.6038219999996 0
endloop
endfacet
facet normal 0 0 -1
outer loop
vertex 329.58399792865833 -123.16041710000113 0
vertex 329.7258525887736 -123.74662570321013 0
vertex 268.52667361211627 -123.74662570321013 0
endloop
endfacet
facet normal 0 0 -1
outer loop
vertex 329.58399792865833 -123.16041710000113 0
vertex 268.52667361211627 -123.74662570321013 0
vertex 268.58024329999995 -123.16041710000113 0
endloop
endfacet
facet normal 0 0 -1
outer loop
vertex 329.7258525887736 -123.74662570321013 0
vertex 329.8642695412522 -124.31862811967622 0
vertex 268.38765038092026 -124.31862811967622 0
endloop
endfacet
facet normal 0 0 -1
outer loop
vertex 329.7258525887736 -123.74662570321013 0
vertex 268.38765038092026 -124.31862811967622 0
vertex 268.52667361211627 -123.74662570321013 0
endloop
endfacet
facet normal 0 0 -1
outer loop
vertex 329.8642695412522 -124.31862811967622 0
vertex 329.99625021186745 -124.86403286358153 0
vertex 268.1661828018482 -124.86403286358153 0
endloop
endfacet
facet normal 0 0 -1
outer loop
vertex 329.8642695412522 -124.31862811967622 0
vertex 268.1661828018482 -124.86403286358153 0
vertex 268.38765038092026 -124.31862811967622 0
endloop
endfacet
facet normal 0 0 -1
outer loop
vertex 329.99625021186745 -124.86403286358153 0
vertex 330.11893627689676 -125.37102802860154 0
vertex 267.86706722903386 -125.37102802860154 0
endloop
endfacet
facet normal 0 0 -1
outer loop
vertex 329.99625021186745 -124.86403286358153 0
vertex 267.86706722903386 -125.37102802860154 0
vertex 268.1661828018482 -124.86403286358153 0
endloop
endfacet
facet normal 0 0 -1
outer loop
vertex 330.11893627689676 -125.37102802860154 0
vertex 330.22967070718227 -125.82863354999971 0
vertex 267.4967816500003 -125.82863354999971 0
endloop
endfacet
facet normal 0 0 -1
outer loop
vertex 330.11893627689676 -125.37102802860154 0
vertex 267.4967816500003 -125.82863354999971 0
vertex 267.86706722903386 -125.37102802860154 0
endloop
endfacet
facet normal 0 0 -1
outer loop
vertex 330.22967070718227 -125.82863354999971 0
vertex 330.5604885 -127.19572459999954 0
vertex 330.65864552412097 -127.80152120017647 0
endloop
endfacet
facet normal 0 0 -1
outer loop
vertex 330.22967070718227 -125.82863354999971 0
vertex 330.65864552412097 -127.80152120017647 0
vertex 330.66297723998116 -128.41520316863281 0
endloop
endfacet
facet normal 0 0 -1
outer loop
vertex 330.22967070718227 -125.82863354999971 0
vertex 330.66297723998116 -128.41520316863281 0
vertex 330.5733816832338 -129.02232503315497 0
endloop
endfacet
facet normal 0 0 -1
outer loop
vertex 330.22967070718227 -125.82863354999971 0
vertex 330.5733816832338 -129.02232503315497 0
vertex 330.39196784549284 -129.60859573995089 0
endloop
endfacet
facet normal 0 0 -1
outer loop
vertex 330.22967070718227 -125.82863354999971 0
vertex 330.39196784549284 -129.60859573995089 0
vertex 330.12300603073857 -130.160215051046 0
endloop
endfacet
facet normal 0 0 -1
outer loop
vertex 330.22967070718227 -125.82863354999971 0
vertex 330.12300603073857 -130.160215051046 0
vertex 329.772827336543 -130.664198388372 0
endloop
endfacet
facet normal 0 0 -1
outer loop
vertex 330.22967070718227 -125.82863354999971 0
vertex 329.772827336543 -130.664198388372 0
vertex 329.34967462624104 -131.10868247800155 0
endloop
endfacet
facet normal 0 0 -1
outer loop
vertex 330.22967070718227 -125.82863354999971 0
vertex 329.34967462624104 -131.10868247800155 0
vertex 328.8635070000001 -131.48320919999995 0
endloop
endfacet
facet normal 0 0 -1
outer loop
vertex 330.22967070718227 -125.82863354999971 0
vertex 328.8635070000001 -131.48320919999995 0
vertex 276.09928769999937 -166.02363365000033 0
endloop
endfacet
facet normal 0 0 -1
outer loop
vertex 330.22967070718227 -125.82863354999971 0
vertex 276.09928769999937 -166.02363365000033 0
vertex 275.5115738215412 -166.3416470605729 0
endloop
endfacet
facet normal 0 0 -1
outer loop
vertex 330.22967070718227 -125.82863354999971 0
vertex 275.5115738215412 -166.3416470605729 0
vertex 274.87911973973826 -166.55738293299166 0
endloop
endfacet
facet normal 0 0 -1
outer loop
vertex 330.22967070718227 -125.82863354999971 0
vertex 274.87911973973826 -166.55738293299166 0
vertex 274.2195764626739 -166.66482034694369 0
endloop
endfacet
facet normal 0 0 -1
outer loop
vertex 330.22967070718227 -125.82863354999971 0
vertex 274.2195764626739 -166.66482034694369 0
vertex 273.5513510242327 -166.6609608576145 0
endloop
endfacet
facet normal 0 0 -1
outer loop
vertex 330.22967070718227 -125.82863354999971 0
vertex 273.5513510242327 -166.6609608576145 0
vertex 272.89309276664324 -166.5459121785588 0
endloop
endfacet
facet normal 0 0 -1
outer loop
vertex 330.22967070718227 -125.82863354999971 0
vertex 272.89309276664324 -166.5459121785588 0
vertex 272.2631728604919 -166.32288517554906 0
endloop
endfacet
facet normal 0 0 -1
outer loop
vertex 330.22967070718227 -125.82863354999971 0
vertex 272.2631728604919 -166.32288517554906 0
vertex 271.6791715881654 -165.99810425529856 0
endloop
endfacet
facet normal 0 0 -1
outer loop
vertex 330.22967070718227 -125.82863354999971 0
vertex 271.6791715881654 -165.99810425529856 0
vertex 271.1573854000001 -165.58063730000012 0
endloop
endfacet
facet normal 0 0 -1
outer loop
vertex 330.22967070718227 -125.82863354999971 0
vertex 271.1573854000001 -165.58063730000012 0
vertex 252.35721805000017 -147.7685387000002 0
endloop
endfacet
facet normal 0 0 -1
outer loop
vertex 330.22967070718227 -125.82863354999971 0
vertex 252.35721805000017 -147.7685387000002 0
vertex 251.8959703088227 -147.2482913453778 0
endloop
endfacet
facet normal 0 0 -1
outer loop
vertex 330.22967070718227 -125.82863354999971 0
vertex 251.8959703088227 -147.2482913453778 0
vertex 251.5317769220979 -146.65603298469495 0
endloop
endfacet
facet normal 0 0 -1
outer loop
vertex 330.22967070718227 -125.82863354999971 0
vertex 251.5317769220979 -146.65603298469495 0
vertex 251.27564123704784 -146.00965747496653 0
endloop
endfacet
facet normal 0 0 -1
outer loop
vertex 330.22967070718227 -125.82863354999971 0
vertex 251.27564123704784 -146.00965747496653 0
vertex 251.13530186173443 -145.32869371053468 0
endloop
endfacet
facet normal 0 0 -1
outer loop
vertex 330.22967070718227 -125.82863354999971 0
vertex 251.13530186173443 -145.32869371053468 0
vertex 251.1149988590797 -144.63371559806257 0
endloop
endfacet
facet normal 0 0 -1
outer loop
vertex 330.22967070718227 -125.82863354999971 0
vertex 251.1149988590797 -144.63371559806257 0
vertex 251.2153456421659 -143.94572045864797 0
endloop
endfacet
facet normal 0 0 -1
outer loop
vertex 330.22967070718227 -125.82863354999971 0
vertex 251.2153456421659 -143.94572045864797 0
vertex 251.43331044123195 -143.28549463735646 0
endloop
endfacet
facet normal 0 0 -1
outer loop
vertex 330.22967070718227 -125.82863354999971 0
vertex 251.43331044123195 -143.28549463735646 0
vertex 251.76230790230494 -142.6729854869432 0
endloop
endfacet
facet normal 0 0 -1
outer loop
vertex 330.22967070718227 -125.82863354999971 0
vertex 251.76230790230494 -142.6729854869432 0
vertex 252.192396100001 -142.12669739999887 0
endloop
endfacet
facet normal 0 0 -1
outer loop
vertex 330.22967070718227 -125.82863354999971 0
vertex 252.192396100001 -142.12669739999887 0
vertex 267.4967816500003 -125.82863354999971 0
endloop
endfacet
facet normal 0 0 1
outer loop
vertex 274.8791197397381 -166.55738293299171 1
vertex 275.5115738215412 -166.3416470605729 1
vertex 276.09928770000005 -166.02363364999997 1
endloop
endfacet
facet normal 0 0 1
outer loop
vertex 274.8791197397381 -166.55738293299171 1
vertex 276.09928770000005 -166.02363364999997 1
vertex 328.86350699999934 -131.4832092000005 1
endloop
endfacet
facet normal 0 0 1
outer loop
vertex 274.8791197397381 -166.55738293299171 1
vertex 328.86350699999934 -131.4832092000005 1
vertex 329.34967462624087 -131.10868247800164 1
endloop
endfacet
facet normal 0 0 1
outer loop
vertex 274.8791197397381 -166.55738293299171 1
vertex 329.34967462624087 -131.10868247800164 1
vertex 329.7728273365433 -130.66419838837163 1
endloop
endfacet
facet normal 0 0 1
outer loop
vertex 274.8791197397381 -166.55738293299171 1
vertex 329.7728273365433 -130.66419838837163 1
vertex 330.12300603073845 -130.16021505104624 1
endloop
endfacet
facet normal 0 0 1
outer loop
vertex 274.8791197397381 -166.55738293299171 1
vertex 330.12300603073845 -130.16021505104624 1
vertex 330.3919678454928 -129.60859573995097 1
endloop
endfacet
facet normal 0 0 1
outer loop
vertex 274.8791197397381 -166.55738293299171 1
vertex 330.3919678454928 -129.60859573995097 1
vertex 330.5733816832338 -129.02232503315486 1
endloop
endfacet
facet normal 0 0 1
outer loop
vertex 274.8791197397381 -166.55738293299171 1
vertex 330.5733816832338 -129.02232503315486 1
vertex 330.66297723998116 -128.41520316863267 1
endloop
endfacet
facet normal 0 0 1
outer loop
vertex 274.8791197397381 -166.55738293299171 1
vertex 330.66297723998116 -128.41520316863267 1
vertex 330.65864552412097 -127.80152120017672 1
endloop
endfacet
facet normal 0 0 1
outer loop
vertex 274.8791197397381 -166.55738293299171 1
vertex 330.65864552412097 -127.80152120017672 1
vertex 330.5604884999998 -127.19572459999861 1
endloop
endfacet
facet normal 0 0 1
outer loop
vertex 274.8791197397381 -166.55738293299171 1
vertex 330.5604884999998 -127.19572459999861 1
vertex 330.2296707071822 -125.82863354999965 1
endloop
endfacet
facet normal 0 0 1
outer loop
vertex 274.8791197397381 -166.55738293299171 1
vertex 330.2296707071822 -125.82863354999965 1
vertex 267.49678165000034 -125.82863354999965 1
endloop
endfacet
facet normal 0 0 1
outer loop
vertex 274.8791197397381 -166.55738293299171 1
vertex 267.49678165000034 -125.82863354999965 1
vertex 252.19239610000068 -142.12669739999922 1
endloop
endfacet
facet normal 0 0 1
outer loop
vertex 274.8791197397381 -166.55738293299171 1
vertex 252.19239610000068 -142.12669739999922 1
vertex 251.76230790230483 -142.67298548694328 1
endloop
endfacet
facet normal 0 0 1
outer loop
vertex 274.8791197397381 -166.55738293299171 1
vertex 251.76230790230483 -142.67298548694328 1
vertex 251.4333104412321 -143.28549463735615 1
endloop
endfacet
facet normal 0 0 1
outer loop
vertex 274.8791197397381 -166.55738293299171 1
vertex 251.4333104412321 -143.28549463735615 1
vertex 251.21534564216583 -143.94572045864822 1
endloop
endfacet
facet normal 0 0 1
outer loop
vertex 274.8791197397381 -166.55738293299171 1
vertex 251.21534564216583 -143.94572045864822 1
vertex 251.11499885907966 -144.63371559806257 1
endloop
endfacet
facet normal 0 0 1
outer loop
vertex 274.8791197397381 -166.55738293299171 1
vertex 251.11499885907966 -144.63371559806257 1
vertex 251.13530186173438 -145.32869371053448 1
endloop
endfacet
facet normal 0 0 1
outer loop
vertex 274.8791197397381 -166.55738293299171 1
vertex 251.13530186173438 -145.32869371053448 1
vertex 251.27564123704784 -146.00965747496656 1
endloop
endfacet
facet normal 0 0 1
outer loop
vertex 274.8791197397381 -166.55738293299171 1
vertex 251.27564123704784 -146.00965747496656 1
vertex 251.53177692209786 -146.65603298469495 1
endloop
endfacet
facet normal 0 0 1
outer loop
vertex 274.8791197397381 -166.55738293299171 1
vertex 251.53177692209786 -146.65603298469495 1
vertex 251.89597030882263 -147.2482913453777 1
endloop
endfacet
facet normal 0 0 1
outer loop
vertex 274.8791197397381 -166.55738293299171 1
vertex 251.89597030882263 -147.2482913453777 1
vertex 252.35721805000006 -147.76853870000005 1
endloop
endfacet
facet normal 0 0 1
outer loop
vertex 274.8791197397381 -166.55738293299171 1
vertex 252.35721805000006 -147.76853870000005 1
vertex 271.15738539999995 -165.58063729999995 1
endloop
endfacet
facet normal 0 0 1
outer loop
vertex 274.8791197397381 -166.55738293299171 1
vertex 271.15738539999995 -165.58063729999995 1
vertex 271.6791715881655 -165.99810425529864 1
endloop
endfacet
facet normal 0 0 1
outer loop
vertex 274.8791197397381 -166.55738293299171 1
vertex 271.6791715881655 -165.99810425529864 1
vertex 272.26317286049186 -166.32288517554903 1
endloop
endfacet
facet normal 0 0 1
outer loop
vertex 274.8791197397381 -166.55738293299171 1
vertex 272.26317286049186 -166.32288517554903 1
vertex 272.8930927666431 -166.54591217855875 1
endloop
endfacet
facet normal 0 0 1
outer loop
vertex 274.8791197397381 -166.55738293299171 1
vertex 272.8930927666431 -166.54591217855875 1
vertex 273.55135102423304 -166.66096085761453 1
endloop
endfacet
facet normal 0 0 1
outer loop
vertex 274.8791197397381 -166.55738293299171 1
vertex 273.55135102423304 -166.66096085761453 1
vertex 274.2195764626739 -166.6648203469437 1
endloop
endfacet
facet normal 0 0 1
outer loop
vertex 330.2296707071822 -125.82863354999965 1
vertex 330.11893627689676 -125.3710280286016 1
vertex 267.8670672290338 -125.3710280286016 1
endloop
endfacet
facet normal 0 0 1
outer loop
vertex 330.2296707071822 -125.82863354999965 1
vertex 267.8670672290338 -125.3710280286016 1
vertex 267.49678165000034 -125.82863354999965 1
endloop
endfacet
facet normal 0 0 1
outer loop
vertex 330.11893627689676 -125.3710280286016 1
vertex 329.99625021186745 -124.86403286358147 1
vertex 268.1661828018482 -124.86403286358147 1
endloop
endfacet
facet normal 0 0 1
outer loop
vertex 330.11893627689676 -125.3710280286016 1
vertex 268.1661828018482 -124.86403286358147 1
vertex 267.8670672290338 -125.3710280286016 1
endloop
endfacet
facet normal 0 0 1
outer loop
vertex 329.99625021186745 -124.86403286358147 1
vertex 329.86426954125216 -124.31862811967595 1
vertex 268.3876503809204 -124.31862811967595 1
endloop
endfacet
facet normal 0 0 1
outer loop
vertex 329.99625021186745 -124.86403286358147 1
vertex 268.3876503809204 -124.31862811967595 1
vertex 268.1661828018482 -124.86403286358147 1
endloop
endfacet
facet normal 0 0 1
outer loop
vertex 329.86426954125216 -124.31862811967595 1
vertex 329.72585258877376 -123.74662570321063 1
vertex 268.5266736121162 -123.74662570321063 1
endloop
endfacet
facet normal 0 0 1
outer loop
vertex 329.86426954125216 -124.31862811967595 1
vertex 268.5266736121162 -123.74662570321063 1
vertex 268.3876503809204 -124.31862811967595 1
endloop
endfacet
facet normal 0 0 1
outer loop
vertex 329.72585258877376 -123.74662570321063 1
vertex 329.5839979286581 -123.16041710000023 1
vertex 268.5802433 -123.16041710000023 1
endloop
endfacet
facet normal 0 0 1
outer loop
vertex 329.72585258877376 -123.74662570321063 1
vertex 268.5802433 -123.16041710000023 1
vertex 268.5266736121162 -123.74662570321063 1
endloop
endfacet
facet normal 0 0 1
outer loop
vertex 329.5839979286581 -123.16041710000023 1
vertex 327.9973893999999 -116.60382199999961 1
vertex 268.69488154967246 -116.60382199999961 1
endloop
endfacet
facet normal 0 0 1
outer loop
vertex 329.5839979286581 -123.16041710000023 1
vertex 268.69488154967246 -116.60382199999961 1
vertex 268.5802433 -123.16041710000023 1
endloop
endfacet
facet normal 0 0 1
outer loop
vertex 327.9973893999999 -116.60382199999961 1
vertex 327.89569232359776 -115.95293481573292 1
vertex 268.7062619333015 -115.95293481573292 1
endloop
endfacet
facet normal 0 0 1
outer loop
vertex 327.9973893999999 -116.60382199999961 1
vertex 268.7062619333015 -115.95293481573292 1
vertex 268.69488154967246 -116.60382199999961 1
endloop
endfacet
facet normal 0 0 1
outer loop
vertex 327.89569232359776 -115.95293481573292 1
vertex 327.9022147666522 -115.29417983023993 1
vertex 268.7177798808563 -115.29417983023993 1
endloop
endfacet
facet normal 0 0 1
outer loop
vertex 327.89569232359776 -115.95293481573292 1
vertex 268.7177798808563 -115.29417983023993 1
vertex 268.7062619333015 -115.95293481573292 1
endloop
endfacet
facet normal 0 0 1
outer loop
vertex 327.9022147666522 -115.29417983023993 1
vertex 328.0167751076211 -114.6454298002196 1
vertex 268.72912289758716 -114.6454298002196 1
endloop
endfacet
facet normal 0 0 1
outer loop
vertex 327.9022147666522 -115.29417983023993 1
vertex 268.72912289758716 -114.6454298002196 1
vertex 268.7177798808563 -115.29417983023993 1
endloop
endfacet
facet normal 0 0 1
outer loop
vertex 328.0167751076211 -114.6454298002196 1
vertex 328.23626589243565 -114.02428209753022 1
vertex 268.7399833036879 -114.02428209753022 1
endloop
endfacet
facet normal 0 0 1
outer loop
vertex 328.0167751076211 -114.6454298002196 1
vertex 268.7399833036879 -114.02428209753022 1
vertex 268.72912289758716 -114.6454298002196 1
endloop
endfacet
facet normal 0 0 1
outer loop
vertex 328.23626589243565 -114.02428209753022 1
vertex 328.5547334243233 -113.4475853797412 1
vertex 268.75006651018623 -113.4475853797412 1
endloop
endfacet
facet normal 0 0 1
outer loop
vertex 328.23626589243565 -114.02428209753022 1
vertex 268.75006651018623 -113.4475853797412 1
vertex 268.7399833036879 -114.02428209753022 1
endloop
endfacet
facet normal 0 0 1
outer loop
vertex 328.5547334243233 -113.4475853797412 1
vertex 328.9635392580821 -112.93098256958677 1
vertex 268.75909900968156 -112.93098256958677 1
endloop
endfacet
facet normal 0 0 1
outer loop
vertex 328.5547334243233 -113.4475853797412 1
vertex 268.75909900968156 -112.93098256958677 1
vertex 268.75006651018623 -113.4475853797412 1
endloop
endfacet
facet normal 0 0 1
outer loop
vertex 328.9635392580821 -112.93098256958677 1
vertex 329.45159451827226 -112.48848654002683 1
vertex 268.76683579524513 -112.48848654002683 1
endloop
endfacet
facet normal 0 0 1
outer loop
vertex 328.9635392580821 -112.93098256958677 1
vertex 268.76683579524513 -112.48848654002683 1
vertex 268.75909900968156 -112.93098256958677 1
endloop
endfacet
facet normal 0 0 1
outer loop
vertex 329.45159451827226 -112.48848654002683 1
vertex 330.0056606854254 -112.13210001448178 1
vertex 268.77306700624297 -112.13210001448178 1
endloop
endfacet
facet normal 0 0 1
outer loop
vertex 329.45159451827226 -112.48848654002683 1
vertex 268.77306700624297 -112.13210001448178 1
vertex 268.76683579524513 -112.48848654002683 1
endloop
endfacet
facet normal 0 0 1
outer loop
vertex 330.0056606854254 -112.13210001448178 1
vertex 330.61070869144817 -111.87148999245001 1
vertex 268.77762362081455 -111.87148999245001 1
endloop
endfacet
facet normal 0 0 1
outer loop
vertex 330.0056606854254 -112.13210001448178 1
vertex 268.77762362081455 -111.87148999245001 1
vertex 268.77306700624297 -112.13210001448178 1
endloop
endfacet
facet normal 0 0 1
outer loop
vertex 330.61070869144817 -111.87148999245001 1
vertex 331.2503265837189 -111.71372553174476 1
vertex 268.780382040598 -111.71372553174476 1
endloop
endfacet
facet normal 0 0 1
outer loop
vertex 330.61070869144817 -111.87148999245001 1
vertex 268.780382040598 -111.71372553174476 1
vertex 268.77762362081455 -111.87148999245001 1
endloop
endfacet
facet normal 0 0 1
outer loop
vertex 331.2503265837189 -111.71372553174476 1
vertex 331.9071647000001 -111.663086 1
vertex 268.78126744334054 -111.663086 1
endloop
endfacet
facet normal 0 0 1
outer loop
vertex 331.2503265837189 -111.71372553174476 1
vertex 268.78126744334054 -111.663086 1
vertex 268.780382040598 -111.71372553174476 1
endloop
endfacet
facet normal 0 0 1
outer loop
vertex 394.38119297712393 -111.95676062242292 1
vertex 394.994333900309 -111.81258403825707 1
vertex 395.3595035143136 -111.663086 1
endloop
endfacet
facet normal 0 0 1
outer loop
vertex 394.38119297712393 -111.95676062242292 1
vertex 395.3595035143136 -111.663086 1
vertex 331.9071647000001 -111.663086 1
endloop
endfacet
facet normal 0 0 1
outer loop
vertex 394.38119297712393 -111.95676062242292 1
vertex 331.9071647000001 -111.663086 1
vertex 393.75302240000025 -112.0029012 1
endloop
endfacet
facet normal 0 0 1
outer loop
vertex 331.9071647000001 -111.663086 1
vertex 395.3595035143136 -111.663086 1
vertex 395.57724080777024 -111.57394578411456 1
endloop
endfacet
facet normal 0 0 1
outer loop
vertex 331.9071647000001 -111.663086 1
vertex 395.57724080777024 -111.57394578411456 1
vertex 396.1154602065418 -111.24676302495516 1
endloop
endfacet
facet normal 0 0 1
outer loop
vertex 331.9071647000001 -111.663086 1
vertex 396.1154602065418 -111.24676302495516 1
vertex 396.5956466546787 -110.83914843476977 1
endloop
endfacet
facet normal 0 0 1
outer loop
vertex 331.9071647000001 -111.663086 1
vertex 396.5956466546787 -110.83914843476977 1
vertex 397.00589366872424 -110.36120903843066 1
endloop
endfacet
facet normal 0 0 1
outer loop
vertex 331.9071647000001 -111.663086 1
vertex 397.00589366872424 -110.36120903843066 1
vertex 397.336028951429 -109.82479560252551 1
endloop
endfacet
facet normal 0 0 1
outer loop
vertex 331.9071647000001 -111.663086 1
vertex 397.336028951429 -109.82479560252551 1
vertex 397.57786661937826 -109.24320878917256 1
endloop
endfacet
facet normal 0 0 1
outer loop
vertex 331.9071647000001 -111.663086 1
vertex 397.57786661937826 -109.24320878917256 1
vertex 397.7254101764123 -108.63086935888565 1
endloop
endfacet
facet normal 0 0 1
outer loop
vertex 331.9071647000001 -111.663086 1
vertex 397.7254101764123 -108.63086935888565 1
vertex 397.7750012000001 -108.0029605999997 1
endloop
endfacet
facet normal 0 0 1
outer loop
vertex 331.9071647000001 -111.663086 1
vertex 397.7750012000001 -108.0029605999997 1
vertex 397.775 -52.98073080000039 1
endloop
endfacet
facet normal 0 0 1
outer loop
vertex 331.9071647000001 -111.663086 1
vertex 397.775 -52.98073080000039 1
vertex 397.72064200556645 -52.323522735854866 1
endloop
endfacet
facet normal 0 0 1
outer loop
vertex 331.9071647000001 -111.663086 1
vertex 397.72064200556645 -52.323522735854866 1
vertex 397.55904065318947 -51.68417284699828 1
endloop
endfacet
facet normal 0 0 1
outer loop
vertex 331.9071647000001 -111.663086 1
vertex 397.55904065318947 -51.68417284699828 1
vertex 397.29458830072934 -51.080063394374676 1
endloop
endfacet
facet normal 0 0 1
outer loop
vertex 331.9071647000001 -111.663086 1
vertex 397.29458830072934 -51.080063394374676 1
vertex 396.9344728172963 -50.52761419665251 1
endloop
endfacet
facet normal 0 0 1
outer loop
vertex 331.9071647000001 -111.663086 1
vertex 396.9344728172963 -50.52761419665251 1
vertex 396.48848221549815 -50.0418409361925 1
endloop
endfacet
facet normal 0 0 1
outer loop
vertex 331.9071647000001 -111.663086 1
vertex 396.48848221549815 -50.0418409361925 1
vertex 395.9687386112475 -49.635947029718615 1
endloop
endfacet
facet normal 0 0 1
outer loop
vertex 331.9071647000001 -111.663086 1
vertex 395.9687386112475 -49.635947029718615 1
vertex 395.38936874217495 -49.32096475675448 1
endloop
endfacet
facet normal 0 0 1
outer loop
vertex 331.9071647000001 -111.663086 1
vertex 395.38936874217495 -49.32096475675448 1
vertex 394.7661199999996 -49.105455399999904 1
endloop
endfacet
facet normal 0 0 1
outer loop
vertex 331.9071647000001 -111.663086 1
vertex 394.7661199999996 -49.105455399999904 1
vertex 378.38402870000084 -44.9156723000002 1
endloop
endfacet
facet normal 0 0 1
outer loop
vertex 331.9071647000001 -111.663086 1
vertex 378.38402870000084 -44.9156723000002 1
vertex 378.22429853983505 -44.87829071218043 1
endloop
endfacet
facet normal 0 0 1
outer loop
vertex 331.9071647000001 -111.663086 1
vertex 378.22429853983505 -44.87829071218043 1
vertex 378.06316934999984 -44.847491149999975 1
endloop
endfacet
facet normal 0 0 1
outer loop
vertex 331.9071647000001 -111.663086 1
vertex 378.06316934999984 -44.847491149999975 1
vertex 350.52636750000005 -40.167114300000016 1
endloop
endfacet
facet normal 0 0 1
outer loop
vertex 331.9071647000001 -111.663086 1
vertex 350.52636750000005 -40.167114300000016 1
vertex 350.1455882968607 -40.12104755704395 1
endloop
endfacet
facet normal 0 0 1
outer loop
vertex 331.9071647000001 -111.663086 1
vertex 350.1455882968607 -40.12104755704395 1
vertex 349.7621464151749 -40.11166546844951 1
endloop
endfacet
facet normal 0 0 1
outer loop
vertex 331.9071647000001 -111.663086 1
vertex 349.7621464151749 -40.11166546844951 1
vertex 349.37956874999986 -40.13905215000001 1
endloop
endfacet
facet normal 0 0 1
outer loop
vertex 331.9071647000001 -111.663086 1
vertex 349.37956874999986 -40.13905215000001 1
vertex 273.32689330000005 -49.26460739999999 1
endloop
endfacet
facet normal 0 0 1
outer loop
vertex 331.9071647000001 -111.663086 1
vertex 273.32689330000005 -49.26460739999999 1
vertex 272.70285413604955 -49.390510725805896 1
endloop
endfacet
facet normal 0 0 1
outer loop
vertex 331.9071647000001 -111.663086 1
vertex 272.70285413604955 -49.390510725805896 1
vertex 272.10669406662805 -49.61382062381086 1
endloop
endfacet
facet normal 0 0 1
outer loop
vertex 331.9071647000001 -111.663086 1
vertex 272.10669406662805 -49.61382062381086 1
vertex 271.55351195791013 -49.92888203610071 1
endloop
endfacet
facet normal 0 0 1
outer loop
vertex 331.9071647000001 -111.663086 1
vertex 271.55351195791013 -49.92888203610071 1
vertex 271.05731971006963 -50.32771457251447 1
endloop
endfacet
facet normal 0 0 1
outer loop
vertex 331.9071647000001 -111.663086 1
vertex 271.05731971006963 -50.32771457251447 1
vertex 270.63068569097976 -50.80021595100479 1
endloop
endfacet
facet normal 0 0 1
outer loop
vertex 331.9071647000001 -111.663086 1
vertex 270.63068569097976 -50.80021595100479 1
vertex 270.28441638406105 -51.334417884739494 1
endloop
endfacet
facet normal 0 0 1
outer loop
vertex 331.9071647000001 -111.663086 1
vertex 270.28441638406105 -51.334417884739494 1
vertex 270.0272826640134 -51.91678923442417 1
endloop
endfacet
facet normal 0 0 1
outer loop
vertex 331.9071647000001 -111.663086 1
vertex 270.0272826640134 -51.91678923442417 1
vertex 269.8657976337726 -52.53257874710492 1
endloop
endfacet
facet normal 0 0 1
outer loop
vertex 331.9071647000001 -111.663086 1
vertex 269.8657976337726 -52.53257874710492 1
vertex 269.80405165 -53.166188700000134 1
endloop
endfacet
facet normal 0 0 1
outer loop
vertex 331.9071647000001 -111.663086 1
vertex 269.80405165 -53.166188700000134 1
vertex 268.78126744334054 -111.663086 1
endloop
endfacet
facet normal 0.9999999999999998 2.1809341888001654e-8 0
outer loop
vertex 397.775 -52.98073080000039 1
vertex 397.7750012000001 -108.0029605999997 1
vertex 397.7750012000001 -108.00296059999977 0
endloop
endfacet
facet normal 0.9999999999999998 2.1809341888001654e-8 0
outer loop
vertex 397.775 -52.98073080000039 1
vertex 397.7750012000001 -108.00296059999977 0
vertex 397.775 -52.98073079999995 0
endloop
endfacet
facet normal 0.9965969386476154 0.0824290111441427 0
outer loop
vertex 397.72064200556645 -52.323522735854866 1
vertex 397.775 -52.98073080000039 1
vertex 397.775 -52.98073079999995 0
endloop
endfacet
facet normal 0.9965969386476154 0.0824290111441427 0
outer loop
vertex 397.72064200556645 -52.323522735854866 1
vertex 397.775 -52.98073079999995 0
vertex 397.7206420055665 -52.32352273585521 0
endloop
endfacet
facet normal 0.9695098816913532 0.24505221750234843 0
outer loop
vertex 397.55904065318947 -51.68417284699828 1
vertex 397.72064200556645 -52.323522735854866 1
vertex 397.7206420055665 -52.32352273585521 0
endloop
endfacet
facet normal 0.9695098816913532 0.24505221750234843 0
outer loop
vertex 397.55904065318947 -51.68417284699828 1
vertex 397.7206420055665 -52.32352273585521 0
vertex 397.55904065318936 -51.68417284699798 0
endloop
endfacet
facet normal 0.9160713001597033 0.4010154274135984 0
outer loop
vertex 397.29458830072934 -51.080063394374676 1
vertex 397.55904065318947 -51.68417284699828 1
vertex 397.55904065318936 -51.68417284699798 0
endloop
endfacet
facet normal 0.9160713001597033 0.4010154274135984 0
outer loop
vertex 397.29458830072934 -51.080063394374676 1
vertex 397.55904065318936 -51.68417284699798 0
vertex 397.29458830072934 -51.08006339437464 0
endloop
endfacet
facet normal 0.837733713039851 0.5460789558630368 0
outer loop
vertex 396.9344728172963 -50.52761419665251 1
vertex 397.29458830072934 -51.080063394374676 1
vertex 397.29458830072934 -51.08006339437464 0
endloop
endfacet
facet normal 0.837733713039851 0.5460789558630368 0
outer loop
vertex 396.9344728172963 -50.52761419665251 1
vertex 397.29458830072934 -51.08006339437464 0
vertex 396.93447281729647 -50.527614196652685 0
endloop
endfacet
facet normal 0.7366263519966129 0.6762999464321746 0
outer loop
vertex 396.48848221549815 -50.0418409361925 1
vertex 396.9344728172963 -50.52761419665251 1
vertex 396.93447281729647 -50.527614196652685 0
endloop
endfacet
facet normal 0.7366263519966129 0.6762999464321746 0
outer loop
vertex 396.48848221549815 -50.0418409361925 1
vertex 396.93447281729647 -50.527614196652685 0
vertex 396.4884822154981 -50.04184093619237 0
endloop
endfacet
facet normal 0.6154973358140741 0.788138965922747 0
outer loop
vertex 395.9687386112475 -49.635947029718615 1
vertex 396.48848221549815 -50.0418409361925 1
vertex 396.4884822154981 -50.04184093619237 0
endloop
endfacet
facet normal 0.6154973358140741 0.788138965922747 0
outer loop
vertex 395.9687386112475 -49.635947029718615 1
vertex 396.4884822154981 -50.04184093619237 0
vertex 395.96873861124783 -49.635947029718785 0
endloop
endfacet
facet normal 0.4776389759644107 0.8785562068756154 0
outer loop
vertex 395.38936874217495 -49.32096475675448 1
vertex 395.9687386112475 -49.635947029718615 1
vertex 395.96873861124783 -49.635947029718785 0
endloop
endfacet
facet normal 0.4776389759644107 0.8785562068756154 0
outer loop
vertex 395.38936874217495 -49.32096475675448 1
vertex 395.96873861124783 -49.635947029718785 0
vertex 395.3893687421749 -49.32096475675442 0
endloop
endfacet
facet normal 0.3267982909075608 0.9450941101604101 0
outer loop
vertex 394.7661199999996 -49.105455399999904 1
vertex 395.38936874217495 -49.32096475675448 1
vertex 395.3893687421749 -49.32096475675442 0
endloop
endfacet
facet normal 0.3267982909075608 0.9450941101604101 0
outer loop
vertex 394.7661199999996 -49.105455399999904 1
vertex 395.3893687421749 -49.32096475675442 0
vertex 394.7661200000001 -49.10545540000005 0
endloop
endfacet
facet normal 0.24777860677861008 0.9688166813297814 0
outer loop
vertex 378.38402870000084 -44.9156723000002 1
vertex 394.7661199999996 -49.105455399999904 1
vertex 394.7661200000001 -49.10545540000005 0
endloop
endfacet
facet normal 0.24777860677861008 0.9688166813297814 0
outer loop
vertex 378.38402870000084 -44.9156723000002 1
vertex 394.7661200000001 -49.10545540000005 0
vertex 378.38402870000004 -44.915672300000004 0
endloop
endfacet
facet normal 0.22787252338969216 0.973690974120647 0
outer loop
vertex 378.22429853983505 -44.87829071218043 1
vertex 378.38402870000084 -44.9156723000002 1
vertex 378.38402870000004 -44.915672300000004 0
endloop
endfacet
facet normal 0.22787252338969216 0.973690974120647 0
outer loop
vertex 378.22429853983505 -44.87829071218043 1
vertex 378.38402870000004 -44.915672300000004 0
vertex 378.2242985398353 -44.878290712180466 0
endloop
endfacet
facet normal 0.18774906301982602 0.9822170276141508 0
outer loop
vertex 378.06316934999984 -44.847491149999975 1
vertex 378.22429853983505 -44.87829071218043 1
vertex 378.2242985398353 -44.878290712180466 0
endloop
endfacet
facet normal 0.18774906301982602 0.9822170276141508 0
outer loop
vertex 378.06316934999984 -44.847491149999975 1
vertex 378.2242985398353 -44.878290712180466 0
vertex 378.0631693500002 -44.84749115000004 0
endloop
endfacet
facet normal 0.16756489202618494 0.9858610485054439 0
outer loop
vertex 350.52636750000005 -40.167114300000016 1
vertex 378.06316934999984 -44.847491149999975 1
vertex 378.0631693500002 -44.84749115000004 0
endloop
endfacet
facet normal 0.16756489202618494 0.9858610485054439 0
outer loop
vertex 350.52636750000005 -40.167114300000016 1
vertex 378.0631693500002 -44.84749115000004 0
vertex 350.52636749999994 -40.16711429999999 0
endloop
endfacet
facet normal 0.1201044527355477 0.9927612605420775 0
outer loop
vertex 350.1455882968607 -40.12104755704395 1
vertex 350.52636750000005 -40.167114300000016 1
vertex 350.52636749999994 -40.16711429999999 0
endloop
endfacet
facet normal 0.1201044527355477 0.9927612605420775 0
outer loop
vertex 350.1455882968607 -40.12104755704395 1
vertex 350.52636749999994 -40.16711429999999 0
vertex 350.14558829686086 -40.12104755704396 0
endloop
endfacet
facet normal 0.024460764028958696 0.9997007907484717 0
outer loop
vertex 349.7621464151749 -40.11166546844951 1
vertex 350.1455882968607 -40.12104755704395 1
vertex 350.14558829686086 -40.12104755704396 0
endloop
endfacet
facet normal 0.024460764028958696 0.9997007907484717 0
outer loop
vertex 349.7621464151749 -40.11166546844951 1
vertex 350.14558829686086 -40.12104755704396 0
vertex 349.762146415175 -40.111665468449516 0
endloop
endfacet
facet normal -0.07140192167230451 0.9974476254829134 0
outer loop
vertex 349.37956874999986 -40.13905215000001 1
vertex 349.7621464151749 -40.11166546844951 1
vertex 349.762146415175 -40.111665468449516 0
endloop
endfacet
facet normal -0.07140192167230451 0.9974476254829134 0
outer loop
vertex 349.37956874999986 -40.13905215000001 1
vertex 349.762146415175 -40.111665468449516 0
vertex 349.3795687499997 -40.13905215000003 0
endloop
endfacet
facet normal -0.11913536486002847 0.9928780211283096 0
outer loop
vertex 273.32689330000005 -49.26460739999999 1
vertex 349.37956874999986 -40.13905215000001 1
vertex 349.3795687499997 -40.13905215000003 0
endloop
endfacet
facet normal -0.11913536486002847 0.9928780211283096 0
outer loop
vertex 273.32689330000005 -49.26460739999999 1
vertex 349.3795687499997 -40.13905215000003 0
vertex 273.3268933000001 -49.26460739999998 0
endloop
endfacet
facet normal -0.19777048462181296 0.9802483539452913 0
outer loop
vertex 272.70285413604955 -49.390510725805896 1
vertex 273.32689330000005 -49.26460739999999 1
vertex 273.3268933000001 -49.26460739999998 0
endloop
endfacet
facet normal -0.19777048462181296 0.9802483539452913 0
outer loop
vertex 272.70285413604955 -49.390510725805896 1
vertex 273.3268933000001 -49.26460739999998 0
vertex 272.7028541360495 -49.39051072580592 0
endloop
endfacet
facet normal -0.35077895288608707 0.9364582885596884 0
outer loop
vertex 272.10669406662805 -49.61382062381086 1
vertex 272.70285413604955 -49.390510725805896 1
vertex 272.7028541360495 -49.39051072580592 0
endloop
endfacet
facet normal -0.35077895288608707 0.9364582885596884 0
outer loop
vertex 272.10669406662805 -49.61382062381086 1
vertex 272.7028541360495 -49.39051072580592 0
vertex 272.1066940666281 -49.61382062381084 0
endloop
endfacet
facet normal -0.4949037784943192 0.8689477832597571 0
outer loop
vertex 271.55351195791013 -49.92888203610071 1
vertex 272.10669406662805 -49.61382062381086 1
vertex 272.1066940666281 -49.61382062381084 0
endloop
endfacet
facet normal -0.4949037784943192 0.8689477832597571 0
outer loop
vertex 271.55351195791013 -49.92888203610071 1
vertex 272.1066940666281 -49.61382062381084 0
vertex 271.5535119579099 -49.92888203610085 0
endloop
endfacet
facet normal -0.6264928726852774 0.7794271489206344 0
outer loop
vertex 271.05731971006963 -50.32771457251447 1
vertex 271.55351195791013 -49.92888203610071 1
vertex 271.5535119579099 -49.92888203610085 0
endloop
endfacet
facet normal -0.6264928726852774 0.7794271489206344 0
outer loop
vertex 271.05731971006963 -50.32771457251447 1
vertex 271.5535119579099 -49.92888203610085 0
vertex 271.05731971006975 -50.327714572514346 0
endloop
endfacet
facet normal -0.7422131319064927 0.6701639104171122 0
outer loop
vertex 270.63068569097976 -50.80021595100479 1
vertex 271.05731971006963 -50.32771457251447 1
vertex 271.05731971006975 -50.327714572514346 0
endloop
endfacet
facet normal -0.7422131319064927 0.6701639104171122 0
outer loop
vertex 270.63068569097976 -50.80021595100479 1
vertex 271.05731971006975 -50.327714572514346 0
vertex 270.6306856909797 -50.80021595100482 0
endloop
endfacet
facet normal -0.8391334043820985 0.5439256655556066 0
outer loop
vertex 270.28441638406105 -51.334417884739494 1
vertex 270.63068569097976 -50.80021595100479 1
vertex 270.6306856909797 -50.80021595100482 0
endloop
endfacet
facet normal -0.8391334043820985 0.5439256655556066 0
outer loop
vertex 270.28441638406105 -51.334417884739494 1
vertex 270.6306856909797 -50.80021595100482 0
vertex 270.2844163840611 -51.334417884739345 0
endloop
endfacet
facet normal -0.9147987351140092 0.403909982835048 0
outer loop
vertex 270.0272826640134 -51.91678923442417 1
vertex 270.28441638406105 -51.334417884739494 1
vertex 270.2844163840611 -51.334417884739345 0
endloop
endfacet
facet normal -0.9147987351140092 0.403909982835048 0
outer loop
vertex 270.0272826640134 -51.91678923442417 1
vertex 270.2844163840611 -51.334417884739345 0
vertex 270.02728266401346 -51.91678923442393 0
endloop
endfacet
facet normal -0.9672925489922924 0.2536634082085817 0
outer loop
vertex 269.8657976337726 -52.53257874710492 1
vertex 270.0272826640134 -51.91678923442417 1
vertex 270.02728266401346 -51.91678923442393 0
endloop
endfacet
facet normal -0.9672925489922924 0.2536634082085817 0
outer loop
vertex 269.8657976337726 -52.53257874710492 1
vertex 270.02728266401346 -51.91678923442393 0
vertex 269.86579763377273 -52.53257874710458 0
endloop
endfacet
facet normal -0.9952851969408142 0.09699163237354481 0
outer loop
vertex 269.80405165 -53.166188700000134 1
vertex 269.8657976337726 -52.53257874710492 1
vertex 269.86579763377273 -52.53257874710458 0
endloop
endfacet
facet normal -0.9952851969408142 0.09699163237354481 0
outer loop
vertex 269.80405165 -53.166188700000134 1
vertex 269.86579763377273 -52.53257874710458 0
vertex 269.80405164999996 -53.16618870000106 0
endloop
endfacet
facet normal 0 0 1
outer loop
vertex 268.5802433 -123.16041710000023 1
vertex 268.69488154967246 -116.60382199999961 1
vertex 268.7062619333015 -115.95293481573292 1
endloop
endfacet
facet normal 0 0 1
outer loop
vertex 268.5802433 -123.16041710000023 1
vertex 268.7062619333015 -115.95293481573292 1
vertex 268.7177798808563 -115.29417983023993 1
endloop
endfacet
facet normal 0 0 1
outer loop
vertex 268.5802433 -123.16041710000023 1
vertex 268.7177798808563 -115.29417983023993 1
vertex 268.72912289758716 -114.6454298002196 1
endloop
endfacet
facet normal 0 0 1
outer loop
vertex 268.5802433 -123.16041710000023 1
vertex 268.72912289758716 -114.6454298002196 1
vertex 268.7399833036879 -114.02428209753022 1
endloop
endfacet
facet normal 0 0 1
outer loop
vertex 268.5802433 -123.16041710000023 1
vertex 268.7399833036879 -114.02428209753022 1
vertex 268.75006651018623 -113.4475853797412 1
endloop
endfacet
facet normal 0 0 1
outer loop
vertex 268.5802433 -123.16041710000023 1
vertex 268.75006651018623 -113.4475853797412 1
vertex 268.75909900968156 -112.93098256958677 1
endloop
endfacet
facet normal 0 0 1
outer loop
vertex 268.5802433 -123.16041710000023 1
vertex 268.75909900968156 -112.93098256958677 1
vertex 268.76683579524513 -112.48848654002683 1
endloop
endfacet
facet normal 0 0 1
outer loop
vertex 268.5802433 -123.16041710000023 1
vertex 268.76683579524513 -112.48848654002683 1
vertex 268.77306700624297 -112.13210001448178 1
endloop
endfacet
facet normal 0 0 1
outer loop
vertex 268.5802433 -123.16041710000023 1
vertex 268.77306700624297 -112.13210001448178 1
vertex 268.77762362081455 -111.87148999245001 1
endloop
endfacet
facet normal 0 0 1
outer loop
vertex 268.5802433 -123.16041710000023 1
vertex 268.77762362081455 -111.87148999245001 1
vertex 268.780382040598 -111.71372553174476 1
endloop
endfacet
facet normal 0 0 1
outer loop
vertex 268.5802433 -123.16041710000023 1
vertex 268.780382040598 -111.71372553174476 1
vertex 268.78126744334054 -111.663086 1
endloop
endfacet
facet normal 0 0 1
outer loop
vertex 268.5802433 -123.16041710000023 1
vertex 268.78126744334054 -111.663086 1
vertex 269.80405165 -53.166188700000134 1
endloop
endfacet
facet normal 0 0 1
outer loop
vertex 268.5802433 -123.16041710000023 1
vertex 269.80405165 -53.166188700000134 1
vertex 269.80405164999996 -53.16618870000106 0
endloop
endfacet
facet normal 0 0 1
outer loop
vertex 268.5802433 -123.16041710000023 1
vertex 269.80405164999996 -53.16618870000106 0
vertex 268.78126744334054 -111.663086 0
endloop
endfacet
facet normal 0 0 1
outer loop
vertex 268.5802433 -123.16041710000023 1
vertex 268.78126744334054 -111.663086 0
vertex 268.780382040598 -111.71372553174476 0
endloop
endfacet
facet normal 0 0 1
outer loop
vertex 268.5802433 -123.16041710000023 1
vertex 268.780382040598 -111.71372553174476 0
vertex 268.77762362081455 -111.87148999244997 0
endloop
endfacet
facet normal 0 0 1
outer loop
vertex 268.5802433 -123.16041710000023 1
vertex 268.77762362081455 -111.87148999244997 0
vertex 268.7730670062429 -112.13210001448175 0
endloop
endfacet
facet normal 0 0 1
outer loop
vertex 268.5802433 -123.16041710000023 1
vertex 268.7730670062429 -112.13210001448175 0
vertex 268.76683579524513 -112.48848654002704 0
endloop
endfacet
facet normal 0 0 1
outer loop
vertex 268.5802433 -123.16041710000023 1
vertex 268.76683579524513 -112.48848654002704 0
vertex 268.75909900968156 -112.9309825695866 0
endloop
endfacet
facet normal 0 0 1
outer loop
vertex 268.5802433 -123.16041710000023 1
vertex 268.75909900968156 -112.9309825695866 0
vertex 268.75006651018623 -113.44758537974127 0
endloop
endfacet
facet normal 0 0 1
outer loop
vertex 268.5802433 -123.16041710000023 1
vertex 268.75006651018623 -113.44758537974127 0
vertex 268.7399833036879 -114.02428209753032 0
endloop
endfacet
facet normal 0 0 1
outer loop
vertex 268.5802433 -123.16041710000023 1
vertex 268.7399833036879 -114.02428209753032 0
vertex 268.7291228975871 -114.64542980021959 0
endloop
endfacet
facet normal 0 0 1
outer loop
vertex 268.5802433 -123.16041710000023 1
vertex 268.7291228975871 -114.64542980021959 0
vertex 268.7177798808563 -115.29417983024013 0
endloop
endfacet
facet normal 0 0 1
outer loop
vertex 268.5802433 -123.16041710000023 1
vertex 268.7177798808563 -115.29417983024013 0
vertex 268.7062619333015 -115.95293481573295 0
endloop
endfacet
facet normal 0 0 1
outer loop
vertex 268.5802433 -123.16041710000023 1
vertex 268.7062619333015 -115.95293481573295 0
vertex 268.6948815496724 -116.6038219999996 0
endloop
endfacet
facet normal 0 0 1
outer loop
vertex 268.5802433 -123.16041710000023 1
vertex 268.6948815496724 -116.6038219999996 0
vertex 268.58024329999995 -123.16041710000113 0
endloop
endfacet
facet normal -0.9958505154605793 0.0910041254938393 0
outer loop
vertex 268.5266736121162 -123.74662570321063 1
vertex 268.5802433 -123.16041710000023 1
vertex 268.58024329999995 -123.16041710000113 0
endloop
endfacet
facet normal -0.9958505154605793 0.0910041254938393 0
outer loop
vertex 268.5266736121162 -123.74662570321063 1
vertex 268.58024329999995 -123.16041710000113 0
vertex 268.52667361211627 -123.74662570321013 0
endloop
endfacet
facet normal -0.9717114734505375 0.23617115057640994 0
outer loop
vertex 268.3876503809204 -124.31862811967595 1
vertex 268.5266736121162 -123.74662570321063 1
vertex 268.52667361211627 -123.74662570321013 0
endloop
endfacet
facet normal -0.9717114734505375 0.23617115057640994 0
outer loop
vertex 268.3876503809204 -124.31862811967595 1
vertex 268.52667361211627 -123.74662570321013 0
vertex 268.38765038092026 -124.31862811967622 0
endloop
endfacet
facet normal -0.9265276370718569 0.37622671056431056 0
outer loop
vertex 268.1661828018482 -124.86403286358147 1
vertex 268.3876503809204 -124.31862811967595 1
vertex 268.38765038092026 -124.31862811967622 0
endloop
endfacet
facet normal -0.9265276370718569 0.37622671056431056 0
outer loop
vertex 268.1661828018482 -124.86403286358147 1
vertex 268.38765038092026 -124.31862811967622 0
vertex 268.1661828018482 -124.86403286358153 0
endloop
endfacet
facet normal -0.8612778629129791 0.5081342764034439 0
outer loop
vertex 267.8670672290338 -125.3710280286016 1
vertex 268.1661828018482 -124.86403286358147 1
vertex 268.1661828018482 -124.86403286358153 0
endloop
endfacet
facet normal -0.8612778629129791 0.5081342764034439 0
outer loop
vertex 267.8670672290338 -125.3710280286016 1
vertex 268.1661828018482 -124.86403286358153 0
vertex 267.86706722903386 -125.37102802860154 0
endloop
endfacet
facet normal -0.7773752743994811 0.6290371076115713 0
outer loop
vertex 267.49678165000034 -125.82863354999965 1
vertex 267.8670672290338 -125.3710280286016 1
vertex 267.86706722903386 -125.37102802860154 0
endloop
endfacet
facet normal -0.7773752743994811 0.6290371076115713 0
outer loop
vertex 267.49678165000034 -125.82863354999965 1
vertex 267.86706722903386 -125.37102802860154 0
vertex 267.4967816500003 -125.82863354999971 0
endloop
endfacet
facet normal -0.7289801249348646 0.684534862114377 0
outer loop
vertex 252.19239610000068 -142.12669739999922 1
vertex 267.49678165000034 -125.82863354999965 1
vertex 267.4967816500003 -125.82863354999971 0
endloop
endfacet
facet normal -0.7289801249348646 0.684534862114377 0
outer loop
vertex 252.19239610000068 -142.12669739999922 1
vertex 267.4967816500003 -125.82863354999971 0
vertex 252.192396100001 -142.12669739999887 0
endloop
endfacet
facet normal -0.7857157750874556 0.6185876823690551 0
outer loop
vertex 251.76230790230483 -142.67298548694328 1
vertex 252.19239610000068 -142.12669739999922 1
vertex 252.192396100001 -142.12669739999887 0
endloop
endfacet
facet normal -0.7857157750874556 0.6185876823690551 0
outer loop
vertex 251.76230790230483 -142.67298548694328 1
vertex 252.192396100001 -142.12669739999887 0
vertex 251.76230790230494 -142.6729854869432 0
endloop
endfacet
facet normal -0.8809600381903593 0.4731906709896559 0
outer loop
vertex 251.4333104412321 -143.28549463735615 1
vertex 251.76230790230483 -142.67298548694328 1
vertex 251.76230790230494 -142.6729854869432 0
endloop
endfacet
facet normal -0.8809600381903593 0.4731906709896559 0
outer loop
vertex 251.4333104412321 -143.28549463735615 1
vertex 251.76230790230494 -142.6729854869432 0
vertex 251.43331044123195 -143.28549463735646 0
endloop
endfacet
facet normal -0.9495900009772602 0.31349454547728106 0
outer loop
vertex 251.21534564216583 -143.94572045864822 1
vertex 251.4333104412321 -143.28549463735615 1
vertex 251.43331044123195 -143.28549463735646 0
endloop
endfacet
facet normal -0.9495900009772602 0.31349454547728106 0
outer loop
vertex 251.21534564216583 -143.94572045864822 1
vertex 251.43331044123195 -143.28549463735646 0
vertex 251.2153456421659 -143.94572045864797 0
endloop
endfacet
facet normal -0.98953007295259 0.1443268329952616 0
outer loop
vertex 251.11499885907966 -144.63371559806257 1
vertex 251.21534564216583 -143.94572045864822 1
vertex 251.2153456421659 -143.94572045864797 0
endloop
endfacet
facet normal -0.98953007295259 0.1443268329952616 0
outer loop
vertex 251.11499885907966 -144.63371559806257 1
vertex 251.2153456421659 -143.94572045864797 0
vertex 251.1149988590797 -144.63371559806257 0
endloop
endfacet
facet normal -0.9995735477453929 -0.0292014151658577 0
outer loop
vertex 251.13530186173438 -145.32869371053448 1
vertex 251.11499885907966 -144.63371559806257 1
vertex 251.1149988590797 -144.63371559806257 0
endloop
endfacet
facet normal -0.9995735477453929 -0.0292014151658577 0
outer loop
vertex 251.13530186173438 -145.32869371053448 1
vertex 251.1149988590797 -144.63371559806257 0
vertex 251.13530186173443 -145.32869371053468 0
endloop
endfacet
facet normal -0.9794169826120892 -0.2018474031812906 0
outer loop
vertex 251.27564123704784 -146.00965747496656 1
vertex 251.13530186173438 -145.32869371053448 1
vertex 251.13530186173443 -145.32869371053468 0
endloop
endfacet
facet normal -0.9794169826120892 -0.2018474031812906 0
outer loop
vertex 251.27564123704784 -146.00965747496656 1
vertex 251.13530186173443 -145.32869371053468 0
vertex 251.27564123704784 -146.00965747496653 0
endloop
endfacet
facet normal -0.9296693663291111 -0.36839499088509464 0
outer loop
vertex 251.53177692209786 -146.65603298469495 1
vertex 251.27564123704784 -146.00965747496656 1
vertex 251.27564123704784 -146.00965747496653 0
endloop
endfacet
facet normal -0.9296693663291111 -0.36839499088509464 0
outer loop
vertex 251.53177692209786 -146.65603298469495 1
vertex 251.27564123704784 -146.00965747496653 0
vertex 251.5317769220979 -146.65603298469495 0
endloop
endfacet
facet normal -0.8518337198611171 -0.5238122886183292 0
outer loop
vertex 251.89597030882263 -147.2482913453777 1
vertex 251.53177692209786 -146.65603298469495 1
vertex 251.5317769220979 -146.65603298469495 0
endloop
endfacet
facet normal -0.8518337198611171 -0.5238122886183292 0
outer loop
vertex 251.89597030882263 -147.2482913453777 1
vertex 251.5317769220979 -146.65603298469495 0
vertex 251.8959703088227 -147.2482913453778 0
endloop
endfacet
facet normal -0.7482616857023398 -0.6634036853303522 0
outer loop
vertex 252.35721805000006 -147.76853870000005 1
vertex 251.89597030882263 -147.2482913453777 1
vertex 251.8959703088227 -147.2482913453778 0
endloop
endfacet
facet normal -0.7482616857023398 -0.6634036853303522 0
outer loop
vertex 252.35721805000006 -147.76853870000005 1
vertex 251.8959703088227 -147.2482913453778 0
vertex 252.35721805000017 -147.7685387000002 0
endloop
endfacet
facet normal -0.6877734158640944 -0.7259254289736898 0
outer loop
vertex 271.15738539999995 -165.58063729999995 1
vertex 252.35721805000006 -147.76853870000005 1
vertex 252.35721805000017 -147.7685387000002 0
endloop
endfacet
facet normal -0.6877734158640944 -0.7259254289736898 0
outer loop
vertex 271.15738539999995 -165.58063729999995 1
vertex 252.35721805000017 -147.7685387000002 0
vertex 271.1573854000001 -165.58063730000012 0
endloop
endfacet
facet normal -0.6247297257561862 -0.7808410656187342 0
outer loop
vertex 271.6791715881655 -165.99810425529864 1
vertex 271.15738539999995 -165.58063729999995 1
vertex 271.1573854000001 -165.58063730000012 0
endloop
endfacet
facet normal -0.6247297257561862 -0.7808410656187342 0
outer loop
vertex 271.6791715881655 -165.99810425529864 1
vertex 271.1573854000001 -165.58063730000012 0
vertex 271.6791715881654 -165.99810425529856 0
endloop
endfacet
facet normal -0.4860268473946686 -0.8739438789828554 0
outer loop
vertex 272.26317286049186 -166.32288517554903 1
vertex 271.6791715881655 -165.99810425529864 1
vertex 271.6791715881654 -165.99810425529856 0
endloop
endfacet
facet normal -0.4860268473946686 -0.8739438789828554 0
outer loop
vertex 272.26317286049186 -166.32288517554903 1
vertex 271.6791715881654 -165.99810425529856 0
vertex 272.2631728604919 -166.32288517554906 0
endloop
endfacet
facet normal -0.3337545539103028 -0.9426600117455578 0
outer loop
vertex 272.8930927666431 -166.54591217855875 1
vertex 272.26317286049186 -166.32288517554903 1
vertex 272.2631728604919 -166.32288517554906 0
endloop
endfacet
facet normal -0.3337545539103028 -0.9426600117455578 0
outer loop
vertex 272.8930927666431 -166.54591217855875 1
vertex 272.2631728604919 -166.32288517554906 0
vertex 272.89309276664324 -166.5459121785588 0
endloop
endfacet
facet normal -0.17216758526109283 -0.9850676741145069 0
outer loop
vertex 273.55135102423304 -166.66096085761453 1
vertex 272.8930927666431 -166.54591217855875 1
vertex 272.89309276664324 -166.5459121785588 0
endloop
endfacet
facet normal -0.17216758526109283 -0.9850676741145069 0
outer loop
vertex 273.55135102423304 -166.66096085761453 1
vertex 272.89309276664324 -166.5459121785588 0
vertex 273.5513510242327 -166.6609608576145 0
endloop
endfacet
facet normal -0.005775633093776379 -0.9999833208920867 0
outer loop
vertex 274.2195764626739 -166.6648203469437 1
vertex 273.55135102423304 -166.66096085761453 1
vertex 273.5513510242327 -166.6609608576145 0
endloop
endfacet
facet normal -0.005775633093776379 -0.9999833208920867 0
outer loop
vertex 274.2195764626739 -166.6648203469437 1
vertex 273.5513510242327 -166.6609608576145 0
vertex 274.2195764626739 -166.66482034694369 0
endloop
endfacet
facet normal 0.16077750982134414 -0.9869906748980194 0
outer loop
vertex 274.8791197397381 -166.55738293299171 1
vertex 274.2195764626739 -166.6648203469437 1
vertex 274.2195764626739 -166.66482034694369 0
endloop
endfacet
facet normal 0.16077750982134414 -0.9869906748980194 0
outer loop
vertex 274.8791197397381 -166.55738293299171 1
vertex 274.2195764626739 -166.66482034694369 0
vertex 274.87911973973826 -166.55738293299166 0
endloop
endfacet
facet normal 0.32284355208051474 -0.9464523447485541 0
outer loop
vertex 275.5115738215412 -166.3416470605729 1
vertex 274.8791197397381 -166.55738293299171 1
vertex 274.87911973973826 -166.55738293299166 0
endloop
endfacet
facet normal 0.32284355208051474 -0.9464523447485541 0
outer loop
vertex 275.5115738215412 -166.3416470605729 1
vertex 274.87911973973826 -166.55738293299166 0
vertex 275.5115738215412 -166.3416470605729 0
endloop
endfacet
facet normal 0.4758994316872507 -0.8794997049003213 0
outer loop
vertex 276.09928770000005 -166.02363364999997 1
vertex 275.5115738215412 -166.3416470605729 1
vertex 275.5115738215412 -166.3416470605729 0
endloop
endfacet
facet normal 0.4758994316872507 -0.8794997049003213 0
outer loop
vertex 276.09928770000005 -166.02363364999997 1
vertex 275.5115738215412 -166.3416470605729 0
vertex 276.09928769999937 -166.02363365000033 0
endloop
endfacet
facet normal 0.547701851833608 -0.8366735812119541 0
outer loop
vertex 328.86350699999934 -131.4832092000005 1
vertex 276.09928770000005 -166.02363364999997 1
vertex 276.09928769999937 -166.02363365000033 0
endloop
endfacet
facet normal 0.547701851833608 -0.8366735812119541 0
outer loop
vertex 328.86350699999934 -131.4832092000005 1
vertex 276.09928769999937 -166.02363365000033 0
vertex 328.8635070000001 -131.48320919999995 0
endloop
endfacet
facet normal 0.6102753106370036 -0.7921893998450806 0
outer loop
vertex 329.34967462624087 -131.10868247800164 1
vertex 328.86350699999934 -131.4832092000005 1
vertex 328.8635070000001 -131.48320919999995 0
endloop
endfacet
facet normal 0.6102753106370036 -0.7921893998450806 0
outer loop
vertex 329.34967462624087 -131.10868247800164 1
vertex 328.8635070000001 -131.48320919999995 0
vertex 329.34967462624104 -131.10868247800155 0
endloop
endfacet
facet normal 0.7242725712013639 -0.6895137726002037 0
outer loop
vertex 329.7728273365433 -130.66419838837163 1
vertex 329.34967462624087 -131.10868247800164 1
vertex 329.34967462624104 -131.10868247800155 0
endloop
endfacet
facet normal 0.7242725712013639 -0.6895137726002037 0
outer loop
vertex 329.7728273365433 -130.66419838837163 1
vertex 329.34967462624104 -131.10868247800155 0
vertex 329.772827336543 -130.664198388372 0
endloop
endfacet
facet normal 0.8212246874155963 -0.5706049533426398 0
outer loop
vertex 330.12300603073845 -130.16021505104624 1
vertex 329.7728273365433 -130.66419838837163 1
vertex 329.772827336543 -130.664198388372 0
endloop
endfacet
facet normal 0.8212246874155963 -0.5706049533426398 0
outer loop
vertex 330.12300603073845 -130.16021505104624 1
vertex 329.772827336543 -130.664198388372 0
vertex 330.12300603073857 -130.160215051046 0
endloop
endfacet
facet normal 0.8988459791768164 -0.4382646525989409 0
outer loop
vertex 330.3919678454928 -129.60859573995097 1
vertex 330.12300603073845 -130.16021505104624 1
vertex 330.12300603073857 -130.160215051046 0
endloop
endfacet
facet normal 0.8988459791768164 -0.4382646525989409 0
outer loop
vertex 330.3919678454928 -129.60859573995097 1
vertex 330.12300603073857 -130.160215051046 0
vertex 330.39196784549284 -129.60859573995089 0
endloop
endfacet
facet normal 0.9553093173354168 -0.29560803137286384 0
outer loop
vertex 330.5733816832338 -129.02232503315486 1
vertex 330.3919678454928 -129.60859573995097 1
vertex 330.39196784549284 -129.60859573995089 0
endloop
endfacet
facet normal 0.9553093173354168 -0.29560803137286384 0
outer loop
vertex 330.5733816832338 -129.02232503315486 1
vertex 330.39196784549284 -129.60859573995089 0
vertex 330.5733816832338 -129.02232503315497 0
endloop
endfacet
facet normal 0.9892856102374714 -0.1459930867441127 0
outer loop
vertex 330.66297723998116 -128.41520316863267 1
vertex 330.5733816832338 -129.02232503315486 1
vertex 330.5733816832338 -129.02232503315497 0
endloop
endfacet
facet normal 0.9892856102374714 -0.1459930867441127 0
outer loop
vertex 330.66297723998116 -128.41520316863267 1
vertex 330.5733816832338 -129.02232503315497 0
vertex 330.66297723998116 -128.41520316863281 0
endloop
endfacet
facet normal 0.9999750892402568 0.007058392093142629 0
outer loop
vertex 330.65864552412097 -127.80152120017672 1
vertex 330.66297723998116 -128.41520316863267 1
vertex 330.66297723998116 -128.41520316863281 0
endloop
endfacet
facet normal 0.9999750892402568 0.007058392093142629 0
outer loop
vertex 330.65864552412097 -127.80152120017672 1
vertex 330.66297723998116 -128.41520316863281 0
vertex 330.65864552412097 -127.80152120017647 0
endloop
endfacet
facet normal 0.9871261344823027 0.1599437232967489 0
outer loop
vertex 330.5604884999998 -127.19572459999861 1
vertex 330.65864552412097 -127.80152120017672 1
vertex 330.65864552412097 -127.80152120017647 0
endloop
endfacet
facet normal 0.9871261344823027 0.1599437232967489 0
outer loop
vertex 330.5604884999998 -127.19572459999861 1
vertex 330.65864552412097 -127.80152120017647 0
vertex 330.5604885 -127.19572459999954 0
endloop
endfacet
facet normal 0 0 1
outer loop
vertex 327.9973893999999 -116.60382199999961 1
vertex 329.5839979286581 -123.16041710000023 1
vertex 329.72585258877376 -123.74662570321063 1
endloop
endfacet
facet normal 0 0 1
outer loop
vertex 327.9973893999999 -116.60382199999961 1
vertex 329.72585258877376 -123.74662570321063 1
vertex 329.86426954125216 -124.31862811967595 1
endloop
endfacet
facet normal 0 0 1
outer loop
vertex 327.9973893999999 -116.60382199999961 1
vertex 329.86426954125216 -124.31862811967595 1
vertex 329.99625021186745 -124.86403286358147 1
endloop
endfacet
facet normal 0 0 1
outer loop
vertex 327.9973893999999 -116.60382199999961 1
vertex 329.99625021186745 -124.86403286358147 1
vertex 330.11893627689676 -125.3710280286016 1
endloop
endfacet
facet normal 0 0 1
outer loop
vertex 327.9973893999999 -116.60382199999961 1
vertex 330.11893627689676 -125.3710280286016 1
vertex 330.2296707071822 -125.82863354999965 1
endloop
endfacet
facet normal 0 0 1
outer loop
vertex 327.9973893999999 -116.60382199999961 1
vertex 330.2296707071822 -125.82863354999965 1
vertex 330.5604884999998 -127.19572459999861 1
endloop
endfacet
facet normal 0 0 1
outer loop
vertex 327.9973893999999 -116.60382199999961 1
vertex 330.5604884999998 -127.19572459999861 1
vertex 330.5604885 -127.19572459999954 0
endloop
endfacet
facet normal 0 0 1
outer loop
vertex 327.9973893999999 -116.60382199999961 1
vertex 330.5604885 -127.19572459999954 0
vertex 330.22967070718227 -125.82863354999971 0
endloop
endfacet
facet normal 0 0 1
outer loop
vertex 327.9973893999999 -116.60382199999961 1
vertex 330.22967070718227 -125.82863354999971 0
vertex 330.11893627689676 -125.37102802860154 0
endloop
endfacet
facet normal 0 0 1
outer loop
vertex 327.9973893999999 -116.60382199999961 1
vertex 330.11893627689676 -125.37102802860154 0
vertex 329.99625021186745 -124.86403286358153 0
endloop
endfacet
facet normal 0 0 1
outer loop
vertex 327.9973893999999 -116.60382199999961 1
vertex 329.99625021186745 -124.86403286358153 0
vertex 329.8642695412522 -124.31862811967622 0
endloop
endfacet
facet normal 0 0 1
outer loop
vertex 327.9973893999999 -116.60382199999961 1
vertex 329.8642695412522 -124.31862811967622 0
vertex 329.7258525887736 -123.74662570321013 0
endloop
endfacet
facet normal 0 0 1
outer loop
vertex 327.9973893999999 -116.60382199999961 1
vertex 329.7258525887736 -123.74662570321013 0
vertex 329.58399792865833 -123.16041710000113 0
endloop
endfacet
facet normal 0 0 1
outer loop
vertex 327.9973893999999 -116.60382199999961 1
vertex 329.58399792865833 -123.16041710000113 0
vertex 327.9973893999999 -116.6038219999996 0
endloop
endfacet
facet normal 0.9880129705229683 0.15437088481439817 0
outer loop
vertex 327.89569232359776 -115.95293481573292 1
vertex 327.9973893999999 -116.60382199999961 1
vertex 327.9973893999999 -116.6038219999996 0
endloop
endfacet
facet normal 0.9880129705229683 0.15437088481439817 0
outer loop
vertex 327.89569232359776 -115.95293481573292 1
vertex 327.9973893999999 -116.6038219999996 0
vertex 327.89569232359776 -115.95293481573295 0
endloop
endfacet
facet normal 0.9999509870506957 -0.009900681609849468 0
outer loop
vertex 327.9022147666522 -115.29417983023993 1
vertex 327.89569232359776 -115.95293481573292 1
vertex 327.89569232359776 -115.95293481573295 0
endloop
endfacet
facet normal 0.9999509870506957 -0.009900681609849468 0
outer loop
vertex 327.9022147666522 -115.29417983023993 1
vertex 327.89569232359776 -115.95293481573295 0
vertex 327.9022147666522 -115.29417983024013 0
endloop
endfacet
facet normal 0.9847640581926873 -0.17389580124853393 0
outer loop
vertex 328.0167751076211 -114.6454298002196 1
vertex 327.9022147666522 -115.29417983023993 1
vertex 327.9022147666522 -115.29417983024013 0
endloop
endfacet
facet normal 0.9847640581926873 -0.17389580124853393 0
outer loop
vertex 328.0167751076211 -114.6454298002196 1
vertex 327.9022147666522 -115.29417983024013 0
vertex 328.0167751076211 -114.64542980021959 0
endloop
endfacet
facet normal 0.9428653628238091 -0.33317398996189224 0
outer loop
vertex 328.23626589243565 -114.02428209753022 1
vertex 328.0167751076211 -114.6454298002196 1
vertex 328.0167751076211 -114.64542980021959 0
endloop
endfacet
facet normal 0.9428653628238091 -0.33317398996189224 0
outer loop
vertex 328.23626589243565 -114.02428209753022 1
vertex 328.0167751076211 -114.64542980021959 0
vertex 328.2362658924356 -114.02428209753032 0
endloop
endfacet
facet normal 0.8753914048187412 -0.48341482017980225 0
outer loop
vertex 328.5547334243233 -113.4475853797412 1
vertex 328.23626589243565 -114.02428209753022 1
vertex 328.2362658924356 -114.02428209753032 0
endloop
endfacet
facet normal 0.8753914048187412 -0.48341482017980225 0
outer loop
vertex 328.5547334243233 -113.4475853797412 1
vertex 328.2362658924356 -114.02428209753032 0
vertex 328.5547334243233 -113.44758537974127 0
endloop
endfacet
facet normal 0.7841724181272788 -0.6205430030613642 0
outer loop
vertex 328.9635392580821 -112.93098256958677 1
vertex 328.5547334243233 -113.4475853797412 1
vertex 328.5547334243233 -113.44758537974127 0
endloop
endfacet
facet normal 0.7841724181272788 -0.6205430030613642 0
outer loop
vertex 328.9635392580821 -112.93098256958677 1
vertex 328.5547334243233 -113.44758537974127 0
vertex 328.9635392580823 -112.9309825695866 0
endloop
endfacet
facet normal 0.6716827216012498 -0.7408389308765692 0
outer loop
vertex 329.45159451827226 -112.48848654002683 1
vertex 328.9635392580821 -112.93098256958677 1
vertex 328.9635392580823 -112.9309825695866 0
endloop
endfacet
facet normal 0.6716827216012498 -0.7408389308765692 0
outer loop
vertex 329.45159451827226 -112.48848654002683 1
vertex 328.9635392580823 -112.9309825695866 0
vertex 329.45159451827203 -112.48848654002704 0
endloop
endfacet
facet normal 0.5409736029917789 -0.8410395715221094 0
outer loop
vertex 330.0056606854254 -112.13210001448178 1
vertex 329.45159451827226 -112.48848654002683 1
vertex 329.45159451827203 -112.48848654002704 0
endloop
endfacet
facet normal 0.5409736029917789 -0.8410395715221094 0
outer loop
vertex 330.0056606854254 -112.13210001448178 1
vertex 329.45159451827203 -112.48848654002704 0
vertex 330.0056606854254 -112.13210001448175 0
endloop
endfacet
facet normal 0.3955905526405531 -0.9184269784046754 0
outer loop
vertex 330.61070869144817 -111.87148999245001 1
vertex 330.0056606854254 -112.13210001448178 1
vertex 330.0056606854254 -112.13210001448175 0
endloop
endfacet
facet normal 0.3955905526405531 -0.9184269784046754 0
outer loop
vertex 330.61070869144817 -111.87148999245001 1
vertex 330.0056606854254 -112.13210001448175 0
vertex 330.6107086914482 -111.87148999244997 0
endloop
endfacet
facet normal 0.23947709190514363 -0.9709020148566258 0
outer loop
vertex 331.2503265837189 -111.71372553174476 1
vertex 330.61070869144817 -111.87148999245001 1
vertex 330.6107086914482 -111.87148999244997 0
endloop
endfacet
facet normal 0.23947709190514363 -0.9709020148566258 0
outer loop
vertex 331.2503265837189 -111.71372553174476 1
vertex 330.6107086914482 -111.87148999244997 0
vertex 331.25032658371885 -111.71372553174476 0
endloop
endfacet
facet normal 0.07686780497616044 -0.9970412933064242 0
outer loop
vertex 331.9071647000001 -111.663086 1
vertex 331.2503265837189 -111.71372553174476 1
vertex 331.25032658371885 -111.71372553174476 0
endloop
endfacet
facet normal 0.07686780497616044 -0.9970412933064242 0
outer loop
vertex 331.9071647000001 -111.663086 1
vertex 331.25032658371885 -111.71372553174476 0
vertex 331.90716470000007 -111.663086 0
endloop
endfacet
facet normal -0.00549446774979856 -0.9999849052981482 0
outer loop
vertex 393.75302240000025 -112.0029012 1
vertex 331.9071647000001 -111.663086 1
vertex 331.90716470000007 -111.663086 0
endloop
endfacet
facet normal -0.00549446774979856 -0.9999849052981482 0
outer loop
vertex 393.75302240000025 -112.0029012 1
vertex 331.90716470000007 -111.663086 0
vertex 393.75302240000013 -112.0029012 0
endloop
endfacet
facet normal 0.07325495794111697 -0.9973132462456544 0
outer loop
vertex 394.38119297712393 -111.95676062242292 1
vertex 393.75302240000025 -112.0029012 1
vertex 393.75302240000013 -112.0029012 0
endloop
endfacet
facet normal 0.07325495794111697 -0.9973132462456544 0
outer loop
vertex 394.38119297712393 -111.95676062242292 1
vertex 393.75302240000013 -112.0029012 0
vertex 394.38119297712393 -111.95676062242292 0
endloop
endfacet
facet normal 0.22890112853070835 -0.9734496768489721 0
outer loop
vertex 394.994333900309 -111.81258403825707 1
vertex 394.38119297712393 -111.95676062242292 1
vertex 394.38119297712393 -111.95676062242292 0
endloop
endfacet
facet normal 0.22890112853070835 -0.9734496768489721 0
outer loop
vertex 394.994333900309 -111.81258403825707 1
vertex 394.38119297712393 -111.95676062242292 0
vertex 394.99433390030896 -111.81258403825709 0
endloop
endfacet
facet normal 0 0 -1
outer loop
vertex 395.57724080777024 -111.57394578411456 1
vertex 395.3595035143136 -111.663086 1
vertex 394.994333900309 -111.81258403825707 1
endloop
endfacet
facet normal 0 0 -1
outer loop
vertex 395.57724080777024 -111.57394578411456 1
vertex 394.994333900309 -111.81258403825707 1
vertex 394.99433390030896 -111.81258403825709 0
endloop
endfacet
facet normal 0 0 -1
outer loop
vertex 395.57724080777024 -111.57394578411456 1
vertex 394.99433390030896 -111.81258403825709 0
vertex 395.3595035143136 -111.663086 0
endloop
endfacet
facet normal 0 0 -1
outer loop
vertex 395.57724080777024 -111.57394578411456 1
vertex 395.3595035143136 -111.663086 0
vertex 395.5772408077703 -111.57394578411453 0
endloop
endfacet
facet normal 0.5194498346646118 -0.8545009474932767 0
outer loop
vertex 396.1154602065418 -111.24676302495516 1
vertex 395.57724080777024 -111.57394578411456 1
vertex 395.5772408077703 -111.57394578411453 0
endloop
endfacet
facet normal 0.5194498346646118 -0.8545009474932767 0
outer loop
vertex 396.1154602065418 -111.24676302495516 1
vertex 395.5772408077703 -111.57394578411453 0
vertex 396.1154602065418 -111.24676302495519 0
endloop
endfacet
facet normal 0.6471469707706068 -0.7623652656190651 0
outer loop
vertex 396.5956466546787 -110.83914843476977 1
vertex 396.1154602065418 -111.24676302495516 1
vertex 396.1154602065418 -111.24676302495519 0
endloop
endfacet
facet normal 0.6471469707706068 -0.7623652656190651 0
outer loop
vertex 396.5956466546787 -110.83914843476977 1
vertex 396.1154602065418 -111.24676302495519 0
vertex 396.59564665467894 -110.83914843476957 0
endloop
endfacet
facet normal 0.7587977466953318 -0.6513263234432392 0
outer loop
vertex 397.00589366872424 -110.36120903843066 1
vertex 396.5956466546787 -110.83914843476977 1
vertex 396.59564665467894 -110.83914843476957 0
endloop
endfacet
facet normal 0.7587977466953318 -0.6513263234432392 0
outer loop
vertex 397.00589366872424 -110.36120903843066 1
vertex 396.59564665467894 -110.83914843476957 0
vertex 397.005893668724 -110.36120903843096 0
endloop
endfacet
facet normal 0.8516337208853774 -0.5241373917694933 0
outer loop
vertex 397.336028951429 -109.82479560252551 1
vertex 397.00589366872424 -110.36120903843066 1
vertex 397.005893668724 -110.36120903843096 0
endloop
endfacet
facet normal 0.8516337208853774 -0.5241373917694933 0
outer loop
vertex 397.336028951429 -109.82479560252551 1
vertex 397.005893668724 -110.36120903843096 0
vertex 397.3360289514289 -109.82479560252573 0
endloop
endfacet
facet normal 0.9233529750023438 -0.38395218915161966 0
outer loop
vertex 397.57786661937826 -109.24320878917256 1
vertex 397.336028951429 -109.82479560252551 1
vertex 397.3360289514289 -109.82479560252573 0
endloop
endfacet
facet normal 0.9233529750023438 -0.38395218915161966 0
outer loop
vertex 397.57786661937826 -109.24320878917256 1
vertex 397.3360289514289 -109.82479560252573 0
vertex 397.5778666193783 -109.24320878917246 0
endloop
endfacet
facet normal 0.9721771912367803 -0.23424668373098687 0
outer loop
vertex 397.7254101764123 -108.63086935888565 1
vertex 397.57786661937826 -109.24320878917256 1
vertex 397.5778666193783 -109.24320878917246 0
endloop
endfacet
facet normal 0.9721771912367803 -0.23424668373098687 0
outer loop
vertex 397.7254101764123 -108.63086935888565 1
vertex 397.5778666193783 -109.24320878917246 0
vertex 397.72541017641225 -108.63086935888576 0
endloop
endfacet
facet normal 0.996895746662648 -0.0787329047217329 0
outer loop
vertex 397.7750012000001 -108.0029605999997 1
vertex 397.7254101764123 -108.63086935888565 1
vertex 397.72541017641225 -108.63086935888576 0
endloop
endfacet
facet normal 0.996895746662648 -0.0787329047217329 0
outer loop
vertex 397.7750012000001 -108.0029605999997 1
vertex 397.72541017641225 -108.63086935888576 0
vertex 397.7750012000001 -108.00296059999977 0
endloop
endfacet
endsolid csg.js
