solid csg.js
facet normal 0 0 -1
outer loop
vertex 350.34716800498046 -39.42206779946001 0
vertex 350.7311335999999 -39.46919329999997 0
vertex 379.05503715000106 -44.345741650000186 0
endloop
endfacet
facet normal 0 0 -1
outer loop
vertex 350.34716800498046 -39.42206779946001 0
vertex 379.05503715000106 -44.345741650000186 0
vertex 379.224214086081 -44.37863316788716 0
endloop
endfacet
facet normal 0 0 -1
outer loop
vertex 350.34716800498046 -39.42206779946001 0
vertex 379.224214086081 -44.37863316788716 0
vertex 379.3918143000008 -44.4187833000002 0
endloop
endfacet
facet normal 0 0 -1
outer loop
vertex 350.34716800498046 -39.42206779946001 0
vertex 379.3918143000008 -44.4187833000002 0
vertex 395.29047499999996 -48.59165739999997 0
endloop
endfacet
facet normal 0 0 -1
outer loop
vertex 350.34716800498046 -39.42206779946001 0
vertex 395.29047499999996 -48.59165739999997 0
vertex 395.90948423844367 -48.809796511538345 0
endloop
endfacet
facet normal 0 0 -1
outer loop
vertex 350.34716800498046 -39.42206779946001 0
vertex 395.90948423844367 -48.809796511538345 0
vertex 396.4844892356703 -49.12622401101547 0
endloop
endfacet
facet normal 0 0 -1
outer loop
vertex 350.34716800498046 -39.42206779946001 0
vertex 396.4844892356703 -49.12622401101547 0
vertex 397.00000952352923 -49.53242093624617 0
endloop
endfacet
facet normal 0 0 -1
outer loop
vertex 350.34716800498046 -39.42206779946001 0
vertex 397.00000952352923 -49.53242093624617 0
vertex 397.44216610021 -50.01745152389871 0
endloop
endfacet
facet normal 0 0 -1
outer loop
vertex 350.34716800498046 -39.42206779946001 0
vertex 397.44216610021 -50.01745152389871 0
vertex 397.79905508516254 -50.5682576256089 0
endloop
endfacet
facet normal 0 0 -1
outer loop
vertex 350.34716800498046 -39.42206779946001 0
vertex 397.79905508516254 -50.5682576256089 0
vertex 398.06106819916835 -51.170010263617606 0
endloop
endfacet
facet normal 0 0 -1
outer loop
vertex 350.34716800498046 -39.42206779946001 0
vertex 398.06106819916835 -51.170010263617606 0
vertex 398.22115144150393 -51.8065088612471 0
endloop
endfacet
facet normal 0 0 -1
outer loop
vertex 350.34716800498046 -39.42206779946001 0
vertex 398.22115144150393 -51.8065088612471 0
vertex 398.275 -52.46061479999972 0
endloop
endfacet
facet normal 0 0 -1
outer loop
vertex 350.34716800498046 -39.42206779946001 0
vertex 398.275 -52.46061479999972 0
vertex 398.274997 -108.52557200000015 0
endloop
endfacet
facet normal 0 0 -1
outer loop
vertex 350.34716800498046 -39.42206779946001 0
vertex 398.274997 -108.52557200000015 0
vertex 398.21423920868796 -109.22010125042873 0
endloop
endfacet
facet normal 0 0 -1
outer loop
vertex 350.34716800498046 -39.42206779946001 0
vertex 398.21423920868796 -109.22010125042873 0
vertex 398.0338115749737 -109.89353146797069 0
endloop
endfacet
facet normal 0 0 -1
outer loop
vertex 350.34716800498046 -39.42206779946001 0
vertex 398.0338115749737 -109.89353146797069 0
vertex 397.73919529177397 -110.52540458385694 0
endloop
endfacet
facet normal 0 0 -1
outer loop
vertex 350.34716800498046 -39.42206779946001 0
vertex 397.73919529177397 -110.52540458385694 0
vertex 397.33934047749005 -111.09652498832574 0
endloop
endfacet
facet normal 0 0 -1
outer loop
vertex 350.34716800498046 -39.42206779946001 0
vertex 397.33934047749005 -111.09652498832574 0
vertex 396.8463942812626 -111.58954267211742 0
endloop
endfacet
facet normal 0 0 -1
outer loop
vertex 350.34716800498046 -39.42206779946001 0
vertex 396.8463942812626 -111.58954267211742 0
vertex 396.2753318659506 -111.98948030065941 0
endloop
endfacet
facet normal 0 0 -1
outer loop
vertex 350.34716800498046 -39.42206779946001 0
vertex 396.2753318659506 -111.98948030065941 0
vertex 395.64350147916593 -112.28418820900596 0
endloop
endfacet
facet normal 0 0 -1
outer loop
vertex 350.34716800498046 -39.42206779946001 0
vertex 395.64350147916593 -112.28418820900596 0
vertex 394.970097432608 -112.46471349528423 0
endloop
endfacet
facet normal 0 0 -1
outer loop
vertex 350.34716800498046 -39.42206779946001 0
vertex 394.970097432608 -112.46471349528423 0
vertex 394.27557399999995 -112.525574 0
endloop
endfacet
facet normal 0 0 -1
outer loop
vertex 350.34716800498046 -39.42206779946001 0
vertex 394.27557399999995 -112.525574 0
vertex 333.7105722499999 -112.53427325000001 0
endloop
endfacet
facet normal 0 0 -1
outer loop
vertex 350.34716800498046 -39.42206779946001 0
vertex 333.7105722499999 -112.53427325000001 0
vertex 267.38559882306066 -112.53427325000001 0
endloop
endfacet
facet normal 0 0 -1
outer loop
vertex 350.34716800498046 -39.42206779946001 0
vertex 267.38559882306066 -112.53427325000001 0
vertex 266.9887776 -52.951325199999744 0
endloop
endfacet
facet normal 0 0 -1
outer loop
vertex 350.34716800498046 -39.42206779946001 0
vertex 266.9887776 -52.951325199999744 0
vertex 267.0368349286568 -52.3059515439487 0
endloop
endfacet
facet normal 0 0 -1
outer loop
vertex 350.34716800498046 -39.42206779946001 0
vertex 267.0368349286568 -52.3059515439487 0
vertex 267.18833615280465 -51.676774270166334 0
endloop
endfacet
facet normal 0 0 -1
outer loop
vertex 350.34716800498046 -39.42206779946001 0
vertex 267.18833615280465 -51.676774270166334 0
vertex 267.4393155701247 -51.08026274903368 0
endloop
endfacet
facet normal 0 0 -1
outer loop
vertex 350.34716800498046 -39.42206779946001 0
vertex 267.4393155701247 -51.08026274903368 0
vertex 267.78320353299296 -50.53203129083675 0
endloop
endfacet
facet normal 0 0 -1
outer loop
vertex 350.34716800498046 -39.42206779946001 0
vertex 267.78320353299296 -50.53203129083675 0
vertex 268.2109984158488 -50.046430424934414 0
endloop
endfacet
facet normal 0 0 -1
outer loop
vertex 350.34716800498046 -39.42206779946001 0
vertex 268.2109984158488 -50.046430424934414 0
vertex 268.71150224211806 -49.63617125970756 0
endloop
endfacet
facet normal 0 0 -1
outer loop
vertex 350.34716800498046 -39.42206779946001 0
vertex 268.71150224211806 -49.63617125970756 0
vertex 269.2716138029117 -49.31199275605954 0
endloop
endfacet
facet normal 0 0 -1
outer loop
vertex 350.34716800498046 -39.42206779946001 0
vertex 269.2716138029117 -49.31199275605954 0
vertex 269.8766715948138 -49.0823806239297 0
endloop
endfacet
facet normal 0 0 -1
outer loop
vertex 350.34716800498046 -39.42206779946001 0
vertex 269.8766715948138 -49.0823806239297 0
vertex 270.5108352000001 -48.95334039999999 0
endloop
endfacet
facet normal 0 0 -1
outer loop
vertex 350.34716800498046 -39.42206779946001 0
vertex 270.5108352000001 -48.95334039999999 0
vertex 349.5745768 -39.43983665000002 0
endloop
endfacet
facet normal 0 0 -1
outer loop
vertex 350.34716800498046 -39.42206779946001 0
vertex 349.5745768 -39.43983665000002 0
vertex 349.9604422814771 -39.41225052474701 0
endloop
endfacet
facet normal 0 0 -1
outer loop
vertex 333.7105722499999 -112.53427325000001 0
vertex 333.05414615903203 -112.588597634623 0
vertex 267.38596062235814 -112.588597634623 0
endloop
endfacet
facet normal 0 0 -1
outer loop
vertex 333.7105722499999 -112.53427325000001 0
vertex 267.38596062235814 -112.588597634623 0
vertex 267.38559882306066 -112.53427325000001 0
endloop
endfacet
facet normal 0 0 -1
outer loop
vertex 333.05414615903203 -112.588597634623 0
vertex 332.4155347860457 -112.74991057880602 0
vertex 267.38703496328793 -112.74991057880602 0
endloop
endfacet
facet normal 0 0 -1
outer loop
vertex 333.05414615903203 -112.588597634623 0
vertex 267.38703496328793 -112.74991057880602 0
vertex 267.38596062235814 -112.588597634623 0
endloop
endfacet
facet normal 0 0 -1
outer loop
vertex 332.4155347860457 -112.74991057880602 0
vertex 331.81205433193537 -113.01383801802955 0
vertex 267.38879271466914 -113.01383801802955 0
endloop
endfacet
facet normal 0 0 -1
outer loop
vertex 332.4155347860457 -112.74991057880602 0
vertex 267.38879271466914 -113.01383801802955 0
vertex 267.38703496328793 -112.74991057880602 0
endloop
endfacet
facet normal 0 0 -1
outer loop
vertex 331.81205433193537 -113.01383801802955 0
vertex 331.2600684087834 -113.3732234550054 0
vertex 267.39118621437535 -113.3732234550054 0
endloop
endfacet
facet normal 0 0 -1
outer loop
vertex 331.81205433193537 -113.01383801802955 0
vertex 267.39118621437535 -113.3732234550054 0
vertex 267.38879271466914 -113.01383801802955 0
endloop
endfacet
facet normal 0 0 -1
outer loop
vertex 331.2600684087834 -113.3732234550054 0
vertex 330.7745443340229 -113.81832201094142 0
vertex 267.39415056171174 -113.81832201094142 0
endloop
endfacet
facet normal 0 0 -1
outer loop
vertex 331.2600684087834 -113.3732234550054 0
vertex 267.39415056171174 -113.81832201094142 0
vertex 267.39118621437535 -113.3732234550054 0
endloop
endfacet
facet normal 0 0 -1
outer loop
vertex 330.7745443340229 -113.81832201094142 0
vertex 330.3686472856841 -114.3370646617984 0
vertex 267.39760537722367 -114.3370646617984 0
endloop
endfacet
facet normal 0 0 -1
outer loop
vertex 330.7745443340229 -113.81832201094142 0
vertex 267.39760537722367 -114.3370646617984 0
vertex 267.39415056171174 -113.81832201094142 0
endloop
endfacet
facet normal 0 0 -1
outer loop
vertex 330.3686472856841 -114.3370646617984 0
vertex 330.0533833233655 -114.9153854946681 0
vertex 267.40145698221687 -114.9153854946681 0
endloop
endfacet
facet normal 0 0 -1
outer loop
vertex 330.3686472856841 -114.3370646617984 0
vertex 267.40145698221687 -114.9153854946681 0
vertex 267.39760537722367 -114.3370646617984 0
endloop
endfacet
facet normal 0 0 -1
outer loop
vertex 330.0533833233655 -114.9153854946681 0
vertex 329.8373009545582 -115.53760311058691 0
vertex 267.4056009388931 -115.53760311058691 0
endloop
endfacet
facet normal 0 0 -1
outer loop
vertex 330.0533833233655 -114.9153854946681 0
vertex 267.4056009388931 -115.53760311058691 0
vertex 267.40145698221687 -114.9153854946681 0
endloop
endfacet
facet normal 0 0 -1
outer loop
vertex 329.8373009545582 -115.53760311058691 0
vertex 329.7262593384732 -116.18684583189 0
vertex 267.40992488222184 -116.18684583189 0
endloop
endfacet
facet normal 0 0 -1
outer loop
vertex 329.8373009545582 -115.53760311058691 0
vertex 267.40992488222184 -116.18684583189 0
vertex 267.4056009388931 -115.53760311058691 0
endloop
endfacet
facet normal 0 0 -1
outer loop
vertex 329.7262593384732 -116.18684583189 0
vertex 329.72326941261156 -116.84550918445461 0
vertex 267.4143115667634 -116.84550918445461 0
endloop
endfacet
facet normal 0 0 -1
outer loop
vertex 329.7262593384732 -116.18684583189 0
vertex 267.4143115667634 -116.84550918445461 0
vertex 267.40992488222184 -116.18684583189 0
endloop
endfacet
facet normal 0 0 -1
outer loop
vertex 329.72326941261156 -116.84550918445461 0
vertex 329.8284145000002 -117.49573650000087 0
vertex 267.4186420674698 -117.49573650000087 0
endloop
endfacet
facet normal 0 0 -1
outer loop
vertex 329.72326941261156 -116.84550918445461 0
vertex 267.4186420674698 -117.49573650000087 0
vertex 267.4143115667634 -116.84550918445461 0
endloop
endfacet
facet normal 0 0 -1
outer loop
vertex 329.8284145000002 -117.49573650000087 0
vertex 331.0865680915147 -122.57656769999944 0
vertex 267.4524803 -122.57656769999944 0
endloop
endfacet
facet normal 0 0 -1
outer loop
vertex 329.8284145000002 -117.49573650000087 0
vertex 267.4524803 -122.57656769999944 0
vertex 267.4186420674698 -117.49573650000087 0
endloop
endfacet
facet normal 0 0 -1
outer loop
vertex 331.0865680915147 -122.57656769999944 0
vertex 331.2373035915131 -123.18528641010337 0
vertex 267.4099904081064 -123.18528641010337 0
endloop
endfacet
facet normal 0 0 -1
outer loop
vertex 331.0865680915147 -122.57656769999944 0
vertex 267.4099904081064 -123.18528641010337 0
vertex 267.4524803 -122.57656769999944 0
endloop
endfacet
facet normal 0 0 -1
outer loop
vertex 331.2373035915131 -123.18528641010337 0
vertex 331.3846856835905 -123.78046297423501 0
vertex 267.2754044101224 -123.78046297423501 0
endloop
endfacet
facet normal 0 0 -1
outer loop
vertex 331.2373035915131 -123.18528641010337 0
vertex 267.2754044101224 -123.78046297423501 0
vertex 267.4099904081064 -123.18528641010337 0
endloop
endfacet
facet normal 0 0 -1
outer loop
vertex 331.3846856835905 -123.78046297423501 0
vertex 331.5252835702669 -124.3482427223494 0
vertex 267.05185421223257 -124.3482427223494 0
endloop
endfacet
facet normal 0 0 -1
outer loop
vertex 331.3846856835905 -123.78046297423501 0
vertex 267.05185421223257 -124.3482427223494 0
vertex 267.2754044101224 -123.78046297423501 0
endloop
endfacet
facet normal 0 0 -1
outer loop
vertex 331.5252835702669 -124.3482427223494 0
vertex 331.6558252879861 -124.8754124071657 0
vertex 266.7445422262071 -124.8754124071657 0
endloop
endfacet
facet normal 0 0 -1
outer loop
vertex 331.5252835702669 -124.3482427223494 0
vertex 266.7445422262071 -124.8754124071657 0
vertex 267.05185421223257 -124.3482427223494 0
endloop
endfacet
facet normal 0 0 -1
outer loop
vertex 331.6558252879861 -124.8754124071657 0
vertex 331.7732728981777 -125.34970385000025 0
vertex 266.36062014999976 -125.34970385000025 0
endloop
endfacet
facet normal 0 0 -1
outer loop
vertex 331.6558252879861 -124.8754124071657 0
vertex 266.36062014999976 -125.34970385000025 0
vertex 266.7445422262071 -124.8754124071657 0
endloop
endfacet
facet normal 0 0 -1
outer loop
vertex 331.7732728981777 -125.34970385000025 0
vertex 332.6189890500001 -128.76497925000066 0
vertex 332.7208333804246 -129.37546976346457 0
endloop
endfacet
facet normal 0 0 -1
outer loop
vertex 331.7732728981777 -125.34970385000025 0
vertex 332.7208333804246 -129.37546976346457 0
vertex 332.7272793584202 -129.99436344095483 0
endloop
endfacet
facet normal 0 0 -1
outer loop
vertex 331.7732728981777 -125.34970385000025 0
vertex 332.7272793584202 -129.99436344095483 0
vertex 332.6381726548109 -130.60684277125262 0
endloop
endfacet
facet normal 0 0 -1
outer loop
vertex 331.7732728981777 -125.34970385000025 0
vertex 332.6381726548109 -130.60684277125262 0
vertex 332.4556466563614 -131.19824381501232 0
endloop
endfacet
facet normal 0 0 -1
outer loop
vertex 331.7732728981777 -125.34970385000025 0
vertex 332.4556466563614 -131.19824381501232 0
vertex 332.18407138837347 -131.75440728782175 0
endloop
endfacet
facet normal 0 0 -1
outer loop
vertex 331.7732728981777 -125.34970385000025 0
vertex 332.18407138837347 -131.75440728782175 0
vertex 331.829948887831 -132.26201756084572 0
endloop
endfacet
facet normal 0 0 -1
outer loop
vertex 331.7732728981777 -125.34970385000025 0
vertex 331.829948887831 -132.26201756084572 0
vertex 331.40175753206313 -132.7089214627262 0
endloop
endfacet
facet normal 0 0 -1
outer loop
vertex 331.7732728981777 -125.34970385000025 0
vertex 331.40175753206313 -132.7089214627262 0
vertex 330.9097481000003 -133.08441849999983 0
endloop
endfacet
facet normal 0 0 -1
outer loop
vertex 331.7732728981777 -125.34970385000025 0
vertex 330.9097481000003 -133.08441849999983 0
vertex 276.3549503500002 -168.3956956999999 0
endloop
endfacet
facet normal 0 0 -1
outer loop
vertex 331.7732728981777 -125.34970385000025 0
vertex 276.3549503500002 -168.3956956999999 0
vertex 275.78513303078284 -168.70218573887823 0
endloop
endfacet
facet normal 0 0 -1
outer loop
vertex 331.7732728981777 -125.34970385000025 0
vertex 275.78513303078284 -168.70218573887823 0
vertex 275.1733566528494 -168.91279814262845 0
endloop
endfacet
facet normal 0 0 -1
outer loop
vertex 331.7732728981777 -125.34970385000025 0
vertex 275.1733566528494 -168.91279814262845 0
vertex 274.5356278832821 -169.02202239670333 0
endloop
endfacet
facet normal 0 0 -1
outer loop
vertex 331.7732728981777 -125.34970385000025 0
vertex 274.5356278832821 -169.02202239670333 0
vertex 273.88863241390146 -169.02700073095073 0
endloop
endfacet
facet normal 0 0 -1
outer loop
vertex 331.7732728981777 -125.34970385000025 0
vertex 273.88863241390146 -169.02700073095073 0
vertex 273.24929839273034 -168.92760289101344 0
endloop
endfacet
facet normal 0 0 -1
outer loop
vertex 331.7732728981777 -125.34970385000025 0
vertex 273.24929839273034 -168.92760289101344 0
vertex 272.6343535117835 -168.7264295463354 0
endloop
endfacet
facet normal 0 0 -1
outer loop
vertex 331.7732728981777 -125.34970385000025 0
vertex 272.6343535117835 -168.7264295463354 0
vertex 272.0598873396347 -168.42874424560966 0
endloop
endfacet
facet normal 0 0 -1
outer loop
vertex 331.7732728981777 -125.34970385000025 0
vertex 272.0598873396347 -168.42874424560966 0
vertex 271.5409307000004 -168.04233140000034 0
endloop
endfacet
facet normal 0 0 -1
outer loop
vertex 331.7732728981777 -125.34970385000025 0
vertex 271.5409307000004 -168.04233140000034 0
vertex 249.79125769999993 -148.92810344999995 0
endloop
endfacet
facet normal 0 0 -1
outer loop
vertex 331.7732728981777 -125.34970385000025 0
vertex 249.79125769999993 -148.92810344999995 0
vertex 249.34460769010627 -148.46699357488797 0
endloop
endfacet
facet normal 0 0 -1
outer loop
vertex 331.7732728981777 -125.34970385000025 0
vertex 249.34460769010627 -148.46699357488797 0
vertex 248.9774753540486 -147.94036999386898 0
endloop
endfacet
facet normal 0 0 -1
outer loop
vertex 331.7732728981777 -125.34970385000025 0
vertex 248.9774753540486 -147.94036999386898 0
vertex 248.69931706966236 -147.36179716604963 0
endloop
endfacet
facet normal 0 0 -1
outer loop
vertex 331.7732728981777 -125.34970385000025 0
vertex 248.69931706966236 -147.36179716604963 0
vertex 248.51729747371886 -146.74617762854567 0
endloop
endfacet
facet normal 0 0 -1
outer loop
vertex 331.7732728981777 -125.34970385000025 0
vertex 248.51729747371886 -146.74617762854567 0
vertex 248.43610491944546 -146.1093681457372 0
endloop
endfacet
facet normal 0 0 -1
outer loop
vertex 331.7732728981777 -125.34970385000025 0
vertex 248.43610491944546 -146.1093681457372 0
vertex 248.45783071669206 -145.46777128009785 0
endloop
endfacet
facet normal 0 0 -1
outer loop
vertex 331.7732728981777 -125.34970385000025 0
vertex 248.45783071669206 -145.46777128009785 0
vertex 248.58191526520724 -144.83791290468028 0
endloop
endfacet
facet normal 0 0 -1
outer loop
vertex 331.7732728981777 -125.34970385000025 0
vertex 248.58191526520724 -144.83791290468028 0
vertex 248.80516246849137 -144.2360165394396 0
endloop
endfacet
facet normal 0 0 -1
outer loop
vertex 331.7732728981777 -125.34970385000025 0
vertex 248.80516246849137 -144.2360165394396 0
vertex 249.12182205696166 -143.67758547539168 0
endloop
endfacet
facet normal 0 0 -1
outer loop
vertex 331.7732728981777 -125.34970385000025 0
vertex 249.12182205696166 -143.67758547539168 0
vertex 249.5237353999998 -143.17700690000024 0
endloop
endfacet
facet normal 0 0 -1
outer loop
vertex 331.7732728981777 -125.34970385000025 0
vertex 249.5237353999998 -143.17700690000024 0
vertex 266.36062014999976 -125.34970385000025 0
endloop
endfacet
facet normal 0 0 1
outer loop
vertex 274.53562788328236 -169.0220223967033 1
vertex 275.1733566528491 -168.91279814262853 1
vertex 275.78513303078273 -168.70218573887826 1
endloop
endfacet
facet normal 0 0 1
outer loop
vertex 274.53562788328236 -169.0220223967033 1
vertex 275.78513303078273 -168.70218573887826 1
vertex 276.3549503499998 -168.3956957000001 1
endloop
endfacet
facet normal 0 0 1
outer loop
vertex 274.53562788328236 -169.0220223967033 1
vertex 276.3549503499998 -168.3956957000001 1
vertex 330.90974810000034 -133.08441849999977 1
endloop
endfacet
facet normal 0 0 1
outer loop
vertex 274.53562788328236 -169.0220223967033 1
vertex 330.90974810000034 -133.08441849999977 1
vertex 331.4017575320631 -132.70892146272624 1
endloop
endfacet
facet normal 0 0 1
outer loop
vertex 274.53562788328236 -169.0220223967033 1
vertex 331.4017575320631 -132.70892146272624 1
vertex 331.829948887831 -132.26201756084572 1
endloop
endfacet
facet normal 0 0 1
outer loop
vertex 274.53562788328236 -169.0220223967033 1
vertex 331.829948887831 -132.26201756084572 1
vertex 332.18407138837364 -131.75440728782146 1
endloop
endfacet
facet normal 0 0 1
outer loop
vertex 274.53562788328236 -169.0220223967033 1
vertex 332.18407138837364 -131.75440728782146 1
vertex 332.45564665636135 -131.19824381501252 1
endloop
endfacet
facet normal 0 0 1
outer loop
vertex 274.53562788328236 -169.0220223967033 1
vertex 332.45564665636135 -131.19824381501252 1
vertex 332.63817265481083 -130.60684277125284 1
endloop
endfacet
facet normal 0 0 1
outer loop
vertex 274.53562788328236 -169.0220223967033 1
vertex 332.63817265481083 -130.60684277125284 1
vertex 332.7272793584202 -129.99436344095466 1
endloop
endfacet
facet normal 0 0 1
outer loop
vertex 274.53562788328236 -169.0220223967033 1
vertex 332.7272793584202 -129.99436344095466 1
vertex 332.7208333804246 -129.3754697634648 1
endloop
endfacet
facet normal 0 0 1
outer loop
vertex 274.53562788328236 -169.0220223967033 1
vertex 332.7208333804246 -129.3754697634648 1
vertex 332.61898905 -128.76497925000032 1
endloop
endfacet
facet normal 0 0 1
outer loop
vertex 274.53562788328236 -169.0220223967033 1
vertex 332.61898905 -128.76497925000032 1
vertex 331.77327289817754 -125.34970384999953 1
endloop
endfacet
facet normal 0 0 1
outer loop
vertex 274.53562788328236 -169.0220223967033 1
vertex 331.77327289817754 -125.34970384999953 1
vertex 266.3606201500004 -125.34970384999953 1
endloop
endfacet
facet normal 0 0 1
outer loop
vertex 274.53562788328236 -169.0220223967033 1
vertex 266.3606201500004 -125.34970384999953 1
vertex 249.52373540000013 -143.1770068999998 1
endloop
endfacet
facet normal 0 0 1
outer loop
vertex 274.53562788328236 -169.0220223967033 1
vertex 249.52373540000013 -143.1770068999998 1
vertex 249.1218220569617 -143.67758547539162 1
endloop
endfacet
facet normal 0 0 1
outer loop
vertex 274.53562788328236 -169.0220223967033 1
vertex 249.1218220569617 -143.67758547539162 1
vertex 248.80516246849157 -144.2360165394392 1
endloop
endfacet
facet normal 0 0 1
outer loop
vertex 274.53562788328236 -169.0220223967033 1
vertex 248.80516246849157 -144.2360165394392 1
vertex 248.58191526520727 -144.83791290468034 1
endloop
endfacet
facet normal 0 0 1
outer loop
vertex 274.53562788328236 -169.0220223967033 1
vertex 248.58191526520727 -144.83791290468034 1
vertex 248.45783071669203 -145.46777128009808 1
endloop
endfacet
facet normal 0 0 1
outer loop
vertex 274.53562788328236 -169.0220223967033 1
vertex 248.45783071669203 -145.46777128009808 1
vertex 248.43610491944543 -146.1093681457369 1
endloop
endfacet
facet normal 0 0 1
outer loop
vertex 274.53562788328236 -169.0220223967033 1
vertex 248.43610491944543 -146.1093681457369 1
vertex 248.51729747371883 -146.74617762854558 1
endloop
endfacet
facet normal 0 0 1
outer loop
vertex 274.53562788328236 -169.0220223967033 1
vertex 248.51729747371883 -146.74617762854558 1
vertex 248.69931706966233 -147.3617971660495 1
endloop
endfacet
facet normal 0 0 1
outer loop
vertex 274.53562788328236 -169.0220223967033 1
vertex 248.69931706966233 -147.3617971660495 1
vertex 248.97747535404866 -147.94036999386907 1
endloop
endfacet
facet normal 0 0 1
outer loop
vertex 274.53562788328236 -169.0220223967033 1
vertex 248.97747535404866 -147.94036999386907 1
vertex 249.34460769010627 -148.466993574888 1
endloop
endfacet
facet normal 0 0 1
outer loop
vertex 274.53562788328236 -169.0220223967033 1
vertex 249.34460769010627 -148.466993574888 1
vertex 249.79125769999993 -148.92810344999995 1
endloop
endfacet
facet normal 0 0 1
outer loop
vertex 274.53562788328236 -169.0220223967033 1
vertex 249.79125769999993 -148.92810344999995 1
vertex 271.54093070000033 -168.0423314000003 1
endloop
endfacet
facet normal 0 0 1
outer loop
vertex 274.53562788328236 -169.0220223967033 1
vertex 271.54093070000033 -168.0423314000003 1
vertex 272.05988733963477 -168.4287442456097 1
endloop
endfacet
facet normal 0 0 1
outer loop
vertex 274.53562788328236 -169.0220223967033 1
vertex 272.05988733963477 -168.4287442456097 1
vertex 272.6343535117837 -168.72642954633548 1
endloop
endfacet
facet normal 0 0 1
outer loop
vertex 274.53562788328236 -169.0220223967033 1
vertex 272.6343535117837 -168.72642954633548 1
vertex 273.2492983927301 -168.92760289101338 1
endloop
endfacet
facet normal 0 0 1
outer loop
vertex 274.53562788328236 -169.0220223967033 1
vertex 273.2492983927301 -168.92760289101338 1
vertex 273.88863241390146 -169.0270007309507 1
endloop
endfacet
facet normal 0 0 1
outer loop
vertex 331.77327289817754 -125.34970384999953 1
vertex 331.6558252879861 -124.87541240716587 1
vertex 266.744542226207 -124.87541240716587 1
endloop
endfacet
facet normal 0 0 1
outer loop
vertex 331.77327289817754 -125.34970384999953 1
vertex 266.744542226207 -124.87541240716587 1
vertex 266.3606201500004 -125.34970384999953 1
endloop
endfacet
facet normal 0 0 1
outer loop
vertex 331.6558252879861 -124.87541240716587 1
vertex 331.52528357026677 -124.34824272234914 1
vertex 267.0518542122327 -124.34824272234914 1
endloop
endfacet
facet normal 0 0 1
outer loop
vertex 331.6558252879861 -124.87541240716587 1
vertex 267.0518542122327 -124.34824272234914 1
vertex 266.744542226207 -124.87541240716587 1
endloop
endfacet
facet normal 0 0 1
outer loop
vertex 331.52528357026677 -124.34824272234914 1
vertex 331.3846856835903 -123.78046297423454 1
vertex 267.2754044101226 -123.78046297423454 1
endloop
endfacet
facet normal 0 0 1
outer loop
vertex 331.52528357026677 -124.34824272234914 1
vertex 267.2754044101226 -123.78046297423454 1
vertex 267.0518542122327 -124.34824272234914 1
endloop
endfacet
facet normal 0 0 1
outer loop
vertex 331.3846856835903 -123.78046297423454 1
vertex 331.2373035915131 -123.1852864101034 1
vertex 267.40999040810647 -123.1852864101034 1
endloop
endfacet
facet normal 0 0 1
outer loop
vertex 331.3846856835903 -123.78046297423454 1
vertex 267.40999040810647 -123.1852864101034 1
vertex 267.2754044101226 -123.78046297423454 1
endloop
endfacet
facet normal 0 0 1
outer loop
vertex 331.2373035915131 -123.1852864101034 1
vertex 331.0865680915148 -122.57656769999984 1
vertex 267.4524803 -122.57656769999984 1
endloop
endfacet
facet normal 0 0 1
outer loop
vertex 331.2373035915131 -123.1852864101034 1
vertex 267.4524803 -122.57656769999984 1
vertex 267.40999040810647 -123.1852864101034 1
endloop
endfacet
facet normal 0 0 1
outer loop
vertex 331.0865680915148 -122.57656769999984 1
vertex 329.82841450000024 -117.49573650000113 1
vertex 267.4186420674698 -117.49573650000113 1
endloop
endfacet
facet normal 0 0 1
outer loop
vertex 331.0865680915148 -122.57656769999984 1
vertex 267.4186420674698 -117.49573650000113 1
vertex 267.4524803 -122.57656769999984 1
endloop
endfacet
facet normal 0 0 1
outer loop
vertex 329.82841450000024 -117.49573650000113 1
vertex 329.72326941261156 -116.84550918445457 1
vertex 267.41431156676333 -116.84550918445457 1
endloop
endfacet
facet normal 0 0 1
outer loop
vertex 329.82841450000024 -117.49573650000113 1
vertex 267.41431156676333 -116.84550918445457 1
vertex 267.4186420674698 -117.49573650000113 1
endloop
endfacet
facet normal 0 0 1
outer loop
vertex 329.72326941261156 -116.84550918445457 1
vertex 329.7262593384732 -116.18684583189015 1
vertex 267.40992488222184 -116.18684583189015 1
endloop
endfacet
facet normal 0 0 1
outer loop
vertex 329.72326941261156 -116.84550918445457 1
vertex 267.40992488222184 -116.18684583189015 1
vertex 267.41431156676333 -116.84550918445457 1
endloop
endfacet
facet normal 0 0 1
outer loop
vertex 329.7262593384732 -116.18684583189015 1
vertex 329.8373009545582 -115.53760311058701 1
vertex 267.40560093889303 -115.53760311058701 1
endloop
endfacet
facet normal 0 0 1
outer loop
vertex 329.7262593384732 -116.18684583189015 1
vertex 267.40560093889303 -115.53760311058701 1
vertex 267.40992488222184 -116.18684583189015 1
endloop
endfacet
facet normal 0 0 1
outer loop
vertex 329.8373009545582 -115.53760311058701 1
vertex 330.0533833233655 -114.9153854946681 1
vertex 267.4014569822168 -114.9153854946681 1
endloop
endfacet
facet normal 0 0 1
outer loop
vertex 329.8373009545582 -115.53760311058701 1
vertex 267.4014569822168 -114.9153854946681 1
vertex 267.40560093889303 -115.53760311058701 1
endloop
endfacet
facet normal 0 0 1
outer loop
vertex 330.0533833233655 -114.9153854946681 1
vertex 330.3686472856839 -114.3370646617987 1
vertex 267.3976053772236 -114.3370646617987 1
endloop
endfacet
facet normal 0 0 1
outer loop
vertex 330.0533833233655 -114.9153854946681 1
vertex 267.3976053772236 -114.3370646617987 1
vertex 267.4014569822168 -114.9153854946681 1
endloop
endfacet
facet normal 0 0 1
outer loop
vertex 330.3686472856839 -114.3370646617987 1
vertex 330.77454433402306 -113.81832201094122 1
vertex 267.39415056171174 -113.81832201094122 1
endloop
endfacet
facet normal 0 0 1
outer loop
vertex 330.3686472856839 -114.3370646617987 1
vertex 267.39415056171174 -113.81832201094122 1
vertex 267.3976053772236 -114.3370646617987 1
endloop
endfacet
facet normal 0 0 1
outer loop
vertex 330.77454433402306 -113.81832201094122 1
vertex 331.2600684087834 -113.37322345500536 1
vertex 267.3911862143753 -113.37322345500536 1
endloop
endfacet
facet normal 0 0 1
outer loop
vertex 330.77454433402306 -113.81832201094122 1
vertex 267.3911862143753 -113.37322345500536 1
vertex 267.39415056171174 -113.81832201094122 1
endloop
endfacet
facet normal 0 0 1
outer loop
vertex 331.2600684087834 -113.37322345500536 1
vertex 331.8120543319352 -113.01383801802966 1
vertex 267.38879271466914 -113.01383801802966 1
endloop
endfacet
facet normal 0 0 1
outer loop
vertex 331.2600684087834 -113.37322345500536 1
vertex 267.38879271466914 -113.01383801802966 1
vertex 267.3911862143753 -113.37322345500536 1
endloop
endfacet
facet normal 0 0 1
outer loop
vertex 331.8120543319352 -113.01383801802966 1
vertex 332.4155347860456 -112.74991057880607 1
vertex 267.3870349632879 -112.74991057880607 1
endloop
endfacet
facet normal 0 0 1
outer loop
vertex 331.8120543319352 -113.01383801802966 1
vertex 267.3870349632879 -112.74991057880607 1
vertex 267.38879271466914 -113.01383801802966 1
endloop
endfacet
facet normal 0 0 1
outer loop
vertex 332.4155347860456 -112.74991057880607 1
vertex 333.05414615903203 -112.58859763462299 1
vertex 267.38596062235814 -112.58859763462299 1
endloop
endfacet
facet normal 0 0 1
outer loop
vertex 332.4155347860456 -112.74991057880607 1
vertex 267.38596062235814 -112.58859763462299 1
vertex 267.3870349632879 -112.74991057880607 1
endloop
endfacet
facet normal 0 0 1
outer loop
vertex 333.05414615903203 -112.58859763462299 1
vertex 333.71057224999976 -112.53427325000001 1
vertex 267.3855988230606 -112.53427325000001 1
endloop
endfacet
facet normal 0 0 1
outer loop
vertex 333.05414615903203 -112.58859763462299 1
vertex 267.3855988230606 -112.53427325000001 1
vertex 267.38596062235814 -112.58859763462299 1
endloop
endfacet
facet normal 0 0 1
outer loop
vertex 333.71057224999976 -112.53427325000001 1
vertex 394.2755740000001 -112.525574 1
vertex 394.97009743260804 -112.46471349528423 1
endloop
endfacet
facet normal 0 0 1
outer loop
vertex 333.71057224999976 -112.53427325000001 1
vertex 394.97009743260804 -112.46471349528423 1
vertex 395.6435014791659 -112.284188209006 1
endloop
endfacet
facet normal 0 0 1
outer loop
vertex 333.71057224999976 -112.53427325000001 1
vertex 395.6435014791659 -112.284188209006 1
vertex 396.27533186595076 -111.98948030065932 1
endloop
endfacet
facet normal 0 0 1
outer loop
vertex 333.71057224999976 -112.53427325000001 1
vertex 396.27533186595076 -111.98948030065932 1
vertex 396.8463942812625 -111.58954267211747 1
endloop
endfacet
facet normal 0 0 1
outer loop
vertex 333.71057224999976 -112.53427325000001 1
vertex 396.8463942812625 -111.58954267211747 1
vertex 397.3393404774901 -111.09652498832571 1
endloop
endfacet
facet normal 0 0 1
outer loop
vertex 333.71057224999976 -112.53427325000001 1
vertex 397.3393404774901 -111.09652498832571 1
vertex 397.7391952917739 -110.52540458385701 1
endloop
endfacet
facet normal 0 0 1
outer loop
vertex 333.71057224999976 -112.53427325000001 1
vertex 397.7391952917739 -110.52540458385701 1
vertex 398.03381157497364 -109.89353146797087 1
endloop
endfacet
facet normal 0 0 1
outer loop
vertex 333.71057224999976 -112.53427325000001 1
vertex 398.03381157497364 -109.89353146797087 1
vertex 398.21423920868796 -109.22010125042883 1
endloop
endfacet
facet normal 0 0 1
outer loop
vertex 333.71057224999976 -112.53427325000001 1
vertex 398.21423920868796 -109.22010125042883 1
vertex 398.274997 -108.52557199999984 1
endloop
endfacet
facet normal 0 0 1
outer loop
vertex 333.71057224999976 -112.53427325000001 1
vertex 398.274997 -108.52557199999984 1
vertex 398.275 -52.46061479999913 1
endloop
endfacet
facet normal 0 0 1
outer loop
vertex 333.71057224999976 -112.53427325000001 1
vertex 398.275 -52.46061479999913 1
vertex 398.221151441504 -51.806508861247266 1
endloop
endfacet
facet normal 0 0 1
outer loop
vertex 333.71057224999976 -112.53427325000001 1
vertex 398.221151441504 -51.806508861247266 1
vertex 398.0610681991684 -51.17001026361761 1
endloop
endfacet
facet normal 0 0 1
outer loop
vertex 333.71057224999976 -112.53427325000001 1
vertex 398.0610681991684 -51.17001026361761 1
vertex 397.7990550851627 -50.56825762560909 1
endloop
endfacet
facet normal 0 0 1
outer loop
vertex 333.71057224999976 -112.53427325000001 1
vertex 397.7990550851627 -50.56825762560909 1
vertex 397.4421661002102 -50.01745152389892 1
endloop
endfacet
facet normal 0 0 1
outer loop
vertex 333.71057224999976 -112.53427325000001 1
vertex 397.4421661002102 -50.01745152389892 1
vertex 397.0000095235294 -49.53242093624634 1
endloop
endfacet
facet normal 0 0 1
outer loop
vertex 333.71057224999976 -112.53427325000001 1
vertex 397.0000095235294 -49.53242093624634 1
vertex 396.4844892356702 -49.126224011015445 1
endloop
endfacet
facet normal 0 0 1
outer loop
vertex 333.71057224999976 -112.53427325000001 1
vertex 396.4844892356702 -49.126224011015445 1
vertex 395.90948423844344 -48.809796511538245 1
endloop
endfacet
facet normal 0 0 1
outer loop
vertex 333.71057224999976 -112.53427325000001 1
vertex 395.90948423844344 -48.809796511538245 1
vertex 395.2904750000002 -48.59165740000004 1
endloop
endfacet
facet normal 0 0 1
outer loop
vertex 333.71057224999976 -112.53427325000001 1
vertex 395.2904750000002 -48.59165740000004 1
vertex 379.39181430000036 -44.41878330000009 1
endloop
endfacet
facet normal 0 0 1
outer loop
vertex 333.71057224999976 -112.53427325000001 1
vertex 379.39181430000036 -44.41878330000009 1
vertex 379.2242140860814 -44.37863316788726 1
endloop
endfacet
facet normal 0 0 1
outer loop
vertex 333.71057224999976 -112.53427325000001 1
vertex 379.2242140860814 -44.37863316788726 1
vertex 379.0550371499998 -44.345741649999965 1
endloop
endfacet
facet normal 0 0 1
outer loop
vertex 333.71057224999976 -112.53427325000001 1
vertex 379.0550371499998 -44.345741649999965 1
vertex 350.7311336000001 -39.469193300000015 1
endloop
endfacet
facet normal 0 0 1
outer loop
vertex 333.71057224999976 -112.53427325000001 1
vertex 350.7311336000001 -39.469193300000015 1
vertex 350.34716800498035 -39.42206779946001 1
endloop
endfacet
facet normal 0 0 1
outer loop
vertex 333.71057224999976 -112.53427325000001 1
vertex 350.34716800498035 -39.42206779946001 1
vertex 349.96044228147707 -39.41225052474701 1
endloop
endfacet
facet normal 0 0 1
outer loop
vertex 333.71057224999976 -112.53427325000001 1
vertex 349.96044228147707 -39.41225052474701 1
vertex 349.5745767999999 -39.43983665000002 1
endloop
endfacet
facet normal 0 0 1
outer loop
vertex 333.71057224999976 -112.53427325000001 1
vertex 349.5745767999999 -39.43983665000002 1
vertex 270.51083520000003 -48.95334039999999 1
endloop
endfacet
facet normal 0 0 1
outer loop
vertex 333.71057224999976 -112.53427325000001 1
vertex 270.51083520000003 -48.95334039999999 1
vertex 269.87667159481373 -49.082380623929694 1
endloop
endfacet
facet normal 0 0 1
outer loop
vertex 333.71057224999976 -112.53427325000001 1
vertex 269.87667159481373 -49.082380623929694 1
vertex 269.2716138029118 -49.31199275605947 1
endloop
endfacet
facet normal 0 0 1
outer loop
vertex 333.71057224999976 -112.53427325000001 1
vertex 269.2716138029118 -49.31199275605947 1
vertex 268.71150224211806 -49.636171259707574 1
endloop
endfacet
facet normal 0 0 1
outer loop
vertex 333.71057224999976 -112.53427325000001 1
vertex 268.71150224211806 -49.636171259707574 1
vertex 268.2109984158488 -50.046430424934414 1
endloop
endfacet
facet normal 0 0 1
outer loop
vertex 333.71057224999976 -112.53427325000001 1
vertex 268.2109984158488 -50.046430424934414 1
vertex 267.78320353299307 -50.532031290836635 1
endloop
endfacet
facet normal 0 0 1
outer loop
vertex 333.71057224999976 -112.53427325000001 1
vertex 267.78320353299307 -50.532031290836635 1
vertex 267.4393155701247 -51.08026274903371 1
endloop
endfacet
facet normal 0 0 1
outer loop
vertex 333.71057224999976 -112.53427325000001 1
vertex 267.4393155701247 -51.08026274903371 1
vertex 267.1883361528046 -51.67677427016657 1
endloop
endfacet
facet normal 0 0 1
outer loop
vertex 333.71057224999976 -112.53427325000001 1
vertex 267.1883361528046 -51.67677427016657 1
vertex 267.0368349286568 -52.30595154394861 1
endloop
endfacet
facet normal 0 0 1
outer loop
vertex 333.71057224999976 -112.53427325000001 1
vertex 267.0368349286568 -52.30595154394861 1
vertex 266.9887776 -52.951325199999786 1
endloop
endfacet
facet normal 0 0 1
outer loop
vertex 333.71057224999976 -112.53427325000001 1
vertex 266.9887776 -52.951325199999786 1
vertex 267.3855988230606 -112.53427325000001 1
endloop
endfacet
facet normal 0.9999999999999986 -5.350938181436504e-8 0
outer loop
vertex 398.275 -52.46061479999913 1
vertex 398.274997 -108.52557199999984 1
vertex 398.274997 -108.52557200000015 0
endloop
endfacet
facet normal 0.9999999999999986 -5.350938181436504e-8 0
outer loop
vertex 398.275 -52.46061479999913 1
vertex 398.274997 -108.52557200000015 0
vertex 398.275 -52.46061479999972 0
endloop
endfacet
facet normal 0.9966285142584121 0.08204635620836605 0
outer loop
vertex 398.221151441504 -51.806508861247266 1
vertex 398.275 -52.46061479999913 1
vertex 398.275 -52.46061479999972 0
endloop
endfacet
facet normal 0.9966285142584121 0.08204635620836605 0
outer loop
vertex 398.221151441504 -51.806508861247266 1
vertex 398.275 -52.46061479999972 0
vertex 398.22115144150393 -51.8065088612471 0
endloop
endfacet
facet normal 0.9697978661870917 0.24391002180919896 0
outer loop
vertex 398.0610681991684 -51.17001026361761 1
vertex 398.221151441504 -51.806508861247266 1
vertex 398.22115144150393 -51.8065088612471 0
endloop
endfacet
facet normal 0.9697978661870917 0.24391002180919896 0
outer loop
vertex 398.0610681991684 -51.17001026361761 1
vertex 398.22115144150393 -51.8065088612471 0
vertex 398.06106819916835 -51.170010263617606 0
endloop
endfacet
facet normal 0.9168573607017894 0.3992149547887065 0
outer loop
vertex 397.7990550851627 -50.56825762560909 1
vertex 398.0610681991684 -51.17001026361761 1
vertex 398.06106819916835 -51.170010263617606 0
endloop
endfacet
facet normal 0.9168573607017894 0.3992149547887065 0
outer loop
vertex 397.7990550851627 -50.56825762560909 1
vertex 398.06106819916835 -51.170010263617606 0
vertex 397.79905508516254 -50.5682576256089 0
endloop
endfacet
facet normal 0.8392329285726233 0.5437720952746823 0
outer loop
vertex 397.4421661002102 -50.01745152389892 1
vertex 397.7990550851627 -50.56825762560909 1
vertex 397.79905508516254 -50.5682576256089 0
endloop
endfacet
facet normal 0.8392329285726233 0.5437720952746823 0
outer loop
vertex 397.4421661002102 -50.01745152389892 1
vertex 397.79905508516254 -50.5682576256089 0
vertex 397.44216610021 -50.01745152389871 0
endloop
endfacet
facet normal 0.7390143995492261 0.6736896297694487 0
outer loop
vertex 397.0000095235294 -49.53242093624634 1
vertex 397.4421661002102 -50.01745152389892 1
vertex 397.44216610021 -50.01745152389871 0
endloop
endfacet
facet normal 0.7390143995492261 0.6736896297694487 0
outer loop
vertex 397.0000095235294 -49.53242093624634 1
vertex 397.44216610021 -50.01745152389871 0
vertex 397.00000952352923 -49.53242093624617 0
endloop
endfacet
facet normal 0.6188998888725877 0.7854698769230418 0
outer loop
vertex 396.4844892356702 -49.126224011015445 1
vertex 397.0000095235294 -49.53242093624634 1
vertex 397.00000952352923 -49.53242093624617 0
endloop
endfacet
facet normal 0.6188998888725877 0.7854698769230418 0
outer loop
vertex 396.4844892356702 -49.126224011015445 1
vertex 397.00000952352923 -49.53242093624617 0
vertex 396.4844892356703 -49.12622401101547 0
endloop
endfacet
facet normal 0.482123157755125 0.8761034532269729 0
outer loop
vertex 395.90948423844344 -48.809796511538245 1
vertex 396.4844892356702 -49.126224011015445 1
vertex 396.4844892356703 -49.12622401101547 0
endloop
endfacet
facet normal 0.482123157755125 0.8761034532269729 0
outer loop
vertex 395.90948423844344 -48.809796511538245 1
vertex 396.4844892356703 -49.12622401101547 0
vertex 395.90948423844367 -48.809796511538345 0
endloop
endfacet
facet normal 0.3323665530287767 0.9431502925980404 0
outer loop
vertex 395.2904750000002 -48.59165740000004 1
vertex 395.90948423844344 -48.809796511538245 1
vertex 395.90948423844367 -48.809796511538345 0
endloop
endfacet
facet normal 0.3323665530287767 0.9431502925980404 0
outer loop
vertex 395.2904750000002 -48.59165740000004 1
vertex 395.90948423844367 -48.809796511538345 0
vertex 395.29047499999996 -48.59165739999997 0
endloop
endfacet
facet normal 0.2538682853678222 0.9672387986864475 0
outer loop
vertex 379.39181430000036 -44.41878330000009 1
vertex 395.2904750000002 -48.59165740000004 1
vertex 395.29047499999996 -48.59165739999997 0
endloop
endfacet
facet normal 0.2538682853678222 0.9672387986864475 0
outer loop
vertex 379.39181430000036 -44.41878330000009 1
vertex 395.29047499999996 -48.59165739999997 0
vertex 379.3918143000008 -44.4187833000002 0
endloop
endfacet
facet normal 0.23296738244508203 0.972484549345997 0
outer loop
vertex 379.2242140860814 -44.37863316788726 1
vertex 379.39181430000036 -44.41878330000009 1
vertex 379.3918143000008 -44.4187833000002 0
endloop
endfacet
facet normal 0.23296738244508203 0.972484549345997 0
outer loop
vertex 379.2242140860814 -44.37863316788726 1
vertex 379.3918143000008 -44.4187833000002 0
vertex 379.224214086081 -44.37863316788716 0
endloop
endfacet
facet normal 0.1908473094824714 0.9816197351639289 0
outer loop
vertex 379.0550371499998 -44.345741649999965 1
vertex 379.2242140860814 -44.37863316788726 1
vertex 379.224214086081 -44.37863316788716 0
endloop
endfacet
facet normal 0.1908473094824714 0.9816197351639289 0
outer loop
vertex 379.0550371499998 -44.345741649999965 1
vertex 379.224214086081 -44.37863316788716 0
vertex 379.05503715000106 -44.345741650000186 0
endloop
endfacet
facet normal 0.1696743286569564 0.9855001888355026 0
outer loop
vertex 350.7311336000001 -39.469193300000015 1
vertex 379.0550371499998 -44.345741649999965 1
vertex 379.05503715000106 -44.345741650000186 0
endloop
endfacet
facet normal 0.1696743286569564 0.9855001888355026 0
outer loop
vertex 350.7311336000001 -39.469193300000015 1
vertex 379.05503715000106 -44.345741650000186 0
vertex 350.7311335999999 -39.46919329999997 0
endloop
endfacet
facet normal 0.12181956607031587 0.9925522622625168 0
outer loop
vertex 350.34716800498035 -39.42206779946001 1
vertex 350.7311336000001 -39.469193300000015 1
vertex 350.7311335999999 -39.46919329999997 0
endloop
endfacet
facet normal 0.12181956607031587 0.9925522622625168 0
outer loop
vertex 350.34716800498035 -39.42206779946001 1
vertex 350.7311335999999 -39.46919329999997 0
vertex 350.34716800498046 -39.42206779946001 0
endloop
endfacet
facet normal 0.025377450661565604 0.9996779406378435 0
outer loop
vertex 349.96044228147707 -39.41225052474701 1
vertex 350.34716800498035 -39.42206779946001 1
vertex 350.34716800498046 -39.42206779946001 0
endloop
endfacet
facet normal 0.025377450661565604 0.9996779406378435 0
outer loop
vertex 349.96044228147707 -39.41225052474701 1
vertex 350.34716800498046 -39.42206779946001 0
vertex 349.9604422814771 -39.41225052474701 0
endloop
endfacet
facet normal -0.07130955922264091 0.9974542329167153 0
outer loop
vertex 349.5745767999999 -39.43983665000002 1
vertex 349.96044228147707 -39.41225052474701 1
vertex 349.9604422814771 -39.41225052474701 0
endloop
endfacet
facet normal -0.07130955922264091 0.9974542329167153 0
outer loop
vertex 349.5745767999999 -39.43983665000002 1
vertex 349.9604422814771 -39.41225052474701 0
vertex 349.5745768 -39.43983665000002 0
endloop
endfacet
facet normal -0.11946527518695396 0.99283837960894 0
outer loop
vertex 270.51083520000003 -48.95334039999999 1
vertex 349.5745767999999 -39.43983665000002 1
vertex 349.5745768 -39.43983665000002 0
endloop
endfacet
facet normal -0.11946527518695396 0.99283837960894 0
outer loop
vertex 270.51083520000003 -48.95334039999999 1
vertex 349.5745768 -39.43983665000002 0
vertex 270.5108352000001 -48.95334039999999 0
endloop
endfacet
facet normal -0.19939491012560512 0.9799192159642559 0
outer loop
vertex 269.87667159481373 -49.082380623929694 1
vertex 270.51083520000003 -48.95334039999999 1
vertex 270.5108352000001 -48.95334039999999 0
endloop
endfacet
facet normal -0.19939491012560512 0.9799192159642559 0
outer loop
vertex 269.87667159481373 -49.082380623929694 1
vertex 270.5108352000001 -48.95334039999999 0
vertex 269.8766715948138 -49.0823806239297 0
endloop
endfacet
facet normal -0.35479938258777 0.9349424571145206 0
outer loop
vertex 269.2716138029118 -49.31199275605947 1
vertex 269.87667159481373 -49.082380623929694 1
vertex 269.8766715948138 -49.0823806239297 0
endloop
endfacet
facet normal -0.35479938258777 0.9349424571145206 0
outer loop
vertex 269.2716138029118 -49.31199275605947 1
vertex 269.8766715948138 -49.0823806239297 0
vertex 269.2716138029117 -49.31199275605954 0
endloop
endfacet
facet normal -0.5009244584583703 0.8654910091492509 0
outer loop
vertex 268.71150224211806 -49.636171259707574 1
vertex 269.2716138029118 -49.31199275605947 1
vertex 269.2716138029117 -49.31199275605954 0
endloop
endfacet
facet normal -0.5009244584583703 0.8654910091492509 0
outer loop
vertex 268.71150224211806 -49.636171259707574 1
vertex 269.2716138029117 -49.31199275605954 0
vertex 268.71150224211806 -49.63617125970756 0
endloop
endfacet
facet normal -0.6339373149547307 0.7733844326775569 0
outer loop
vertex 268.2109984158488 -50.046430424934414 1
vertex 268.71150224211806 -49.636171259707574 1
vertex 268.71150224211806 -49.63617125970756 0
endloop
endfacet
facet normal -0.6339373149547307 0.7733844326775569 0
outer loop
vertex 268.2109984158488 -50.046430424934414 1
vertex 268.71150224211806 -49.63617125970756 0
vertex 268.2109984158488 -50.046430424934414 0
endloop
endfacet
facet normal -0.750356202035448 0.6610337132604798 0
outer loop
vertex 267.78320353299307 -50.532031290836635 1
vertex 268.2109984158488 -50.046430424934414 1
vertex 268.2109984158488 -50.046430424934414 0
endloop
endfacet
facet normal -0.750356202035448 0.6610337132604798 0
outer loop
vertex 267.78320353299307 -50.532031290836635 1
vertex 268.2109984158488 -50.046430424934414 0
vertex 267.78320353299296 -50.53203129083675 0
endloop
endfacet
facet normal -0.8471337340899664 0.531379747983295 0
outer loop
vertex 267.4393155701247 -51.08026274903371 1
vertex 267.78320353299307 -50.532031290836635 1
vertex 267.78320353299296 -50.53203129083675 0
endloop
endfacet
facet normal -0.8471337340899664 0.531379747983295 0
outer loop
vertex 267.4393155701247 -51.08026274903371 1
vertex 267.78320353299296 -50.53203129083675 0
vertex 267.4393155701247 -51.08026274903368 0
endloop
endfacet
facet normal -0.9217366584304443 0.38781636441166134 0
outer loop
vertex 267.1883361528046 -51.67677427016657 1
vertex 267.4393155701247 -51.08026274903371 1
vertex 267.4393155701247 -51.08026274903368 0
endloop
endfacet
facet normal -0.9217366584304443 0.38781636441166134 0
outer loop
vertex 267.1883361528046 -51.67677427016657 1
vertex 267.4393155701247 -51.08026274903368 0
vertex 267.18833615280465 -51.676774270166334 0
endloop
endfacet
facet normal -0.9722121658190211 0.23410148362086095 0
outer loop
vertex 267.0368349286568 -52.30595154394861 1
vertex 267.1883361528046 -51.67677427016657 1
vertex 267.18833615280465 -51.676774270166334 0
endloop
endfacet
facet normal -0.9722121658190211 0.23410148362086095 0
outer loop
vertex 267.0368349286568 -52.30595154394861 1
vertex 267.18833615280465 -51.676774270166334 0
vertex 267.0368349286568 -52.3059515439487 0
endloop
endfacet
facet normal -0.9972390072834931 0.07425875269780134 0
outer loop
vertex 266.9887776 -52.951325199999786 1
vertex 267.0368349286568 -52.30595154394861 1
vertex 267.0368349286568 -52.3059515439487 0
endloop
endfacet
facet normal -0.9972390072834931 0.07425875269780134 0
outer loop
vertex 266.9887776 -52.951325199999786 1
vertex 267.0368349286568 -52.3059515439487 0
vertex 266.9887776 -52.951325199999744 0
endloop
endfacet
facet normal 0 0 1
outer loop
vertex 267.4524803 -122.57656769999984 1
vertex 267.4186420674698 -117.49573650000113 1
vertex 267.41431156676333 -116.84550918445457 1
endloop
endfacet
facet normal 0 0 1
outer loop
vertex 267.4524803 -122.57656769999984 1
vertex 267.41431156676333 -116.84550918445457 1
vertex 267.40992488222184 -116.18684583189015 1
endloop
endfacet
facet normal 0 0 1
outer loop
vertex 267.4524803 -122.57656769999984 1
vertex 267.40992488222184 -116.18684583189015 1
vertex 267.40560093889303 -115.53760311058701 1
endloop
endfacet
facet normal 0 0 1
outer loop
vertex 267.4524803 -122.57656769999984 1
vertex 267.40560093889303 -115.53760311058701 1
vertex 267.4014569822168 -114.9153854946681 1
endloop
endfacet
facet normal 0 0 1
outer loop
vertex 267.4524803 -122.57656769999984 1
vertex 267.4014569822168 -114.9153854946681 1
vertex 267.3976053772236 -114.3370646617987 1
endloop
endfacet
facet normal 0 0 1
outer loop
vertex 267.4524803 -122.57656769999984 1
vertex 267.3976053772236 -114.3370646617987 1
vertex 267.39415056171174 -113.81832201094122 1
endloop
endfacet
facet normal 0 0 1
outer loop
vertex 267.4524803 -122.57656769999984 1
vertex 267.39415056171174 -113.81832201094122 1
vertex 267.3911862143753 -113.37322345500536 1
endloop
endfacet
facet normal 0 0 1
outer loop
vertex 267.4524803 -122.57656769999984 1
vertex 267.3911862143753 -113.37322345500536 1
vertex 267.38879271466914 -113.01383801802966 1
endloop
endfacet
facet normal 0 0 1
outer loop
vertex 267.4524803 -122.57656769999984 1
vertex 267.38879271466914 -113.01383801802966 1
vertex 267.3870349632879 -112.74991057880607 1
endloop
endfacet
facet normal 0 0 1
outer loop
vertex 267.4524803 -122.57656769999984 1
vertex 267.3870349632879 -112.74991057880607 1
vertex 267.38596062235814 -112.58859763462299 1
endloop
endfacet
facet normal 0 0 1
outer loop
vertex 267.4524803 -122.57656769999984 1
vertex 267.38596062235814 -112.58859763462299 1
vertex 267.3855988230606 -112.53427325000001 1
endloop
endfacet
facet normal 0 0 1
outer loop
vertex 267.4524803 -122.57656769999984 1
vertex 267.3855988230606 -112.53427325000001 1
vertex 266.9887776 -52.951325199999786 1
endloop
endfacet
facet normal 0 0 1
outer loop
vertex 267.4524803 -122.57656769999984 1
vertex 266.9887776 -52.951325199999786 1
vertex 266.9887776 -52.951325199999744 0
endloop
endfacet
facet normal 0 0 1
outer loop
vertex 267.4524803 -122.57656769999984 1
vertex 266.9887776 -52.951325199999744 0
vertex 267.38559882306066 -112.53427325000001 0
endloop
endfacet
facet normal 0 0 1
outer loop
vertex 267.4524803 -122.57656769999984 1
vertex 267.38559882306066 -112.53427325000001 0
vertex 267.38596062235814 -112.588597634623 0
endloop
endfacet
facet normal 0 0 1
outer loop
vertex 267.4524803 -122.57656769999984 1
vertex 267.38596062235814 -112.588597634623 0
vertex 267.38703496328793 -112.74991057880602 0
endloop
endfacet
facet normal 0 0 1
outer loop
vertex 267.4524803 -122.57656769999984 1
vertex 267.38703496328793 -112.74991057880602 0
vertex 267.38879271466914 -113.01383801802955 0
endloop
endfacet
facet normal 0 0 1
outer loop
vertex 267.4524803 -122.57656769999984 1
vertex 267.38879271466914 -113.01383801802955 0
vertex 267.39118621437535 -113.3732234550054 0
endloop
endfacet
facet normal 0 0 1
outer loop
vertex 267.4524803 -122.57656769999984 1
vertex 267.39118621437535 -113.3732234550054 0
vertex 267.39415056171174 -113.81832201094142 0
endloop
endfacet
facet normal 0 0 1
outer loop
vertex 267.4524803 -122.57656769999984 1
vertex 267.39415056171174 -113.81832201094142 0
vertex 267.39760537722367 -114.3370646617984 0
endloop
endfacet
facet normal 0 0 1
outer loop
vertex 267.4524803 -122.57656769999984 1
vertex 267.39760537722367 -114.3370646617984 0
vertex 267.40145698221687 -114.9153854946681 0
endloop
endfacet
facet normal 0 0 1
outer loop
vertex 267.4524803 -122.57656769999984 1
vertex 267.40145698221687 -114.9153854946681 0
vertex 267.4056009388931 -115.53760311058691 0
endloop
endfacet
facet normal 0 0 1
outer loop
vertex 267.4524803 -122.57656769999984 1
vertex 267.4056009388931 -115.53760311058691 0
vertex 267.40992488222184 -116.18684583189 0
endloop
endfacet
facet normal 0 0 1
outer loop
vertex 267.4524803 -122.57656769999984 1
vertex 267.40992488222184 -116.18684583189 0
vertex 267.4143115667634 -116.84550918445461 0
endloop
endfacet
facet normal 0 0 1
outer loop
vertex 267.4524803 -122.57656769999984 1
vertex 267.4143115667634 -116.84550918445461 0
vertex 267.4186420674698 -117.49573650000087 0
endloop
endfacet
facet normal 0 0 1
outer loop
vertex 267.4524803 -122.57656769999984 1
vertex 267.4186420674698 -117.49573650000087 0
vertex 267.4524803 -122.57656769999944 0
endloop
endfacet
facet normal -0.9975726943657528 0.06963274700780166 0
outer loop
vertex 267.40999040810647 -123.1852864101034 1
vertex 267.4524803 -122.57656769999984 1
vertex 267.4524803 -122.57656769999944 0
endloop
endfacet
facet normal -0.9975726943657528 0.06963274700780166 0
outer loop
vertex 267.40999040810647 -123.1852864101034 1
vertex 267.4524803 -122.57656769999944 0
vertex 267.4099904081064 -123.18528641010337 0
endloop
endfacet
facet normal -0.9753736036562812 0.2205591378532293 0
outer loop
vertex 267.2754044101226 -123.78046297423454 1
vertex 267.40999040810647 -123.1852864101034 1
vertex 267.4099904081064 -123.18528641010337 0
endloop
endfacet
facet normal -0.9753736036562812 0.2205591378532293 0
outer loop
vertex 267.2754044101226 -123.78046297423454 1
vertex 267.4099904081064 -123.18528641010337 0
vertex 267.2754044101224 -123.78046297423501 0
endloop
endfacet
facet normal -0.930475782105079 0.3663534071302486 0
outer loop
vertex 267.0518542122327 -124.34824272234914 1
vertex 267.2754044101226 -123.78046297423454 1
vertex 267.2754044101224 -123.78046297423501 0
endloop
endfacet
facet normal -0.930475782105079 0.3663534071302486 0
outer loop
vertex 267.0518542122327 -124.34824272234914 1
vertex 267.2754044101224 -123.78046297423501 0
vertex 267.05185421223257 -124.3482427223494 0
endloop
endfacet
facet normal -0.8639241297551561 0.5036219792927988 0
outer loop
vertex 266.744542226207 -124.87541240716587 1
vertex 267.0518542122327 -124.34824272234914 1
vertex 267.05185421223257 -124.3482427223494 0
endloop
endfacet
facet normal -0.8639241297551561 0.5036219792927988 0
outer loop
vertex 266.744542226207 -124.87541240716587 1
vertex 267.05185421223257 -124.3482427223494 0
vertex 266.7445422262071 -124.8754124071657 0
endloop
endfacet
facet normal -0.7772674222404777 0.6291703698710254 0
outer loop
vertex 266.3606201500004 -125.34970384999953 1
vertex 266.744542226207 -124.87541240716587 1
vertex 266.7445422262071 -124.8754124071657 0
endloop
endfacet
facet normal -0.7772674222404777 0.6291703698710254 0
outer loop
vertex 266.3606201500004 -125.34970384999953 1
vertex 266.7445422262071 -124.8754124071657 0
vertex 266.36062014999976 -125.34970385000025 0
endloop
endfacet
facet normal -0.7270134085413816 0.6866232619137237 0
outer loop
vertex 249.52373540000013 -143.1770068999998 1
vertex 266.3606201500004 -125.34970384999953 1
vertex 266.36062014999976 -125.34970385000025 0
endloop
endfacet
facet normal -0.7270134085413816 0.6866232619137237 0
outer loop
vertex 249.52373540000013 -143.1770068999998 1
vertex 266.36062014999976 -125.34970385000025 0
vertex 249.5237353999998 -143.17700690000024 0
endloop
endfacet
facet normal -0.7797654194224748 0.6260717935451908 0
outer loop
vertex 249.1218220569617 -143.67758547539162 1
vertex 249.52373540000013 -143.1770068999998 1
vertex 249.5237353999998 -143.17700690000024 0
endloop
endfacet
facet normal -0.7797654194224748 0.6260717935451908 0
outer loop
vertex 249.1218220569617 -143.67758547539162 1
vertex 249.5237353999998 -143.17700690000024 0
vertex 249.12182205696166 -143.67758547539168 0
endloop
endfacet
facet normal -0.8698782824382292 0.49326643281528554 0
outer loop
vertex 248.80516246849157 -144.2360165394392 1
vertex 249.1218220569617 -143.67758547539162 1
vertex 249.12182205696166 -143.67758547539168 0
endloop
endfacet
facet normal -0.8698782824382292 0.49326643281528554 0
outer loop
vertex 248.80516246849157 -144.2360165394392 1
vertex 249.12182205696166 -143.67758547539168 0
vertex 248.80516246849137 -144.2360165394396 0
endloop
endfacet
facet normal -0.9375849771070297 0.3477562518535226 0
outer loop
vertex 248.58191526520727 -144.83791290468034 1
vertex 248.80516246849157 -144.2360165394392 1
vertex 248.80516246849137 -144.2360165394396 0
endloop
endfacet
facet normal -0.9375849771070297 0.3477562518535226 0
outer loop
vertex 248.58191526520727 -144.83791290468034 1
vertex 248.80516246849137 -144.2360165394396 0
vertex 248.58191526520724 -144.83791290468028 0
endloop
endfacet
facet normal -0.9811419117983542 0.193288770787831 0
outer loop
vertex 248.45783071669203 -145.46777128009808 1
vertex 248.58191526520727 -144.83791290468034 1
vertex 248.58191526520724 -144.83791290468028 0
endloop
endfacet
facet normal -0.9811419117983542 0.193288770787831 0
outer loop
vertex 248.45783071669203 -145.46777128009808 1
vertex 248.58191526520724 -144.83791290468028 0
vertex 248.45783071669206 -145.46777128009785 0
endloop
endfacet
facet normal -0.9994271727189912 0.033842671746242566 0
outer loop
vertex 248.43610491944543 -146.1093681457369 1
vertex 248.45783071669203 -145.46777128009808 1
vertex 248.45783071669206 -145.46777128009785 0
endloop
endfacet
facet normal -0.9994271727189912 0.033842671746242566 0
outer loop
vertex 248.43610491944543 -146.1093681457369 1
vertex 248.45783071669206 -145.46777128009785 0
vertex 248.43610491944546 -146.1093681457372 0
endloop
endfacet
facet normal -0.9919697789198272 -0.1264751268421946 0
outer loop
vertex 248.51729747371883 -146.74617762854558 1
vertex 248.43610491944543 -146.1093681457369 1
vertex 248.43610491944546 -146.1093681457372 0
endloop
endfacet
facet normal -0.9919697789198272 -0.1264751268421946 0
outer loop
vertex 248.51729747371883 -146.74617762854558 1
vertex 248.43610491944546 -146.1093681457372 0
vertex 248.51729747371886 -146.74617762854567 0
endloop
endfacet
facet normal -0.9589618135450224 -0.2835352538264711 0
outer loop
vertex 248.69931706966233 -147.3617971660495 1
vertex 248.51729747371883 -146.74617762854558 1
vertex 248.51729747371886 -146.74617762854567 0
endloop
endfacet
facet normal -0.9589618135450224 -0.2835352538264711 0
outer loop
vertex 248.69931706966233 -147.3617971660495 1
vertex 248.51729747371886 -146.74617762854567 0
vertex 248.69931706966236 -147.36179716604963 0
endloop
endfacet
facet normal -0.9012534762678014 -0.43329224723643933 0
outer loop
vertex 248.97747535404866 -147.94036999386907 1
vertex 248.69931706966233 -147.3617971660495 1
vertex 248.69931706966236 -147.36179716604963 0
endloop
endfacet
facet normal -0.9012534762678014 -0.43329224723643933 0
outer loop
vertex 248.97747535404866 -147.94036999386907 1
vertex 248.69931706966236 -147.36179716604963 0
vertex 248.9774753540486 -147.94036999386898 0
endloop
endfacet
facet normal -0.8203311843494845 -0.5718887549023606 0
outer loop
vertex 249.34460769010627 -148.466993574888 1
vertex 248.97747535404866 -147.94036999386907 1
vertex 248.9774753540486 -147.94036999386898 0
endloop
endfacet
facet normal -0.8203311843494845 -0.5718887549023606 0
outer loop
vertex 249.34460769010627 -148.466993574888 1
vertex 248.9774753540486 -147.94036999386898 0
vertex 249.34460769010627 -148.46699357488797 0
endloop
endfacet
facet normal -0.7182792863817545 -0.6957548898534005 0
outer loop
vertex 249.79125769999993 -148.92810344999995 1
vertex 249.34460769010627 -148.466993574888 1
vertex 249.34460769010627 -148.46699357488797 0
endloop
endfacet
facet normal -0.7182792863817545 -0.6957548898534005 0
outer loop
vertex 249.79125769999993 -148.92810344999995 1
vertex 249.34460769010627 -148.46699357488797 0
vertex 249.79125769999993 -148.92810344999995 0
endloop
endfacet
facet normal -0.6601317356335127 -0.7511498463086351 0
outer loop
vertex 271.54093070000033 -168.0423314000003 1
vertex 249.79125769999993 -148.92810344999995 1
vertex 249.79125769999993 -148.92810344999995 0
endloop
endfacet
facet normal -0.6601317356335127 -0.7511498463086351 0
outer loop
vertex 271.54093070000033 -168.0423314000003 1
vertex 249.79125769999993 -148.92810344999995 0
vertex 271.5409307000004 -168.04233140000034 0
endloop
endfacet
facet normal -0.5972221745441898 -0.8020758531664629 0
outer loop
vertex 272.05988733963477 -168.4287442456097 1
vertex 271.54093070000033 -168.0423314000003 1
vertex 271.5409307000004 -168.04233140000034 0
endloop
endfacet
facet normal -0.5972221745441898 -0.8020758531664629 0
outer loop
vertex 272.05988733963477 -168.4287442456097 1
vertex 271.5409307000004 -168.04233140000034 0
vertex 272.0598873396347 -168.42874424560966 0
endloop
endfacet
facet normal -0.4600905305036882 -0.8878720086481131 0
outer loop
vertex 272.6343535117837 -168.72642954633548 1
vertex 272.05988733963477 -168.4287442456097 1
vertex 272.0598873396347 -168.42874424560966 0
endloop
endfacet
facet normal -0.4600905305036882 -0.8878720086481131 0
outer loop
vertex 272.6343535117837 -168.72642954633548 1
vertex 272.0598873396347 -168.42874424560966 0
vertex 272.6343535117835 -168.7264295463354 0
endloop
endfacet
facet normal -0.31092549968184346 -0.9504342868644817 0
outer loop
vertex 273.2492983927301 -168.92760289101338 1
vertex 272.6343535117837 -168.72642954633548 1
vertex 272.6343535117835 -168.7264295463354 0
endloop
endfacet
facet normal -0.31092549968184346 -0.9504342868644817 0
outer loop
vertex 273.2492983927301 -168.92760289101338 1
vertex 272.6343535117835 -168.7264295463354 0
vertex 273.24929839273034 -168.92760289101344 0
endloop
endfacet
facet normal -0.15362533788601235 -0.98812916947098 0
outer loop
vertex 273.88863241390146 -169.0270007309507 1
vertex 273.2492983927301 -168.92760289101338 1
vertex 273.24929839273034 -168.92760289101344 0
endloop
endfacet
facet normal -0.15362533788601235 -0.98812916947098 0
outer loop
vertex 273.88863241390146 -169.0270007309507 1
vertex 273.24929839273034 -168.92760289101344 0
vertex 273.88863241390146 -169.02700073095073 0
endloop
endfacet
facet normal 0.007694314900078325 -0.9999703983209796 0
outer loop
vertex 274.53562788328236 -169.0220223967033 1
vertex 273.88863241390146 -169.0270007309507 1
vertex 273.88863241390146 -169.02700073095073 0
endloop
endfacet
facet normal 0.007694314900078325 -0.9999703983209796 0
outer loop
vertex 274.53562788328236 -169.0220223967033 1
vertex 273.88863241390146 -169.02700073095073 0
vertex 274.5356278832821 -169.02202239670333 0
endloop
endfacet
facet normal 0.1688126517454407 -0.9856481566008597 0
outer loop
vertex 275.1733566528491 -168.91279814262853 1
vertex 274.53562788328236 -169.0220223967033 1
vertex 274.5356278832821 -169.02202239670333 0
endloop
endfacet
facet normal 0.1688126517454407 -0.9856481566008597 0
outer loop
vertex 275.1733566528491 -168.91279814262853 1
vertex 274.5356278832821 -169.02202239670333 0
vertex 275.1733566528494 -168.91279814262845 0
endloop
endfacet
facet normal 0.3255141329986495 -0.9455371749530198 0
outer loop
vertex 275.78513303078273 -168.70218573887826 1
vertex 275.1733566528491 -168.91279814262853 1
vertex 275.1733566528494 -168.91279814262845 0
endloop
endfacet
facet normal 0.3255141329986495 -0.9455371749530198 0
outer loop
vertex 275.78513303078273 -168.70218573887826 1
vertex 275.1733566528494 -168.91279814262845 0
vertex 275.78513303078284 -168.70218573887823 0
endloop
endfacet
facet normal 0.4736987827004648 -0.8806869269315276 0
outer loop
vertex 276.3549503499998 -168.3956957000001 1
vertex 275.78513303078273 -168.70218573887826 1
vertex 275.78513303078284 -168.70218573887823 0
endloop
endfacet
facet normal 0.4736987827004648 -0.8806869269315276 0
outer loop
vertex 276.3549503499998 -168.3956957000001 1
vertex 275.78513303078284 -168.70218573887823 0
vertex 276.3549503500002 -168.3956956999999 0
endloop
endfacet
facet normal 0.543371822251143 -0.8394921457544866 0
outer loop
vertex 330.90974810000034 -133.08441849999977 1
vertex 276.3549503499998 -168.3956957000001 1
vertex 276.3549503500002 -168.3956956999999 0
endloop
endfacet
facet normal 0.543371822251143 -0.8394921457544866 0
outer loop
vertex 330.90974810000034 -133.08441849999977 1
vertex 276.3549503500002 -168.3956956999999 0
vertex 330.9097481000003 -133.08441849999983 0
endloop
endfacet
facet normal 0.6066898139688212 -0.7949386577758546 0
outer loop
vertex 331.4017575320631 -132.70892146272624 1
vertex 330.90974810000034 -133.08441849999977 1
vertex 330.9097481000003 -133.08441849999983 0
endloop
endfacet
facet normal 0.6066898139688212 -0.7949386577758546 0
outer loop
vertex 331.4017575320631 -132.70892146272624 1
vertex 330.9097481000003 -133.08441849999983 0
vertex 331.40175753206313 -132.7089214627262 0
endloop
endfacet
facet normal 0.722062092841582 -0.6918282547578081 0
outer loop
vertex 331.829948887831 -132.26201756084572 1
vertex 331.4017575320631 -132.70892146272624 1
vertex 331.40175753206313 -132.7089214627262 0
endloop
endfacet
facet normal 0.722062092841582 -0.6918282547578081 0
outer loop
vertex 331.829948887831 -132.26201756084572 1
vertex 331.40175753206313 -132.7089214627262 0
vertex 331.829948887831 -132.26201756084572 0
endloop
endfacet
facet normal 0.8201453031524606 -0.572155295105235 0
outer loop
vertex 332.18407138837364 -131.75440728782146 1
vertex 331.829948887831 -132.26201756084572 1
vertex 331.829948887831 -132.26201756084572 0
endloop
endfacet
facet normal 0.8201453031524606 -0.572155295105235 0
outer loop
vertex 332.18407138837364 -131.75440728782146 1
vertex 331.829948887831 -132.26201756084572 0
vertex 332.18407138837347 -131.75440728782175 0
endloop
endfacet
facet normal 0.8985926492230539 -0.43878383147319105 0
outer loop
vertex 332.45564665636135 -131.19824381501252 1
vertex 332.18407138837364 -131.75440728782146 1
vertex 332.18407138837347 -131.75440728782175 0
endloop
endfacet
facet normal 0.8985926492230539 -0.43878383147319105 0
outer loop
vertex 332.45564665636135 -131.19824381501252 1
vertex 332.18407138837347 -131.75440728782175 0
vertex 332.4556466563614 -131.19824381501232 0
endloop
endfacet
facet normal 0.9555259499170599 -0.2949070345636072 0
outer loop
vertex 332.63817265481083 -130.60684277125284 1
vertex 332.45564665636135 -131.19824381501252 1
vertex 332.4556466563614 -131.19824381501232 0
endloop
endfacet
facet normal 0.9555259499170599 -0.2949070345636072 0
outer loop
vertex 332.63817265481083 -130.60684277125284 1
vertex 332.4556466563614 -131.19824381501232 0
vertex 332.6381726548109 -130.60684277125262 0
endloop
endfacet
facet normal 0.9895821119400461 -0.14396959306839122 0
outer loop
vertex 332.7272793584202 -129.99436344095466 1
vertex 332.63817265481083 -130.60684277125284 1
vertex 332.6381726548109 -130.60684277125262 0
endloop
endfacet
facet normal 0.9895821119400461 -0.14396959306839122 0
outer loop
vertex 332.7272793584202 -129.99436344095466 1
vertex 332.6381726548109 -130.60684277125262 0
vertex 332.7272793584202 -129.99436344095483 0
endloop
endfacet
facet normal 0.9999457649284498 0.01041475883818066 0
outer loop
vertex 332.7208333804246 -129.3754697634648 1
vertex 332.7272793584202 -129.99436344095466 1
vertex 332.7272793584202 -129.99436344095483 0
endloop
endfacet
facet normal 0.9999457649284498 0.01041475883818066 0
outer loop
vertex 332.7208333804246 -129.3754697634648 1
vertex 332.7272793584202 -129.99436344095483 0
vertex 332.7208333804246 -129.37546976346457 0
endloop
endfacet
facet normal 0.9863687829924385 0.16454976128216045 0
outer loop
vertex 332.61898905 -128.76497925000032 1
vertex 332.7208333804246 -129.3754697634648 1
vertex 332.7208333804246 -129.37546976346457 0
endloop
endfacet
facet normal 0.9863687829924385 0.16454976128216045 0
outer loop
vertex 332.61898905 -128.76497925000032 1
vertex 332.7208333804246 -129.37546976346457 0
vertex 332.6189890500001 -128.76497925000066 0
endloop
endfacet
facet normal 0 0 1
outer loop
vertex 329.82841450000024 -117.49573650000113 1
vertex 331.0865680915148 -122.57656769999984 1
vertex 331.2373035915131 -123.1852864101034 1
endloop
endfacet
facet normal 0 0 1
outer loop
vertex 329.82841450000024 -117.49573650000113 1
vertex 331.2373035915131 -123.1852864101034 1
vertex 331.3846856835903 -123.78046297423454 1
endloop
endfacet
facet normal 0 0 1
outer loop
vertex 329.82841450000024 -117.49573650000113 1
vertex 331.3846856835903 -123.78046297423454 1
vertex 331.52528357026677 -124.34824272234914 1
endloop
endfacet
facet normal 0 0 1
outer loop
vertex 329.82841450000024 -117.49573650000113 1
vertex 331.52528357026677 -124.34824272234914 1
vertex 331.6558252879861 -124.87541240716587 1
endloop
endfacet
facet normal 0 0 1
outer loop
vertex 329.82841450000024 -117.49573650000113 1
vertex 331.6558252879861 -124.87541240716587 1
vertex 331.77327289817754 -125.34970384999953 1
endloop
endfacet
facet normal 0 0 1
outer loop
vertex 329.82841450000024 -117.49573650000113 1
vertex 331.77327289817754 -125.34970384999953 1
vertex 332.61898905 -128.76497925000032 1
endloop
endfacet
facet normal 0 0 1
outer loop
vertex 329.82841450000024 -117.49573650000113 1
vertex 332.61898905 -128.76497925000032 1
vertex 332.6189890500001 -128.76497925000066 0
endloop
endfacet
facet normal 0 0 1
outer loop
vertex 329.82841450000024 -117.49573650000113 1
vertex 332.6189890500001 -128.76497925000066 0
vertex 331.7732728981777 -125.34970385000025 0
endloop
endfacet
facet normal 0 0 1
outer loop
vertex 329.82841450000024 -117.49573650000113 1
vertex 331.7732728981777 -125.34970385000025 0
vertex 331.6558252879861 -124.8754124071657 0
endloop
endfacet
facet normal 0 0 1
outer loop
vertex 329.82841450000024 -117.49573650000113 1
vertex 331.6558252879861 -124.8754124071657 0
vertex 331.5252835702669 -124.3482427223494 0
endloop
endfacet
facet normal 0 0 1
outer loop
vertex 329.82841450000024 -117.49573650000113 1
vertex 331.5252835702669 -124.3482427223494 0
vertex 331.3846856835905 -123.78046297423501 0
endloop
endfacet
facet normal 0 0 1
outer loop
vertex 329.82841450000024 -117.49573650000113 1
vertex 331.3846856835905 -123.78046297423501 0
vertex 331.2373035915131 -123.18528641010337 0
endloop
endfacet
facet normal 0 0 1
outer loop
vertex 329.82841450000024 -117.49573650000113 1
vertex 331.2373035915131 -123.18528641010337 0
vertex 331.0865680915147 -122.57656769999944 0
endloop
endfacet
facet normal 0 0 1
outer loop
vertex 329.82841450000024 -117.49573650000113 1
vertex 331.0865680915147 -122.57656769999944 0
vertex 329.8284145000002 -117.49573650000087 0
endloop
endfacet
facet normal 0.9871766694068491 0.15963152376269807 0
outer loop
vertex 329.72326941261156 -116.84550918445457 1
vertex 329.82841450000024 -117.49573650000113 1
vertex 329.8284145000002 -117.49573650000087 0
endloop
endfacet
facet normal 0.9871766694068491 0.15963152376269807 0
outer loop
vertex 329.72326941261156 -116.84550918445457 1
vertex 329.8284145000002 -117.49573650000087 0
vertex 329.72326941261156 -116.84550918445461 0
endloop
endfacet
facet normal 0.9999896971558296 -0.004539337197456917 0
outer loop
vertex 329.7262593384732 -116.18684583189015 1
vertex 329.72326941261156 -116.84550918445457 1
vertex 329.72326941261156 -116.84550918445461 0
endloop
endfacet
facet normal 0.9999896971558296 -0.004539337197456917 0
outer loop
vertex 329.7262593384732 -116.18684583189015 1
vertex 329.72326941261156 -116.84550918445461 0
vertex 329.7262593384732 -116.18684583189 0
endloop
endfacet
facet normal 0.9856871947239405 -0.16858456085077417 0
outer loop
vertex 329.8373009545582 -115.53760311058701 1
vertex 329.7262593384732 -116.18684583189015 1
vertex 329.7262593384732 -116.18684583189 0
endloop
endfacet
facet normal 0.9856871947239405 -0.16858456085077417 0
outer loop
vertex 329.8373009545582 -115.53760311058701 1
vertex 329.7262593384732 -116.18684583189 0
vertex 329.8373009545582 -115.53760311058691 0
endloop
endfacet
facet normal 0.9446573927097199 -0.32805854721203964 0
outer loop
vertex 330.0533833233655 -114.9153854946681 1
vertex 329.8373009545582 -115.53760311058701 1
vertex 329.8373009545582 -115.53760311058691 0
endloop
endfacet
facet normal 0.9446573927097199 -0.32805854721203964 0
outer loop
vertex 330.0533833233655 -114.9153854946681 1
vertex 329.8373009545582 -115.53760311058691 0
vertex 330.0533833233655 -114.9153854946681 0
endloop
endfacet
facet normal 0.8780128304828172 -0.47863709583310793 0
outer loop
vertex 330.3686472856839 -114.3370646617987 1
vertex 330.0533833233655 -114.9153854946681 1
vertex 330.0533833233655 -114.9153854946681 0
endloop
endfacet
facet normal 0.8780128304828172 -0.47863709583310793 0
outer loop
vertex 330.3686472856839 -114.3370646617987 1
vertex 330.0533833233655 -114.9153854946681 0
vertex 330.3686472856841 -114.3370646617984 0
endloop
endfacet
facet normal 0.7875606018044378 -0.6162372095917543 0
outer loop
vertex 330.77454433402306 -113.81832201094122 1
vertex 330.3686472856839 -114.3370646617987 1
vertex 330.3686472856841 -114.3370646617984 0
endloop
endfacet
facet normal 0.7875606018044378 -0.6162372095917543 0
outer loop
vertex 330.77454433402306 -113.81832201094122 1
vertex 330.3686472856841 -114.3370646617984 0
vertex 330.7745443340229 -113.81832201094142 0
endloop
endfacet
facet normal 0.6757533547629215 -0.7371278067788903 0
outer loop
vertex 331.2600684087834 -113.37322345500536 1
vertex 330.77454433402306 -113.81832201094122 1
vertex 330.7745443340229 -113.81832201094142 0
endloop
endfacet
facet normal 0.6757533547629215 -0.7371278067788903 0
outer loop
vertex 331.2600684087834 -113.37322345500536 1
vertex 330.7745443340229 -113.81832201094142 0
vertex 331.2600684087834 -113.3732234550054 0
endloop
endfacet
facet normal 0.5456227872469127 -0.8380308908607785 0
outer loop
vertex 331.8120543319352 -113.01383801802966 1
vertex 331.2600684087834 -113.37322345500536 1
vertex 331.2600684087834 -113.3732234550054 0
endloop
endfacet
facet normal 0.5456227872469127 -0.8380308908607785 0
outer loop
vertex 331.8120543319352 -113.01383801802966 1
vertex 331.2600684087834 -113.3732234550054 0
vertex 331.81205433193537 -113.01383801802955 0
endloop
endfacet
facet normal 0.40069744125375684 -0.916210434656085 0
outer loop
vertex 332.4155347860456 -112.74991057880607 1
vertex 331.8120543319352 -113.01383801802966 1
vertex 331.81205433193537 -113.01383801802955 0
endloop
endfacet
facet normal 0.40069744125375684 -0.916210434656085 0
outer loop
vertex 332.4155347860456 -112.74991057880607 1
vertex 331.81205433193537 -113.01383801802955 0
vertex 332.4155347860457 -112.74991057880602 0
endloop
endfacet
facet normal 0.24490702507247955 -0.9695465687991206 0
outer loop
vertex 333.05414615903203 -112.58859763462299 1
vertex 332.4155347860456 -112.74991057880607 1
vertex 332.4155347860457 -112.74991057880602 0
endloop
endfacet
facet normal 0.24490702507247955 -0.9695465687991206 0
outer loop
vertex 333.05414615903203 -112.58859763462299 1
vertex 332.4155347860457 -112.74991057880602 0
vertex 333.05414615903203 -112.588597634623 0
endloop
endfacet
facet normal 0.08247585768333456 -0.9965930628392907 0
outer loop
vertex 333.71057224999976 -112.53427325000001 1
vertex 333.05414615903203 -112.58859763462299 1
vertex 333.05414615903203 -112.588597634623 0
endloop
endfacet
facet normal 0.08247585768333456 -0.9965930628392907 0
outer loop
vertex 333.71057224999976 -112.53427325000001 1
vertex 333.05414615903203 -112.588597634623 0
vertex 333.7105722499999 -112.53427325000001 0
endloop
endfacet
facet normal 0.00014363493204427868 -0.9999999896845031 0
outer loop
vertex 394.2755740000001 -112.525574 1
vertex 333.71057224999976 -112.53427325000001 1
vertex 333.7105722499999 -112.53427325000001 0
endloop
endfacet
facet normal 0.00014363493204427868 -0.9999999896845031 0
outer loop
vertex 394.2755740000001 -112.525574 1
vertex 333.7105722499999 -112.53427325000001 0
vertex 394.27557399999995 -112.525574 0
endloop
endfacet
facet normal 0.08729463847572556 -0.9961825365330355 0
outer loop
vertex 394.97009743260804 -112.46471349528423 1
vertex 394.2755740000001 -112.525574 1
vertex 394.27557399999995 -112.525574 0
endloop
endfacet
facet normal 0.08729463847572556 -0.9961825365330355 0
outer loop
vertex 394.97009743260804 -112.46471349528423 1
vertex 394.27557399999995 -112.525574 0
vertex 394.970097432608 -112.46471349528423 0
endloop
endfacet
facet normal 0.25893576094284837 -0.9658945448158138 0
outer loop
vertex 395.6435014791659 -112.284188209006 1
vertex 394.97009743260804 -112.46471349528423 1
vertex 394.970097432608 -112.46471349528423 0
endloop
endfacet
facet normal 0.25893576094284837 -0.9658945448158138 0
outer loop
vertex 395.6435014791659 -112.284188209006 1
vertex 394.970097432608 -112.46471349528423 0
vertex 395.64350147916593 -112.28418820900596 0
endloop
endfacet
facet normal 0.42271317263541097 -0.9062635233090347 0
outer loop
vertex 396.27533186595076 -111.98948030065932 1
vertex 395.6435014791659 -112.284188209006 1
vertex 395.64350147916593 -112.28418820900596 0
endloop
endfacet
facet normal 0.42271317263541097 -0.9062635233090347 0
outer loop
vertex 396.27533186595076 -111.98948030065932 1
vertex 395.64350147916593 -112.28418820900596 0
vertex 396.2753318659506 -111.98948030065941 0
endloop
endfacet
facet normal 0.5736490234207906 -0.8191012134824202 0
outer loop
vertex 396.8463942812625 -111.58954267211747 1
vertex 396.27533186595076 -111.98948030065932 1
vertex 396.2753318659506 -111.98948030065941 0
endloop
endfacet
facet normal 0.5736490234207906 -0.8191012134824202 0
outer loop
vertex 396.8463942812625 -111.58954267211747 1
vertex 396.2753318659506 -111.98948030065941 0
vertex 396.8463942812626 -111.58954267211742 0
endloop
endfacet
facet normal 0.707158048286428 -0.707055510369398 0
outer loop
vertex 397.3393404774901 -111.09652498832571 1
vertex 396.8463942812625 -111.58954267211747 1
vertex 396.8463942812626 -111.58954267211742 0
endloop
endfacet
facet normal 0.707158048286428 -0.707055510369398 0
outer loop
vertex 397.3393404774901 -111.09652498832571 1
vertex 396.8463942812626 -111.58954267211742 0
vertex 397.33934047749005 -111.09652498832574 0
endloop
endfacet
facet normal 0.8191843900092383 -0.5735302391026931 0
outer loop
vertex 397.7391952917739 -110.52540458385701 1
vertex 397.3393404774901 -111.09652498832571 1
vertex 397.33934047749005 -111.09652498832574 0
endloop
endfacet
facet normal 0.8191843900092383 -0.5735302391026931 0
outer loop
vertex 397.7391952917739 -110.52540458385701 1
vertex 397.33934047749005 -111.09652498832574 0
vertex 397.73919529177397 -110.52540458385694 0
endloop
endfacet
facet normal 0.9063248116343513 -0.4225817504530428 0
outer loop
vertex 398.03381157497364 -109.89353146797087 1
vertex 397.7391952917739 -110.52540458385701 1
vertex 397.73919529177397 -110.52540458385694 0
endloop
endfacet
facet normal 0.9063248116343513 -0.4225817504530428 0
outer loop
vertex 398.03381157497364 -109.89353146797087 1
vertex 397.73919529177397 -110.52540458385694 0
vertex 398.0338115749737 -109.89353146797069 0
endloop
endfacet
facet normal 0.9659320830677814 -0.25879569335739844 0
outer loop
vertex 398.21423920868796 -109.22010125042883 1
vertex 398.03381157497364 -109.89353146797087 1
vertex 398.0338115749737 -109.89353146797069 0
endloop
endfacet
facet normal 0.9659320830677814 -0.25879569335739844 0
outer loop
vertex 398.21423920868796 -109.22010125042883 1
vertex 398.0338115749737 -109.89353146797069 0
vertex 398.21423920868796 -109.22010125042873 0
endloop
endfacet
facet normal 0.9961954010125993 -0.08714770795234017 0
outer loop
vertex 398.274997 -108.52557199999984 1
vertex 398.21423920868796 -109.22010125042883 1
vertex 398.21423920868796 -109.22010125042873 0
endloop
endfacet
facet normal 0.9961954010125993 -0.08714770795234017 0
outer loop
vertex 398.274997 -108.52557199999984 1
vertex 398.21423920868796 -109.22010125042873 0
vertex 398.274997 -108.52557200000015 0
endloop
endfacet
endsolid csg.js
