solid csg.js
facet normal 0 0 -1
outer loop
vertex 350.34716800498035 -38.922067799459995 0
vertex 350.7311336000001 -38.9691933 0
vertex 379.0674581999993 -43.84787514999987 0
endloop
endfacet
facet normal 0 0 -1
outer loop
vertex 350.34716800498035 -38.922067799459995 0
vertex 379.0674581999993 -43.84787514999987 0
vertex 379.2243347585161 -43.87812488911459 0
endloop
endfacet
facet normal 0 0 -1
outer loop
vertex 350.34716800498035 -38.922067799459995 0
vertex 379.2243347585161 -43.87812488911459 0
vertex 379.37987639999966 -43.91461029999992 0
endloop
endfacet
facet normal 0 0 -1
outer loop
vertex 350.34716800498035 -38.922067799459995 0
vertex 379.37987639999966 -43.91461029999992 0
vertex 395.7661199999999 -48.10545539999998 0
endloop
endfacet
facet normal 0 0 -1
outer loop
vertex 350.34716800498035 -38.922067799459995 0
vertex 395.7661199999999 -48.10545539999998 0
vertex 396.38936874217467 -48.32096475675436 0
endloop
endfacet
facet normal 0 0 -1
outer loop
vertex 350.34716800498035 -38.922067799459995 0
vertex 396.38936874217467 -48.32096475675436 0
vertex 396.968738611248 -48.63594702971892 0
endloop
endfacet
facet normal 0 0 -1
outer loop
vertex 350.34716800498035 -38.922067799459995 0
vertex 396.968738611248 -48.63594702971892 0
vertex 397.48848221549787 -49.04184093619219 0
endloop
endfacet
facet normal 0 0 -1
outer loop
vertex 350.34716800498035 -38.922067799459995 0
vertex 397.48848221549787 -49.04184093619219 0
vertex 397.93447281729647 -49.52761419665275 0
endloop
endfacet
facet normal 0 0 -1
outer loop
vertex 350.34716800498035 -38.922067799459995 0
vertex 397.93447281729647 -49.52761419665275 0
vertex 398.2945883007292 -50.08006339437442 0
endloop
endfacet
facet normal 0 0 -1
outer loop
vertex 350.34716800498035 -38.922067799459995 0
vertex 398.2945883007292 -50.08006339437442 0
vertex 398.55904065318947 -50.68417284699839 0
endloop
endfacet
facet normal 0 0 -1
outer loop
vertex 350.34716800498035 -38.922067799459995 0
vertex 398.55904065318947 -50.68417284699839 0
vertex 398.7206420055666 -51.32352273585564 0
endloop
endfacet
facet normal 0 0 -1
outer loop
vertex 350.34716800498035 -38.922067799459995 0
vertex 398.7206420055666 -51.32352273585564 0
vertex 398.775 -51.980730799999336 0
endloop
endfacet
facet normal 0 0 -1
outer loop
vertex 350.34716800498035 -38.922067799459995 0
vertex 398.775 -51.980730799999336 0
vertex 398.774995 -109.02556994999983 0
endloop
endfacet
facet normal 0 0 -1
outer loop
vertex 350.34716800498035 -38.922067799459995 0
vertex 398.774995 -109.02556994999983 0
vertex 398.71423720868796 -109.72009920042873 0
endloop
endfacet
facet normal 0 0 -1
outer loop
vertex 350.34716800498035 -38.922067799459995 0
vertex 398.71423720868796 -109.72009920042873 0
vertex 398.5338095749737 -110.3935294179706 0
endloop
endfacet
facet normal 0 0 -1
outer loop
vertex 350.34716800498035 -38.922067799459995 0
vertex 398.5338095749737 -110.3935294179706 0
vertex 398.2391932917737 -111.02540253385739 0
endloop
endfacet
facet normal 0 0 -1
outer loop
vertex 350.34716800498035 -38.922067799459995 0
vertex 398.2391932917737 -111.02540253385739 0
vertex 397.83933847749034 -111.59652293832544 0
endloop
endfacet
facet normal 0 0 -1
outer loop
vertex 350.34716800498035 -38.922067799459995 0
vertex 397.83933847749034 -111.59652293832544 0
vertex 397.34639228126247 -112.08954062211743 0
endloop
endfacet
facet normal 0 0 -1
outer loop
vertex 350.34716800498035 -38.922067799459995 0
vertex 397.34639228126247 -112.08954062211743 0
vertex 396.7753298659505 -112.48947825065942 0
endloop
endfacet
facet normal 0 0 -1
outer loop
vertex 350.34716800498035 -38.922067799459995 0
vertex 396.7753298659505 -112.48947825065942 0
vertex 396.14349947916554 -112.78418615900613 0
endloop
endfacet
facet normal 0 0 -1
outer loop
vertex 350.34716800498035 -38.922067799459995 0
vertex 396.14349947916554 -112.78418615900613 0
vertex 395.47009543260816 -112.96471144528422 0
endloop
endfacet
facet normal 0 0 -1
outer loop
vertex 350.34716800498035 -38.922067799459995 0
vertex 395.47009543260816 -112.96471144528422 0
vertex 394.77557000000013 -113.0255699 0
endloop
endfacet
facet normal 0 0 -1
outer loop
vertex 350.34716800498035 -38.922067799459995 0
vertex 394.77557000000013 -113.0255699 0
vertex 333.7438644500001 -113.03426730000001 0
endloop
endfacet
facet normal 0 0 -1
outer loop
vertex 350.34716800498035 -38.922067799459995 0
vertex 333.7438644500001 -113.03426730000001 0
vertex 266.7891470967039 -113.03426730000001 0
endloop
endfacet
facet normal 0 0 -1
outer loop
vertex 350.34716800498035 -38.922067799459995 0
vertex 266.7891470967039 -113.03426730000001 0
vertex 266.9553034499999 -52.41774515000148 0
endloop
endfacet
facet normal 0 0 -1
outer loop
vertex 350.34716800498035 -38.922067799459995 0
vertex 266.9553034499999 -52.41774515000148 0
vertex 267.0087417639568 -51.77697465336942 0
endloop
endfacet
facet normal 0 0 -1
outer loop
vertex 350.34716800498035 -38.922067799459995 0
vertex 267.0087417639568 -51.77697465336942 0
vertex 267.1641594553555 -51.1530453112557 0
endloop
endfacet
facet normal 0 0 -1
outer loop
vertex 350.34716800498035 -38.922067799459995 0
vertex 267.1641594553555 -51.1530453112557 0
vertex 267.4175405069343 -50.562079554674675 0
endloop
endfacet
facet normal 0 0 -1
outer loop
vertex 350.34716800498035 -38.922067799459995 0
vertex 267.4175405069343 -50.562079554674675 0
vertex 267.7623375130025 -50.01934803047805 0
endloop
endfacet
facet normal 0 0 -1
outer loop
vertex 350.34716800498035 -38.922067799459995 0
vertex 267.7623375130025 -50.01934803047805 0
vertex 268.1896408654206 -49.53887500546765 0
endloop
endfacet
facet normal 0 0 -1
outer loop
vertex 350.34716800498035 -38.922067799459995 0
vertex 268.1896408654206 -49.53887500546765 0
vertex 268.68840897925674 -49.13307597716557 0
endloop
endfacet
facet normal 0 0 -1
outer loop
vertex 350.34716800498035 -38.922067799459995 0
vertex 268.68840897925674 -49.13307597716557 0
vertex 269.2457536090544 -48.812436855431876 0
endloop
endfacet
facet normal 0 0 -1
outer loop
vertex 350.34716800498035 -38.922067799459995 0
vertex 269.2457536090544 -48.812436855431876 0
vertex 269.84727288309574 -48.58524300492622 0
endloop
endfacet
facet normal 0 0 -1
outer loop
vertex 350.34716800498035 -38.922067799459995 0
vertex 269.84727288309574 -48.58524300492622 0
vertex 270.4774268999999 -48.45736030000001 0
endloop
endfacet
facet normal 0 0 -1
outer loop
vertex 350.34716800498035 -38.922067799459995 0
vertex 270.4774268999999 -48.45736030000001 0
vertex 349.5745768 -38.93983665000002 0
endloop
endfacet
facet normal 0 0 -1
outer loop
vertex 350.34716800498035 -38.922067799459995 0
vertex 349.5745768 -38.93983665000002 0
vertex 349.9604422814772 -38.91225052474701 0
endloop
endfacet
facet normal 0 0 -1
outer loop
vertex 333.7438644500001 -113.03426730000001 0
vertex 333.08517743530774 -113.08896652862907 0
vertex 266.7889971602834 -113.08896652862907 0
endloop
endfacet
facet normal 0 0 -1
outer loop
vertex 333.7438644500001 -113.03426730000001 0
vertex 266.7889971602834 -113.08896652862907 0
vertex 266.7891470967039 -113.03426730000001 0
endloop
endfacet
facet normal 0 0 -1
outer loop
vertex 333.08517743530774 -113.08896652862907 0
vertex 332.4444902674247 -113.25138740735797 0
vertex 266.78855194732904 -113.25138740735797 0
endloop
endfacet
facet normal 0 0 -1
outer loop
vertex 333.08517743530774 -113.08896652862907 0
vertex 266.78855194732904 -113.25138740735797 0
vertex 266.7889971602834 -113.08896652862907 0
endloop
endfacet
facet normal 0 0 -1
outer loop
vertex 332.4444902674247 -113.25138740735797 0
vertex 331.8392961321946 -113.51709523114035 0
vertex 266.7878236138405 -113.51709523114035 0
endloop
endfacet
facet normal 0 0 -1
outer loop
vertex 332.4444902674247 -113.25138740735797 0
vertex 266.7878236138405 -113.51709523114035 0
vertex 266.78855194732904 -113.25138740735797 0
endloop
endfacet
facet normal 0 0 -1
outer loop
vertex 331.8392961321946 -113.51709523114035 0
vertex 331.28611912126195 -113.87883517020305 0
vertex 266.78683204608 -113.87883517020305 0
endloop
endfacet
facet normal 0 0 -1
outer loop
vertex 331.8392961321946 -113.51709523114035 0
vertex 266.78683204608 -113.87883517020305 0
vertex 266.7878236138405 -113.51709523114035 0
endloop
endfacet
facet normal 0 0 -1
outer loop
vertex 331.28611912126195 -113.87883517020305 0
vertex 330.8000630618021 -114.3267303543688 0
vertex 266.78560431760235 -114.3267303543688 0
endloop
endfacet
facet normal 0 0 -1
outer loop
vertex 331.28611912126195 -113.87883517020305 0
vertex 266.78560431760235 -114.3267303543688 0
vertex 266.78683204608 -113.87883517020305 0
endloop
endfacet
facet normal 0 0 -1
outer loop
vertex 330.8000630618021 -114.3267303543688 0
vertex 330.3943991248388 -114.84855154901736 0
vertex 266.78417395004413 -114.84855154901736 0
endloop
endfacet
facet normal 0 0 -1
outer loop
vertex 330.8000630618021 -114.3267303543688 0
vertex 266.78417395004413 -114.84855154901736 0
vertex 266.78560431760235 -114.3267303543688 0
endloop
endfacet
facet normal 0 0 -1
outer loop
vertex 330.3943991248388 -114.84855154901736 0
vertex 330.0802034720233 -115.43005105949698 0
vertex 266.7825799978562 -115.43005105949698 0
endloop
endfacet
facet normal 0 0 -1
outer loop
vertex 330.3943991248388 -114.84855154901736 0
vertex 266.7825799978562 -115.43005105949698 0
vertex 266.78417395004413 -114.84855154901736 0
endloop
endfacet
facet normal 0 0 -1
outer loop
vertex 330.0802034720233 -115.43005105949698 0
vertex 329.8660548344757 -116.05535174714525 0
vertex 266.7808659819693 -116.05535174714525 0
endloop
endfacet
facet normal 0 0 -1
outer loop
vertex 330.0802034720233 -115.43005105949698 0
vertex 266.7808659819693 -116.05535174714525 0
vertex 266.7825799978562 -115.43005105949698 0
endloop
endfacet
facet normal 0 0 -1
outer loop
vertex 329.8660548344757 -116.05535174714525 0
vertex 329.7578002809412 -116.70738053529514 0
vertex 266.77907870150784 -116.70738053529514 0
endloop
endfacet
facet normal 0 0 -1
outer loop
vertex 329.8660548344757 -116.05535174714525 0
vertex 266.77907870150784 -116.70738053529514 0
vertex 266.7808659819693 -116.05535174714525 0
endloop
endfacet
facet normal 0 0 -1
outer loop
vertex 329.7578002809412 -116.70738053529514 0
vertex 329.7583955706706 -117.36833456892103 0
vertex 266.7772669559964 -117.36833456892103 0
endloop
endfacet
facet normal 0 0 -1
outer loop
vertex 329.7578002809412 -116.70738053529514 0
vertex 266.7772669559964 -117.36833456892103 0
vertex 266.77907870150784 -116.70738053529514 0
endloop
endfacet
facet normal 0 0 -1
outer loop
vertex 329.7583955706706 -117.36833456892103 0
vertex 329.8678289000002 -118.02016460000085 0
vertex 266.7754802203492 -118.02016460000085 0
endloop
endfacet
facet normal 0 0 -1
outer loop
vertex 329.7583955706706 -117.36833456892103 0
vertex 266.7754802203492 -118.02016460000085 0
vertex 266.7772669559964 -117.36833456892103 0
endloop
endfacet
facet normal 0 0 -1
outer loop
vertex 329.8678289000002 -118.02016460000085 0
vertex 331.0273664250912 -122.57953490000023 0
vertex 266.7629825 -122.57953490000023 0
endloop
endfacet
facet normal 0 0 -1
outer loop
vertex 329.8678289000002 -118.02016460000085 0
vertex 266.7629825 -122.57953490000023 0
vertex 266.7754802203492 -118.02016460000085 0
endloop
endfacet
facet normal 0 0 -1
outer loop
vertex 331.0273664250912 -122.57953490000023 0
vertex 331.1764411997175 -123.16570575277777 0
vertex 266.7181743565363 -123.16570575277777 0
endloop
endfacet
facet normal 0 0 -1
outer loop
vertex 331.0273664250912 -122.57953490000023 0
vertex 266.7181743565363 -123.16570575277777 0
vertex 266.7629825 -122.57953490000023 0
endloop
endfacet
facet normal 0 0 -1
outer loop
vertex 331.1764411997175 -123.16570575277777 0
vertex 331.3222350901904 -123.73897597453397 0
vertex 266.5879353849088 -123.73897597453397 0
endloop
endfacet
facet normal 0 0 -1
outer loop
vertex 331.1764411997175 -123.16570575277777 0
vertex 266.5879353849088 -123.73897597453397 0
vertex 266.7181743565363 -123.16570575277777 0
endloop
endfacet
facet normal 0 0 -1
outer loop
vertex 331.3222350901904 -123.73897597453397 0
vertex 331.46159958845396 -124.28696544491122 0
vertex 266.37507750453085 -124.28696544491122 0
endloop
endfacet
facet normal 0 0 -1
outer loop
vertex 331.3222350901904 -123.73897597453397 0
vertex 266.37507750453085 -124.28696544491122 0
vertex 266.5879353849088 -123.73897597453397 0
endloop
endfacet
facet normal 0 0 -1
outer loop
vertex 331.46159958845396 -124.28696544491122 0
vertex 331.591524413185 -124.79783755926113 0
vertex 266.0841984580828 -124.79783755926113 0
endloop
endfacet
facet normal 0 0 -1
outer loop
vertex 331.46159958845396 -124.28696544491122 0
vertex 266.0841984580828 -124.79783755926113 0
vertex 266.37507750453085 -124.28696544491122 0
endloop
endfacet
facet normal 0 0 -1
outer loop
vertex 331.591524413185 -124.79783755926113 0
vertex 331.7092031805616 -125.26055744999945 0
vertex 265.72158125000055 -125.26055744999945 0
endloop
endfacet
facet normal 0 0 -1
outer loop
vertex 331.591524413185 -124.79783755926113 0
vertex 265.72158125000055 -125.26055744999945 0
vertex 266.0841984580828 -124.79783755926113 0
endloop
endfacet
facet normal 0 0 -1
outer loop
vertex 331.7092031805616 -125.26055744999945 0
vertex 332.59686655000013 -128.7509024500009 0
vertex 332.7028470501333 -129.36387237510777 0
endloop
endfacet
facet normal 0 0 -1
outer loop
vertex 331.7092031805616 -125.26055744999945 0
vertex 332.7028470501333 -129.36387237510777 0
vertex 332.7125079151001 -129.9858616541029 0
endloop
endfacet
facet normal 0 0 -1
outer loop
vertex 331.7092031805616 -125.26055744999945 0
vertex 332.7125079151001 -129.9858616541029 0
vertex 332.6256154944688 -130.60182732094833 0
endloop
endfacet
facet normal 0 0 -1
outer loop
vertex 331.7092031805616 -125.26055744999945 0
vertex 332.6256154944688 -130.60182732094833 0
vertex 332.4442713031309 -131.19687209217426 0
endloop
endfacet
facet normal 0 0 -1
outer loop
vertex 331.7092031805616 -125.26055744999945 0
vertex 332.4442713031309 -131.19687209217426 0
vertex 332.1728611956386 -131.75660466139598 0
endloop
endfacet
facet normal 0 0 -1
outer loop
vertex 331.7092031805616 -125.26055744999945 0
vertex 332.1728611956386 -131.75660466139598 0
vertex 331.8179492932183 -132.2674877566497 0
endloop
endfacet
facet normal 0 0 -1
outer loop
vertex 331.7092031805616 -125.26055744999945 0
vertex 331.8179492932183 -132.2674877566497 0
vertex 331.3881192288575 -132.7171655427008 0
endloop
endfacet
facet normal 0 0 -1
outer loop
vertex 331.7092031805616 -125.26055744999945 0
vertex 331.3881192288575 -132.7171655427008 0
vertex 330.89376309999955 -133.09476490000034 0
endloop
endfacet
facet normal 0 0 -1
outer loop
vertex 331.7092031805616 -125.26055744999945 0
vertex 330.89376309999955 -133.09476490000034 0
vertex 276.35495035000076 -168.39569569999952 0
endloop
endfacet
facet normal 0 0 -1
outer loop
vertex 331.7092031805616 -125.26055744999945 0
vertex 276.35495035000076 -168.39569569999952 0
vertex 275.7851330307827 -168.70218573887826 0
endloop
endfacet
facet normal 0 0 -1
outer loop
vertex 331.7092031805616 -125.26055744999945 0
vertex 275.7851330307827 -168.70218573887826 0
vertex 275.17335665284924 -168.91279814262847 0
endloop
endfacet
facet normal 0 0 -1
outer loop
vertex 331.7092031805616 -125.26055744999945 0
vertex 275.17335665284924 -168.91279814262847 0
vertex 274.53562788328213 -169.02202239670333 0
endloop
endfacet
facet normal 0 0 -1
outer loop
vertex 331.7092031805616 -125.26055744999945 0
vertex 274.53562788328213 -169.02202239670333 0
vertex 273.8886324139015 -169.02700073095073 0
endloop
endfacet
facet normal 0 0 -1
outer loop
vertex 331.7092031805616 -125.26055744999945 0
vertex 273.8886324139015 -169.02700073095073 0
vertex 273.2492983927302 -168.9276028910134 0
endloop
endfacet
facet normal 0 0 -1
outer loop
vertex 331.7092031805616 -125.26055744999945 0
vertex 273.2492983927302 -168.9276028910134 0
vertex 272.63435351178344 -168.7264295463354 0
endloop
endfacet
facet normal 0 0 -1
outer loop
vertex 331.7092031805616 -125.26055744999945 0
vertex 272.63435351178344 -168.7264295463354 0
vertex 272.05988733963477 -168.4287442456097 0
endloop
endfacet
facet normal 0 0 -1
outer loop
vertex 331.7092031805616 -125.26055744999945 0
vertex 272.05988733963477 -168.4287442456097 0
vertex 271.54093070000044 -168.04233140000036 0
endloop
endfacet
facet normal 0 0 -1
outer loop
vertex 331.7092031805616 -125.26055744999945 0
vertex 271.54093070000044 -168.04233140000036 0
vertex 249.73391035000003 -148.87768975 0
endloop
endfacet
facet normal 0 0 -1
outer loop
vertex 331.7092031805616 -125.26055744999945 0
vertex 249.73391035000003 -148.87768975 0
vertex 249.2919930772592 -148.4223132029571 0
endloop
endfacet
facet normal 0 0 -1
outer loop
vertex 331.7092031805616 -125.26055744999945 0
vertex 249.2919930772592 -148.4223132029571 0
vertex 248.92764911977147 -147.9027824953122 0
endloop
endfacet
facet normal 0 0 -1
outer loop
vertex 331.7092031805616 -125.26055744999945 0
vertex 248.92764911977147 -147.9027824953122 0
vertex 248.6500476184976 -147.33217222373142 0
endloop
endfacet
facet normal 0 0 -1
outer loop
vertex 331.7092031805616 -125.26055744999945 0
vertex 248.6500476184976 -147.33217222373142 0
vertex 248.4661747392391 -146.72484246172664 0
endloop
endfacet
facet normal 0 0 -1
outer loop
vertex 331.7092031805616 -125.26055744999945 0
vertex 248.4661747392391 -146.72484246172664 0
vertex 248.38065785762316 -146.0960773716478 0
endloop
endfacet
facet normal 0 0 -1
outer loop
vertex 331.7092031805616 -125.26055744999945 0
vertex 248.38065785762316 -146.0960773716478 0
vertex 248.39564910579261 -145.46170056089386 0
endloop
endfacet
facet normal 0 0 -1
outer loop
vertex 331.7092031805616 -125.26055744999945 0
vertex 248.39564910579261 -145.46170056089386 0
vertex 248.51077121148919 -144.8376768623673 0
endloop
endfacet
facet normal 0 0 -1
outer loop
vertex 331.7092031805616 -125.26055744999945 0
vertex 248.51077121148919 -144.8376768623673 0
vertex 248.72312699255036 -144.2397105608134 0
endloop
endfacet
facet normal 0 0 -1
outer loop
vertex 331.7092031805616 -125.26055744999945 0
vertex 248.72312699255036 -144.2397105608134 0
vertex 249.0273722678788 -143.6828501761718 0
endloop
endfacet
facet normal 0 0 -1
outer loop
vertex 331.7092031805616 -125.26055744999945 0
vertex 249.0273722678788 -143.6828501761718 0
vertex 249.41585070000042 -143.18110949999948 0
endloop
endfacet
facet normal 0 0 -1
outer loop
vertex 331.7092031805616 -125.26055744999945 0
vertex 249.41585070000042 -143.18110949999948 0
vertex 265.72158125000055 -125.26055744999945 0
endloop
endfacet
facet normal 0 0 1
outer loop
vertex 274.5356278832823 -169.0220223967033 1
vertex 275.17335665284935 -168.91279814262847 1
vertex 275.7851330307828 -168.70218573887826 1
endloop
endfacet
facet normal 0 0 1
outer loop
vertex 274.5356278832823 -169.0220223967033 1
vertex 275.7851330307828 -168.70218573887826 1
vertex 276.3549503500003 -168.3956956999998 1
endloop
endfacet
facet normal 0 0 1
outer loop
vertex 274.5356278832823 -169.0220223967033 1
vertex 276.3549503500003 -168.3956956999998 1
vertex 330.8937631 -133.0947649 1
endloop
endfacet
facet normal 0 0 1
outer loop
vertex 274.5356278832823 -169.0220223967033 1
vertex 330.8937631 -133.0947649 1
vertex 331.3881192288576 -132.7171655427007 1
endloop
endfacet
facet normal 0 0 1
outer loop
vertex 274.5356278832823 -169.0220223967033 1
vertex 331.3881192288576 -132.7171655427007 1
vertex 331.8179492932182 -132.26748775664987 1
endloop
endfacet
facet normal 0 0 1
outer loop
vertex 274.5356278832823 -169.0220223967033 1
vertex 331.8179492932182 -132.26748775664987 1
vertex 332.1728611956387 -131.75660466139584 1
endloop
endfacet
facet normal 0 0 1
outer loop
vertex 274.5356278832823 -169.0220223967033 1
vertex 332.1728611956387 -131.75660466139584 1
vertex 332.4442713031309 -131.1968720921744 1
endloop
endfacet
facet normal 0 0 1
outer loop
vertex 274.5356278832823 -169.0220223967033 1
vertex 332.4442713031309 -131.1968720921744 1
vertex 332.6256154944687 -130.6018273209486 1
endloop
endfacet
facet normal 0 0 1
outer loop
vertex 274.5356278832823 -169.0220223967033 1
vertex 332.6256154944687 -130.6018273209486 1
vertex 332.71250791510016 -129.98586165410256 1
endloop
endfacet
facet normal 0 0 1
outer loop
vertex 274.5356278832823 -169.0220223967033 1
vertex 332.71250791510016 -129.98586165410256 1
vertex 332.70284705013336 -129.36387237510814 1
endloop
endfacet
facet normal 0 0 1
outer loop
vertex 274.5356278832823 -169.0220223967033 1
vertex 332.70284705013336 -129.36387237510814 1
vertex 332.5968665500001 -128.75090245000064 1
endloop
endfacet
facet normal 0 0 1
outer loop
vertex 274.5356278832823 -169.0220223967033 1
vertex 332.5968665500001 -128.75090245000064 1
vertex 331.70920318056153 -125.26055744999931 1
endloop
endfacet
facet normal 0 0 1
outer loop
vertex 274.5356278832823 -169.0220223967033 1
vertex 331.70920318056153 -125.26055744999931 1
vertex 265.7215812500006 -125.26055744999931 1
endloop
endfacet
facet normal 0 0 1
outer loop
vertex 274.5356278832823 -169.0220223967033 1
vertex 265.7215812500006 -125.26055744999931 1
vertex 249.41585070000053 -143.1811094999994 1
endloop
endfacet
facet normal 0 0 1
outer loop
vertex 274.5356278832823 -169.0220223967033 1
vertex 249.41585070000053 -143.1811094999994 1
vertex 249.02737226787883 -143.68285017617183 1
endloop
endfacet
facet normal 0 0 1
outer loop
vertex 274.5356278832823 -169.0220223967033 1
vertex 249.02737226787883 -143.68285017617183 1
vertex 248.7231269925502 -144.23971056081376 1
endloop
endfacet
facet normal 0 0 1
outer loop
vertex 274.5356278832823 -169.0220223967033 1
vertex 248.7231269925502 -144.23971056081376 1
vertex 248.5107712114893 -144.83767686236695 1
endloop
endfacet
facet normal 0 0 1
outer loop
vertex 274.5356278832823 -169.0220223967033 1
vertex 248.5107712114893 -144.83767686236695 1
vertex 248.39564910579256 -145.46170056089443 1
endloop
endfacet
facet normal 0 0 1
outer loop
vertex 274.5356278832823 -169.0220223967033 1
vertex 248.39564910579256 -145.46170056089443 1
vertex 248.3806578576231 -146.09607737164743 1
endloop
endfacet
facet normal 0 0 1
outer loop
vertex 274.5356278832823 -169.0220223967033 1
vertex 248.3806578576231 -146.09607737164743 1
vertex 248.46617473923908 -146.72484246172638 1
endloop
endfacet
facet normal 0 0 1
outer loop
vertex 274.5356278832823 -169.0220223967033 1
vertex 248.46617473923908 -146.72484246172638 1
vertex 248.65004761849772 -147.3321722237316 1
endloop
endfacet
facet normal 0 0 1
outer loop
vertex 274.5356278832823 -169.0220223967033 1
vertex 248.65004761849772 -147.3321722237316 1
vertex 248.92764911977156 -147.90278249531238 1
endloop
endfacet
facet normal 0 0 1
outer loop
vertex 274.5356278832823 -169.0220223967033 1
vertex 248.92764911977156 -147.90278249531238 1
vertex 249.29199307725906 -148.42231320295699 1
endloop
endfacet
facet normal 0 0 1
outer loop
vertex 274.5356278832823 -169.0220223967033 1
vertex 249.29199307725906 -148.42231320295699 1
vertex 249.7339103499999 -148.87768974999983 1
endloop
endfacet
facet normal 0 0 1
outer loop
vertex 274.5356278832823 -169.0220223967033 1
vertex 249.7339103499999 -148.87768974999983 1
vertex 271.54093070000073 -168.04233140000056 1
endloop
endfacet
facet normal 0 0 1
outer loop
vertex 274.5356278832823 -169.0220223967033 1
vertex 271.54093070000073 -168.04233140000056 1
vertex 272.0598873396349 -168.42874424560978 1
endloop
endfacet
facet normal 0 0 1
outer loop
vertex 274.5356278832823 -169.0220223967033 1
vertex 272.0598873396349 -168.42874424560978 1
vertex 272.63435351178344 -168.7264295463354 1
endloop
endfacet
facet normal 0 0 1
outer loop
vertex 274.5356278832823 -169.0220223967033 1
vertex 272.63435351178344 -168.7264295463354 1
vertex 273.24929839273017 -168.92760289101338 1
endloop
endfacet
facet normal 0 0 1
outer loop
vertex 274.5356278832823 -169.0220223967033 1
vertex 273.24929839273017 -168.92760289101338 1
vertex 273.8886324139015 -169.0270007309507 1
endloop
endfacet
facet normal 0 0 1
outer loop
vertex 331.70920318056153 -125.26055744999931 1
vertex 331.591524413185 -124.79783755926113 1
vertex 266.08419845808277 -124.79783755926113 1
endloop
endfacet
facet normal 0 0 1
outer loop
vertex 331.70920318056153 -125.26055744999931 1
vertex 266.08419845808277 -124.79783755926113 1
vertex 265.7215812500006 -125.26055744999931 1
endloop
endfacet
facet normal 0 0 1
outer loop
vertex 331.591524413185 -124.79783755926113 1
vertex 331.46159958845396 -124.28696544491109 1
vertex 266.3750775045309 -124.28696544491109 1
endloop
endfacet
facet normal 0 0 1
outer loop
vertex 331.591524413185 -124.79783755926113 1
vertex 266.3750775045309 -124.28696544491109 1
vertex 266.08419845808277 -124.79783755926113 1
endloop
endfacet
facet normal 0 0 1
outer loop
vertex 331.46159958845396 -124.28696544491109 1
vertex 331.3222350901904 -123.73897597453391 1
vertex 266.58793538490886 -123.73897597453391 1
endloop
endfacet
facet normal 0 0 1
outer loop
vertex 331.46159958845396 -124.28696544491109 1
vertex 266.58793538490886 -123.73897597453391 1
vertex 266.3750775045309 -124.28696544491109 1
endloop
endfacet
facet normal 0 0 1
outer loop
vertex 331.3222350901904 -123.73897597453391 1
vertex 331.17644119971743 -123.16570575277751 1
vertex 266.71817435653634 -123.16570575277751 1
endloop
endfacet
facet normal 0 0 1
outer loop
vertex 331.3222350901904 -123.73897597453391 1
vertex 266.71817435653634 -123.16570575277751 1
vertex 266.58793538490886 -123.73897597453391 1
endloop
endfacet
facet normal 0 0 1
outer loop
vertex 331.17644119971743 -123.16570575277751 1
vertex 331.0273664250913 -122.57953490000045 1
vertex 266.7629825 -122.57953490000045 1
endloop
endfacet
facet normal 0 0 1
outer loop
vertex 331.17644119971743 -123.16570575277751 1
vertex 266.7629825 -122.57953490000045 1
vertex 266.71817435653634 -123.16570575277751 1
endloop
endfacet
facet normal 0 0 1
outer loop
vertex 331.0273664250913 -122.57953490000045 1
vertex 329.86782889999995 -118.02016460000002 1
vertex 266.77548022034927 -118.02016460000002 1
endloop
endfacet
facet normal 0 0 1
outer loop
vertex 331.0273664250913 -122.57953490000045 1
vertex 266.77548022034927 -118.02016460000002 1
vertex 266.7629825 -122.57953490000045 1
endloop
endfacet
facet normal 0 0 1
outer loop
vertex 329.86782889999995 -118.02016460000002 1
vertex 329.7583955706706 -117.3683345689217 1
vertex 266.7772669559964 -117.3683345689217 1
endloop
endfacet
facet normal 0 0 1
outer loop
vertex 329.86782889999995 -118.02016460000002 1
vertex 266.7772669559964 -117.3683345689217 1
vertex 266.77548022034927 -118.02016460000002 1
endloop
endfacet
facet normal 0 0 1
outer loop
vertex 329.7583955706706 -117.3683345689217 1
vertex 329.7578002809412 -116.70738053529514 1
vertex 266.77907870150784 -116.70738053529514 1
endloop
endfacet
facet normal 0 0 1
outer loop
vertex 329.7583955706706 -117.3683345689217 1
vertex 266.77907870150784 -116.70738053529514 1
vertex 266.7772669559964 -117.3683345689217 1
endloop
endfacet
facet normal 0 0 1
outer loop
vertex 329.7578002809412 -116.70738053529514 1
vertex 329.8660548344757 -116.05535174714528 1
vertex 266.7808659819694 -116.05535174714528 1
endloop
endfacet
facet normal 0 0 1
outer loop
vertex 329.7578002809412 -116.70738053529514 1
vertex 266.7808659819694 -116.05535174714528 1
vertex 266.77907870150784 -116.70738053529514 1
endloop
endfacet
facet normal 0 0 1
outer loop
vertex 329.8660548344757 -116.05535174714528 1
vertex 330.0802034720233 -115.43005105949696 1
vertex 266.78257999785626 -115.43005105949696 1
endloop
endfacet
facet normal 0 0 1
outer loop
vertex 329.8660548344757 -116.05535174714528 1
vertex 266.78257999785626 -115.43005105949696 1
vertex 266.7808659819694 -116.05535174714528 1
endloop
endfacet
facet normal 0 0 1
outer loop
vertex 330.0802034720233 -115.43005105949696 1
vertex 330.39439912483886 -114.84855154901723 1
vertex 266.78417395004413 -114.84855154901723 1
endloop
endfacet
facet normal 0 0 1
outer loop
vertex 330.0802034720233 -115.43005105949696 1
vertex 266.78417395004413 -114.84855154901723 1
vertex 266.78257999785626 -115.43005105949696 1
endloop
endfacet
facet normal 0 0 1
outer loop
vertex 330.39439912483886 -114.84855154901723 1
vertex 330.8000630618021 -114.3267303543688 1
vertex 266.7856043176024 -114.3267303543688 1
endloop
endfacet
facet normal 0 0 1
outer loop
vertex 330.39439912483886 -114.84855154901723 1
vertex 266.7856043176024 -114.3267303543688 1
vertex 266.78417395004413 -114.84855154901723 1
endloop
endfacet
facet normal 0 0 1
outer loop
vertex 330.8000630618021 -114.3267303543688 1
vertex 331.28611912126206 -113.87883517020292 1
vertex 266.78683204608 -113.87883517020292 1
endloop
endfacet
facet normal 0 0 1
outer loop
vertex 330.8000630618021 -114.3267303543688 1
vertex 266.78683204608 -113.87883517020292 1
vertex 266.7856043176024 -114.3267303543688 1
endloop
endfacet
facet normal 0 0 1
outer loop
vertex 331.28611912126206 -113.87883517020292 1
vertex 331.83929613219453 -113.51709523114036 1
vertex 266.7878236138405 -113.51709523114036 1
endloop
endfacet
facet normal 0 0 1
outer loop
vertex 331.28611912126206 -113.87883517020292 1
vertex 266.7878236138405 -113.51709523114036 1
vertex 266.78683204608 -113.87883517020292 1
endloop
endfacet
facet normal 0 0 1
outer loop
vertex 331.83929613219453 -113.51709523114036 1
vertex 332.4444902674248 -113.25138740735794 1
vertex 266.7885519473291 -113.25138740735794 1
endloop
endfacet
facet normal 0 0 1
outer loop
vertex 331.83929613219453 -113.51709523114036 1
vertex 266.7885519473291 -113.25138740735794 1
vertex 266.7878236138405 -113.51709523114036 1
endloop
endfacet
facet normal 0 0 1
outer loop
vertex 332.4444902674248 -113.25138740735794 1
vertex 333.08517743530797 -113.08896652862903 1
vertex 266.78899716028343 -113.08896652862903 1
endloop
endfacet
facet normal 0 0 1
outer loop
vertex 332.4444902674248 -113.25138740735794 1
vertex 266.78899716028343 -113.08896652862903 1
vertex 266.7885519473291 -113.25138740735794 1
endloop
endfacet
facet normal 0 0 1
outer loop
vertex 333.08517743530797 -113.08896652862903 1
vertex 333.74386444999993 -113.03426730000001 1
vertex 266.78914709670397 -113.03426730000001 1
endloop
endfacet
facet normal 0 0 1
outer loop
vertex 333.08517743530797 -113.08896652862903 1
vertex 266.78914709670397 -113.03426730000001 1
vertex 266.78899716028343 -113.08896652862903 1
endloop
endfacet
facet normal 0 0 1
outer loop
vertex 333.74386444999993 -113.03426730000001 1
vertex 394.77557000000013 -113.0255699 1
vertex 395.47009543260805 -112.96471144528422 1
endloop
endfacet
facet normal 0 0 1
outer loop
vertex 333.74386444999993 -113.03426730000001 1
vertex 395.47009543260805 -112.96471144528422 1
vertex 396.1434994791654 -112.78418615900613 1
endloop
endfacet
facet normal 0 0 1
outer loop
vertex 333.74386444999993 -113.03426730000001 1
vertex 396.1434994791654 -112.78418615900613 1
vertex 396.7753298659508 -112.48947825065922 1
endloop
endfacet
facet normal 0 0 1
outer loop
vertex 333.74386444999993 -113.03426730000001 1
vertex 396.7753298659508 -112.48947825065922 1
vertex 397.3463922812626 -112.08954062211735 1
endloop
endfacet
facet normal 0 0 1
outer loop
vertex 333.74386444999993 -113.03426730000001 1
vertex 397.3463922812626 -112.08954062211735 1
vertex 397.83933847749046 -111.5965229383253 1
endloop
endfacet
facet normal 0 0 1
outer loop
vertex 333.74386444999993 -113.03426730000001 1
vertex 397.83933847749046 -111.5965229383253 1
vertex 398.2391932917737 -111.02540253385742 1
endloop
endfacet
facet normal 0 0 1
outer loop
vertex 333.74386444999993 -113.03426730000001 1
vertex 398.2391932917737 -111.02540253385742 1
vertex 398.53380957497376 -110.39352941797051 1
endloop
endfacet
facet normal 0 0 1
outer loop
vertex 333.74386444999993 -113.03426730000001 1
vertex 398.53380957497376 -110.39352941797051 1
vertex 398.71423720868796 -109.72009920042886 1
endloop
endfacet
facet normal 0 0 1
outer loop
vertex 333.74386444999993 -113.03426730000001 1
vertex 398.71423720868796 -109.72009920042886 1
vertex 398.774995 -109.02556995000015 1
endloop
endfacet
facet normal 0 0 1
outer loop
vertex 333.74386444999993 -113.03426730000001 1
vertex 398.774995 -109.02556995000015 1
vertex 398.77500000000003 -51.98073080000008 1
endloop
endfacet
facet normal 0 0 1
outer loop
vertex 333.74386444999993 -113.03426730000001 1
vertex 398.77500000000003 -51.98073080000008 1
vertex 398.7206420055666 -51.323522735855704 1
endloop
endfacet
facet normal 0 0 1
outer loop
vertex 333.74386444999993 -113.03426730000001 1
vertex 398.7206420055666 -51.323522735855704 1
vertex 398.5590406531894 -50.68417284699835 1
endloop
endfacet
facet normal 0 0 1
outer loop
vertex 333.74386444999993 -113.03426730000001 1
vertex 398.5590406531894 -50.68417284699835 1
vertex 398.29458830072906 -50.08006339437421 1
endloop
endfacet
facet normal 0 0 1
outer loop
vertex 333.74386444999993 -113.03426730000001 1
vertex 398.29458830072906 -50.08006339437421 1
vertex 397.9344728172963 -49.52761419665248 1
endloop
endfacet
facet normal 0 0 1
outer loop
vertex 333.74386444999993 -113.03426730000001 1
vertex 397.9344728172963 -49.52761419665248 1
vertex 397.48848221549804 -49.04184093619234 1
endloop
endfacet
facet normal 0 0 1
outer loop
vertex 333.74386444999993 -113.03426730000001 1
vertex 397.48848221549804 -49.04184093619234 1
vertex 396.96873861124794 -48.63594702971888 1
endloop
endfacet
facet normal 0 0 1
outer loop
vertex 333.74386444999993 -113.03426730000001 1
vertex 396.96873861124794 -48.63594702971888 1
vertex 396.38936874217467 -48.32096475675433 1
endloop
endfacet
facet normal 0 0 1
outer loop
vertex 333.74386444999993 -113.03426730000001 1
vertex 396.38936874217467 -48.32096475675433 1
vertex 395.7661200000002 -48.10545540000008 1
endloop
endfacet
facet normal 0 0 1
outer loop
vertex 333.74386444999993 -113.03426730000001 1
vertex 395.7661200000002 -48.10545540000008 1
vertex 379.37987639999926 -43.91461029999982 1
endloop
endfacet
facet normal 0 0 1
outer loop
vertex 333.74386444999993 -113.03426730000001 1
vertex 379.37987639999926 -43.91461029999982 1
vertex 379.224334758516 -43.87812488911456 1
endloop
endfacet
facet normal 0 0 1
outer loop
vertex 333.74386444999993 -113.03426730000001 1
vertex 379.224334758516 -43.87812488911456 1
vertex 379.0674581999998 -43.84787514999996 1
endloop
endfacet
facet normal 0 0 1
outer loop
vertex 333.74386444999993 -113.03426730000001 1
vertex 379.0674581999998 -43.84787514999996 1
vertex 350.73113360000025 -38.96919330000003 1
endloop
endfacet
facet normal 0 0 1
outer loop
vertex 333.74386444999993 -113.03426730000001 1
vertex 350.73113360000025 -38.96919330000003 1
vertex 350.3471680049804 -38.92206779946001 1
endloop
endfacet
facet normal 0 0 1
outer loop
vertex 333.74386444999993 -113.03426730000001 1
vertex 350.3471680049804 -38.92206779946001 1
vertex 349.9604422814772 -38.91225052474701 1
endloop
endfacet
facet normal 0 0 1
outer loop
vertex 333.74386444999993 -113.03426730000001 1
vertex 349.9604422814772 -38.91225052474701 1
vertex 349.5745767999998 -38.93983665000002 1
endloop
endfacet
facet normal 0 0 1
outer loop
vertex 333.74386444999993 -113.03426730000001 1
vertex 349.5745767999998 -38.93983665000002 1
vertex 270.4774268999999 -48.457360300000026 1
endloop
endfacet
facet normal 0 0 1
outer loop
vertex 333.74386444999993 -113.03426730000001 1
vertex 270.4774268999999 -48.457360300000026 1
vertex 269.8472728830955 -48.58524300492628 1
endloop
endfacet
facet normal 0 0 1
outer loop
vertex 333.74386444999993 -113.03426730000001 1
vertex 269.8472728830955 -48.58524300492628 1
vertex 269.24575360905436 -48.812436855431855 1
endloop
endfacet
facet normal 0 0 1
outer loop
vertex 333.74386444999993 -113.03426730000001 1
vertex 269.24575360905436 -48.812436855431855 1
vertex 268.688408979257 -49.13307597716536 1
endloop
endfacet
facet normal 0 0 1
outer loop
vertex 333.74386444999993 -113.03426730000001 1
vertex 268.688408979257 -49.13307597716536 1
vertex 268.1896408654207 -49.5388750054676 1
endloop
endfacet
facet normal 0 0 1
outer loop
vertex 333.74386444999993 -113.03426730000001 1
vertex 268.1896408654207 -49.5388750054676 1
vertex 267.7623375130023 -50.019348030478305 1
endloop
endfacet
facet normal 0 0 1
outer loop
vertex 333.74386444999993 -113.03426730000001 1
vertex 267.7623375130023 -50.019348030478305 1
vertex 267.41754050693436 -50.562079554674554 1
endloop
endfacet
facet normal 0 0 1
outer loop
vertex 333.74386444999993 -113.03426730000001 1
vertex 267.41754050693436 -50.562079554674554 1
vertex 267.1641594553554 -51.153045311255894 1
endloop
endfacet
facet normal 0 0 1
outer loop
vertex 333.74386444999993 -113.03426730000001 1
vertex 267.1641594553554 -51.153045311255894 1
vertex 267.0087417639568 -51.77697465336918 1
endloop
endfacet
facet normal 0 0 1
outer loop
vertex 333.74386444999993 -113.03426730000001 1
vertex 267.0087417639568 -51.77697465336918 1
vertex 266.95530345 -52.41774515000009 1
endloop
endfacet
facet normal 0 0 1
outer loop
vertex 333.74386444999993 -113.03426730000001 1
vertex 266.95530345 -52.41774515000009 1
vertex 266.78914709670397 -113.03426730000001 1
endloop
endfacet
facet normal 0.9999999999999962 -8.76503349900304e-8 0
outer loop
vertex 398.77500000000003 -51.98073080000008 1
vertex 398.774995 -109.02556995000015 1
vertex 398.774995 -109.02556994999983 0
endloop
endfacet
facet normal 0.9999999999999962 -8.76503349900304e-8 0
outer loop
vertex 398.77500000000003 -51.98073080000008 1
vertex 398.774995 -109.02556994999983 0
vertex 398.775 -51.980730799999336 0
endloop
endfacet
facet normal 0.9965969386476154 0.0824290111441427 0
outer loop
vertex 398.7206420055666 -51.323522735855704 1
vertex 398.77500000000003 -51.98073080000008 1
vertex 398.775 -51.980730799999336 0
endloop
endfacet
facet normal 0.9965969386476154 0.0824290111441427 0
outer loop
vertex 398.7206420055666 -51.323522735855704 1
vertex 398.775 -51.980730799999336 0
vertex 398.7206420055666 -51.32352273585564 0
endloop
endfacet
facet normal 0.9695098816913532 0.24505221750234843 0
outer loop
vertex 398.5590406531894 -50.68417284699835 1
vertex 398.7206420055666 -51.323522735855704 1
vertex 398.7206420055666 -51.32352273585564 0
endloop
endfacet
facet normal 0.9695098816913532 0.24505221750234843 0
outer loop
vertex 398.5590406531894 -50.68417284699835 1
vertex 398.7206420055666 -51.32352273585564 0
vertex 398.55904065318947 -50.68417284699839 0
endloop
endfacet
facet normal 0.9160713001597033 0.4010154274135984 0
outer loop
vertex 398.29458830072906 -50.08006339437421 1
vertex 398.5590406531894 -50.68417284699835 1
vertex 398.55904065318947 -50.68417284699839 0
endloop
endfacet
facet normal 0.9160713001597033 0.4010154274135984 0
outer loop
vertex 398.29458830072906 -50.08006339437421 1
vertex 398.55904065318947 -50.68417284699839 0
vertex 398.2945883007292 -50.08006339437442 0
endloop
endfacet
facet normal 0.837733713039851 0.5460789558630368 0
outer loop
vertex 397.9344728172963 -49.52761419665248 1
vertex 398.29458830072906 -50.08006339437421 1
vertex 398.2945883007292 -50.08006339437442 0
endloop
endfacet
facet normal 0.837733713039851 0.5460789558630368 0
outer loop
vertex 397.9344728172963 -49.52761419665248 1
vertex 398.2945883007292 -50.08006339437442 0
vertex 397.93447281729647 -49.52761419665275 0
endloop
endfacet
facet normal 0.7366263519965455 0.6762999464322479 0
outer loop
vertex 397.48848221549804 -49.04184093619234 1
vertex 397.9344728172963 -49.52761419665248 1
vertex 397.93447281729647 -49.52761419665275 0
endloop
endfacet
facet normal 0.7366263519965455 0.6762999464322479 0
outer loop
vertex 397.48848221549804 -49.04184093619234 1
vertex 397.93447281729647 -49.52761419665275 0
vertex 397.48848221549787 -49.04184093619219 0
endloop
endfacet
facet normal 0.6154973358140672 0.7881389659227523 0
outer loop
vertex 396.96873861124794 -48.63594702971888 1
vertex 397.48848221549804 -49.04184093619234 1
vertex 397.48848221549787 -49.04184093619219 0
endloop
endfacet
facet normal 0.6154973358140672 0.7881389659227523 0
outer loop
vertex 396.96873861124794 -48.63594702971888 1
vertex 397.48848221549787 -49.04184093619219 0
vertex 396.968738611248 -48.63594702971892 0
endloop
endfacet
facet normal 0.4776389759643997 0.8785562068756214 0
outer loop
vertex 396.38936874217467 -48.32096475675433 1
vertex 396.96873861124794 -48.63594702971888 1
vertex 396.968738611248 -48.63594702971892 0
endloop
endfacet
facet normal 0.4776389759643997 0.8785562068756214 0
outer loop
vertex 396.38936874217467 -48.32096475675433 1
vertex 396.968738611248 -48.63594702971892 0
vertex 396.38936874217467 -48.32096475675436 0
endloop
endfacet
facet normal 0.32679829090757456 0.9450941101604053 0
outer loop
vertex 395.7661200000002 -48.10545540000008 1
vertex 396.38936874217467 -48.32096475675433 1
vertex 396.38936874217467 -48.32096475675436 0
endloop
endfacet
facet normal 0.32679829090757456 0.9450941101604053 0
outer loop
vertex 395.7661200000002 -48.10545540000008 1
vertex 396.38936874217467 -48.32096475675436 0
vertex 395.7661199999999 -48.10545539999998 0
endloop
endfacet
facet normal 0.24777860862337775 0.9688166808579748 0
outer loop
vertex 379.37987639999926 -43.91461029999982 1
vertex 395.7661200000002 -48.10545540000008 1
vertex 395.7661199999999 -48.10545539999998 0
endloop
endfacet
facet normal 0.24777860862337775 0.9688166808579748 0
outer loop
vertex 379.37987639999926 -43.91461029999982 1
vertex 395.7661199999999 -48.10545539999998 0
vertex 379.37987639999966 -43.91461029999992 0
endloop
endfacet
facet normal 0.2283713279847747 0.9735741042953384 0
outer loop
vertex 379.224334758516 -43.87812488911456 1
vertex 379.37987639999926 -43.91461029999982 1
vertex 379.37987639999966 -43.91461029999992 0
endloop
endfacet
facet normal 0.2283713279847747 0.9735741042953384 0
outer loop
vertex 379.224334758516 -43.87812488911456 1
vertex 379.37987639999966 -43.91461029999992 0
vertex 379.2243347585161 -43.87812488911459 0
endloop
endfacet
facet normal 0.18933730652812394 0.9819121062277801 0
outer loop
vertex 379.0674581999998 -43.84787514999996 1
vertex 379.224334758516 -43.87812488911456 1
vertex 379.2243347585161 -43.87812488911459 0
endloop
endfacet
facet normal 0.18933730652812394 0.9819121062277801 0
outer loop
vertex 379.0674581999998 -43.84787514999996 1
vertex 379.2243347585161 -43.87812488911459 0
vertex 379.0674581999993 -43.84787514999987 0
endloop
endfacet
facet normal 0.16967415835884486 0.9855002181558449 0
outer loop
vertex 350.73113360000025 -38.96919330000003 1
vertex 379.0674581999998 -43.84787514999996 1
vertex 379.0674581999993 -43.84787514999987 0
endloop
endfacet
facet normal 0.16967415835884486 0.9855002181558449 0
outer loop
vertex 350.73113360000025 -38.96919330000003 1
vertex 379.0674581999993 -43.84787514999987 0
vertex 350.7311336000001 -38.9691933 0
endloop
endfacet
facet normal 0.12181956607032964 0.9925522622625151 0
outer loop
vertex 350.3471680049804 -38.92206779946001 1
vertex 350.73113360000025 -38.96919330000003 1
vertex 350.7311336000001 -38.9691933 0
endloop
endfacet
facet normal 0.12181956607032964 0.9925522622625151 0
outer loop
vertex 350.3471680049804 -38.92206779946001 1
vertex 350.7311336000001 -38.9691933 0
vertex 350.34716800498035 -38.922067799459995 0
endloop
endfacet
facet normal 0.025377450661551393 0.999677940637844 0
outer loop
vertex 349.9604422814772 -38.91225052474701 1
vertex 350.3471680049804 -38.92206779946001 1
vertex 350.34716800498035 -38.922067799459995 0
endloop
endfacet
facet normal 0.025377450661551393 0.999677940637844 0
outer loop
vertex 349.9604422814772 -38.91225052474701 1
vertex 350.34716800498035 -38.922067799459995 0
vertex 349.9604422814772 -38.91225052474701 0
endloop
endfacet
facet normal -0.07130955922263384 0.9974542329167158 0
outer loop
vertex 349.5745767999998 -38.93983665000002 1
vertex 349.9604422814772 -38.91225052474701 1
vertex 349.9604422814772 -38.91225052474701 0
endloop
endfacet
facet normal -0.07130955922263384 0.9974542329167158 0
outer loop
vertex 349.5745767999998 -38.93983665000002 1
vertex 349.9604422814772 -38.91225052474701 0
vertex 349.5745768 -38.93983665000002 0
endloop
endfacet
facet normal -0.11946527492834474 0.9928383796400575 0
outer loop
vertex 270.4774268999999 -48.457360300000026 1
vertex 349.5745767999998 -38.93983665000002 1
vertex 349.5745768 -38.93983665000002 0
endloop
endfacet
facet normal -0.11946527492834474 0.9928383796400575 0
outer loop
vertex 270.4774268999999 -48.457360300000026 1
vertex 349.5745768 -38.93983665000002 0
vertex 270.4774268999999 -48.45736030000001 0
endloop
endfacet
facet normal -0.19888467894637096 0.980022899977546 0
outer loop
vertex 269.8472728830955 -48.58524300492628 1
vertex 270.4774268999999 -48.457360300000026 1
vertex 270.4774268999999 -48.45736030000001 0
endloop
endfacet
facet normal -0.19888467894637096 0.980022899977546 0
outer loop
vertex 269.8472728830955 -48.58524300492628 1
vertex 270.4774268999999 -48.45736030000001 0
vertex 269.84727288309574 -48.58524300492622 0
endloop
endfacet
facet normal -0.3533369225032736 0.9354961353185355 0
outer loop
vertex 269.24575360905436 -48.812436855431855 1
vertex 269.8472728830955 -48.58524300492628 1
vertex 269.84727288309574 -48.58524300492622 0
endloop
endfacet
facet normal -0.3533369225032736 0.9354961353185355 0
outer loop
vertex 269.24575360905436 -48.812436855431855 1
vertex 269.84727288309574 -48.58524300492622 0
vertex 269.2457536090544 -48.812436855431876 0
endloop
endfacet
facet normal -0.49866508382788954 0.8667947474292423 0
outer loop
vertex 268.688408979257 -49.13307597716536 1
vertex 269.24575360905436 -48.812436855431855 1
vertex 269.2457536090544 -48.812436855431876 0
endloop
endfacet
facet normal -0.49866508382788954 0.8667947474292423 0
outer loop
vertex 268.688408979257 -49.13307597716536 1
vertex 269.2457536090544 -48.812436855431876 0
vertex 268.68840897925674 -49.13307597716557 0
endloop
endfacet
facet normal -0.6311076620075412 0.7756952487642136 0
outer loop
vertex 268.1896408654207 -49.5388750054676 1
vertex 268.688408979257 -49.13307597716536 1
vertex 268.68840897925674 -49.13307597716557 0
endloop
endfacet
facet normal -0.6311076620075412 0.7756952487642136 0
outer loop
vertex 268.1896408654207 -49.5388750054676 1
vertex 268.68840897925674 -49.13307597716557 0
vertex 268.1896408654206 -49.53887500546765 0
endloop
endfacet
facet normal -0.747242320270775 0.6645516645049868 0
outer loop
vertex 267.7623375130023 -50.019348030478305 1
vertex 268.1896408654207 -49.5388750054676 1
vertex 268.1896408654206 -49.53887500546765 0
endloop
endfacet
facet normal -0.747242320270775 0.6645516645049868 0
outer loop
vertex 267.7623375130023 -50.019348030478305 1
vertex 268.1896408654206 -49.53887500546765 0
vertex 267.7623375130025 -50.01934803047805 0
endloop
endfacet
facet normal -0.8440681210272308 0.5362359621151495 0
outer loop
vertex 267.41754050693436 -50.562079554674554 1
vertex 267.7623375130023 -50.019348030478305 1
vertex 267.7623375130025 -50.01934803047805 0
endloop
endfacet
facet normal -0.8440681210272308 0.5362359621151495 0
outer loop
vertex 267.41754050693436 -50.562079554674554 1
vertex 267.7623375130025 -50.01934803047805 0
vertex 267.4175405069343 -50.562079554674675 0
endloop
endfacet
facet normal -0.9190830705606038 0.3940638392556368 0
outer loop
vertex 267.1641594553554 -51.153045311255894 1
vertex 267.41754050693436 -50.562079554674554 1
vertex 267.4175405069343 -50.562079554674675 0
endloop
endfacet
facet normal -0.9190830705606038 0.3940638392556368 0
outer loop
vertex 267.1641594553554 -51.153045311255894 1
vertex 267.4175405069343 -50.562079554674675 0
vertex 267.1641594553555 -51.1530453112557 0
endloop
endfacet
facet normal -0.9703487709348996 0.2417090456419247 0
outer loop
vertex 267.0087417639568 -51.77697465336918 1
vertex 267.1641594553554 -51.153045311255894 1
vertex 267.1641594553555 -51.1530453112557 0
endloop
endfacet
facet normal -0.9703487709348996 0.2417090456419247 0
outer loop
vertex 267.0087417639568 -51.77697465336918 1
vertex 267.1641594553555 -51.1530453112557 0
vertex 267.0087417639568 -51.77697465336942 0
endloop
endfacet
facet normal -0.9965405084973129 0.08310845278259661 0
outer loop
vertex 266.95530345 -52.41774515000009 1
vertex 267.0087417639568 -51.77697465336918 1
vertex 267.0087417639568 -51.77697465336942 0
endloop
endfacet
facet normal -0.9965405084973129 0.08310845278259661 0
outer loop
vertex 266.95530345 -52.41774515000009 1
vertex 267.0087417639568 -51.77697465336942 0
vertex 266.9553034499999 -52.41774515000148 0
endloop
endfacet
facet normal 0 0 1
outer loop
vertex 266.7629825 -122.57953490000045 1
vertex 266.77548022034927 -118.02016460000002 1
vertex 266.7772669559964 -117.3683345689217 1
endloop
endfacet
facet normal 0 0 1
outer loop
vertex 266.7629825 -122.57953490000045 1
vertex 266.7772669559964 -117.3683345689217 1
vertex 266.77907870150784 -116.70738053529514 1
endloop
endfacet
facet normal 0 0 1
outer loop
vertex 266.7629825 -122.57953490000045 1
vertex 266.77907870150784 -116.70738053529514 1
vertex 266.7808659819694 -116.05535174714528 1
endloop
endfacet
facet normal 0 0 1
outer loop
vertex 266.7629825 -122.57953490000045 1
vertex 266.7808659819694 -116.05535174714528 1
vertex 266.78257999785626 -115.43005105949696 1
endloop
endfacet
facet normal 0 0 1
outer loop
vertex 266.7629825 -122.57953490000045 1
vertex 266.78257999785626 -115.43005105949696 1
vertex 266.78417395004413 -114.84855154901723 1
endloop
endfacet
facet normal 0 0 1
outer loop
vertex 266.7629825 -122.57953490000045 1
vertex 266.78417395004413 -114.84855154901723 1
vertex 266.7856043176024 -114.3267303543688 1
endloop
endfacet
facet normal 0 0 1
outer loop
vertex 266.7629825 -122.57953490000045 1
vertex 266.7856043176024 -114.3267303543688 1
vertex 266.78683204608 -113.87883517020292 1
endloop
endfacet
facet normal 0 0 1
outer loop
vertex 266.7629825 -122.57953490000045 1
vertex 266.78683204608 -113.87883517020292 1
vertex 266.7878236138405 -113.51709523114036 1
endloop
endfacet
facet normal 0 0 1
outer loop
vertex 266.7629825 -122.57953490000045 1
vertex 266.7878236138405 -113.51709523114036 1
vertex 266.7885519473291 -113.25138740735794 1
endloop
endfacet
facet normal 0 0 1
outer loop
vertex 266.7629825 -122.57953490000045 1
vertex 266.7885519473291 -113.25138740735794 1
vertex 266.78899716028343 -113.08896652862903 1
endloop
endfacet
facet normal 0 0 1
outer loop
vertex 266.7629825 -122.57953490000045 1
vertex 266.78899716028343 -113.08896652862903 1
vertex 266.78914709670397 -113.03426730000001 1
endloop
endfacet
facet normal 0 0 1
outer loop
vertex 266.7629825 -122.57953490000045 1
vertex 266.78914709670397 -113.03426730000001 1
vertex 266.95530345 -52.41774515000009 1
endloop
endfacet
facet normal 0 0 1
outer loop
vertex 266.7629825 -122.57953490000045 1
vertex 266.95530345 -52.41774515000009 1
vertex 266.9553034499999 -52.41774515000148 0
endloop
endfacet
facet normal 0 0 1
outer loop
vertex 266.7629825 -122.57953490000045 1
vertex 266.9553034499999 -52.41774515000148 0
vertex 266.7891470967039 -113.03426730000001 0
endloop
endfacet
facet normal 0 0 1
outer loop
vertex 266.7629825 -122.57953490000045 1
vertex 266.7891470967039 -113.03426730000001 0
vertex 266.7889971602834 -113.08896652862907 0
endloop
endfacet
facet normal 0 0 1
outer loop
vertex 266.7629825 -122.57953490000045 1
vertex 266.7889971602834 -113.08896652862907 0
vertex 266.78855194732904 -113.25138740735797 0
endloop
endfacet
facet normal 0 0 1
outer loop
vertex 266.7629825 -122.57953490000045 1
vertex 266.78855194732904 -113.25138740735797 0
vertex 266.7878236138405 -113.51709523114035 0
endloop
endfacet
facet normal 0 0 1
outer loop
vertex 266.7629825 -122.57953490000045 1
vertex 266.7878236138405 -113.51709523114035 0
vertex 266.78683204608 -113.87883517020305 0
endloop
endfacet
facet normal 0 0 1
outer loop
vertex 266.7629825 -122.57953490000045 1
vertex 266.78683204608 -113.87883517020305 0
vertex 266.78560431760235 -114.3267303543688 0
endloop
endfacet
facet normal 0 0 1
outer loop
vertex 266.7629825 -122.57953490000045 1
vertex 266.78560431760235 -114.3267303543688 0
vertex 266.78417395004413 -114.84855154901736 0
endloop
endfacet
facet normal 0 0 1
outer loop
vertex 266.7629825 -122.57953490000045 1
vertex 266.78417395004413 -114.84855154901736 0
vertex 266.7825799978562 -115.43005105949698 0
endloop
endfacet
facet normal 0 0 1
outer loop
vertex 266.7629825 -122.57953490000045 1
vertex 266.7825799978562 -115.43005105949698 0
vertex 266.7808659819693 -116.05535174714525 0
endloop
endfacet
facet normal 0 0 1
outer loop
vertex 266.7629825 -122.57953490000045 1
vertex 266.7808659819693 -116.05535174714525 0
vertex 266.77907870150784 -116.70738053529514 0
endloop
endfacet
facet normal 0 0 1
outer loop
vertex 266.7629825 -122.57953490000045 1
vertex 266.77907870150784 -116.70738053529514 0
vertex 266.7772669559964 -117.36833456892103 0
endloop
endfacet
facet normal 0 0 1
outer loop
vertex 266.7629825 -122.57953490000045 1
vertex 266.7772669559964 -117.36833456892103 0
vertex 266.7754802203492 -118.02016460000085 0
endloop
endfacet
facet normal 0 0 1
outer loop
vertex 266.7629825 -122.57953490000045 1
vertex 266.7754802203492 -118.02016460000085 0
vertex 266.7629825 -122.57953490000023 0
endloop
endfacet
facet normal -0.9970910434941636 0.07621975455037965 0
outer loop
vertex 266.71817435653634 -123.16570575277751 1
vertex 266.7629825 -122.57953490000045 1
vertex 266.7629825 -122.57953490000023 0
endloop
endfacet
facet normal -0.9970910434941636 0.07621975455037965 0
outer loop
vertex 266.71817435653634 -123.16570575277751 1
vertex 266.7629825 -122.57953490000023 0
vertex 266.7181743565363 -123.16570575277777 0
endloop
endfacet
facet normal -0.9751511282622316 0.22154068937533078 0
outer loop
vertex 266.58793538490886 -123.73897597453391 1
vertex 266.71817435653634 -123.16570575277751 1
vertex 266.7181743565363 -123.16570575277777 0
endloop
endfacet
facet normal -0.9751511282622316 0.22154068937533078 0
outer loop
vertex 266.58793538490886 -123.73897597453391 1
vertex 266.7181743565363 -123.16570575277777 0
vertex 266.5879353849088 -123.73897597453397 0
endloop
endfacet
facet normal -0.9321477551666297 0.3620781166237653 0
outer loop
vertex 266.3750775045309 -124.28696544491109 1
vertex 266.58793538490886 -123.73897597453391 1
vertex 266.5879353849088 -123.73897597453397 0
endloop
endfacet
facet normal -0.9321477551666297 0.3620781166237653 0
outer loop
vertex 266.3750775045309 -124.28696544491109 1
vertex 266.5879353849088 -123.73897597453397 0
vertex 266.37507750453085 -124.28696544491122 0
endloop
endfacet
facet normal -0.8690099359774089 0.49479463535141494 0
outer loop
vertex 266.08419845808277 -124.79783755926113 1
vertex 266.3750775045309 -124.28696544491109 1
vertex 266.37507750453085 -124.28696544491122 0
endloop
endfacet
facet normal -0.8690099359774089 0.49479463535141494 0
outer loop
vertex 266.08419845808277 -124.79783755926113 1
vertex 266.37507750453085 -124.28696544491122 0
vertex 266.0841984580828 -124.79783755926113 0
endloop
endfacet
facet normal -0.787101451285914 0.6168235609828859 0
outer loop
vertex 265.7215812500006 -125.26055744999931 1
vertex 266.08419845808277 -124.79783755926113 1
vertex 266.0841984580828 -124.79783755926113 0
endloop
endfacet
facet normal -0.787101451285914 0.6168235609828859 0
outer loop
vertex 265.7215812500006 -125.26055744999931 1
vertex 266.0841984580828 -124.79783755926113 0
vertex 265.72158125000055 -125.26055744999945 0
endloop
endfacet
facet normal -0.7396458291116925 0.672996320552852 0
outer loop
vertex 249.41585070000053 -143.1811094999994 1
vertex 265.7215812500006 -125.26055744999931 1
vertex 265.72158125000055 -125.26055744999945 0
endloop
endfacet
facet normal -0.7396458291116925 0.672996320552852 0
outer loop
vertex 249.41585070000053 -143.1811094999994 1
vertex 265.72158125000055 -125.26055744999945 0
vertex 249.41585070000042 -143.18110949999948 0
endloop
endfacet
facet normal -0.7906977418012436 0.6122067306967589 0
outer loop
vertex 249.02737226787883 -143.68285017617183 1
vertex 249.41585070000053 -143.1811094999994 1
vertex 249.41585070000042 -143.18110949999948 0
endloop
endfacet
facet normal -0.7906977418012436 0.6122067306967589 0
outer loop
vertex 249.02737226787883 -143.68285017617183 1
vertex 249.41585070000042 -143.18110949999948 0
vertex 249.0273722678788 -143.6828501761718 0
endloop
endfacet
facet normal -0.8775619665497093 0.4794632361979456 0
outer loop
vertex 248.7231269925502 -144.23971056081376 1
vertex 249.02737226787883 -143.68285017617183 1
vertex 249.0273722678788 -143.6828501761718 0
endloop
endfacet
facet normal -0.8775619665497093 0.4794632361979456 0
outer loop
vertex 248.7231269925502 -144.23971056081376 1
vertex 249.0273722678788 -143.6828501761718 0
vertex 248.72312699255036 -144.2397105608134 0
endloop
endfacet
facet normal -0.9423412007643662 0.3346536438498353 0
outer loop
vertex 248.5107712114893 -144.83767686236695 1
vertex 248.7231269925502 -144.23971056081376 1
vertex 248.72312699255036 -144.2397105608134 0
endloop
endfacet
facet normal -0.9423412007643662 0.3346536438498353 0
outer loop
vertex 248.5107712114893 -144.83767686236695 1
vertex 248.72312699255036 -144.2397105608134 0
vertex 248.51077121148919 -144.8376768623673 0
endloop
endfacet
facet normal -0.9834053187409091 0.18142210193934757 0
outer loop
vertex 248.39564910579256 -145.46170056089443 1
vertex 248.5107712114893 -144.83767686236695 1
vertex 248.51077121148919 -144.8376768623673 0
endloop
endfacet
facet normal -0.9834053187409091 0.18142210193934757 0
outer loop
vertex 248.39564910579256 -145.46170056089443 1
vertex 248.51077121148919 -144.8376768623673 0
vertex 248.39564910579261 -145.46170056089386 0
endloop
endfacet
facet normal -0.9997208940195501 0.02362486107369933 0
outer loop
vertex 248.3806578576231 -146.09607737164743 1
vertex 248.39564910579256 -145.46170056089443 1
vertex 248.39564910579261 -145.46170056089386 0
endloop
endfacet
facet normal -0.9997208940195501 0.02362486107369933 0
outer loop
vertex 248.3806578576231 -146.09607737164743 1
vertex 248.39564910579261 -145.46170056089386 0
vertex 248.38065785762316 -146.0960773716478 0
endloop
endfacet
facet normal -0.9908773261045016 -0.1347669269961783 0
outer loop
vertex 248.46617473923908 -146.72484246172638 1
vertex 248.3806578576231 -146.09607737164743 1
vertex 248.38065785762316 -146.0960773716478 0
endloop
endfacet
facet normal -0.9908773261045016 -0.1347669269961783 0
outer loop
vertex 248.46617473923908 -146.72484246172638 1
vertex 248.38065785762316 -146.0960773716478 0
vertex 248.4661747392391 -146.72484246172664 0
endloop
endfacet
facet normal -0.9570971737047321 -0.2897671480454848 0
outer loop
vertex 248.65004761849772 -147.3321722237316 1
vertex 248.46617473923908 -146.72484246172638 1
vertex 248.4661747392391 -146.72484246172664 0
endloop
endfacet
facet normal -0.9570971737047321 -0.2897671480454848 0
outer loop
vertex 248.65004761849772 -147.3321722237316 1
vertex 248.4661747392391 -146.72484246172664 0
vertex 248.6500476184976 -147.33217222373142 0
endloop
endfacet
facet normal -0.8992305537843279 -0.4374750405917246 0
outer loop
vertex 248.92764911977156 -147.90278249531238 1
vertex 248.65004761849772 -147.3321722237316 1
vertex 248.6500476184976 -147.33217222373142 0
endloop
endfacet
facet normal -0.8992305537843279 -0.4374750405917246 0
outer loop
vertex 248.92764911977156 -147.90278249531238 1
vertex 248.6500476184976 -147.33217222373142 0
vertex 248.92764911977147 -147.9027824953122 0
endloop
endfacet
facet normal -0.8187337473767621 -0.5741733631111812 0
outer loop
vertex 249.29199307725906 -148.42231320295699 1
vertex 248.92764911977156 -147.90278249531238 1
vertex 248.92764911977147 -147.9027824953122 0
endloop
endfacet
facet normal -0.8187337473767621 -0.5741733631111812 0
outer loop
vertex 249.29199307725906 -148.42231320295699 1
vertex 248.92764911977147 -147.9027824953122 0
vertex 249.2919930772592 -148.4223132029571 0
endloop
endfacet
facet normal -0.7176325505728207 -0.6964219427605279 0
outer loop
vertex 249.7339103499999 -148.87768974999983 1
vertex 249.29199307725906 -148.42231320295699 1
vertex 249.2919930772592 -148.4223132029571 0
endloop
endfacet
facet normal -0.7176325505728207 -0.6964219427605279 0
outer loop
vertex 249.7339103499999 -148.87768974999983 1
vertex 249.2919930772592 -148.4223132029571 0
vertex 249.73391035000003 -148.87768975 0
endloop
endfacet
facet normal -0.6601320315578884 -0.7511495862418185 0
outer loop
vertex 271.54093070000073 -168.04233140000056 1
vertex 249.7339103499999 -148.87768974999983 1
vertex 249.73391035000003 -148.87768975 0
endloop
endfacet
facet normal -0.6601320315578884 -0.7511495862418185 0
outer loop
vertex 271.54093070000073 -168.04233140000056 1
vertex 249.73391035000003 -148.87768975 0
vertex 271.54093070000044 -168.04233140000036 0
endloop
endfacet
facet normal -0.5972221745442531 -0.8020758531664159 0
outer loop
vertex 272.0598873396349 -168.42874424560978 1
vertex 271.54093070000073 -168.04233140000056 1
vertex 271.54093070000044 -168.04233140000036 0
endloop
endfacet
facet normal -0.5972221745442531 -0.8020758531664159 0
outer loop
vertex 272.0598873396349 -168.42874424560978 1
vertex 271.54093070000044 -168.04233140000036 0
vertex 272.05988733963477 -168.4287442456097 0
endloop
endfacet
facet normal -0.4600905305036882 -0.8878720086481131 0
outer loop
vertex 272.63435351178344 -168.7264295463354 1
vertex 272.0598873396349 -168.42874424560978 1
vertex 272.05988733963477 -168.4287442456097 0
endloop
endfacet
facet normal -0.4600905305036882 -0.8878720086481131 0
outer loop
vertex 272.63435351178344 -168.7264295463354 1
vertex 272.05988733963477 -168.4287442456097 0
vertex 272.63435351178344 -168.7264295463354 0
endloop
endfacet
facet normal -0.3109254996818713 -0.9504342868644727 0
outer loop
vertex 273.24929839273017 -168.92760289101338 1
vertex 272.63435351178344 -168.7264295463354 1
vertex 272.63435351178344 -168.7264295463354 0
endloop
endfacet
facet normal -0.3109254996818713 -0.9504342868644727 0
outer loop
vertex 273.24929839273017 -168.92760289101338 1
vertex 272.63435351178344 -168.7264295463354 0
vertex 273.2492983927302 -168.9276028910134 0
endloop
endfacet
facet normal -0.15362533788604066 -0.9881291694709755 0
outer loop
vertex 273.8886324139015 -169.0270007309507 1
vertex 273.24929839273017 -168.92760289101338 1
vertex 273.2492983927302 -168.9276028910134 0
endloop
endfacet
facet normal -0.15362533788604066 -0.9881291694709755 0
outer loop
vertex 273.8886324139015 -169.0270007309507 1
vertex 273.2492983927302 -168.9276028910134 0
vertex 273.8886324139015 -169.02700073095073 0
endloop
endfacet
facet normal 0.007694314900049903 -0.9999703983209798 0
outer loop
vertex 274.5356278832823 -169.0220223967033 1
vertex 273.8886324139015 -169.0270007309507 1
vertex 273.8886324139015 -169.02700073095073 0
endloop
endfacet
facet normal 0.007694314900049903 -0.9999703983209798 0
outer loop
vertex 274.5356278832823 -169.0220223967033 1
vertex 273.8886324139015 -169.02700073095073 0
vertex 274.53562788328213 -169.02202239670333 0
endloop
endfacet
facet normal 0.1688126517454407 -0.9856481566008597 0
outer loop
vertex 275.17335665284935 -168.91279814262847 1
vertex 274.5356278832823 -169.0220223967033 1
vertex 274.53562788328213 -169.02202239670333 0
endloop
endfacet
facet normal 0.1688126517454407 -0.9856481566008597 0
outer loop
vertex 275.17335665284935 -168.91279814262847 1
vertex 274.53562788328213 -169.02202239670333 0
vertex 275.17335665284924 -168.91279814262847 0
endloop
endfacet
facet normal 0.3255141329986495 -0.9455371749530198 0
outer loop
vertex 275.7851330307828 -168.70218573887826 1
vertex 275.17335665284935 -168.91279814262847 1
vertex 275.17335665284924 -168.91279814262847 0
endloop
endfacet
facet normal 0.3255141329986495 -0.9455371749530198 0
outer loop
vertex 275.7851330307828 -168.70218573887826 1
vertex 275.17335665284924 -168.91279814262847 0
vertex 275.7851330307827 -168.70218573887826 0
endloop
endfacet
facet normal 0.4736987827004648 -0.8806869269315276 0
outer loop
vertex 276.3549503500003 -168.3956956999998 1
vertex 275.7851330307828 -168.70218573887826 1
vertex 275.7851330307827 -168.70218573887826 0
endloop
endfacet
facet normal 0.4736987827004648 -0.8806869269315276 0
outer loop
vertex 276.3549503500003 -168.3956956999998 1
vertex 275.7851330307827 -168.70218573887826 0
vertex 276.35495035000076 -168.39569569999952 0
endloop
endfacet
facet normal 0.5433718232466417 -0.8394921451101378 0
outer loop
vertex 330.8937631 -133.0947649 1
vertex 276.3549503500003 -168.3956956999998 1
vertex 276.35495035000076 -168.39569569999952 0
endloop
endfacet
facet normal 0.5433718232466417 -0.8394921451101378 0
outer loop
vertex 330.8937631 -133.0947649 1
vertex 276.35495035000076 -168.39569569999952 0
vertex 330.89376309999955 -133.09476490000034 0
endloop
endfacet
facet normal 0.6070060430973065 -0.7946972150720996 0
outer loop
vertex 331.3881192288576 -132.7171655427007 1
vertex 330.8937631 -133.0947649 1
vertex 330.89376309999955 -133.09476490000034 0
endloop
endfacet
facet normal 0.6070060430973065 -0.7946972150720996 0
outer loop
vertex 331.3881192288576 -132.7171655427007 1
vertex 330.89376309999955 -133.09476490000034 0
vertex 331.3881192288575 -132.7171655427008 0
endloop
endfacet
facet normal 0.7228799093518649 -0.6909736873828408 0
outer loop
vertex 331.8179492932182 -132.26748775664987 1
vertex 331.3881192288576 -132.7171655427007 1
vertex 331.3881192288575 -132.7171655427008 0
endloop
endfacet
facet normal 0.7228799093518649 -0.6909736873828408 0
outer loop
vertex 331.8179492932182 -132.26748775664987 1
vertex 331.3881192288575 -132.7171655427008 0
vertex 331.8179492932183 -132.2674877566497 0
endloop
endfacet
facet normal 0.8212705564796493 -0.5705389321155981 0
outer loop
vertex 332.1728611956387 -131.75660466139584 1
vertex 331.8179492932182 -132.26748775664987 1
vertex 331.8179492932183 -132.2674877566497 0
endloop
endfacet
facet normal 0.8212705564796493 -0.5705389321155981 0
outer loop
vertex 332.1728611956387 -131.75660466139584 1
vertex 331.8179492932183 -132.2674877566497 0
vertex 332.1728611956386 -131.75660466139598 0
endloop
endfacet
facet normal 0.8997985701125121 -0.43630555030102336 0
outer loop
vertex 332.4442713031309 -131.1968720921744 1
vertex 332.1728611956387 -131.75660466139584 1
vertex 332.1728611956386 -131.75660466139598 0
endloop
endfacet
facet normal 0.8997985701125121 -0.43630555030102336 0
outer loop
vertex 332.4442713031309 -131.1968720921744 1
vertex 332.1728611956386 -131.75660466139598 0
vertex 332.4442713031309 -131.19687209217426 0
endloop
endfacet
facet normal 0.956564730630843 -0.29152000979888665 0
outer loop
vertex 332.6256154944687 -130.6018273209486 1
vertex 332.4442713031309 -131.1968720921744 1
vertex 332.4442713031309 -131.19687209217426 0
endloop
endfacet
facet normal 0.956564730630843 -0.29152000979888665 0
outer loop
vertex 332.6256154944687 -130.6018273209486 1
vertex 332.4442713031309 -131.19687209217426 0
vertex 332.6256154944688 -130.60182732094833 0
endloop
endfacet
facet normal 0.9901961342669606 -0.13968398506187912 0
outer loop
vertex 332.71250791510016 -129.98586165410256 1
vertex 332.6256154944687 -130.6018273209486 1
vertex 332.6256154944688 -130.60182732094833 0
endloop
endfacet
facet normal 0.9901961342669606 -0.13968398506187912 0
outer loop
vertex 332.71250791510016 -129.98586165410256 1
vertex 332.6256154944688 -130.60182732094833 0
vertex 332.7125079151001 -129.9858616541029 0
endloop
endfacet
facet normal 0.9998793971255655 0.015530331735533313 0
outer loop
vertex 332.70284705013336 -129.36387237510814 1
vertex 332.71250791510016 -129.98586165410256 1
vertex 332.7125079151001 -129.9858616541029 0
endloop
endfacet
facet normal 0.9998793971255655 0.015530331735533313 0
outer loop
vertex 332.70284705013336 -129.36387237510814 1
vertex 332.7125079151001 -129.9858616541029 0
vertex 332.7028470501333 -129.36387237510777 0
endloop
endfacet
facet normal 0.9853803270762964 0.17036904358189933 0
outer loop
vertex 332.5968665500001 -128.75090245000064 1
vertex 332.70284705013336 -129.36387237510814 1
vertex 332.7028470501333 -129.36387237510777 0
endloop
endfacet
facet normal 0.9853803270762964 0.17036904358189933 0
outer loop
vertex 332.5968665500001 -128.75090245000064 1
vertex 332.7028470501333 -129.36387237510777 0
vertex 332.59686655000013 -128.7509024500009 0
endloop
endfacet
facet normal 0 0 -1
outer loop
vertex 329.86782889999995 -118.02016460000002 1
vertex 331.0273664250913 -122.57953490000045 1
vertex 331.17644119971743 -123.16570575277751 1
endloop
endfacet
facet normal 0 0 -1
outer loop
vertex 329.86782889999995 -118.02016460000002 1
vertex 331.17644119971743 -123.16570575277751 1
vertex 331.3222350901904 -123.73897597453391 1
endloop
endfacet
facet normal 0 0 -1
outer loop
vertex 329.86782889999995 -118.02016460000002 1
vertex 331.3222350901904 -123.73897597453391 1
vertex 331.46159958845396 -124.28696544491109 1
endloop
endfacet
facet normal 0 0 -1
outer loop
vertex 329.86782889999995 -118.02016460000002 1
vertex 331.46159958845396 -124.28696544491109 1
vertex 331.591524413185 -124.79783755926113 1
endloop
endfacet
facet normal 0 0 -1
outer loop
vertex 329.86782889999995 -118.02016460000002 1
vertex 331.591524413185 -124.79783755926113 1
vertex 331.70920318056153 -125.26055744999931 1
endloop
endfacet
facet normal 0 0 -1
outer loop
vertex 329.86782889999995 -118.02016460000002 1
vertex 331.70920318056153 -125.26055744999931 1
vertex 332.5968665500001 -128.75090245000064 1
endloop
endfacet
facet normal 0 0 -1
outer loop
vertex 329.86782889999995 -118.02016460000002 1
vertex 332.5968665500001 -128.75090245000064 1
vertex 332.59686655000013 -128.7509024500009 0
endloop
endfacet
facet normal 0 0 -1
outer loop
vertex 329.86782889999995 -118.02016460000002 1
vertex 332.59686655000013 -128.7509024500009 0
vertex 331.7092031805616 -125.26055744999945 0
endloop
endfacet
facet normal 0 0 -1
outer loop
vertex 329.86782889999995 -118.02016460000002 1
vertex 331.7092031805616 -125.26055744999945 0
vertex 331.591524413185 -124.79783755926113 0
endloop
endfacet
facet normal 0 0 -1
outer loop
vertex 329.86782889999995 -118.02016460000002 1
vertex 331.591524413185 -124.79783755926113 0
vertex 331.46159958845396 -124.28696544491122 0
endloop
endfacet
facet normal 0 0 -1
outer loop
vertex 329.86782889999995 -118.02016460000002 1
vertex 331.46159958845396 -124.28696544491122 0
vertex 331.3222350901904 -123.73897597453397 0
endloop
endfacet
facet normal 0 0 -1
outer loop
vertex 329.86782889999995 -118.02016460000002 1
vertex 331.3222350901904 -123.73897597453397 0
vertex 331.1764411997175 -123.16570575277777 0
endloop
endfacet
facet normal 0 0 -1
outer loop
vertex 329.86782889999995 -118.02016460000002 1
vertex 331.1764411997175 -123.16570575277777 0
vertex 331.0273664250912 -122.57953490000023 0
endloop
endfacet
facet normal 0 0 -1
outer loop
vertex 329.86782889999995 -118.02016460000002 1
vertex 331.0273664250912 -122.57953490000023 0
vertex 329.8678289000002 -118.02016460000085 0
endloop
endfacet
facet normal 0.986198181613297 0.16556915951537124 0
outer loop
vertex 329.7583955706706 -117.3683345689217 1
vertex 329.86782889999995 -118.02016460000002 1
vertex 329.8678289000002 -118.02016460000085 0
endloop
endfacet
facet normal 0.986198181613297 0.16556915951537124 0
outer loop
vertex 329.7583955706706 -117.3683345689217 1
vertex 329.8678289000002 -118.02016460000085 0
vertex 329.7583955706706 -117.36833456892103 0
endloop
endfacet
facet normal 0.9999995944130201 0.0009006518724277157 0
outer loop
vertex 329.7578002809412 -116.70738053529514 1
vertex 329.7583955706706 -117.3683345689217 1
vertex 329.7583955706706 -117.36833456892103 0
endloop
endfacet
facet normal 0.9999995944130201 0.0009006518724277157 0
outer loop
vertex 329.7578002809412 -116.70738053529514 1
vertex 329.7583955706706 -117.36833456892103 0
vertex 329.7578002809412 -116.70738053529514 0
endloop
endfacet
facet normal 0.9864960201813923 -0.1637852318320371 0
outer loop
vertex 329.8660548344757 -116.05535174714528 1
vertex 329.7578002809412 -116.70738053529514 1
vertex 329.7578002809412 -116.70738053529514 0
endloop
endfacet
facet normal 0.9864960201813923 -0.1637852318320371 0
outer loop
vertex 329.8660548344757 -116.05535174714528 1
vertex 329.7578002809412 -116.70738053529514 0
vertex 329.8660548344757 -116.05535174714525 0
endloop
endfacet
facet normal 0.9460573689272442 -0.32399915848418526 0
outer loop
vertex 330.0802034720233 -115.43005105949696 1
vertex 329.8660548344757 -116.05535174714528 1
vertex 329.8660548344757 -116.05535174714525 0
endloop
endfacet
facet normal 0.9460573689272442 -0.32399915848418526 0
outer loop
vertex 330.0802034720233 -115.43005105949696 1
vertex 329.8660548344757 -116.05535174714525 0
vertex 330.0802034720233 -115.43005105949698 0
endloop
endfacet
facet normal 0.8797877689632451 -0.47536668118692926 0
outer loop
vertex 330.39439912483886 -114.84855154901723 1
vertex 330.0802034720233 -115.43005105949696 1
vertex 330.0802034720233 -115.43005105949698 0
endloop
endfacet
facet normal 0.8797877689632451 -0.47536668118692926 0
outer loop
vertex 330.39439912483886 -114.84855154901723 1
vertex 330.0802034720233 -115.43005105949698 0
vertex 330.3943991248388 -114.84855154901736 0
endloop
endfacet
facet normal 0.7894966313187506 -0.6137548933705904 0
outer loop
vertex 330.8000630618021 -114.3267303543688 1
vertex 330.39439912483886 -114.84855154901723 1
vertex 330.3943991248388 -114.84855154901736 0
endloop
endfacet
facet normal 0.7894966313187506 -0.6137548933705904 0
outer loop
vertex 330.8000630618021 -114.3267303543688 1
vertex 330.3943991248388 -114.84855154901736 0
vertex 330.8000630618021 -114.3267303543688 0
endloop
endfacet
facet normal 0.6776492459665907 -0.7353852727930519 0
outer loop
vertex 331.28611912126206 -113.87883517020292 1
vertex 330.8000630618021 -114.3267303543688 1
vertex 330.8000630618021 -114.3267303543688 0
endloop
endfacet
facet normal 0.6776492459665907 -0.7353852727930519 0
outer loop
vertex 331.28611912126206 -113.87883517020292 1
vertex 330.8000630618021 -114.3267303543688 0
vertex 331.28611912126195 -113.87883517020305 0
endloop
endfacet
facet normal 0.5472994700716317 -0.8369368495049738 0
outer loop
vertex 331.83929613219453 -113.51709523114036 1
vertex 331.28611912126206 -113.87883517020292 1
vertex 331.28611912126195 -113.87883517020305 0
endloop
endfacet
facet normal 0.5472994700716317 -0.8369368495049738 0
outer loop
vertex 331.83929613219453 -113.51709523114036 1
vertex 331.28611912126195 -113.87883517020305 0
vertex 331.8392961321946 -113.51709523114035 0
endloop
endfacet
facet normal 0.40200634612537717 -0.9156368809058116 0
outer loop
vertex 332.4444902674248 -113.25138740735794 1
vertex 331.83929613219453 -113.51709523114036 1
vertex 331.8392961321946 -113.51709523114035 0
endloop
endfacet
facet normal 0.40200634612537717 -0.9156368809058116 0
outer loop
vertex 332.4444902674248 -113.25138740735794 1
vertex 331.8392961321946 -113.51709523114035 0
vertex 332.4444902674247 -113.25138740735797 0
endloop
endfacet
facet normal 0.24573692660885663 -0.9693365581163406 0
outer loop
vertex 333.08517743530797 -113.08896652862903 1
vertex 332.4444902674248 -113.25138740735794 1
vertex 332.4444902674247 -113.25138740735797 0
endloop
endfacet
facet normal 0.24573692660885663 -0.9693365581163406 0
outer loop
vertex 333.08517743530797 -113.08896652862903 1
vertex 332.4444902674247 -113.25138740735797 0
vertex 333.08517743530774 -113.08896652862907 0
endloop
endfacet
facet normal 0.08275795843721313 -0.9965696765983323 0
outer loop
vertex 333.74386444999993 -113.03426730000001 1
vertex 333.08517743530797 -113.08896652862903 1
vertex 333.08517743530774 -113.08896652862907 0
endloop
endfacet
facet normal 0.08275795843721313 -0.9965696765983323 0
outer loop
vertex 333.74386444999993 -113.03426730000001 1
vertex 333.08517743530774 -113.08896652862907 0
vertex 333.7438644500001 -113.03426730000001 0
endloop
endfacet
facet normal 0.00014250625692113772 -0.9999999898459834 0
outer loop
vertex 394.77557000000013 -113.0255699 1
vertex 333.74386444999993 -113.03426730000001 1
vertex 333.7438644500001 -113.03426730000001 0
endloop
endfacet
facet normal 0.00014250625692113772 -0.9999999898459834 0
outer loop
vertex 394.77557000000013 -113.0255699 1
vertex 333.7438644500001 -113.03426730000001 0
vertex 394.77557000000013 -113.0255699 0
endloop
endfacet
facet normal 0.08729147102963 -0.9961828140886005 0
outer loop
vertex 395.47009543260805 -112.96471144528422 1
vertex 394.77557000000013 -113.0255699 1
vertex 394.77557000000013 -113.0255699 0
endloop
endfacet
facet normal 0.08729147102963 -0.9961828140886005 0
outer loop
vertex 395.47009543260805 -112.96471144528422 1
vertex 394.77557000000013 -113.0255699 0
vertex 395.47009543260816 -112.96471144528422 0
endloop
endfacet
facet normal 0.25893576094284837 -0.9658945448158138 0
outer loop
vertex 396.1434994791654 -112.78418615900613 1
vertex 395.47009543260805 -112.96471144528422 1
vertex 395.47009543260816 -112.96471144528422 0
endloop
endfacet
facet normal 0.25893576094284837 -0.9658945448158138 0
outer loop
vertex 396.1434994791654 -112.78418615900613 1
vertex 395.47009543260816 -112.96471144528422 0
vertex 396.14349947916554 -112.78418615900613 0
endloop
endfacet
facet normal 0.42271317263541097 -0.9062635233090347 0
outer loop
vertex 396.7753298659508 -112.48947825065922 1
vertex 396.1434994791654 -112.78418615900613 1
vertex 396.14349947916554 -112.78418615900613 0
endloop
endfacet
facet normal 0.42271317263541097 -0.9062635233090347 0
outer loop
vertex 396.7753298659508 -112.48947825065922 1
vertex 396.14349947916554 -112.78418615900613 0
vertex 396.7753298659505 -112.48947825065942 0
endloop
endfacet
facet normal 0.5736490234207906 -0.8191012134824202 0
outer loop
vertex 397.3463922812626 -112.08954062211735 1
vertex 396.7753298659508 -112.48947825065922 1
vertex 396.7753298659505 -112.48947825065942 0
endloop
endfacet
facet normal 0.5736490234207906 -0.8191012134824202 0
outer loop
vertex 397.3463922812626 -112.08954062211735 1
vertex 396.7753298659505 -112.48947825065942 0
vertex 397.34639228126247 -112.08954062211743 0
endloop
endfacet
facet normal 0.707158048286428 -0.707055510369398 0
outer loop
vertex 397.83933847749046 -111.5965229383253 1
vertex 397.3463922812626 -112.08954062211735 1
vertex 397.34639228126247 -112.08954062211743 0
endloop
endfacet
facet normal 0.707158048286428 -0.707055510369398 0
outer loop
vertex 397.83933847749046 -111.5965229383253 1
vertex 397.34639228126247 -112.08954062211743 0
vertex 397.83933847749034 -111.59652293832544 0
endloop
endfacet
facet normal 0.8191843900092743 -0.5735302391026416 0
outer loop
vertex 398.2391932917737 -111.02540253385742 1
vertex 397.83933847749046 -111.5965229383253 1
vertex 397.83933847749034 -111.59652293832544 0
endloop
endfacet
facet normal 0.8191843900092743 -0.5735302391026416 0
outer loop
vertex 398.2391932917737 -111.02540253385742 1
vertex 397.83933847749034 -111.59652293832544 0
vertex 398.2391932917737 -111.02540253385739 0
endloop
endfacet
facet normal 0.9063248116343513 -0.4225817504530428 0
outer loop
vertex 398.53380957497376 -110.39352941797051 1
vertex 398.2391932917737 -111.02540253385742 1
vertex 398.2391932917737 -111.02540253385739 0
endloop
endfacet
facet normal 0.9063248116343513 -0.4225817504530428 0
outer loop
vertex 398.53380957497376 -110.39352941797051 1
vertex 398.2391932917737 -111.02540253385739 0
vertex 398.5338095749737 -110.3935294179706 0
endloop
endfacet
facet normal 0.9659320830677814 -0.25879569335739844 0
outer loop
vertex 398.71423720868796 -109.72009920042886 1
vertex 398.53380957497376 -110.39352941797051 1
vertex 398.5338095749737 -110.3935294179706 0
endloop
endfacet
facet normal 0.9659320830677814 -0.25879569335739844 0
outer loop
vertex 398.71423720868796 -109.72009920042886 1
vertex 398.5338095749737 -110.3935294179706 0
vertex 398.71423720868796 -109.72009920042873 0
endloop
endfacet
facet normal 0.9961954010125993 -0.08714770795234017 0
outer loop
vertex 398.774995 -109.02556995000015 1
vertex 398.71423720868796 -109.72009920042886 1
vertex 398.71423720868796 -109.72009920042873 0
endloop
endfacet
facet normal 0.9961954010125993 -0.08714770795234017 0
outer loop
vertex 398.774995 -109.02556995000015 1
vertex 398.71423720868796 -109.72009920042873 0
vertex 398.774995 -109.02556994999983 0
endloop
endfacet
endsolid csg.js
