solid csg.js
facet normal 0 0 -1
outer loop
vertex 136.17542319999984 -38.939836649999975 0
vertex 215.27257310000002 -48.4573603 0
vertex 215.9027271169043 -48.58524300492624 0
endloop
endfacet
facet normal 0 0 -1
outer loop
vertex 136.17542319999984 -38.939836649999975 0
vertex 215.9027271169043 -48.58524300492624 0
vertex 216.5042463909456 -48.81243685543188 0
endloop
endfacet
facet normal 0 0 -1
outer loop
vertex 136.17542319999984 -38.939836649999975 0
vertex 216.5042463909456 -48.81243685543188 0
vertex 217.0615910207432 -49.13307597716552 0
endloop
endfacet
facet normal 0 0 -1
outer loop
vertex 136.17542319999984 -38.939836649999975 0
vertex 217.0615910207432 -49.13307597716552 0
vertex 217.56035913457922 -49.538875005467496 0
endloop
endfacet
facet normal 0 0 -1
outer loop
vertex 136.17542319999984 -38.939836649999975 0
vertex 217.56035913457922 -49.538875005467496 0
vertex 217.98766248699744 -50.01934803047802 0
endloop
endfacet
facet normal 0 0 -1
outer loop
vertex 136.17542319999984 -38.939836649999975 0
vertex 217.98766248699744 -50.01934803047802 0
vertex 218.3324594930657 -50.56207955467472 0
endloop
endfacet
facet normal 0 0 -1
outer loop
vertex 136.17542319999984 -38.939836649999975 0
vertex 218.3324594930657 -50.56207955467472 0
vertex 218.58584054464447 -51.15304531125573 0
endloop
endfacet
facet normal 0 0 -1
outer loop
vertex 136.17542319999984 -38.939836649999975 0
vertex 218.58584054464447 -51.15304531125573 0
vertex 218.74125823604322 -51.77697465336934 0
endloop
endfacet
facet normal 0 0 -1
outer loop
vertex 136.17542319999984 -38.939836649999975 0
vertex 218.74125823604322 -51.77697465336934 0
vertex 218.79469654999994 -52.41774515000004 0
endloop
endfacet
facet normal 0 0 -1
outer loop
vertex 136.17542319999984 -38.939836649999975 0
vertex 218.79469654999994 -52.41774515000004 0
vertex 218.96085290329603 -113.03426730000002 0
endloop
endfacet
facet normal 0 0 -1
outer loop
vertex 136.17542319999984 -38.939836649999975 0
vertex 218.96085290329603 -113.03426730000002 0
vertex 152.0061355500027 -113.03426730000002 0
endloop
endfacet
facet normal 0 0 -1
outer loop
vertex 136.17542319999984 -38.939836649999975 0
vertex 152.0061355500027 -113.03426730000002 0
vertex 90.97443000000011 -113.02556990000001 0
endloop
endfacet
facet normal 0 0 -1
outer loop
vertex 136.17542319999984 -38.939836649999975 0
vertex 90.97443000000011 -113.02556990000001 0
vertex 90.27991207500624 -112.96471453178563 0
endloop
endfacet
facet normal 0 0 -1
outer loop
vertex 136.17542319999984 -38.939836649999975 0
vertex 90.27991207500624 -112.96471453178563 0
vertex 89.60650513828026 -112.78419147830613 0
endloop
endfacet
facet normal 0 0 -1
outer loop
vertex 136.17542319999984 -38.939836649999975 0
vertex 89.60650513828026 -112.78419147830613 0
vertex 88.97467168124433 -112.4894849160483 0
endloop
endfacet
facet normal 0 0 -1
outer loop
vertex 136.17542319999984 -38.939836649999975 0
vertex 88.97467168124433 -112.4894849160483 0
vertex 88.40360623074709 -112.08954776284003 0
endloop
endfacet
facet normal 0 0 -1
outer loop
vertex 136.17542319999984 -38.939836649999975 0
vertex 88.40360623074709 -112.08954776284003 0
vertex 87.91065723676397 -111.59652974633458 0
endloop
endfacet
facet normal 0 0 -1
outer loop
vertex 136.17542319999984 -38.939836649999975 0
vertex 87.91065723676397 -111.59652974633458 0
vertex 87.51080004223505 -111.02540830631361 0
endloop
endfacet
facet normal 0 0 -1
outer loop
vertex 136.17542319999984 -38.939836649999975 0
vertex 87.51080004223505 -111.02540830631361 0
vertex 87.21618194574167 -110.39353359366362 0
endloop
endfacet
facet normal 0 0 -1
outer loop
vertex 136.17542319999984 -38.939836649999975 0
vertex 87.21618194574167 -110.39353359366362 0
vertex 87.0357531776021 -109.72010138854147 0
endloop
endfacet
facet normal 0 0 -1
outer loop
vertex 136.17542319999984 -38.939836649999975 0
vertex 87.0357531776021 -109.72010138854147 0
vertex 86.974995 -109.02556995000002 0
endloop
endfacet
facet normal 0 0 -1
outer loop
vertex 136.17542319999984 -38.939836649999975 0
vertex 86.974995 -109.02556995000002 0
vertex 86.975 -51.980730800000124 0
endloop
endfacet
facet normal 0 0 -1
outer loop
vertex 136.17542319999984 -38.939836649999975 0
vertex 86.975 -51.980730800000124 0
vertex 87.02935799443344 -51.32352273585515 0
endloop
endfacet
facet normal 0 0 -1
outer loop
vertex 136.17542319999984 -38.939836649999975 0
vertex 87.02935799443344 -51.32352273585515 0
vertex 87.19095934681046 -50.68417284699836 0
endloop
endfacet
facet normal 0 0 -1
outer loop
vertex 136.17542319999984 -38.939836649999975 0
vertex 87.19095934681046 -50.68417284699836 0
vertex 87.45541169927074 -50.08006339437448 0
endloop
endfacet
facet normal 0 0 -1
outer loop
vertex 136.17542319999984 -38.939836649999975 0
vertex 87.45541169927074 -50.08006339437448 0
vertex 87.81552718270343 -49.52761419665284 0
endloop
endfacet
facet normal 0 0 -1
outer loop
vertex 136.17542319999984 -38.939836649999975 0
vertex 87.81552718270343 -49.52761419665284 0
vertex 88.26151778450217 -49.041840936192166 0
endloop
endfacet
facet normal 0 0 -1
outer loop
vertex 136.17542319999984 -38.939836649999975 0
vertex 88.26151778450217 -49.041840936192166 0
vertex 88.78126138875231 -48.6359470297187 0
endloop
endfacet
facet normal 0 0 -1
outer loop
vertex 136.17542319999984 -38.939836649999975 0
vertex 88.78126138875231 -48.6359470297187 0
vertex 89.3606312578251 -48.32096475675441 0
endloop
endfacet
facet normal 0 0 -1
outer loop
vertex 136.17542319999984 -38.939836649999975 0
vertex 89.3606312578251 -48.32096475675441 0
vertex 89.98387999999997 -48.1054554 0
endloop
endfacet
facet normal 0 0 -1
outer loop
vertex 136.17542319999984 -38.939836649999975 0
vertex 89.98387999999997 -48.1054554 0
vertex 106.37012360000043 -43.91461029999989 0
endloop
endfacet
facet normal 0 0 -1
outer loop
vertex 136.17542319999984 -38.939836649999975 0
vertex 106.37012360000043 -43.91461029999989 0
vertex 106.52566524148412 -43.87812488911454 0
endloop
endfacet
facet normal 0 0 -1
outer loop
vertex 136.17542319999984 -38.939836649999975 0
vertex 106.52566524148412 -43.87812488911454 0
vertex 106.68254179999963 -43.84787515000007 0
endloop
endfacet
facet normal 0 0 -1
outer loop
vertex 136.17542319999984 -38.939836649999975 0
vertex 106.68254179999963 -43.84787515000007 0
vertex 135.0188664000001 -38.969193299999986 0
endloop
endfacet
facet normal 0 0 -1
outer loop
vertex 136.17542319999984 -38.939836649999975 0
vertex 135.0188664000001 -38.969193299999986 0
vertex 135.4028319950195 -38.92206779946001 0
endloop
endfacet
facet normal 0 0 -1
outer loop
vertex 136.17542319999984 -38.939836649999975 0
vertex 135.4028319950195 -38.92206779946001 0
vertex 135.78955771852304 -38.91225052474702 0
endloop
endfacet
facet normal 0 0 -1
outer loop
vertex 218.96085290329603 -113.03426730000002 0
vertex 218.9610028397166 -113.08896652862904 0
vertex 152.66482256469214 -113.08896652862904 0
endloop
endfacet
facet normal 0 0 -1
outer loop
vertex 218.96085290329603 -113.03426730000002 0
vertex 152.66482256469214 -113.08896652862904 0
vertex 152.0061355500027 -113.03426730000002 0
endloop
endfacet
facet normal 0 0 -1
outer loop
vertex 218.9610028397166 -113.08896652862904 0
vertex 218.96144805267093 -113.2513874073579 0
vertex 153.30550973257502 -113.2513874073579 0
endloop
endfacet
facet normal 0 0 -1
outer loop
vertex 218.9610028397166 -113.08896652862904 0
vertex 153.30550973257502 -113.2513874073579 0
vertex 152.66482256469214 -113.08896652862904 0
endloop
endfacet
facet normal 0 0 -1
outer loop
vertex 218.96144805267093 -113.2513874073579 0
vertex 218.96217638615948 -113.51709523114054 0
vertex 153.91070386780575 -113.51709523114054 0
endloop
endfacet
facet normal 0 0 -1
outer loop
vertex 218.96144805267093 -113.2513874073579 0
vertex 153.91070386780575 -113.51709523114054 0
vertex 153.30550973257502 -113.2513874073579 0
endloop
endfacet
facet normal 0 0 -1
outer loop
vertex 218.96217638615948 -113.51709523114054 0
vertex 218.96316795391996 -113.8788351702029 0
vertex 154.46388087873788 -113.8788351702029 0
endloop
endfacet
facet normal 0 0 -1
outer loop
vertex 218.96217638615948 -113.51709523114054 0
vertex 154.46388087873788 -113.8788351702029 0
vertex 153.91070386780575 -113.51709523114054 0
endloop
endfacet
facet normal 0 0 -1
outer loop
vertex 218.96316795391996 -113.8788351702029 0
vertex 218.96439568239762 -114.32673035436878 0
vertex 154.9499369381978 -114.32673035436878 0
endloop
endfacet
facet normal 0 0 -1
outer loop
vertex 218.96316795391996 -113.8788351702029 0
vertex 154.9499369381978 -114.32673035436878 0
vertex 154.46388087873788 -113.8788351702029 0
endloop
endfacet
facet normal 0 0 -1
outer loop
vertex 218.96439568239762 -114.32673035436878 0
vertex 218.96582604995587 -114.84855154901732 0
vertex 155.35560087516112 -114.84855154901732 0
endloop
endfacet
facet normal 0 0 -1
outer loop
vertex 218.96439568239762 -114.32673035436878 0
vertex 155.35560087516112 -114.84855154901732 0
vertex 154.9499369381978 -114.32673035436878 0
endloop
endfacet
facet normal 0 0 -1
outer loop
vertex 218.96582604995587 -114.84855154901732 0
vertex 218.96742000214377 -115.43005105949719 0
vertex 155.66979652797676 -115.43005105949719 0
endloop
endfacet
facet normal 0 0 -1
outer loop
vertex 218.96582604995587 -114.84855154901732 0
vertex 155.66979652797676 -115.43005105949719 0
vertex 155.35560087516112 -114.84855154901732 0
endloop
endfacet
facet normal 0 0 -1
outer loop
vertex 218.96742000214377 -115.43005105949719 0
vertex 218.96913401803067 -116.05535174714547 0
vertex 155.88394516552438 -116.05535174714547 0
endloop
endfacet
facet normal 0 0 -1
outer loop
vertex 218.96742000214377 -115.43005105949719 0
vertex 155.88394516552438 -116.05535174714547 0
vertex 155.66979652797676 -115.43005105949719 0
endloop
endfacet
facet normal 0 0 -1
outer loop
vertex 218.96913401803067 -116.05535174714547 0
vertex 218.97092129849216 -116.70738053529489 0
vertex 155.99219971905882 -116.70738053529489 0
endloop
endfacet
facet normal 0 0 -1
outer loop
vertex 218.96913401803067 -116.05535174714547 0
vertex 155.99219971905882 -116.70738053529489 0
vertex 155.88394516552438 -116.05535174714547 0
endloop
endfacet
facet normal 0 0 -1
outer loop
vertex 218.97092129849216 -116.70738053529489 0
vertex 218.9727330440036 -117.36833456892114 0
vertex 155.9916044293294 -117.36833456892114 0
endloop
endfacet
facet normal 0 0 -1
outer loop
vertex 218.97092129849216 -116.70738053529489 0
vertex 155.9916044293294 -117.36833456892114 0
vertex 155.99219971905882 -116.70738053529489 0
endloop
endfacet
facet normal 0 0 -1
outer loop
vertex 218.9727330440036 -117.36833456892114 0
vertex 218.97451977965076 -118.02016460000034 0
vertex 155.8821710999999 -118.02016460000034 0
endloop
endfacet
facet normal 0 0 -1
outer loop
vertex 218.9727330440036 -117.36833456892114 0
vertex 155.8821710999999 -118.02016460000034 0
vertex 155.9916044293294 -117.36833456892114 0
endloop
endfacet
facet normal 0 0 -1
outer loop
vertex 218.97451977965076 -118.02016460000034 0
vertex 218.98701749999998 -122.57953489999983 0
vertex 154.72263357490883 -122.57953489999983 0
endloop
endfacet
facet normal 0 0 -1
outer loop
vertex 218.97451977965076 -118.02016460000034 0
vertex 154.72263357490883 -122.57953489999983 0
vertex 155.8821710999999 -118.02016460000034 0
endloop
endfacet
facet normal 0 0 -1
outer loop
vertex 218.98701749999998 -122.57953489999983 0
vertex 219.03182564346375 -123.16570575277771 0
vertex 154.57355880028246 -123.16570575277771 0
endloop
endfacet
facet normal 0 0 -1
outer loop
vertex 218.98701749999998 -122.57953489999983 0
vertex 154.57355880028246 -123.16570575277771 0
vertex 154.72263357490883 -122.57953489999983 0
endloop
endfacet
facet normal 0 0 -1
outer loop
vertex 219.03182564346375 -123.16570575277771 0
vertex 219.16206461509117 -123.73897597453382 0
vertex 154.42776490980955 -123.73897597453382 0
endloop
endfacet
facet normal 0 0 -1
outer loop
vertex 219.03182564346375 -123.16570575277771 0
vertex 154.42776490980955 -123.73897597453382 0
vertex 154.57355880028246 -123.16570575277771 0
endloop
endfacet
facet normal 0 0 -1
outer loop
vertex 219.16206461509117 -123.73897597453382 0
vertex 219.37492249546915 -124.28696544491115 0
vertex 154.28840041154598 -124.28696544491115 0
endloop
endfacet
facet normal 0 0 -1
outer loop
vertex 219.16206461509117 -123.73897597453382 0
vertex 154.28840041154598 -124.28696544491115 0
vertex 154.42776490980955 -123.73897597453382 0
endloop
endfacet
facet normal 0 0 -1
outer loop
vertex 219.37492249546915 -124.28696544491115 0
vertex 219.66580154191726 -124.79783755926108 0
vertex 154.15847558681492 -124.79783755926108 0
endloop
endfacet
facet normal 0 0 -1
outer loop
vertex 219.37492249546915 -124.28696544491115 0
vertex 154.15847558681492 -124.79783755926108 0
vertex 154.28840041154598 -124.28696544491115 0
endloop
endfacet
facet normal 0 0 -1
outer loop
vertex 219.66580154191726 -124.79783755926108 0
vertex 220.02841875000004 -125.26055745000006 0
vertex 154.0407968194382 -125.26055745000006 0
endloop
endfacet
facet normal 0 0 -1
outer loop
vertex 219.66580154191726 -124.79783755926108 0
vertex 154.0407968194382 -125.26055745000006 0
vertex 154.15847558681492 -124.79783755926108 0
endloop
endfacet
facet normal 0 0 -1
outer loop
vertex 220.02841875000004 -125.26055745000006 0
vertex 236.33414930000006 -143.18110950000002 0
vertex 236.72262773212103 -143.6828501761715 0
endloop
endfacet
facet normal 0 0 -1
outer loop
vertex 220.02841875000004 -125.26055745000006 0
vertex 236.72262773212103 -143.6828501761715 0
vertex 237.02687300744978 -144.23971056081365 0
endloop
endfacet
facet normal 0 0 -1
outer loop
vertex 220.02841875000004 -125.26055745000006 0
vertex 237.02687300744978 -144.23971056081365 0
vertex 237.23922878851067 -144.83767686236678 0
endloop
endfacet
facet normal 0 0 -1
outer loop
vertex 220.02841875000004 -125.26055745000006 0
vertex 237.23922878851067 -144.83767686236678 0
vertex 237.35435089420744 -145.46170056089443 0
endloop
endfacet
facet normal 0 0 -1
outer loop
vertex 220.02841875000004 -125.26055745000006 0
vertex 237.35435089420744 -145.46170056089443 0
vertex 237.3693421423769 -146.09607737164757 0
endloop
endfacet
facet normal 0 0 -1
outer loop
vertex 220.02841875000004 -125.26055745000006 0
vertex 237.3693421423769 -146.09607737164757 0
vertex 237.28382526076098 -146.72484246172618 0
endloop
endfacet
facet normal 0 0 -1
outer loop
vertex 220.02841875000004 -125.26055745000006 0
vertex 237.28382526076098 -146.72484246172618 0
vertex 237.0999523815023 -147.33217222373148 0
endloop
endfacet
facet normal 0 0 -1
outer loop
vertex 220.02841875000004 -125.26055745000006 0
vertex 237.0999523815023 -147.33217222373148 0
vertex 236.82235088022833 -147.90278249531255 0
endloop
endfacet
facet normal 0 0 -1
outer loop
vertex 220.02841875000004 -125.26055745000006 0
vertex 236.82235088022833 -147.90278249531255 0
vertex 236.45800692274082 -148.4223132029571 0
endloop
endfacet
facet normal 0 0 -1
outer loop
vertex 220.02841875000004 -125.26055745000006 0
vertex 236.45800692274082 -148.4223132029571 0
vertex 236.01608964999986 -148.87768975000012 0
endloop
endfacet
facet normal 0 0 -1
outer loop
vertex 220.02841875000004 -125.26055745000006 0
vertex 236.01608964999986 -148.87768975000012 0
vertex 214.2090692999999 -168.04233140000014 0
endloop
endfacet
facet normal 0 0 -1
outer loop
vertex 220.02841875000004 -125.26055745000006 0
vertex 214.2090692999999 -168.04233140000014 0
vertex 213.69011266036526 -168.42874424560964 0
endloop
endfacet
facet normal 0 0 -1
outer loop
vertex 220.02841875000004 -125.26055745000006 0
vertex 213.69011266036526 -168.42874424560964 0
vertex 213.1156464882164 -168.7264295463354 0
endloop
endfacet
facet normal 0 0 -1
outer loop
vertex 220.02841875000004 -125.26055745000006 0
vertex 213.1156464882164 -168.7264295463354 0
vertex 212.50070160726978 -168.92760289101335 0
endloop
endfacet
facet normal 0 0 -1
outer loop
vertex 220.02841875000004 -125.26055745000006 0
vertex 212.50070160726978 -168.92760289101335 0
vertex 211.8613675860983 -169.0270007309507 0
endloop
endfacet
facet normal 0 0 -1
outer loop
vertex 220.02841875000004 -125.26055745000006 0
vertex 211.8613675860983 -169.0270007309507 0
vertex 211.2143721167177 -169.0220223967033 0
endloop
endfacet
facet normal 0 0 -1
outer loop
vertex 220.02841875000004 -125.26055745000006 0
vertex 211.2143721167177 -169.0220223967033 0
vertex 210.57664334715074 -168.91279814262847 0
endloop
endfacet
facet normal 0 0 -1
outer loop
vertex 220.02841875000004 -125.26055745000006 0
vertex 210.57664334715074 -168.91279814262847 0
vertex 209.96486696921693 -168.70218573887814 0
endloop
endfacet
facet normal 0 0 -1
outer loop
vertex 220.02841875000004 -125.26055745000006 0
vertex 209.96486696921693 -168.70218573887814 0
vertex 209.39504965 -168.39569570000003 0
endloop
endfacet
facet normal 0 0 -1
outer loop
vertex 220.02841875000004 -125.26055745000006 0
vertex 209.39504965 -168.39569570000003 0
vertex 154.85623690000006 -133.09476490000006 0
endloop
endfacet
facet normal 0 0 -1
outer loop
vertex 220.02841875000004 -125.26055745000006 0
vertex 154.85623690000006 -133.09476490000006 0
vertex 154.36188077114232 -132.71716554270063 0
endloop
endfacet
facet normal 0 0 -1
outer loop
vertex 220.02841875000004 -125.26055745000006 0
vertex 154.36188077114232 -132.71716554270063 0
vertex 153.93205070678175 -132.2674877566498 0
endloop
endfacet
facet normal 0 0 -1
outer loop
vertex 220.02841875000004 -125.26055745000006 0
vertex 153.93205070678175 -132.2674877566498 0
vertex 153.57713880436128 -131.75660466139587 0
endloop
endfacet
facet normal 0 0 -1
outer loop
vertex 220.02841875000004 -125.26055745000006 0
vertex 153.57713880436128 -131.75660466139587 0
vertex 153.3057286968692 -131.19687209217471 0
endloop
endfacet
facet normal 0 0 -1
outer loop
vertex 220.02841875000004 -125.26055745000006 0
vertex 153.3057286968692 -131.19687209217471 0
vertex 153.12438450553117 -130.60182732094827 0
endloop
endfacet
facet normal 0 0 -1
outer loop
vertex 220.02841875000004 -125.26055745000006 0
vertex 153.12438450553117 -130.60182732094827 0
vertex 153.03749208489984 -129.985861654103 0
endloop
endfacet
facet normal 0 0 -1
outer loop
vertex 220.02841875000004 -125.26055745000006 0
vertex 153.03749208489984 -129.985861654103 0
vertex 153.04715294986667 -129.36387237510826 0
endloop
endfacet
facet normal 0 0 -1
outer loop
vertex 220.02841875000004 -125.26055745000006 0
vertex 153.04715294986667 -129.36387237510826 0
vertex 153.1531334499999 -128.7509024500005 0
endloop
endfacet
facet normal 0 0 -1
outer loop
vertex 220.02841875000004 -125.26055745000006 0
vertex 153.1531334499999 -128.7509024500005 0
vertex 154.0407968194382 -125.26055745000006 0
endloop
endfacet
facet normal 0 0 1
outer loop
vertex 212.50070160726978 -168.92760289101335 1
vertex 213.11564648821647 -168.7264295463354 1
vertex 213.690112660365 -168.4287442456098 1
endloop
endfacet
facet normal 0 0 1
outer loop
vertex 212.50070160726978 -168.92760289101335 1
vertex 213.690112660365 -168.4287442456098 1
vertex 214.20906930000004 -168.0423314 1
endloop
endfacet
facet normal 0 0 1
outer loop
vertex 212.50070160726978 -168.92760289101335 1
vertex 214.20906930000004 -168.0423314 1
vertex 236.01608965000023 -148.87768974999977 1
endloop
endfacet
facet normal 0 0 1
outer loop
vertex 212.50070160726978 -168.92760289101335 1
vertex 236.01608965000023 -148.87768974999977 1
vertex 236.4580069227408 -148.42231320295718 1
endloop
endfacet
facet normal 0 0 1
outer loop
vertex 212.50070160726978 -168.92760289101335 1
vertex 236.4580069227408 -148.42231320295718 1
vertex 236.82235088022827 -147.90278249531266 1
endloop
endfacet
facet normal 0 0 1
outer loop
vertex 212.50070160726978 -168.92760289101335 1
vertex 236.82235088022827 -147.90278249531266 1
vertex 237.09995238150233 -147.33217222373142 1
endloop
endfacet
facet normal 0 0 1
outer loop
vertex 212.50070160726978 -168.92760289101335 1
vertex 237.09995238150233 -147.33217222373142 1
vertex 237.28382526076095 -146.72484246172633 1
endloop
endfacet
facet normal 0 0 1
outer loop
vertex 212.50070160726978 -168.92760289101335 1
vertex 237.28382526076095 -146.72484246172633 1
vertex 237.3693421423769 -146.09607737164745 1
endloop
endfacet
facet normal 0 0 1
outer loop
vertex 212.50070160726978 -168.92760289101335 1
vertex 237.3693421423769 -146.09607737164745 1
vertex 237.35435089420744 -145.46170056089446 1
endloop
endfacet
facet normal 0 0 1
outer loop
vertex 212.50070160726978 -168.92760289101335 1
vertex 237.35435089420744 -145.46170056089446 1
vertex 237.23922878851067 -144.8376768623668 1
endloop
endfacet
facet normal 0 0 1
outer loop
vertex 212.50070160726978 -168.92760289101335 1
vertex 237.23922878851067 -144.8376768623668 1
vertex 237.02687300744975 -144.23971056081356 1
endloop
endfacet
facet normal 0 0 1
outer loop
vertex 212.50070160726978 -168.92760289101335 1
vertex 237.02687300744975 -144.23971056081356 1
vertex 236.7226277321211 -143.68285017617166 1
endloop
endfacet
facet normal 0 0 1
outer loop
vertex 212.50070160726978 -168.92760289101335 1
vertex 236.7226277321211 -143.68285017617166 1
vertex 236.3341493 -143.1811095 1
endloop
endfacet
facet normal 0 0 1
outer loop
vertex 212.50070160726978 -168.92760289101335 1
vertex 236.3341493 -143.1811095 1
vertex 220.02841875000007 -125.26055745000009 1
endloop
endfacet
facet normal 0 0 1
outer loop
vertex 212.50070160726978 -168.92760289101335 1
vertex 220.02841875000007 -125.26055745000009 1
vertex 154.04079681943819 -125.26055745000009 1
endloop
endfacet
facet normal 0 0 1
outer loop
vertex 212.50070160726978 -168.92760289101335 1
vertex 154.04079681943819 -125.26055745000009 1
vertex 153.15313345000004 -128.75090244999973 1
endloop
endfacet
facet normal 0 0 1
outer loop
vertex 212.50070160726978 -168.92760289101335 1
vertex 153.15313345000004 -128.75090244999973 1
vertex 153.04715294986667 -129.36387237510817 1
endloop
endfacet
facet normal 0 0 1
outer loop
vertex 212.50070160726978 -168.92760289101335 1
vertex 153.04715294986667 -129.36387237510817 1
vertex 153.03749208489984 -129.98586165410288 1
endloop
endfacet
facet normal 0 0 1
outer loop
vertex 212.50070160726978 -168.92760289101335 1
vertex 153.03749208489984 -129.98586165410288 1
vertex 153.1243845055312 -130.60182732094836 1
endloop
endfacet
facet normal 0 0 1
outer loop
vertex 212.50070160726978 -168.92760289101335 1
vertex 153.1243845055312 -130.60182732094836 1
vertex 153.30572869686924 -131.19687209217474 1
endloop
endfacet
facet normal 0 0 1
outer loop
vertex 212.50070160726978 -168.92760289101335 1
vertex 153.30572869686924 -131.19687209217474 1
vertex 153.57713880436137 -131.756604661396 1
endloop
endfacet
facet normal 0 0 1
outer loop
vertex 212.50070160726978 -168.92760289101335 1
vertex 153.57713880436137 -131.756604661396 1
vertex 153.9320507067817 -132.26748775664973 1
endloop
endfacet
facet normal 0 0 1
outer loop
vertex 212.50070160726978 -168.92760289101335 1
vertex 153.9320507067817 -132.26748775664973 1
vertex 154.3618807711424 -132.71716554270068 1
endloop
endfacet
facet normal 0 0 1
outer loop
vertex 212.50070160726978 -168.92760289101335 1
vertex 154.3618807711424 -132.71716554270068 1
vertex 154.85623689999997 -133.09476489999997 1
endloop
endfacet
facet normal 0 0 1
outer loop
vertex 212.50070160726978 -168.92760289101335 1
vertex 154.85623689999997 -133.09476489999997 1
vertex 209.39504964999983 -168.39569569999992 1
endloop
endfacet
facet normal 0 0 1
outer loop
vertex 212.50070160726978 -168.92760289101335 1
vertex 209.39504964999983 -168.39569569999992 1
vertex 209.96486696921707 -168.7021857388782 1
endloop
endfacet
facet normal 0 0 1
outer loop
vertex 212.50070160726978 -168.92760289101335 1
vertex 209.96486696921707 -168.7021857388782 1
vertex 210.57664334715082 -168.91279814262853 1
endloop
endfacet
facet normal 0 0 1
outer loop
vertex 212.50070160726978 -168.92760289101335 1
vertex 210.57664334715082 -168.91279814262853 1
vertex 211.2143721167174 -169.02202239670328 1
endloop
endfacet
facet normal 0 0 1
outer loop
vertex 212.50070160726978 -168.92760289101335 1
vertex 211.2143721167174 -169.02202239670328 1
vertex 211.86136758609857 -169.02700073095068 1
endloop
endfacet
facet normal 0 0 1
outer loop
vertex 220.02841875000007 -125.26055745000009 1
vertex 219.66580154191735 -124.79783755926117 1
vertex 154.15847558681486 -124.79783755926117 1
endloop
endfacet
facet normal 0 0 1
outer loop
vertex 220.02841875000007 -125.26055745000009 1
vertex 154.15847558681486 -124.79783755926117 1
vertex 154.04079681943819 -125.26055745000009 1
endloop
endfacet
facet normal 0 0 1
outer loop
vertex 219.66580154191735 -124.79783755926117 1
vertex 219.37492249546912 -124.2869654449111 1
vertex 154.28840041154595 -124.2869654449111 1
endloop
endfacet
facet normal 0 0 1
outer loop
vertex 219.66580154191735 -124.79783755926117 1
vertex 154.28840041154595 -124.2869654449111 1
vertex 154.15847558681486 -124.79783755926117 1
endloop
endfacet
facet normal 0 0 1
outer loop
vertex 219.37492249546912 -124.2869654449111 1
vertex 219.1620646150912 -123.73897597453377 1
vertex 154.42776490980953 -123.73897597453377 1
endloop
endfacet
facet normal 0 0 1
outer loop
vertex 219.37492249546912 -124.2869654449111 1
vertex 154.42776490980953 -123.73897597453377 1
vertex 154.28840041154595 -124.2869654449111 1
endloop
endfacet
facet normal 0 0 1
outer loop
vertex 219.1620646150912 -123.73897597453377 1
vertex 219.03182564346372 -123.16570575277763 1
vertex 154.57355880028243 -123.16570575277763 1
endloop
endfacet
facet normal 0 0 1
outer loop
vertex 219.1620646150912 -123.73897597453377 1
vertex 154.57355880028243 -123.16570575277763 1
vertex 154.42776490980953 -123.73897597453377 1
endloop
endfacet
facet normal 0 0 1
outer loop
vertex 219.03182564346372 -123.16570575277763 1
vertex 218.9870175 -122.5795349000003 1
vertex 154.72263357490868 -122.5795349000003 1
endloop
endfacet
facet normal 0 0 1
outer loop
vertex 219.03182564346372 -123.16570575277763 1
vertex 154.72263357490868 -122.5795349000003 1
vertex 154.57355880028243 -123.16570575277763 1
endloop
endfacet
facet normal 0 0 1
outer loop
vertex 218.9870175 -122.5795349000003 1
vertex 218.97451977965076 -118.02016460000047 1
vertex 155.8821710999999 -118.02016460000047 1
endloop
endfacet
facet normal 0 0 1
outer loop
vertex 218.9870175 -122.5795349000003 1
vertex 155.8821710999999 -118.02016460000047 1
vertex 154.72263357490868 -122.5795349000003 1
endloop
endfacet
facet normal 0 0 1
outer loop
vertex 218.97451977965076 -118.02016460000047 1
vertex 218.9727330440036 -117.36833456892126 1
vertex 155.9916044293294 -117.36833456892126 1
endloop
endfacet
facet normal 0 0 1
outer loop
vertex 218.97451977965076 -118.02016460000047 1
vertex 155.9916044293294 -117.36833456892126 1
vertex 155.8821710999999 -118.02016460000047 1
endloop
endfacet
facet normal 0 0 1
outer loop
vertex 218.9727330440036 -117.36833456892126 1
vertex 218.97092129849216 -116.70738053529494 1
vertex 155.99219971905882 -116.70738053529494 1
endloop
endfacet
facet normal 0 0 1
outer loop
vertex 218.9727330440036 -117.36833456892126 1
vertex 155.99219971905882 -116.70738053529494 1
vertex 155.9916044293294 -117.36833456892126 1
endloop
endfacet
facet normal 0 0 1
outer loop
vertex 218.97092129849216 -116.70738053529494 1
vertex 218.96913401803067 -116.05535174714545 1
vertex 155.88394516552438 -116.05535174714545 1
endloop
endfacet
facet normal 0 0 1
outer loop
vertex 218.97092129849216 -116.70738053529494 1
vertex 155.88394516552438 -116.05535174714545 1
vertex 155.99219971905882 -116.70738053529494 1
endloop
endfacet
facet normal 0 0 1
outer loop
vertex 218.96913401803067 -116.05535174714545 1
vertex 218.96742000214377 -115.43005105949712 1
vertex 155.66979652797676 -115.43005105949712 1
endloop
endfacet
facet normal 0 0 1
outer loop
vertex 218.96913401803067 -116.05535174714545 1
vertex 155.66979652797676 -115.43005105949712 1
vertex 155.88394516552438 -116.05535174714545 1
endloop
endfacet
facet normal 0 0 1
outer loop
vertex 218.96742000214377 -115.43005105949712 1
vertex 218.96582604995587 -114.84855154901729 1
vertex 155.35560087516112 -114.84855154901729 1
endloop
endfacet
facet normal 0 0 1
outer loop
vertex 218.96742000214377 -115.43005105949712 1
vertex 155.35560087516112 -114.84855154901729 1
vertex 155.66979652797676 -115.43005105949712 1
endloop
endfacet
facet normal 0 0 1
outer loop
vertex 218.96582604995587 -114.84855154901729 1
vertex 218.96439568239762 -114.3267303543688 1
vertex 154.94993693819782 -114.3267303543688 1
endloop
endfacet
facet normal 0 0 1
outer loop
vertex 218.96582604995587 -114.84855154901729 1
vertex 154.94993693819782 -114.3267303543688 1
vertex 155.35560087516112 -114.84855154901729 1
endloop
endfacet
facet normal 0 0 1
outer loop
vertex 218.96439568239762 -114.3267303543688 1
vertex 218.96316795391996 -113.87883517020292 1
vertex 154.46388087873788 -113.87883517020292 1
endloop
endfacet
facet normal 0 0 1
outer loop
vertex 218.96439568239762 -114.3267303543688 1
vertex 154.46388087873788 -113.87883517020292 1
vertex 154.94993693819782 -114.3267303543688 1
endloop
endfacet
facet normal 0 0 1
outer loop
vertex 218.96316795391996 -113.87883517020292 1
vertex 218.96217638615948 -113.51709523114053 1
vertex 153.9107038678057 -113.51709523114053 1
endloop
endfacet
facet normal 0 0 1
outer loop
vertex 218.96316795391996 -113.87883517020292 1
vertex 153.9107038678057 -113.51709523114053 1
vertex 154.46388087873788 -113.87883517020292 1
endloop
endfacet
facet normal 0 0 1
outer loop
vertex 218.96217638615948 -113.51709523114053 1
vertex 218.96144805267093 -113.25138740735792 1
vertex 153.30550973257508 -113.25138740735792 1
endloop
endfacet
facet normal 0 0 1
outer loop
vertex 218.96217638615948 -113.51709523114053 1
vertex 153.30550973257508 -113.25138740735792 1
vertex 153.9107038678057 -113.51709523114053 1
endloop
endfacet
facet normal 0 0 1
outer loop
vertex 218.96144805267093 -113.25138740735792 1
vertex 218.9610028397166 -113.08896652862903 1
vertex 152.66482256469206 -113.08896652862903 1
endloop
endfacet
facet normal 0 0 1
outer loop
vertex 218.96144805267093 -113.25138740735792 1
vertex 152.66482256469206 -113.08896652862903 1
vertex 153.30550973257508 -113.25138740735792 1
endloop
endfacet
facet normal 0 0 1
outer loop
vertex 218.9610028397166 -113.08896652862903 1
vertex 218.96085290329603 -113.03426730000001 1
vertex 152.00613555000018 -113.03426730000001 1
endloop
endfacet
facet normal 0 0 1
outer loop
vertex 218.9610028397166 -113.08896652862903 1
vertex 152.00613555000018 -113.03426730000001 1
vertex 152.66482256469206 -113.08896652862903 1
endloop
endfacet
facet normal 0 0 1
outer loop
vertex 218.96085290329603 -113.03426730000001 1
vertex 218.79469654999994 -52.41774514999966 1
vertex 218.74125823604328 -51.776974653369635 1
endloop
endfacet
facet normal 0 0 1
outer loop
vertex 218.96085290329603 -113.03426730000001 1
vertex 218.74125823604328 -51.776974653369635 1
vertex 218.58584054464444 -51.15304531125568 1
endloop
endfacet
facet normal 0 0 1
outer loop
vertex 218.96085290329603 -113.03426730000001 1
vertex 218.58584054464444 -51.15304531125568 1
vertex 218.33245949306567 -50.56207955467464 1
endloop
endfacet
facet normal 0 0 1
outer loop
vertex 218.96085290329603 -113.03426730000001 1
vertex 218.33245949306567 -50.56207955467464 1
vertex 217.98766248699752 -50.01934803047814 1
endloop
endfacet
facet normal 0 0 1
outer loop
vertex 218.96085290329603 -113.03426730000001 1
vertex 217.98766248699752 -50.01934803047814 1
vertex 217.56035913457916 -49.53887500546746 1
endloop
endfacet
facet normal 0 0 1
outer loop
vertex 218.96085290329603 -113.03426730000001 1
vertex 217.56035913457916 -49.53887500546746 1
vertex 217.0615910207431 -49.13307597716545 1
endloop
endfacet
facet normal 0 0 1
outer loop
vertex 218.96085290329603 -113.03426730000001 1
vertex 217.0615910207431 -49.13307597716545 1
vertex 216.50424639094567 -48.8124368554319 1
endloop
endfacet
facet normal 0 0 1
outer loop
vertex 218.96085290329603 -113.03426730000001 1
vertex 216.50424639094567 -48.8124368554319 1
vertex 215.90272711690434 -48.58524300492626 1
endloop
endfacet
facet normal 0 0 1
outer loop
vertex 218.96085290329603 -113.03426730000001 1
vertex 215.90272711690434 -48.58524300492626 1
vertex 215.2725730999999 -48.45736029999998 1
endloop
endfacet
facet normal 0 0 1
outer loop
vertex 218.96085290329603 -113.03426730000001 1
vertex 215.2725730999999 -48.45736029999998 1
vertex 136.17542320000004 -38.939836650000004 1
endloop
endfacet
facet normal 0 0 1
outer loop
vertex 218.96085290329603 -113.03426730000001 1
vertex 136.17542320000004 -38.939836650000004 1
vertex 135.78955771852304 -38.91225052474702 1
endloop
endfacet
facet normal 0 0 1
outer loop
vertex 218.96085290329603 -113.03426730000001 1
vertex 135.78955771852304 -38.91225052474702 1
vertex 135.40283199501943 -38.922067799460024 1
endloop
endfacet
facet normal 0 0 1
outer loop
vertex 218.96085290329603 -113.03426730000001 1
vertex 135.40283199501943 -38.922067799460024 1
vertex 135.0188664000002 -38.96919329999997 1
endloop
endfacet
facet normal 0 0 1
outer loop
vertex 218.96085290329603 -113.03426730000001 1
vertex 135.0188664000002 -38.96919329999997 1
vertex 106.6825418 -43.84787515000001 1
endloop
endfacet
facet normal 0 0 1
outer loop
vertex 218.96085290329603 -113.03426730000001 1
vertex 106.6825418 -43.84787515000001 1
vertex 106.52566524148419 -43.87812488911453 1
endloop
endfacet
facet normal 0 0 1
outer loop
vertex 218.96085290329603 -113.03426730000001 1
vertex 106.52566524148419 -43.87812488911453 1
vertex 106.37012360000003 -43.91461029999999 1
endloop
endfacet
facet normal 0 0 1
outer loop
vertex 218.96085290329603 -113.03426730000001 1
vertex 106.37012360000003 -43.91461029999999 1
vertex 89.98388000000008 -48.10545539999996 1
endloop
endfacet
facet normal 0 0 1
outer loop
vertex 218.96085290329603 -113.03426730000001 1
vertex 89.98388000000008 -48.10545539999996 1
vertex 89.3606312578251 -48.320964756754414 1
endloop
endfacet
facet normal 0 0 1
outer loop
vertex 218.96085290329603 -113.03426730000001 1
vertex 89.3606312578251 -48.320964756754414 1
vertex 88.78126138875233 -48.6359470297187 1
endloop
endfacet
facet normal 0 0 1
outer loop
vertex 218.96085290329603 -113.03426730000001 1
vertex 88.78126138875233 -48.6359470297187 1
vertex 88.26151778450208 -49.04184093619225 1
endloop
endfacet
facet normal 0 0 1
outer loop
vertex 218.96085290329603 -113.03426730000001 1
vertex 88.26151778450208 -49.04184093619225 1
vertex 87.81552718270343 -49.52761419665281 1
endloop
endfacet
facet normal 0 0 1
outer loop
vertex 218.96085290329603 -113.03426730000001 1
vertex 87.81552718270343 -49.52761419665281 1
vertex 87.45541169927071 -50.080063394374484 1
endloop
endfacet
facet normal 0 0 1
outer loop
vertex 218.96085290329603 -113.03426730000001 1
vertex 87.45541169927071 -50.080063394374484 1
vertex 87.19095934681049 -50.68417284699823 1
endloop
endfacet
facet normal 0 0 1
outer loop
vertex 218.96085290329603 -113.03426730000001 1
vertex 87.19095934681049 -50.68417284699823 1
vertex 87.02935799443344 -51.32352273585512 1
endloop
endfacet
facet normal 0 0 1
outer loop
vertex 218.96085290329603 -113.03426730000001 1
vertex 87.02935799443344 -51.32352273585512 1
vertex 86.975 -51.98073079999998 1
endloop
endfacet
facet normal 0 0 1
outer loop
vertex 218.96085290329603 -113.03426730000001 1
vertex 86.975 -51.98073079999998 1
vertex 86.974995 -109.02556994999999 1
endloop
endfacet
facet normal 0 0 1
outer loop
vertex 218.96085290329603 -113.03426730000001 1
vertex 86.974995 -109.02556994999999 1
vertex 87.0357531776021 -109.72010138854142 1
endloop
endfacet
facet normal 0 0 1
outer loop
vertex 218.96085290329603 -113.03426730000001 1
vertex 87.0357531776021 -109.72010138854142 1
vertex 87.2161819457417 -110.3935335936637 1
endloop
endfacet
facet normal 0 0 1
outer loop
vertex 218.96085290329603 -113.03426730000001 1
vertex 87.2161819457417 -110.3935335936637 1
vertex 87.51080004223506 -111.02540830631366 1
endloop
endfacet
facet normal 0 0 1
outer loop
vertex 218.96085290329603 -113.03426730000001 1
vertex 87.51080004223506 -111.02540830631366 1
vertex 87.91065723676388 -111.59652974633451 1
endloop
endfacet
facet normal 0 0 1
outer loop
vertex 218.96085290329603 -113.03426730000001 1
vertex 87.91065723676388 -111.59652974633451 1
vertex 88.403606230747 -112.08954776283996 1
endloop
endfacet
facet normal 0 0 1
outer loop
vertex 218.96085290329603 -113.03426730000001 1
vertex 88.403606230747 -112.08954776283996 1
vertex 88.97467168124432 -112.48948491604827 1
endloop
endfacet
facet normal 0 0 1
outer loop
vertex 218.96085290329603 -113.03426730000001 1
vertex 88.97467168124432 -112.48948491604827 1
vertex 89.60650513828044 -112.78419147830618 1
endloop
endfacet
facet normal 0 0 1
outer loop
vertex 218.96085290329603 -113.03426730000001 1
vertex 89.60650513828044 -112.78419147830618 1
vertex 90.27991207500622 -112.96471453178563 1
endloop
endfacet
facet normal 0 0 1
outer loop
vertex 218.96085290329603 -113.03426730000001 1
vertex 90.27991207500622 -112.96471453178563 1
vertex 90.97443000000007 -113.0255699 1
endloop
endfacet
facet normal 0 0 1
outer loop
vertex 218.96085290329603 -113.03426730000001 1
vertex 90.97443000000007 -113.0255699 1
vertex 152.00613555000018 -113.03426730000001 1
endloop
endfacet
facet normal -0.9961953767462175 -0.08714798534367674 0
outer loop
vertex 87.0357531776021 -109.72010138854142 1
vertex 86.974995 -109.02556994999999 1
vertex 86.974995 -109.02556995000002 0
endloop
endfacet
facet normal -0.9961953767462175 -0.08714798534367674 0
outer loop
vertex 87.0357531776021 -109.72010138854142 1
vertex 86.974995 -109.02556995000002 0
vertex 87.0357531776021 -109.72010138854147 0
endloop
endfacet
facet normal -0.9659318672507005 -0.25879649887426115 0
outer loop
vertex 87.2161819457417 -110.3935335936637 1
vertex 87.0357531776021 -109.72010138854142 1
vertex 87.0357531776021 -109.72010138854147 0
endloop
endfacet
facet normal -0.9659318672507005 -0.25879649887426115 0
outer loop
vertex 87.2161819457417 -110.3935335936637 1
vertex 87.0357531776021 -109.72010138854147 0
vertex 87.21618194574167 -110.39353359366362 0
endloop
endfacet
facet normal -0.9063242244969474 -0.4225830097034271 0
outer loop
vertex 87.51080004223506 -111.02540830631366 1
vertex 87.2161819457417 -110.3935335936637 1
vertex 87.21618194574167 -110.39353359366362 0
endloop
endfacet
facet normal -0.9063242244969474 -0.4225830097034271 0
outer loop
vertex 87.51080004223506 -111.02540830631366 1
vertex 87.21618194574167 -110.39353359366362 0
vertex 87.51080004223505 -111.02540830631361 0
endloop
endfacet
facet normal -0.8191832745602445 -0.5735318323168777 0
outer loop
vertex 87.91065723676388 -111.59652974633451 1
vertex 87.51080004223506 -111.02540830631366 1
vertex 87.51080004223505 -111.02540830631361 0
endloop
endfacet
facet normal -0.8191832745602445 -0.5735318323168777 0
outer loop
vertex 87.91065723676388 -111.59652974633451 1
vertex 87.51080004223505 -111.02540830631361 0
vertex 87.91065723676397 -111.59652974633458 0
endloop
endfacet
facet normal -0.7071562803935252 -0.7070572785142617 0
outer loop
vertex 88.403606230747 -112.08954776283996 1
vertex 87.91065723676388 -111.59652974633451 1
vertex 87.91065723676397 -111.59652974633458 0
endloop
endfacet
facet normal -0.7071562803935252 -0.7070572785142617 0
outer loop
vertex 88.403606230747 -112.08954776283996 1
vertex 87.91065723676397 -111.59652974633458 0
vertex 88.40360623074709 -112.08954776284003 0
endloop
endfacet
facet normal -0.5736465203818999 -0.8191029664539974 0
outer loop
vertex 88.97467168124432 -112.48948491604827 1
vertex 88.403606230747 -112.08954776283996 1
vertex 88.40360623074709 -112.08954776284003 0
endloop
endfacet
facet normal -0.5736465203818999 -0.8191029664539974 0
outer loop
vertex 88.97467168124432 -112.48948491604827 1
vertex 88.40360623074709 -112.08954776284003 0
vertex 88.97467168124433 -112.4894849160483 0
endloop
endfacet
facet normal -0.422709899834949 -0.9062650498510507 0
outer loop
vertex 89.60650513828044 -112.78419147830618 1
vertex 88.97467168124432 -112.48948491604827 1
vertex 88.97467168124433 -112.4894849160483 0
endloop
endfacet
facet normal -0.422709899834949 -0.9062650498510507 0
outer loop
vertex 89.60650513828044 -112.78419147830618 1
vertex 88.97467168124433 -112.4894849160483 0
vertex 89.60650513828026 -112.78419147830613 0
endloop
endfacet
facet normal -0.2589317362652536 -0.965895623737193 0
outer loop
vertex 90.27991207500622 -112.96471453178563 1
vertex 89.60650513828044 -112.78419147830618 1
vertex 89.60650513828026 -112.78419147830613 0
endloop
endfacet
facet normal -0.2589317362652536 -0.965895623737193 0
outer loop
vertex 90.27991207500622 -112.96471453178563 1
vertex 89.60650513828026 -112.78419147830613 0
vertex 90.27991207500624 -112.96471453178563 0
endloop
endfacet
facet normal -0.08728801404907921 -0.9961831170037805 0
outer loop
vertex 90.97443000000007 -113.0255699 1
vertex 90.27991207500622 -112.96471453178563 1
vertex 90.27991207500624 -112.96471453178563 0
endloop
endfacet
facet normal -0.08728801404907921 -0.9961831170037805 0
outer loop
vertex 90.97443000000007 -113.0255699 1
vertex 90.27991207500624 -112.96471453178563 0
vertex 90.97443000000011 -113.02556990000001 0
endloop
endfacet
facet normal -0.0001425062569211377 -0.9999999898459833 0
outer loop
vertex 152.00613555000018 -113.03426730000001 1
vertex 90.97443000000007 -113.0255699 1
vertex 90.97443000000011 -113.02556990000001 0
endloop
endfacet
facet normal -0.0001425062569211377 -0.9999999898459833 0
outer loop
vertex 152.00613555000018 -113.03426730000001 1
vertex 90.97443000000011 -113.02556990000001 0
vertex 152.0061355500027 -113.03426730000002 0
endloop
endfacet
facet normal -0.08275795843721313 -0.9965696765983323 0
outer loop
vertex 152.66482256469206 -113.08896652862903 1
vertex 152.00613555000018 -113.03426730000001 1
vertex 152.0061355500027 -113.03426730000002 0
endloop
endfacet
facet normal -0.08275795843721313 -0.9965696765983323 0
outer loop
vertex 152.66482256469206 -113.08896652862903 1
vertex 152.0061355500027 -113.03426730000002 0
vertex 152.66482256469214 -113.08896652862904 0
endloop
endfacet
facet normal -0.24573692660884242 -0.9693365581163441 0
outer loop
vertex 153.30550973257508 -113.25138740735792 1
vertex 152.66482256469206 -113.08896652862903 1
vertex 152.66482256469214 -113.08896652862904 0
endloop
endfacet
facet normal -0.24573692660884242 -0.9693365581163441 0
outer loop
vertex 153.30550973257508 -113.25138740735792 1
vertex 152.66482256469214 -113.08896652862904 0
vertex 153.30550973257502 -113.2513874073579 0
endloop
endfacet
facet normal -0.4020063461253831 -0.915636880905809 0
outer loop
vertex 153.9107038678057 -113.51709523114053 1
vertex 153.30550973257508 -113.25138740735792 1
vertex 153.30550973257502 -113.2513874073579 0
endloop
endfacet
facet normal -0.4020063461253831 -0.915636880905809 0
outer loop
vertex 153.9107038678057 -113.51709523114053 1
vertex 153.30550973257502 -113.2513874073579 0
vertex 153.91070386780575 -113.51709523114054 0
endloop
endfacet
facet normal -0.547299470071634 -0.8369368495049722 0
outer loop
vertex 154.46388087873788 -113.87883517020292 1
vertex 153.9107038678057 -113.51709523114053 1
vertex 153.91070386780575 -113.51709523114054 0
endloop
endfacet
facet normal -0.547299470071634 -0.8369368495049722 0
outer loop
vertex 154.46388087873788 -113.87883517020292 1
vertex 153.91070386780575 -113.51709523114054 0
vertex 154.46388087873788 -113.8788351702029 0
endloop
endfacet
facet normal -0.6776492459665915 -0.735385272793051 0
outer loop
vertex 154.94993693819782 -114.3267303543688 1
vertex 154.46388087873788 -113.87883517020292 1
vertex 154.46388087873788 -113.8788351702029 0
endloop
endfacet
facet normal -0.6776492459665915 -0.735385272793051 0
outer loop
vertex 154.94993693819782 -114.3267303543688 1
vertex 154.46388087873788 -113.8788351702029 0
vertex 154.9499369381978 -114.32673035436878 0
endloop
endfacet
facet normal -0.7894966313187185 -0.6137548933706317 0
outer loop
vertex 155.35560087516112 -114.84855154901729 1
vertex 154.94993693819782 -114.3267303543688 1
vertex 154.9499369381978 -114.32673035436878 0
endloop
endfacet
facet normal -0.7894966313187185 -0.6137548933706317 0
outer loop
vertex 155.35560087516112 -114.84855154901729 1
vertex 154.9499369381978 -114.32673035436878 0
vertex 155.35560087516112 -114.84855154901732 0
endloop
endfacet
facet normal -0.8797877689632468 -0.4753666811869264 0
outer loop
vertex 155.66979652797676 -115.43005105949712 1
vertex 155.35560087516112 -114.84855154901729 1
vertex 155.35560087516112 -114.84855154901732 0
endloop
endfacet
facet normal -0.8797877689632468 -0.4753666811869264 0
outer loop
vertex 155.66979652797676 -115.43005105949712 1
vertex 155.35560087516112 -114.84855154901732 0
vertex 155.66979652797676 -115.43005105949719 0
endloop
endfacet
facet normal -0.9460573689272347 -0.32399915848421285 0
outer loop
vertex 155.88394516552438 -116.05535174714545 1
vertex 155.66979652797676 -115.43005105949712 1
vertex 155.66979652797676 -115.43005105949719 0
endloop
endfacet
facet normal -0.9460573689272347 -0.32399915848421285 0
outer loop
vertex 155.88394516552438 -116.05535174714545 1
vertex 155.66979652797676 -115.43005105949719 0
vertex 155.88394516552438 -116.05535174714547 0
endloop
endfacet
facet normal -0.9864960201813875 -0.1637852318320653 0
outer loop
vertex 155.99219971905882 -116.70738053529494 1
vertex 155.88394516552438 -116.05535174714545 1
vertex 155.88394516552438 -116.05535174714547 0
endloop
endfacet
facet normal -0.9864960201813875 -0.1637852318320653 0
outer loop
vertex 155.99219971905882 -116.70738053529494 1
vertex 155.88394516552438 -116.05535174714547 0
vertex 155.99219971905882 -116.70738053529489 0
endloop
endfacet
facet normal -0.9999995944130201 0.000900651872399294 0
outer loop
vertex 155.9916044293294 -117.36833456892126 1
vertex 155.99219971905882 -116.70738053529494 1
vertex 155.99219971905882 -116.70738053529489 0
endloop
endfacet
facet normal -0.9999995944130201 0.000900651872399294 0
outer loop
vertex 155.9916044293294 -117.36833456892126 1
vertex 155.99219971905882 -116.70738053529489 0
vertex 155.9916044293294 -117.36833456892114 0
endloop
endfacet
facet normal -0.9861981816133017 0.165569159515343 0
outer loop
vertex 155.8821710999999 -118.02016460000047 1
vertex 155.9916044293294 -117.36833456892126 1
vertex 155.9916044293294 -117.36833456892114 0
endloop
endfacet
facet normal -0.9861981816133017 0.165569159515343 0
outer loop
vertex 155.8821710999999 -118.02016460000047 1
vertex 155.9916044293294 -117.36833456892114 0
vertex 155.8821710999999 -118.02016460000034 0
endloop
endfacet
facet normal 0 0 1
outer loop
vertex 153.15313345000004 -128.75090244999973 1
vertex 154.04079681943819 -125.26055745000009 1
vertex 154.15847558681486 -124.79783755926117 1
endloop
endfacet
facet normal 0 0 1
outer loop
vertex 153.15313345000004 -128.75090244999973 1
vertex 154.15847558681486 -124.79783755926117 1
vertex 154.28840041154595 -124.2869654449111 1
endloop
endfacet
facet normal 0 0 1
outer loop
vertex 153.15313345000004 -128.75090244999973 1
vertex 154.28840041154595 -124.2869654449111 1
vertex 154.42776490980953 -123.73897597453377 1
endloop
endfacet
facet normal 0 0 1
outer loop
vertex 153.15313345000004 -128.75090244999973 1
vertex 154.42776490980953 -123.73897597453377 1
vertex 154.57355880028243 -123.16570575277763 1
endloop
endfacet
facet normal 0 0 1
outer loop
vertex 153.15313345000004 -128.75090244999973 1
vertex 154.57355880028243 -123.16570575277763 1
vertex 154.72263357490868 -122.5795349000003 1
endloop
endfacet
facet normal 0 0 1
outer loop
vertex 153.15313345000004 -128.75090244999973 1
vertex 154.72263357490868 -122.5795349000003 1
vertex 155.8821710999999 -118.02016460000047 1
endloop
endfacet
facet normal 0 0 1
outer loop
vertex 153.15313345000004 -128.75090244999973 1
vertex 155.8821710999999 -118.02016460000047 1
vertex 155.8821710999999 -118.02016460000034 0
endloop
endfacet
facet normal 0 0 1
outer loop
vertex 153.15313345000004 -128.75090244999973 1
vertex 155.8821710999999 -118.02016460000034 0
vertex 154.72263357490883 -122.57953489999983 0
endloop
endfacet
facet normal 0 0 1
outer loop
vertex 153.15313345000004 -128.75090244999973 1
vertex 154.72263357490883 -122.57953489999983 0
vertex 154.57355880028246 -123.16570575277771 0
endloop
endfacet
facet normal 0 0 1
outer loop
vertex 153.15313345000004 -128.75090244999973 1
vertex 154.57355880028246 -123.16570575277771 0
vertex 154.42776490980955 -123.73897597453382 0
endloop
endfacet
facet normal 0 0 1
outer loop
vertex 153.15313345000004 -128.75090244999973 1
vertex 154.42776490980955 -123.73897597453382 0
vertex 154.28840041154598 -124.28696544491115 0
endloop
endfacet
facet normal 0 0 1
outer loop
vertex 153.15313345000004 -128.75090244999973 1
vertex 154.28840041154598 -124.28696544491115 0
vertex 154.15847558681492 -124.79783755926108 0
endloop
endfacet
facet normal 0 0 1
outer loop
vertex 153.15313345000004 -128.75090244999973 1
vertex 154.15847558681492 -124.79783755926108 0
vertex 154.0407968194382 -125.26055745000006 0
endloop
endfacet
facet normal 0 0 1
outer loop
vertex 153.15313345000004 -128.75090244999973 1
vertex 154.0407968194382 -125.26055745000006 0
vertex 153.1531334499999 -128.7509024500005 0
endloop
endfacet
facet normal -0.985380327076316 0.17036904358178592 0
outer loop
vertex 153.04715294986667 -129.36387237510817 1
vertex 153.15313345000004 -128.75090244999973 1
vertex 153.1531334499999 -128.7509024500005 0
endloop
endfacet
facet normal -0.985380327076316 0.17036904358178592 0
outer loop
vertex 153.04715294986667 -129.36387237510817 1
vertex 153.1531334499999 -128.7509024500005 0
vertex 153.04715294986667 -129.36387237510826 0
endloop
endfacet
facet normal -0.9998793971255642 0.015530331735618574 0
outer loop
vertex 153.03749208489984 -129.98586165410288 1
vertex 153.04715294986667 -129.36387237510817 1
vertex 153.04715294986667 -129.36387237510826 0
endloop
endfacet
facet normal -0.9998793971255642 0.015530331735618574 0
outer loop
vertex 153.03749208489984 -129.98586165410288 1
vertex 153.04715294986667 -129.36387237510826 0
vertex 153.03749208489984 -129.985861654103 0
endloop
endfacet
facet normal -0.9901961342669606 -0.13968398506187912 0
outer loop
vertex 153.1243845055312 -130.60182732094836 1
vertex 153.03749208489984 -129.98586165410288 1
vertex 153.03749208489984 -129.985861654103 0
endloop
endfacet
facet normal -0.9901961342669606 -0.13968398506187912 0
outer loop
vertex 153.1243845055312 -130.60182732094836 1
vertex 153.03749208489984 -129.985861654103 0
vertex 153.12438450553117 -130.60182732094827 0
endloop
endfacet
facet normal -0.9565647306308257 -0.29152000979894366 0
outer loop
vertex 153.30572869686924 -131.19687209217474 1
vertex 153.1243845055312 -130.60182732094836 1
vertex 153.12438450553117 -130.60182732094827 0
endloop
endfacet
facet normal -0.9565647306308257 -0.29152000979894366 0
outer loop
vertex 153.30572869686924 -131.19687209217474 1
vertex 153.12438450553117 -130.60182732094827 0
vertex 153.3057286968692 -131.19687209217471 0
endloop
endfacet
facet normal -0.8997985701124954 -0.4363055503010575 0
outer loop
vertex 153.57713880436137 -131.756604661396 1
vertex 153.30572869686924 -131.19687209217474 1
vertex 153.3057286968692 -131.19687209217471 0
endloop
endfacet
facet normal -0.8997985701124954 -0.4363055503010575 0
outer loop
vertex 153.57713880436137 -131.756604661396 1
vertex 153.3057286968692 -131.19687209217471 0
vertex 153.57713880436128 -131.75660466139587 0
endloop
endfacet
facet normal -0.8212705564796258 -0.5705389321156321 0
outer loop
vertex 153.9320507067817 -132.26748775664973 1
vertex 153.57713880436137 -131.756604661396 1
vertex 153.57713880436128 -131.75660466139587 0
endloop
endfacet
facet normal -0.8212705564796258 -0.5705389321156321 0
outer loop
vertex 153.9320507067817 -132.26748775664973 1
vertex 153.57713880436128 -131.75660466139587 0
vertex 153.93205070678175 -132.2674877566498 0
endloop
endfacet
facet normal -0.7228799093518656 -0.69097368738284 0
outer loop
vertex 154.3618807711424 -132.71716554270068 1
vertex 153.9320507067817 -132.26748775664973 1
vertex 153.93205070678175 -132.2674877566498 0
endloop
endfacet
facet normal -0.7228799093518656 -0.69097368738284 0
outer loop
vertex 154.3618807711424 -132.71716554270068 1
vertex 153.93205070678175 -132.2674877566498 0
vertex 154.36188077114232 -132.71716554270063 0
endloop
endfacet
facet normal -0.6070060430973476 -0.7946972150720683 0
outer loop
vertex 154.85623689999997 -133.09476489999997 1
vertex 154.3618807711424 -132.71716554270068 1
vertex 154.36188077114232 -132.71716554270063 0
endloop
endfacet
facet normal -0.6070060430973476 -0.7946972150720683 0
outer loop
vertex 154.85623689999997 -133.09476489999997 1
vertex 154.36188077114232 -132.71716554270063 0
vertex 154.85623690000006 -133.09476490000006 0
endloop
endfacet
facet normal -0.5433718232466622 -0.8394921451101244 0
outer loop
vertex 209.39504964999983 -168.39569569999992 1
vertex 154.85623689999997 -133.09476489999997 1
vertex 154.85623690000006 -133.09476490000006 0
endloop
endfacet
facet normal -0.5433718232466622 -0.8394921451101244 0
outer loop
vertex 209.39504964999983 -168.39569569999992 1
vertex 154.85623690000006 -133.09476490000006 0
vertex 209.39504965 -168.39569570000003 0
endloop
endfacet
facet normal -0.4736987827004453 -0.880686926931538 0
outer loop
vertex 209.96486696921707 -168.7021857388782 1
vertex 209.39504964999983 -168.39569569999992 1
vertex 209.39504965 -168.39569570000003 0
endloop
endfacet
facet normal -0.4736987827004453 -0.880686926931538 0
outer loop
vertex 209.96486696921707 -168.7021857388782 1
vertex 209.39504965 -168.39569570000003 0
vertex 209.96486696921693 -168.70218573887814 0
endloop
endfacet
facet normal -0.3255141329986484 -0.9455371749530201 0
outer loop
vertex 210.57664334715082 -168.91279814262853 1
vertex 209.96486696921707 -168.7021857388782 1
vertex 209.96486696921693 -168.70218573887814 0
endloop
endfacet
facet normal -0.3255141329986484 -0.9455371749530201 0
outer loop
vertex 210.57664334715082 -168.91279814262853 1
vertex 209.96486696921693 -168.70218573887814 0
vertex 210.57664334715074 -168.91279814262847 0
endloop
endfacet
facet normal -0.16881265174541246 -0.9856481566008645 0
outer loop
vertex 211.2143721167174 -169.02202239670328 1
vertex 210.57664334715082 -168.91279814262853 1
vertex 210.57664334715074 -168.91279814262847 0
endloop
endfacet
facet normal -0.16881265174541246 -0.9856481566008645 0
outer loop
vertex 211.2143721167174 -169.02202239670328 1
vertex 210.57664334715074 -168.91279814262847 0
vertex 211.2143721167177 -169.0220223967033 0
endloop
endfacet
facet normal -0.007694314900078327 -0.9999703983209796 0
outer loop
vertex 211.86136758609857 -169.02700073095068 1
vertex 211.2143721167174 -169.02202239670328 1
vertex 211.2143721167177 -169.0220223967033 0
endloop
endfacet
facet normal -0.007694314900078327 -0.9999703983209796 0
outer loop
vertex 211.86136758609857 -169.02700073095068 1
vertex 211.2143721167177 -169.0220223967033 0
vertex 211.8613675860983 -169.0270007309507 0
endloop
endfacet
facet normal 0.15362533788604066 -0.9881291694709755 0
outer loop
vertex 212.50070160726978 -168.92760289101335 1
vertex 211.86136758609857 -169.02700073095068 1
vertex 211.8613675860983 -169.0270007309507 0
endloop
endfacet
facet normal 0.15362533788604066 -0.9881291694709755 0
outer loop
vertex 212.50070160726978 -168.92760289101335 1
vertex 211.8613675860983 -169.0270007309507 0
vertex 212.50070160726978 -168.92760289101335 0
endloop
endfacet
facet normal 0.3109254996818445 -0.9504342868644814 0
outer loop
vertex 213.11564648821647 -168.7264295463354 1
vertex 212.50070160726978 -168.92760289101335 1
vertex 212.50070160726978 -168.92760289101335 0
endloop
endfacet
facet normal 0.3109254996818445 -0.9504342868644814 0
outer loop
vertex 213.11564648821647 -168.7264295463354 1
vertex 212.50070160726978 -168.92760289101335 0
vertex 213.1156464882164 -168.7264295463354 0
endloop
endfacet
facet normal 0.46009053050374593 -0.8878720086480831 0
outer loop
vertex 213.690112660365 -168.4287442456098 1
vertex 213.11564648821647 -168.7264295463354 1
vertex 213.1156464882164 -168.7264295463354 0
endloop
endfacet
facet normal 0.46009053050374593 -0.8878720086480831 0
outer loop
vertex 213.690112660365 -168.4287442456098 1
vertex 213.1156464882164 -168.7264295463354 0
vertex 213.69011266036526 -168.42874424560964 0
endloop
endfacet
facet normal 0.5972221745441582 -0.8020758531664864 0
outer loop
vertex 214.20906930000004 -168.0423314 1
vertex 213.690112660365 -168.4287442456098 1
vertex 213.69011266036526 -168.42874424560964 0
endloop
endfacet
facet normal 0.5972221745441582 -0.8020758531664864 0
outer loop
vertex 214.20906930000004 -168.0423314 1
vertex 213.69011266036526 -168.42874424560964 0
vertex 214.2090692999999 -168.04233140000014 0
endloop
endfacet
facet normal 0.6601320315579039 -0.751149586241805 0
outer loop
vertex 236.01608965000023 -148.87768974999977 1
vertex 214.20906930000004 -168.0423314 1
vertex 214.2090692999999 -168.04233140000014 0
endloop
endfacet
facet normal 0.6601320315579039 -0.751149586241805 0
outer loop
vertex 236.01608965000023 -148.87768974999977 1
vertex 214.2090692999999 -168.04233140000014 0
vertex 236.01608964999986 -148.87768975000012 0
endloop
endfacet
facet normal 0.7176325505728068 -0.6964219427605423 0
outer loop
vertex 236.4580069227408 -148.42231320295718 1
vertex 236.01608965000023 -148.87768974999977 1
vertex 236.01608964999986 -148.87768975000012 0
endloop
endfacet
facet normal 0.7176325505728068 -0.6964219427605423 0
outer loop
vertex 236.4580069227408 -148.42231320295718 1
vertex 236.01608964999986 -148.87768975000012 0
vertex 236.45800692274082 -148.4223132029571 0
endloop
endfacet
facet normal 0.8187337473767621 -0.5741733631111812 0
outer loop
vertex 236.82235088022827 -147.90278249531266 1
vertex 236.4580069227408 -148.42231320295718 1
vertex 236.45800692274082 -148.4223132029571 0
endloop
endfacet
facet normal 0.8187337473767621 -0.5741733631111812 0
outer loop
vertex 236.82235088022827 -147.90278249531266 1
vertex 236.45800692274082 -148.4223132029571 0
vertex 236.82235088022833 -147.90278249531255 0
endloop
endfacet
facet normal 0.8992305537843557 -0.4374750405916674 0
outer loop
vertex 237.09995238150233 -147.33217222373142 1
vertex 236.82235088022827 -147.90278249531266 1
vertex 236.82235088022833 -147.90278249531255 0
endloop
endfacet
facet normal 0.8992305537843557 -0.4374750405916674 0
outer loop
vertex 237.09995238150233 -147.33217222373142 1
vertex 236.82235088022833 -147.90278249531255 0
vertex 237.0999523815023 -147.33217222373148 0
endloop
endfacet
facet normal 0.9570971737047327 -0.28976714804548287 0
outer loop
vertex 237.28382526076095 -146.72484246172633 1
vertex 237.09995238150233 -147.33217222373142 1
vertex 237.0999523815023 -147.33217222373148 0
endloop
endfacet
facet normal 0.9570971737047327 -0.28976714804548287 0
outer loop
vertex 237.28382526076095 -146.72484246172633 1
vertex 237.0999523815023 -147.33217222373148 0
vertex 237.28382526076098 -146.72484246172618 0
endloop
endfacet
facet normal 0.9908773261045016 -0.1347669269961783 0
outer loop
vertex 237.3693421423769 -146.09607737164745 1
vertex 237.28382526076095 -146.72484246172633 1
vertex 237.28382526076098 -146.72484246172618 0
endloop
endfacet
facet normal 0.9908773261045016 -0.1347669269961783 0
outer loop
vertex 237.3693421423769 -146.09607737164745 1
vertex 237.28382526076098 -146.72484246172618 0
vertex 237.3693421423769 -146.09607737164757 0
endloop
endfacet
facet normal 0.9997208940195501 0.02362486107369933 0
outer loop
vertex 237.35435089420744 -145.46170056089446 1
vertex 237.3693421423769 -146.09607737164745 1
vertex 237.3693421423769 -146.09607737164757 0
endloop
endfacet
facet normal 0.9997208940195501 0.02362486107369933 0
outer loop
vertex 237.35435089420744 -145.46170056089446 1
vertex 237.3693421423769 -146.09607737164757 0
vertex 237.35435089420744 -145.46170056089443 0
endloop
endfacet
facet normal 0.9834053187409091 0.18142210193934757 0
outer loop
vertex 237.23922878851067 -144.8376768623668 1
vertex 237.35435089420744 -145.46170056089446 1
vertex 237.35435089420744 -145.46170056089443 0
endloop
endfacet
facet normal 0.9834053187409091 0.18142210193934757 0
outer loop
vertex 237.23922878851067 -144.8376768623668 1
vertex 237.35435089420744 -145.46170056089443 0
vertex 237.23922878851067 -144.83767686236678 0
endloop
endfacet
facet normal 0.942341200764367 0.3346536438498331 0
outer loop
vertex 237.02687300744975 -144.23971056081356 1
vertex 237.23922878851067 -144.8376768623668 1
vertex 237.23922878851067 -144.83767686236678 0
endloop
endfacet
facet normal 0.942341200764367 0.3346536438498331 0
outer loop
vertex 237.02687300744975 -144.23971056081356 1
vertex 237.23922878851067 -144.83767686236678 0
vertex 237.02687300744978 -144.23971056081365 0
endloop
endfacet
facet normal 0.8775619665497093 0.4794632361979456 0
outer loop
vertex 236.7226277321211 -143.68285017617166 1
vertex 237.02687300744975 -144.23971056081356 1
vertex 237.02687300744978 -144.23971056081365 0
endloop
endfacet
facet normal 0.8775619665497093 0.4794632361979456 0
outer loop
vertex 236.7226277321211 -143.68285017617166 1
vertex 237.02687300744978 -144.23971056081365 0
vertex 236.72262773212103 -143.6828501761715 0
endloop
endfacet
facet normal 0.7906977418012272 0.61220673069678 0
outer loop
vertex 236.3341493 -143.1811095 1
vertex 236.7226277321211 -143.68285017617166 1
vertex 236.72262773212103 -143.6828501761715 0
endloop
endfacet
facet normal 0.7906977418012272 0.61220673069678 0
outer loop
vertex 236.3341493 -143.1811095 1
vertex 236.72262773212103 -143.6828501761715 0
vertex 236.33414930000006 -143.18110950000002 0
endloop
endfacet
facet normal 0.7396458291116784 0.6729963205528675 0
outer loop
vertex 220.02841875000007 -125.26055745000009 1
vertex 236.3341493 -143.1811095 1
vertex 236.33414930000006 -143.18110950000002 0
endloop
endfacet
facet normal 0.7396458291116784 0.6729963205528675 0
outer loop
vertex 220.02841875000007 -125.26055745000009 1
vertex 236.33414930000006 -143.18110950000002 0
vertex 220.02841875000004 -125.26055745000006 0
endloop
endfacet
facet normal 0.7871014512859413 0.6168235609828512 0
outer loop
vertex 219.66580154191735 -124.79783755926117 1
vertex 220.02841875000007 -125.26055745000009 1
vertex 220.02841875000004 -125.26055745000006 0
endloop
endfacet
facet normal 0.7871014512859413 0.6168235609828512 0
outer loop
vertex 219.66580154191735 -124.79783755926117 1
vertex 220.02841875000004 -125.26055745000006 0
vertex 219.66580154191726 -124.79783755926108 0
endloop
endfacet
facet normal 0.8690099359773461 0.49479463535152524 0
outer loop
vertex 219.37492249546912 -124.2869654449111 1
vertex 219.66580154191735 -124.79783755926117 1
vertex 219.66580154191726 -124.79783755926108 0
endloop
endfacet
facet normal 0.8690099359773461 0.49479463535152524 0
outer loop
vertex 219.37492249546912 -124.2869654449111 1
vertex 219.66580154191726 -124.79783755926108 0
vertex 219.37492249546915 -124.28696544491115 0
endloop
endfacet
facet normal 0.9321477551666527 0.3620781166237063 0
outer loop
vertex 219.1620646150912 -123.73897597453377 1
vertex 219.37492249546912 -124.2869654449111 1
vertex 219.37492249546915 -124.28696544491115 0
endloop
endfacet
facet normal 0.9321477551666527 0.3620781166237063 0
outer loop
vertex 219.1620646150912 -123.73897597453377 1
vertex 219.37492249546915 -124.28696544491115 0
vertex 219.16206461509117 -123.73897597453382 0
endloop
endfacet
facet normal 0.9751511282622316 0.22154068937533078 0
outer loop
vertex 219.03182564346372 -123.16570575277763 1
vertex 219.1620646150912 -123.73897597453377 1
vertex 219.16206461509117 -123.73897597453382 0
endloop
endfacet
facet normal 0.9751511282622316 0.22154068937533078 0
outer loop
vertex 219.03182564346372 -123.16570575277763 1
vertex 219.16206461509117 -123.73897597453382 0
vertex 219.03182564346375 -123.16570575277771 0
endloop
endfacet
facet normal 0.9970910434941636 0.0762197545503795 0
outer loop
vertex 218.9870175 -122.5795349000003 1
vertex 219.03182564346372 -123.16570575277763 1
vertex 219.03182564346375 -123.16570575277771 0
endloop
endfacet
facet normal 0.9970910434941636 0.0762197545503795 0
outer loop
vertex 218.9870175 -122.5795349000003 1
vertex 219.03182564346375 -123.16570575277771 0
vertex 218.98701749999998 -122.57953489999983 0
endloop
endfacet
facet normal 0 0 1
outer loop
vertex 218.79469654999994 -52.41774514999966 1
vertex 218.96085290329603 -113.03426730000001 1
vertex 218.9610028397166 -113.08896652862903 1
endloop
endfacet
facet normal 0 0 1
outer loop
vertex 218.79469654999994 -52.41774514999966 1
vertex 218.9610028397166 -113.08896652862903 1
vertex 218.96144805267093 -113.25138740735792 1
endloop
endfacet
facet normal 0 0 1
outer loop
vertex 218.79469654999994 -52.41774514999966 1
vertex 218.96144805267093 -113.25138740735792 1
vertex 218.96217638615948 -113.51709523114053 1
endloop
endfacet
facet normal 0 0 1
outer loop
vertex 218.79469654999994 -52.41774514999966 1
vertex 218.96217638615948 -113.51709523114053 1
vertex 218.96316795391996 -113.87883517020292 1
endloop
endfacet
facet normal 0 0 1
outer loop
vertex 218.79469654999994 -52.41774514999966 1
vertex 218.96316795391996 -113.87883517020292 1
vertex 218.96439568239762 -114.3267303543688 1
endloop
endfacet
facet normal 0 0 1
outer loop
vertex 218.79469654999994 -52.41774514999966 1
vertex 218.96439568239762 -114.3267303543688 1
vertex 218.96582604995587 -114.84855154901729 1
endloop
endfacet
facet normal 0 0 1
outer loop
vertex 218.79469654999994 -52.41774514999966 1
vertex 218.96582604995587 -114.84855154901729 1
vertex 218.96742000214377 -115.43005105949712 1
endloop
endfacet
facet normal 0 0 1
outer loop
vertex 218.79469654999994 -52.41774514999966 1
vertex 218.96742000214377 -115.43005105949712 1
vertex 218.96913401803067 -116.05535174714545 1
endloop
endfacet
facet normal 0 0 1
outer loop
vertex 218.79469654999994 -52.41774514999966 1
vertex 218.96913401803067 -116.05535174714545 1
vertex 218.97092129849216 -116.70738053529494 1
endloop
endfacet
facet normal 0 0 1
outer loop
vertex 218.79469654999994 -52.41774514999966 1
vertex 218.97092129849216 -116.70738053529494 1
vertex 218.9727330440036 -117.36833456892126 1
endloop
endfacet
facet normal 0 0 1
outer loop
vertex 218.79469654999994 -52.41774514999966 1
vertex 218.9727330440036 -117.36833456892126 1
vertex 218.97451977965076 -118.02016460000047 1
endloop
endfacet
facet normal 0 0 1
outer loop
vertex 218.79469654999994 -52.41774514999966 1
vertex 218.97451977965076 -118.02016460000047 1
vertex 218.9870175 -122.5795349000003 1
endloop
endfacet
facet normal 0 0 1
outer loop
vertex 218.79469654999994 -52.41774514999966 1
vertex 218.9870175 -122.5795349000003 1
vertex 218.98701749999998 -122.57953489999983 0
endloop
endfacet
facet normal 0 0 1
outer loop
vertex 218.79469654999994 -52.41774514999966 1
vertex 218.98701749999998 -122.57953489999983 0
vertex 218.97451977965076 -118.02016460000034 0
endloop
endfacet
facet normal 0 0 1
outer loop
vertex 218.79469654999994 -52.41774514999966 1
vertex 218.97451977965076 -118.02016460000034 0
vertex 218.9727330440036 -117.36833456892114 0
endloop
endfacet
facet normal 0 0 1
outer loop
vertex 218.79469654999994 -52.41774514999966 1
vertex 218.9727330440036 -117.36833456892114 0
vertex 218.97092129849216 -116.70738053529489 0
endloop
endfacet
facet normal 0 0 1
outer loop
vertex 218.79469654999994 -52.41774514999966 1
vertex 218.97092129849216 -116.70738053529489 0
vertex 218.96913401803067 -116.05535174714547 0
endloop
endfacet
facet normal 0 0 1
outer loop
vertex 218.79469654999994 -52.41774514999966 1
vertex 218.96913401803067 -116.05535174714547 0
vertex 218.96742000214377 -115.43005105949719 0
endloop
endfacet
facet normal 0 0 1
outer loop
vertex 218.79469654999994 -52.41774514999966 1
vertex 218.96742000214377 -115.43005105949719 0
vertex 218.96582604995587 -114.84855154901732 0
endloop
endfacet
facet normal 0 0 1
outer loop
vertex 218.79469654999994 -52.41774514999966 1
vertex 218.96582604995587 -114.84855154901732 0
vertex 218.96439568239762 -114.32673035436878 0
endloop
endfacet
facet normal 0 0 1
outer loop
vertex 218.79469654999994 -52.41774514999966 1
vertex 218.96439568239762 -114.32673035436878 0
vertex 218.96316795391996 -113.8788351702029 0
endloop
endfacet
facet normal 0 0 1
outer loop
vertex 218.79469654999994 -52.41774514999966 1
vertex 218.96316795391996 -113.8788351702029 0
vertex 218.96217638615948 -113.51709523114054 0
endloop
endfacet
facet normal 0 0 1
outer loop
vertex 218.79469654999994 -52.41774514999966 1
vertex 218.96217638615948 -113.51709523114054 0
vertex 218.96144805267093 -113.2513874073579 0
endloop
endfacet
facet normal 0 0 1
outer loop
vertex 218.79469654999994 -52.41774514999966 1
vertex 218.96144805267093 -113.2513874073579 0
vertex 218.9610028397166 -113.08896652862904 0
endloop
endfacet
facet normal 0 0 1
outer loop
vertex 218.79469654999994 -52.41774514999966 1
vertex 218.9610028397166 -113.08896652862904 0
vertex 218.96085290329603 -113.03426730000002 0
endloop
endfacet
facet normal 0 0 1
outer loop
vertex 218.79469654999994 -52.41774514999966 1
vertex 218.96085290329603 -113.03426730000002 0
vertex 218.79469654999994 -52.41774515000004 0
endloop
endfacet
facet normal 0.99654050849732 0.08310845278251135 0
outer loop
vertex 218.74125823604328 -51.776974653369635 1
vertex 218.79469654999994 -52.41774514999966 1
vertex 218.79469654999994 -52.41774515000004 0
endloop
endfacet
facet normal 0.99654050849732 0.08310845278251135 0
outer loop
vertex 218.74125823604328 -51.776974653369635 1
vertex 218.79469654999994 -52.41774515000004 0
vertex 218.74125823604322 -51.77697465336934 0
endloop
endfacet
facet normal 0.9703487709348849 0.24170904564198317 0
outer loop
vertex 218.58584054464444 -51.15304531125568 1
vertex 218.74125823604328 -51.776974653369635 1
vertex 218.74125823604322 -51.77697465336934 0
endloop
endfacet
facet normal 0.9703487709348849 0.24170904564198317 0
outer loop
vertex 218.58584054464444 -51.15304531125568 1
vertex 218.74125823604322 -51.77697465336934 0
vertex 218.58584054464447 -51.15304531125573 0
endloop
endfacet
facet normal 0.9190830705606288 0.39406383925557853 0
outer loop
vertex 218.33245949306567 -50.56207955467464 1
vertex 218.58584054464444 -51.15304531125568 1
vertex 218.58584054464447 -51.15304531125573 0
endloop
endfacet
facet normal 0.9190830705606288 0.39406383925557853 0
outer loop
vertex 218.33245949306567 -50.56207955467464 1
vertex 218.58584054464447 -51.15304531125573 0
vertex 218.3324594930657 -50.56207955467472 0
endloop
endfacet
facet normal 0.8440681210272181 0.5362359621151697 0
outer loop
vertex 217.98766248699752 -50.01934803047814 1
vertex 218.33245949306567 -50.56207955467464 1
vertex 218.3324594930657 -50.56207955467472 0
endloop
endfacet
facet normal 0.8440681210272181 0.5362359621151697 0
outer loop
vertex 217.98766248699752 -50.01934803047814 1
vertex 218.3324594930657 -50.56207955467472 0
vertex 217.98766248699744 -50.01934803047802 0
endloop
endfacet
facet normal 0.747242320270775 0.6645516645049868 0
outer loop
vertex 217.56035913457916 -49.53887500546746 1
vertex 217.98766248699752 -50.01934803047814 1
vertex 217.98766248699744 -50.01934803047802 0
endloop
endfacet
facet normal 0.747242320270775 0.6645516645049868 0
outer loop
vertex 217.56035913457916 -49.53887500546746 1
vertex 217.98766248699744 -50.01934803047802 0
vertex 217.56035913457922 -49.538875005467496 0
endloop
endfacet
facet normal 0.6311076620075617 0.7756952487641968 0
outer loop
vertex 217.0615910207431 -49.13307597716545 1
vertex 217.56035913457916 -49.53887500546746 1
vertex 217.56035913457922 -49.538875005467496 0
endloop
endfacet
facet normal 0.6311076620075617 0.7756952487641968 0
outer loop
vertex 217.0615910207431 -49.13307597716545 1
vertex 217.56035913457922 -49.538875005467496 0
vertex 217.0615910207432 -49.13307597716552 0
endloop
endfacet
facet normal 0.49866508382790864 0.8667947474292313 0
outer loop
vertex 216.50424639094567 -48.8124368554319 1
vertex 217.0615910207431 -49.13307597716545 1
vertex 217.0615910207432 -49.13307597716552 0
endloop
endfacet
facet normal 0.49866508382790864 0.8667947474292313 0
outer loop
vertex 216.50424639094567 -48.8124368554319 1
vertex 217.0615910207432 -49.13307597716552 0
vertex 216.5042463909456 -48.81243685543188 0
endloop
endfacet
facet normal 0.3533369225032458 0.9354961353185459 0
outer loop
vertex 215.90272711690434 -48.58524300492626 1
vertex 216.50424639094567 -48.8124368554319 1
vertex 216.5042463909456 -48.81243685543188 0
endloop
endfacet
facet normal 0.3533369225032458 0.9354961353185459 0
outer loop
vertex 215.90272711690434 -48.58524300492626 1
vertex 216.5042463909456 -48.81243685543188 0
vertex 215.9027271169043 -48.58524300492624 0
endloop
endfacet
facet normal 0.19888467894639916 0.9800228999775402 0
outer loop
vertex 215.2725730999999 -48.45736029999998 1
vertex 215.90272711690434 -48.58524300492626 1
vertex 215.9027271169043 -48.58524300492624 0
endloop
endfacet
facet normal 0.19888467894639916 0.9800228999775402 0
outer loop
vertex 215.2725730999999 -48.45736029999998 1
vertex 215.9027271169043 -48.58524300492624 0
vertex 215.27257310000002 -48.4573603 0
endloop
endfacet
facet normal 0.11946527492834846 0.9928383796400571 0
outer loop
vertex 136.17542320000004 -38.939836650000004 1
vertex 215.2725730999999 -48.45736029999998 1
vertex 215.27257310000002 -48.4573603 0
endloop
endfacet
facet normal 0.11946527492834846 0.9928383796400571 0
outer loop
vertex 136.17542320000004 -38.939836650000004 1
vertex 215.27257310000002 -48.4573603 0
vertex 136.17542319999984 -38.939836649999975 0
endloop
endfacet
facet normal 0.07130955922265514 0.9974542329167142 0
outer loop
vertex 135.78955771852304 -38.91225052474702 1
vertex 136.17542320000004 -38.939836650000004 1
vertex 136.17542319999984 -38.939836649999975 0
endloop
endfacet
facet normal 0.07130955922265514 0.9974542329167142 0
outer loop
vertex 135.78955771852304 -38.91225052474702 1
vertex 136.17542319999984 -38.939836649999975 0
vertex 135.78955771852304 -38.91225052474702 0
endloop
endfacet
facet normal -0.025377450661551396 0.9996779406378439 0
outer loop
vertex 135.40283199501943 -38.922067799460024 1
vertex 135.78955771852304 -38.91225052474702 1
vertex 135.78955771852304 -38.91225052474702 0
endloop
endfacet
facet normal -0.025377450661551396 0.9996779406378439 0
outer loop
vertex 135.40283199501943 -38.922067799460024 1
vertex 135.78955771852304 -38.91225052474702 0
vertex 135.4028319950195 -38.92206779946001 0
endloop
endfacet
facet normal -0.12181956607034292 0.9925522622625136 0
outer loop
vertex 135.0188664000002 -38.96919329999997 1
vertex 135.40283199501943 -38.922067799460024 1
vertex 135.4028319950195 -38.92206779946001 0
endloop
endfacet
facet normal -0.12181956607034292 0.9925522622625136 0
outer loop
vertex 135.0188664000002 -38.96919329999997 1
vertex 135.4028319950195 -38.92206779946001 0
vertex 135.0188664000001 -38.969193299999986 0
endloop
endfacet
facet normal -0.1696741583588447 0.9855002181558448 0
outer loop
vertex 106.6825418 -43.84787515000001 1
vertex 135.0188664000002 -38.96919329999997 1
vertex 135.0188664000001 -38.969193299999986 0
endloop
endfacet
facet normal -0.1696741583588447 0.9855002181558448 0
outer loop
vertex 106.6825418 -43.84787515000001 1
vertex 135.0188664000001 -38.969193299999986 0
vertex 106.68254179999963 -43.84787515000007 0
endloop
endfacet
facet normal -0.18933730652811676 0.9819121062277816 0
outer loop
vertex 106.52566524148419 -43.87812488911453 1
vertex 106.6825418 -43.84787515000001 1
vertex 106.68254179999963 -43.84787515000007 0
endloop
endfacet
facet normal -0.18933730652811676 0.9819121062277816 0
outer loop
vertex 106.52566524148419 -43.87812488911453 1
vertex 106.68254179999963 -43.84787515000007 0
vertex 106.52566524148412 -43.87812488911454 0
endloop
endfacet
facet normal -0.2283713279847323 0.9735741042953484 0
outer loop
vertex 106.37012360000003 -43.91461029999999 1
vertex 106.52566524148419 -43.87812488911453 1
vertex 106.52566524148412 -43.87812488911454 0
endloop
endfacet
facet normal -0.2283713279847323 0.9735741042953484 0
outer loop
vertex 106.37012360000003 -43.91461029999999 1
vertex 106.52566524148412 -43.87812488911454 0
vertex 106.37012360000043 -43.91461029999989 0
endloop
endfacet
facet normal -0.24777860862339238 0.9688166808579711 0
outer loop
vertex 89.98388000000008 -48.10545539999996 1
vertex 106.37012360000003 -43.91461029999999 1
vertex 106.37012360000043 -43.91461029999989 0
endloop
endfacet
facet normal -0.24777860862339238 0.9688166808579711 0
outer loop
vertex 89.98388000000008 -48.10545539999996 1
vertex 106.37012360000043 -43.91461029999989 0
vertex 89.98387999999997 -48.1054554 0
endloop
endfacet
facet normal -0.3267982909075895 0.9450941101604002 0
outer loop
vertex 89.3606312578251 -48.320964756754414 1
vertex 89.98388000000008 -48.10545539999996 1
vertex 89.98387999999997 -48.1054554 0
endloop
endfacet
facet normal -0.3267982909075895 0.9450941101604002 0
outer loop
vertex 89.3606312578251 -48.320964756754414 1
vertex 89.98387999999997 -48.1054554 0
vertex 89.3606312578251 -48.32096475675441 0
endloop
endfacet
facet normal -0.47763897596440763 0.878556206875617 0
outer loop
vertex 88.78126138875233 -48.6359470297187 1
vertex 89.3606312578251 -48.320964756754414 1
vertex 89.3606312578251 -48.32096475675441 0
endloop
endfacet
facet normal -0.47763897596440763 0.878556206875617 0
outer loop
vertex 88.78126138875233 -48.6359470297187 1
vertex 89.3606312578251 -48.32096475675441 0
vertex 88.78126138875231 -48.6359470297187 0
endloop
endfacet
facet normal -0.6154973358140426 0.7881389659227716 0
outer loop
vertex 88.26151778450208 -49.04184093619225 1
vertex 88.78126138875233 -48.6359470297187 1
vertex 88.78126138875231 -48.6359470297187 0
endloop
endfacet
facet normal -0.6154973358140426 0.7881389659227716 0
outer loop
vertex 88.26151778450208 -49.04184093619225 1
vertex 88.78126138875231 -48.6359470297187 0
vertex 88.26151778450217 -49.041840936192166 0
endloop
endfacet
facet normal -0.7366263519965657 0.676299946432226 0
outer loop
vertex 87.81552718270343 -49.52761419665281 1
vertex 88.26151778450208 -49.04184093619225 1
vertex 88.26151778450217 -49.041840936192166 0
endloop
endfacet
facet normal -0.7366263519965657 0.676299946432226 0
outer loop
vertex 87.81552718270343 -49.52761419665281 1
vertex 88.26151778450217 -49.041840936192166 0
vertex 87.81552718270343 -49.52761419665284 0
endloop
endfacet
facet normal -0.8377337130398402 0.5460789558630533 0
outer loop
vertex 87.45541169927071 -50.080063394374484 1
vertex 87.81552718270343 -49.52761419665281 1
vertex 87.81552718270343 -49.52761419665284 0
endloop
endfacet
facet normal -0.8377337130398402 0.5460789558630533 0
outer loop
vertex 87.45541169927071 -50.080063394374484 1
vertex 87.81552718270343 -49.52761419665284 0
vertex 87.45541169927074 -50.08006339437448 0
endloop
endfacet
facet normal -0.9160713001596917 0.4010154274136249 0
outer loop
vertex 87.19095934681049 -50.68417284699823 1
vertex 87.45541169927071 -50.080063394374484 1
vertex 87.45541169927074 -50.08006339437448 0
endloop
endfacet
facet normal -0.9160713001596917 0.4010154274136249 0
outer loop
vertex 87.19095934681049 -50.68417284699823 1
vertex 87.45541169927074 -50.08006339437448 0
vertex 87.19095934681046 -50.68417284699836 0
endloop
endfacet
facet normal -0.9695098816913641 0.24505221750230494 0
outer loop
vertex 87.02935799443344 -51.32352273585512 1
vertex 87.19095934681049 -50.68417284699823 1
vertex 87.19095934681046 -50.68417284699836 0
endloop
endfacet
facet normal -0.9695098816913641 0.24505221750230494 0
outer loop
vertex 87.02935799443344 -51.32352273585512 1
vertex 87.19095934681046 -50.68417284699836 0
vertex 87.02935799443344 -51.32352273585515 0
endloop
endfacet
facet normal -0.9965969386476189 0.0824290111441002 0
outer loop
vertex 86.975 -51.98073079999998 1
vertex 87.02935799443344 -51.32352273585512 1
vertex 87.02935799443344 -51.32352273585515 0
endloop
endfacet
facet normal -0.9965969386476189 0.0824290111441002 0
outer loop
vertex 86.975 -51.98073079999998 1
vertex 87.02935799443344 -51.32352273585515 0
vertex 86.975 -51.980730800000124 0
endloop
endfacet
facet normal -0.9999999999999962 8.76503492008851e-8 0
outer loop
vertex 86.974995 -109.02556994999999 1
vertex 86.975 -51.98073079999998 1
vertex 86.975 -51.980730800000124 0
endloop
endfacet
facet normal -0.9999999999999962 8.76503492008851e-8 0
outer loop
vertex 86.974995 -109.02556994999999 1
vertex 86.975 -51.980730800000124 0
vertex 86.974995 -109.02556995000002 0
endloop
endfacet
endsolid csg.js
