solid csg.js
facet normal 0 0 -1
outer loop
vertex 136.1754232 -39.439836650000004 0
vertex 215.23916480000003 -48.95334040000001 0
vertex 215.87332840518627 -49.08238062392971 0
endloop
endfacet
facet normal 0 0 -1
outer loop
vertex 136.1754232 -39.439836650000004 0
vertex 215.87332840518627 -49.08238062392971 0
vertex 216.47838619708824 -49.31199275605952 0
endloop
endfacet
facet normal 0 0 -1
outer loop
vertex 136.1754232 -39.439836650000004 0
vertex 216.47838619708824 -49.31199275605952 0
vertex 217.0384977578822 -49.63617125970771 0
endloop
endfacet
facet normal 0 0 -1
outer loop
vertex 136.1754232 -39.439836650000004 0
vertex 217.0384977578822 -49.63617125970771 0
vertex 217.5390015841511 -50.04643042493423 0
endloop
endfacet
facet normal 0 0 -1
outer loop
vertex 136.1754232 -39.439836650000004 0
vertex 217.5390015841511 -50.04643042493423 0
vertex 217.96679646700696 -50.532031290836606 0
endloop
endfacet
facet normal 0 0 -1
outer loop
vertex 136.1754232 -39.439836650000004 0
vertex 217.96679646700696 -50.532031290836606 0
vertex 218.31068442987538 -51.08026274903377 0
endloop
endfacet
facet normal 0 0 -1
outer loop
vertex 136.1754232 -39.439836650000004 0
vertex 218.31068442987538 -51.08026274903377 0
vertex 218.56166384719535 -51.67677427016635 0
endloop
endfacet
facet normal 0 0 -1
outer loop
vertex 136.1754232 -39.439836650000004 0
vertex 218.56166384719535 -51.67677427016635 0
vertex 218.71316507134327 -52.30595154394888 0
endloop
endfacet
facet normal 0 0 -1
outer loop
vertex 136.1754232 -39.439836650000004 0
vertex 218.71316507134327 -52.30595154394888 0
vertex 218.7612224 -52.95132519999974 0
endloop
endfacet
facet normal 0 0 -1
outer loop
vertex 136.1754232 -39.439836650000004 0
vertex 218.7612224 -52.95132519999974 0
vertex 218.36440117693934 -112.53427325000001 0
endloop
endfacet
facet normal 0 0 -1
outer loop
vertex 136.1754232 -39.439836650000004 0
vertex 218.36440117693934 -112.53427325000001 0
vertex 152.03942775003173 -112.53427325000001 0
endloop
endfacet
facet normal 0 0 -1
outer loop
vertex 136.1754232 -39.439836650000004 0
vertex 152.03942775003173 -112.53427325000001 0
vertex 91.4744259999999 -112.52557399999999 0
endloop
endfacet
facet normal 0 0 -1
outer loop
vertex 136.1754232 -39.439836650000004 0
vertex 91.4744259999999 -112.52557399999999 0
vertex 90.77990256739194 -112.46471349528423 0
endloop
endfacet
facet normal 0 0 -1
outer loop
vertex 136.1754232 -39.439836650000004 0
vertex 90.77990256739194 -112.46471349528423 0
vertex 90.10649852083412 -112.284188209006 0
endloop
endfacet
facet normal 0 0 -1
outer loop
vertex 136.1754232 -39.439836650000004 0
vertex 90.10649852083412 -112.284188209006 0
vertex 89.47466813404952 -111.9894803006595 0
endloop
endfacet
facet normal 0 0 -1
outer loop
vertex 136.1754232 -39.439836650000004 0
vertex 89.47466813404952 -111.9894803006595 0
vertex 88.9036057187373 -111.58954267211728 0
endloop
endfacet
facet normal 0 0 -1
outer loop
vertex 136.1754232 -39.439836650000004 0
vertex 88.9036057187373 -111.58954267211728 0
vertex 88.4106595225098 -111.09652498832564 0
endloop
endfacet
facet normal 0 0 -1
outer loop
vertex 136.1754232 -39.439836650000004 0
vertex 88.4106595225098 -111.09652498832564 0
vertex 88.01080470822598 -110.52540458385698 0
endloop
endfacet
facet normal 0 0 -1
outer loop
vertex 136.1754232 -39.439836650000004 0
vertex 88.01080470822598 -110.52540458385698 0
vertex 87.71618842502626 -109.89353146797069 0
endloop
endfacet
facet normal 0 0 -1
outer loop
vertex 136.1754232 -39.439836650000004 0
vertex 87.71618842502626 -109.89353146797069 0
vertex 87.53576079131204 -109.2201012504289 0
endloop
endfacet
facet normal 0 0 -1
outer loop
vertex 136.1754232 -39.439836650000004 0
vertex 87.53576079131204 -109.2201012504289 0
vertex 87.47500299999999 -108.52557200000012 0
endloop
endfacet
facet normal 0 0 -1
outer loop
vertex 136.1754232 -39.439836650000004 0
vertex 87.47500299999999 -108.52557200000012 0
vertex 87.475 -52.46061480000001 0
endloop
endfacet
facet normal 0 0 -1
outer loop
vertex 136.1754232 -39.439836650000004 0
vertex 87.475 -52.46061480000001 0
vertex 87.52883973226616 -51.80650702935729 0
endloop
endfacet
facet normal 0 0 -1
outer loop
vertex 136.1754232 -39.439836650000004 0
vertex 87.52883973226616 -51.80650702935729 0
vertex 87.68892473900947 -51.17000689362215 0
endloop
endfacet
facet normal 0 0 -1
outer loop
vertex 136.1754232 -39.439836650000004 0
vertex 87.68892473900947 -51.17000689362215 0
vertex 87.95094013531623 -50.56825315306576 0
endloop
endfacet
facet normal 0 0 -1
outer loop
vertex 136.1754232 -39.439836650000004 0
vertex 87.95094013531623 -50.56825315306576 0
vertex 88.3078318177025 -50.0174465089353 0
endloop
endfacet
facet normal 0 0 -1
outer loop
vertex 136.1754232 -39.439836650000004 0
vertex 88.3078318177025 -50.0174465089353 0
vertex 88.74999137805432 -49.53241604044412 0
endloop
endfacet
facet normal 0 0 -1
outer loop
vertex 136.1754232 -39.439836650000004 0
vertex 88.74999137805432 -49.53241604044412 0
vertex 89.26551478577257 -49.126219969230206 0
endloop
endfacet
facet normal 0 0 -1
outer loop
vertex 136.1754232 -39.439836650000004 0
vertex 89.26551478577257 -49.126219969230206 0
vertex 89.84052287376431 -48.809794099682726 0
endloop
endfacet
facet normal 0 0 -1
outer loop
vertex 136.1754232 -39.439836650000004 0
vertex 89.84052287376431 -48.809794099682726 0
vertex 90.45953500000013 -48.59165739999995 0
endloop
endfacet
facet normal 0 0 -1
outer loop
vertex 136.1754232 -39.439836650000004 0
vertex 90.45953500000013 -48.59165739999995 0
vertex 106.35818569999931 -44.41878330000018 0
endloop
endfacet
facet normal 0 0 -1
outer loop
vertex 136.1754232 -39.439836650000004 0
vertex 106.35818569999931 -44.41878330000018 0
vertex 106.52578591391907 -44.37863316788715 0
endloop
endfacet
facet normal 0 0 -1
outer loop
vertex 136.1754232 -39.439836650000004 0
vertex 106.52578591391907 -44.37863316788715 0
vertex 106.69496284999965 -44.345741650000065 0
endloop
endfacet
facet normal 0 0 -1
outer loop
vertex 136.1754232 -39.439836650000004 0
vertex 106.69496284999965 -44.345741650000065 0
vertex 135.0188663999999 -39.469193300000015 0
endloop
endfacet
facet normal 0 0 -1
outer loop
vertex 136.1754232 -39.439836650000004 0
vertex 135.0188663999999 -39.469193300000015 0
vertex 135.40283199501968 -39.42206779946001 0
endloop
endfacet
facet normal 0 0 -1
outer loop
vertex 136.1754232 -39.439836650000004 0
vertex 135.40283199501968 -39.42206779946001 0
vertex 135.78955771852293 -39.41225052474702 0
endloop
endfacet
facet normal 0 0 -1
outer loop
vertex 218.36440117693934 -112.53427325000001 0
vertex 218.36403937764183 -112.58859763462303 0
vertex 152.6958538409681 -112.58859763462303 0
endloop
endfacet
facet normal 0 0 -1
outer loop
vertex 218.36440117693934 -112.53427325000001 0
vertex 152.6958538409681 -112.58859763462303 0
vertex 152.03942775003173 -112.53427325000001 0
endloop
endfacet
facet normal 0 0 -1
outer loop
vertex 218.36403937764183 -112.58859763462303 0
vertex 218.36296503671207 -112.749910578806 0
vertex 153.3344652139543 -112.749910578806 0
endloop
endfacet
facet normal 0 0 -1
outer loop
vertex 218.36403937764183 -112.58859763462303 0
vertex 153.3344652139543 -112.749910578806 0
vertex 152.6958538409681 -112.58859763462303 0
endloop
endfacet
facet normal 0 0 -1
outer loop
vertex 218.36296503671207 -112.749910578806 0
vertex 218.36120728533086 -113.01383801802963 0
vertex 153.9379456680648 -113.01383801802963 0
endloop
endfacet
facet normal 0 0 -1
outer loop
vertex 218.36296503671207 -112.749910578806 0
vertex 153.9379456680648 -113.01383801802963 0
vertex 153.3344652139543 -112.749910578806 0
endloop
endfacet
facet normal 0 0 -1
outer loop
vertex 218.36120728533086 -113.01383801802963 0
vertex 218.35881378562468 -113.37322345500539 0
vertex 154.48993159121667 -113.37322345500539 0
endloop
endfacet
facet normal 0 0 -1
outer loop
vertex 218.36120728533086 -113.01383801802963 0
vertex 154.48993159121667 -113.37322345500539 0
vertex 153.9379456680648 -113.01383801802963 0
endloop
endfacet
facet normal 0 0 -1
outer loop
vertex 218.35881378562468 -113.37322345500539 0
vertex 218.35584943828823 -113.81832201094142 0
vertex 154.97545566597717 -113.81832201094142 0
endloop
endfacet
facet normal 0 0 -1
outer loop
vertex 218.35881378562468 -113.37322345500539 0
vertex 154.97545566597717 -113.81832201094142 0
vertex 154.48993159121667 -113.37322345500539 0
endloop
endfacet
facet normal 0 0 -1
outer loop
vertex 218.35584943828823 -113.81832201094142 0
vertex 218.35239462277636 -114.33706466179832 0
vertex 155.38135271431588 -114.33706466179832 0
endloop
endfacet
facet normal 0 0 -1
outer loop
vertex 218.35584943828823 -113.81832201094142 0
vertex 155.38135271431588 -114.33706466179832 0
vertex 154.97545566597717 -113.81832201094142 0
endloop
endfacet
facet normal 0 0 -1
outer loop
vertex 218.35239462277636 -114.33706466179832 0
vertex 218.34854301778313 -114.9153854946685 0
vertex 155.69661667663473 -114.9153854946685 0
endloop
endfacet
facet normal 0 0 -1
outer loop
vertex 218.35239462277636 -114.33706466179832 0
vertex 155.69661667663473 -114.9153854946685 0
vertex 155.38135271431588 -114.33706466179832 0
endloop
endfacet
facet normal 0 0 -1
outer loop
vertex 218.34854301778313 -114.9153854946685 0
vertex 218.34439906110694 -115.53760311058667 0
vertex 155.9126990454418 -115.53760311058667 0
endloop
endfacet
facet normal 0 0 -1
outer loop
vertex 218.34854301778313 -114.9153854946685 0
vertex 155.9126990454418 -115.53760311058667 0
vertex 155.69661667663473 -114.9153854946685 0
endloop
endfacet
facet normal 0 0 -1
outer loop
vertex 218.34439906110694 -115.53760311058667 0
vertex 218.34007511777816 -116.18684583189 0
vertex 156.02374066152683 -116.18684583189 0
endloop
endfacet
facet normal 0 0 -1
outer loop
vertex 218.34439906110694 -115.53760311058667 0
vertex 156.02374066152683 -116.18684583189 0
vertex 155.9126990454418 -115.53760311058667 0
endloop
endfacet
facet normal 0 0 -1
outer loop
vertex 218.34007511777816 -116.18684583189 0
vertex 218.3356884332366 -116.84550918445495 0
vertex 156.02673058738847 -116.84550918445495 0
endloop
endfacet
facet normal 0 0 -1
outer loop
vertex 218.34007511777816 -116.18684583189 0
vertex 156.02673058738847 -116.84550918445495 0
vertex 156.02374066152683 -116.18684583189 0
endloop
endfacet
facet normal 0 0 -1
outer loop
vertex 218.3356884332366 -116.84550918445495 0
vertex 218.33135793253018 -117.49573649999965 0
vertex 155.92158550000008 -117.49573649999965 0
endloop
endfacet
facet normal 0 0 -1
outer loop
vertex 218.3356884332366 -116.84550918445495 0
vertex 155.92158550000008 -117.49573649999965 0
vertex 156.02673058738847 -116.84550918445495 0
endloop
endfacet
facet normal 0 0 -1
outer loop
vertex 218.33135793253018 -117.49573649999965 0
vertex 218.2975197 -122.57656769999971 0
vertex 154.66343190848514 -122.57656769999971 0
endloop
endfacet
facet normal 0 0 -1
outer loop
vertex 218.33135793253018 -117.49573649999965 0
vertex 154.66343190848514 -122.57656769999971 0
vertex 155.92158550000008 -117.49573649999965 0
endloop
endfacet
facet normal 0 0 -1
outer loop
vertex 218.2975197 -122.57656769999971 0
vertex 218.34000959189353 -123.18528641010343 0
vertex 154.51269640848676 -123.18528641010343 0
endloop
endfacet
facet normal 0 0 -1
outer loop
vertex 218.2975197 -122.57656769999971 0
vertex 154.51269640848676 -123.18528641010343 0
vertex 154.66343190848514 -122.57656769999971 0
endloop
endfacet
facet normal 0 0 -1
outer loop
vertex 218.34000959189353 -123.18528641010343 0
vertex 218.47459558987765 -123.78046297423529 0
vertex 154.36531431640938 -123.78046297423529 0
endloop
endfacet
facet normal 0 0 -1
outer loop
vertex 218.34000959189353 -123.18528641010343 0
vertex 154.36531431640938 -123.78046297423529 0
vertex 154.51269640848676 -123.18528641010343 0
endloop
endfacet
facet normal 0 0 -1
outer loop
vertex 218.47459558987765 -123.78046297423529 0
vertex 218.6981457877672 -124.34824272234894 0
vertex 154.22471642973315 -124.34824272234894 0
endloop
endfacet
facet normal 0 0 -1
outer loop
vertex 218.47459558987765 -123.78046297423529 0
vertex 154.22471642973315 -124.34824272234894 0
vertex 154.36531431640938 -123.78046297423529 0
endloop
endfacet
facet normal 0 0 -1
outer loop
vertex 218.6981457877672 -124.34824272234894 0
vertex 219.00545777379315 -124.87541240716602 0
vertex 154.09417471201374 -124.87541240716602 0
endloop
endfacet
facet normal 0 0 -1
outer loop
vertex 218.6981457877672 -124.34824272234894 0
vertex 154.09417471201374 -124.87541240716602 0
vertex 154.22471642973315 -124.34824272234894 0
endloop
endfacet
facet normal 0 0 -1
outer loop
vertex 219.00545777379315 -124.87541240716602 0
vertex 219.38937985 -125.34970385000001 0
vertex 153.97672710182226 -125.34970385000001 0
endloop
endfacet
facet normal 0 0 -1
outer loop
vertex 219.00545777379315 -124.87541240716602 0
vertex 153.97672710182226 -125.34970385000001 0
vertex 154.09417471201374 -124.87541240716602 0
endloop
endfacet
facet normal 0 0 -1
outer loop
vertex 219.38937985 -125.34970385000001 0
vertex 236.22626459999984 -143.1770068999998 0
vertex 236.62817794303837 -143.67758547539177 0
endloop
endfacet
facet normal 0 0 -1
outer loop
vertex 219.38937985 -125.34970385000001 0
vertex 236.62817794303837 -143.67758547539177 0
vertex 236.94483753150877 -144.23601653943982 0
endloop
endfacet
facet normal 0 0 -1
outer loop
vertex 219.38937985 -125.34970385000001 0
vertex 236.94483753150877 -144.23601653943982 0
vertex 237.16808473479279 -144.83791290468025 0
endloop
endfacet
facet normal 0 0 -1
outer loop
vertex 219.38937985 -125.34970385000001 0
vertex 237.16808473479279 -144.83791290468025 0
vertex 237.29216928330797 -145.46777128009785 0
endloop
endfacet
facet normal 0 0 -1
outer loop
vertex 219.38937985 -125.34970385000001 0
vertex 237.29216928330797 -145.46777128009785 0
vertex 237.31389508055457 -146.10936814573728 0
endloop
endfacet
facet normal 0 0 -1
outer loop
vertex 219.38937985 -125.34970385000001 0
vertex 237.31389508055457 -146.10936814573728 0
vertex 237.23270252628123 -146.7461776285454 0
endloop
endfacet
facet normal 0 0 -1
outer loop
vertex 219.38937985 -125.34970385000001 0
vertex 237.23270252628123 -146.7461776285454 0
vertex 237.05068293033767 -147.36179716604954 0
endloop
endfacet
facet normal 0 0 -1
outer loop
vertex 219.38937985 -125.34970385000001 0
vertex 237.05068293033767 -147.36179716604954 0
vertex 236.77252464595122 -147.94036999386933 0
endloop
endfacet
facet normal 0 0 -1
outer loop
vertex 219.38937985 -125.34970385000001 0
vertex 236.77252464595122 -147.94036999386933 0
vertex 236.40539230989395 -148.46699357488768 0
endloop
endfacet
facet normal 0 0 -1
outer loop
vertex 219.38937985 -125.34970385000001 0
vertex 236.40539230989395 -148.46699357488768 0
vertex 235.9587422999995 -148.92810345000052 0
endloop
endfacet
facet normal 0 0 -1
outer loop
vertex 219.38937985 -125.34970385000001 0
vertex 235.9587422999995 -148.92810345000052 0
vertex 214.20906930000012 -168.0423313999999 0
endloop
endfacet
facet normal 0 0 -1
outer loop
vertex 219.38937985 -125.34970385000001 0
vertex 214.20906930000012 -168.0423313999999 0
vertex 213.69011266036517 -168.42874424560966 0
endloop
endfacet
facet normal 0 0 -1
outer loop
vertex 219.38937985 -125.34970385000001 0
vertex 213.69011266036517 -168.42874424560966 0
vertex 213.11564648821633 -168.72642954633542 0
endloop
endfacet
facet normal 0 0 -1
outer loop
vertex 219.38937985 -125.34970385000001 0
vertex 213.11564648821633 -168.72642954633542 0
vertex 212.5007016072697 -168.92760289101338 0
endloop
endfacet
facet normal 0 0 -1
outer loop
vertex 219.38937985 -125.34970385000001 0
vertex 212.5007016072697 -168.92760289101338 0
vertex 211.86136758609857 -169.02700073095068 0
endloop
endfacet
facet normal 0 0 -1
outer loop
vertex 219.38937985 -125.34970385000001 0
vertex 211.86136758609857 -169.02700073095068 0
vertex 211.2143721167175 -169.02202239670328 0
endloop
endfacet
facet normal 0 0 -1
outer loop
vertex 219.38937985 -125.34970385000001 0
vertex 211.2143721167175 -169.02202239670328 0
vertex 210.57664334715065 -168.9127981426285 0
endloop
endfacet
facet normal 0 0 -1
outer loop
vertex 219.38937985 -125.34970385000001 0
vertex 210.57664334715065 -168.9127981426285 0
vertex 209.96486696921716 -168.70218573887826 0
endloop
endfacet
facet normal 0 0 -1
outer loop
vertex 219.38937985 -125.34970385000001 0
vertex 209.96486696921716 -168.70218573887826 0
vertex 209.39504965000023 -168.39569570000015 0
endloop
endfacet
facet normal 0 0 -1
outer loop
vertex 219.38937985 -125.34970385000001 0
vertex 209.39504965000023 -168.39569570000015 0
vertex 154.8402519000001 -133.08441850000008 0
endloop
endfacet
facet normal 0 0 -1
outer loop
vertex 219.38937985 -125.34970385000001 0
vertex 154.8402519000001 -133.08441850000008 0
vertex 154.3482424679367 -132.70892146272604 0
endloop
endfacet
facet normal 0 0 -1
outer loop
vertex 219.38937985 -125.34970385000001 0
vertex 154.3482424679367 -132.70892146272604 0
vertex 153.92005111216895 -132.26201756084563 0
endloop
endfacet
facet normal 0 0 -1
outer loop
vertex 219.38937985 -125.34970385000001 0
vertex 153.92005111216895 -132.26201756084563 0
vertex 153.56592861162662 -131.7544072878219 0
endloop
endfacet
facet normal 0 0 -1
outer loop
vertex 219.38937985 -125.34970385000001 0
vertex 153.56592861162662 -131.7544072878219 0
vertex 153.29435334363853 -131.1982438150122 0
endloop
endfacet
facet normal 0 0 -1
outer loop
vertex 219.38937985 -125.34970385000001 0
vertex 153.29435334363853 -131.1982438150122 0
vertex 153.1118273451891 -130.60684277125276 0
endloop
endfacet
facet normal 0 0 -1
outer loop
vertex 219.38937985 -125.34970385000001 0
vertex 153.1118273451891 -130.60684277125276 0
vertex 153.02272064157978 -129.99436344095506 0
endloop
endfacet
facet normal 0 0 -1
outer loop
vertex 219.38937985 -125.34970385000001 0
vertex 153.02272064157978 -129.99436344095506 0
vertex 153.0291666195754 -129.37546976346462 0
endloop
endfacet
facet normal 0 0 -1
outer loop
vertex 219.38937985 -125.34970385000001 0
vertex 153.0291666195754 -129.37546976346462 0
vertex 153.13101095000007 -128.76497924999958 0
endloop
endfacet
facet normal 0 0 -1
outer loop
vertex 219.38937985 -125.34970385000001 0
vertex 153.13101095000007 -128.76497924999958 0
vertex 153.97672710182226 -125.34970385000001 0
endloop
endfacet
facet normal 0 0 1
outer loop
vertex 212.50070160726986 -168.92760289101335 1
vertex 213.1156464882162 -168.7264295463355 1
vertex 213.69011266036512 -168.42874424560972 1
endloop
endfacet
facet normal 0 0 1
outer loop
vertex 212.50070160726986 -168.92760289101335 1
vertex 213.69011266036512 -168.42874424560972 1
vertex 214.20906930000038 -168.04233139999974 1
endloop
endfacet
facet normal 0 0 1
outer loop
vertex 212.50070160726986 -168.92760289101335 1
vertex 214.20906930000038 -168.04233139999974 1
vertex 235.95874229999976 -148.92810345000026 1
endloop
endfacet
facet normal 0 0 1
outer loop
vertex 212.50070160726986 -168.92760289101335 1
vertex 235.95874229999976 -148.92810345000026 1
vertex 236.40539230989395 -148.46699357488768 1
endloop
endfacet
facet normal 0 0 1
outer loop
vertex 212.50070160726986 -168.92760289101335 1
vertex 236.40539230989395 -148.46699357488768 1
vertex 236.77252464595142 -147.940369993869 1
endloop
endfacet
facet normal 0 0 1
outer loop
vertex 212.50070160726986 -168.92760289101335 1
vertex 236.77252464595142 -147.940369993869 1
vertex 237.05068293033767 -147.36179716604963 1
endloop
endfacet
facet normal 0 0 1
outer loop
vertex 212.50070160726986 -168.92760289101335 1
vertex 237.05068293033767 -147.36179716604963 1
vertex 237.23270252628117 -146.74617762854564 1
endloop
endfacet
facet normal 0 0 1
outer loop
vertex 212.50070160726986 -168.92760289101335 1
vertex 237.23270252628117 -146.74617762854564 1
vertex 237.31389508055454 -146.1093681457373 1
endloop
endfacet
facet normal 0 0 1
outer loop
vertex 212.50070160726986 -168.92760289101335 1
vertex 237.31389508055454 -146.1093681457373 1
vertex 237.2921692833079 -145.46777128009762 1
endloop
endfacet
facet normal 0 0 1
outer loop
vertex 212.50070160726986 -168.92760289101335 1
vertex 237.2921692833079 -145.46777128009762 1
vertex 237.16808473479276 -144.83791290468017 1
endloop
endfacet
facet normal 0 0 1
outer loop
vertex 212.50070160726986 -168.92760289101335 1
vertex 237.16808473479276 -144.83791290468017 1
vertex 236.94483753150882 -144.23601653944 1
endloop
endfacet
facet normal 0 0 1
outer loop
vertex 212.50070160726986 -168.92760289101335 1
vertex 236.94483753150882 -144.23601653944 1
vertex 236.6281779430382 -143.67758547539154 1
endloop
endfacet
facet normal 0 0 1
outer loop
vertex 212.50070160726986 -168.92760289101335 1
vertex 236.6281779430382 -143.67758547539154 1
vertex 236.2262646000001 -143.17700690000015 1
endloop
endfacet
facet normal 0 0 1
outer loop
vertex 212.50070160726986 -168.92760289101335 1
vertex 236.2262646000001 -143.17700690000015 1
vertex 219.38937984999998 -125.34970384999997 1
endloop
endfacet
facet normal 0 0 1
outer loop
vertex 212.50070160726986 -168.92760289101335 1
vertex 219.38937984999998 -125.34970384999997 1
vertex 153.97672710182226 -125.34970384999997 1
endloop
endfacet
facet normal 0 0 1
outer loop
vertex 212.50070160726986 -168.92760289101335 1
vertex 153.97672710182226 -125.34970384999997 1
vertex 153.13101095000016 -128.76497924999927 1
endloop
endfacet
facet normal 0 0 1
outer loop
vertex 212.50070160726986 -168.92760289101335 1
vertex 153.13101095000016 -128.76497924999927 1
vertex 153.0291666195754 -129.3754697634647 1
endloop
endfacet
facet normal 0 0 1
outer loop
vertex 212.50070160726986 -168.92760289101335 1
vertex 153.0291666195754 -129.3754697634647 1
vertex 153.02272064157978 -129.99436344095503 1
endloop
endfacet
facet normal 0 0 1
outer loop
vertex 212.50070160726986 -168.92760289101335 1
vertex 153.02272064157978 -129.99436344095503 1
vertex 153.11182734518914 -130.6068427712528 1
endloop
endfacet
facet normal 0 0 1
outer loop
vertex 212.50070160726986 -168.92760289101335 1
vertex 153.11182734518914 -130.6068427712528 1
vertex 153.2943533436386 -131.19824381501232 1
endloop
endfacet
facet normal 0 0 1
outer loop
vertex 212.50070160726986 -168.92760289101335 1
vertex 153.2943533436386 -131.19824381501232 1
vertex 153.5659286116266 -131.75440728782186 1
endloop
endfacet
facet normal 0 0 1
outer loop
vertex 212.50070160726986 -168.92760289101335 1
vertex 153.5659286116266 -131.75440728782186 1
vertex 153.92005111216892 -132.2620175608456 1
endloop
endfacet
facet normal 0 0 1
outer loop
vertex 212.50070160726986 -168.92760289101335 1
vertex 153.92005111216892 -132.2620175608456 1
vertex 154.34824246793676 -132.7089214627261 1
endloop
endfacet
facet normal 0 0 1
outer loop
vertex 212.50070160726986 -168.92760289101335 1
vertex 154.34824246793676 -132.7089214627261 1
vertex 154.8402519 -133.08441850000003 1
endloop
endfacet
facet normal 0 0 1
outer loop
vertex 212.50070160726986 -168.92760289101335 1
vertex 154.8402519 -133.08441850000003 1
vertex 209.3950496500003 -168.39569570000018 1
endloop
endfacet
facet normal 0 0 1
outer loop
vertex 212.50070160726986 -168.92760289101335 1
vertex 209.3950496500003 -168.39569570000018 1
vertex 209.964866969217 -168.7021857388782 1
endloop
endfacet
facet normal 0 0 1
outer loop
vertex 212.50070160726986 -168.92760289101335 1
vertex 209.964866969217 -168.7021857388782 1
vertex 210.57664334715074 -168.9127981426285 1
endloop
endfacet
facet normal 0 0 1
outer loop
vertex 212.50070160726986 -168.92760289101335 1
vertex 210.57664334715074 -168.9127981426285 1
vertex 211.21437211671758 -169.02202239670328 1
endloop
endfacet
facet normal 0 0 1
outer loop
vertex 212.50070160726986 -168.92760289101335 1
vertex 211.21437211671758 -169.02202239670328 1
vertex 211.86136758609848 -169.02700073095068 1
endloop
endfacet
facet normal 0 0 1
outer loop
vertex 219.38937984999998 -125.34970384999997 1
vertex 219.00545777379307 -124.87541240716591 1
vertex 154.0941747120138 -124.87541240716591 1
endloop
endfacet
facet normal 0 0 1
outer loop
vertex 219.38937984999998 -125.34970384999997 1
vertex 154.0941747120138 -124.87541240716591 1
vertex 153.97672710182226 -125.34970384999997 1
endloop
endfacet
facet normal 0 0 1
outer loop
vertex 219.00545777379307 -124.87541240716591 1
vertex 218.69814578776712 -124.34824272234876 1
vertex 154.22471642973323 -124.34824272234876 1
endloop
endfacet
facet normal 0 0 1
outer loop
vertex 219.00545777379307 -124.87541240716591 1
vertex 154.22471642973323 -124.34824272234876 1
vertex 154.0941747120138 -124.87541240716591 1
endloop
endfacet
facet normal 0 0 1
outer loop
vertex 218.69814578776712 -124.34824272234876 1
vertex 218.47459558987757 -123.78046297423502 1
vertex 154.36531431640947 -123.78046297423502 1
endloop
endfacet
facet normal 0 0 1
outer loop
vertex 218.69814578776712 -124.34824272234876 1
vertex 154.36531431640947 -123.78046297423502 1
vertex 154.22471642973323 -124.34824272234876 1
endloop
endfacet
facet normal 0 0 1
outer loop
vertex 218.47459558987757 -123.78046297423502 1
vertex 218.3400095918935 -123.18528641010313 1
vertex 154.51269640848685 -123.18528641010313 1
endloop
endfacet
facet normal 0 0 1
outer loop
vertex 218.47459558987757 -123.78046297423502 1
vertex 154.51269640848685 -123.18528641010313 1
vertex 154.36531431640947 -123.78046297423502 1
endloop
endfacet
facet normal 0 0 1
outer loop
vertex 218.3400095918935 -123.18528641010313 1
vertex 218.29751970000004 -122.57656770000015 1
vertex 154.66343190848505 -122.57656770000015 1
endloop
endfacet
facet normal 0 0 1
outer loop
vertex 218.3400095918935 -123.18528641010313 1
vertex 154.66343190848505 -122.57656770000015 1
vertex 154.51269640848685 -123.18528641010313 1
endloop
endfacet
facet normal 0 0 1
outer loop
vertex 218.29751970000004 -122.57656770000015 1
vertex 218.33135793253015 -117.49573649999984 1
vertex 155.92158550000005 -117.49573649999984 1
endloop
endfacet
facet normal 0 0 1
outer loop
vertex 218.29751970000004 -122.57656770000015 1
vertex 155.92158550000005 -117.49573649999984 1
vertex 154.66343190848505 -122.57656770000015 1
endloop
endfacet
facet normal 0 0 1
outer loop
vertex 218.33135793253015 -117.49573649999984 1
vertex 218.3356884332366 -116.84550918445484 1
vertex 156.02673058738847 -116.84550918445484 1
endloop
endfacet
facet normal 0 0 1
outer loop
vertex 218.33135793253015 -117.49573649999984 1
vertex 156.02673058738847 -116.84550918445484 1
vertex 155.92158550000005 -117.49573649999984 1
endloop
endfacet
facet normal 0 0 1
outer loop
vertex 218.3356884332366 -116.84550918445484 1
vertex 218.34007511777816 -116.18684583188974 1
vertex 156.02374066152683 -116.18684583188974 1
endloop
endfacet
facet normal 0 0 1
outer loop
vertex 218.3356884332366 -116.84550918445484 1
vertex 156.02374066152683 -116.18684583188974 1
vertex 156.02673058738847 -116.84550918445484 1
endloop
endfacet
facet normal 0 0 1
outer loop
vertex 218.34007511777816 -116.18684583188974 1
vertex 218.34439906110694 -115.5376031105868 1
vertex 155.91269904544185 -115.5376031105868 1
endloop
endfacet
facet normal 0 0 1
outer loop
vertex 218.34007511777816 -116.18684583188974 1
vertex 155.91269904544185 -115.5376031105868 1
vertex 156.02374066152683 -116.18684583188974 1
endloop
endfacet
facet normal 0 0 1
outer loop
vertex 218.34439906110694 -115.5376031105868 1
vertex 218.34854301778313 -114.91538549466848 1
vertex 155.69661667663473 -114.91538549466848 1
endloop
endfacet
facet normal 0 0 1
outer loop
vertex 218.34439906110694 -115.5376031105868 1
vertex 155.69661667663473 -114.91538549466848 1
vertex 155.91269904544185 -115.5376031105868 1
endloop
endfacet
facet normal 0 0 1
outer loop
vertex 218.34854301778313 -114.91538549466848 1
vertex 218.35239462277636 -114.3370646617984 1
vertex 155.38135271431594 -114.3370646617984 1
endloop
endfacet
facet normal 0 0 1
outer loop
vertex 218.34854301778313 -114.91538549466848 1
vertex 155.38135271431594 -114.3370646617984 1
vertex 155.69661667663473 -114.91538549466848 1
endloop
endfacet
facet normal 0 0 1
outer loop
vertex 218.35239462277636 -114.3370646617984 1
vertex 218.35584943828826 -113.81832201094139 1
vertex 154.97545566597714 -113.81832201094139 1
endloop
endfacet
facet normal 0 0 1
outer loop
vertex 218.35239462277636 -114.3370646617984 1
vertex 154.97545566597714 -113.81832201094139 1
vertex 155.38135271431594 -114.3370646617984 1
endloop
endfacet
facet normal 0 0 1
outer loop
vertex 218.35584943828826 -113.81832201094139 1
vertex 218.3588137856247 -113.37322345500539 1
vertex 154.48993159121665 -113.37322345500539 1
endloop
endfacet
facet normal 0 0 1
outer loop
vertex 218.35584943828826 -113.81832201094139 1
vertex 154.48993159121665 -113.37322345500539 1
vertex 154.97545566597714 -113.81832201094139 1
endloop
endfacet
facet normal 0 0 1
outer loop
vertex 218.3588137856247 -113.37322345500539 1
vertex 218.36120728533086 -113.0138380180296 1
vertex 153.93794566806474 -113.0138380180296 1
endloop
endfacet
facet normal 0 0 1
outer loop
vertex 218.3588137856247 -113.37322345500539 1
vertex 153.93794566806474 -113.0138380180296 1
vertex 154.48993159121665 -113.37322345500539 1
endloop
endfacet
facet normal 0 0 1
outer loop
vertex 218.36120728533086 -113.0138380180296 1
vertex 218.3629650367121 -112.749910578806 1
vertex 153.3344652139543 -112.749910578806 1
endloop
endfacet
facet normal 0 0 1
outer loop
vertex 218.36120728533086 -113.0138380180296 1
vertex 153.3344652139543 -112.749910578806 1
vertex 153.93794566806474 -113.0138380180296 1
endloop
endfacet
facet normal 0 0 1
outer loop
vertex 218.3629650367121 -112.749910578806 1
vertex 218.36403937764186 -112.58859763462303 1
vertex 152.6958538409682 -112.58859763462303 1
endloop
endfacet
facet normal 0 0 1
outer loop
vertex 218.3629650367121 -112.749910578806 1
vertex 152.6958538409682 -112.58859763462303 1
vertex 153.3344652139543 -112.749910578806 1
endloop
endfacet
facet normal 0 0 1
outer loop
vertex 218.36403937764186 -112.58859763462303 1
vertex 218.36440117693934 -112.53427325000001 1
vertex 152.0394277499999 -112.53427325000001 1
endloop
endfacet
facet normal 0 0 1
outer loop
vertex 218.36403937764186 -112.58859763462303 1
vertex 152.0394277499999 -112.53427325000001 1
vertex 152.6958538409682 -112.58859763462303 1
endloop
endfacet
facet normal 0 0 1
outer loop
vertex 218.36440117693934 -112.53427325000001 1
vertex 218.76122240000004 -52.95132520000009 1
vertex 218.71316507134327 -52.30595154394901 1
endloop
endfacet
facet normal 0 0 1
outer loop
vertex 218.36440117693934 -112.53427325000001 1
vertex 218.71316507134327 -52.30595154394901 1
vertex 218.56166384719526 -51.67677427016617 1
endloop
endfacet
facet normal 0 0 1
outer loop
vertex 218.36440117693934 -112.53427325000001 1
vertex 218.56166384719526 -51.67677427016617 1
vertex 218.31068442987532 -51.08026274903369 1
endloop
endfacet
facet normal 0 0 1
outer loop
vertex 218.36440117693934 -112.53427325000001 1
vertex 218.31068442987532 -51.08026274903369 1
vertex 217.96679646700701 -50.5320312908367 1
endloop
endfacet
facet normal 0 0 1
outer loop
vertex 218.36440117693934 -112.53427325000001 1
vertex 217.96679646700701 -50.5320312908367 1
vertex 217.53900158415107 -50.04643042493422 1
endloop
endfacet
facet normal 0 0 1
outer loop
vertex 218.36440117693934 -112.53427325000001 1
vertex 217.53900158415107 -50.04643042493422 1
vertex 217.03849775788214 -49.63617125970768 1
endloop
endfacet
facet normal 0 0 1
outer loop
vertex 218.36440117693934 -112.53427325000001 1
vertex 217.03849775788214 -49.63617125970768 1
vertex 216.47838619708827 -49.31199275605954 1
endloop
endfacet
facet normal 0 0 1
outer loop
vertex 218.36440117693934 -112.53427325000001 1
vertex 216.47838619708827 -49.31199275605954 1
vertex 215.87332840518621 -49.0823806239297 1
endloop
endfacet
facet normal 0 0 1
outer loop
vertex 218.36440117693934 -112.53427325000001 1
vertex 215.87332840518621 -49.0823806239297 1
vertex 215.2391647999999 -48.953340399999995 1
endloop
endfacet
facet normal 0 0 1
outer loop
vertex 218.36440117693934 -112.53427325000001 1
vertex 215.2391647999999 -48.953340399999995 1
vertex 136.17542319999995 -39.439836650000004 1
endloop
endfacet
facet normal 0 0 1
outer loop
vertex 218.36440117693934 -112.53427325000001 1
vertex 136.17542319999995 -39.439836650000004 1
vertex 135.78955771852293 -39.41225052474701 1
endloop
endfacet
facet normal 0 0 1
outer loop
vertex 218.36440117693934 -112.53427325000001 1
vertex 135.78955771852293 -39.41225052474701 1
vertex 135.4028319950197 -39.422067799459995 1
endloop
endfacet
facet normal 0 0 1
outer loop
vertex 218.36440117693934 -112.53427325000001 1
vertex 135.4028319950197 -39.422067799459995 1
vertex 135.0188663999998 -39.46919330000003 1
endloop
endfacet
facet normal 0 0 1
outer loop
vertex 218.36440117693934 -112.53427325000001 1
vertex 135.0188663999998 -39.46919330000003 1
vertex 106.69496285000018 -44.34574164999998 1
endloop
endfacet
facet normal 0 0 1
outer loop
vertex 218.36440117693934 -112.53427325000001 1
vertex 106.69496285000018 -44.34574164999998 1
vertex 106.52578591391872 -44.37863316788724 1
endloop
endfacet
facet normal 0 0 1
outer loop
vertex 218.36440117693934 -112.53427325000001 1
vertex 106.52578591391872 -44.37863316788724 1
vertex 106.3581856999991 -44.418783300000236 1
endloop
endfacet
facet normal 0 0 1
outer loop
vertex 218.36440117693934 -112.53427325000001 1
vertex 106.3581856999991 -44.418783300000236 1
vertex 90.45953499999999 -48.591657399999995 1
endloop
endfacet
facet normal 0 0 1
outer loop
vertex 218.36440117693934 -112.53427325000001 1
vertex 90.45953499999999 -48.591657399999995 1
vertex 89.84052287376434 -48.80979409968271 1
endloop
endfacet
facet normal 0 0 1
outer loop
vertex 218.36440117693934 -112.53427325000001 1
vertex 89.84052287376434 -48.80979409968271 1
vertex 89.26551478577268 -49.12621996923014 1
endloop
endfacet
facet normal 0 0 1
outer loop
vertex 218.36440117693934 -112.53427325000001 1
vertex 89.26551478577268 -49.12621996923014 1
vertex 88.7499913780543 -49.53241604044415 1
endloop
endfacet
facet normal 0 0 1
outer loop
vertex 218.36440117693934 -112.53427325000001 1
vertex 88.7499913780543 -49.53241604044415 1
vertex 88.3078318177025 -50.01744650893531 1
endloop
endfacet
facet normal 0 0 1
outer loop
vertex 218.36440117693934 -112.53427325000001 1
vertex 88.3078318177025 -50.01744650893531 1
vertex 87.95094013531627 -50.568253153065704 1
endloop
endfacet
facet normal 0 0 1
outer loop
vertex 218.36440117693934 -112.53427325000001 1
vertex 87.95094013531627 -50.568253153065704 1
vertex 87.68892473900948 -51.170006893622165 1
endloop
endfacet
facet normal 0 0 1
outer loop
vertex 218.36440117693934 -112.53427325000001 1
vertex 87.68892473900948 -51.170006893622165 1
vertex 87.52883973226615 -51.806507029357434 1
endloop
endfacet
facet normal 0 0 1
outer loop
vertex 218.36440117693934 -112.53427325000001 1
vertex 87.52883973226615 -51.806507029357434 1
vertex 87.475 -52.46061479999993 1
endloop
endfacet
facet normal 0 0 1
outer loop
vertex 218.36440117693934 -112.53427325000001 1
vertex 87.475 -52.46061479999993 1
vertex 87.47500299999999 -108.52557200000003 1
endloop
endfacet
facet normal 0 0 1
outer loop
vertex 218.36440117693934 -112.53427325000001 1
vertex 87.47500299999999 -108.52557200000003 1
vertex 87.53576079131204 -109.22010125042883 1
endloop
endfacet
facet normal 0 0 1
outer loop
vertex 218.36440117693934 -112.53427325000001 1
vertex 87.53576079131204 -109.22010125042883 1
vertex 87.71618842502632 -109.8935314679708 1
endloop
endfacet
facet normal 0 0 1
outer loop
vertex 218.36440117693934 -112.53427325000001 1
vertex 87.71618842502632 -109.8935314679708 1
vertex 88.01080470822598 -110.52540458385697 1
endloop
endfacet
facet normal 0 0 1
outer loop
vertex 218.36440117693934 -112.53427325000001 1
vertex 88.01080470822598 -110.52540458385697 1
vertex 88.41065952250983 -111.09652498832567 1
endloop
endfacet
facet normal 0 0 1
outer loop
vertex 218.36440117693934 -112.53427325000001 1
vertex 88.41065952250983 -111.09652498832567 1
vertex 88.90360571873732 -111.5895426721173 1
endloop
endfacet
facet normal 0 0 1
outer loop
vertex 218.36440117693934 -112.53427325000001 1
vertex 88.90360571873732 -111.5895426721173 1
vertex 89.4746681340496 -111.98948030065955 1
endloop
endfacet
facet normal 0 0 1
outer loop
vertex 218.36440117693934 -112.53427325000001 1
vertex 89.4746681340496 -111.98948030065955 1
vertex 90.10649852083401 -112.28418820900598 1
endloop
endfacet
facet normal 0 0 1
outer loop
vertex 218.36440117693934 -112.53427325000001 1
vertex 90.10649852083401 -112.28418820900598 1
vertex 90.77990256739182 -112.4647134952842 1
endloop
endfacet
facet normal 0 0 1
outer loop
vertex 218.36440117693934 -112.53427325000001 1
vertex 90.77990256739182 -112.4647134952842 1
vertex 91.47442600000025 -112.525574 1
endloop
endfacet
facet normal 0 0 1
outer loop
vertex 218.36440117693934 -112.53427325000001 1
vertex 91.47442600000025 -112.525574 1
vertex 152.0394277499999 -112.53427325000001 1
endloop
endfacet
facet normal -0.9961954010125957 -0.0871477079523828 0
outer loop
vertex 87.53576079131204 -109.22010125042883 1
vertex 87.47500299999999 -108.52557200000003 1
vertex 87.47500299999999 -108.52557200000012 0
endloop
endfacet
facet normal -0.9961954010125957 -0.0871477079523828 0
outer loop
vertex 87.53576079131204 -109.22010125042883 1
vertex 87.47500299999999 -108.52557200000012 0
vertex 87.53576079131204 -109.2201012504289 0
endloop
endfacet
facet normal -0.9659320830677774 -0.2587956933574135 0
outer loop
vertex 87.71618842502632 -109.8935314679708 1
vertex 87.53576079131204 -109.22010125042883 1
vertex 87.53576079131204 -109.2201012504289 0
endloop
endfacet
facet normal -0.9659320830677774 -0.2587956933574135 0
outer loop
vertex 87.71618842502632 -109.8935314679708 1
vertex 87.53576079131204 -109.2201012504289 0
vertex 87.71618842502626 -109.89353146797069 0
endloop
endfacet
facet normal -0.9063248116343888 -0.4225817504529626 0
outer loop
vertex 88.01080470822598 -110.52540458385697 1
vertex 87.71618842502632 -109.8935314679708 1
vertex 87.71618842502626 -109.89353146797069 0
endloop
endfacet
facet normal -0.9063248116343888 -0.4225817504529626 0
outer loop
vertex 88.01080470822598 -110.52540458385697 1
vertex 87.71618842502626 -109.89353146797069 0
vertex 88.01080470822598 -110.52540458385698 0
endloop
endfacet
facet normal -0.819184390009229 -0.5735302391027063 0
outer loop
vertex 88.41065952250983 -111.09652498832567 1
vertex 88.01080470822598 -110.52540458385697 1
vertex 88.01080470822598 -110.52540458385698 0
endloop
endfacet
facet normal -0.819184390009229 -0.5735302391027063 0
outer loop
vertex 88.41065952250983 -111.09652498832567 1
vertex 88.01080470822598 -110.52540458385698 0
vertex 88.4106595225098 -111.09652498832564 0
endloop
endfacet
facet normal -0.7071580482863997 -0.7070555103694265 0
outer loop
vertex 88.90360571873732 -111.5895426721173 1
vertex 88.41065952250983 -111.09652498832567 1
vertex 88.4106595225098 -111.09652498832564 0
endloop
endfacet
facet normal -0.7071580482863997 -0.7070555103694265 0
outer loop
vertex 88.90360571873732 -111.5895426721173 1
vertex 88.4106595225098 -111.09652498832564 0
vertex 88.9036057187373 -111.58954267211728 0
endloop
endfacet
facet normal -0.5736490234208421 -0.8191012134823841 0
outer loop
vertex 89.4746681340496 -111.98948030065955 1
vertex 88.90360571873732 -111.5895426721173 1
vertex 88.9036057187373 -111.58954267211728 0
endloop
endfacet
facet normal -0.5736490234208421 -0.8191012134823841 0
outer loop
vertex 89.4746681340496 -111.98948030065955 1
vertex 88.9036057187373 -111.58954267211728 0
vertex 89.47466813404952 -111.9894803006595 0
endloop
endfacet
facet normal -0.42271317263536196 -0.9062635233090576 0
outer loop
vertex 90.10649852083401 -112.28418820900598 1
vertex 89.4746681340496 -111.98948030065955 1
vertex 89.47466813404952 -111.9894803006595 0
endloop
endfacet
facet normal -0.42271317263536196 -0.9062635233090576 0
outer loop
vertex 90.10649852083401 -112.28418820900598 1
vertex 89.47466813404952 -111.9894803006595 0
vertex 90.10649852083412 -112.284188209006 0
endloop
endfacet
facet normal -0.2589357609428758 -0.9658945448158065 0
outer loop
vertex 90.77990256739182 -112.4647134952842 1
vertex 90.10649852083401 -112.28418820900598 1
vertex 90.10649852083412 -112.284188209006 0
endloop
endfacet
facet normal -0.2589357609428758 -0.9658945448158065 0
outer loop
vertex 90.77990256739182 -112.4647134952842 1
vertex 90.10649852083412 -112.284188209006 0
vertex 90.77990256739194 -112.46471349528423 0
endloop
endfacet
facet normal -0.08729463847572556 -0.9961825365330355 0
outer loop
vertex 91.47442600000025 -112.525574 1
vertex 90.77990256739182 -112.4647134952842 1
vertex 90.77990256739194 -112.46471349528423 0
endloop
endfacet
facet normal -0.08729463847572556 -0.9961825365330355 0
outer loop
vertex 91.47442600000025 -112.525574 1
vertex 90.77990256739194 -112.46471349528423 0
vertex 91.4744259999999 -112.52557399999999 0
endloop
endfacet
facet normal -0.00014363493204427868 -0.9999999896845031 0
outer loop
vertex 152.0394277499999 -112.53427325000001 1
vertex 91.47442600000025 -112.525574 1
vertex 91.4744259999999 -112.52557399999999 0
endloop
endfacet
facet normal -0.00014363493204427868 -0.9999999896845031 0
outer loop
vertex 152.0394277499999 -112.53427325000001 1
vertex 91.4744259999999 -112.52557399999999 0
vertex 152.03942775003173 -112.53427325000001 0
endloop
endfacet
facet normal -0.08247585768330618 -0.9965930628392929 0
outer loop
vertex 152.6958538409682 -112.58859763462303 1
vertex 152.0394277499999 -112.53427325000001 1
vertex 152.03942775003173 -112.53427325000001 0
endloop
endfacet
facet normal -0.08247585768330618 -0.9965930628392929 0
outer loop
vertex 152.6958538409682 -112.58859763462303 1
vertex 152.03942775003173 -112.53427325000001 0
vertex 152.6958538409681 -112.58859763462303 0
endloop
endfacet
facet normal -0.24490702507247875 -0.9695465687991209 0
outer loop
vertex 153.3344652139543 -112.749910578806 1
vertex 152.6958538409682 -112.58859763462303 1
vertex 152.6958538409681 -112.58859763462303 0
endloop
endfacet
facet normal -0.24490702507247875 -0.9695465687991209 0
outer loop
vertex 153.3344652139543 -112.749910578806 1
vertex 152.6958538409681 -112.58859763462303 0
vertex 153.3344652139543 -112.749910578806 0
endloop
endfacet
facet normal -0.40069744125378204 -0.916210434656074 0
outer loop
vertex 153.93794566806474 -113.0138380180296 1
vertex 153.3344652139543 -112.749910578806 1
vertex 153.3344652139543 -112.749910578806 0
endloop
endfacet
facet normal -0.40069744125378204 -0.916210434656074 0
outer loop
vertex 153.93794566806474 -113.0138380180296 1
vertex 153.3344652139543 -112.749910578806 0
vertex 153.9379456680648 -113.01383801802963 0
endloop
endfacet
facet normal -0.5456227872469127 -0.8380308908607785 0
outer loop
vertex 154.48993159121665 -113.37322345500539 1
vertex 153.93794566806474 -113.0138380180296 1
vertex 153.9379456680648 -113.01383801802963 0
endloop
endfacet
facet normal -0.5456227872469127 -0.8380308908607785 0
outer loop
vertex 154.48993159121665 -113.37322345500539 1
vertex 153.9379456680648 -113.01383801802963 0
vertex 154.48993159121667 -113.37322345500539 0
endloop
endfacet
facet normal -0.6757533547629208 -0.7371278067788911 0
outer loop
vertex 154.97545566597714 -113.81832201094139 1
vertex 154.48993159121665 -113.37322345500539 1
vertex 154.48993159121667 -113.37322345500539 0
endloop
endfacet
facet normal -0.6757533547629208 -0.7371278067788911 0
outer loop
vertex 154.97545566597714 -113.81832201094139 1
vertex 154.48993159121667 -113.37322345500539 0
vertex 154.97545566597717 -113.81832201094142 0
endloop
endfacet
facet normal -0.78756060180444 -0.6162372095917518 0
outer loop
vertex 155.38135271431594 -114.3370646617984 1
vertex 154.97545566597714 -113.81832201094139 1
vertex 154.97545566597717 -113.81832201094142 0
endloop
endfacet
facet normal -0.78756060180444 -0.6162372095917518 0
outer loop
vertex 155.38135271431594 -114.3370646617984 1
vertex 154.97545566597717 -113.81832201094142 0
vertex 155.38135271431588 -114.33706466179832 0
endloop
endfacet
facet normal -0.8780128304827868 -0.47863709583316366 0
outer loop
vertex 155.69661667663473 -114.91538549466848 1
vertex 155.38135271431594 -114.3370646617984 1
vertex 155.38135271431588 -114.33706466179832 0
endloop
endfacet
facet normal -0.8780128304827868 -0.47863709583316366 0
outer loop
vertex 155.69661667663473 -114.91538549466848 1
vertex 155.38135271431588 -114.33706466179832 0
vertex 155.69661667663473 -114.9153854946685 0
endloop
endfacet
facet normal -0.9446573927097407 -0.3280585472119802 0
outer loop
vertex 155.91269904544185 -115.5376031105868 1
vertex 155.69661667663473 -114.91538549466848 1
vertex 155.69661667663473 -114.9153854946685 0
endloop
endfacet
facet normal -0.9446573927097407 -0.3280585472119802 0
outer loop
vertex 155.91269904544185 -115.5376031105868 1
vertex 155.69661667663473 -114.9153854946685 0
vertex 155.9126990454418 -115.53760311058667 0
endloop
endfacet
facet normal -0.9856871947239454 -0.16858456085074658 0
outer loop
vertex 156.02374066152683 -116.18684583188974 1
vertex 155.91269904544185 -115.5376031105868 1
vertex 155.9126990454418 -115.53760311058667 0
endloop
endfacet
facet normal -0.9856871947239454 -0.16858456085074658 0
outer loop
vertex 156.02374066152683 -116.18684583188974 1
vertex 155.9126990454418 -115.53760311058667 0
vertex 156.02374066152683 -116.18684583189 0
endloop
endfacet
facet normal -0.9999896971558295 -0.0045393371974569155 0
outer loop
vertex 156.02673058738847 -116.84550918445484 1
vertex 156.02374066152683 -116.18684583188974 1
vertex 156.02374066152683 -116.18684583189 0
endloop
endfacet
facet normal -0.9999896971558295 -0.0045393371974569155 0
outer loop
vertex 156.02673058738847 -116.84550918445484 1
vertex 156.02374066152683 -116.18684583189 0
vertex 156.02673058738847 -116.84550918445495 0
endloop
endfacet
facet normal -0.9871766694068398 0.15963152376275513 0
outer loop
vertex 155.92158550000005 -117.49573649999984 1
vertex 156.02673058738847 -116.84550918445484 1
vertex 156.02673058738847 -116.84550918445495 0
endloop
endfacet
facet normal -0.9871766694068398 0.15963152376275513 0
outer loop
vertex 155.92158550000005 -117.49573649999984 1
vertex 156.02673058738847 -116.84550918445495 0
vertex 155.92158550000008 -117.49573649999965 0
endloop
endfacet
facet normal 0 0 -1
outer loop
vertex 153.13101095000016 -128.76497924999927 1
vertex 153.97672710182226 -125.34970384999997 1
vertex 154.0941747120138 -124.87541240716591 1
endloop
endfacet
facet normal 0 0 -1
outer loop
vertex 153.13101095000016 -128.76497924999927 1
vertex 154.0941747120138 -124.87541240716591 1
vertex 154.22471642973323 -124.34824272234876 1
endloop
endfacet
facet normal 0 0 -1
outer loop
vertex 153.13101095000016 -128.76497924999927 1
vertex 154.22471642973323 -124.34824272234876 1
vertex 154.36531431640947 -123.78046297423502 1
endloop
endfacet
facet normal 0 0 -1
outer loop
vertex 153.13101095000016 -128.76497924999927 1
vertex 154.36531431640947 -123.78046297423502 1
vertex 154.51269640848685 -123.18528641010313 1
endloop
endfacet
facet normal 0 0 -1
outer loop
vertex 153.13101095000016 -128.76497924999927 1
vertex 154.51269640848685 -123.18528641010313 1
vertex 154.66343190848505 -122.57656770000015 1
endloop
endfacet
facet normal 0 0 -1
outer loop
vertex 153.13101095000016 -128.76497924999927 1
vertex 154.66343190848505 -122.57656770000015 1
vertex 155.92158550000005 -117.49573649999984 1
endloop
endfacet
facet normal 0 0 -1
outer loop
vertex 153.13101095000016 -128.76497924999927 1
vertex 155.92158550000005 -117.49573649999984 1
vertex 155.92158550000008 -117.49573649999965 0
endloop
endfacet
facet normal 0 0 -1
outer loop
vertex 153.13101095000016 -128.76497924999927 1
vertex 155.92158550000008 -117.49573649999965 0
vertex 154.66343190848514 -122.57656769999971 0
endloop
endfacet
facet normal 0 0 -1
outer loop
vertex 153.13101095000016 -128.76497924999927 1
vertex 154.66343190848514 -122.57656769999971 0
vertex 154.51269640848676 -123.18528641010343 0
endloop
endfacet
facet normal 0 0 -1
outer loop
vertex 153.13101095000016 -128.76497924999927 1
vertex 154.51269640848676 -123.18528641010343 0
vertex 154.36531431640938 -123.78046297423529 0
endloop
endfacet
facet normal 0 0 -1
outer loop
vertex 153.13101095000016 -128.76497924999927 1
vertex 154.36531431640938 -123.78046297423529 0
vertex 154.22471642973315 -124.34824272234894 0
endloop
endfacet
facet normal 0 0 -1
outer loop
vertex 153.13101095000016 -128.76497924999927 1
vertex 154.22471642973315 -124.34824272234894 0
vertex 154.09417471201374 -124.87541240716602 0
endloop
endfacet
facet normal 0 0 -1
outer loop
vertex 153.13101095000016 -128.76497924999927 1
vertex 154.09417471201374 -124.87541240716602 0
vertex 153.97672710182226 -125.34970385000001 0
endloop
endfacet
facet normal 0 0 -1
outer loop
vertex 153.13101095000016 -128.76497924999927 1
vertex 153.97672710182226 -125.34970385000001 0
vertex 153.13101095000007 -128.76497924999958 0
endloop
endfacet
facet normal -0.9863687829924479 0.1645497612821034 0
outer loop
vertex 153.0291666195754 -129.3754697634647 1
vertex 153.13101095000016 -128.76497924999927 1
vertex 153.13101095000007 -128.76497924999958 0
endloop
endfacet
facet normal -0.9863687829924479 0.1645497612821034 0
outer loop
vertex 153.0291666195754 -129.3754697634647 1
vertex 153.13101095000007 -128.76497924999958 0
vertex 153.0291666195754 -129.37546976346462 0
endloop
endfacet
facet normal -0.9999457649284498 0.01041475883818066 0
outer loop
vertex 153.02272064157978 -129.99436344095503 1
vertex 153.0291666195754 -129.3754697634647 1
vertex 153.0291666195754 -129.37546976346462 0
endloop
endfacet
facet normal -0.9999457649284498 0.01041475883818066 0
outer loop
vertex 153.02272064157978 -129.99436344095503 1
vertex 153.0291666195754 -129.37546976346462 0
vertex 153.02272064157978 -129.99436344095506 0
endloop
endfacet
facet normal -0.9895821119400502 -0.14396959306836285 0
outer loop
vertex 153.11182734518914 -130.6068427712528 1
vertex 153.02272064157978 -129.99436344095503 1
vertex 153.02272064157978 -129.99436344095506 0
endloop
endfacet
facet normal -0.9895821119400502 -0.14396959306836285 0
outer loop
vertex 153.11182734518914 -130.6068427712528 1
vertex 153.02272064157978 -129.99436344095506 0
vertex 153.1118273451891 -130.60684277125276 0
endloop
endfacet
facet normal -0.9555259499170513 -0.29490703456363515 0
outer loop
vertex 153.2943533436386 -131.19824381501232 1
vertex 153.11182734518914 -130.6068427712528 1
vertex 153.1118273451891 -130.60684277125276 0
endloop
endfacet
facet normal -0.9555259499170513 -0.29490703456363515 0
outer loop
vertex 153.2943533436386 -131.19824381501232 1
vertex 153.1118273451891 -130.60684277125276 0
vertex 153.29435334363853 -131.1982438150122 0
endloop
endfacet
facet normal -0.8985926492230553 -0.4387838314731883 0
outer loop
vertex 153.5659286116266 -131.75440728782186 1
vertex 153.2943533436386 -131.19824381501232 1
vertex 153.29435334363853 -131.1982438150122 0
endloop
endfacet
facet normal -0.8985926492230553 -0.4387838314731883 0
outer loop
vertex 153.5659286116266 -131.75440728782186 1
vertex 153.29435334363853 -131.1982438150122 0
vertex 153.56592861162662 -131.7544072878219 0
endloop
endfacet
facet normal -0.8201453031524212 -0.5721552951052915 0
outer loop
vertex 153.92005111216892 -132.2620175608456 1
vertex 153.5659286116266 -131.75440728782186 1
vertex 153.56592861162662 -131.7544072878219 0
endloop
endfacet
facet normal -0.8201453031524212 -0.5721552951052915 0
outer loop
vertex 153.92005111216892 -132.2620175608456 1
vertex 153.56592861162662 -131.7544072878219 0
vertex 153.92005111216895 -132.26201756084563 0
endloop
endfacet
facet normal -0.7220620928416377 -0.6918282547577501 0
outer loop
vertex 154.34824246793676 -132.7089214627261 1
vertex 153.92005111216892 -132.2620175608456 1
vertex 153.92005111216895 -132.26201756084563 0
endloop
endfacet
facet normal -0.7220620928416377 -0.6918282547577501 0
outer loop
vertex 154.34824246793676 -132.7089214627261 1
vertex 153.92005111216895 -132.26201756084563 0
vertex 154.3482424679367 -132.70892146272604 0
endloop
endfacet
facet normal -0.6066898139687891 -0.794938657775879 0
outer loop
vertex 154.8402519 -133.08441850000003 1
vertex 154.34824246793676 -132.7089214627261 1
vertex 154.3482424679367 -132.70892146272604 0
endloop
endfacet
facet normal -0.6066898139687891 -0.794938657775879 0
outer loop
vertex 154.8402519 -133.08441850000003 1
vertex 154.3482424679367 -132.70892146272604 0
vertex 154.8402519000001 -133.08441850000008 0
endloop
endfacet
facet normal -0.5433718222511422 -0.8394921457544873 0
outer loop
vertex 209.3950496500003 -168.39569570000018 1
vertex 154.8402519 -133.08441850000003 1
vertex 154.8402519000001 -133.08441850000008 0
endloop
endfacet
facet normal -0.5433718222511422 -0.8394921457544873 0
outer loop
vertex 209.3950496500003 -168.39569570000018 1
vertex 154.8402519000001 -133.08441850000008 0
vertex 209.39504965000023 -168.39569570000015 0
endloop
endfacet
facet normal -0.47369878270046634 -0.8806869269315268 0
outer loop
vertex 209.964866969217 -168.7021857388782 1
vertex 209.3950496500003 -168.39569570000018 1
vertex 209.39504965000023 -168.39569570000015 0
endloop
endfacet
facet normal -0.47369878270046634 -0.8806869269315268 0
outer loop
vertex 209.964866969217 -168.7021857388782 1
vertex 209.39504965000023 -168.39569570000015 0
vertex 209.96486696921716 -168.70218573887826 0
endloop
endfacet
facet normal -0.3255141329986208 -0.9455371749530297 0
outer loop
vertex 210.57664334715074 -168.9127981426285 1
vertex 209.964866969217 -168.7021857388782 1
vertex 209.96486696921716 -168.70218573887826 0
endloop
endfacet
facet normal -0.3255141329986208 -0.9455371749530297 0
outer loop
vertex 210.57664334715074 -168.9127981426285 1
vertex 209.96486696921716 -168.70218573887826 0
vertex 210.57664334715065 -168.9127981426285 0
endloop
endfacet
facet normal -0.16881265174541246 -0.9856481566008645 0
outer loop
vertex 211.21437211671758 -169.02202239670328 1
vertex 210.57664334715074 -168.9127981426285 1
vertex 210.57664334715065 -168.9127981426285 0
endloop
endfacet
facet normal -0.16881265174541246 -0.9856481566008645 0
outer loop
vertex 211.21437211671758 -169.02202239670328 1
vertex 210.57664334715065 -168.9127981426285 0
vertex 211.2143721167175 -169.02202239670328 0
endloop
endfacet
facet normal -0.007694314900078325 -0.9999703983209796 0
outer loop
vertex 211.86136758609848 -169.02700073095068 1
vertex 211.21437211671758 -169.02202239670328 1
vertex 211.2143721167175 -169.02202239670328 0
endloop
endfacet
facet normal -0.007694314900078325 -0.9999703983209796 0
outer loop
vertex 211.86136758609848 -169.02700073095068 1
vertex 211.2143721167175 -169.02202239670328 0
vertex 211.86136758609857 -169.02700073095068 0
endloop
endfacet
facet normal 0.15362533788604066 -0.9881291694709755 0
outer loop
vertex 212.50070160726986 -168.92760289101335 1
vertex 211.86136758609848 -169.02700073095068 1
vertex 211.86136758609857 -169.02700073095068 0
endloop
endfacet
facet normal 0.15362533788604066 -0.9881291694709755 0
outer loop
vertex 212.50070160726986 -168.92760289101335 1
vertex 211.86136758609857 -169.02700073095068 0
vertex 212.5007016072697 -168.92760289101338 0
endloop
endfacet
facet normal 0.3109254996818445 -0.9504342868644814 0
outer loop
vertex 213.1156464882162 -168.7264295463355 1
vertex 212.50070160726986 -168.92760289101335 1
vertex 212.5007016072697 -168.92760289101338 0
endloop
endfacet
facet normal 0.3109254996818445 -0.9504342868644814 0
outer loop
vertex 213.1156464882162 -168.7264295463355 1
vertex 212.5007016072697 -168.92760289101338 0
vertex 213.11564648821633 -168.72642954633542 0
endloop
endfacet
facet normal 0.4600905305037235 -0.8878720086480947 0
outer loop
vertex 213.69011266036512 -168.42874424560972 1
vertex 213.1156464882162 -168.7264295463355 1
vertex 213.11564648821633 -168.72642954633542 0
endloop
endfacet
facet normal 0.4600905305037235 -0.8878720086480947 0
outer loop
vertex 213.69011266036512 -168.42874424560972 1
vertex 213.11564648821633 -168.72642954633542 0
vertex 213.69011266036517 -168.42874424560966 0
endloop
endfacet
facet normal 0.5972221745441262 -0.8020758531665102 0
outer loop
vertex 214.20906930000038 -168.04233139999974 1
vertex 213.69011266036512 -168.42874424560972 1
vertex 213.69011266036517 -168.42874424560966 0
endloop
endfacet
facet normal 0.5972221745441262 -0.8020758531665102 0
outer loop
vertex 214.20906930000038 -168.04233139999974 1
vertex 213.69011266036517 -168.42874424560966 0
vertex 214.20906930000012 -168.0423313999999 0
endloop
endfacet
facet normal 0.6601317356334826 -0.7511498463086616 0
outer loop
vertex 235.95874229999976 -148.92810345000026 1
vertex 214.20906930000038 -168.04233139999974 1
vertex 214.20906930000012 -168.0423313999999 0
endloop
endfacet
facet normal 0.6601317356334826 -0.7511498463086616 0
outer loop
vertex 235.95874229999976 -148.92810345000026 1
vertex 214.20906930000012 -168.0423313999999 0
vertex 235.9587422999995 -148.92810345000052 0
endloop
endfacet
facet normal 0.7182792863818243 -0.6957548898533285 0
outer loop
vertex 236.40539230989395 -148.46699357488768 1
vertex 235.95874229999976 -148.92810345000026 1
vertex 235.9587422999995 -148.92810345000052 0
endloop
endfacet
facet normal 0.7182792863818243 -0.6957548898533285 0
outer loop
vertex 236.40539230989395 -148.46699357488768 1
vertex 235.9587422999995 -148.92810345000052 0
vertex 236.40539230989395 -148.46699357488768 0
endloop
endfacet
facet normal 0.8203311843494597 -0.5718887549023959 0
outer loop
vertex 236.77252464595142 -147.940369993869 1
vertex 236.40539230989395 -148.46699357488768 1
vertex 236.40539230989395 -148.46699357488768 0
endloop
endfacet
facet normal 0.8203311843494597 -0.5718887549023959 0
outer loop
vertex 236.77252464595142 -147.940369993869 1
vertex 236.40539230989395 -148.46699357488768 0
vertex 236.77252464595122 -147.94036999386933 0
endloop
endfacet
facet normal 0.9012534762678014 -0.43329224723643933 0
outer loop
vertex 237.05068293033767 -147.36179716604963 1
vertex 236.77252464595142 -147.940369993869 1
vertex 236.77252464595122 -147.94036999386933 0
endloop
endfacet
facet normal 0.9012534762678014 -0.43329224723643933 0
outer loop
vertex 237.05068293033767 -147.36179716604963 1
vertex 236.77252464595122 -147.94036999386933 0
vertex 237.05068293033767 -147.36179716604954 0
endloop
endfacet
facet normal 0.958961813545022 -0.28353525382647304 0
outer loop
vertex 237.23270252628117 -146.74617762854564 1
vertex 237.05068293033767 -147.36179716604963 1
vertex 237.05068293033767 -147.36179716604954 0
endloop
endfacet
facet normal 0.958961813545022 -0.28353525382647304 0
outer loop
vertex 237.23270252628117 -146.74617762854564 1
vertex 237.05068293033767 -147.36179716604954 0
vertex 237.23270252628123 -146.7461776285454 0
endloop
endfacet
facet normal 0.9919697789198272 -0.12647512684219506 0
outer loop
vertex 237.31389508055454 -146.1093681457373 1
vertex 237.23270252628117 -146.74617762854564 1
vertex 237.23270252628123 -146.7461776285454 0
endloop
endfacet
facet normal 0.9919697789198272 -0.12647512684219506 0
outer loop
vertex 237.31389508055454 -146.1093681457373 1
vertex 237.23270252628123 -146.7461776285454 0
vertex 237.31389508055457 -146.10936814573728 0
endloop
endfacet
facet normal 0.9994271727189912 0.033842671746242566 0
outer loop
vertex 237.2921692833079 -145.46777128009762 1
vertex 237.31389508055454 -146.1093681457373 1
vertex 237.31389508055457 -146.10936814573728 0
endloop
endfacet
facet normal 0.9994271727189912 0.033842671746242566 0
outer loop
vertex 237.2921692833079 -145.46777128009762 1
vertex 237.31389508055457 -146.10936814573728 0
vertex 237.29216928330797 -145.46777128009785 0
endloop
endfacet
facet normal 0.9811419117983766 0.1932887707877175 0
outer loop
vertex 237.16808473479276 -144.83791290468017 1
vertex 237.2921692833079 -145.46777128009762 1
vertex 237.29216928330797 -145.46777128009785 0
endloop
endfacet
facet normal 0.9811419117983766 0.1932887707877175 0
outer loop
vertex 237.16808473479276 -144.83791290468017 1
vertex 237.29216928330797 -145.46777128009785 0
vertex 237.16808473479279 -144.83791290468025 0
endloop
endfacet
facet normal 0.9375849771070288 0.34775625185352493 0
outer loop
vertex 236.94483753150882 -144.23601653944 1
vertex 237.16808473479276 -144.83791290468017 1
vertex 237.16808473479279 -144.83791290468025 0
endloop
endfacet
facet normal 0.9375849771070288 0.34775625185352493 0
outer loop
vertex 236.94483753150882 -144.23601653944 1
vertex 237.16808473479279 -144.83791290468025 0
vertex 236.94483753150877 -144.23601653943982 0
endloop
endfacet
facet normal 0.8698782824382447 0.4932664328152579 0
outer loop
vertex 236.6281779430382 -143.67758547539154 1
vertex 236.94483753150882 -144.23601653944 1
vertex 236.94483753150877 -144.23601653943982 0
endloop
endfacet
facet normal 0.8698782824382447 0.4932664328152579 0
outer loop
vertex 236.6281779430382 -143.67758547539154 1
vertex 236.94483753150877 -144.23601653943982 0
vertex 236.62817794303837 -143.67758547539177 0
endloop
endfacet
facet normal 0.7797654194224637 0.6260717935452046 0
outer loop
vertex 236.2262646000001 -143.17700690000015 1
vertex 236.6281779430382 -143.67758547539154 1
vertex 236.62817794303837 -143.67758547539177 0
endloop
endfacet
facet normal 0.7797654194224637 0.6260717935452046 0
outer loop
vertex 236.2262646000001 -143.17700690000015 1
vertex 236.62817794303837 -143.67758547539177 0
vertex 236.22626459999984 -143.1770068999998 0
endloop
endfacet
facet normal 0.7270134085413611 0.6866232619137457 0
outer loop
vertex 219.38937984999998 -125.34970384999997 1
vertex 236.2262646000001 -143.17700690000015 1
vertex 236.22626459999984 -143.1770068999998 0
endloop
endfacet
facet normal 0.7270134085413611 0.6866232619137457 0
outer loop
vertex 219.38937984999998 -125.34970384999997 1
vertex 236.22626459999984 -143.1770068999998 0
vertex 219.38937985 -125.34970385000001 0
endloop
endfacet
facet normal 0.7772674222404835 0.6291703698710185 0
outer loop
vertex 219.00545777379307 -124.87541240716591 1
vertex 219.38937984999998 -125.34970384999997 1
vertex 219.38937985 -125.34970385000001 0
endloop
endfacet
facet normal 0.7772674222404835 0.6291703698710185 0
outer loop
vertex 219.00545777379307 -124.87541240716591 1
vertex 219.38937985 -125.34970385000001 0
vertex 219.00545777379315 -124.87541240716602 0
endloop
endfacet
facet normal 0.8639241297551223 0.5036219792928567 0
outer loop
vertex 218.69814578776712 -124.34824272234876 1
vertex 219.00545777379307 -124.87541240716591 1
vertex 219.00545777379315 -124.87541240716602 0
endloop
endfacet
facet normal 0.8639241297551223 0.5036219792928567 0
outer loop
vertex 218.69814578776712 -124.34824272234876 1
vertex 219.00545777379315 -124.87541240716602 0
vertex 218.6981457877672 -124.34824272234894 0
endloop
endfacet
facet normal 0.9304757821050683 0.36635340713027564 0
outer loop
vertex 218.47459558987757 -123.78046297423502 1
vertex 218.69814578776712 -124.34824272234876 1
vertex 218.6981457877672 -124.34824272234894 0
endloop
endfacet
facet normal 0.9304757821050683 0.36635340713027564 0
outer loop
vertex 218.47459558987757 -123.78046297423502 1
vertex 218.6981457877672 -124.34824272234894 0
vertex 218.47459558987765 -123.78046297423529 0
endloop
endfacet
facet normal 0.9753736036562682 0.22055913785328643 0
outer loop
vertex 218.3400095918935 -123.18528641010313 1
vertex 218.47459558987757 -123.78046297423502 1
vertex 218.47459558987765 -123.78046297423529 0
endloop
endfacet
facet normal 0.9753736036562682 0.22055913785328643 0
outer loop
vertex 218.3400095918935 -123.18528641010313 1
vertex 218.47459558987765 -123.78046297423529 0
vertex 218.34000959189353 -123.18528641010343 0
endloop
endfacet
facet normal 0.9975726943657567 0.06963274700774497 0
outer loop
vertex 218.29751970000004 -122.57656770000015 1
vertex 218.3400095918935 -123.18528641010313 1
vertex 218.34000959189353 -123.18528641010343 0
endloop
endfacet
facet normal 0.9975726943657567 0.06963274700774497 0
outer loop
vertex 218.29751970000004 -122.57656770000015 1
vertex 218.34000959189353 -123.18528641010343 0
vertex 218.2975197 -122.57656769999971 0
endloop
endfacet
facet normal 0 0 1
outer loop
vertex 218.76122240000004 -52.95132520000009 1
vertex 218.36440117693934 -112.53427325000001 1
vertex 218.36403937764186 -112.58859763462303 1
endloop
endfacet
facet normal 0 0 1
outer loop
vertex 218.76122240000004 -52.95132520000009 1
vertex 218.36403937764186 -112.58859763462303 1
vertex 218.3629650367121 -112.749910578806 1
endloop
endfacet
facet normal 0 0 1
outer loop
vertex 218.76122240000004 -52.95132520000009 1
vertex 218.3629650367121 -112.749910578806 1
vertex 218.36120728533086 -113.0138380180296 1
endloop
endfacet
facet normal 0 0 1
outer loop
vertex 218.76122240000004 -52.95132520000009 1
vertex 218.36120728533086 -113.0138380180296 1
vertex 218.3588137856247 -113.37322345500539 1
endloop
endfacet
facet normal 0 0 1
outer loop
vertex 218.76122240000004 -52.95132520000009 1
vertex 218.3588137856247 -113.37322345500539 1
vertex 218.35584943828826 -113.81832201094139 1
endloop
endfacet
facet normal 0 0 1
outer loop
vertex 218.76122240000004 -52.95132520000009 1
vertex 218.35584943828826 -113.81832201094139 1
vertex 218.35239462277636 -114.3370646617984 1
endloop
endfacet
facet normal 0 0 1
outer loop
vertex 218.76122240000004 -52.95132520000009 1
vertex 218.35239462277636 -114.3370646617984 1
vertex 218.34854301778313 -114.91538549466848 1
endloop
endfacet
facet normal 0 0 1
outer loop
vertex 218.76122240000004 -52.95132520000009 1
vertex 218.34854301778313 -114.91538549466848 1
vertex 218.34439906110694 -115.5376031105868 1
endloop
endfacet
facet normal 0 0 1
outer loop
vertex 218.76122240000004 -52.95132520000009 1
vertex 218.34439906110694 -115.5376031105868 1
vertex 218.34007511777816 -116.18684583188974 1
endloop
endfacet
facet normal 0 0 1
outer loop
vertex 218.76122240000004 -52.95132520000009 1
vertex 218.34007511777816 -116.18684583188974 1
vertex 218.3356884332366 -116.84550918445484 1
endloop
endfacet
facet normal 0 0 1
outer loop
vertex 218.76122240000004 -52.95132520000009 1
vertex 218.3356884332366 -116.84550918445484 1
vertex 218.33135793253015 -117.49573649999984 1
endloop
endfacet
facet normal 0 0 1
outer loop
vertex 218.76122240000004 -52.95132520000009 1
vertex 218.33135793253015 -117.49573649999984 1
vertex 218.29751970000004 -122.57656770000015 1
endloop
endfacet
facet normal 0 0 1
outer loop
vertex 218.76122240000004 -52.95132520000009 1
vertex 218.29751970000004 -122.57656770000015 1
vertex 218.2975197 -122.57656769999971 0
endloop
endfacet
facet normal 0 0 1
outer loop
vertex 218.76122240000004 -52.95132520000009 1
vertex 218.2975197 -122.57656769999971 0
vertex 218.33135793253018 -117.49573649999965 0
endloop
endfacet
facet normal 0 0 1
outer loop
vertex 218.76122240000004 -52.95132520000009 1
vertex 218.33135793253018 -117.49573649999965 0
vertex 218.3356884332366 -116.84550918445495 0
endloop
endfacet
facet normal 0 0 1
outer loop
vertex 218.76122240000004 -52.95132520000009 1
vertex 218.3356884332366 -116.84550918445495 0
vertex 218.34007511777816 -116.18684583189 0
endloop
endfacet
facet normal 0 0 1
outer loop
vertex 218.76122240000004 -52.95132520000009 1
vertex 218.34007511777816 -116.18684583189 0
vertex 218.34439906110694 -115.53760311058667 0
endloop
endfacet
facet normal 0 0 1
outer loop
vertex 218.76122240000004 -52.95132520000009 1
vertex 218.34439906110694 -115.53760311058667 0
vertex 218.34854301778313 -114.9153854946685 0
endloop
endfacet
facet normal 0 0 1
outer loop
vertex 218.76122240000004 -52.95132520000009 1
vertex 218.34854301778313 -114.9153854946685 0
vertex 218.35239462277636 -114.33706466179832 0
endloop
endfacet
facet normal 0 0 1
outer loop
vertex 218.76122240000004 -52.95132520000009 1
vertex 218.35239462277636 -114.33706466179832 0
vertex 218.35584943828823 -113.81832201094142 0
endloop
endfacet
facet normal 0 0 1
outer loop
vertex 218.76122240000004 -52.95132520000009 1
vertex 218.35584943828823 -113.81832201094142 0
vertex 218.35881378562468 -113.37322345500539 0
endloop
endfacet
facet normal 0 0 1
outer loop
vertex 218.76122240000004 -52.95132520000009 1
vertex 218.35881378562468 -113.37322345500539 0
vertex 218.36120728533086 -113.01383801802963 0
endloop
endfacet
facet normal 0 0 1
outer loop
vertex 218.76122240000004 -52.95132520000009 1
vertex 218.36120728533086 -113.01383801802963 0
vertex 218.36296503671207 -112.749910578806 0
endloop
endfacet
facet normal 0 0 1
outer loop
vertex 218.76122240000004 -52.95132520000009 1
vertex 218.36296503671207 -112.749910578806 0
vertex 218.36403937764183 -112.58859763462303 0
endloop
endfacet
facet normal 0 0 1
outer loop
vertex 218.76122240000004 -52.95132520000009 1
vertex 218.36403937764183 -112.58859763462303 0
vertex 218.36440117693934 -112.53427325000001 0
endloop
endfacet
facet normal 0 0 1
outer loop
vertex 218.76122240000004 -52.95132520000009 1
vertex 218.36440117693934 -112.53427325000001 0
vertex 218.7612224 -52.95132519999974 0
endloop
endfacet
facet normal 0.9972390072834953 0.07425875269777295 0
outer loop
vertex 218.71316507134327 -52.30595154394901 1
vertex 218.76122240000004 -52.95132520000009 1
vertex 218.7612224 -52.95132519999974 0
endloop
endfacet
facet normal 0.9972390072834953 0.07425875269777295 0
outer loop
vertex 218.71316507134327 -52.30595154394901 1
vertex 218.7612224 -52.95132519999974 0
vertex 218.71316507134327 -52.30595154394888 0
endloop
endfacet
facet normal 0.9722121658189937 0.2341014836209749 0
outer loop
vertex 218.56166384719526 -51.67677427016617 1
vertex 218.71316507134327 -52.30595154394901 1
vertex 218.71316507134327 -52.30595154394888 0
endloop
endfacet
facet normal 0.9722121658189937 0.2341014836209749 0
outer loop
vertex 218.56166384719526 -51.67677427016617 1
vertex 218.71316507134327 -52.30595154394888 0
vertex 218.56166384719535 -51.67677427016635 0
endloop
endfacet
facet normal 0.9217366584304197 0.38781636441171985 0
outer loop
vertex 218.31068442987532 -51.08026274903369 1
vertex 218.56166384719526 -51.67677427016617 1
vertex 218.56166384719535 -51.67677427016635 0
endloop
endfacet
facet normal 0.9217366584304197 0.38781636441171985 0
outer loop
vertex 218.31068442987532 -51.08026274903369 1
vertex 218.56166384719535 -51.67677427016635 0
vertex 218.31068442987538 -51.08026274903377 0
endloop
endfacet
facet normal 0.8471337340899664 0.531379747983295 0
outer loop
vertex 217.96679646700701 -50.5320312908367 1
vertex 218.31068442987532 -51.08026274903369 1
vertex 218.31068442987538 -51.08026274903377 0
endloop
endfacet
facet normal 0.8471337340899664 0.531379747983295 0
outer loop
vertex 217.96679646700701 -50.5320312908367 1
vertex 218.31068442987538 -51.08026274903377 0
vertex 217.96679646700696 -50.532031290836606 0
endloop
endfacet
facet normal 0.7503562020354744 0.6610337132604496 0
outer loop
vertex 217.53900158415107 -50.04643042493422 1
vertex 217.96679646700701 -50.5320312908367 1
vertex 217.96679646700696 -50.532031290836606 0
endloop
endfacet
facet normal 0.7503562020354744 0.6610337132604496 0
outer loop
vertex 217.53900158415107 -50.04643042493422 1
vertex 217.96679646700696 -50.532031290836606 0
vertex 217.5390015841511 -50.04643042493423 0
endloop
endfacet
facet normal 0.6339373149547324 0.7733844326775557 0
outer loop
vertex 217.03849775788214 -49.63617125970768 1
vertex 217.53900158415107 -50.04643042493422 1
vertex 217.5390015841511 -50.04643042493423 0
endloop
endfacet
facet normal 0.6339373149547324 0.7733844326775557 0
outer loop
vertex 217.03849775788214 -49.63617125970768 1
vertex 217.5390015841511 -50.04643042493423 0
vertex 217.0384977578822 -49.63617125970771 0
endloop
endfacet
facet normal 0.5009244584583512 0.8654910091492618 0
outer loop
vertex 216.47838619708827 -49.31199275605954 1
vertex 217.03849775788214 -49.63617125970768 1
vertex 217.0384977578822 -49.63617125970771 0
endloop
endfacet
facet normal 0.5009244584583512 0.8654910091492618 0
outer loop
vertex 216.47838619708827 -49.31199275605954 1
vertex 217.0384977578822 -49.63617125970771 0
vertex 216.47838619708824 -49.31199275605952 0
endloop
endfacet
facet normal 0.35479938258777116 0.9349424571145202 0
outer loop
vertex 215.87332840518621 -49.0823806239297 1
vertex 216.47838619708827 -49.31199275605954 1
vertex 216.47838619708824 -49.31199275605952 0
endloop
endfacet
facet normal 0.35479938258777116 0.9349424571145202 0
outer loop
vertex 215.87332840518621 -49.0823806239297 1
vertex 216.47838619708824 -49.31199275605952 0
vertex 215.87332840518627 -49.08238062392971 0
endloop
endfacet
facet normal 0.19939491012561827 0.9799192159642532 0
outer loop
vertex 215.2391647999999 -48.953340399999995 1
vertex 215.87332840518621 -49.0823806239297 1
vertex 215.87332840518627 -49.08238062392971 0
endloop
endfacet
facet normal 0.19939491012561827 0.9799192159642532 0
outer loop
vertex 215.2391647999999 -48.953340399999995 1
vertex 215.87332840518627 -49.08238062392971 0
vertex 215.23916480000003 -48.95334040000001 0
endloop
endfacet
facet normal 0.11946527518695405 0.99283837960894 0
outer loop
vertex 136.17542319999995 -39.439836650000004 1
vertex 215.2391647999999 -48.953340399999995 1
vertex 215.23916480000003 -48.95334040000001 0
endloop
endfacet
facet normal 0.11946527518695405 0.99283837960894 0
outer loop
vertex 136.17542319999995 -39.439836650000004 1
vertex 215.23916480000003 -48.95334040000001 0
vertex 136.1754232 -39.439836650000004 0
endloop
endfacet
facet normal 0.07130955922264091 0.9974542329167153 0
outer loop
vertex 135.78955771852293 -39.41225052474701 1
vertex 136.17542319999995 -39.439836650000004 1
vertex 136.1754232 -39.439836650000004 0
endloop
endfacet
facet normal 0.07130955922264091 0.9974542329167153 0
outer loop
vertex 135.78955771852293 -39.41225052474701 1
vertex 136.1754232 -39.439836650000004 0
vertex 135.78955771852293 -39.41225052474702 0
endloop
endfacet
facet normal -0.02537745066156561 0.9996779406378435 0
outer loop
vertex 135.4028319950197 -39.422067799459995 1
vertex 135.78955771852293 -39.41225052474701 1
vertex 135.78955771852293 -39.41225052474702 0
endloop
endfacet
facet normal -0.02537745066156561 0.9996779406378435 0
outer loop
vertex 135.4028319950197 -39.422067799459995 1
vertex 135.78955771852293 -39.41225052474702 0
vertex 135.40283199501968 -39.42206779946001 0
endloop
endfacet
facet normal -0.12181956607034292 0.9925522622625136 0
outer loop
vertex 135.0188663999998 -39.46919330000003 1
vertex 135.4028319950197 -39.422067799459995 1
vertex 135.40283199501968 -39.42206779946001 0
endloop
endfacet
facet normal -0.12181956607034292 0.9925522622625136 0
outer loop
vertex 135.0188663999998 -39.46919330000003 1
vertex 135.40283199501968 -39.42206779946001 0
vertex 135.0188663999999 -39.469193300000015 0
endloop
endfacet
facet normal -0.16967432865695306 0.9855001888355032 0
outer loop
vertex 106.69496285000018 -44.34574164999998 1
vertex 135.0188663999998 -39.46919330000003 1
vertex 135.0188663999999 -39.469193300000015 0
endloop
endfacet
facet normal -0.16967432865695306 0.9855001888355032 0
outer loop
vertex 106.69496285000018 -44.34574164999998 1
vertex 135.0188663999999 -39.469193300000015 0
vertex 106.69496284999965 -44.345741650000065 0
endloop
endfacet
facet normal -0.19084730948245002 0.9816197351639331 0
outer loop
vertex 106.52578591391872 -44.37863316788724 1
vertex 106.69496285000018 -44.34574164999998 1
vertex 106.69496284999965 -44.345741650000065 0
endloop
endfacet
facet normal -0.19084730948245002 0.9816197351639331 0
outer loop
vertex 106.52578591391872 -44.37863316788724 1
vertex 106.69496284999965 -44.345741650000065 0
vertex 106.52578591391907 -44.37863316788715 0
endloop
endfacet
facet normal -0.23296738244505397 0.9724845493460038 0
outer loop
vertex 106.3581856999991 -44.418783300000236 1
vertex 106.52578591391872 -44.37863316788724 1
vertex 106.52578591391907 -44.37863316788715 0
endloop
endfacet
facet normal -0.23296738244505397 0.9724845493460038 0
outer loop
vertex 106.3581856999991 -44.418783300000236 1
vertex 106.52578591391907 -44.37863316788715 0
vertex 106.35818569999931 -44.41878330000018 0
endloop
endfacet
facet normal -0.2538684347557737 0.9672387594770248 0
outer loop
vertex 90.45953499999999 -48.591657399999995 1
vertex 106.3581856999991 -44.418783300000236 1
vertex 106.35818569999931 -44.41878330000018 0
endloop
endfacet
facet normal -0.2538684347557737 0.9672387594770248 0
outer loop
vertex 90.45953499999999 -48.591657399999995 1
vertex 106.35818569999931 -44.41878330000018 0
vertex 90.45953500000013 -48.59165739999995 0
endloop
endfacet
facet normal -0.3323619049084818 0.943151930584678 0
outer loop
vertex 89.84052287376434 -48.80979409968271 1
vertex 90.45953499999999 -48.591657399999995 1
vertex 90.45953500000013 -48.59165739999995 0
endloop
endfacet
facet normal -0.3323619049084818 0.943151930584678 0
outer loop
vertex 89.84052287376434 -48.80979409968271 1
vertex 90.45953500000013 -48.59165739999995 0
vertex 89.84052287376431 -48.809794099682726 0
endloop
endfacet
facet normal -0.4821192624539639 0.876105596815159 0
outer loop
vertex 89.26551478577268 -49.12621996923014 1
vertex 89.84052287376434 -48.80979409968271 1
vertex 89.84052287376431 -48.809794099682726 0
endloop
endfacet
facet normal -0.4821192624539639 0.876105596815159 0
outer loop
vertex 89.26551478577268 -49.12621996923014 1
vertex 89.84052287376431 -48.809794099682726 0
vertex 89.26551478577257 -49.126219969230206 0
endloop
endfacet
facet normal -0.6188967752395075 0.7854723302562214 0
outer loop
vertex 88.7499913780543 -49.53241604044415 1
vertex 89.26551478577268 -49.12621996923014 1
vertex 89.26551478577257 -49.126219969230206 0
endloop
endfacet
facet normal -0.6188967752395075 0.7854723302562214 0
outer loop
vertex 88.7499913780543 -49.53241604044415 1
vertex 89.26551478577257 -49.126219969230206 0
vertex 88.74999137805432 -49.53241604044412 0
endloop
endfacet
facet normal -0.7390120538215152 0.6736922029432327 0
outer loop
vertex 88.3078318177025 -50.01744650893531 1
vertex 88.7499913780543 -49.53241604044415 1
vertex 88.74999137805432 -49.53241604044412 0
endloop
endfacet
facet normal -0.7390120538215152 0.6736922029432327 0
outer loop
vertex 88.3078318177025 -50.01744650893531 1
vertex 88.74999137805432 -49.53241604044412 0
vertex 88.3078318177025 -50.0174465089353 0
endloop
endfacet
facet normal -0.8392312973737084 0.5437746127840488 0
outer loop
vertex 87.95094013531627 -50.568253153065704 1
vertex 88.3078318177025 -50.01744650893531 1
vertex 88.3078318177025 -50.0174465089353 0
endloop
endfacet
facet normal -0.8392312973737084 0.5437746127840488 0
outer loop
vertex 87.95094013531627 -50.568253153065704 1
vertex 88.3078318177025 -50.0174465089353 0
vertex 87.95094013531623 -50.56825315306576 0
endloop
endfacet
facet normal -0.91685635561549 0.3992172631130601 0
outer loop
vertex 87.68892473900948 -51.170006893622165 1
vertex 87.95094013531627 -50.568253153065704 1
vertex 87.95094013531623 -50.56825315306576 0
endloop
endfacet
facet normal -0.91685635561549 0.3992172631130601 0
outer loop
vertex 87.68892473900948 -51.170006893622165 1
vertex 87.95094013531623 -50.56825315306576 0
vertex 87.68892473900947 -51.17000689362215 0
endloop
endfacet
facet normal -0.9697973697008794 0.2439119958535367 0
outer loop
vertex 87.52883973226615 -51.806507029357434 1
vertex 87.68892473900948 -51.170006893622165 1
vertex 87.68892473900947 -51.17000689362215 0
endloop
endfacet
facet normal -0.9697973697008794 0.2439119958535367 0
outer loop
vertex 87.52883973226615 -51.806507029357434 1
vertex 87.68892473900947 -51.17000689362215 0
vertex 87.52883973226616 -51.80650702935729 0
endloop
endfacet
facet normal -0.9966296325993214 0.08203277043317318 0
outer loop
vertex 87.475 -52.46061479999993 1
vertex 87.52883973226615 -51.806507029357434 1
vertex 87.52883973226616 -51.80650702935729 0
endloop
endfacet
facet normal -0.9966296325993214 0.08203277043317318 0
outer loop
vertex 87.475 -52.46061479999993 1
vertex 87.52883973226616 -51.80650702935729 0
vertex 87.475 -52.46061480000001 0
endloop
endfacet
facet normal -0.9999999999999986 -5.350935339265562e-8 0
outer loop
vertex 87.47500299999999 -108.52557200000003 1
vertex 87.475 -52.46061479999993 1
vertex 87.475 -52.46061480000001 0
endloop
endfacet
facet normal -0.9999999999999986 -5.350935339265562e-8 0
outer loop
vertex 87.47500299999999 -108.52557200000003 1
vertex 87.475 -52.46061480000001 0
vertex 87.47500299999999 -108.52557200000012 0
endloop
endfacet
endsolid csg.js
