solid csg.js
facet normal 0 0 -1
outer loop
vertex 136.17542320000007 -39.439836650000004 0
vertex 214.85292469999996 -48.90686529999999 0
vertex 215.5310569570863 -49.04889799517305 0
endloop
endfacet
facet normal 0 0 -1
outer loop
vertex 136.17542320000007 -39.439836650000004 0
vertex 215.5310569570863 -49.04889799517305 0
vertex 216.17450423212188 -49.30582095548399 0
endloop
endfacet
facet normal 0 0 -1
outer loop
vertex 136.17542320000007 -39.439836650000004 0
vertex 216.17450423212188 -49.30582095548399 0
vertex 216.763964397441 -49.66992329932092 0
endloop
endfacet
facet normal 0 0 -1
outer loop
vertex 136.17542320000007 -39.439836650000004 0
vertex 216.763964397441 -49.66992329932092 0
vertex 217.28175240272833 -50.13028118712766 0
endloop
endfacet
facet normal 0 0 -1
outer loop
vertex 136.17542320000007 -39.439836650000004 0
vertex 217.28175240272833 -50.13028118712766 0
vertex 217.71233351389205 -50.67308290966969 0
endloop
endfacet
facet normal 0 0 -1
outer loop
vertex 136.17542320000007 -39.439836650000004 0
vertex 217.71233351389205 -50.67308290966969 0
vertex 218.04278938790594 -51.282043268490234 0
endloop
endfacet
facet normal 0 0 -1
outer loop
vertex 136.17542320000007 -39.439836650000004 0
vertex 218.04278938790594 -51.282043268490234 0
vertex 218.26320565039416 -51.93889216627185 0
endloop
endfacet
facet normal 0 0 -1
outer loop
vertex 136.17542320000007 -39.439836650000004 0
vertex 218.26320565039416 -51.93889216627185 0
vertex 218.3669693478069 -52.623922748351426 0
endloop
endfacet
facet normal 0 0 -1
outer loop
vertex 136.17542320000007 -39.439836650000004 0
vertex 218.3669693478069 -52.623922748351426 0
vertex 218.35096735 -53.31658264999978 0
endloop
endfacet
facet normal 0 0 -1
outer loop
vertex 136.17542320000007 -39.439836650000004 0
vertex 218.35096735 -53.31658264999978 0
vertex 211.8219076103208 -112.53427325 0
endloop
endfacet
facet normal 0 0 -1
outer loop
vertex 136.17542320000007 -39.439836650000004 0
vertex 211.8219076103208 -112.53427325 0
vertex 152.03942775004535 -112.53427325 0
endloop
endfacet
facet normal 0 0 -1
outer loop
vertex 136.17542320000007 -39.439836650000004 0
vertex 152.03942775004535 -112.53427325 0
vertex 91.4744259999999 -112.52557399999999 0
endloop
endfacet
facet normal 0 0 -1
outer loop
vertex 136.17542320000007 -39.439836650000004 0
vertex 91.4744259999999 -112.52557399999999 0
vertex 90.77990256739194 -112.46471349528423 0
endloop
endfacet
facet normal 0 0 -1
outer loop
vertex 136.17542320000007 -39.439836650000004 0
vertex 90.77990256739194 -112.46471349528423 0
vertex 90.10649852083412 -112.284188209006 0
endloop
endfacet
facet normal 0 0 -1
outer loop
vertex 136.17542320000007 -39.439836650000004 0
vertex 90.10649852083412 -112.284188209006 0
vertex 89.47466813404952 -111.9894803006595 0
endloop
endfacet
facet normal 0 0 -1
outer loop
vertex 136.17542320000007 -39.439836650000004 0
vertex 89.47466813404952 -111.9894803006595 0
vertex 88.9036057187373 -111.58954267211728 0
endloop
endfacet
facet normal 0 0 -1
outer loop
vertex 136.17542320000007 -39.439836650000004 0
vertex 88.9036057187373 -111.58954267211728 0
vertex 88.4106595225098 -111.09652498832564 0
endloop
endfacet
facet normal 0 0 -1
outer loop
vertex 136.17542320000007 -39.439836650000004 0
vertex 88.4106595225098 -111.09652498832564 0
vertex 88.01080470822598 -110.52540458385698 0
endloop
endfacet
facet normal 0 0 -1
outer loop
vertex 136.17542320000007 -39.439836650000004 0
vertex 88.01080470822598 -110.52540458385698 0
vertex 87.71618842502626 -109.89353146797069 0
endloop
endfacet
facet normal 0 0 -1
outer loop
vertex 136.17542320000007 -39.439836650000004 0
vertex 87.71618842502626 -109.89353146797069 0
vertex 87.53576079131204 -109.2201012504289 0
endloop
endfacet
facet normal 0 0 -1
outer loop
vertex 136.17542320000007 -39.439836650000004 0
vertex 87.53576079131204 -109.2201012504289 0
vertex 87.47500299999999 -108.52557200000012 0
endloop
endfacet
facet normal 0 0 -1
outer loop
vertex 136.17542320000007 -39.439836650000004 0
vertex 87.47500299999999 -108.52557200000012 0
vertex 87.475 -52.460614799999945 0
endloop
endfacet
facet normal 0 0 -1
outer loop
vertex 136.17542320000007 -39.439836650000004 0
vertex 87.475 -52.460614799999945 0
vertex 87.52883973226615 -51.8065070293574 0
endloop
endfacet
facet normal 0 0 -1
outer loop
vertex 136.17542320000007 -39.439836650000004 0
vertex 87.52883973226615 -51.8065070293574 0
vertex 87.6889247390095 -51.17000689362211 0
endloop
endfacet
facet normal 0 0 -1
outer loop
vertex 136.17542320000007 -39.439836650000004 0
vertex 87.6889247390095 -51.17000689362211 0
vertex 87.95094013531622 -50.568253153065804 0
endloop
endfacet
facet normal 0 0 -1
outer loop
vertex 136.17542320000007 -39.439836650000004 0
vertex 87.95094013531622 -50.568253153065804 0
vertex 88.30783181770254 -50.017446508935286 0
endloop
endfacet
facet normal 0 0 -1
outer loop
vertex 136.17542320000007 -39.439836650000004 0
vertex 88.30783181770254 -50.017446508935286 0
vertex 88.74999137805433 -49.53241604044411 0
endloop
endfacet
facet normal 0 0 -1
outer loop
vertex 136.17542320000007 -39.439836650000004 0
vertex 88.74999137805433 -49.53241604044411 0
vertex 89.26551478577258 -49.12621996923021 0
endloop
endfacet
facet normal 0 0 -1
outer loop
vertex 136.17542320000007 -39.439836650000004 0
vertex 89.26551478577258 -49.12621996923021 0
vertex 89.84052287376447 -48.809794099682655 0
endloop
endfacet
facet normal 0 0 -1
outer loop
vertex 136.17542320000007 -39.439836650000004 0
vertex 89.84052287376447 -48.809794099682655 0
vertex 90.45953499999997 -48.59165739999999 0
endloop
endfacet
facet normal 0 0 -1
outer loop
vertex 136.17542320000007 -39.439836650000004 0
vertex 90.45953499999997 -48.59165739999999 0
vertex 106.3581856999995 -44.41878330000013 0
endloop
endfacet
facet normal 0 0 -1
outer loop
vertex 136.17542320000007 -39.439836650000004 0
vertex 106.3581856999995 -44.41878330000013 0
vertex 106.52578591391861 -44.37863316788726 0
endloop
endfacet
facet normal 0 0 -1
outer loop
vertex 136.17542320000007 -39.439836650000004 0
vertex 106.52578591391861 -44.37863316788726 0
vertex 106.69496285000017 -44.34574164999998 0
endloop
endfacet
facet normal 0 0 -1
outer loop
vertex 136.17542320000007 -39.439836650000004 0
vertex 106.69496285000017 -44.34574164999998 0
vertex 135.01886639999987 -39.469193300000015 0
endloop
endfacet
facet normal 0 0 -1
outer loop
vertex 136.17542320000007 -39.439836650000004 0
vertex 135.01886639999987 -39.469193300000015 0
vertex 135.40283199501965 -39.42206779946001 0
endloop
endfacet
facet normal 0 0 -1
outer loop
vertex 136.17542320000007 -39.439836650000004 0
vertex 135.40283199501965 -39.42206779946001 0
vertex 135.7895577185229 -39.41225052474702 0
endloop
endfacet
facet normal 0 0 -1
outer loop
vertex 211.8219076103208 -112.53427325 0
vertex 211.8159180631275 -112.58859763462303 0
vertex 152.6958538409682 -112.58859763462303 0
endloop
endfacet
facet normal 0 0 -1
outer loop
vertex 211.8219076103208 -112.53427325 0
vertex 152.6958538409682 -112.58859763462303 0
vertex 152.03942775004535 -112.53427325 0
endloop
endfacet
facet normal 0 0 -1
outer loop
vertex 211.8159180631275 -112.58859763462303 0
vertex 211.79813246833845 -112.74991057880604 0
vertex 153.3344652139544 -112.74991057880604 0
endloop
endfacet
facet normal 0 0 -1
outer loop
vertex 211.8159180631275 -112.58859763462303 0
vertex 153.3344652139544 -112.74991057880604 0
vertex 152.6958538409682 -112.58859763462303 0
endloop
endfacet
facet normal 0 0 -1
outer loop
vertex 211.79813246833845 -112.74991057880604 0
vertex 211.76903308941687 -113.01383801802965 0
vertex 153.93794566806483 -113.01383801802965 0
endloop
endfacet
facet normal 0 0 -1
outer loop
vertex 211.79813246833845 -112.74991057880604 0
vertex 153.93794566806483 -113.01383801802965 0
vertex 153.3344652139544 -112.74991057880604 0
endloop
endfacet
facet normal 0 0 -1
outer loop
vertex 211.76903308941687 -113.01383801802965 0
vertex 211.72940896757405 -113.37322345500537 0
vertex 154.48993159121665 -113.37322345500537 0
endloop
endfacet
facet normal 0 0 -1
outer loop
vertex 211.76903308941687 -113.01383801802965 0
vertex 154.48993159121665 -113.37322345500537 0
vertex 153.93794566806483 -113.01383801802965 0
endloop
endfacet
facet normal 0 0 -1
outer loop
vertex 211.72940896757405 -113.37322345500537 0
vertex 211.68033452660367 -113.81832201094137 0
vertex 154.97545566597714 -113.81832201094137 0
endloop
endfacet
facet normal 0 0 -1
outer loop
vertex 211.72940896757405 -113.37322345500537 0
vertex 154.97545566597714 -113.81832201094137 0
vertex 154.48993159121665 -113.37322345500537 0
endloop
endfacet
facet normal 0 0 -1
outer loop
vertex 211.68033452660367 -113.81832201094137 0
vertex 211.62314043945423 -114.33706466179841 0
vertex 155.38135271431594 -114.33706466179841 0
endloop
endfacet
facet normal 0 0 -1
outer loop
vertex 211.68033452660367 -113.81832201094137 0
vertex 155.38135271431594 -114.33706466179841 0
vertex 154.97545566597714 -113.81832201094137 0
endloop
endfacet
facet normal 0 0 -1
outer loop
vertex 211.62314043945423 -114.33706466179841 0
vertex 211.5593775465036 -114.91538549466844 0
vertex 155.6966166766347 -114.91538549466844 0
endloop
endfacet
facet normal 0 0 -1
outer loop
vertex 211.62314043945423 -114.33706466179841 0
vertex 155.6966166766347 -114.91538549466844 0
vertex 155.38135271431594 -114.33706466179841 0
endloop
endfacet
facet normal 0 0 -1
outer loop
vertex 211.5593775465036 -114.91538549466844 0
vertex 211.4907748039068 -115.53760311058672 0
vertex 155.9126990454418 -115.53760311058672 0
endloop
endfacet
facet normal 0 0 -1
outer loop
vertex 211.5593775465036 -114.91538549466844 0
vertex 155.9126990454418 -115.53760311058672 0
vertex 155.6966166766347 -114.91538549466844 0
endloop
endfacet
facet normal 0 0 -1
outer loop
vertex 211.4907748039068 -115.53760311058672 0
vertex 211.4764235 -115.66776749999991 0
vertex 155.9349613884499 -115.66776749999991 0
endloop
endfacet
facet normal 0 0 -1
outer loop
vertex 211.4907748039068 -115.53760311058672 0
vertex 155.9349613884499 -115.66776749999991 0
vertex 155.9126990454418 -115.53760311058672 0
endloop
endfacet
facet normal 0 0 -1
outer loop
vertex 211.4764235 -115.66776749999991 0
vertex 211.45749011372607 -116.18684583189004 0
vertex 156.02374066152683 -116.18684583189004 0
endloop
endfacet
facet normal 0 0 -1
outer loop
vertex 211.4764235 -115.66776749999991 0
vertex 156.02374066152683 -116.18684583189004 0
vertex 155.9349613884499 -115.66776749999991 0
endloop
endfacet
facet normal 0 0 -1
outer loop
vertex 211.45749011372607 -116.18684583189004 0
vertex 211.45505367762362 -116.25364324306135 0
vertex 156.02404388062408 -116.25364324306135 0
endloop
endfacet
facet normal 0 0 -1
outer loop
vertex 211.45749011372607 -116.18684583189004 0
vertex 156.02404388062408 -116.25364324306135 0
vertex 156.02374066152683 -116.18684583189004 0
endloop
endfacet
facet normal 0 0 -1
outer loop
vertex 211.45505367762362 -116.25364324306135 0
vertex 211.51954859490633 -116.83634911697008 0
vertex 156.026689006325 -116.83634911697008 0
endloop
endfacet
facet normal 0 0 -1
outer loop
vertex 211.45505367762362 -116.25364324306135 0
vertex 156.026689006325 -116.83634911697008 0
vertex 156.02404388062408 -116.25364324306135 0
endloop
endfacet
facet normal 0 0 -1
outer loop
vertex 211.51954859490633 -116.83634911697008 0
vertex 211.5219552895729 -116.84550918445495 0
vertex 156.02673058738847 -116.84550918445495 0
endloop
endfacet
facet normal 0 0 -1
outer loop
vertex 211.51954859490633 -116.83634911697008 0
vertex 156.02673058738847 -116.84550918445495 0
vertex 156.026689006325 -116.83634911697008 0
endloop
endfacet
facet normal 0 0 -1
outer loop
vertex 211.5219552895729 -116.84550918445495 0
vertex 211.66852604730954 -117.40336891249598 0
vertex 155.93652181200628 -117.40336891249598 0
endloop
endfacet
facet normal 0 0 -1
outer loop
vertex 211.5219552895729 -116.84550918445495 0
vertex 155.93652181200628 -117.40336891249598 0
vertex 156.02673058738847 -116.84550918445495 0
endloop
endfacet
facet normal 0 0 -1
outer loop
vertex 211.66852604730954 -117.40336891249598 0
vertex 211.70797408050117 -117.49573649999965 0
vertex 155.92158550000008 -117.49573649999965 0
endloop
endfacet
facet normal 0 0 -1
outer loop
vertex 211.66852604730954 -117.40336891249598 0
vertex 155.92158550000008 -117.49573649999965 0
vertex 155.93652181200628 -117.40336891249598 0
endloop
endfacet
facet normal 0 0 -1
outer loop
vertex 211.70797408050117 -117.49573649999965 0
vertex 211.89878575958284 -117.94252213259827 0
vertex 155.81094908517662 -117.94252213259827 0
endloop
endfacet
facet normal 0 0 -1
outer loop
vertex 211.70797408050117 -117.49573649999965 0
vertex 155.81094908517662 -117.94252213259827 0
vertex 155.92158550000008 -117.49573649999965 0
endloop
endfacet
facet normal 0 0 -1
outer loop
vertex 211.89878575958284 -117.94252213259827 0
vertex 212.20538138282237 -118.44222689908854 0
vertex 155.68720843686364 -118.44222689908854 0
endloop
endfacet
facet normal 0 0 -1
outer loop
vertex 211.89878575958284 -117.94252213259827 0
vertex 155.68720843686364 -118.44222689908854 0
vertex 155.81094908517662 -117.94252213259827 0
endloop
endfacet
facet normal 0 0 -1
outer loop
vertex 212.20538138282237 -118.44222689908854 0
vertex 212.58172674999994 -118.89174874999993 0
vertex 155.5758944591057 -118.89174874999993 0
endloop
endfacet
facet normal 0 0 -1
outer loop
vertex 212.20538138282237 -118.44222689908854 0
vertex 155.5758944591057 -118.89174874999993 0
vertex 155.68720843686364 -118.44222689908854 0
endloop
endfacet
facet normal 0 0 -1
outer loop
vertex 212.58172674999994 -118.89174874999993 0
vertex 236.1463150000002 -143.17522890000023 0
vertex 236.55807095732814 -143.67476188758957 0
endloop
endfacet
facet normal 0 0 -1
outer loop
vertex 212.58172674999994 -118.89174874999993 0
vertex 236.55807095732814 -143.67476188758957 0
vertex 236.88385164861998 -144.23417720947185 0
endloop
endfacet
facet normal 0 0 -1
outer loop
vertex 212.58172674999994 -118.89174874999993 0
vertex 236.88385164861998 -144.23417720947185 0
vertex 237.1151265924152 -144.83881798013456 0
endloop
endfacet
facet normal 0 0 -1
outer loop
vertex 212.58172674999994 -118.89174874999993 0
vertex 237.1151265924152 -144.83881798013456 0
vertex 237.24583814054628 -145.47284720056567 0
endloop
endfacet
facet normal 0 0 -1
outer loop
vertex 212.58172674999994 -118.89174874999993 0
vertex 237.24583814054628 -145.47284720056567 0
vertex 237.2725626425432 -146.1196581174245 0
endloop
endfacet
facet normal 0 0 -1
outer loop
vertex 212.58172674999994 -118.89174874999993 0
vertex 237.2725626425432 -146.1196581174245 0
vertex 237.19460011929058 -146.7623091939377 0
endloop
endfacet
facet normal 0 0 -1
outer loop
vertex 212.58172674999994 -118.89174874999993 0
vertex 237.19460011929058 -146.7623091939377 0
vertex 237.01399259716797 -147.38396784957416 0
endloop
endfacet
facet normal 0 0 -1
outer loop
vertex 212.58172674999994 -118.89174874999993 0
vertex 237.01399259716797 -147.38396784957416 0
vertex 236.73547062245672 -147.96835134590077 0
endloop
endfacet
facet normal 0 0 -1
outer loop
vertex 212.58172674999994 -118.89174874999993 0
vertex 236.73547062245672 -147.96835134590077 0
vertex 236.3663293569338 -148.50015327074004 0
endloop
endfacet
facet normal 0 0 -1
outer loop
vertex 212.58172674999994 -118.89174874999993 0
vertex 236.3663293569338 -148.50015327074004 0
vertex 235.91623749999997 -148.96544445000004 0
endloop
endfacet
facet normal 0 0 -1
outer loop
vertex 212.58172674999994 -118.89174874999993 0
vertex 235.91623749999997 -148.96544445000004 0
vertex 214.20906930000015 -168.0423313999999 0
endloop
endfacet
facet normal 0 0 -1
outer loop
vertex 212.58172674999994 -118.89174874999993 0
vertex 214.20906930000015 -168.0423313999999 0
vertex 213.69011266036517 -168.42874424560966 0
endloop
endfacet
facet normal 0 0 -1
outer loop
vertex 212.58172674999994 -118.89174874999993 0
vertex 213.69011266036517 -168.42874424560966 0
vertex 213.11564648821633 -168.72642954633542 0
endloop
endfacet
facet normal 0 0 -1
outer loop
vertex 212.58172674999994 -118.89174874999993 0
vertex 213.11564648821633 -168.72642954633542 0
vertex 212.5007016072697 -168.92760289101338 0
endloop
endfacet
facet normal 0 0 -1
outer loop
vertex 212.58172674999994 -118.89174874999993 0
vertex 212.5007016072697 -168.92760289101338 0
vertex 211.86136758609857 -169.02700073095068 0
endloop
endfacet
facet normal 0 0 -1
outer loop
vertex 212.58172674999994 -118.89174874999993 0
vertex 211.86136758609857 -169.02700073095068 0
vertex 211.2143721167175 -169.02202239670328 0
endloop
endfacet
facet normal 0 0 -1
outer loop
vertex 212.58172674999994 -118.89174874999993 0
vertex 211.2143721167175 -169.02202239670328 0
vertex 210.57664334715065 -168.9127981426285 0
endloop
endfacet
facet normal 0 0 -1
outer loop
vertex 212.58172674999994 -118.89174874999993 0
vertex 210.57664334715065 -168.9127981426285 0
vertex 209.96486696921716 -168.70218573887826 0
endloop
endfacet
facet normal 0 0 -1
outer loop
vertex 212.58172674999994 -118.89174874999993 0
vertex 209.96486696921716 -168.70218573887826 0
vertex 209.39504965000023 -168.39569570000015 0
endloop
endfacet
facet normal 0 0 -1
outer loop
vertex 212.58172674999994 -118.89174874999993 0
vertex 209.39504965000023 -168.39569570000015 0
vertex 154.8402519000001 -133.08441850000008 0
endloop
endfacet
facet normal 0 0 -1
outer loop
vertex 212.58172674999994 -118.89174874999993 0
vertex 154.8402519000001 -133.08441850000008 0
vertex 154.3482424679367 -132.70892146272604 0
endloop
endfacet
facet normal 0 0 -1
outer loop
vertex 212.58172674999994 -118.89174874999993 0
vertex 154.3482424679367 -132.70892146272604 0
vertex 153.92005111216895 -132.26201756084563 0
endloop
endfacet
facet normal 0 0 -1
outer loop
vertex 212.58172674999994 -118.89174874999993 0
vertex 153.92005111216895 -132.26201756084563 0
vertex 153.56592861162662 -131.7544072878219 0
endloop
endfacet
facet normal 0 0 -1
outer loop
vertex 212.58172674999994 -118.89174874999993 0
vertex 153.56592861162662 -131.7544072878219 0
vertex 153.29435334363853 -131.1982438150122 0
endloop
endfacet
facet normal 0 0 -1
outer loop
vertex 212.58172674999994 -118.89174874999993 0
vertex 153.29435334363853 -131.1982438150122 0
vertex 153.1118273451891 -130.60684277125276 0
endloop
endfacet
facet normal 0 0 -1
outer loop
vertex 212.58172674999994 -118.89174874999993 0
vertex 153.1118273451891 -130.60684277125276 0
vertex 153.02272064157978 -129.99436344095506 0
endloop
endfacet
facet normal 0 0 -1
outer loop
vertex 212.58172674999994 -118.89174874999993 0
vertex 153.02272064157978 -129.99436344095506 0
vertex 153.0291666195754 -129.37546976346462 0
endloop
endfacet
facet normal 0 0 -1
outer loop
vertex 212.58172674999994 -118.89174874999993 0
vertex 153.0291666195754 -129.37546976346462 0
vertex 153.13101095000002 -128.76497924999993 0
endloop
endfacet
facet normal 0 0 -1
outer loop
vertex 212.58172674999994 -118.89174874999993 0
vertex 153.13101095000002 -128.76497924999993 0
vertex 155.5758944591057 -118.89174874999993 0
endloop
endfacet
facet normal 0 0 1
outer loop
vertex 212.50070160726986 -168.92760289101335 1
vertex 213.11564648821624 -168.72642954633548 1
vertex 213.69011266036497 -168.42874424560978 1
endloop
endfacet
facet normal 0 0 1
outer loop
vertex 212.50070160726986 -168.92760289101335 1
vertex 213.69011266036497 -168.42874424560978 1
vertex 214.20906930000018 -168.04233139999985 1
endloop
endfacet
facet normal 0 0 1
outer loop
vertex 212.50070160726986 -168.92760289101335 1
vertex 214.20906930000018 -168.04233139999985 1
vertex 235.91623749999928 -148.96544445000066 1
endloop
endfacet
facet normal 0 0 1
outer loop
vertex 212.50070160726986 -168.92760289101335 1
vertex 235.91623749999928 -148.96544445000066 1
vertex 236.36632935693393 -148.50015327073984 1
endloop
endfacet
facet normal 0 0 1
outer loop
vertex 212.50070160726986 -168.92760289101335 1
vertex 236.36632935693393 -148.50015327073984 1
vertex 236.7354706224568 -147.96835134590066 1
endloop
endfacet
facet normal 0 0 1
outer loop
vertex 212.50070160726986 -168.92760289101335 1
vertex 236.7354706224568 -147.96835134590066 1
vertex 237.01399259716806 -147.38396784957408 1
endloop
endfacet
facet normal 0 0 1
outer loop
vertex 212.50070160726986 -168.92760289101335 1
vertex 237.01399259716806 -147.38396784957408 1
vertex 237.1946001192906 -146.7623091939378 1
endloop
endfacet
facet normal 0 0 1
outer loop
vertex 212.50070160726986 -168.92760289101335 1
vertex 237.1946001192906 -146.7623091939378 1
vertex 237.27256264254322 -146.11965811742468 1
endloop
endfacet
facet normal 0 0 1
outer loop
vertex 212.50070160726986 -168.92760289101335 1
vertex 237.27256264254322 -146.11965811742468 1
vertex 237.2458381405463 -145.47284720056575 1
endloop
endfacet
facet normal 0 0 1
outer loop
vertex 212.50070160726986 -168.92760289101335 1
vertex 237.2458381405463 -145.47284720056575 1
vertex 237.1151265924152 -144.8388179801345 1
endloop
endfacet
facet normal 0 0 1
outer loop
vertex 212.50070160726986 -168.92760289101335 1
vertex 237.1151265924152 -144.8388179801345 1
vertex 236.88385164862 -144.2341772094719 1
endloop
endfacet
facet normal 0 0 1
outer loop
vertex 212.50070160726986 -168.92760289101335 1
vertex 236.88385164862 -144.2341772094719 1
vertex 236.5580709573281 -143.67476188758957 1
endloop
endfacet
facet normal 0 0 1
outer loop
vertex 212.50070160726986 -168.92760289101335 1
vertex 236.5580709573281 -143.67476188758957 1
vertex 236.14631500000004 -143.1752289000001 1
endloop
endfacet
facet normal 0 0 1
outer loop
vertex 212.50070160726986 -168.92760289101335 1
vertex 236.14631500000004 -143.1752289000001 1
vertex 212.58172675000014 -118.89174875000013 1
endloop
endfacet
facet normal 0 0 1
outer loop
vertex 212.50070160726986 -168.92760289101335 1
vertex 212.58172675000014 -118.89174875000013 1
vertex 155.57589445910563 -118.89174875000013 1
endloop
endfacet
facet normal 0 0 1
outer loop
vertex 212.50070160726986 -168.92760289101335 1
vertex 155.57589445910563 -118.89174875000013 1
vertex 153.13101095000005 -128.76497924999995 1
endloop
endfacet
facet normal 0 0 1
outer loop
vertex 212.50070160726986 -168.92760289101335 1
vertex 153.13101095000005 -128.76497924999995 1
vertex 153.0291666195754 -129.3754697634647 1
endloop
endfacet
facet normal 0 0 1
outer loop
vertex 212.50070160726986 -168.92760289101335 1
vertex 153.0291666195754 -129.3754697634647 1
vertex 153.02272064157978 -129.99436344095503 1
endloop
endfacet
facet normal 0 0 1
outer loop
vertex 212.50070160726986 -168.92760289101335 1
vertex 153.02272064157978 -129.99436344095503 1
vertex 153.11182734518914 -130.6068427712528 1
endloop
endfacet
facet normal 0 0 1
outer loop
vertex 212.50070160726986 -168.92760289101335 1
vertex 153.11182734518914 -130.6068427712528 1
vertex 153.2943533436386 -131.19824381501232 1
endloop
endfacet
facet normal 0 0 1
outer loop
vertex 212.50070160726986 -168.92760289101335 1
vertex 153.2943533436386 -131.19824381501232 1
vertex 153.5659286116266 -131.75440728782186 1
endloop
endfacet
facet normal 0 0 1
outer loop
vertex 212.50070160726986 -168.92760289101335 1
vertex 153.5659286116266 -131.75440728782186 1
vertex 153.92005111216892 -132.2620175608456 1
endloop
endfacet
facet normal 0 0 1
outer loop
vertex 212.50070160726986 -168.92760289101335 1
vertex 153.92005111216892 -132.2620175608456 1
vertex 154.34824246793676 -132.7089214627261 1
endloop
endfacet
facet normal 0 0 1
outer loop
vertex 212.50070160726986 -168.92760289101335 1
vertex 154.34824246793676 -132.7089214627261 1
vertex 154.8402519 -133.08441850000003 1
endloop
endfacet
facet normal 0 0 1
outer loop
vertex 212.50070160726986 -168.92760289101335 1
vertex 154.8402519 -133.08441850000003 1
vertex 209.3950496500003 -168.39569570000018 1
endloop
endfacet
facet normal 0 0 1
outer loop
vertex 212.50070160726986 -168.92760289101335 1
vertex 209.3950496500003 -168.39569570000018 1
vertex 209.964866969217 -168.7021857388782 1
endloop
endfacet
facet normal 0 0 1
outer loop
vertex 212.50070160726986 -168.92760289101335 1
vertex 209.964866969217 -168.7021857388782 1
vertex 210.57664334715074 -168.9127981426285 1
endloop
endfacet
facet normal 0 0 1
outer loop
vertex 212.50070160726986 -168.92760289101335 1
vertex 210.57664334715074 -168.9127981426285 1
vertex 211.21437211671758 -169.02202239670328 1
endloop
endfacet
facet normal 0 0 1
outer loop
vertex 212.50070160726986 -168.92760289101335 1
vertex 211.21437211671758 -169.02202239670328 1
vertex 211.8613675860986 -169.02700073095068 1
endloop
endfacet
facet normal 0 0 1
outer loop
vertex 212.58172675000014 -118.89174875000013 1
vertex 212.20538138282225 -118.44222689908841 1
vertex 155.68720843686364 -118.44222689908841 1
endloop
endfacet
facet normal 0 0 1
outer loop
vertex 212.58172675000014 -118.89174875000013 1
vertex 155.68720843686364 -118.44222689908841 1
vertex 155.57589445910563 -118.89174875000013 1
endloop
endfacet
facet normal 0 0 1
outer loop
vertex 212.20538138282225 -118.44222689908841 1
vertex 211.89878575958295 -117.9425221325985 1
vertex 155.81094908517656 -117.9425221325985 1
endloop
endfacet
facet normal 0 0 1
outer loop
vertex 212.20538138282225 -118.44222689908841 1
vertex 155.81094908517656 -117.9425221325985 1
vertex 155.68720843686364 -118.44222689908841 1
endloop
endfacet
facet normal 0 0 1
outer loop
vertex 211.89878575958295 -117.9425221325985 1
vertex 211.70797408050126 -117.49573649999985 1
vertex 155.92158550000005 -117.49573649999985 1
endloop
endfacet
facet normal 0 0 1
outer loop
vertex 211.89878575958295 -117.9425221325985 1
vertex 155.92158550000005 -117.49573649999985 1
vertex 155.81094908517656 -117.9425221325985 1
endloop
endfacet
facet normal 0 0 1
outer loop
vertex 211.70797408050126 -117.49573649999985 1
vertex 211.6685260473096 -117.40336891249608 1
vertex 155.93652181200625 -117.40336891249608 1
endloop
endfacet
facet normal 0 0 1
outer loop
vertex 211.70797408050126 -117.49573649999985 1
vertex 155.93652181200625 -117.40336891249608 1
vertex 155.92158550000005 -117.49573649999985 1
endloop
endfacet
facet normal 0 0 1
outer loop
vertex 211.6685260473096 -117.40336891249608 1
vertex 211.52195528957287 -116.84550918445484 1
vertex 156.02673058738847 -116.84550918445484 1
endloop
endfacet
facet normal 0 0 1
outer loop
vertex 211.6685260473096 -117.40336891249608 1
vertex 156.02673058738847 -116.84550918445484 1
vertex 155.93652181200625 -117.40336891249608 1
endloop
endfacet
facet normal 0 0 1
outer loop
vertex 211.52195528957287 -116.84550918445484 1
vertex 211.51954859490633 -116.83634911697008 1
vertex 156.026689006325 -116.83634911697008 1
endloop
endfacet
facet normal 0 0 1
outer loop
vertex 211.52195528957287 -116.84550918445484 1
vertex 156.026689006325 -116.83634911697008 1
vertex 156.02673058738847 -116.84550918445484 1
endloop
endfacet
facet normal 0 0 1
outer loop
vertex 211.51954859490633 -116.83634911697008 1
vertex 211.45505367762362 -116.25364324306138 1
vertex 156.02404388062408 -116.25364324306138 1
endloop
endfacet
facet normal 0 0 1
outer loop
vertex 211.51954859490633 -116.83634911697008 1
vertex 156.02404388062408 -116.25364324306138 1
vertex 156.026689006325 -116.83634911697008 1
endloop
endfacet
facet normal 0 0 1
outer loop
vertex 211.45505367762362 -116.25364324306138 1
vertex 211.45749011372607 -116.18684583188974 1
vertex 156.02374066152683 -116.18684583188974 1
endloop
endfacet
facet normal 0 0 1
outer loop
vertex 211.45505367762362 -116.25364324306138 1
vertex 156.02374066152683 -116.18684583188974 1
vertex 156.02404388062408 -116.25364324306138 1
endloop
endfacet
facet normal 0 0 1
outer loop
vertex 211.45749011372607 -116.18684583188974 1
vertex 211.4764235 -115.66776750000002 1
vertex 155.93496138844995 -115.66776750000002 1
endloop
endfacet
facet normal 0 0 1
outer loop
vertex 211.45749011372607 -116.18684583188974 1
vertex 155.93496138844995 -115.66776750000002 1
vertex 156.02374066152683 -116.18684583188974 1
endloop
endfacet
facet normal 0 0 1
outer loop
vertex 211.4764235 -115.66776750000002 1
vertex 211.4907748039068 -115.5376031105868 1
vertex 155.91269904544185 -115.5376031105868 1
endloop
endfacet
facet normal 0 0 1
outer loop
vertex 211.4764235 -115.66776750000002 1
vertex 155.91269904544185 -115.5376031105868 1
vertex 155.93496138844995 -115.66776750000002 1
endloop
endfacet
facet normal 0 0 1
outer loop
vertex 211.4907748039068 -115.5376031105868 1
vertex 211.55937754650364 -114.91538549466848 1
vertex 155.69661667663473 -114.91538549466848 1
endloop
endfacet
facet normal 0 0 1
outer loop
vertex 211.4907748039068 -115.5376031105868 1
vertex 155.69661667663473 -114.91538549466848 1
vertex 155.91269904544185 -115.5376031105868 1
endloop
endfacet
facet normal 0 0 1
outer loop
vertex 211.55937754650364 -114.91538549466848 1
vertex 211.62314043945423 -114.3370646617984 1
vertex 155.38135271431594 -114.3370646617984 1
endloop
endfacet
facet normal 0 0 1
outer loop
vertex 211.55937754650364 -114.91538549466848 1
vertex 155.38135271431594 -114.3370646617984 1
vertex 155.69661667663473 -114.91538549466848 1
endloop
endfacet
facet normal 0 0 1
outer loop
vertex 211.62314043945423 -114.3370646617984 1
vertex 211.68033452660367 -113.81832201094139 1
vertex 154.97545566597714 -113.81832201094139 1
endloop
endfacet
facet normal 0 0 1
outer loop
vertex 211.62314043945423 -114.3370646617984 1
vertex 154.97545566597714 -113.81832201094139 1
vertex 155.38135271431594 -114.3370646617984 1
endloop
endfacet
facet normal 0 0 1
outer loop
vertex 211.68033452660367 -113.81832201094139 1
vertex 211.72940896757405 -113.37322345500539 1
vertex 154.48993159121665 -113.37322345500539 1
endloop
endfacet
facet normal 0 0 1
outer loop
vertex 211.68033452660367 -113.81832201094139 1
vertex 154.48993159121665 -113.37322345500539 1
vertex 154.97545566597714 -113.81832201094139 1
endloop
endfacet
facet normal 0 0 1
outer loop
vertex 211.72940896757405 -113.37322345500539 1
vertex 211.76903308941687 -113.0138380180296 1
vertex 153.93794566806474 -113.0138380180296 1
endloop
endfacet
facet normal 0 0 1
outer loop
vertex 211.72940896757405 -113.37322345500539 1
vertex 153.93794566806474 -113.0138380180296 1
vertex 154.48993159121665 -113.37322345500539 1
endloop
endfacet
facet normal 0 0 1
outer loop
vertex 211.76903308941687 -113.0138380180296 1
vertex 211.79813246833848 -112.749910578806 1
vertex 153.3344652139543 -112.749910578806 1
endloop
endfacet
facet normal 0 0 1
outer loop
vertex 211.76903308941687 -113.0138380180296 1
vertex 153.3344652139543 -112.749910578806 1
vertex 153.93794566806474 -113.0138380180296 1
endloop
endfacet
facet normal 0 0 1
outer loop
vertex 211.79813246833848 -112.749910578806 1
vertex 211.8159180631275 -112.58859763462303 1
vertex 152.6958538409682 -112.58859763462303 1
endloop
endfacet
facet normal 0 0 1
outer loop
vertex 211.79813246833848 -112.749910578806 1
vertex 152.6958538409682 -112.58859763462303 1
vertex 153.3344652139543 -112.749910578806 1
endloop
endfacet
facet normal 0 0 1
outer loop
vertex 211.8159180631275 -112.58859763462303 1
vertex 211.82190761032075 -112.53427325000001 1
vertex 152.0394277499999 -112.53427325000001 1
endloop
endfacet
facet normal 0 0 1
outer loop
vertex 211.8159180631275 -112.58859763462303 1
vertex 152.0394277499999 -112.53427325000001 1
vertex 152.6958538409682 -112.58859763462303 1
endloop
endfacet
facet normal 0 0 1
outer loop
vertex 211.82190761032075 -112.53427325000001 1
vertex 218.35096734999996 -53.316582649999866 1
vertex 218.36696934780687 -52.62392274835111 1
endloop
endfacet
facet normal 0 0 1
outer loop
vertex 211.82190761032075 -112.53427325000001 1
vertex 218.36696934780687 -52.62392274835111 1
vertex 218.26320565039416 -51.938892166271756 1
endloop
endfacet
facet normal 0 0 1
outer loop
vertex 211.82190761032075 -112.53427325000001 1
vertex 218.26320565039416 -51.938892166271756 1
vertex 218.04278938790603 -51.282043268490355 1
endloop
endfacet
facet normal 0 0 1
outer loop
vertex 211.82190761032075 -112.53427325000001 1
vertex 218.04278938790603 -51.282043268490355 1
vertex 217.71233351389208 -50.67308290966973 1
endloop
endfacet
facet normal 0 0 1
outer loop
vertex 211.82190761032075 -112.53427325000001 1
vertex 217.71233351389208 -50.67308290966973 1
vertex 217.28175240272836 -50.13028118712771 1
endloop
endfacet
facet normal 0 0 1
outer loop
vertex 211.82190761032075 -112.53427325000001 1
vertex 217.28175240272836 -50.13028118712771 1
vertex 216.7639643974409 -49.669923299320864 1
endloop
endfacet
facet normal 0 0 1
outer loop
vertex 211.82190761032075 -112.53427325000001 1
vertex 216.7639643974409 -49.669923299320864 1
vertex 216.17450423212185 -49.30582095548396 1
endloop
endfacet
facet normal 0 0 1
outer loop
vertex 211.82190761032075 -112.53427325000001 1
vertex 216.17450423212185 -49.30582095548396 1
vertex 215.53105695708643 -49.048897995173085 1
endloop
endfacet
facet normal 0 0 1
outer loop
vertex 211.82190761032075 -112.53427325000001 1
vertex 215.53105695708643 -49.048897995173085 1
vertex 214.8529246999999 -48.906865299999986 1
endloop
endfacet
facet normal 0 0 1
outer loop
vertex 211.82190761032075 -112.53427325000001 1
vertex 214.8529246999999 -48.906865299999986 1
vertex 136.17542320000004 -39.439836650000004 1
endloop
endfacet
facet normal 0 0 1
outer loop
vertex 211.82190761032075 -112.53427325000001 1
vertex 136.17542320000004 -39.439836650000004 1
vertex 135.7895577185229 -39.41225052474701 1
endloop
endfacet
facet normal 0 0 1
outer loop
vertex 211.82190761032075 -112.53427325000001 1
vertex 135.7895577185229 -39.41225052474701 1
vertex 135.4028319950197 -39.422067799459995 1
endloop
endfacet
facet normal 0 0 1
outer loop
vertex 211.82190761032075 -112.53427325000001 1
vertex 135.4028319950197 -39.422067799459995 1
vertex 135.0188663999998 -39.46919330000003 1
endloop
endfacet
facet normal 0 0 1
outer loop
vertex 211.82190761032075 -112.53427325000001 1
vertex 135.0188663999998 -39.46919330000003 1
vertex 106.69496285000018 -44.34574164999998 1
endloop
endfacet
facet normal 0 0 1
outer loop
vertex 211.82190761032075 -112.53427325000001 1
vertex 106.69496285000018 -44.34574164999998 1
vertex 106.52578591391872 -44.37863316788724 1
endloop
endfacet
facet normal 0 0 1
outer loop
vertex 211.82190761032075 -112.53427325000001 1
vertex 106.52578591391872 -44.37863316788724 1
vertex 106.3581856999991 -44.418783300000236 1
endloop
endfacet
facet normal 0 0 1
outer loop
vertex 211.82190761032075 -112.53427325000001 1
vertex 106.3581856999991 -44.418783300000236 1
vertex 90.45953499999999 -48.591657399999995 1
endloop
endfacet
facet normal 0 0 1
outer loop
vertex 211.82190761032075 -112.53427325000001 1
vertex 90.45953499999999 -48.591657399999995 1
vertex 89.84052287376434 -48.80979409968271 1
endloop
endfacet
facet normal 0 0 1
outer loop
vertex 211.82190761032075 -112.53427325000001 1
vertex 89.84052287376434 -48.80979409968271 1
vertex 89.26551478577268 -49.12621996923014 1
endloop
endfacet
facet normal 0 0 1
outer loop
vertex 211.82190761032075 -112.53427325000001 1
vertex 89.26551478577268 -49.12621996923014 1
vertex 88.7499913780543 -49.53241604044415 1
endloop
endfacet
facet normal 0 0 1
outer loop
vertex 211.82190761032075 -112.53427325000001 1
vertex 88.7499913780543 -49.53241604044415 1
vertex 88.3078318177025 -50.01744650893531 1
endloop
endfacet
facet normal 0 0 1
outer loop
vertex 211.82190761032075 -112.53427325000001 1
vertex 88.3078318177025 -50.01744650893531 1
vertex 87.95094013531627 -50.568253153065704 1
endloop
endfacet
facet normal 0 0 1
outer loop
vertex 211.82190761032075 -112.53427325000001 1
vertex 87.95094013531627 -50.568253153065704 1
vertex 87.68892473900948 -51.170006893622165 1
endloop
endfacet
facet normal 0 0 1
outer loop
vertex 211.82190761032075 -112.53427325000001 1
vertex 87.68892473900948 -51.170006893622165 1
vertex 87.52883973226615 -51.806507029357434 1
endloop
endfacet
facet normal 0 0 1
outer loop
vertex 211.82190761032075 -112.53427325000001 1
vertex 87.52883973226615 -51.806507029357434 1
vertex 87.475 -52.46061479999993 1
endloop
endfacet
facet normal 0 0 1
outer loop
vertex 211.82190761032075 -112.53427325000001 1
vertex 87.475 -52.46061479999993 1
vertex 87.47500299999999 -108.52557200000003 1
endloop
endfacet
facet normal 0 0 1
outer loop
vertex 211.82190761032075 -112.53427325000001 1
vertex 87.47500299999999 -108.52557200000003 1
vertex 87.53576079131204 -109.22010125042883 1
endloop
endfacet
facet normal 0 0 1
outer loop
vertex 211.82190761032075 -112.53427325000001 1
vertex 87.53576079131204 -109.22010125042883 1
vertex 87.71618842502632 -109.8935314679708 1
endloop
endfacet
facet normal 0 0 1
outer loop
vertex 211.82190761032075 -112.53427325000001 1
vertex 87.71618842502632 -109.8935314679708 1
vertex 88.01080470822598 -110.52540458385697 1
endloop
endfacet
facet normal 0 0 1
outer loop
vertex 211.82190761032075 -112.53427325000001 1
vertex 88.01080470822598 -110.52540458385697 1
vertex 88.41065952250986 -111.0965249883257 1
endloop
endfacet
facet normal 0 0 1
outer loop
vertex 211.82190761032075 -112.53427325000001 1
vertex 88.41065952250986 -111.0965249883257 1
vertex 88.90360571873732 -111.5895426721173 1
endloop
endfacet
facet normal 0 0 1
outer loop
vertex 211.82190761032075 -112.53427325000001 1
vertex 88.90360571873732 -111.5895426721173 1
vertex 89.4746681340496 -111.98948030065955 1
endloop
endfacet
facet normal 0 0 1
outer loop
vertex 211.82190761032075 -112.53427325000001 1
vertex 89.4746681340496 -111.98948030065955 1
vertex 90.10649852083401 -112.28418820900598 1
endloop
endfacet
facet normal 0 0 1
outer loop
vertex 211.82190761032075 -112.53427325000001 1
vertex 90.10649852083401 -112.28418820900598 1
vertex 90.77990256739184 -112.4647134952842 1
endloop
endfacet
facet normal 0 0 1
outer loop
vertex 211.82190761032075 -112.53427325000001 1
vertex 90.77990256739184 -112.4647134952842 1
vertex 91.47442600000022 -112.525574 1
endloop
endfacet
facet normal 0 0 1
outer loop
vertex 211.82190761032075 -112.53427325000001 1
vertex 91.47442600000022 -112.525574 1
vertex 152.0394277499999 -112.53427325000001 1
endloop
endfacet
facet normal -0.9961954010125957 -0.0871477079523828 0
outer loop
vertex 87.53576079131204 -109.22010125042883 1
vertex 87.47500299999999 -108.52557200000003 1
vertex 87.47500299999999 -108.52557200000012 0
endloop
endfacet
facet normal -0.9961954010125957 -0.0871477079523828 0
outer loop
vertex 87.53576079131204 -109.22010125042883 1
vertex 87.47500299999999 -108.52557200000012 0
vertex 87.53576079131204 -109.2201012504289 0
endloop
endfacet
facet normal -0.9659320830677776 -0.25879569335741304 0
outer loop
vertex 87.71618842502632 -109.8935314679708 1
vertex 87.53576079131204 -109.22010125042883 1
vertex 87.53576079131204 -109.2201012504289 0
endloop
endfacet
facet normal -0.9659320830677776 -0.25879569335741304 0
outer loop
vertex 87.71618842502632 -109.8935314679708 1
vertex 87.53576079131204 -109.2201012504289 0
vertex 87.71618842502626 -109.89353146797069 0
endloop
endfacet
facet normal -0.9063248116343837 -0.42258175045297336 0
outer loop
vertex 88.01080470822598 -110.52540458385697 1
vertex 87.71618842502632 -109.8935314679708 1
vertex 87.71618842502626 -109.89353146797069 0
endloop
endfacet
facet normal -0.9063248116343837 -0.42258175045297336 0
outer loop
vertex 88.01080470822598 -110.52540458385697 1
vertex 87.71618842502626 -109.89353146797069 0
vertex 88.01080470822598 -110.52540458385698 0
endloop
endfacet
facet normal -0.819184390009229 -0.5735302391027063 0
outer loop
vertex 88.41065952250986 -111.0965249883257 1
vertex 88.01080470822598 -110.52540458385697 1
vertex 88.01080470822598 -110.52540458385698 0
endloop
endfacet
facet normal -0.819184390009229 -0.5735302391027063 0
outer loop
vertex 88.41065952250986 -111.0965249883257 1
vertex 88.01080470822598 -110.52540458385698 0
vertex 88.4106595225098 -111.09652498832564 0
endloop
endfacet
facet normal -0.7071580482863997 -0.7070555103694265 0
outer loop
vertex 88.90360571873732 -111.5895426721173 1
vertex 88.41065952250986 -111.0965249883257 1
vertex 88.4106595225098 -111.09652498832564 0
endloop
endfacet
facet normal -0.7071580482863997 -0.7070555103694265 0
outer loop
vertex 88.90360571873732 -111.5895426721173 1
vertex 88.4106595225098 -111.09652498832564 0
vertex 88.9036057187373 -111.58954267211728 0
endloop
endfacet
facet normal -0.5736490234208421 -0.8191012134823841 0
outer loop
vertex 89.4746681340496 -111.98948030065955 1
vertex 88.90360571873732 -111.5895426721173 1
vertex 88.9036057187373 -111.58954267211728 0
endloop
endfacet
facet normal -0.5736490234208421 -0.8191012134823841 0
outer loop
vertex 89.4746681340496 -111.98948030065955 1
vertex 88.9036057187373 -111.58954267211728 0
vertex 89.47466813404952 -111.9894803006595 0
endloop
endfacet
facet normal -0.42271317263537633 -0.9062635233090509 0
outer loop
vertex 90.10649852083401 -112.28418820900598 1
vertex 89.4746681340496 -111.98948030065955 1
vertex 89.47466813404952 -111.9894803006595 0
endloop
endfacet
facet normal -0.42271317263537633 -0.9062635233090509 0
outer loop
vertex 90.10649852083401 -112.28418820900598 1
vertex 89.47466813404952 -111.9894803006595 0
vertex 90.10649852083412 -112.284188209006 0
endloop
endfacet
facet normal -0.2589357609428758 -0.9658945448158065 0
outer loop
vertex 90.77990256739184 -112.4647134952842 1
vertex 90.10649852083401 -112.28418820900598 1
vertex 90.10649852083412 -112.284188209006 0
endloop
endfacet
facet normal -0.2589357609428758 -0.9658945448158065 0
outer loop
vertex 90.77990256739184 -112.4647134952842 1
vertex 90.10649852083412 -112.284188209006 0
vertex 90.77990256739194 -112.46471349528423 0
endloop
endfacet
facet normal -0.08729463847572556 -0.9961825365330355 0
outer loop
vertex 91.47442600000022 -112.525574 1
vertex 90.77990256739184 -112.4647134952842 1
vertex 90.77990256739194 -112.46471349528423 0
endloop
endfacet
facet normal -0.08729463847572556 -0.9961825365330355 0
outer loop
vertex 91.47442600000022 -112.525574 1
vertex 90.77990256739194 -112.46471349528423 0
vertex 91.4744259999999 -112.52557399999999 0
endloop
endfacet
facet normal -0.0001436349320442787 -0.9999999896845031 0
outer loop
vertex 152.0394277499999 -112.53427325000001 1
vertex 91.47442600000022 -112.525574 1
vertex 91.4744259999999 -112.52557399999999 0
endloop
endfacet
facet normal -0.0001436349320442787 -0.9999999896845031 0
outer loop
vertex 152.0394277499999 -112.53427325000001 1
vertex 91.4744259999999 -112.52557399999999 0
vertex 152.03942775004535 -112.53427325 0
endloop
endfacet
facet normal -0.08247585768332044 -0.9965930628392918 0
outer loop
vertex 152.6958538409682 -112.58859763462303 1
vertex 152.0394277499999 -112.53427325000001 1
vertex 152.03942775004535 -112.53427325 0
endloop
endfacet
facet normal -0.08247585768332044 -0.9965930628392918 0
outer loop
vertex 152.6958538409682 -112.58859763462303 1
vertex 152.03942775004535 -112.53427325 0
vertex 152.6958538409682 -112.58859763462303 0
endloop
endfacet
facet normal -0.24490702507247875 -0.9695465687991209 0
outer loop
vertex 153.3344652139543 -112.749910578806 1
vertex 152.6958538409682 -112.58859763462303 1
vertex 152.6958538409682 -112.58859763462303 0
endloop
endfacet
facet normal -0.24490702507247875 -0.9695465687991209 0
outer loop
vertex 153.3344652139543 -112.749910578806 1
vertex 152.6958538409682 -112.58859763462303 0
vertex 153.3344652139544 -112.74991057880604 0
endloop
endfacet
facet normal -0.4006974412537688 -0.9162104346560798 0
outer loop
vertex 153.93794566806474 -113.0138380180296 1
vertex 153.3344652139543 -112.749910578806 1
vertex 153.3344652139544 -112.74991057880604 0
endloop
endfacet
facet normal -0.4006974412537688 -0.9162104346560798 0
outer loop
vertex 153.93794566806474 -113.0138380180296 1
vertex 153.3344652139544 -112.74991057880604 0
vertex 153.93794566806483 -113.01383801802965 0
endloop
endfacet
facet normal -0.5456227872469127 -0.8380308908607785 0
outer loop
vertex 154.48993159121665 -113.37322345500539 1
vertex 153.93794566806474 -113.0138380180296 1
vertex 153.93794566806483 -113.01383801802965 0
endloop
endfacet
facet normal -0.5456227872469127 -0.8380308908607785 0
outer loop
vertex 154.48993159121665 -113.37322345500539 1
vertex 153.93794566806483 -113.01383801802965 0
vertex 154.48993159121665 -113.37322345500537 0
endloop
endfacet
facet normal -0.6757533547629208 -0.7371278067788911 0
outer loop
vertex 154.97545566597714 -113.81832201094139 1
vertex 154.48993159121665 -113.37322345500539 1
vertex 154.48993159121665 -113.37322345500537 0
endloop
endfacet
facet normal -0.6757533547629208 -0.7371278067788911 0
outer loop
vertex 154.97545566597714 -113.81832201094139 1
vertex 154.48993159121665 -113.37322345500537 0
vertex 154.97545566597714 -113.81832201094137 0
endloop
endfacet
facet normal -0.7875606018044508 -0.6162372095917377 0
outer loop
vertex 155.38135271431594 -114.3370646617984 1
vertex 154.97545566597714 -113.81832201094139 1
vertex 154.97545566597714 -113.81832201094137 0
endloop
endfacet
facet normal -0.7875606018044508 -0.6162372095917377 0
outer loop
vertex 155.38135271431594 -114.3370646617984 1
vertex 154.97545566597714 -113.81832201094137 0
vertex 155.38135271431594 -114.33706466179841 0
endloop
endfacet
facet normal -0.8780128304827868 -0.47863709583316366 0
outer loop
vertex 155.69661667663473 -114.91538549466848 1
vertex 155.38135271431594 -114.3370646617984 1
vertex 155.38135271431594 -114.33706466179841 0
endloop
endfacet
facet normal -0.8780128304827868 -0.47863709583316366 0
outer loop
vertex 155.69661667663473 -114.91538549466848 1
vertex 155.38135271431594 -114.33706466179841 0
vertex 155.6966166766347 -114.91538549466844 0
endloop
endfacet
facet normal -0.9446573927097405 -0.3280585472119801 0
outer loop
vertex 155.91269904544185 -115.5376031105868 1
vertex 155.69661667663473 -114.91538549466848 1
vertex 155.6966166766347 -114.91538549466844 0
endloop
endfacet
facet normal -0.9446573927097405 -0.3280585472119801 0
outer loop
vertex 155.91269904544185 -115.5376031105868 1
vertex 155.6966166766347 -114.91538549466844 0
vertex 155.9126990454418 -115.53760311058672 0
endloop
endfacet
facet normal 0 0 -1
outer loop
vertex 156.02374066152683 -116.18684583188974 1
vertex 155.93496138844995 -115.66776750000002 1
vertex 155.91269904544185 -115.5376031105868 1
endloop
endfacet
facet normal 0 0 -1
outer loop
vertex 156.02374066152683 -116.18684583188974 1
vertex 155.91269904544185 -115.5376031105868 1
vertex 155.9126990454418 -115.53760311058672 0
endloop
endfacet
facet normal 0 0 -1
outer loop
vertex 156.02374066152683 -116.18684583188974 1
vertex 155.9126990454418 -115.53760311058672 0
vertex 155.9349613884499 -115.66776749999991 0
endloop
endfacet
facet normal 0 0 -1
outer loop
vertex 156.02374066152683 -116.18684583188974 1
vertex 155.9349613884499 -115.66776749999991 0
vertex 156.02374066152683 -116.18684583189004 0
endloop
endfacet
facet normal 0 0 -1
outer loop
vertex 156.02673058738847 -116.84550918445484 1
vertex 156.026689006325 -116.83634911697008 1
vertex 156.02404388062408 -116.25364324306138 1
endloop
endfacet
facet normal 0 0 -1
outer loop
vertex 156.02673058738847 -116.84550918445484 1
vertex 156.02404388062408 -116.25364324306138 1
vertex 156.02374066152683 -116.18684583188974 1
endloop
endfacet
facet normal 0 0 -1
outer loop
vertex 156.02673058738847 -116.84550918445484 1
vertex 156.02374066152683 -116.18684583188974 1
vertex 156.02374066152683 -116.18684583189004 0
endloop
endfacet
facet normal 0 0 -1
outer loop
vertex 156.02673058738847 -116.84550918445484 1
vertex 156.02374066152683 -116.18684583189004 0
vertex 156.02404388062408 -116.25364324306135 0
endloop
endfacet
facet normal 0 0 -1
outer loop
vertex 156.02673058738847 -116.84550918445484 1
vertex 156.02404388062408 -116.25364324306135 0
vertex 156.026689006325 -116.83634911697008 0
endloop
endfacet
facet normal 0 0 -1
outer loop
vertex 156.02673058738847 -116.84550918445484 1
vertex 156.026689006325 -116.83634911697008 0
vertex 156.02673058738847 -116.84550918445495 0
endloop
endfacet
facet normal 0 0 -1
outer loop
vertex 155.92158550000005 -117.49573649999985 1
vertex 155.93652181200625 -117.40336891249608 1
vertex 156.02673058738847 -116.84550918445484 1
endloop
endfacet
facet normal 0 0 -1
outer loop
vertex 155.92158550000005 -117.49573649999985 1
vertex 156.02673058738847 -116.84550918445484 1
vertex 156.02673058738847 -116.84550918445495 0
endloop
endfacet
facet normal 0 0 -1
outer loop
vertex 155.92158550000005 -117.49573649999985 1
vertex 156.02673058738847 -116.84550918445495 0
vertex 155.93652181200628 -117.40336891249598 0
endloop
endfacet
facet normal 0 0 -1
outer loop
vertex 155.92158550000005 -117.49573649999985 1
vertex 155.93652181200628 -117.40336891249598 0
vertex 155.92158550000008 -117.49573649999965 0
endloop
endfacet
facet normal 0 0 -1
outer loop
vertex 153.13101095000005 -128.76497924999995 1
vertex 155.57589445910563 -118.89174875000013 1
vertex 155.68720843686364 -118.44222689908841 1
endloop
endfacet
facet normal 0 0 -1
outer loop
vertex 153.13101095000005 -128.76497924999995 1
vertex 155.68720843686364 -118.44222689908841 1
vertex 155.81094908517656 -117.9425221325985 1
endloop
endfacet
facet normal 0 0 -1
outer loop
vertex 153.13101095000005 -128.76497924999995 1
vertex 155.81094908517656 -117.9425221325985 1
vertex 155.92158550000005 -117.49573649999985 1
endloop
endfacet
facet normal 0 0 -1
outer loop
vertex 153.13101095000005 -128.76497924999995 1
vertex 155.92158550000005 -117.49573649999985 1
vertex 155.92158550000008 -117.49573649999965 0
endloop
endfacet
facet normal 0 0 -1
outer loop
vertex 153.13101095000005 -128.76497924999995 1
vertex 155.92158550000008 -117.49573649999965 0
vertex 155.81094908517662 -117.94252213259827 0
endloop
endfacet
facet normal 0 0 -1
outer loop
vertex 153.13101095000005 -128.76497924999995 1
vertex 155.81094908517662 -117.94252213259827 0
vertex 155.68720843686364 -118.44222689908854 0
endloop
endfacet
facet normal 0 0 -1
outer loop
vertex 153.13101095000005 -128.76497924999995 1
vertex 155.68720843686364 -118.44222689908854 0
vertex 155.5758944591057 -118.89174874999993 0
endloop
endfacet
facet normal 0 0 -1
outer loop
vertex 153.13101095000005 -128.76497924999995 1
vertex 155.5758944591057 -118.89174874999993 0
vertex 153.13101095000002 -128.76497924999993 0
endloop
endfacet
facet normal -0.9863687829924479 0.1645497612821034 0
outer loop
vertex 153.0291666195754 -129.3754697634647 1
vertex 153.13101095000005 -128.76497924999995 1
vertex 153.13101095000002 -128.76497924999993 0
endloop
endfacet
facet normal -0.9863687829924479 0.1645497612821034 0
outer loop
vertex 153.0291666195754 -129.3754697634647 1
vertex 153.13101095000002 -128.76497924999993 0
vertex 153.0291666195754 -129.37546976346462 0
endloop
endfacet
facet normal -0.9999457649284498 0.01041475883818066 0
outer loop
vertex 153.02272064157978 -129.99436344095503 1
vertex 153.0291666195754 -129.3754697634647 1
vertex 153.0291666195754 -129.37546976346462 0
endloop
endfacet
facet normal -0.9999457649284498 0.01041475883818066 0
outer loop
vertex 153.02272064157978 -129.99436344095503 1
vertex 153.0291666195754 -129.37546976346462 0
vertex 153.02272064157978 -129.99436344095506 0
endloop
endfacet
facet normal -0.9895821119400502 -0.14396959306836285 0
outer loop
vertex 153.11182734518914 -130.6068427712528 1
vertex 153.02272064157978 -129.99436344095503 1
vertex 153.02272064157978 -129.99436344095506 0
endloop
endfacet
facet normal -0.9895821119400502 -0.14396959306836285 0
outer loop
vertex 153.11182734518914 -130.6068427712528 1
vertex 153.02272064157978 -129.99436344095506 0
vertex 153.1118273451891 -130.60684277125276 0
endloop
endfacet
facet normal -0.9555259499170509 -0.2949070345636361 0
outer loop
vertex 153.2943533436386 -131.19824381501232 1
vertex 153.11182734518914 -130.6068427712528 1
vertex 153.1118273451891 -130.60684277125276 0
endloop
endfacet
facet normal -0.9555259499170509 -0.2949070345636361 0
outer loop
vertex 153.2943533436386 -131.19824381501232 1
vertex 153.1118273451891 -130.60684277125276 0
vertex 153.29435334363853 -131.1982438150122 0
endloop
endfacet
facet normal -0.8985926492230553 -0.4387838314731883 0
outer loop
vertex 153.5659286116266 -131.75440728782186 1
vertex 153.2943533436386 -131.19824381501232 1
vertex 153.29435334363853 -131.1982438150122 0
endloop
endfacet
facet normal -0.8985926492230553 -0.4387838314731883 0
outer loop
vertex 153.5659286116266 -131.75440728782186 1
vertex 153.29435334363853 -131.1982438150122 0
vertex 153.56592861162662 -131.7544072878219 0
endloop
endfacet
facet normal -0.8201453031524234 -0.5721552951052882 0
outer loop
vertex 153.92005111216892 -132.2620175608456 1
vertex 153.5659286116266 -131.75440728782186 1
vertex 153.56592861162662 -131.7544072878219 0
endloop
endfacet
facet normal -0.8201453031524234 -0.5721552951052882 0
outer loop
vertex 153.92005111216892 -132.2620175608456 1
vertex 153.56592861162662 -131.7544072878219 0
vertex 153.92005111216895 -132.26201756084563 0
endloop
endfacet
facet normal -0.7220620928416377 -0.6918282547577501 0
outer loop
vertex 154.34824246793676 -132.7089214627261 1
vertex 153.92005111216892 -132.2620175608456 1
vertex 153.92005111216895 -132.26201756084563 0
endloop
endfacet
facet normal -0.7220620928416377 -0.6918282547577501 0
outer loop
vertex 154.34824246793676 -132.7089214627261 1
vertex 153.92005111216895 -132.26201756084563 0
vertex 154.3482424679367 -132.70892146272604 0
endloop
endfacet
facet normal -0.6066898139687891 -0.794938657775879 0
outer loop
vertex 154.8402519 -133.08441850000003 1
vertex 154.34824246793676 -132.7089214627261 1
vertex 154.3482424679367 -132.70892146272604 0
endloop
endfacet
facet normal -0.6066898139687891 -0.794938657775879 0
outer loop
vertex 154.8402519 -133.08441850000003 1
vertex 154.3482424679367 -132.70892146272604 0
vertex 154.8402519000001 -133.08441850000008 0
endloop
endfacet
facet normal -0.5433718222511322 -0.8394921457544937 0
outer loop
vertex 209.3950496500003 -168.39569570000018 1
vertex 154.8402519 -133.08441850000003 1
vertex 154.8402519000001 -133.08441850000008 0
endloop
endfacet
facet normal -0.5433718222511322 -0.8394921457544937 0
outer loop
vertex 209.3950496500003 -168.39569570000018 1
vertex 154.8402519000001 -133.08441850000008 0
vertex 209.39504965000023 -168.39569570000015 0
endloop
endfacet
facet normal -0.47369878270046634 -0.8806869269315268 0
outer loop
vertex 209.964866969217 -168.7021857388782 1
vertex 209.3950496500003 -168.39569570000018 1
vertex 209.39504965000023 -168.39569570000015 0
endloop
endfacet
facet normal -0.47369878270046634 -0.8806869269315268 0
outer loop
vertex 209.964866969217 -168.7021857388782 1
vertex 209.39504965000023 -168.39569570000015 0
vertex 209.96486696921716 -168.70218573887826 0
endloop
endfacet
facet normal -0.3255141329986208 -0.9455371749530297 0
outer loop
vertex 210.57664334715074 -168.9127981426285 1
vertex 209.964866969217 -168.7021857388782 1
vertex 209.96486696921716 -168.70218573887826 0
endloop
endfacet
facet normal -0.3255141329986208 -0.9455371749530297 0
outer loop
vertex 210.57664334715074 -168.9127981426285 1
vertex 209.96486696921716 -168.70218573887826 0
vertex 210.57664334715065 -168.9127981426285 0
endloop
endfacet
facet normal -0.16881265174541188 -0.9856481566008646 0
outer loop
vertex 211.21437211671758 -169.02202239670328 1
vertex 210.57664334715074 -168.9127981426285 1
vertex 210.57664334715065 -168.9127981426285 0
endloop
endfacet
facet normal -0.16881265174541188 -0.9856481566008646 0
outer loop
vertex 211.21437211671758 -169.02202239670328 1
vertex 210.57664334715065 -168.9127981426285 0
vertex 211.2143721167175 -169.02202239670328 0
endloop
endfacet
facet normal -0.007694314900078327 -0.9999703983209796 0
outer loop
vertex 211.8613675860986 -169.02700073095068 1
vertex 211.21437211671758 -169.02202239670328 1
vertex 211.2143721167175 -169.02202239670328 0
endloop
endfacet
facet normal -0.007694314900078327 -0.9999703983209796 0
outer loop
vertex 211.8613675860986 -169.02700073095068 1
vertex 211.2143721167175 -169.02202239670328 0
vertex 211.86136758609857 -169.02700073095068 0
endloop
endfacet
facet normal 0.15362533788606947 -0.9881291694709711 0
outer loop
vertex 212.50070160726986 -168.92760289101335 1
vertex 211.8613675860986 -169.02700073095068 1
vertex 211.86136758609857 -169.02700073095068 0
endloop
endfacet
facet normal 0.15362533788606947 -0.9881291694709711 0
outer loop
vertex 212.50070160726986 -168.92760289101335 1
vertex 211.86136758609857 -169.02700073095068 0
vertex 212.5007016072697 -168.92760289101338 0
endloop
endfacet
facet normal 0.3109254996818445 -0.9504342868644814 0
outer loop
vertex 213.11564648821624 -168.72642954633548 1
vertex 212.50070160726986 -168.92760289101335 1
vertex 212.5007016072697 -168.92760289101338 0
endloop
endfacet
facet normal 0.3109254996818445 -0.9504342868644814 0
outer loop
vertex 213.11564648821624 -168.72642954633548 1
vertex 212.5007016072697 -168.92760289101338 0
vertex 213.11564648821633 -168.72642954633542 0
endloop
endfacet
facet normal 0.46009053050374593 -0.8878720086480831 0
outer loop
vertex 213.69011266036497 -168.42874424560978 1
vertex 213.11564648821624 -168.72642954633548 1
vertex 213.11564648821633 -168.72642954633542 0
endloop
endfacet
facet normal 0.46009053050374593 -0.8878720086480831 0
outer loop
vertex 213.69011266036497 -168.42874424560978 1
vertex 213.11564648821633 -168.72642954633542 0
vertex 213.69011266036517 -168.42874424560966 0
endloop
endfacet
facet normal 0.5972221745441764 -0.8020758531664729 0
outer loop
vertex 214.20906930000018 -168.04233139999985 1
vertex 213.69011266036497 -168.42874424560978 1
vertex 213.69011266036517 -168.42874424560966 0
endloop
endfacet
facet normal 0.5972221745441764 -0.8020758531664729 0
outer loop
vertex 214.20906930000018 -168.04233139999985 1
vertex 213.69011266036517 -168.42874424560966 0
vertex 214.20906930000015 -168.0423313999999 0
endloop
endfacet
facet normal 0.6601319976645689 -0.7511496160282488 0
outer loop
vertex 235.91623749999928 -148.96544445000066 1
vertex 214.20906930000018 -168.04233139999985 1
vertex 214.20906930000015 -168.0423313999999 0
endloop
endfacet
facet normal 0.6601319976645689 -0.7511496160282488 0
outer loop
vertex 235.91623749999928 -148.96544445000066 1
vertex 214.20906930000015 -168.0423313999999 0
vertex 235.91623749999997 -148.96544445000004 0
endloop
endfacet
facet normal 0.718748741724899 -0.6952699089338429 0
outer loop
vertex 236.36632935693393 -148.50015327073984 1
vertex 235.91623749999928 -148.96544445000066 1
vertex 235.91623749999997 -148.96544445000004 0
endloop
endfacet
facet normal 0.718748741724899 -0.6952699089338429 0
outer loop
vertex 236.36632935693393 -148.50015327073984 1
vertex 235.91623749999997 -148.96544445000004 0
vertex 236.3663293569338 -148.50015327074004 0
endloop
endfacet
facet normal 0.8214898140414282 -0.5702231891340265 0
outer loop
vertex 236.7354706224568 -147.96835134590066 1
vertex 236.36632935693393 -148.50015327073984 1
vertex 236.3663293569338 -148.50015327074004 0
endloop
endfacet
facet normal 0.8214898140414282 -0.5702231891340265 0
outer loop
vertex 236.7354706224568 -147.96835134590066 1
vertex 236.3663293569338 -148.50015327074004 0
vertex 236.73547062245672 -147.96835134590077 0
endloop
endfacet
facet normal 0.9027140882774238 -0.43024094973103094 0
outer loop
vertex 237.01399259716806 -147.38396784957408 1
vertex 236.7354706224568 -147.96835134590066 1
vertex 236.73547062245672 -147.96835134590077 0
endloop
endfacet
facet normal 0.9027140882774238 -0.43024094973103094 0
outer loop
vertex 237.01399259716806 -147.38396784957408 1
vertex 236.73547062245672 -147.96835134590077 0
vertex 237.01399259716797 -147.38396784957416 0
endloop
endfacet
facet normal 0.9602941049342122 -0.2789896629421963 0
outer loop
vertex 237.1946001192906 -146.7623091939378 1
vertex 237.01399259716806 -147.38396784957408 1
vertex 237.01399259716797 -147.38396784957416 0
endloop
endfacet
facet normal 0.9602941049342122 -0.2789896629421963 0
outer loop
vertex 237.1946001192906 -146.7623091939378 1
vertex 237.01399259716797 -147.38396784957416 0
vertex 237.19460011929058 -146.7623091939377 0
endloop
endfacet
facet normal 0.9927217046034107 -0.12043096449542634 0
outer loop
vertex 237.27256264254322 -146.11965811742468 1
vertex 237.1946001192906 -146.7623091939378 1
vertex 237.19460011929058 -146.7623091939377 0
endloop
endfacet
facet normal 0.9927217046034107 -0.12043096449542634 0
outer loop
vertex 237.27256264254322 -146.11965811742468 1
vertex 237.19460011929058 -146.7623091939377 0
vertex 237.2725626425432 -146.1196581174245 0
endloop
endfacet
facet normal 0.9991475302968315 0.041282111158977855 0
outer loop
vertex 237.2458381405463 -145.47284720056575 1
vertex 237.27256264254322 -146.11965811742468 1
vertex 237.2725626425432 -146.1196581174245 0
endloop
endfacet
facet normal 0.9991475302968315 0.041282111158977855 0
outer loop
vertex 237.2458381405463 -145.47284720056575 1
vertex 237.2725626425432 -146.1196581174245 0
vertex 237.24583814054628 -145.47284720056567 0
endloop
endfacet
facet normal 0.9794032741528458 0.20191390882919827 0
outer loop
vertex 237.1151265924152 -144.8388179801345 1
vertex 237.2458381405463 -145.47284720056575 1
vertex 237.24583814054628 -145.47284720056567 0
endloop
endfacet
facet normal 0.9794032741528458 0.20191390882919827 0
outer loop
vertex 237.1151265924152 -144.8388179801345 1
vertex 237.24583814054628 -145.47284720056567 0
vertex 237.1151265924152 -144.83881798013456 0
endloop
endfacet
facet normal 0.9340060858249681 0.35725709459984484 0
outer loop
vertex 236.88385164862 -144.2341772094719 1
vertex 237.1151265924152 -144.8388179801345 1
vertex 237.1151265924152 -144.83881798013456 0
endloop
endfacet
facet normal 0.9340060858249681 0.35725709459984484 0
outer loop
vertex 236.88385164862 -144.2341772094719 1
vertex 237.1151265924152 -144.83881798013456 0
vertex 236.88385164861998 -144.23417720947185 0
endloop
endfacet
facet normal 0.8641450270860821 0.5032428560470524 0
outer loop
vertex 236.5580709573281 -143.67476188758957 1
vertex 236.88385164862 -144.2341772094719 1
vertex 236.88385164861998 -144.23417720947185 0
endloop
endfacet
facet normal 0.8641450270860821 0.5032428560470524 0
outer loop
vertex 236.5580709573281 -143.67476188758957 1
vertex 236.88385164861998 -144.23417720947185 0
vertex 236.55807095732814 -143.67476188758957 0
endloop
endfacet
facet normal 0.7716452510567953 0.6360531475604028 0
outer loop
vertex 236.14631500000004 -143.1752289000001 1
vertex 236.5580709573281 -143.67476188758957 1
vertex 236.55807095732814 -143.67476188758957 0
endloop
endfacet
facet normal 0.7716452510567953 0.6360531475604028 0
outer loop
vertex 236.14631500000004 -143.1752289000001 1
vertex 236.55807095732814 -143.67476188758957 0
vertex 236.1463150000002 -143.17522890000023 0
endloop
endfacet
facet normal 0.7176496916216512 0.6964042792195845 0
outer loop
vertex 212.58172675000014 -118.89174875000013 1
vertex 236.14631500000004 -143.1752289000001 1
vertex 236.1463150000002 -143.17522890000023 0
endloop
endfacet
facet normal 0.7176496916216512 0.6964042792195845 0
outer loop
vertex 212.58172675000014 -118.89174875000013 1
vertex 236.1463150000002 -143.17522890000023 0
vertex 212.58172674999994 -118.89174874999993 0
endloop
endfacet
facet normal 0.7667564203565578 0.6419381526611404 0
outer loop
vertex 212.20538138282225 -118.44222689908841 1
vertex 212.58172675000014 -118.89174875000013 1
vertex 212.58172674999994 -118.89174874999993 0
endloop
endfacet
facet normal 0.7667564203565578 0.6419381526611404 0
outer loop
vertex 212.20538138282225 -118.44222689908841 1
vertex 212.58172674999994 -118.89174874999993 0
vertex 212.20538138282237 -118.44222689908854 0
endloop
endfacet
facet normal 0.8523542008301122 0.5229649283912458 0
outer loop
vertex 211.89878575958295 -117.9425221325985 1
vertex 212.20538138282225 -118.44222689908841 1
vertex 212.20538138282237 -118.44222689908854 0
endloop
endfacet
facet normal 0.8523542008301122 0.5229649283912458 0
outer loop
vertex 211.89878575958295 -117.9425221325985 1
vertex 212.20538138282237 -118.44222689908854 0
vertex 211.89878575958284 -117.94252213259827 0
endloop
endfacet
facet normal 0 0 1
outer loop
vertex 211.6685260473096 -117.40336891249608 1
vertex 211.70797408050126 -117.49573649999985 1
vertex 211.89878575958295 -117.9425221325985 1
endloop
endfacet
facet normal 0 0 1
outer loop
vertex 211.6685260473096 -117.40336891249608 1
vertex 211.89878575958295 -117.9425221325985 1
vertex 211.89878575958284 -117.94252213259827 0
endloop
endfacet
facet normal 0 0 1
outer loop
vertex 211.6685260473096 -117.40336891249608 1
vertex 211.89878575958284 -117.94252213259827 0
vertex 211.70797408050117 -117.49573649999965 0
endloop
endfacet
facet normal 0 0 1
outer loop
vertex 211.6685260473096 -117.40336891249608 1
vertex 211.70797408050117 -117.49573649999965 0
vertex 211.66852604730954 -117.40336891249598 0
endloop
endfacet
facet normal 0 0 1
outer loop
vertex 211.51954859490633 -116.83634911697008 1
vertex 211.52195528957287 -116.84550918445484 1
vertex 211.6685260473096 -117.40336891249608 1
endloop
endfacet
facet normal 0 0 1
outer loop
vertex 211.51954859490633 -116.83634911697008 1
vertex 211.6685260473096 -117.40336891249608 1
vertex 211.66852604730954 -117.40336891249598 0
endloop
endfacet
facet normal 0 0 1
outer loop
vertex 211.51954859490633 -116.83634911697008 1
vertex 211.66852604730954 -117.40336891249598 0
vertex 211.5219552895729 -116.84550918445495 0
endloop
endfacet
facet normal 0 0 1
outer loop
vertex 211.51954859490633 -116.83634911697008 1
vertex 211.5219552895729 -116.84550918445495 0
vertex 211.51954859490633 -116.83634911697008 0
endloop
endfacet
facet normal 0.9939304821178669 0.11000998462387189 0
outer loop
vertex 211.45505367762362 -116.25364324306138 1
vertex 211.51954859490633 -116.83634911697008 1
vertex 211.51954859490633 -116.83634911697008 0
endloop
endfacet
facet normal 0.9939304821178669 0.11000998462387189 0
outer loop
vertex 211.45505367762362 -116.25364324306138 1
vertex 211.51954859490633 -116.83634911697008 0
vertex 211.45505367762362 -116.25364324306135 0
endloop
endfacet
facet normal 0 0 1
outer loop
vertex 211.4764235 -115.66776750000002 1
vertex 211.45749011372607 -116.18684583188974 1
vertex 211.45505367762362 -116.25364324306138 1
endloop
endfacet
facet normal 0 0 1
outer loop
vertex 211.4764235 -115.66776750000002 1
vertex 211.45505367762362 -116.25364324306138 1
vertex 211.45505367762362 -116.25364324306135 0
endloop
endfacet
facet normal 0 0 1
outer loop
vertex 211.4764235 -115.66776750000002 1
vertex 211.45505367762362 -116.25364324306135 0
vertex 211.45749011372607 -116.18684583189004 0
endloop
endfacet
facet normal 0 0 1
outer loop
vertex 211.4764235 -115.66776750000002 1
vertex 211.45749011372607 -116.18684583189004 0
vertex 211.4764235 -115.66776749999991 0
endloop
endfacet
facet normal 0 0 1
outer loop
vertex 218.35096734999996 -53.316582649999866 1
vertex 211.82190761032075 -112.53427325000001 1
vertex 211.8159180631275 -112.58859763462303 1
endloop
endfacet
facet normal 0 0 1
outer loop
vertex 218.35096734999996 -53.316582649999866 1
vertex 211.8159180631275 -112.58859763462303 1
vertex 211.79813246833848 -112.749910578806 1
endloop
endfacet
facet normal 0 0 1
outer loop
vertex 218.35096734999996 -53.316582649999866 1
vertex 211.79813246833848 -112.749910578806 1
vertex 211.76903308941687 -113.0138380180296 1
endloop
endfacet
facet normal 0 0 1
outer loop
vertex 218.35096734999996 -53.316582649999866 1
vertex 211.76903308941687 -113.0138380180296 1
vertex 211.72940896757405 -113.37322345500539 1
endloop
endfacet
facet normal 0 0 1
outer loop
vertex 218.35096734999996 -53.316582649999866 1
vertex 211.72940896757405 -113.37322345500539 1
vertex 211.68033452660367 -113.81832201094139 1
endloop
endfacet
facet normal 0 0 1
outer loop
vertex 218.35096734999996 -53.316582649999866 1
vertex 211.68033452660367 -113.81832201094139 1
vertex 211.62314043945423 -114.3370646617984 1
endloop
endfacet
facet normal 0 0 1
outer loop
vertex 218.35096734999996 -53.316582649999866 1
vertex 211.62314043945423 -114.3370646617984 1
vertex 211.55937754650364 -114.91538549466848 1
endloop
endfacet
facet normal 0 0 1
outer loop
vertex 218.35096734999996 -53.316582649999866 1
vertex 211.55937754650364 -114.91538549466848 1
vertex 211.4907748039068 -115.5376031105868 1
endloop
endfacet
facet normal 0 0 1
outer loop
vertex 218.35096734999996 -53.316582649999866 1
vertex 211.4907748039068 -115.5376031105868 1
vertex 211.4764235 -115.66776750000002 1
endloop
endfacet
facet normal 0 0 1
outer loop
vertex 218.35096734999996 -53.316582649999866 1
vertex 211.4764235 -115.66776750000002 1
vertex 211.4764235 -115.66776749999991 0
endloop
endfacet
facet normal 0 0 1
outer loop
vertex 218.35096734999996 -53.316582649999866 1
vertex 211.4764235 -115.66776749999991 0
vertex 211.4907748039068 -115.53760311058672 0
endloop
endfacet
facet normal 0 0 1
outer loop
vertex 218.35096734999996 -53.316582649999866 1
vertex 211.4907748039068 -115.53760311058672 0
vertex 211.5593775465036 -114.91538549466844 0
endloop
endfacet
facet normal 0 0 1
outer loop
vertex 218.35096734999996 -53.316582649999866 1
vertex 211.5593775465036 -114.91538549466844 0
vertex 211.62314043945423 -114.33706466179841 0
endloop
endfacet
facet normal 0 0 1
outer loop
vertex 218.35096734999996 -53.316582649999866 1
vertex 211.62314043945423 -114.33706466179841 0
vertex 211.68033452660367 -113.81832201094137 0
endloop
endfacet
facet normal 0 0 1
outer loop
vertex 218.35096734999996 -53.316582649999866 1
vertex 211.68033452660367 -113.81832201094137 0
vertex 211.72940896757405 -113.37322345500537 0
endloop
endfacet
facet normal 0 0 1
outer loop
vertex 218.35096734999996 -53.316582649999866 1
vertex 211.72940896757405 -113.37322345500537 0
vertex 211.76903308941687 -113.01383801802965 0
endloop
endfacet
facet normal 0 0 1
outer loop
vertex 218.35096734999996 -53.316582649999866 1
vertex 211.76903308941687 -113.01383801802965 0
vertex 211.79813246833845 -112.74991057880604 0
endloop
endfacet
facet normal 0 0 1
outer loop
vertex 218.35096734999996 -53.316582649999866 1
vertex 211.79813246833845 -112.74991057880604 0
vertex 211.8159180631275 -112.58859763462303 0
endloop
endfacet
facet normal 0 0 1
outer loop
vertex 218.35096734999996 -53.316582649999866 1
vertex 211.8159180631275 -112.58859763462303 0
vertex 211.8219076103208 -112.53427325 0
endloop
endfacet
facet normal 0 0 1
outer loop
vertex 218.35096734999996 -53.316582649999866 1
vertex 211.8219076103208 -112.53427325 0
vertex 218.35096735 -53.31658264999978 0
endloop
endfacet
facet normal 0.9997332499407847 -0.023096081114260873 0
outer loop
vertex 218.36696934780687 -52.62392274835111 1
vertex 218.35096734999996 -53.316582649999866 1
vertex 218.35096735 -53.31658264999978 0
endloop
endfacet
facet normal 0.9997332499407847 -0.023096081114260873 0
outer loop
vertex 218.36696934780687 -52.62392274835111 1
vertex 218.35096735 -53.31658264999978 0
vertex 218.3669693478069 -52.623922748351426 0
endloop
endfacet
facet normal 0.9887216634046163 0.14976472319744993 0
outer loop
vertex 218.26320565039416 -51.938892166271756 1
vertex 218.36696934780687 -52.62392274835111 1
vertex 218.3669693478069 -52.623922748351426 0
endloop
endfacet
facet normal 0.9887216634046163 0.14976472319744993 0
outer loop
vertex 218.26320565039416 -51.938892166271756 1
vertex 218.3669693478069 -52.623922748351426 0
vertex 218.26320565039416 -51.93889216627185 0
endloop
endfacet
facet normal 0.9480463380887542 0.3181322694045728 0
outer loop
vertex 218.04278938790603 -51.282043268490355 1
vertex 218.26320565039416 -51.938892166271756 1
vertex 218.26320565039416 -51.93889216627185 0
endloop
endfacet
facet normal 0.9480463380887542 0.3181322694045728 0
outer loop
vertex 218.04278938790603 -51.282043268490355 1
vertex 218.26320565039416 -51.93889216627185 0
vertex 218.04278938790594 -51.282043268490234 0
endloop
endfacet
facet normal 0.8789276196876622 0.47695517540978666 0
outer loop
vertex 217.71233351389208 -50.67308290966973 1
vertex 218.04278938790603 -51.282043268490355 1
vertex 218.04278938790594 -51.282043268490234 0
endloop
endfacet
facet normal 0.8789276196876622 0.47695517540978666 0
outer loop
vertex 217.71233351389208 -50.67308290966973 1
vertex 218.04278938790594 -51.282043268490234 0
vertex 217.71233351389205 -50.67308290966969 0
endloop
endfacet
facet normal 0.7834392157808766 0.6214684184869294 0
outer loop
vertex 217.28175240272836 -50.13028118712771 1
vertex 217.71233351389208 -50.67308290966973 1
vertex 217.71233351389205 -50.67308290966969 0
endloop
endfacet
facet normal 0.7834392157808766 0.6214684184869294 0
outer loop
vertex 217.28175240272836 -50.13028118712771 1
vertex 217.71233351389205 -50.67308290966969 0
vertex 217.28175240272833 -50.13028118712766 0
endloop
endfacet
facet normal 0.6644459802244262 0.7473362960298406 0
outer loop
vertex 216.7639643974409 -49.669923299320864 1
vertex 217.28175240272836 -50.13028118712771 1
vertex 217.28175240272833 -50.13028118712766 0
endloop
endfacet
facet normal 0.6644459802244262 0.7473362960298406 0
outer loop
vertex 216.7639643974409 -49.669923299320864 1
vertex 217.28175240272833 -50.13028118712766 0
vertex 216.763964397441 -49.66992329932092 0
endloop
endfacet
facet normal 0.5255179614827138 0.8507825057904358 0
outer loop
vertex 216.17450423212185 -49.30582095548396 1
vertex 216.7639643974409 -49.669923299320864 1
vertex 216.763964397441 -49.66992329932092 0
endloop
endfacet
facet normal 0.5255179614827138 0.8507825057904358 0
outer loop
vertex 216.17450423212185 -49.30582095548396 1
vertex 216.763964397441 -49.66992329932092 0
vertex 216.17450423212188 -49.30582095548399 0
endloop
endfacet
facet normal 0.3708232936318686 0.9287034429246038 0
outer loop
vertex 215.53105695708643 -49.048897995173085 1
vertex 216.17450423212185 -49.30582095548396 1
vertex 216.17450423212188 -49.30582095548399 0
endloop
endfacet
facet normal 0.3708232936318686 0.9287034429246038 0
outer loop
vertex 215.53105695708643 -49.048897995173085 1
vertex 216.17450423212188 -49.30582095548399 0
vertex 215.5310569570863 -49.04889799517305 0
endloop
endfacet
facet normal 0.2049987120294654 0.9787622428691558 0
outer loop
vertex 214.8529246999999 -48.906865299999986 1
vertex 215.53105695708643 -49.048897995173085 1
vertex 215.5310569570863 -49.04889799517305 0
endloop
endfacet
facet normal 0.2049987120294654 0.9787622428691558 0
outer loop
vertex 214.8529246999999 -48.906865299999986 1
vertex 215.5310569570863 -49.04889799517305 0
vertex 214.85292469999996 -48.90686529999999 0
endloop
endfacet
facet normal 0.11946527539816998 0.9928383795835249 0
outer loop
vertex 136.17542320000004 -39.439836650000004 1
vertex 214.8529246999999 -48.906865299999986 1
vertex 214.85292469999996 -48.90686529999999 0
endloop
endfacet
facet normal 0.11946527539816998 0.9928383795835249 0
outer loop
vertex 136.17542320000004 -39.439836650000004 1
vertex 214.85292469999996 -48.90686529999999 0
vertex 136.17542320000007 -39.439836650000004 0
endloop
endfacet
facet normal 0.07130955922264094 0.9974542329167152 0
outer loop
vertex 135.7895577185229 -39.41225052474701 1
vertex 136.17542320000004 -39.439836650000004 1
vertex 136.17542320000007 -39.439836650000004 0
endloop
endfacet
facet normal 0.07130955922264094 0.9974542329167152 0
outer loop
vertex 135.7895577185229 -39.41225052474701 1
vertex 136.17542320000007 -39.439836650000004 0
vertex 135.7895577185229 -39.41225052474702 0
endloop
endfacet
facet normal -0.025377450661565604 0.9996779406378435 0
outer loop
vertex 135.4028319950197 -39.422067799459995 1
vertex 135.7895577185229 -39.41225052474701 1
vertex 135.7895577185229 -39.41225052474702 0
endloop
endfacet
facet normal -0.025377450661565604 0.9996779406378435 0
outer loop
vertex 135.4028319950197 -39.422067799459995 1
vertex 135.7895577185229 -39.41225052474702 0
vertex 135.40283199501965 -39.42206779946001 0
endloop
endfacet
facet normal -0.12181956607034292 0.9925522622625136 0
outer loop
vertex 135.0188663999998 -39.46919330000003 1
vertex 135.4028319950197 -39.422067799459995 1
vertex 135.40283199501965 -39.42206779946001 0
endloop
endfacet
facet normal -0.12181956607034292 0.9925522622625136 0
outer loop
vertex 135.0188663999998 -39.46919330000003 1
vertex 135.40283199501965 -39.42206779946001 0
vertex 135.01886639999987 -39.469193300000015 0
endloop
endfacet
facet normal -0.16967432865695276 0.9855001888355032 0
outer loop
vertex 106.69496285000018 -44.34574164999998 1
vertex 135.0188663999998 -39.46919330000003 1
vertex 135.01886639999987 -39.469193300000015 0
endloop
endfacet
facet normal -0.16967432865695276 0.9855001888355032 0
outer loop
vertex 106.69496285000018 -44.34574164999998 1
vertex 135.01886639999987 -39.469193300000015 0
vertex 106.69496285000017 -44.34574164999998 0
endloop
endfacet
facet normal -0.19084730948245002 0.9816197351639331 0
outer loop
vertex 106.52578591391872 -44.37863316788724 1
vertex 106.69496285000018 -44.34574164999998 1
vertex 106.69496285000017 -44.34574164999998 0
endloop
endfacet
facet normal -0.19084730948245002 0.9816197351639331 0
outer loop
vertex 106.52578591391872 -44.37863316788724 1
vertex 106.69496285000017 -44.34574164999998 0
vertex 106.52578591391861 -44.37863316788726 0
endloop
endfacet
facet normal -0.23296738244505397 0.9724845493460038 0
outer loop
vertex 106.3581856999991 -44.418783300000236 1
vertex 106.52578591391872 -44.37863316788724 1
vertex 106.52578591391861 -44.37863316788726 0
endloop
endfacet
facet normal -0.23296738244505397 0.9724845493460038 0
outer loop
vertex 106.3581856999991 -44.418783300000236 1
vertex 106.52578591391861 -44.37863316788726 0
vertex 106.3581856999995 -44.41878330000013 0
endloop
endfacet
facet normal -0.2538684347557737 0.9672387594770248 0
outer loop
vertex 90.45953499999999 -48.591657399999995 1
vertex 106.3581856999991 -44.418783300000236 1
vertex 106.3581856999995 -44.41878330000013 0
endloop
endfacet
facet normal -0.2538684347557737 0.9672387594770248 0
outer loop
vertex 90.45953499999999 -48.591657399999995 1
vertex 106.3581856999995 -44.41878330000013 0
vertex 90.45953499999997 -48.59165739999999 0
endloop
endfacet
facet normal -0.3323619049084806 0.9431519305846784 0
outer loop
vertex 89.84052287376434 -48.80979409968271 1
vertex 90.45953499999999 -48.591657399999995 1
vertex 90.45953499999997 -48.59165739999999 0
endloop
endfacet
facet normal -0.3323619049084806 0.9431519305846784 0
outer loop
vertex 89.84052287376434 -48.80979409968271 1
vertex 90.45953499999997 -48.59165739999999 0
vertex 89.84052287376447 -48.809794099682655 0
endloop
endfacet
facet normal -0.4821192624539639 0.876105596815159 0
outer loop
vertex 89.26551478577268 -49.12621996923014 1
vertex 89.84052287376434 -48.80979409968271 1
vertex 89.84052287376447 -48.809794099682655 0
endloop
endfacet
facet normal -0.4821192624539639 0.876105596815159 0
outer loop
vertex 89.26551478577268 -49.12621996923014 1
vertex 89.84052287376447 -48.809794099682655 0
vertex 89.26551478577258 -49.12621996923021 0
endloop
endfacet
facet normal -0.6188967752395231 0.7854723302562091 0
outer loop
vertex 88.7499913780543 -49.53241604044415 1
vertex 89.26551478577268 -49.12621996923014 1
vertex 89.26551478577258 -49.12621996923021 0
endloop
endfacet
facet normal -0.6188967752395231 0.7854723302562091 0
outer loop
vertex 88.7499913780543 -49.53241604044415 1
vertex 89.26551478577258 -49.12621996923021 0
vertex 88.74999137805433 -49.53241604044411 0
endloop
endfacet
facet normal -0.7390120538215152 0.6736922029432327 0
outer loop
vertex 88.3078318177025 -50.01744650893531 1
vertex 88.7499913780543 -49.53241604044415 1
vertex 88.74999137805433 -49.53241604044411 0
endloop
endfacet
facet normal -0.7390120538215152 0.6736922029432327 0
outer loop
vertex 88.3078318177025 -50.01744650893531 1
vertex 88.74999137805433 -49.53241604044411 0
vertex 88.30783181770254 -50.017446508935286 0
endloop
endfacet
facet normal -0.8392312973737084 0.5437746127840488 0
outer loop
vertex 87.95094013531627 -50.568253153065704 1
vertex 88.3078318177025 -50.01744650893531 1
vertex 88.30783181770254 -50.017446508935286 0
endloop
endfacet
facet normal -0.8392312973737084 0.5437746127840488 0
outer loop
vertex 87.95094013531627 -50.568253153065704 1
vertex 88.30783181770254 -50.017446508935286 0
vertex 87.95094013531622 -50.568253153065804 0
endloop
endfacet
facet normal -0.9168563556154912 0.39921726311305755 0
outer loop
vertex 87.68892473900948 -51.170006893622165 1
vertex 87.95094013531627 -50.568253153065704 1
vertex 87.95094013531622 -50.568253153065804 0
endloop
endfacet
facet normal -0.9168563556154912 0.39921726311305755 0
outer loop
vertex 87.68892473900948 -51.170006893622165 1
vertex 87.95094013531622 -50.568253153065804 0
vertex 87.6889247390095 -51.17000689362211 0
endloop
endfacet
facet normal -0.9697973697008793 0.24391199585353757 0
outer loop
vertex 87.52883973226615 -51.806507029357434 1
vertex 87.68892473900948 -51.170006893622165 1
vertex 87.6889247390095 -51.17000689362211 0
endloop
endfacet
facet normal -0.9697973697008793 0.24391199585353757 0
outer loop
vertex 87.52883973226615 -51.806507029357434 1
vertex 87.6889247390095 -51.17000689362211 0
vertex 87.52883973226615 -51.8065070293574 0
endloop
endfacet
facet normal -0.9966296325993214 0.08203277043317318 0
outer loop
vertex 87.475 -52.46061479999993 1
vertex 87.52883973226615 -51.806507029357434 1
vertex 87.52883973226615 -51.8065070293574 0
endloop
endfacet
facet normal -0.9966296325993214 0.08203277043317318 0
outer loop
vertex 87.475 -52.46061479999993 1
vertex 87.52883973226615 -51.8065070293574 0
vertex 87.475 -52.460614799999945 0
endloop
endfacet
facet normal -0.9999999999999987 -5.350935339265561e-8 0
outer loop
vertex 87.47500299999999 -108.52557200000003 1
vertex 87.475 -52.46061479999993 1
vertex 87.475 -52.460614799999945 0
endloop
endfacet
facet normal -0.9999999999999987 -5.350935339265561e-8 0
outer loop
vertex 87.47500299999999 -108.52557200000003 1
vertex 87.475 -52.460614799999945 0
vertex 87.47500299999999 -108.52557200000012 0
endloop
endfacet
endsolid csg.js
