%TF.GenerationSoftware,KiCad,Pcbnew,7.0.10*%
%TF.CreationDate,2024-01-22T21:29:34+02:00*%
%TF.ProjectId,juubo_right_final,6a757562-6f5f-4726-9967-68745f66696e,v1.0.0*%
%TF.SameCoordinates,Original*%
%TF.FileFunction,Profile,NP*%
%FSLAX46Y46*%
G04 Gerber Fmt 4.6, Leading zero omitted, Abs format (unit mm)*
G04 Created by KiCad (PCBNEW 7.0.10) date 2024-01-22 21:29:34*
%MOMM*%
%LPD*%
G01*
G04 APERTURE LIST*
%TA.AperFunction,Profile*%
%ADD10C,0.150000*%
%TD*%
G04 APERTURE END LIST*
D10*
X273620859Y-127799928D02*
G75*
G03*
X274733341Y-125090784I-2887059J2768528D01*
G01*
X336843869Y-113062063D02*
G75*
G03*
X332931328Y-117991207I-21969J-3999937D01*
G01*
X279285513Y-51660247D02*
G75*
G03*
X275765446Y-55572019I479487J-3971153D01*
G01*
X335665126Y-129436906D02*
X332931327Y-117991207D01*
X276979477Y-166917080D02*
G75*
G03*
X281877228Y-167351617I2727723J2925680D01*
G01*
X383848268Y-47318874D02*
G75*
G03*
X383503049Y-47244387I-1015368J-3868626D01*
G01*
X383503049Y-47244386D02*
X355980172Y-42566373D01*
X399742776Y-51490665D02*
X383848267Y-47318876D01*
X354830412Y-42538659D02*
X279285512Y-51660238D01*
X402727281Y-55359621D02*
G75*
G03*
X399742776Y-51490665I-3999981J21D01*
G01*
X258209394Y-143871370D02*
G75*
G03*
X258368737Y-149565552I2887106J-2768530D01*
G01*
X333944606Y-133726386D02*
G75*
G03*
X335665126Y-129436906I-2170006J3360186D01*
G01*
X402727302Y-109401968D02*
X402727304Y-55359621D01*
X258368736Y-149565553D02*
X276979476Y-166917081D01*
X275765447Y-55572019D02*
X274733342Y-125090784D01*
X398705323Y-113401943D02*
G75*
G03*
X402727303Y-109401969I21977J3999943D01*
G01*
X273620867Y-127799935D02*
X258209373Y-143871350D01*
X336843869Y-113062009D02*
X398705323Y-113401905D01*
X355980172Y-42566375D02*
G75*
G03*
X354830412Y-42538660I-670272J-3943425D01*
G01*
X281877228Y-167351618D02*
X333944592Y-133726364D01*
M02*
