%TF.GenerationSoftware,KiCad,Pcbnew,7.0.10*%
%TF.CreationDate,2024-02-19T14:22:16+02:00*%
%TF.ProjectId,juubo_right_final,6a757562-6f5f-4726-9967-68745f66696e,v1.0.0*%
%TF.SameCoordinates,Original*%
%TF.FileFunction,Paste,Top*%
%TF.FilePolarity,Positive*%
%FSLAX46Y46*%
G04 Gerber Fmt 4.6, Leading zero omitted, Abs format (unit mm)*
G04 Created by KiCad (PCBNEW 7.0.10) date 2024-02-19 14:22:16*
%MOMM*%
%LPD*%
G01*
G04 APERTURE LIST*
G04 Aperture macros list*
%AMRotRect*
0 Rectangle, with rotation*
0 The origin of the aperture is its center*
0 $1 length*
0 $2 width*
0 $3 Rotation angle, in degrees counterclockwise*
0 Add horizontal line*
21,1,$1,$2,0,0,$3*%
G04 Aperture macros list end*
%ADD10R,1.100000X1.800000*%
%ADD11R,0.900000X1.200000*%
%ADD12RotRect,0.900000X1.200000X130.000000*%
%ADD13RotRect,0.900000X1.200000X15.000000*%
%ADD14RotRect,0.900000X1.200000X135.000000*%
G04 APERTURE END LIST*
D10*
%TO.C,B1*%
X281124804Y-54809003D03*
X281124804Y-61009003D03*
X277424804Y-54809003D03*
X277424804Y-61009003D03*
%TD*%
D11*
%TO.C,D10*%
X332402303Y-101899005D03*
X335702303Y-101899005D03*
%TD*%
%TO.C,D1*%
X389552306Y-106899003D03*
X392852306Y-106899003D03*
%TD*%
%TO.C,D8*%
X351452303Y-80349006D03*
X354752303Y-80349006D03*
%TD*%
%TO.C,D14*%
X313352307Y-85349004D03*
X316652307Y-85349004D03*
%TD*%
%TO.C,D2*%
X389552303Y-87849005D03*
X392852303Y-87849005D03*
%TD*%
%TO.C,D12*%
X332402306Y-63799006D03*
X335702306Y-63799006D03*
%TD*%
%TO.C,D4*%
X370502303Y-101899007D03*
X373802303Y-101899007D03*
%TD*%
%TO.C,D7*%
X351452302Y-99399004D03*
X354752302Y-99399004D03*
%TD*%
%TO.C,D13*%
X313352301Y-104399010D03*
X316652301Y-104399010D03*
%TD*%
%TO.C,D6*%
X370502304Y-63799004D03*
X373802304Y-63799004D03*
%TD*%
%TO.C,D11*%
X332402306Y-82849006D03*
X335702306Y-82849006D03*
%TD*%
D12*
%TO.C,D17*%
X300282473Y-131431947D03*
X298161273Y-128904001D03*
%TD*%
D11*
%TO.C,D15*%
X313352302Y-66299007D03*
X316652302Y-66299007D03*
%TD*%
D13*
%TO.C,D16*%
X320702623Y-129705686D03*
X323890179Y-128851584D03*
%TD*%
D14*
%TO.C,D18*%
X282349362Y-146120505D03*
X280015910Y-143787053D03*
%TD*%
D11*
%TO.C,D3*%
X389552303Y-68799001D03*
X392852303Y-68799001D03*
%TD*%
%TO.C,D5*%
X370502308Y-82849005D03*
X373802308Y-82849005D03*
%TD*%
%TO.C,D9*%
X351452304Y-61299004D03*
X354752304Y-61299004D03*
%TD*%
M02*
