%TF.GenerationSoftware,KiCad,Pcbnew,7.0.10*%
%TF.CreationDate,2024-02-19T14:22:16+02:00*%
%TF.ProjectId,juubo_right_final,6a757562-6f5f-4726-9967-68745f66696e,v1.0.0*%
%TF.SameCoordinates,Original*%
%TF.FileFunction,Copper,L2,Bot*%
%TF.FilePolarity,Positive*%
%FSLAX46Y46*%
G04 Gerber Fmt 4.6, Leading zero omitted, Abs format (unit mm)*
G04 Created by KiCad (PCBNEW 7.0.10) date 2024-02-19 14:22:16*
%MOMM*%
%LPD*%
G01*
G04 APERTURE LIST*
G04 Aperture macros list*
%AMRotRect*
0 Rectangle, with rotation*
0 The origin of the aperture is its center*
0 $1 length*
0 $2 width*
0 $3 Rotation angle, in degrees counterclockwise*
0 Add horizontal line*
21,1,$1,$2,0,0,$3*%
G04 Aperture macros list end*
%TA.AperFunction,SMDPad,CuDef*%
%ADD10R,0.900000X0.900000*%
%TD*%
%TA.AperFunction,WasherPad*%
%ADD11C,1.000000*%
%TD*%
%TA.AperFunction,SMDPad,CuDef*%
%ADD12R,0.900000X1.250000*%
%TD*%
%TA.AperFunction,ComponentPad*%
%ADD13R,1.778000X1.778000*%
%TD*%
%TA.AperFunction,SMDPad,CuDef*%
%ADD14R,0.900000X1.200000*%
%TD*%
%TA.AperFunction,ComponentPad*%
%ADD15C,1.905000*%
%TD*%
%TA.AperFunction,ComponentPad*%
%ADD16C,0.700000*%
%TD*%
%TA.AperFunction,ComponentPad*%
%ADD17C,4.400000*%
%TD*%
%TA.AperFunction,SMDPad,CuDef*%
%ADD18R,2.550000X2.500000*%
%TD*%
%TA.AperFunction,ComponentPad*%
%ADD19O,2.200000X1.600000*%
%TD*%
%TA.AperFunction,ComponentPad*%
%ADD20R,1.200000X1.700000*%
%TD*%
%TA.AperFunction,ComponentPad*%
%ADD21O,1.200000X1.700000*%
%TD*%
%TA.AperFunction,SMDPad,CuDef*%
%ADD22RotRect,2.550000X2.500000X135.000000*%
%TD*%
%TA.AperFunction,SMDPad,CuDef*%
%ADD23RotRect,2.550000X2.500000X130.000000*%
%TD*%
%TA.AperFunction,ComponentPad*%
%ADD24R,1.752600X1.752600*%
%TD*%
%TA.AperFunction,ComponentPad*%
%ADD25C,1.752600*%
%TD*%
%TA.AperFunction,ComponentPad*%
%ADD26RotRect,1.778000X1.778000X130.000000*%
%TD*%
%TA.AperFunction,SMDPad,CuDef*%
%ADD27RotRect,0.900000X1.200000X130.000000*%
%TD*%
%TA.AperFunction,ComponentPad*%
%ADD28RotRect,1.778000X1.778000X15.000000*%
%TD*%
%TA.AperFunction,SMDPad,CuDef*%
%ADD29RotRect,0.900000X1.200000X15.000000*%
%TD*%
%TA.AperFunction,SMDPad,CuDef*%
%ADD30RotRect,2.550000X2.500000X15.000000*%
%TD*%
%TA.AperFunction,ComponentPad*%
%ADD31RotRect,1.778000X1.778000X135.000000*%
%TD*%
%TA.AperFunction,SMDPad,CuDef*%
%ADD32RotRect,0.900000X1.200000X135.000000*%
%TD*%
%TA.AperFunction,ComponentPad*%
%ADD33R,3.200000X2.000000*%
%TD*%
%TA.AperFunction,ComponentPad*%
%ADD34C,1.500000*%
%TD*%
%TA.AperFunction,ComponentPad*%
%ADD35R,2.000000X2.000000*%
%TD*%
%TA.AperFunction,ComponentPad*%
%ADD36C,2.000000*%
%TD*%
%TA.AperFunction,SMDPad,CuDef*%
%ADD37R,0.500000X0.475000*%
%TD*%
%TA.AperFunction,ViaPad*%
%ADD38C,0.800000*%
%TD*%
%TA.AperFunction,Conductor*%
%ADD39C,0.250000*%
%TD*%
G04 APERTURE END LIST*
D10*
%TO.P,T1,*%
%TO.N,*%
X288252306Y-51209506D03*
X288252306Y-53409506D03*
D11*
X290452306Y-52309506D03*
X293452306Y-52309506D03*
D10*
X295652306Y-51209506D03*
X295652306Y-53409506D03*
D12*
%TO.P,T1,1*%
%TO.N,RAW*%
X289702306Y-54384506D03*
%TO.P,T1,2*%
%TO.N,B+*%
X292702306Y-54384506D03*
%TO.P,T1,3*%
%TO.N,N/C*%
X294202306Y-54384506D03*
%TD*%
D13*
%TO.P,D10,1*%
%TO.N,P16*%
X330242303Y-101899005D03*
D14*
X332402303Y-101899005D03*
%TO.P,D10,2*%
%TO.N,mirror_index_bottom*%
X335702303Y-101899005D03*
D15*
X337862303Y-101899005D03*
%TD*%
D16*
%TO.P,_2,1*%
%TO.N,N/C*%
X322877304Y-64514005D03*
X323360578Y-63347279D03*
X323360578Y-65680731D03*
X324527304Y-62864005D03*
D17*
X324527304Y-64514005D03*
D16*
X324527304Y-66164005D03*
X325694030Y-63347279D03*
X325694030Y-65680731D03*
X326177304Y-64514005D03*
%TD*%
D13*
%TO.P,D1,1*%
%TO.N,P16*%
X387392306Y-106899003D03*
D14*
X389552306Y-106899003D03*
%TO.P,D1,2*%
%TO.N,mirror_pinky_bottom*%
X392852306Y-106899003D03*
D15*
X395012306Y-106899003D03*
%TD*%
D13*
%TO.P,D8,1*%
%TO.N,P14*%
X349292303Y-80349006D03*
D14*
X351452303Y-80349006D03*
%TO.P,D8,2*%
%TO.N,mirror_middle_home*%
X354752303Y-80349006D03*
D15*
X356912303Y-80349006D03*
%TD*%
D18*
%TO.P,S13,1*%
%TO.N,P8*%
X307917303Y-96859003D03*
%TO.P,S13,2*%
%TO.N,mirror_inner_bottom*%
X320844303Y-94319003D03*
%TD*%
D19*
%TO.P,TRRS1,1*%
%TO.N,VCC*%
X287117306Y-93629005D03*
%TO.P,TRRS1,2*%
%TO.N,P2*%
X286017306Y-89029005D03*
%TO.P,TRRS1,3*%
%TO.N,P3*%
X282017306Y-89029005D03*
%TO.P,TRRS1,4*%
%TO.N,GND*%
X279017306Y-89029005D03*
%TD*%
D13*
%TO.P,D14,1*%
%TO.N,P14*%
X311192307Y-85349004D03*
D14*
X313352307Y-85349004D03*
%TO.P,D14,2*%
%TO.N,mirror_inner_home*%
X316652307Y-85349004D03*
D15*
X318812307Y-85349004D03*
%TD*%
D16*
%TO.P,_6,1*%
%TO.N,N/C*%
X322877308Y-87374005D03*
X323360582Y-86207279D03*
X323360582Y-88540731D03*
X324527308Y-85724005D03*
D17*
X324527308Y-87374005D03*
D16*
X324527308Y-89024005D03*
X325694034Y-86207279D03*
X325694034Y-88540731D03*
X326177308Y-87374005D03*
%TD*%
D18*
%TO.P,S4,1*%
%TO.N,P5*%
X365067304Y-94359007D03*
%TO.P,S4,2*%
%TO.N,mirror_ring_bottom*%
X377994304Y-91819007D03*
%TD*%
%TO.P,S6,1*%
%TO.N,P5*%
X365067305Y-56259003D03*
%TO.P,S6,2*%
%TO.N,mirror_ring_top*%
X377994305Y-53719003D03*
%TD*%
%TO.P,S14,1*%
%TO.N,P8*%
X307917305Y-77809004D03*
%TO.P,S14,2*%
%TO.N,mirror_inner_home*%
X320844305Y-75269004D03*
%TD*%
D13*
%TO.P,D2,1*%
%TO.N,P14*%
X387392303Y-87849005D03*
D14*
X389552303Y-87849005D03*
%TO.P,D2,2*%
%TO.N,mirror_pinky_home*%
X392852303Y-87849005D03*
D15*
X395012303Y-87849005D03*
%TD*%
D18*
%TO.P,S8,1*%
%TO.N,P6*%
X346017305Y-72809005D03*
%TO.P,S8,2*%
%TO.N,mirror_middle_home*%
X358944305Y-70269005D03*
%TD*%
D16*
%TO.P,_1,1*%
%TO.N,N/C*%
X380027304Y-69514005D03*
X380510578Y-68347279D03*
X380510578Y-70680731D03*
X381677304Y-67864005D03*
D17*
X381677304Y-69514005D03*
D16*
X381677304Y-71164005D03*
X382844030Y-68347279D03*
X382844030Y-70680731D03*
X383327304Y-69514005D03*
%TD*%
D13*
%TO.P,D12,1*%
%TO.N,P15*%
X330242306Y-63799006D03*
D14*
X332402306Y-63799006D03*
%TO.P,D12,2*%
%TO.N,mirror_index_top*%
X335702306Y-63799006D03*
D15*
X337862306Y-63799006D03*
%TD*%
D13*
%TO.P,D4,1*%
%TO.N,P16*%
X368342303Y-101899007D03*
D14*
X370502303Y-101899007D03*
%TO.P,D4,2*%
%TO.N,mirror_ring_bottom*%
X373802303Y-101899007D03*
D15*
X375962303Y-101899007D03*
%TD*%
D13*
%TO.P,D7,1*%
%TO.N,P16*%
X349292302Y-99399004D03*
D14*
X351452302Y-99399004D03*
%TO.P,D7,2*%
%TO.N,mirror_middle_bottom*%
X354752302Y-99399004D03*
D15*
X356912302Y-99399004D03*
%TD*%
D20*
%TO.P,JST1,1*%
%TO.N,B+*%
X292952304Y-93026507D03*
D21*
%TO.P,JST1,2*%
%TO.N,GND*%
X290952304Y-93026507D03*
%TD*%
D22*
%TO.P,S18,1*%
%TO.N,P8*%
X280860901Y-155295215D03*
%TO.P,S18,2*%
%TO.N,mirror_extra_cluster*%
X269924081Y-147950497D03*
%TD*%
D18*
%TO.P,S7,1*%
%TO.N,P6*%
X346017306Y-91859003D03*
%TO.P,S7,2*%
%TO.N,mirror_middle_bottom*%
X358944306Y-89319003D03*
%TD*%
D23*
%TO.P,S17,1*%
%TO.N,P7*%
X298000047Y-140442019D03*
%TO.P,S17,2*%
%TO.N,mirror_space_cluster*%
X287744979Y-132172043D03*
%TD*%
D13*
%TO.P,D13,1*%
%TO.N,P16*%
X311192301Y-104399010D03*
D14*
X313352301Y-104399010D03*
%TO.P,D13,2*%
%TO.N,mirror_inner_bottom*%
X316652301Y-104399010D03*
D15*
X318812301Y-104399010D03*
%TD*%
D24*
%TO.P,MCU1,1*%
%TO.N,RAW*%
X284332304Y-54854005D03*
D25*
%TO.P,MCU1,2*%
%TO.N,GND*%
X284332304Y-57394005D03*
%TO.P,MCU1,3*%
%TO.N,RST*%
X284332304Y-59934005D03*
%TO.P,MCU1,4*%
%TO.N,VCC*%
X284332304Y-62474005D03*
%TO.P,MCU1,5*%
%TO.N,P21*%
X284332304Y-65014005D03*
%TO.P,MCU1,6*%
%TO.N,P20*%
X284332304Y-67554005D03*
%TO.P,MCU1,7*%
%TO.N,P19*%
X284332304Y-70094005D03*
%TO.P,MCU1,8*%
%TO.N,P18*%
X284332304Y-72634005D03*
%TO.P,MCU1,9*%
%TO.N,P15*%
X284332304Y-75174005D03*
%TO.P,MCU1,10*%
%TO.N,P14*%
X284332304Y-77714005D03*
%TO.P,MCU1,11*%
%TO.N,P16*%
X284332304Y-80254005D03*
%TO.P,MCU1,12*%
%TO.N,P10*%
X284332304Y-82794005D03*
%TO.P,MCU1,13*%
%TO.N,GND*%
X299572304Y-54854005D03*
%TO.P,MCU1,14*%
%TO.N,P0*%
X299572304Y-57394005D03*
%TO.P,MCU1,15*%
%TO.N,GND*%
X299572304Y-59934005D03*
%TO.P,MCU1,16*%
X299572304Y-62474005D03*
%TO.P,MCU1,17*%
%TO.N,P2*%
X299572304Y-65014005D03*
%TO.P,MCU1,18*%
%TO.N,P3*%
X299572304Y-67554005D03*
%TO.P,MCU1,19*%
%TO.N,P4*%
X299572304Y-70094005D03*
%TO.P,MCU1,20*%
%TO.N,P5*%
X299572304Y-72634005D03*
%TO.P,MCU1,21*%
%TO.N,P6*%
X299572304Y-75174005D03*
%TO.P,MCU1,22*%
%TO.N,P7*%
X299572304Y-77714005D03*
%TO.P,MCU1,23*%
%TO.N,P8*%
X299572304Y-80254005D03*
%TO.P,MCU1,24*%
%TO.N,P9*%
X299572304Y-82794005D03*
%TD*%
D13*
%TO.P,D6,1*%
%TO.N,P15*%
X368342304Y-63799004D03*
D14*
X370502304Y-63799004D03*
%TO.P,D6,2*%
%TO.N,mirror_ring_top*%
X373802304Y-63799004D03*
D15*
X375962304Y-63799004D03*
%TD*%
D13*
%TO.P,D11,1*%
%TO.N,P14*%
X330242306Y-82849006D03*
D14*
X332402306Y-82849006D03*
%TO.P,D11,2*%
%TO.N,mirror_index_home*%
X335702306Y-82849006D03*
D15*
X337862306Y-82849006D03*
%TD*%
D18*
%TO.P,S12,1*%
%TO.N,P7*%
X326967307Y-56259004D03*
%TO.P,S12,2*%
%TO.N,mirror_index_top*%
X339894307Y-53719004D03*
%TD*%
D26*
%TO.P,D17,1*%
%TO.N,P10*%
X301670894Y-133086603D03*
D27*
X300282473Y-131431947D03*
%TO.P,D17,2*%
%TO.N,mirror_space_cluster*%
X298161273Y-128904001D03*
D15*
X296772852Y-127249345D03*
%TD*%
D13*
%TO.P,D15,1*%
%TO.N,P15*%
X311192302Y-66299007D03*
D14*
X313352302Y-66299007D03*
%TO.P,D15,2*%
%TO.N,mirror_inner_top*%
X316652302Y-66299007D03*
D15*
X318812302Y-66299007D03*
%TD*%
D28*
%TO.P,D16,1*%
%TO.N,P10*%
X318616224Y-130264736D03*
D29*
X320702623Y-129705686D03*
%TO.P,D16,2*%
%TO.N,mirror_layer_cluster*%
X323890179Y-128851584D03*
D15*
X325976578Y-128292534D03*
%TD*%
D30*
%TO.P,S16,1*%
%TO.N,P6*%
X313501321Y-123829286D03*
%TO.P,S16,2*%
%TO.N,mirror_layer_cluster*%
X325330444Y-118030081D03*
%TD*%
D31*
%TO.P,D18,1*%
%TO.N,P10*%
X283876713Y-147647856D03*
D32*
X282349362Y-146120505D03*
%TO.P,D18,2*%
%TO.N,mirror_extra_cluster*%
X280015910Y-143787053D03*
D15*
X278488559Y-142259702D03*
%TD*%
D13*
%TO.P,D3,1*%
%TO.N,P15*%
X387392303Y-68799001D03*
D14*
X389552303Y-68799001D03*
%TO.P,D3,2*%
%TO.N,mirror_pinky_top*%
X392852303Y-68799001D03*
D15*
X395012303Y-68799001D03*
%TD*%
D18*
%TO.P,S15,1*%
%TO.N,P8*%
X307917302Y-58759005D03*
%TO.P,S15,2*%
%TO.N,mirror_inner_top*%
X320844302Y-56219005D03*
%TD*%
D13*
%TO.P,D5,1*%
%TO.N,P14*%
X368342308Y-82849005D03*
D14*
X370502308Y-82849005D03*
%TO.P,D5,2*%
%TO.N,mirror_ring_home*%
X373802308Y-82849005D03*
D15*
X375962308Y-82849005D03*
%TD*%
D16*
%TO.P,_5,1*%
%TO.N,N/C*%
X285549019Y-142920846D03*
X284382293Y-143404120D03*
X286032293Y-141754120D03*
X283215567Y-142920846D03*
D17*
X284382293Y-141754120D03*
D16*
X285549019Y-140587394D03*
X282732293Y-141754120D03*
X284382293Y-140104120D03*
X283215567Y-140587394D03*
%TD*%
%TO.P,_4,1*%
%TO.N,N/C*%
X305048752Y-122807139D03*
X305213588Y-121555088D03*
X305817530Y-123809030D03*
X306215479Y-120786310D03*
D17*
X306642530Y-122380088D03*
D16*
X307069581Y-123973866D03*
X307467530Y-120951146D03*
X308071472Y-123205088D03*
X308236308Y-121953037D03*
%TD*%
D18*
%TO.P,S1,1*%
%TO.N,P4*%
X384117306Y-99359006D03*
%TO.P,S1,2*%
%TO.N,mirror_pinky_bottom*%
X397044306Y-96819006D03*
%TD*%
D13*
%TO.P,D9,1*%
%TO.N,P15*%
X349292304Y-61299004D03*
D14*
X351452304Y-61299004D03*
%TO.P,D9,2*%
%TO.N,mirror_middle_top*%
X354752304Y-61299004D03*
D15*
X356912304Y-61299004D03*
%TD*%
D18*
%TO.P,S2,1*%
%TO.N,P4*%
X384117307Y-80309002D03*
%TO.P,S2,2*%
%TO.N,mirror_pinky_home*%
X397044307Y-77769002D03*
%TD*%
%TO.P,S11,1*%
%TO.N,P7*%
X326967306Y-75309003D03*
%TO.P,S11,2*%
%TO.N,mirror_index_home*%
X339894306Y-72769003D03*
%TD*%
%TO.P,S9,1*%
%TO.N,P6*%
X346017303Y-53759002D03*
%TO.P,S9,2*%
%TO.N,mirror_middle_top*%
X358944303Y-51219002D03*
%TD*%
D16*
%TO.P,_3,1*%
%TO.N,N/C*%
X380027304Y-88564004D03*
X380510578Y-87397278D03*
X380510578Y-89730730D03*
X381677304Y-86914004D03*
D17*
X381677304Y-88564004D03*
D16*
X381677304Y-90214004D03*
X382844030Y-87397278D03*
X382844030Y-89730730D03*
X383327304Y-88564004D03*
%TD*%
D18*
%TO.P,S3,1*%
%TO.N,P4*%
X384117302Y-61259003D03*
%TO.P,S3,2*%
%TO.N,mirror_pinky_top*%
X397044302Y-58719003D03*
%TD*%
%TO.P,S5,1*%
%TO.N,P5*%
X365067305Y-75309003D03*
%TO.P,S5,2*%
%TO.N,mirror_ring_home*%
X377994305Y-72769003D03*
%TD*%
%TO.P,S10,1*%
%TO.N,P7*%
X326967308Y-94359004D03*
%TO.P,S10,2*%
%TO.N,mirror_index_bottom*%
X339894308Y-91819004D03*
%TD*%
D33*
%TO.P,ROT1,*%
%TO.N,*%
X291832305Y-98369002D03*
X291832305Y-109569002D03*
D34*
%TO.P,ROT1,1*%
%TO.N,P19*%
X298832305Y-101469002D03*
%TO.P,ROT1,2*%
%TO.N,GND*%
X298832305Y-106469002D03*
D35*
%TO.P,ROT1,A*%
%TO.N,P20*%
X284332305Y-101469002D03*
D36*
%TO.P,ROT1,B*%
%TO.N,P21*%
X284332305Y-106469002D03*
%TO.P,ROT1,C*%
%TO.N,GND*%
X284332305Y-103969002D03*
%TD*%
D37*
%TO.P,DISP1,1*%
%TO.N,VCC*%
X281664801Y-85837005D03*
%TO.P,DISP1,2*%
%TO.N,P3*%
X281664801Y-86861005D03*
%TD*%
%TO.P,DISP2,1*%
%TO.N,VCC*%
X283569806Y-85837009D03*
%TO.P,DISP2,2*%
%TO.N,P2*%
X283569806Y-86861009D03*
%TD*%
D38*
%TO.N,P2*%
X294400000Y-86800000D03*
%TO.N,P3*%
X295400000Y-86200000D03*
%TD*%
D39*
%TO.N,GND*%
X290952304Y-93026507D02*
X290952304Y-64014005D01*
X288800000Y-103969002D02*
X296332305Y-103969002D01*
X284332305Y-103969002D02*
X288800000Y-103969002D01*
X286200000Y-97200000D02*
X288600000Y-97200000D01*
X296332305Y-103969002D02*
X298832305Y-106469002D01*
X290952304Y-64014005D02*
X284332304Y-57394005D01*
X288800000Y-96000000D02*
X290952304Y-93847696D01*
X279017306Y-89029005D02*
X279017306Y-90017306D01*
X288800000Y-103969002D02*
X288800000Y-97400000D01*
X290952304Y-93847696D02*
X290952304Y-93026507D01*
X279017306Y-90017306D02*
X286200000Y-97200000D01*
X288600000Y-97200000D02*
X288800000Y-97400000D01*
X288800000Y-97400000D02*
X288800000Y-96000000D01*
%TO.N,P4*%
X385400000Y-71800000D02*
X384117307Y-73082693D01*
X384117302Y-53917302D02*
X377800000Y-47600000D01*
X372400000Y-47600000D02*
X372350000Y-47550000D01*
X384202304Y-61344005D02*
X384202304Y-68002304D01*
X384117307Y-73082693D02*
X384117307Y-80309002D01*
X372350000Y-47550000D02*
X339650000Y-47550000D01*
X384117307Y-80309002D02*
X384202304Y-80393999D01*
X308440812Y-50650000D02*
X303250000Y-55840812D01*
X339650000Y-47550000D02*
X336550000Y-50650000D01*
X384202304Y-80393999D02*
X384202304Y-86802304D01*
X301705995Y-70094005D02*
X299572304Y-70094005D01*
X303250000Y-68550000D02*
X301705995Y-70094005D01*
X385400000Y-91400000D02*
X384117306Y-92682694D01*
X384117302Y-61259003D02*
X384202304Y-61344005D01*
X384117306Y-92682694D02*
X384117306Y-99359006D01*
X377800000Y-47600000D02*
X372400000Y-47600000D01*
X303250000Y-55840812D02*
X303250000Y-68550000D01*
X385400000Y-69200000D02*
X385400000Y-71800000D01*
X384117302Y-61259003D02*
X384117302Y-53917302D01*
X385400000Y-88000000D02*
X385400000Y-91400000D01*
X384202304Y-86802304D02*
X385400000Y-88000000D01*
X336550000Y-50650000D02*
X308440812Y-50650000D01*
X384202304Y-68002304D02*
X385400000Y-69200000D01*
%TO.N,mirror_pinky_bottom*%
X398087144Y-104044341D02*
X398087146Y-97861846D01*
X395012305Y-106899000D02*
X392852304Y-106899005D01*
X395012307Y-106899003D02*
X397866967Y-104044345D01*
X397866967Y-104044345D02*
X398087144Y-104044341D01*
X398087146Y-97861846D02*
X397044306Y-96819007D01*
%TO.N,mirror_pinky_home*%
X397816966Y-85044344D02*
X398087147Y-85044342D01*
X392852305Y-87849003D02*
X395012306Y-87849005D01*
X395012307Y-87849002D02*
X397816966Y-85044344D01*
X398087147Y-85044342D02*
X398087145Y-78811845D01*
X398087145Y-78811845D02*
X397044305Y-77769005D01*
%TO.N,mirror_pinky_top*%
X398087145Y-59761845D02*
X397044306Y-58719006D01*
X395012303Y-68799003D02*
X398087146Y-65724164D01*
X398087146Y-65724164D02*
X398087145Y-59761845D01*
X395012308Y-68799003D02*
X392852305Y-68799006D01*
%TO.N,P5*%
X303700000Y-56027208D02*
X303700000Y-70000000D01*
X336800000Y-51100000D02*
X308627208Y-51100000D01*
X365067305Y-51267305D02*
X361800000Y-48000000D01*
X361800000Y-48000000D02*
X339900000Y-48000000D01*
X308627208Y-51100000D02*
X303700000Y-56027208D01*
X339900000Y-48000000D02*
X336800000Y-51100000D01*
X365067305Y-56259003D02*
X365067305Y-51267305D01*
X303700000Y-70000000D02*
X301065995Y-72634005D01*
X301065995Y-72634005D02*
X299572304Y-72634005D01*
X365067305Y-75309003D02*
X365067304Y-94359007D01*
X365067305Y-56259003D02*
X365067305Y-75309003D01*
%TO.N,mirror_ring_bottom*%
X375962303Y-101899006D02*
X378887147Y-98974163D01*
X378887147Y-98974163D02*
X378887146Y-92711847D01*
X373802302Y-101899004D02*
X375962306Y-101899006D01*
X378887146Y-92711847D02*
X377994303Y-91819006D01*
%TO.N,mirror_ring_home*%
X379287146Y-79524165D02*
X379287149Y-74061847D01*
X379287149Y-74061847D02*
X377994304Y-72769004D01*
X375962303Y-82849004D02*
X379287146Y-79524165D01*
X375962303Y-82849008D02*
X373802307Y-82849003D01*
%TO.N,mirror_ring_top*%
X375962305Y-63799006D02*
X378687146Y-61074163D01*
X373802305Y-63799004D02*
X375962308Y-63799004D01*
X378687147Y-54411846D02*
X377994303Y-53719004D01*
X378687146Y-61074163D02*
X378687147Y-54411846D01*
%TO.N,P6*%
X331036512Y-105000000D02*
X346000000Y-105000000D01*
X343808301Y-51550000D02*
X308813604Y-51550000D01*
X304150000Y-73250000D02*
X302225995Y-75174005D01*
X346017306Y-104982694D02*
X346017306Y-91859003D01*
X313501321Y-123829286D02*
X313501321Y-122535191D01*
X313501321Y-122535191D02*
X331036512Y-105000000D01*
X346017305Y-72809005D02*
X346017306Y-91859003D01*
X346017303Y-53759002D02*
X346017303Y-72809003D01*
X308813604Y-51550000D02*
X304150000Y-56213604D01*
X302225995Y-75174005D02*
X299572304Y-75174005D01*
X304150000Y-56213604D02*
X304150000Y-73250000D01*
X346017303Y-72809003D02*
X346017305Y-72809005D01*
X346000000Y-105000000D02*
X346017306Y-104982694D01*
X346017303Y-53759002D02*
X343808301Y-51550000D01*
%TO.N,mirror_middle_bottom*%
X360287144Y-96044343D02*
X360287143Y-90661848D01*
X356912304Y-99399004D02*
X354752305Y-99399003D01*
X360287143Y-90661848D02*
X358944305Y-89319003D01*
X360266967Y-96044342D02*
X360287144Y-96044343D01*
X356912304Y-99399005D02*
X360266967Y-96044342D01*
%TO.N,mirror_middle_home*%
X359887147Y-71211846D02*
X358944306Y-70269007D01*
X359887146Y-77374164D02*
X359887147Y-71211846D01*
X356912303Y-80349003D02*
X359887146Y-77374164D01*
X354752305Y-80349002D02*
X356912303Y-80349003D01*
%TO.N,mirror_middle_top*%
X356912304Y-61299002D02*
X360087147Y-58124160D01*
X360087146Y-52361844D02*
X358944304Y-51219004D01*
X360087147Y-58124160D02*
X360087146Y-52361844D01*
X356912305Y-61299007D02*
X354752305Y-61299006D01*
%TO.N,P7*%
X326967306Y-67432694D02*
X326967306Y-75309003D01*
X327200000Y-67400000D02*
X327000000Y-67400000D01*
X328000000Y-66600000D02*
X327200000Y-67400000D01*
X327000000Y-67400000D02*
X326967306Y-67432694D01*
X327052304Y-62852304D02*
X328000000Y-63800000D01*
X304600000Y-56400000D02*
X304600000Y-75400000D01*
X309800000Y-128642066D02*
X309800000Y-123400000D01*
X304600000Y-75400000D02*
X303000000Y-77000000D01*
X326967306Y-75309003D02*
X326967306Y-84567306D01*
X324400000Y-52000000D02*
X309000000Y-52000000D01*
X328000000Y-63800000D02*
X328000000Y-66600000D01*
X309800000Y-123400000D02*
X326600000Y-106600000D01*
X326967307Y-56259004D02*
X327052304Y-56344001D01*
X298000047Y-140442019D02*
X309800000Y-128642066D01*
X327000000Y-106600000D02*
X326967308Y-106567308D01*
X326967308Y-90832692D02*
X326967308Y-94359004D01*
X326967306Y-84567306D02*
X328200000Y-85800000D01*
X301285995Y-77714005D02*
X299572304Y-77714005D01*
X327052304Y-56344001D02*
X327052304Y-62852304D01*
X303000000Y-77000000D02*
X302000000Y-77000000D01*
X302000000Y-77000000D02*
X301285995Y-77714005D01*
X326967308Y-106567308D02*
X326967308Y-94359004D01*
X326600000Y-106600000D02*
X327000000Y-106600000D01*
X326967307Y-54567307D02*
X324400000Y-52000000D01*
X326967307Y-56259004D02*
X326967307Y-54567307D01*
X309000000Y-52000000D02*
X304600000Y-56400000D01*
X328200000Y-89600000D02*
X326967308Y-90832692D01*
X328200000Y-85800000D02*
X328200000Y-89600000D01*
%TO.N,mirror_index_bottom*%
X340887146Y-92811843D02*
X339894307Y-91819005D01*
X337862306Y-101899005D02*
X340887141Y-98874168D01*
X340887141Y-98874168D02*
X340887146Y-92811843D01*
X335702304Y-101899003D02*
X337862303Y-101899006D01*
%TO.N,mirror_index_home*%
X337862302Y-82849006D02*
X335702302Y-82849006D01*
X337862304Y-82849002D02*
X340687146Y-80024163D01*
X340687146Y-80024163D02*
X340687146Y-73561850D01*
X340687146Y-73561850D02*
X339894304Y-72769006D01*
%TO.N,mirror_index_top*%
X337862308Y-63799006D02*
X340687146Y-60974168D01*
X340687144Y-54511846D02*
X339894306Y-53719006D01*
X335702303Y-63799006D02*
X337862305Y-63799002D01*
X340687146Y-60974168D02*
X340687144Y-54511846D01*
%TO.N,P8*%
X290200000Y-145956116D02*
X290200000Y-141600000D01*
X280860901Y-155295215D02*
X290200000Y-145956116D01*
X307917305Y-96859001D02*
X307917303Y-96859003D01*
X281200000Y-132600000D02*
X307917303Y-105882697D01*
X307917305Y-77809004D02*
X307917305Y-96859001D01*
X307917302Y-58759005D02*
X307917302Y-77809001D01*
X307917302Y-77809001D02*
X307917305Y-77809004D01*
X307917303Y-105882697D02*
X307917303Y-96859003D01*
X307917305Y-77809004D02*
X302017305Y-77809004D01*
X302017305Y-77809004D02*
X299572304Y-80254005D01*
X290200000Y-141600000D02*
X281200000Y-132600000D01*
%TO.N,mirror_inner_bottom*%
X322087146Y-95561848D02*
X320844306Y-94319006D01*
X322087145Y-101124166D02*
X322087146Y-95561848D01*
X318812303Y-104399008D02*
X316652303Y-104399006D01*
X318812303Y-104399008D02*
X322087145Y-101124166D01*
%TO.N,mirror_inner_home*%
X322087146Y-82074170D02*
X322087146Y-76511848D01*
X318812307Y-85349005D02*
X322087146Y-82074170D01*
X322087146Y-76511848D02*
X320844306Y-75269003D01*
X316652307Y-85349005D02*
X318812309Y-85349001D01*
%TO.N,mirror_inner_top*%
X320844303Y-59001500D02*
X320844301Y-56219004D01*
X321687148Y-63424162D02*
X321687144Y-59844342D01*
X318812301Y-66299007D02*
X321687148Y-63424162D01*
X321687144Y-59844342D02*
X320844303Y-59001500D01*
X318812306Y-66299004D02*
X316652306Y-66299008D01*
%TO.N,mirror_layer_cluster*%
X328057332Y-124688565D02*
X326445729Y-118673989D01*
X325976578Y-128292532D02*
X328057332Y-124688565D01*
X323890180Y-128851580D02*
X325976578Y-128292531D01*
X326445729Y-118673989D02*
X325330442Y-118030081D01*
%TO.N,mirror_space_cluster*%
X292279872Y-127249344D02*
X292223661Y-127193133D01*
X297285222Y-127386636D02*
X296772851Y-127249345D01*
X287744978Y-131671816D02*
X287744979Y-132172041D01*
X298161270Y-128904002D02*
X297285222Y-127386636D01*
X292223661Y-127193133D02*
X287744978Y-131671816D01*
X296772852Y-127249344D02*
X292279872Y-127249344D01*
%TO.N,mirror_extra_cluster*%
X278488558Y-142259699D02*
X280015908Y-143787050D01*
X278488560Y-142259699D02*
X274328669Y-142259698D01*
X272424672Y-144163695D02*
X272424671Y-145449902D01*
X272424671Y-145449902D02*
X269924081Y-147950492D01*
X274328669Y-142259698D02*
X272424672Y-144163695D01*
%TO.N,P16*%
X389552299Y-106899006D02*
X387392306Y-106899005D01*
X351452300Y-99399003D02*
X349292307Y-99399008D01*
X313352305Y-104399004D02*
X311192305Y-104399008D01*
X330242305Y-101899003D02*
X332402305Y-101899002D01*
X368342302Y-101899010D02*
X370502306Y-101899006D01*
%TO.N,P14*%
X387392305Y-87849004D02*
X389552305Y-87849006D01*
X311192306Y-85349004D02*
X313352307Y-85349003D01*
X332402301Y-82849002D02*
X330242304Y-82849003D01*
X349292304Y-80349004D02*
X351452306Y-80349006D01*
X370502305Y-82849007D02*
X368342301Y-82849002D01*
%TO.N,P15*%
X330242304Y-63799005D02*
X332402305Y-63799004D01*
X389552306Y-68799003D02*
X387392304Y-68799003D01*
X313352305Y-66299002D02*
X311192304Y-66299005D01*
X351452301Y-61299007D02*
X349292301Y-61299007D01*
X368342305Y-63799002D02*
X370502302Y-63799007D01*
%TO.N,P10*%
X282349360Y-146120503D02*
X283876714Y-147647854D01*
X301670896Y-133086603D02*
X300794841Y-131569237D01*
X300794841Y-131569237D02*
X300282469Y-131431949D01*
X318616223Y-130264736D02*
X320702621Y-129705685D01*
%TO.N,RAW*%
X284801803Y-54384506D02*
X284332304Y-54854005D01*
X289702306Y-54384506D02*
X284801803Y-54384506D01*
%TO.N,VCC*%
X287117306Y-93629005D02*
X287442306Y-93304005D01*
X283569806Y-85837009D02*
X281664805Y-85837009D01*
X287300000Y-87500000D02*
X287300000Y-65441701D01*
X287442306Y-87642306D02*
X287300000Y-87500000D01*
X281664805Y-85837009D02*
X281664801Y-85837005D01*
X285637009Y-85837009D02*
X283569806Y-85837009D01*
X287300000Y-65441701D02*
X284332304Y-62474005D01*
X287442306Y-93304005D02*
X287442306Y-87642306D01*
X287300000Y-87500000D02*
X285637009Y-85837009D01*
%TO.N,P2*%
X294400000Y-86800000D02*
X294400000Y-68000000D01*
X283849310Y-86861009D02*
X286017306Y-89029005D01*
X294400000Y-68000000D02*
X297385995Y-65014005D01*
X283569806Y-86861009D02*
X283849310Y-86861009D01*
X297385995Y-65014005D02*
X299572304Y-65014005D01*
%TO.N,P3*%
X281664801Y-88676500D02*
X282017306Y-89029005D01*
X295400000Y-86200000D02*
X295400000Y-71726309D01*
X295400000Y-71726309D02*
X299572304Y-67554005D01*
X281664801Y-86861005D02*
X281664801Y-88676500D01*
%TO.N,B+*%
X292952304Y-54634504D02*
X292702306Y-54384506D01*
X292952304Y-93026507D02*
X292952304Y-54634504D01*
%TD*%
M02*
