%TF.GenerationSoftware,KiCad,Pcbnew,7.0.10*%
%TF.CreationDate,2024-02-19T14:22:16+02:00*%
%TF.ProjectId,juubo_right_final,6a757562-6f5f-4726-9967-68745f66696e,v1.0.0*%
%TF.SameCoordinates,Original*%
%TF.FileFunction,Legend,Bot*%
%TF.FilePolarity,Positive*%
%FSLAX46Y46*%
G04 Gerber Fmt 4.6, Leading zero omitted, Abs format (unit mm)*
G04 Created by KiCad (PCBNEW 7.0.10) date 2024-02-19 14:22:16*
%MOMM*%
%LPD*%
G01*
G04 APERTURE LIST*
%ADD10C,0.150000*%
%ADD11C,0.100000*%
%ADD12R,1.752600X1.752600*%
%ADD13C,1.752600*%
G04 APERTURE END LIST*
D10*
%TO.C,T1*%
X288652306Y-50959506D02*
X288652306Y-53809506D01*
X288652306Y-53809506D02*
X295252306Y-53809506D01*
X291952306Y-50959506D02*
X288652306Y-50959506D01*
X291952306Y-50959506D02*
X295252306Y-50959506D01*
X293902306Y-50959506D02*
X290002306Y-50959506D01*
X295252306Y-53809506D02*
X295252306Y-50959506D01*
D11*
%TO.C,D10*%
X333302303Y-101899005D02*
X333702303Y-101899005D01*
X333702303Y-101899005D02*
X333702303Y-101349005D01*
X333702303Y-101899005D02*
X333702303Y-102449005D01*
X333702303Y-101899005D02*
X334302303Y-101499005D01*
X334302303Y-101499005D02*
X334302303Y-102299005D01*
X334302303Y-101899005D02*
X334802303Y-101899005D01*
X334302303Y-102299005D02*
X333702303Y-101899005D01*
%TO.C,D1*%
X390452306Y-106899003D02*
X390852306Y-106899003D01*
X390852306Y-106899003D02*
X390852306Y-106349003D01*
X390852306Y-106899003D02*
X390852306Y-107449003D01*
X390852306Y-106899003D02*
X391452306Y-106499003D01*
X391452306Y-106499003D02*
X391452306Y-107299003D01*
X391452306Y-106899003D02*
X391952306Y-106899003D01*
X391452306Y-107299003D02*
X390852306Y-106899003D01*
%TO.C,D8*%
X352352303Y-80349006D02*
X352752303Y-80349006D01*
X352752303Y-80349006D02*
X352752303Y-79799006D01*
X352752303Y-80349006D02*
X352752303Y-80899006D01*
X352752303Y-80349006D02*
X353352303Y-79949006D01*
X353352303Y-79949006D02*
X353352303Y-80749006D01*
X353352303Y-80349006D02*
X353852303Y-80349006D01*
X353352303Y-80749006D02*
X352752303Y-80349006D01*
%TO.C,D14*%
X314252307Y-85349004D02*
X314652307Y-85349004D01*
X314652307Y-85349004D02*
X314652307Y-84799004D01*
X314652307Y-85349004D02*
X314652307Y-85899004D01*
X314652307Y-85349004D02*
X315252307Y-84949004D01*
X315252307Y-84949004D02*
X315252307Y-85749004D01*
X315252307Y-85349004D02*
X315752307Y-85349004D01*
X315252307Y-85749004D02*
X314652307Y-85349004D01*
%TO.C,D2*%
X390452303Y-87849005D02*
X390852303Y-87849005D01*
X390852303Y-87849005D02*
X390852303Y-87299005D01*
X390852303Y-87849005D02*
X390852303Y-88399005D01*
X390852303Y-87849005D02*
X391452303Y-87449005D01*
X391452303Y-87449005D02*
X391452303Y-88249005D01*
X391452303Y-87849005D02*
X391952303Y-87849005D01*
X391452303Y-88249005D02*
X390852303Y-87849005D01*
%TO.C,D12*%
X333302306Y-63799006D02*
X333702306Y-63799006D01*
X333702306Y-63799006D02*
X333702306Y-63249006D01*
X333702306Y-63799006D02*
X333702306Y-64349006D01*
X333702306Y-63799006D02*
X334302306Y-63399006D01*
X334302306Y-63399006D02*
X334302306Y-64199006D01*
X334302306Y-63799006D02*
X334802306Y-63799006D01*
X334302306Y-64199006D02*
X333702306Y-63799006D01*
%TO.C,D4*%
X371402303Y-101899007D02*
X371802303Y-101899007D01*
X371802303Y-101899007D02*
X371802303Y-101349007D01*
X371802303Y-101899007D02*
X371802303Y-102449007D01*
X371802303Y-101899007D02*
X372402303Y-101499007D01*
X372402303Y-101499007D02*
X372402303Y-102299007D01*
X372402303Y-101899007D02*
X372902303Y-101899007D01*
X372402303Y-102299007D02*
X371802303Y-101899007D01*
%TO.C,D7*%
X352352302Y-99399004D02*
X352752302Y-99399004D01*
X352752302Y-99399004D02*
X352752302Y-98849004D01*
X352752302Y-99399004D02*
X352752302Y-99949004D01*
X352752302Y-99399004D02*
X353352302Y-98999004D01*
X353352302Y-98999004D02*
X353352302Y-99799004D01*
X353352302Y-99399004D02*
X353852302Y-99399004D01*
X353352302Y-99799004D02*
X352752302Y-99399004D01*
%TO.C,D13*%
X314252301Y-104399010D02*
X314652301Y-104399010D01*
X314652301Y-104399010D02*
X314652301Y-103849010D01*
X314652301Y-104399010D02*
X314652301Y-104949010D01*
X314652301Y-104399010D02*
X315252301Y-103999010D01*
X315252301Y-103999010D02*
X315252301Y-104799010D01*
X315252301Y-104399010D02*
X315752301Y-104399010D01*
X315252301Y-104799010D02*
X314652301Y-104399010D01*
%TO.C,D6*%
X371402304Y-63799004D02*
X371802304Y-63799004D01*
X371802304Y-63799004D02*
X371802304Y-63249004D01*
X371802304Y-63799004D02*
X371802304Y-64349004D01*
X371802304Y-63799004D02*
X372402304Y-63399004D01*
X372402304Y-63399004D02*
X372402304Y-64199004D01*
X372402304Y-63799004D02*
X372902304Y-63799004D01*
X372402304Y-64199004D02*
X371802304Y-63799004D01*
%TO.C,D11*%
X333302306Y-82849006D02*
X333702306Y-82849006D01*
X333702306Y-82849006D02*
X333702306Y-82299006D01*
X333702306Y-82849006D02*
X333702306Y-83399006D01*
X333702306Y-82849006D02*
X334302306Y-82449006D01*
X334302306Y-82449006D02*
X334302306Y-83249006D01*
X334302306Y-82849006D02*
X334802306Y-82849006D01*
X334302306Y-83249006D02*
X333702306Y-82849006D01*
%TO.C,D17*%
X299703964Y-130742507D02*
X299446849Y-130436090D01*
X299446849Y-130436090D02*
X299025524Y-130789623D01*
X299446849Y-130436090D02*
X299868173Y-130082556D01*
X299446849Y-130436090D02*
X298754758Y-130233578D01*
X298754758Y-130233578D02*
X299367594Y-129719348D01*
X299061176Y-129976463D02*
X298739782Y-129593441D01*
X299367594Y-129719348D02*
X299446849Y-130436090D01*
%TO.C,D15*%
X314252302Y-66299007D02*
X314652302Y-66299007D01*
X314652302Y-66299007D02*
X314652302Y-65749007D01*
X314652302Y-66299007D02*
X314652302Y-66849007D01*
X314652302Y-66299007D02*
X315252302Y-65899007D01*
X315252302Y-65899007D02*
X315252302Y-66699007D01*
X315252302Y-66299007D02*
X315752302Y-66299007D01*
X315252302Y-66699007D02*
X314652302Y-66299007D01*
%TO.C,D16*%
X321571957Y-129472749D02*
X321958327Y-129369222D01*
X321958327Y-129369222D02*
X321815976Y-128837962D01*
X321958327Y-129369222D02*
X322100677Y-129900481D01*
X321958327Y-129369222D02*
X322434355Y-128827560D01*
X322434355Y-128827560D02*
X322641410Y-129600301D01*
X322537882Y-129213930D02*
X323020845Y-129084521D01*
X322641410Y-129600301D02*
X321958327Y-129369222D01*
%TO.C,D18*%
X281712966Y-145484109D02*
X281430123Y-145201266D01*
X281430123Y-145201266D02*
X281041215Y-145590175D01*
X281430123Y-145201266D02*
X281819032Y-144812358D01*
X281430123Y-145201266D02*
X280723017Y-145059845D01*
X280723017Y-145059845D02*
X281288702Y-144494160D01*
X281005859Y-144777002D02*
X280652306Y-144423449D01*
X281288702Y-144494160D02*
X281430123Y-145201266D01*
%TO.C,D3*%
X390452303Y-68799001D02*
X390852303Y-68799001D01*
X390852303Y-68799001D02*
X390852303Y-68249001D01*
X390852303Y-68799001D02*
X390852303Y-69349001D01*
X390852303Y-68799001D02*
X391452303Y-68399001D01*
X391452303Y-68399001D02*
X391452303Y-69199001D01*
X391452303Y-68799001D02*
X391952303Y-68799001D01*
X391452303Y-69199001D02*
X390852303Y-68799001D01*
%TO.C,D5*%
X371402308Y-82849005D02*
X371802308Y-82849005D01*
X371802308Y-82849005D02*
X371802308Y-82299005D01*
X371802308Y-82849005D02*
X371802308Y-83399005D01*
X371802308Y-82849005D02*
X372402308Y-82449005D01*
X372402308Y-82449005D02*
X372402308Y-83249005D01*
X372402308Y-82849005D02*
X372902308Y-82849005D01*
X372402308Y-83249005D02*
X371802308Y-82849005D01*
%TO.C,D9*%
X352352304Y-61299004D02*
X352752304Y-61299004D01*
X352752304Y-61299004D02*
X352752304Y-60749004D01*
X352752304Y-61299004D02*
X352752304Y-61849004D01*
X352752304Y-61299004D02*
X353352304Y-60899004D01*
X353352304Y-60899004D02*
X353352304Y-61699004D01*
X353352304Y-61299004D02*
X353852304Y-61299004D01*
X353352304Y-61699004D02*
X352752304Y-61299004D01*
%TD*%
D12*
%TO.C,MCU1*%
X284332304Y-54854005D03*
D13*
X284332304Y-57394005D03*
X284332304Y-59934005D03*
X284332304Y-62474005D03*
X284332304Y-65014005D03*
X284332304Y-67554005D03*
X284332304Y-70094005D03*
X284332304Y-72634005D03*
X284332304Y-75174005D03*
X284332304Y-77714005D03*
X284332304Y-80254005D03*
X284332304Y-82794005D03*
X299572304Y-54854005D03*
X299572304Y-57394005D03*
X299572304Y-59934005D03*
X299572304Y-62474005D03*
X299572304Y-65014005D03*
X299572304Y-67554005D03*
X299572304Y-70094005D03*
X299572304Y-72634005D03*
X299572304Y-75174005D03*
X299572304Y-77714005D03*
X299572304Y-80254005D03*
X299572304Y-82794005D03*
%TD*%
M02*
