%TF.GenerationSoftware,KiCad,Pcbnew,7.0.10*%
%TF.CreationDate,2024-01-22T21:42:36+02:00*%
%TF.ProjectId,juubo_left_final,6a757562-6f5f-46c6-9566-745f66696e61,v1.0.0*%
%TF.SameCoordinates,Original*%
%TF.FileFunction,Legend,Top*%
%TF.FilePolarity,Positive*%
%FSLAX46Y46*%
G04 Gerber Fmt 4.6, Leading zero omitted, Abs format (unit mm)*
G04 Created by KiCad (PCBNEW 7.0.10) date 2024-01-22 21:42:36*
%MOMM*%
%LPD*%
G01*
G04 APERTURE LIST*
%ADD10C,0.150000*%
%ADD11C,0.100000*%
%ADD12C,0.120000*%
%ADD13R,1.752600X1.752600*%
%ADD14C,1.752600*%
G04 APERTURE END LIST*
D10*
X181842358Y-61413204D02*
X181842358Y-60613204D01*
X181842358Y-60613204D02*
X182147120Y-60613204D01*
X182147120Y-60613204D02*
X182223310Y-60651299D01*
X182223310Y-60651299D02*
X182261405Y-60689394D01*
X182261405Y-60689394D02*
X182299501Y-60765585D01*
X182299501Y-60765585D02*
X182299501Y-60879870D01*
X182299501Y-60879870D02*
X182261405Y-60956061D01*
X182261405Y-60956061D02*
X182223310Y-60994156D01*
X182223310Y-60994156D02*
X182147120Y-61032251D01*
X182147120Y-61032251D02*
X181842358Y-61032251D01*
X182604262Y-60689394D02*
X182642358Y-60651299D01*
X182642358Y-60651299D02*
X182718548Y-60613204D01*
X182718548Y-60613204D02*
X182909024Y-60613204D01*
X182909024Y-60613204D02*
X182985215Y-60651299D01*
X182985215Y-60651299D02*
X183023310Y-60689394D01*
X183023310Y-60689394D02*
X183061405Y-60765585D01*
X183061405Y-60765585D02*
X183061405Y-60841775D01*
X183061405Y-60841775D02*
X183023310Y-60956061D01*
X183023310Y-60956061D02*
X182566167Y-61413204D01*
X182566167Y-61413204D02*
X183061405Y-61413204D01*
X183823310Y-61413204D02*
X183366167Y-61413204D01*
X183594739Y-61413204D02*
X183594739Y-60613204D01*
X183594739Y-60613204D02*
X183518548Y-60727489D01*
X183518548Y-60727489D02*
X183442358Y-60803680D01*
X183442358Y-60803680D02*
X183366167Y-60841775D01*
X191442358Y-63953204D02*
X191442358Y-63153204D01*
X191442358Y-63153204D02*
X191747120Y-63153204D01*
X191747120Y-63153204D02*
X191823310Y-63191299D01*
X191823310Y-63191299D02*
X191861405Y-63229394D01*
X191861405Y-63229394D02*
X191899501Y-63305585D01*
X191899501Y-63305585D02*
X191899501Y-63419870D01*
X191899501Y-63419870D02*
X191861405Y-63496061D01*
X191861405Y-63496061D02*
X191823310Y-63534156D01*
X191823310Y-63534156D02*
X191747120Y-63572251D01*
X191747120Y-63572251D02*
X191442358Y-63572251D01*
X192394739Y-63153204D02*
X192470929Y-63153204D01*
X192470929Y-63153204D02*
X192547120Y-63191299D01*
X192547120Y-63191299D02*
X192585215Y-63229394D01*
X192585215Y-63229394D02*
X192623310Y-63305585D01*
X192623310Y-63305585D02*
X192661405Y-63457966D01*
X192661405Y-63457966D02*
X192661405Y-63648442D01*
X192661405Y-63648442D02*
X192623310Y-63800823D01*
X192623310Y-63800823D02*
X192585215Y-63877013D01*
X192585215Y-63877013D02*
X192547120Y-63915109D01*
X192547120Y-63915109D02*
X192470929Y-63953204D01*
X192470929Y-63953204D02*
X192394739Y-63953204D01*
X192394739Y-63953204D02*
X192318548Y-63915109D01*
X192318548Y-63915109D02*
X192280453Y-63877013D01*
X192280453Y-63877013D02*
X192242358Y-63800823D01*
X192242358Y-63800823D02*
X192204262Y-63648442D01*
X192204262Y-63648442D02*
X192204262Y-63457966D01*
X192204262Y-63457966D02*
X192242358Y-63305585D01*
X192242358Y-63305585D02*
X192280453Y-63229394D01*
X192280453Y-63229394D02*
X192318548Y-63191299D01*
X192318548Y-63191299D02*
X192394739Y-63153204D01*
X192928072Y-63153204D02*
X193423310Y-63153204D01*
X193423310Y-63153204D02*
X193156644Y-63457966D01*
X193156644Y-63457966D02*
X193270929Y-63457966D01*
X193270929Y-63457966D02*
X193347120Y-63496061D01*
X193347120Y-63496061D02*
X193385215Y-63534156D01*
X193385215Y-63534156D02*
X193423310Y-63610347D01*
X193423310Y-63610347D02*
X193423310Y-63800823D01*
X193423310Y-63800823D02*
X193385215Y-63877013D01*
X193385215Y-63877013D02*
X193347120Y-63915109D01*
X193347120Y-63915109D02*
X193270929Y-63953204D01*
X193270929Y-63953204D02*
X193042358Y-63953204D01*
X193042358Y-63953204D02*
X192966167Y-63915109D01*
X192966167Y-63915109D02*
X192928072Y-63877013D01*
X181747120Y-58073204D02*
X182013787Y-58873204D01*
X182013787Y-58873204D02*
X182280453Y-58073204D01*
X183004263Y-58797013D02*
X182966167Y-58835109D01*
X182966167Y-58835109D02*
X182851882Y-58873204D01*
X182851882Y-58873204D02*
X182775691Y-58873204D01*
X182775691Y-58873204D02*
X182661405Y-58835109D01*
X182661405Y-58835109D02*
X182585215Y-58758918D01*
X182585215Y-58758918D02*
X182547120Y-58682728D01*
X182547120Y-58682728D02*
X182509024Y-58530347D01*
X182509024Y-58530347D02*
X182509024Y-58416061D01*
X182509024Y-58416061D02*
X182547120Y-58263680D01*
X182547120Y-58263680D02*
X182585215Y-58187489D01*
X182585215Y-58187489D02*
X182661405Y-58111299D01*
X182661405Y-58111299D02*
X182775691Y-58073204D01*
X182775691Y-58073204D02*
X182851882Y-58073204D01*
X182851882Y-58073204D02*
X182966167Y-58111299D01*
X182966167Y-58111299D02*
X183004263Y-58149394D01*
X183804263Y-58797013D02*
X183766167Y-58835109D01*
X183766167Y-58835109D02*
X183651882Y-58873204D01*
X183651882Y-58873204D02*
X183575691Y-58873204D01*
X183575691Y-58873204D02*
X183461405Y-58835109D01*
X183461405Y-58835109D02*
X183385215Y-58758918D01*
X183385215Y-58758918D02*
X183347120Y-58682728D01*
X183347120Y-58682728D02*
X183309024Y-58530347D01*
X183309024Y-58530347D02*
X183309024Y-58416061D01*
X183309024Y-58416061D02*
X183347120Y-58263680D01*
X183347120Y-58263680D02*
X183385215Y-58187489D01*
X183385215Y-58187489D02*
X183461405Y-58111299D01*
X183461405Y-58111299D02*
X183575691Y-58073204D01*
X183575691Y-58073204D02*
X183651882Y-58073204D01*
X183651882Y-58073204D02*
X183766167Y-58111299D01*
X183766167Y-58111299D02*
X183804263Y-58149394D01*
X182204263Y-53031299D02*
X182128073Y-52993204D01*
X182128073Y-52993204D02*
X182013787Y-52993204D01*
X182013787Y-52993204D02*
X181899501Y-53031299D01*
X181899501Y-53031299D02*
X181823311Y-53107489D01*
X181823311Y-53107489D02*
X181785216Y-53183680D01*
X181785216Y-53183680D02*
X181747120Y-53336061D01*
X181747120Y-53336061D02*
X181747120Y-53450347D01*
X181747120Y-53450347D02*
X181785216Y-53602728D01*
X181785216Y-53602728D02*
X181823311Y-53678918D01*
X181823311Y-53678918D02*
X181899501Y-53755109D01*
X181899501Y-53755109D02*
X182013787Y-53793204D01*
X182013787Y-53793204D02*
X182089978Y-53793204D01*
X182089978Y-53793204D02*
X182204263Y-53755109D01*
X182204263Y-53755109D02*
X182242359Y-53717013D01*
X182242359Y-53717013D02*
X182242359Y-53450347D01*
X182242359Y-53450347D02*
X182089978Y-53450347D01*
X182585216Y-53793204D02*
X182585216Y-52993204D01*
X182585216Y-52993204D02*
X183042359Y-53793204D01*
X183042359Y-53793204D02*
X183042359Y-52993204D01*
X183423311Y-53793204D02*
X183423311Y-52993204D01*
X183423311Y-52993204D02*
X183613787Y-52993204D01*
X183613787Y-52993204D02*
X183728073Y-53031299D01*
X183728073Y-53031299D02*
X183804263Y-53107489D01*
X183804263Y-53107489D02*
X183842358Y-53183680D01*
X183842358Y-53183680D02*
X183880454Y-53336061D01*
X183880454Y-53336061D02*
X183880454Y-53450347D01*
X183880454Y-53450347D02*
X183842358Y-53602728D01*
X183842358Y-53602728D02*
X183804263Y-53678918D01*
X183804263Y-53678918D02*
X183728073Y-53755109D01*
X183728073Y-53755109D02*
X183613787Y-53793204D01*
X183613787Y-53793204D02*
X183423311Y-53793204D01*
X181842358Y-66493204D02*
X181842358Y-65693204D01*
X181842358Y-65693204D02*
X182147120Y-65693204D01*
X182147120Y-65693204D02*
X182223310Y-65731299D01*
X182223310Y-65731299D02*
X182261405Y-65769394D01*
X182261405Y-65769394D02*
X182299501Y-65845585D01*
X182299501Y-65845585D02*
X182299501Y-65959870D01*
X182299501Y-65959870D02*
X182261405Y-66036061D01*
X182261405Y-66036061D02*
X182223310Y-66074156D01*
X182223310Y-66074156D02*
X182147120Y-66112251D01*
X182147120Y-66112251D02*
X181842358Y-66112251D01*
X183061405Y-66493204D02*
X182604262Y-66493204D01*
X182832834Y-66493204D02*
X182832834Y-65693204D01*
X182832834Y-65693204D02*
X182756643Y-65807489D01*
X182756643Y-65807489D02*
X182680453Y-65883680D01*
X182680453Y-65883680D02*
X182604262Y-65921775D01*
X183442358Y-66493204D02*
X183594739Y-66493204D01*
X183594739Y-66493204D02*
X183670929Y-66455109D01*
X183670929Y-66455109D02*
X183709025Y-66417013D01*
X183709025Y-66417013D02*
X183785215Y-66302728D01*
X183785215Y-66302728D02*
X183823310Y-66150347D01*
X183823310Y-66150347D02*
X183823310Y-65845585D01*
X183823310Y-65845585D02*
X183785215Y-65769394D01*
X183785215Y-65769394D02*
X183747120Y-65731299D01*
X183747120Y-65731299D02*
X183670929Y-65693204D01*
X183670929Y-65693204D02*
X183518548Y-65693204D01*
X183518548Y-65693204D02*
X183442358Y-65731299D01*
X183442358Y-65731299D02*
X183404263Y-65769394D01*
X183404263Y-65769394D02*
X183366167Y-65845585D01*
X183366167Y-65845585D02*
X183366167Y-66036061D01*
X183366167Y-66036061D02*
X183404263Y-66112251D01*
X183404263Y-66112251D02*
X183442358Y-66150347D01*
X183442358Y-66150347D02*
X183518548Y-66188442D01*
X183518548Y-66188442D02*
X183670929Y-66188442D01*
X183670929Y-66188442D02*
X183747120Y-66150347D01*
X183747120Y-66150347D02*
X183785215Y-66112251D01*
X183785215Y-66112251D02*
X183823310Y-66036061D01*
X181842358Y-71573204D02*
X181842358Y-70773204D01*
X181842358Y-70773204D02*
X182147120Y-70773204D01*
X182147120Y-70773204D02*
X182223310Y-70811299D01*
X182223310Y-70811299D02*
X182261405Y-70849394D01*
X182261405Y-70849394D02*
X182299501Y-70925585D01*
X182299501Y-70925585D02*
X182299501Y-71039870D01*
X182299501Y-71039870D02*
X182261405Y-71116061D01*
X182261405Y-71116061D02*
X182223310Y-71154156D01*
X182223310Y-71154156D02*
X182147120Y-71192251D01*
X182147120Y-71192251D02*
X181842358Y-71192251D01*
X183061405Y-71573204D02*
X182604262Y-71573204D01*
X182832834Y-71573204D02*
X182832834Y-70773204D01*
X182832834Y-70773204D02*
X182756643Y-70887489D01*
X182756643Y-70887489D02*
X182680453Y-70963680D01*
X182680453Y-70963680D02*
X182604262Y-71001775D01*
X183785215Y-70773204D02*
X183404263Y-70773204D01*
X183404263Y-70773204D02*
X183366167Y-71154156D01*
X183366167Y-71154156D02*
X183404263Y-71116061D01*
X183404263Y-71116061D02*
X183480453Y-71077966D01*
X183480453Y-71077966D02*
X183670929Y-71077966D01*
X183670929Y-71077966D02*
X183747120Y-71116061D01*
X183747120Y-71116061D02*
X183785215Y-71154156D01*
X183785215Y-71154156D02*
X183823310Y-71230347D01*
X183823310Y-71230347D02*
X183823310Y-71420823D01*
X183823310Y-71420823D02*
X183785215Y-71497013D01*
X183785215Y-71497013D02*
X183747120Y-71535109D01*
X183747120Y-71535109D02*
X183670929Y-71573204D01*
X183670929Y-71573204D02*
X183480453Y-71573204D01*
X183480453Y-71573204D02*
X183404263Y-71535109D01*
X183404263Y-71535109D02*
X183366167Y-71497013D01*
X181842358Y-63953204D02*
X181842358Y-63153204D01*
X181842358Y-63153204D02*
X182147120Y-63153204D01*
X182147120Y-63153204D02*
X182223310Y-63191299D01*
X182223310Y-63191299D02*
X182261405Y-63229394D01*
X182261405Y-63229394D02*
X182299501Y-63305585D01*
X182299501Y-63305585D02*
X182299501Y-63419870D01*
X182299501Y-63419870D02*
X182261405Y-63496061D01*
X182261405Y-63496061D02*
X182223310Y-63534156D01*
X182223310Y-63534156D02*
X182147120Y-63572251D01*
X182147120Y-63572251D02*
X181842358Y-63572251D01*
X182604262Y-63229394D02*
X182642358Y-63191299D01*
X182642358Y-63191299D02*
X182718548Y-63153204D01*
X182718548Y-63153204D02*
X182909024Y-63153204D01*
X182909024Y-63153204D02*
X182985215Y-63191299D01*
X182985215Y-63191299D02*
X183023310Y-63229394D01*
X183023310Y-63229394D02*
X183061405Y-63305585D01*
X183061405Y-63305585D02*
X183061405Y-63381775D01*
X183061405Y-63381775D02*
X183023310Y-63496061D01*
X183023310Y-63496061D02*
X182566167Y-63953204D01*
X182566167Y-63953204D02*
X183061405Y-63953204D01*
X183556644Y-63153204D02*
X183632834Y-63153204D01*
X183632834Y-63153204D02*
X183709025Y-63191299D01*
X183709025Y-63191299D02*
X183747120Y-63229394D01*
X183747120Y-63229394D02*
X183785215Y-63305585D01*
X183785215Y-63305585D02*
X183823310Y-63457966D01*
X183823310Y-63457966D02*
X183823310Y-63648442D01*
X183823310Y-63648442D02*
X183785215Y-63800823D01*
X183785215Y-63800823D02*
X183747120Y-63877013D01*
X183747120Y-63877013D02*
X183709025Y-63915109D01*
X183709025Y-63915109D02*
X183632834Y-63953204D01*
X183632834Y-63953204D02*
X183556644Y-63953204D01*
X183556644Y-63953204D02*
X183480453Y-63915109D01*
X183480453Y-63915109D02*
X183442358Y-63877013D01*
X183442358Y-63877013D02*
X183404263Y-63800823D01*
X183404263Y-63800823D02*
X183366167Y-63648442D01*
X183366167Y-63648442D02*
X183366167Y-63457966D01*
X183366167Y-63457966D02*
X183404263Y-63305585D01*
X183404263Y-63305585D02*
X183442358Y-63229394D01*
X183442358Y-63229394D02*
X183480453Y-63191299D01*
X183480453Y-63191299D02*
X183556644Y-63153204D01*
X181842358Y-74113204D02*
X181842358Y-73313204D01*
X181842358Y-73313204D02*
X182147120Y-73313204D01*
X182147120Y-73313204D02*
X182223310Y-73351299D01*
X182223310Y-73351299D02*
X182261405Y-73389394D01*
X182261405Y-73389394D02*
X182299501Y-73465585D01*
X182299501Y-73465585D02*
X182299501Y-73579870D01*
X182299501Y-73579870D02*
X182261405Y-73656061D01*
X182261405Y-73656061D02*
X182223310Y-73694156D01*
X182223310Y-73694156D02*
X182147120Y-73732251D01*
X182147120Y-73732251D02*
X181842358Y-73732251D01*
X183061405Y-74113204D02*
X182604262Y-74113204D01*
X182832834Y-74113204D02*
X182832834Y-73313204D01*
X182832834Y-73313204D02*
X182756643Y-73427489D01*
X182756643Y-73427489D02*
X182680453Y-73503680D01*
X182680453Y-73503680D02*
X182604262Y-73541775D01*
X183747120Y-73579870D02*
X183747120Y-74113204D01*
X183556644Y-73275109D02*
X183366167Y-73846537D01*
X183366167Y-73846537D02*
X183861406Y-73846537D01*
X191442358Y-66493204D02*
X191442358Y-65693204D01*
X191442358Y-65693204D02*
X191747120Y-65693204D01*
X191747120Y-65693204D02*
X191823310Y-65731299D01*
X191823310Y-65731299D02*
X191861405Y-65769394D01*
X191861405Y-65769394D02*
X191899501Y-65845585D01*
X191899501Y-65845585D02*
X191899501Y-65959870D01*
X191899501Y-65959870D02*
X191861405Y-66036061D01*
X191861405Y-66036061D02*
X191823310Y-66074156D01*
X191823310Y-66074156D02*
X191747120Y-66112251D01*
X191747120Y-66112251D02*
X191442358Y-66112251D01*
X192394739Y-65693204D02*
X192470929Y-65693204D01*
X192470929Y-65693204D02*
X192547120Y-65731299D01*
X192547120Y-65731299D02*
X192585215Y-65769394D01*
X192585215Y-65769394D02*
X192623310Y-65845585D01*
X192623310Y-65845585D02*
X192661405Y-65997966D01*
X192661405Y-65997966D02*
X192661405Y-66188442D01*
X192661405Y-66188442D02*
X192623310Y-66340823D01*
X192623310Y-66340823D02*
X192585215Y-66417013D01*
X192585215Y-66417013D02*
X192547120Y-66455109D01*
X192547120Y-66455109D02*
X192470929Y-66493204D01*
X192470929Y-66493204D02*
X192394739Y-66493204D01*
X192394739Y-66493204D02*
X192318548Y-66455109D01*
X192318548Y-66455109D02*
X192280453Y-66417013D01*
X192280453Y-66417013D02*
X192242358Y-66340823D01*
X192242358Y-66340823D02*
X192204262Y-66188442D01*
X192204262Y-66188442D02*
X192204262Y-65997966D01*
X192204262Y-65997966D02*
X192242358Y-65845585D01*
X192242358Y-65845585D02*
X192280453Y-65769394D01*
X192280453Y-65769394D02*
X192318548Y-65731299D01*
X192318548Y-65731299D02*
X192394739Y-65693204D01*
X193347120Y-65959870D02*
X193347120Y-66493204D01*
X193156644Y-65655109D02*
X192966167Y-66226537D01*
X192966167Y-66226537D02*
X193461406Y-66226537D01*
X191442358Y-51253204D02*
X191442358Y-50453204D01*
X191442358Y-50453204D02*
X191747120Y-50453204D01*
X191747120Y-50453204D02*
X191823310Y-50491299D01*
X191823310Y-50491299D02*
X191861405Y-50529394D01*
X191861405Y-50529394D02*
X191899501Y-50605585D01*
X191899501Y-50605585D02*
X191899501Y-50719870D01*
X191899501Y-50719870D02*
X191861405Y-50796061D01*
X191861405Y-50796061D02*
X191823310Y-50834156D01*
X191823310Y-50834156D02*
X191747120Y-50872251D01*
X191747120Y-50872251D02*
X191442358Y-50872251D01*
X192394739Y-50453204D02*
X192470929Y-50453204D01*
X192470929Y-50453204D02*
X192547120Y-50491299D01*
X192547120Y-50491299D02*
X192585215Y-50529394D01*
X192585215Y-50529394D02*
X192623310Y-50605585D01*
X192623310Y-50605585D02*
X192661405Y-50757966D01*
X192661405Y-50757966D02*
X192661405Y-50948442D01*
X192661405Y-50948442D02*
X192623310Y-51100823D01*
X192623310Y-51100823D02*
X192585215Y-51177013D01*
X192585215Y-51177013D02*
X192547120Y-51215109D01*
X192547120Y-51215109D02*
X192470929Y-51253204D01*
X192470929Y-51253204D02*
X192394739Y-51253204D01*
X192394739Y-51253204D02*
X192318548Y-51215109D01*
X192318548Y-51215109D02*
X192280453Y-51177013D01*
X192280453Y-51177013D02*
X192242358Y-51100823D01*
X192242358Y-51100823D02*
X192204262Y-50948442D01*
X192204262Y-50948442D02*
X192204262Y-50757966D01*
X192204262Y-50757966D02*
X192242358Y-50605585D01*
X192242358Y-50605585D02*
X192280453Y-50529394D01*
X192280453Y-50529394D02*
X192318548Y-50491299D01*
X192318548Y-50491299D02*
X192394739Y-50453204D01*
X193423310Y-51253204D02*
X192966167Y-51253204D01*
X193194739Y-51253204D02*
X193194739Y-50453204D01*
X193194739Y-50453204D02*
X193118548Y-50567489D01*
X193118548Y-50567489D02*
X193042358Y-50643680D01*
X193042358Y-50643680D02*
X192966167Y-50681775D01*
X191804263Y-55571299D02*
X191728073Y-55533204D01*
X191728073Y-55533204D02*
X191613787Y-55533204D01*
X191613787Y-55533204D02*
X191499501Y-55571299D01*
X191499501Y-55571299D02*
X191423311Y-55647489D01*
X191423311Y-55647489D02*
X191385216Y-55723680D01*
X191385216Y-55723680D02*
X191347120Y-55876061D01*
X191347120Y-55876061D02*
X191347120Y-55990347D01*
X191347120Y-55990347D02*
X191385216Y-56142728D01*
X191385216Y-56142728D02*
X191423311Y-56218918D01*
X191423311Y-56218918D02*
X191499501Y-56295109D01*
X191499501Y-56295109D02*
X191613787Y-56333204D01*
X191613787Y-56333204D02*
X191689978Y-56333204D01*
X191689978Y-56333204D02*
X191804263Y-56295109D01*
X191804263Y-56295109D02*
X191842359Y-56257013D01*
X191842359Y-56257013D02*
X191842359Y-55990347D01*
X191842359Y-55990347D02*
X191689978Y-55990347D01*
X192185216Y-56333204D02*
X192185216Y-55533204D01*
X192185216Y-55533204D02*
X192642359Y-56333204D01*
X192642359Y-56333204D02*
X192642359Y-55533204D01*
X193023311Y-56333204D02*
X193023311Y-55533204D01*
X193023311Y-55533204D02*
X193213787Y-55533204D01*
X193213787Y-55533204D02*
X193328073Y-55571299D01*
X193328073Y-55571299D02*
X193404263Y-55647489D01*
X193404263Y-55647489D02*
X193442358Y-55723680D01*
X193442358Y-55723680D02*
X193480454Y-55876061D01*
X193480454Y-55876061D02*
X193480454Y-55990347D01*
X193480454Y-55990347D02*
X193442358Y-56142728D01*
X193442358Y-56142728D02*
X193404263Y-56218918D01*
X193404263Y-56218918D02*
X193328073Y-56295109D01*
X193328073Y-56295109D02*
X193213787Y-56333204D01*
X193213787Y-56333204D02*
X193023311Y-56333204D01*
X181842358Y-69033204D02*
X181842358Y-68233204D01*
X181842358Y-68233204D02*
X182147120Y-68233204D01*
X182147120Y-68233204D02*
X182223310Y-68271299D01*
X182223310Y-68271299D02*
X182261405Y-68309394D01*
X182261405Y-68309394D02*
X182299501Y-68385585D01*
X182299501Y-68385585D02*
X182299501Y-68499870D01*
X182299501Y-68499870D02*
X182261405Y-68576061D01*
X182261405Y-68576061D02*
X182223310Y-68614156D01*
X182223310Y-68614156D02*
X182147120Y-68652251D01*
X182147120Y-68652251D02*
X181842358Y-68652251D01*
X183061405Y-69033204D02*
X182604262Y-69033204D01*
X182832834Y-69033204D02*
X182832834Y-68233204D01*
X182832834Y-68233204D02*
X182756643Y-68347489D01*
X182756643Y-68347489D02*
X182680453Y-68423680D01*
X182680453Y-68423680D02*
X182604262Y-68461775D01*
X183518548Y-68576061D02*
X183442358Y-68537966D01*
X183442358Y-68537966D02*
X183404263Y-68499870D01*
X183404263Y-68499870D02*
X183366167Y-68423680D01*
X183366167Y-68423680D02*
X183366167Y-68385585D01*
X183366167Y-68385585D02*
X183404263Y-68309394D01*
X183404263Y-68309394D02*
X183442358Y-68271299D01*
X183442358Y-68271299D02*
X183518548Y-68233204D01*
X183518548Y-68233204D02*
X183670929Y-68233204D01*
X183670929Y-68233204D02*
X183747120Y-68271299D01*
X183747120Y-68271299D02*
X183785215Y-68309394D01*
X183785215Y-68309394D02*
X183823310Y-68385585D01*
X183823310Y-68385585D02*
X183823310Y-68423680D01*
X183823310Y-68423680D02*
X183785215Y-68499870D01*
X183785215Y-68499870D02*
X183747120Y-68537966D01*
X183747120Y-68537966D02*
X183670929Y-68576061D01*
X183670929Y-68576061D02*
X183518548Y-68576061D01*
X183518548Y-68576061D02*
X183442358Y-68614156D01*
X183442358Y-68614156D02*
X183404263Y-68652251D01*
X183404263Y-68652251D02*
X183366167Y-68728442D01*
X183366167Y-68728442D02*
X183366167Y-68880823D01*
X183366167Y-68880823D02*
X183404263Y-68957013D01*
X183404263Y-68957013D02*
X183442358Y-68995109D01*
X183442358Y-68995109D02*
X183518548Y-69033204D01*
X183518548Y-69033204D02*
X183670929Y-69033204D01*
X183670929Y-69033204D02*
X183747120Y-68995109D01*
X183747120Y-68995109D02*
X183785215Y-68957013D01*
X183785215Y-68957013D02*
X183823310Y-68880823D01*
X183823310Y-68880823D02*
X183823310Y-68728442D01*
X183823310Y-68728442D02*
X183785215Y-68652251D01*
X183785215Y-68652251D02*
X183747120Y-68614156D01*
X183747120Y-68614156D02*
X183670929Y-68576061D01*
X191442358Y-53793204D02*
X191442358Y-52993204D01*
X191442358Y-52993204D02*
X191747120Y-52993204D01*
X191747120Y-52993204D02*
X191823310Y-53031299D01*
X191823310Y-53031299D02*
X191861405Y-53069394D01*
X191861405Y-53069394D02*
X191899501Y-53145585D01*
X191899501Y-53145585D02*
X191899501Y-53259870D01*
X191899501Y-53259870D02*
X191861405Y-53336061D01*
X191861405Y-53336061D02*
X191823310Y-53374156D01*
X191823310Y-53374156D02*
X191747120Y-53412251D01*
X191747120Y-53412251D02*
X191442358Y-53412251D01*
X192394739Y-52993204D02*
X192470929Y-52993204D01*
X192470929Y-52993204D02*
X192547120Y-53031299D01*
X192547120Y-53031299D02*
X192585215Y-53069394D01*
X192585215Y-53069394D02*
X192623310Y-53145585D01*
X192623310Y-53145585D02*
X192661405Y-53297966D01*
X192661405Y-53297966D02*
X192661405Y-53488442D01*
X192661405Y-53488442D02*
X192623310Y-53640823D01*
X192623310Y-53640823D02*
X192585215Y-53717013D01*
X192585215Y-53717013D02*
X192547120Y-53755109D01*
X192547120Y-53755109D02*
X192470929Y-53793204D01*
X192470929Y-53793204D02*
X192394739Y-53793204D01*
X192394739Y-53793204D02*
X192318548Y-53755109D01*
X192318548Y-53755109D02*
X192280453Y-53717013D01*
X192280453Y-53717013D02*
X192242358Y-53640823D01*
X192242358Y-53640823D02*
X192204262Y-53488442D01*
X192204262Y-53488442D02*
X192204262Y-53297966D01*
X192204262Y-53297966D02*
X192242358Y-53145585D01*
X192242358Y-53145585D02*
X192280453Y-53069394D01*
X192280453Y-53069394D02*
X192318548Y-53031299D01*
X192318548Y-53031299D02*
X192394739Y-52993204D01*
X193156644Y-52993204D02*
X193232834Y-52993204D01*
X193232834Y-52993204D02*
X193309025Y-53031299D01*
X193309025Y-53031299D02*
X193347120Y-53069394D01*
X193347120Y-53069394D02*
X193385215Y-53145585D01*
X193385215Y-53145585D02*
X193423310Y-53297966D01*
X193423310Y-53297966D02*
X193423310Y-53488442D01*
X193423310Y-53488442D02*
X193385215Y-53640823D01*
X193385215Y-53640823D02*
X193347120Y-53717013D01*
X193347120Y-53717013D02*
X193309025Y-53755109D01*
X193309025Y-53755109D02*
X193232834Y-53793204D01*
X193232834Y-53793204D02*
X193156644Y-53793204D01*
X193156644Y-53793204D02*
X193080453Y-53755109D01*
X193080453Y-53755109D02*
X193042358Y-53717013D01*
X193042358Y-53717013D02*
X193004263Y-53640823D01*
X193004263Y-53640823D02*
X192966167Y-53488442D01*
X192966167Y-53488442D02*
X192966167Y-53297966D01*
X192966167Y-53297966D02*
X193004263Y-53145585D01*
X193004263Y-53145585D02*
X193042358Y-53069394D01*
X193042358Y-53069394D02*
X193080453Y-53031299D01*
X193080453Y-53031299D02*
X193156644Y-52993204D01*
X182261406Y-51253204D02*
X181994739Y-50872251D01*
X181804263Y-51253204D02*
X181804263Y-50453204D01*
X181804263Y-50453204D02*
X182109025Y-50453204D01*
X182109025Y-50453204D02*
X182185215Y-50491299D01*
X182185215Y-50491299D02*
X182223310Y-50529394D01*
X182223310Y-50529394D02*
X182261406Y-50605585D01*
X182261406Y-50605585D02*
X182261406Y-50719870D01*
X182261406Y-50719870D02*
X182223310Y-50796061D01*
X182223310Y-50796061D02*
X182185215Y-50834156D01*
X182185215Y-50834156D02*
X182109025Y-50872251D01*
X182109025Y-50872251D02*
X181804263Y-50872251D01*
X182566167Y-51024632D02*
X182947120Y-51024632D01*
X182489977Y-51253204D02*
X182756644Y-50453204D01*
X182756644Y-50453204D02*
X183023310Y-51253204D01*
X183213786Y-50453204D02*
X183404262Y-51253204D01*
X183404262Y-51253204D02*
X183556643Y-50681775D01*
X183556643Y-50681775D02*
X183709024Y-51253204D01*
X183709024Y-51253204D02*
X183899501Y-50453204D01*
X191442358Y-76653204D02*
X191442358Y-75853204D01*
X191442358Y-75853204D02*
X191747120Y-75853204D01*
X191747120Y-75853204D02*
X191823310Y-75891299D01*
X191823310Y-75891299D02*
X191861405Y-75929394D01*
X191861405Y-75929394D02*
X191899501Y-76005585D01*
X191899501Y-76005585D02*
X191899501Y-76119870D01*
X191899501Y-76119870D02*
X191861405Y-76196061D01*
X191861405Y-76196061D02*
X191823310Y-76234156D01*
X191823310Y-76234156D02*
X191747120Y-76272251D01*
X191747120Y-76272251D02*
X191442358Y-76272251D01*
X192394739Y-75853204D02*
X192470929Y-75853204D01*
X192470929Y-75853204D02*
X192547120Y-75891299D01*
X192547120Y-75891299D02*
X192585215Y-75929394D01*
X192585215Y-75929394D02*
X192623310Y-76005585D01*
X192623310Y-76005585D02*
X192661405Y-76157966D01*
X192661405Y-76157966D02*
X192661405Y-76348442D01*
X192661405Y-76348442D02*
X192623310Y-76500823D01*
X192623310Y-76500823D02*
X192585215Y-76577013D01*
X192585215Y-76577013D02*
X192547120Y-76615109D01*
X192547120Y-76615109D02*
X192470929Y-76653204D01*
X192470929Y-76653204D02*
X192394739Y-76653204D01*
X192394739Y-76653204D02*
X192318548Y-76615109D01*
X192318548Y-76615109D02*
X192280453Y-76577013D01*
X192280453Y-76577013D02*
X192242358Y-76500823D01*
X192242358Y-76500823D02*
X192204262Y-76348442D01*
X192204262Y-76348442D02*
X192204262Y-76157966D01*
X192204262Y-76157966D02*
X192242358Y-76005585D01*
X192242358Y-76005585D02*
X192280453Y-75929394D01*
X192280453Y-75929394D02*
X192318548Y-75891299D01*
X192318548Y-75891299D02*
X192394739Y-75853204D01*
X193118548Y-76196061D02*
X193042358Y-76157966D01*
X193042358Y-76157966D02*
X193004263Y-76119870D01*
X193004263Y-76119870D02*
X192966167Y-76043680D01*
X192966167Y-76043680D02*
X192966167Y-76005585D01*
X192966167Y-76005585D02*
X193004263Y-75929394D01*
X193004263Y-75929394D02*
X193042358Y-75891299D01*
X193042358Y-75891299D02*
X193118548Y-75853204D01*
X193118548Y-75853204D02*
X193270929Y-75853204D01*
X193270929Y-75853204D02*
X193347120Y-75891299D01*
X193347120Y-75891299D02*
X193385215Y-75929394D01*
X193385215Y-75929394D02*
X193423310Y-76005585D01*
X193423310Y-76005585D02*
X193423310Y-76043680D01*
X193423310Y-76043680D02*
X193385215Y-76119870D01*
X193385215Y-76119870D02*
X193347120Y-76157966D01*
X193347120Y-76157966D02*
X193270929Y-76196061D01*
X193270929Y-76196061D02*
X193118548Y-76196061D01*
X193118548Y-76196061D02*
X193042358Y-76234156D01*
X193042358Y-76234156D02*
X193004263Y-76272251D01*
X193004263Y-76272251D02*
X192966167Y-76348442D01*
X192966167Y-76348442D02*
X192966167Y-76500823D01*
X192966167Y-76500823D02*
X193004263Y-76577013D01*
X193004263Y-76577013D02*
X193042358Y-76615109D01*
X193042358Y-76615109D02*
X193118548Y-76653204D01*
X193118548Y-76653204D02*
X193270929Y-76653204D01*
X193270929Y-76653204D02*
X193347120Y-76615109D01*
X193347120Y-76615109D02*
X193385215Y-76577013D01*
X193385215Y-76577013D02*
X193423310Y-76500823D01*
X193423310Y-76500823D02*
X193423310Y-76348442D01*
X193423310Y-76348442D02*
X193385215Y-76272251D01*
X193385215Y-76272251D02*
X193347120Y-76234156D01*
X193347120Y-76234156D02*
X193270929Y-76196061D01*
X191442358Y-61413204D02*
X191442358Y-60613204D01*
X191442358Y-60613204D02*
X191747120Y-60613204D01*
X191747120Y-60613204D02*
X191823310Y-60651299D01*
X191823310Y-60651299D02*
X191861405Y-60689394D01*
X191861405Y-60689394D02*
X191899501Y-60765585D01*
X191899501Y-60765585D02*
X191899501Y-60879870D01*
X191899501Y-60879870D02*
X191861405Y-60956061D01*
X191861405Y-60956061D02*
X191823310Y-60994156D01*
X191823310Y-60994156D02*
X191747120Y-61032251D01*
X191747120Y-61032251D02*
X191442358Y-61032251D01*
X192394739Y-60613204D02*
X192470929Y-60613204D01*
X192470929Y-60613204D02*
X192547120Y-60651299D01*
X192547120Y-60651299D02*
X192585215Y-60689394D01*
X192585215Y-60689394D02*
X192623310Y-60765585D01*
X192623310Y-60765585D02*
X192661405Y-60917966D01*
X192661405Y-60917966D02*
X192661405Y-61108442D01*
X192661405Y-61108442D02*
X192623310Y-61260823D01*
X192623310Y-61260823D02*
X192585215Y-61337013D01*
X192585215Y-61337013D02*
X192547120Y-61375109D01*
X192547120Y-61375109D02*
X192470929Y-61413204D01*
X192470929Y-61413204D02*
X192394739Y-61413204D01*
X192394739Y-61413204D02*
X192318548Y-61375109D01*
X192318548Y-61375109D02*
X192280453Y-61337013D01*
X192280453Y-61337013D02*
X192242358Y-61260823D01*
X192242358Y-61260823D02*
X192204262Y-61108442D01*
X192204262Y-61108442D02*
X192204262Y-60917966D01*
X192204262Y-60917966D02*
X192242358Y-60765585D01*
X192242358Y-60765585D02*
X192280453Y-60689394D01*
X192280453Y-60689394D02*
X192318548Y-60651299D01*
X192318548Y-60651299D02*
X192394739Y-60613204D01*
X192966167Y-60689394D02*
X193004263Y-60651299D01*
X193004263Y-60651299D02*
X193080453Y-60613204D01*
X193080453Y-60613204D02*
X193270929Y-60613204D01*
X193270929Y-60613204D02*
X193347120Y-60651299D01*
X193347120Y-60651299D02*
X193385215Y-60689394D01*
X193385215Y-60689394D02*
X193423310Y-60765585D01*
X193423310Y-60765585D02*
X193423310Y-60841775D01*
X193423310Y-60841775D02*
X193385215Y-60956061D01*
X193385215Y-60956061D02*
X192928072Y-61413204D01*
X192928072Y-61413204D02*
X193423310Y-61413204D01*
X182375692Y-56333204D02*
X182109025Y-55952251D01*
X181918549Y-56333204D02*
X181918549Y-55533204D01*
X181918549Y-55533204D02*
X182223311Y-55533204D01*
X182223311Y-55533204D02*
X182299501Y-55571299D01*
X182299501Y-55571299D02*
X182337596Y-55609394D01*
X182337596Y-55609394D02*
X182375692Y-55685585D01*
X182375692Y-55685585D02*
X182375692Y-55799870D01*
X182375692Y-55799870D02*
X182337596Y-55876061D01*
X182337596Y-55876061D02*
X182299501Y-55914156D01*
X182299501Y-55914156D02*
X182223311Y-55952251D01*
X182223311Y-55952251D02*
X181918549Y-55952251D01*
X182680453Y-56295109D02*
X182794739Y-56333204D01*
X182794739Y-56333204D02*
X182985215Y-56333204D01*
X182985215Y-56333204D02*
X183061406Y-56295109D01*
X183061406Y-56295109D02*
X183099501Y-56257013D01*
X183099501Y-56257013D02*
X183137596Y-56180823D01*
X183137596Y-56180823D02*
X183137596Y-56104632D01*
X183137596Y-56104632D02*
X183099501Y-56028442D01*
X183099501Y-56028442D02*
X183061406Y-55990347D01*
X183061406Y-55990347D02*
X182985215Y-55952251D01*
X182985215Y-55952251D02*
X182832834Y-55914156D01*
X182832834Y-55914156D02*
X182756644Y-55876061D01*
X182756644Y-55876061D02*
X182718549Y-55837966D01*
X182718549Y-55837966D02*
X182680453Y-55761775D01*
X182680453Y-55761775D02*
X182680453Y-55685585D01*
X182680453Y-55685585D02*
X182718549Y-55609394D01*
X182718549Y-55609394D02*
X182756644Y-55571299D01*
X182756644Y-55571299D02*
X182832834Y-55533204D01*
X182832834Y-55533204D02*
X183023311Y-55533204D01*
X183023311Y-55533204D02*
X183137596Y-55571299D01*
X183366168Y-55533204D02*
X183823311Y-55533204D01*
X183594739Y-56333204D02*
X183594739Y-55533204D01*
X181842358Y-79193204D02*
X181842358Y-78393204D01*
X181842358Y-78393204D02*
X182147120Y-78393204D01*
X182147120Y-78393204D02*
X182223310Y-78431299D01*
X182223310Y-78431299D02*
X182261405Y-78469394D01*
X182261405Y-78469394D02*
X182299501Y-78545585D01*
X182299501Y-78545585D02*
X182299501Y-78659870D01*
X182299501Y-78659870D02*
X182261405Y-78736061D01*
X182261405Y-78736061D02*
X182223310Y-78774156D01*
X182223310Y-78774156D02*
X182147120Y-78812251D01*
X182147120Y-78812251D02*
X181842358Y-78812251D01*
X183061405Y-79193204D02*
X182604262Y-79193204D01*
X182832834Y-79193204D02*
X182832834Y-78393204D01*
X182832834Y-78393204D02*
X182756643Y-78507489D01*
X182756643Y-78507489D02*
X182680453Y-78583680D01*
X182680453Y-78583680D02*
X182604262Y-78621775D01*
X183556644Y-78393204D02*
X183632834Y-78393204D01*
X183632834Y-78393204D02*
X183709025Y-78431299D01*
X183709025Y-78431299D02*
X183747120Y-78469394D01*
X183747120Y-78469394D02*
X183785215Y-78545585D01*
X183785215Y-78545585D02*
X183823310Y-78697966D01*
X183823310Y-78697966D02*
X183823310Y-78888442D01*
X183823310Y-78888442D02*
X183785215Y-79040823D01*
X183785215Y-79040823D02*
X183747120Y-79117013D01*
X183747120Y-79117013D02*
X183709025Y-79155109D01*
X183709025Y-79155109D02*
X183632834Y-79193204D01*
X183632834Y-79193204D02*
X183556644Y-79193204D01*
X183556644Y-79193204D02*
X183480453Y-79155109D01*
X183480453Y-79155109D02*
X183442358Y-79117013D01*
X183442358Y-79117013D02*
X183404263Y-79040823D01*
X183404263Y-79040823D02*
X183366167Y-78888442D01*
X183366167Y-78888442D02*
X183366167Y-78697966D01*
X183366167Y-78697966D02*
X183404263Y-78545585D01*
X183404263Y-78545585D02*
X183442358Y-78469394D01*
X183442358Y-78469394D02*
X183480453Y-78431299D01*
X183480453Y-78431299D02*
X183556644Y-78393204D01*
X191442358Y-69033204D02*
X191442358Y-68233204D01*
X191442358Y-68233204D02*
X191747120Y-68233204D01*
X191747120Y-68233204D02*
X191823310Y-68271299D01*
X191823310Y-68271299D02*
X191861405Y-68309394D01*
X191861405Y-68309394D02*
X191899501Y-68385585D01*
X191899501Y-68385585D02*
X191899501Y-68499870D01*
X191899501Y-68499870D02*
X191861405Y-68576061D01*
X191861405Y-68576061D02*
X191823310Y-68614156D01*
X191823310Y-68614156D02*
X191747120Y-68652251D01*
X191747120Y-68652251D02*
X191442358Y-68652251D01*
X192394739Y-68233204D02*
X192470929Y-68233204D01*
X192470929Y-68233204D02*
X192547120Y-68271299D01*
X192547120Y-68271299D02*
X192585215Y-68309394D01*
X192585215Y-68309394D02*
X192623310Y-68385585D01*
X192623310Y-68385585D02*
X192661405Y-68537966D01*
X192661405Y-68537966D02*
X192661405Y-68728442D01*
X192661405Y-68728442D02*
X192623310Y-68880823D01*
X192623310Y-68880823D02*
X192585215Y-68957013D01*
X192585215Y-68957013D02*
X192547120Y-68995109D01*
X192547120Y-68995109D02*
X192470929Y-69033204D01*
X192470929Y-69033204D02*
X192394739Y-69033204D01*
X192394739Y-69033204D02*
X192318548Y-68995109D01*
X192318548Y-68995109D02*
X192280453Y-68957013D01*
X192280453Y-68957013D02*
X192242358Y-68880823D01*
X192242358Y-68880823D02*
X192204262Y-68728442D01*
X192204262Y-68728442D02*
X192204262Y-68537966D01*
X192204262Y-68537966D02*
X192242358Y-68385585D01*
X192242358Y-68385585D02*
X192280453Y-68309394D01*
X192280453Y-68309394D02*
X192318548Y-68271299D01*
X192318548Y-68271299D02*
X192394739Y-68233204D01*
X193385215Y-68233204D02*
X193004263Y-68233204D01*
X193004263Y-68233204D02*
X192966167Y-68614156D01*
X192966167Y-68614156D02*
X193004263Y-68576061D01*
X193004263Y-68576061D02*
X193080453Y-68537966D01*
X193080453Y-68537966D02*
X193270929Y-68537966D01*
X193270929Y-68537966D02*
X193347120Y-68576061D01*
X193347120Y-68576061D02*
X193385215Y-68614156D01*
X193385215Y-68614156D02*
X193423310Y-68690347D01*
X193423310Y-68690347D02*
X193423310Y-68880823D01*
X193423310Y-68880823D02*
X193385215Y-68957013D01*
X193385215Y-68957013D02*
X193347120Y-68995109D01*
X193347120Y-68995109D02*
X193270929Y-69033204D01*
X193270929Y-69033204D02*
X193080453Y-69033204D01*
X193080453Y-69033204D02*
X193004263Y-68995109D01*
X193004263Y-68995109D02*
X192966167Y-68957013D01*
X191442358Y-79193204D02*
X191442358Y-78393204D01*
X191442358Y-78393204D02*
X191747120Y-78393204D01*
X191747120Y-78393204D02*
X191823310Y-78431299D01*
X191823310Y-78431299D02*
X191861405Y-78469394D01*
X191861405Y-78469394D02*
X191899501Y-78545585D01*
X191899501Y-78545585D02*
X191899501Y-78659870D01*
X191899501Y-78659870D02*
X191861405Y-78736061D01*
X191861405Y-78736061D02*
X191823310Y-78774156D01*
X191823310Y-78774156D02*
X191747120Y-78812251D01*
X191747120Y-78812251D02*
X191442358Y-78812251D01*
X192394739Y-78393204D02*
X192470929Y-78393204D01*
X192470929Y-78393204D02*
X192547120Y-78431299D01*
X192547120Y-78431299D02*
X192585215Y-78469394D01*
X192585215Y-78469394D02*
X192623310Y-78545585D01*
X192623310Y-78545585D02*
X192661405Y-78697966D01*
X192661405Y-78697966D02*
X192661405Y-78888442D01*
X192661405Y-78888442D02*
X192623310Y-79040823D01*
X192623310Y-79040823D02*
X192585215Y-79117013D01*
X192585215Y-79117013D02*
X192547120Y-79155109D01*
X192547120Y-79155109D02*
X192470929Y-79193204D01*
X192470929Y-79193204D02*
X192394739Y-79193204D01*
X192394739Y-79193204D02*
X192318548Y-79155109D01*
X192318548Y-79155109D02*
X192280453Y-79117013D01*
X192280453Y-79117013D02*
X192242358Y-79040823D01*
X192242358Y-79040823D02*
X192204262Y-78888442D01*
X192204262Y-78888442D02*
X192204262Y-78697966D01*
X192204262Y-78697966D02*
X192242358Y-78545585D01*
X192242358Y-78545585D02*
X192280453Y-78469394D01*
X192280453Y-78469394D02*
X192318548Y-78431299D01*
X192318548Y-78431299D02*
X192394739Y-78393204D01*
X193042358Y-79193204D02*
X193194739Y-79193204D01*
X193194739Y-79193204D02*
X193270929Y-79155109D01*
X193270929Y-79155109D02*
X193309025Y-79117013D01*
X193309025Y-79117013D02*
X193385215Y-79002728D01*
X193385215Y-79002728D02*
X193423310Y-78850347D01*
X193423310Y-78850347D02*
X193423310Y-78545585D01*
X193423310Y-78545585D02*
X193385215Y-78469394D01*
X193385215Y-78469394D02*
X193347120Y-78431299D01*
X193347120Y-78431299D02*
X193270929Y-78393204D01*
X193270929Y-78393204D02*
X193118548Y-78393204D01*
X193118548Y-78393204D02*
X193042358Y-78431299D01*
X193042358Y-78431299D02*
X193004263Y-78469394D01*
X193004263Y-78469394D02*
X192966167Y-78545585D01*
X192966167Y-78545585D02*
X192966167Y-78736061D01*
X192966167Y-78736061D02*
X193004263Y-78812251D01*
X193004263Y-78812251D02*
X193042358Y-78850347D01*
X193042358Y-78850347D02*
X193118548Y-78888442D01*
X193118548Y-78888442D02*
X193270929Y-78888442D01*
X193270929Y-78888442D02*
X193347120Y-78850347D01*
X193347120Y-78850347D02*
X193385215Y-78812251D01*
X193385215Y-78812251D02*
X193423310Y-78736061D01*
X191804263Y-58111299D02*
X191728073Y-58073204D01*
X191728073Y-58073204D02*
X191613787Y-58073204D01*
X191613787Y-58073204D02*
X191499501Y-58111299D01*
X191499501Y-58111299D02*
X191423311Y-58187489D01*
X191423311Y-58187489D02*
X191385216Y-58263680D01*
X191385216Y-58263680D02*
X191347120Y-58416061D01*
X191347120Y-58416061D02*
X191347120Y-58530347D01*
X191347120Y-58530347D02*
X191385216Y-58682728D01*
X191385216Y-58682728D02*
X191423311Y-58758918D01*
X191423311Y-58758918D02*
X191499501Y-58835109D01*
X191499501Y-58835109D02*
X191613787Y-58873204D01*
X191613787Y-58873204D02*
X191689978Y-58873204D01*
X191689978Y-58873204D02*
X191804263Y-58835109D01*
X191804263Y-58835109D02*
X191842359Y-58797013D01*
X191842359Y-58797013D02*
X191842359Y-58530347D01*
X191842359Y-58530347D02*
X191689978Y-58530347D01*
X192185216Y-58873204D02*
X192185216Y-58073204D01*
X192185216Y-58073204D02*
X192642359Y-58873204D01*
X192642359Y-58873204D02*
X192642359Y-58073204D01*
X193023311Y-58873204D02*
X193023311Y-58073204D01*
X193023311Y-58073204D02*
X193213787Y-58073204D01*
X193213787Y-58073204D02*
X193328073Y-58111299D01*
X193328073Y-58111299D02*
X193404263Y-58187489D01*
X193404263Y-58187489D02*
X193442358Y-58263680D01*
X193442358Y-58263680D02*
X193480454Y-58416061D01*
X193480454Y-58416061D02*
X193480454Y-58530347D01*
X193480454Y-58530347D02*
X193442358Y-58682728D01*
X193442358Y-58682728D02*
X193404263Y-58758918D01*
X193404263Y-58758918D02*
X193328073Y-58835109D01*
X193328073Y-58835109D02*
X193213787Y-58873204D01*
X193213787Y-58873204D02*
X193023311Y-58873204D01*
X191442358Y-71573204D02*
X191442358Y-70773204D01*
X191442358Y-70773204D02*
X191747120Y-70773204D01*
X191747120Y-70773204D02*
X191823310Y-70811299D01*
X191823310Y-70811299D02*
X191861405Y-70849394D01*
X191861405Y-70849394D02*
X191899501Y-70925585D01*
X191899501Y-70925585D02*
X191899501Y-71039870D01*
X191899501Y-71039870D02*
X191861405Y-71116061D01*
X191861405Y-71116061D02*
X191823310Y-71154156D01*
X191823310Y-71154156D02*
X191747120Y-71192251D01*
X191747120Y-71192251D02*
X191442358Y-71192251D01*
X192394739Y-70773204D02*
X192470929Y-70773204D01*
X192470929Y-70773204D02*
X192547120Y-70811299D01*
X192547120Y-70811299D02*
X192585215Y-70849394D01*
X192585215Y-70849394D02*
X192623310Y-70925585D01*
X192623310Y-70925585D02*
X192661405Y-71077966D01*
X192661405Y-71077966D02*
X192661405Y-71268442D01*
X192661405Y-71268442D02*
X192623310Y-71420823D01*
X192623310Y-71420823D02*
X192585215Y-71497013D01*
X192585215Y-71497013D02*
X192547120Y-71535109D01*
X192547120Y-71535109D02*
X192470929Y-71573204D01*
X192470929Y-71573204D02*
X192394739Y-71573204D01*
X192394739Y-71573204D02*
X192318548Y-71535109D01*
X192318548Y-71535109D02*
X192280453Y-71497013D01*
X192280453Y-71497013D02*
X192242358Y-71420823D01*
X192242358Y-71420823D02*
X192204262Y-71268442D01*
X192204262Y-71268442D02*
X192204262Y-71077966D01*
X192204262Y-71077966D02*
X192242358Y-70925585D01*
X192242358Y-70925585D02*
X192280453Y-70849394D01*
X192280453Y-70849394D02*
X192318548Y-70811299D01*
X192318548Y-70811299D02*
X192394739Y-70773204D01*
X193347120Y-70773204D02*
X193194739Y-70773204D01*
X193194739Y-70773204D02*
X193118548Y-70811299D01*
X193118548Y-70811299D02*
X193080453Y-70849394D01*
X193080453Y-70849394D02*
X193004263Y-70963680D01*
X193004263Y-70963680D02*
X192966167Y-71116061D01*
X192966167Y-71116061D02*
X192966167Y-71420823D01*
X192966167Y-71420823D02*
X193004263Y-71497013D01*
X193004263Y-71497013D02*
X193042358Y-71535109D01*
X193042358Y-71535109D02*
X193118548Y-71573204D01*
X193118548Y-71573204D02*
X193270929Y-71573204D01*
X193270929Y-71573204D02*
X193347120Y-71535109D01*
X193347120Y-71535109D02*
X193385215Y-71497013D01*
X193385215Y-71497013D02*
X193423310Y-71420823D01*
X193423310Y-71420823D02*
X193423310Y-71230347D01*
X193423310Y-71230347D02*
X193385215Y-71154156D01*
X193385215Y-71154156D02*
X193347120Y-71116061D01*
X193347120Y-71116061D02*
X193270929Y-71077966D01*
X193270929Y-71077966D02*
X193118548Y-71077966D01*
X193118548Y-71077966D02*
X193042358Y-71116061D01*
X193042358Y-71116061D02*
X193004263Y-71154156D01*
X193004263Y-71154156D02*
X192966167Y-71230347D01*
X191442358Y-74113204D02*
X191442358Y-73313204D01*
X191442358Y-73313204D02*
X191747120Y-73313204D01*
X191747120Y-73313204D02*
X191823310Y-73351299D01*
X191823310Y-73351299D02*
X191861405Y-73389394D01*
X191861405Y-73389394D02*
X191899501Y-73465585D01*
X191899501Y-73465585D02*
X191899501Y-73579870D01*
X191899501Y-73579870D02*
X191861405Y-73656061D01*
X191861405Y-73656061D02*
X191823310Y-73694156D01*
X191823310Y-73694156D02*
X191747120Y-73732251D01*
X191747120Y-73732251D02*
X191442358Y-73732251D01*
X192394739Y-73313204D02*
X192470929Y-73313204D01*
X192470929Y-73313204D02*
X192547120Y-73351299D01*
X192547120Y-73351299D02*
X192585215Y-73389394D01*
X192585215Y-73389394D02*
X192623310Y-73465585D01*
X192623310Y-73465585D02*
X192661405Y-73617966D01*
X192661405Y-73617966D02*
X192661405Y-73808442D01*
X192661405Y-73808442D02*
X192623310Y-73960823D01*
X192623310Y-73960823D02*
X192585215Y-74037013D01*
X192585215Y-74037013D02*
X192547120Y-74075109D01*
X192547120Y-74075109D02*
X192470929Y-74113204D01*
X192470929Y-74113204D02*
X192394739Y-74113204D01*
X192394739Y-74113204D02*
X192318548Y-74075109D01*
X192318548Y-74075109D02*
X192280453Y-74037013D01*
X192280453Y-74037013D02*
X192242358Y-73960823D01*
X192242358Y-73960823D02*
X192204262Y-73808442D01*
X192204262Y-73808442D02*
X192204262Y-73617966D01*
X192204262Y-73617966D02*
X192242358Y-73465585D01*
X192242358Y-73465585D02*
X192280453Y-73389394D01*
X192280453Y-73389394D02*
X192318548Y-73351299D01*
X192318548Y-73351299D02*
X192394739Y-73313204D01*
X192928072Y-73313204D02*
X193461406Y-73313204D01*
X193461406Y-73313204D02*
X193118548Y-74113204D01*
X181842358Y-76653204D02*
X181842358Y-75853204D01*
X181842358Y-75853204D02*
X182147120Y-75853204D01*
X182147120Y-75853204D02*
X182223310Y-75891299D01*
X182223310Y-75891299D02*
X182261405Y-75929394D01*
X182261405Y-75929394D02*
X182299501Y-76005585D01*
X182299501Y-76005585D02*
X182299501Y-76119870D01*
X182299501Y-76119870D02*
X182261405Y-76196061D01*
X182261405Y-76196061D02*
X182223310Y-76234156D01*
X182223310Y-76234156D02*
X182147120Y-76272251D01*
X182147120Y-76272251D02*
X181842358Y-76272251D01*
X183061405Y-76653204D02*
X182604262Y-76653204D01*
X182832834Y-76653204D02*
X182832834Y-75853204D01*
X182832834Y-75853204D02*
X182756643Y-75967489D01*
X182756643Y-75967489D02*
X182680453Y-76043680D01*
X182680453Y-76043680D02*
X182604262Y-76081775D01*
X183747120Y-75853204D02*
X183594739Y-75853204D01*
X183594739Y-75853204D02*
X183518548Y-75891299D01*
X183518548Y-75891299D02*
X183480453Y-75929394D01*
X183480453Y-75929394D02*
X183404263Y-76043680D01*
X183404263Y-76043680D02*
X183366167Y-76196061D01*
X183366167Y-76196061D02*
X183366167Y-76500823D01*
X183366167Y-76500823D02*
X183404263Y-76577013D01*
X183404263Y-76577013D02*
X183442358Y-76615109D01*
X183442358Y-76615109D02*
X183518548Y-76653204D01*
X183518548Y-76653204D02*
X183670929Y-76653204D01*
X183670929Y-76653204D02*
X183747120Y-76615109D01*
X183747120Y-76615109D02*
X183785215Y-76577013D01*
X183785215Y-76577013D02*
X183823310Y-76500823D01*
X183823310Y-76500823D02*
X183823310Y-76310347D01*
X183823310Y-76310347D02*
X183785215Y-76234156D01*
X183785215Y-76234156D02*
X183747120Y-76196061D01*
X183747120Y-76196061D02*
X183670929Y-76157966D01*
X183670929Y-76157966D02*
X183518548Y-76157966D01*
X183518548Y-76157966D02*
X183442358Y-76196061D01*
X183442358Y-76196061D02*
X183404263Y-76234156D01*
X183404263Y-76234156D02*
X183366167Y-76310347D01*
%TO.C,B1*%
X199041286Y-56695910D02*
X201541286Y-56695910D01*
X199041286Y-56695910D02*
X197541286Y-55195910D01*
X201541286Y-56695910D02*
X203041286Y-55195910D01*
X197541286Y-55195910D02*
X197541286Y-52695910D01*
X203041286Y-55195910D02*
X203041286Y-52695910D01*
X199041286Y-51195910D02*
X197541286Y-52695910D01*
X199041286Y-51195910D02*
X201541286Y-51195910D01*
X201541286Y-51195910D02*
X203041286Y-52695910D01*
%TO.C,JST1*%
X190563785Y-90413409D02*
X190563785Y-82813409D01*
X190563785Y-82813409D02*
X184663785Y-82813409D01*
X189863785Y-90413409D02*
X190563785Y-90413409D01*
X189863785Y-88813409D02*
X189863785Y-90413409D01*
X188863785Y-87313409D02*
X188363785Y-87313409D01*
X188613785Y-87563409D02*
X188613785Y-87063409D01*
X185363785Y-90413409D02*
X185363785Y-88813409D01*
X185363785Y-88813409D02*
X189863785Y-88813409D01*
X184663785Y-90413409D02*
X185363785Y-90413409D01*
X184663785Y-82813409D02*
X184663785Y-90413409D01*
D11*
%TO.C,D4*%
X106663787Y-97935909D02*
X107063787Y-97935909D01*
X107063787Y-97935909D02*
X107063787Y-97385909D01*
X107063787Y-97935909D02*
X107063787Y-98485909D01*
X107063787Y-97935909D02*
X107663787Y-97535909D01*
X107663787Y-97535909D02*
X107663787Y-98335909D01*
X107663787Y-97935909D02*
X108163787Y-97935909D01*
X107663787Y-98335909D02*
X107063787Y-97935909D01*
%TO.C,D6*%
X106663784Y-59835912D02*
X107063784Y-59835912D01*
X107063784Y-59835912D02*
X107063784Y-59285912D01*
X107063784Y-59835912D02*
X107063784Y-60385912D01*
X107063784Y-59835912D02*
X107663784Y-59435912D01*
X107663784Y-59435912D02*
X107663784Y-60235912D01*
X107663784Y-59835912D02*
X108163784Y-59835912D01*
X107663784Y-60235912D02*
X107063784Y-59835912D01*
%TO.C,D5*%
X106663783Y-78885908D02*
X107063783Y-78885908D01*
X107063783Y-78885908D02*
X107063783Y-78335908D01*
X107063783Y-78885908D02*
X107063783Y-79435908D01*
X107063783Y-78885908D02*
X107663783Y-78485908D01*
X107663783Y-78485908D02*
X107663783Y-79285908D01*
X107663783Y-78885908D02*
X108163783Y-78885908D01*
X107663783Y-79285908D02*
X107063783Y-78885908D01*
%TO.C,D15*%
X163813785Y-62335911D02*
X164213785Y-62335911D01*
X164213785Y-62335911D02*
X164213785Y-61785911D01*
X164213785Y-62335911D02*
X164213785Y-62885911D01*
X164213785Y-62335911D02*
X164813785Y-61935911D01*
X164813785Y-61935911D02*
X164813785Y-62735911D01*
X164813785Y-62335911D02*
X165313785Y-62335911D01*
X164813785Y-62735911D02*
X164213785Y-62335911D01*
D12*
%TO.C,ROT1*%
X179693785Y-95905912D02*
X180293785Y-95905912D01*
X179993785Y-96205912D02*
X179693785Y-95905912D01*
X180293785Y-95905912D02*
X179993785Y-96205912D01*
X181393785Y-94205912D02*
X181393785Y-105905912D01*
X185493785Y-94205912D02*
X181393785Y-94205912D01*
X185493785Y-105905912D02*
X181393785Y-105905912D01*
X186993785Y-100005912D02*
X187993785Y-100005912D01*
X187493785Y-99505912D02*
X187493785Y-100505912D01*
X189493785Y-94105912D02*
X193593785Y-94105912D01*
X193593785Y-94105912D02*
X193593785Y-96705912D01*
X193593785Y-98705912D02*
X193593785Y-101305912D01*
X193593785Y-103305912D02*
X193593785Y-105905912D01*
X193593785Y-105905912D02*
X189493785Y-105905912D01*
X190493785Y-100005912D02*
G75*
G03*
X184493785Y-100005912I-3000000J0D01*
G01*
X184493785Y-100005912D02*
G75*
G03*
X190493785Y-100005912I3000000J0D01*
G01*
D11*
%TO.C,D8*%
X125713784Y-76385911D02*
X126113784Y-76385911D01*
X126113784Y-76385911D02*
X126113784Y-75835911D01*
X126113784Y-76385911D02*
X126113784Y-76935911D01*
X126113784Y-76385911D02*
X126713784Y-75985911D01*
X126713784Y-75985911D02*
X126713784Y-76785911D01*
X126713784Y-76385911D02*
X127213784Y-76385911D01*
X126713784Y-76785911D02*
X126113784Y-76385911D01*
%TO.C,D9*%
X125713784Y-57335910D02*
X126113784Y-57335910D01*
X126113784Y-57335910D02*
X126113784Y-56785910D01*
X126113784Y-57335910D02*
X126113784Y-57885910D01*
X126113784Y-57335910D02*
X126713784Y-56935910D01*
X126713784Y-56935910D02*
X126713784Y-57735910D01*
X126713784Y-57335910D02*
X127213784Y-57335910D01*
X126713784Y-57735910D02*
X126113784Y-57335910D01*
%TO.C,D11*%
X144763784Y-78885910D02*
X145163784Y-78885910D01*
X145163784Y-78885910D02*
X145163784Y-78335910D01*
X145163784Y-78885910D02*
X145163784Y-79435910D01*
X145163784Y-78885910D02*
X145763784Y-78485910D01*
X145763784Y-78485910D02*
X145763784Y-79285910D01*
X145763784Y-78885910D02*
X146263784Y-78885910D01*
X145763784Y-79285910D02*
X145163784Y-78885910D01*
%TO.C,D1*%
X87613784Y-102935911D02*
X88013784Y-102935911D01*
X88013784Y-102935911D02*
X88013784Y-102385911D01*
X88013784Y-102935911D02*
X88013784Y-103485911D01*
X88013784Y-102935911D02*
X88613784Y-102535911D01*
X88613784Y-102535911D02*
X88613784Y-103335911D01*
X88613784Y-102935911D02*
X89113784Y-102935911D01*
X88613784Y-103335911D02*
X88013784Y-102935911D01*
%TO.C,D10*%
X144763785Y-97935908D02*
X145163785Y-97935908D01*
X145163785Y-97935908D02*
X145163785Y-97385908D01*
X145163785Y-97935908D02*
X145163785Y-98485908D01*
X145163785Y-97935908D02*
X145763785Y-97535908D01*
X145763785Y-97535908D02*
X145763785Y-98335908D01*
X145763785Y-97935908D02*
X146263785Y-97935908D01*
X145763785Y-98335908D02*
X145163785Y-97935908D01*
%TO.C,D14*%
X163813786Y-81385910D02*
X164213786Y-81385910D01*
X164213786Y-81385910D02*
X164213786Y-80835910D01*
X164213786Y-81385910D02*
X164213786Y-81935910D01*
X164213786Y-81385910D02*
X164813786Y-80985910D01*
X164813786Y-80985910D02*
X164813786Y-81785910D01*
X164813786Y-81385910D02*
X165313786Y-81385910D01*
X164813786Y-81785910D02*
X164213786Y-81385910D01*
%TO.C,D7*%
X125713785Y-95435911D02*
X126113785Y-95435911D01*
X126113785Y-95435911D02*
X126113785Y-94885911D01*
X126113785Y-95435911D02*
X126113785Y-95985911D01*
X126113785Y-95435911D02*
X126713785Y-95035911D01*
X126713785Y-95035911D02*
X126713785Y-95835911D01*
X126713785Y-95435911D02*
X127213785Y-95435911D01*
X126713785Y-95835911D02*
X126113785Y-95435911D01*
D10*
%TO.C,MCU1*%
X196503787Y-47080909D02*
X178723787Y-47080909D01*
X178723787Y-47080909D02*
X178723787Y-80100909D01*
X181263787Y-49620909D02*
X178723787Y-49620909D01*
X181263787Y-49620909D02*
X181263787Y-52160909D01*
X181263787Y-52160909D02*
X178723787Y-52160909D01*
X196503787Y-80100909D02*
X196503787Y-47080909D01*
X178723787Y-80100909D02*
X196503787Y-80100909D01*
D11*
%TO.C,D3*%
X87613786Y-64835909D02*
X88013786Y-64835909D01*
X88013786Y-64835909D02*
X88013786Y-64285909D01*
X88013786Y-64835909D02*
X88013786Y-65385909D01*
X88013786Y-64835909D02*
X88613786Y-64435909D01*
X88613786Y-64435909D02*
X88613786Y-65235909D01*
X88613786Y-64835909D02*
X89113786Y-64835909D01*
X88613786Y-65235909D02*
X88013786Y-64835909D01*
%TO.C,D16*%
X156545248Y-125121425D02*
X156931618Y-125224952D01*
X156931618Y-125224952D02*
X157073968Y-124693693D01*
X156931618Y-125224952D02*
X156789267Y-125756212D01*
X156931618Y-125224952D02*
X157614701Y-124993873D01*
X157614701Y-124993873D02*
X157407646Y-125766614D01*
X157511173Y-125380244D02*
X157994136Y-125509653D01*
X157407646Y-125766614D02*
X156931618Y-125224952D01*
%TO.C,D2*%
X87613785Y-83885911D02*
X88013785Y-83885911D01*
X88013785Y-83885911D02*
X88013785Y-83335911D01*
X88013785Y-83885911D02*
X88013785Y-84435911D01*
X88013785Y-83885911D02*
X88613785Y-83485911D01*
X88613785Y-83485911D02*
X88613785Y-84285911D01*
X88613785Y-83885911D02*
X89113785Y-83885911D01*
X88613785Y-84285911D02*
X88013785Y-83885911D01*
%TO.C,D13*%
X163813786Y-100435910D02*
X164213786Y-100435910D01*
X164213786Y-100435910D02*
X164213786Y-99885910D01*
X164213786Y-100435910D02*
X164213786Y-100985910D01*
X164213786Y-100435910D02*
X164813786Y-100035910D01*
X164813786Y-100035910D02*
X164813786Y-100835910D01*
X164813786Y-100435910D02*
X165313786Y-100435910D01*
X164813786Y-100835910D02*
X164213786Y-100435910D01*
%TO.C,D18*%
X198913787Y-140460352D02*
X198630944Y-140743195D01*
X198630944Y-140743195D02*
X199019853Y-141132103D01*
X198630944Y-140743195D02*
X198242036Y-140354286D01*
X198630944Y-140743195D02*
X198489523Y-141450301D01*
X198489523Y-141450301D02*
X197923838Y-140884616D01*
X198206680Y-141167459D02*
X197853127Y-141521012D01*
X197923838Y-140884616D02*
X198630944Y-140743195D01*
%TO.C,D17*%
X180826310Y-125630345D02*
X180569195Y-125936762D01*
X180569195Y-125936762D02*
X180990519Y-126290296D01*
X180569195Y-125936762D02*
X180147870Y-125583229D01*
X180569195Y-125936762D02*
X180489940Y-126653504D01*
X180489940Y-126653504D02*
X179877104Y-126139274D01*
X180183522Y-126396389D02*
X179862128Y-126779411D01*
X179877104Y-126139274D02*
X180569195Y-125936762D01*
%TO.C,D12*%
X144763787Y-59835909D02*
X145163787Y-59835909D01*
X145163787Y-59835909D02*
X145163787Y-59285909D01*
X145163787Y-59835909D02*
X145163787Y-60385909D01*
X145163787Y-59835909D02*
X145763787Y-59435909D01*
X145763787Y-59435909D02*
X145763787Y-60235909D01*
X145763787Y-59835909D02*
X146263787Y-59835909D01*
X145763787Y-60235909D02*
X145163787Y-59835909D01*
%TD*%
D13*
%TO.C,MCU1*%
X179993787Y-50890909D03*
D14*
X179993787Y-53430909D03*
X179993787Y-55970909D03*
X179993787Y-58510909D03*
X179993787Y-61050909D03*
X179993787Y-63590909D03*
X179993787Y-66130909D03*
X179993787Y-68670909D03*
X179993787Y-71210909D03*
X179993787Y-73750909D03*
X179993787Y-76290909D03*
X179993787Y-78830909D03*
X195233787Y-50890909D03*
X195233787Y-53430909D03*
X195233787Y-55970909D03*
X195233787Y-58510909D03*
X195233787Y-61050909D03*
X195233787Y-63590909D03*
X195233787Y-66130909D03*
X195233787Y-68670909D03*
X195233787Y-71210909D03*
X195233787Y-73750909D03*
X195233787Y-76290909D03*
X195233787Y-78830909D03*
%TD*%
M02*
