%TF.GenerationSoftware,KiCad,Pcbnew,7.0.10*%
%TF.CreationDate,2024-02-19T14:18:00+02:00*%
%TF.ProjectId,juubo_left_final,6a757562-6f5f-46c6-9566-745f66696e61,v1.0.0*%
%TF.SameCoordinates,Original*%
%TF.FileFunction,Legend,Bot*%
%TF.FilePolarity,Positive*%
%FSLAX46Y46*%
G04 Gerber Fmt 4.6, Leading zero omitted, Abs format (unit mm)*
G04 Created by KiCad (PCBNEW 7.0.10) date 2024-02-19 14:18:00*
%MOMM*%
%LPD*%
G01*
G04 APERTURE LIST*
%ADD10C,0.150000*%
%ADD11C,0.100000*%
%ADD12R,1.752600X1.752600*%
%ADD13C,1.752600*%
G04 APERTURE END LIST*
D10*
%TO.C,T1*%
X184313786Y-47062500D02*
X184313786Y-49912500D01*
X184313786Y-49912500D02*
X190913786Y-49912500D01*
X187613786Y-47062500D02*
X184313786Y-47062500D01*
X187613786Y-47062500D02*
X190913786Y-47062500D01*
X189563786Y-47062500D02*
X185663786Y-47062500D01*
X190913786Y-49912500D02*
X190913786Y-47062500D01*
D11*
%TO.C,D4*%
X106663787Y-97935909D02*
X107063787Y-97935909D01*
X107063787Y-97935909D02*
X107063787Y-97385909D01*
X107063787Y-97935909D02*
X107063787Y-98485909D01*
X107063787Y-97935909D02*
X107663787Y-97535909D01*
X107663787Y-97535909D02*
X107663787Y-98335909D01*
X107663787Y-97935909D02*
X108163787Y-97935909D01*
X107663787Y-98335909D02*
X107063787Y-97935909D01*
%TO.C,D6*%
X106663784Y-59835912D02*
X107063784Y-59835912D01*
X107063784Y-59835912D02*
X107063784Y-59285912D01*
X107063784Y-59835912D02*
X107063784Y-60385912D01*
X107063784Y-59835912D02*
X107663784Y-59435912D01*
X107663784Y-59435912D02*
X107663784Y-60235912D01*
X107663784Y-59835912D02*
X108163784Y-59835912D01*
X107663784Y-60235912D02*
X107063784Y-59835912D01*
%TO.C,D5*%
X106663783Y-78885908D02*
X107063783Y-78885908D01*
X107063783Y-78885908D02*
X107063783Y-78335908D01*
X107063783Y-78885908D02*
X107063783Y-79435908D01*
X107063783Y-78885908D02*
X107663783Y-78485908D01*
X107663783Y-78485908D02*
X107663783Y-79285908D01*
X107663783Y-78885908D02*
X108163783Y-78885908D01*
X107663783Y-79285908D02*
X107063783Y-78885908D01*
%TO.C,D15*%
X163813785Y-62335911D02*
X164213785Y-62335911D01*
X164213785Y-62335911D02*
X164213785Y-61785911D01*
X164213785Y-62335911D02*
X164213785Y-62885911D01*
X164213785Y-62335911D02*
X164813785Y-61935911D01*
X164813785Y-61935911D02*
X164813785Y-62735911D01*
X164813785Y-62335911D02*
X165313785Y-62335911D01*
X164813785Y-62735911D02*
X164213785Y-62335911D01*
%TO.C,D8*%
X125713784Y-76385911D02*
X126113784Y-76385911D01*
X126113784Y-76385911D02*
X126113784Y-75835911D01*
X126113784Y-76385911D02*
X126113784Y-76935911D01*
X126113784Y-76385911D02*
X126713784Y-75985911D01*
X126713784Y-75985911D02*
X126713784Y-76785911D01*
X126713784Y-76385911D02*
X127213784Y-76385911D01*
X126713784Y-76785911D02*
X126113784Y-76385911D01*
%TO.C,D9*%
X125713784Y-57335910D02*
X126113784Y-57335910D01*
X126113784Y-57335910D02*
X126113784Y-56785910D01*
X126113784Y-57335910D02*
X126113784Y-57885910D01*
X126113784Y-57335910D02*
X126713784Y-56935910D01*
X126713784Y-56935910D02*
X126713784Y-57735910D01*
X126713784Y-57335910D02*
X127213784Y-57335910D01*
X126713784Y-57735910D02*
X126113784Y-57335910D01*
%TO.C,D11*%
X144763784Y-78885910D02*
X145163784Y-78885910D01*
X145163784Y-78885910D02*
X145163784Y-78335910D01*
X145163784Y-78885910D02*
X145163784Y-79435910D01*
X145163784Y-78885910D02*
X145763784Y-78485910D01*
X145763784Y-78485910D02*
X145763784Y-79285910D01*
X145763784Y-78885910D02*
X146263784Y-78885910D01*
X145763784Y-79285910D02*
X145163784Y-78885910D01*
%TO.C,D1*%
X87613784Y-102935911D02*
X88013784Y-102935911D01*
X88013784Y-102935911D02*
X88013784Y-102385911D01*
X88013784Y-102935911D02*
X88013784Y-103485911D01*
X88013784Y-102935911D02*
X88613784Y-102535911D01*
X88613784Y-102535911D02*
X88613784Y-103335911D01*
X88613784Y-102935911D02*
X89113784Y-102935911D01*
X88613784Y-103335911D02*
X88013784Y-102935911D01*
%TO.C,D10*%
X144763785Y-97935908D02*
X145163785Y-97935908D01*
X145163785Y-97935908D02*
X145163785Y-97385908D01*
X145163785Y-97935908D02*
X145163785Y-98485908D01*
X145163785Y-97935908D02*
X145763785Y-97535908D01*
X145763785Y-97535908D02*
X145763785Y-98335908D01*
X145763785Y-97935908D02*
X146263785Y-97935908D01*
X145763785Y-98335908D02*
X145163785Y-97935908D01*
%TO.C,D14*%
X163813786Y-81385910D02*
X164213786Y-81385910D01*
X164213786Y-81385910D02*
X164213786Y-80835910D01*
X164213786Y-81385910D02*
X164213786Y-81935910D01*
X164213786Y-81385910D02*
X164813786Y-80985910D01*
X164813786Y-80985910D02*
X164813786Y-81785910D01*
X164813786Y-81385910D02*
X165313786Y-81385910D01*
X164813786Y-81785910D02*
X164213786Y-81385910D01*
%TO.C,D7*%
X125713785Y-95435911D02*
X126113785Y-95435911D01*
X126113785Y-95435911D02*
X126113785Y-94885911D01*
X126113785Y-95435911D02*
X126113785Y-95985911D01*
X126113785Y-95435911D02*
X126713785Y-95035911D01*
X126713785Y-95035911D02*
X126713785Y-95835911D01*
X126713785Y-95435911D02*
X127213785Y-95435911D01*
X126713785Y-95835911D02*
X126113785Y-95435911D01*
%TO.C,D3*%
X87613786Y-64835909D02*
X88013786Y-64835909D01*
X88013786Y-64835909D02*
X88013786Y-64285909D01*
X88013786Y-64835909D02*
X88013786Y-65385909D01*
X88013786Y-64835909D02*
X88613786Y-64435909D01*
X88613786Y-64435909D02*
X88613786Y-65235909D01*
X88613786Y-64835909D02*
X89113786Y-64835909D01*
X88613786Y-65235909D02*
X88013786Y-64835909D01*
%TO.C,D16*%
X156545248Y-125121425D02*
X156931618Y-125224952D01*
X156931618Y-125224952D02*
X157073968Y-124693693D01*
X156931618Y-125224952D02*
X156789267Y-125756212D01*
X156931618Y-125224952D02*
X157614701Y-124993873D01*
X157614701Y-124993873D02*
X157407646Y-125766614D01*
X157511173Y-125380244D02*
X157994136Y-125509653D01*
X157407646Y-125766614D02*
X156931618Y-125224952D01*
%TO.C,D2*%
X87613785Y-83885911D02*
X88013785Y-83885911D01*
X88013785Y-83885911D02*
X88013785Y-83335911D01*
X88013785Y-83885911D02*
X88013785Y-84435911D01*
X88013785Y-83885911D02*
X88613785Y-83485911D01*
X88613785Y-83485911D02*
X88613785Y-84285911D01*
X88613785Y-83885911D02*
X89113785Y-83885911D01*
X88613785Y-84285911D02*
X88013785Y-83885911D01*
%TO.C,D13*%
X163813786Y-100435910D02*
X164213786Y-100435910D01*
X164213786Y-100435910D02*
X164213786Y-99885910D01*
X164213786Y-100435910D02*
X164213786Y-100985910D01*
X164213786Y-100435910D02*
X164813786Y-100035910D01*
X164813786Y-100035910D02*
X164813786Y-100835910D01*
X164813786Y-100435910D02*
X165313786Y-100435910D01*
X164813786Y-100835910D02*
X164213786Y-100435910D01*
%TO.C,D18*%
X198913787Y-140460352D02*
X198630944Y-140743195D01*
X198630944Y-140743195D02*
X199019853Y-141132103D01*
X198630944Y-140743195D02*
X198242036Y-140354286D01*
X198630944Y-140743195D02*
X198489523Y-141450301D01*
X198489523Y-141450301D02*
X197923838Y-140884616D01*
X198206680Y-141167459D02*
X197853127Y-141521012D01*
X197923838Y-140884616D02*
X198630944Y-140743195D01*
%TO.C,D17*%
X180826310Y-125630345D02*
X180569195Y-125936762D01*
X180569195Y-125936762D02*
X180990519Y-126290296D01*
X180569195Y-125936762D02*
X180147870Y-125583229D01*
X180569195Y-125936762D02*
X180489940Y-126653504D01*
X180489940Y-126653504D02*
X179877104Y-126139274D01*
X180183522Y-126396389D02*
X179862128Y-126779411D01*
X179877104Y-126139274D02*
X180569195Y-125936762D01*
%TO.C,D12*%
X144763787Y-59835909D02*
X145163787Y-59835909D01*
X145163787Y-59835909D02*
X145163787Y-59285909D01*
X145163787Y-59835909D02*
X145163787Y-60385909D01*
X145163787Y-59835909D02*
X145763787Y-59435909D01*
X145763787Y-59435909D02*
X145763787Y-60235909D01*
X145763787Y-59835909D02*
X146263787Y-59835909D01*
X145763787Y-60235909D02*
X145163787Y-59835909D01*
%TD*%
D12*
%TO.C,MCU1*%
X179993787Y-50890909D03*
D13*
X179993787Y-53430909D03*
X179993787Y-55970909D03*
X179993787Y-58510909D03*
X179993787Y-61050909D03*
X179993787Y-63590909D03*
X179993787Y-66130909D03*
X179993787Y-68670909D03*
X179993787Y-71210909D03*
X179993787Y-73750909D03*
X179993787Y-76290909D03*
X179993787Y-78830909D03*
X195233787Y-50890909D03*
X195233787Y-53430909D03*
X195233787Y-55970909D03*
X195233787Y-58510909D03*
X195233787Y-61050909D03*
X195233787Y-63590909D03*
X195233787Y-66130909D03*
X195233787Y-68670909D03*
X195233787Y-71210909D03*
X195233787Y-73750909D03*
X195233787Y-76290909D03*
X195233787Y-78830909D03*
%TD*%
M02*
