%TF.GenerationSoftware,KiCad,Pcbnew,7.0.10*%
%TF.CreationDate,2024-02-19T14:18:00+02:00*%
%TF.ProjectId,juubo_left_final,6a757562-6f5f-46c6-9566-745f66696e61,v1.0.0*%
%TF.SameCoordinates,Original*%
%TF.FileFunction,Soldermask,Bot*%
%TF.FilePolarity,Negative*%
%FSLAX46Y46*%
G04 Gerber Fmt 4.6, Leading zero omitted, Abs format (unit mm)*
G04 Created by KiCad (PCBNEW 7.0.10) date 2024-02-19 14:18:00*
%MOMM*%
%LPD*%
G01*
G04 APERTURE LIST*
G04 Aperture macros list*
%AMRoundRect*
0 Rectangle with rounded corners*
0 $1 Rounding radius*
0 $2 $3 $4 $5 $6 $7 $8 $9 X,Y pos of 4 corners*
0 Add a 4 corners polygon primitive as box body*
4,1,4,$2,$3,$4,$5,$6,$7,$8,$9,$2,$3,0*
0 Add four circle primitives for the rounded corners*
1,1,$1+$1,$2,$3*
1,1,$1+$1,$4,$5*
1,1,$1+$1,$6,$7*
1,1,$1+$1,$8,$9*
0 Add four rect primitives between the rounded corners*
20,1,$1+$1,$2,$3,$4,$5,0*
20,1,$1+$1,$4,$5,$6,$7,0*
20,1,$1+$1,$6,$7,$8,$9,0*
20,1,$1+$1,$8,$9,$2,$3,0*%
G04 Aperture macros list end*
%ADD10RoundRect,0.050000X-0.450000X-0.450000X0.450000X-0.450000X0.450000X0.450000X-0.450000X0.450000X0*%
%ADD11C,1.100000*%
%ADD12RoundRect,0.050000X-0.450000X-0.625000X0.450000X-0.625000X0.450000X0.625000X-0.450000X0.625000X0*%
%ADD13RoundRect,0.050000X0.600000X0.850000X-0.600000X0.850000X-0.600000X-0.850000X0.600000X-0.850000X0*%
%ADD14O,1.300000X1.800000*%
%ADD15RoundRect,0.050000X-0.889000X-0.889000X0.889000X-0.889000X0.889000X0.889000X-0.889000X0.889000X0*%
%ADD16RoundRect,0.050000X-0.450000X-0.600000X0.450000X-0.600000X0.450000X0.600000X-0.450000X0.600000X0*%
%ADD17C,2.005000*%
%ADD18C,1.801800*%
%ADD19C,3.100000*%
%ADD20C,4.087800*%
%ADD21RoundRect,0.050000X-1.275000X-1.250000X1.275000X-1.250000X1.275000X1.250000X-1.275000X1.250000X0*%
%ADD22C,1.600000*%
%ADD23O,2.300000X1.700000*%
%ADD24C,0.800000*%
%ADD25C,4.500000*%
%ADD26RoundRect,0.050000X-1.600000X-1.000000X1.600000X-1.000000X1.600000X1.000000X-1.600000X1.000000X0*%
%ADD27RoundRect,0.050000X-1.000000X-1.000000X1.000000X-1.000000X1.000000X1.000000X-1.000000X1.000000X0*%
%ADD28C,2.100000*%
%ADD29RoundRect,0.050000X-1.555079X-0.877413X0.908032X-1.537402X1.555079X0.877413X-0.908032X1.537402X0*%
%ADD30RoundRect,0.050000X-0.876300X0.876300X-0.876300X-0.876300X0.876300X-0.876300X0.876300X0.876300X0*%
%ADD31C,1.852600*%
%ADD32RoundRect,0.050000X-0.138001X1.780191X-1.777110X-0.173222X0.138001X-1.780191X1.777110X0.173222X0*%
%ADD33RoundRect,0.050000X-1.088798X-0.628618X0.628618X-1.088798X1.088798X0.628618X-0.628618X1.088798X0*%
%ADD34RoundRect,0.050000X-0.589958X-0.463087X0.279375X-0.696024X0.589958X0.463087X-0.279375X0.696024X0*%
%ADD35RoundRect,0.050000X0.017678X1.785445X-1.785445X-0.017678X-0.017678X-1.785445X1.785445X0.017678X0*%
%ADD36RoundRect,0.050000X0.000000X1.257236X-1.257236X0.000000X0.000000X-1.257236X1.257236X0.000000X0*%
%ADD37RoundRect,0.050000X-0.106066X0.742462X-0.742462X0.106066X0.106066X-0.742462X0.742462X-0.106066X0*%
%ADD38RoundRect,0.050000X-0.109575X1.252452X-1.252452X-0.109575X0.109575X-1.252452X1.252452X0.109575X0*%
%ADD39RoundRect,0.050000X-0.170372X0.730393X-0.748881X0.040953X0.170372X-0.730393X0.748881X-0.040953X0*%
%ADD40RoundRect,0.102000X-0.250000X0.237500X-0.250000X-0.237500X0.250000X-0.237500X0.250000X0.237500X0*%
G04 APERTURE END LIST*
D10*
%TO.C,T1*%
X183913786Y-47312500D03*
X183913786Y-49512500D03*
D11*
X186113786Y-48412500D03*
X189113786Y-48412500D03*
D10*
X191313786Y-47312500D03*
X191313786Y-49512500D03*
D12*
X185363786Y-50487500D03*
X188363786Y-50487500D03*
X189863786Y-50487500D03*
%TD*%
D13*
%TO.C,JST1*%
X188613785Y-89063409D03*
D14*
X186613785Y-89063409D03*
%TD*%
D15*
%TO.C,D4*%
X103603787Y-97935909D03*
D16*
X105763787Y-97935909D03*
X109063787Y-97935909D03*
D17*
X111223787Y-97935909D03*
%TD*%
D18*
%TO.C,S9*%
X121383783Y-52335909D03*
D19*
X122653783Y-49795909D03*
D20*
X126463783Y-52335909D03*
D19*
X129003783Y-47255909D03*
D18*
X131543783Y-52335909D03*
D21*
X119378783Y-49795909D03*
X132305783Y-47255909D03*
%TD*%
D15*
%TO.C,D6*%
X103603784Y-59835912D03*
D16*
X105763784Y-59835912D03*
X109063784Y-59835912D03*
D17*
X111223784Y-59835912D03*
%TD*%
D22*
%TO.C,TRRS1*%
X202148785Y-87373409D03*
X195148785Y-87373409D03*
D23*
X192448785Y-85073409D03*
X193548785Y-89673409D03*
X197548785Y-89673409D03*
X200548785Y-89673409D03*
%TD*%
D15*
%TO.C,D5*%
X103603783Y-78885908D03*
D16*
X105763783Y-78885908D03*
X109063783Y-78885908D03*
D17*
X111223783Y-78885908D03*
%TD*%
D18*
%TO.C,S1*%
X83283786Y-97935909D03*
D19*
X84553786Y-95395909D03*
D20*
X88363786Y-97935909D03*
D19*
X90903786Y-92855909D03*
D18*
X93443786Y-97935909D03*
D21*
X81278786Y-95395909D03*
X94205786Y-92855909D03*
%TD*%
D18*
%TO.C,S6*%
X102333785Y-54835910D03*
D19*
X103603785Y-52295910D03*
D20*
X107413785Y-54835910D03*
D19*
X109953785Y-49755910D03*
D18*
X112493785Y-54835910D03*
D21*
X100328785Y-52295910D03*
X113255785Y-49755910D03*
%TD*%
D15*
%TO.C,D15*%
X160753785Y-62335911D03*
D16*
X162913785Y-62335911D03*
X166213785Y-62335911D03*
D17*
X168373785Y-62335911D03*
%TD*%
D18*
%TO.C,S7*%
X121383784Y-90435911D03*
D19*
X122653784Y-87895911D03*
D20*
X126463784Y-90435911D03*
D19*
X129003784Y-85355911D03*
D18*
X131543784Y-90435911D03*
D21*
X119378784Y-87895911D03*
X132305784Y-85355911D03*
%TD*%
D18*
%TO.C,S10*%
X140433785Y-92935910D03*
D19*
X141703785Y-90395910D03*
D20*
X145513785Y-92935910D03*
D19*
X148053785Y-87855910D03*
D18*
X150593785Y-92935910D03*
D21*
X138428785Y-90395910D03*
X151355785Y-87855910D03*
%TD*%
D24*
%TO.C,_2*%
X153388789Y-60550910D03*
X153872063Y-59384184D03*
X153872063Y-61717636D03*
X155038789Y-58900910D03*
D25*
X155038789Y-60550910D03*
D24*
X155038789Y-62200910D03*
X156205515Y-59384184D03*
X156205515Y-61717636D03*
X156688789Y-60550910D03*
%TD*%
D26*
%TO.C,ROT1*%
X187493785Y-94405912D03*
X187493785Y-105605912D03*
D22*
X194493785Y-97505912D03*
X194493785Y-102505912D03*
D27*
X179993785Y-97505912D03*
D28*
X179993785Y-102505912D03*
X179993785Y-100005912D03*
%TD*%
D15*
%TO.C,D8*%
X122653784Y-76385911D03*
D16*
X124813784Y-76385911D03*
X128113784Y-76385911D03*
D17*
X130273784Y-76385911D03*
%TD*%
D15*
%TO.C,D9*%
X122653784Y-57335910D03*
D16*
X124813784Y-57335910D03*
X128113784Y-57335910D03*
D17*
X130273784Y-57335910D03*
%TD*%
D15*
%TO.C,D11*%
X141703784Y-78885910D03*
D16*
X143863784Y-78885910D03*
X147163784Y-78885910D03*
D17*
X149323784Y-78885910D03*
%TD*%
D18*
%TO.C,S16*%
X153656883Y-119171111D03*
D19*
X155541009Y-117046360D03*
D20*
X158563786Y-120485912D03*
D19*
X162332038Y-116236409D03*
D18*
X163470689Y-121800713D03*
D29*
X152377602Y-116198727D03*
X165521525Y-117091030D03*
%TD*%
D15*
%TO.C,D1*%
X84553784Y-102935911D03*
D16*
X86713784Y-102935911D03*
X90013784Y-102935911D03*
D17*
X92173784Y-102935911D03*
%TD*%
D15*
%TO.C,D10*%
X141703785Y-97935908D03*
D16*
X143863785Y-97935908D03*
X147163785Y-97935908D03*
D17*
X149323785Y-97935908D03*
%TD*%
D15*
%TO.C,D14*%
X160753786Y-81385910D03*
D16*
X162913786Y-81385910D03*
X166213786Y-81385910D03*
D17*
X168373786Y-81385910D03*
%TD*%
D24*
%TO.C,_6*%
X153388784Y-83400000D03*
X153872058Y-82233274D03*
X153872058Y-84566726D03*
X155038784Y-81750000D03*
D25*
X155038784Y-83400000D03*
D24*
X155038784Y-85050000D03*
X156205510Y-82233274D03*
X156205510Y-84566726D03*
X156688784Y-83400000D03*
%TD*%
D15*
%TO.C,D7*%
X122653785Y-95435911D03*
D16*
X124813785Y-95435911D03*
X128113785Y-95435911D03*
D17*
X130273785Y-95435911D03*
%TD*%
D30*
%TO.C,MCU1*%
X179993787Y-50890909D03*
D31*
X179993787Y-53430909D03*
X179993787Y-55970909D03*
X179993787Y-58510909D03*
X179993787Y-61050909D03*
X179993787Y-63590909D03*
X179993787Y-66130909D03*
X179993787Y-68670909D03*
X179993787Y-71210909D03*
X179993787Y-73750909D03*
X179993787Y-76290909D03*
X179993787Y-78830909D03*
X195233787Y-50890909D03*
X195233787Y-53430909D03*
X195233787Y-55970909D03*
X195233787Y-58510909D03*
X195233787Y-61050909D03*
X195233787Y-63590909D03*
X195233787Y-66130909D03*
X195233787Y-68670909D03*
X195233787Y-71210909D03*
X195233787Y-73750909D03*
X195233787Y-76290909D03*
X195233787Y-78830909D03*
%TD*%
D18*
%TO.C,S12*%
X140433787Y-54835911D03*
D19*
X141703787Y-52295911D03*
D20*
X145513787Y-54835911D03*
D19*
X148053787Y-49755911D03*
D18*
X150593787Y-54835911D03*
D21*
X138428787Y-52295911D03*
X151355787Y-49755911D03*
%TD*%
D18*
%TO.C,S3*%
X83283785Y-59835911D03*
D19*
X84553785Y-57295911D03*
D20*
X88363785Y-59835911D03*
D19*
X90903785Y-54755911D03*
D18*
X93443785Y-59835911D03*
D21*
X81278785Y-57295911D03*
X94205785Y-54755911D03*
%TD*%
D18*
%TO.C,S11*%
X140433785Y-73885909D03*
D19*
X141703785Y-71345909D03*
D20*
X145513785Y-73885909D03*
D19*
X148053785Y-68805909D03*
D18*
X150593785Y-73885909D03*
D21*
X138428785Y-71345909D03*
X151355785Y-68805909D03*
%TD*%
D24*
%TO.C,_3*%
X96238786Y-84600000D03*
X96722060Y-83433274D03*
X96722060Y-85766726D03*
X97888786Y-82950000D03*
D25*
X97888786Y-84600000D03*
D24*
X97888786Y-86250000D03*
X99055512Y-83433274D03*
X99055512Y-85766726D03*
X99538786Y-84600000D03*
%TD*%
D18*
%TO.C,S17*%
X187439800Y-125527313D03*
D19*
X188569213Y-128132870D03*
D20*
X184174439Y-129418819D03*
D19*
X186433264Y-134629933D03*
D18*
X180909078Y-133310325D03*
D32*
X190674342Y-125624075D03*
X184310780Y-137159412D03*
%TD*%
D24*
%TO.C,_5*%
X196500000Y-136666548D03*
X196983274Y-137833274D03*
X195333274Y-136183274D03*
X196500000Y-139000000D03*
D25*
X195333274Y-137833274D03*
D24*
X194166548Y-136666548D03*
X195333274Y-139483274D03*
X193683274Y-137833274D03*
X194166548Y-139000000D03*
%TD*%
D15*
%TO.C,D3*%
X84553786Y-64835909D03*
D16*
X86713786Y-64835909D03*
X90013786Y-64835909D03*
D17*
X92173786Y-64835909D03*
%TD*%
D33*
%TO.C,D16*%
X153589515Y-124329438D03*
D34*
X155675914Y-124888488D03*
X158863470Y-125742590D03*
D17*
X160949869Y-126301640D03*
%TD*%
D15*
%TO.C,D2*%
X84553785Y-83885911D03*
D16*
X86713785Y-83885911D03*
X90013785Y-83885911D03*
D17*
X92173785Y-83885911D03*
%TD*%
D18*
%TO.C,S18*%
X205511091Y-140934111D03*
D19*
X206409117Y-143628187D03*
D20*
X201918989Y-144526213D03*
D19*
X203715040Y-149914367D03*
D18*
X198326887Y-148118315D03*
D35*
X208724892Y-141312413D03*
X201380174Y-152249233D03*
%TD*%
D24*
%TO.C,_4*%
X170906222Y-118072949D03*
X171675000Y-117071058D03*
X171071058Y-119325000D03*
X172927051Y-116906222D03*
D25*
X172500000Y-118500000D03*
D24*
X172072949Y-120093778D03*
X173928942Y-117675000D03*
X173325000Y-119928942D03*
X174093778Y-118927051D03*
%TD*%
D15*
%TO.C,D13*%
X160753786Y-100435910D03*
D16*
X162913786Y-100435910D03*
X166213786Y-100435910D03*
D17*
X168373786Y-100435910D03*
%TD*%
D18*
%TO.C,S4*%
X102333786Y-92935912D03*
D19*
X103603786Y-90395912D03*
D20*
X107413786Y-92935912D03*
D19*
X109953786Y-87855912D03*
D18*
X112493786Y-92935912D03*
D21*
X100328786Y-90395912D03*
X113255786Y-87855912D03*
%TD*%
D24*
%TO.C,_1*%
X96238787Y-65550910D03*
X96722061Y-64384184D03*
X96722061Y-66717636D03*
X97888787Y-63900910D03*
D25*
X97888787Y-65550910D03*
D24*
X97888787Y-67200910D03*
X99055513Y-64384184D03*
X99055513Y-66717636D03*
X99538787Y-65550910D03*
%TD*%
D18*
%TO.C,S2*%
X83283785Y-78885908D03*
D19*
X84553785Y-76345908D03*
D20*
X88363785Y-78885908D03*
D19*
X90903785Y-73805908D03*
D18*
X93443785Y-78885908D03*
D21*
X81278785Y-76345908D03*
X94205785Y-73805908D03*
%TD*%
D18*
%TO.C,S15*%
X159483785Y-57335911D03*
D19*
X160753785Y-54795911D03*
D20*
X164563785Y-57335911D03*
D19*
X167103785Y-52255911D03*
D18*
X169643785Y-57335911D03*
D21*
X157478785Y-54795911D03*
X170405785Y-52255911D03*
%TD*%
D18*
%TO.C,S8*%
X121383787Y-71385911D03*
D19*
X122653787Y-68845911D03*
D20*
X126463787Y-71385911D03*
D19*
X129003787Y-66305911D03*
D18*
X131543787Y-71385911D03*
D21*
X119378787Y-68845911D03*
X132305787Y-66305911D03*
%TD*%
D36*
%TO.C,D18*%
X201077534Y-138296605D03*
D37*
X199550183Y-139823956D03*
X197216731Y-142157408D03*
D17*
X195689380Y-143684759D03*
%TD*%
D18*
%TO.C,S14*%
X159483783Y-76385911D03*
D19*
X160753783Y-73845911D03*
D20*
X164563783Y-76385911D03*
D19*
X167103783Y-71305911D03*
D18*
X169643783Y-76385911D03*
D21*
X157478783Y-73845911D03*
X170405783Y-71305911D03*
%TD*%
D38*
%TO.C,D17*%
X182793240Y-123286249D03*
D39*
X181404819Y-124940905D03*
X179283619Y-127468851D03*
D17*
X177895198Y-129123507D03*
%TD*%
D18*
%TO.C,S5*%
X102333784Y-73885910D03*
D19*
X103603784Y-71345910D03*
D20*
X107413784Y-73885910D03*
D19*
X109953784Y-68805910D03*
D18*
X112493784Y-73885910D03*
D21*
X100328784Y-71345910D03*
X113255784Y-68805910D03*
%TD*%
D18*
%TO.C,S13*%
X159483786Y-95435911D03*
D19*
X160753786Y-92895911D03*
D20*
X164563786Y-95435911D03*
D19*
X167103786Y-90355911D03*
D18*
X169643786Y-95435911D03*
D21*
X157478786Y-92895911D03*
X170405786Y-90355911D03*
%TD*%
D15*
%TO.C,D12*%
X141703787Y-59835909D03*
D16*
X143863787Y-59835909D03*
X147163787Y-59835909D03*
D17*
X149323787Y-59835909D03*
%TD*%
D40*
%TO.C,DISP1*%
X197901286Y-81873911D03*
X197901286Y-82897911D03*
%TD*%
%TO.C,DISP2*%
X195996287Y-81873909D03*
X195996287Y-82897909D03*
%TD*%
M02*
