%TF.GenerationSoftware,KiCad,Pcbnew,7.0.10*%
%TF.CreationDate,2024-02-19T14:18:00+02:00*%
%TF.ProjectId,juubo_left_final,6a757562-6f5f-46c6-9566-745f66696e61,v1.0.0*%
%TF.SameCoordinates,Original*%
%TF.FileFunction,Copper,L1,Top*%
%TF.FilePolarity,Positive*%
%FSLAX46Y46*%
G04 Gerber Fmt 4.6, Leading zero omitted, Abs format (unit mm)*
G04 Created by KiCad (PCBNEW 7.0.10) date 2024-02-19 14:18:00*
%MOMM*%
%LPD*%
G01*
G04 APERTURE LIST*
G04 Aperture macros list*
%AMRotRect*
0 Rectangle, with rotation*
0 The origin of the aperture is its center*
0 $1 length*
0 $2 width*
0 $3 Rotation angle, in degrees counterclockwise*
0 Add horizontal line*
21,1,$1,$2,0,0,$3*%
G04 Aperture macros list end*
%TA.AperFunction,WasherPad*%
%ADD10C,1.000000*%
%TD*%
%TA.AperFunction,SMDPad,CuDef*%
%ADD11R,1.100000X1.800000*%
%TD*%
%TA.AperFunction,ComponentPad*%
%ADD12R,1.200000X1.700000*%
%TD*%
%TA.AperFunction,ComponentPad*%
%ADD13O,1.200000X1.700000*%
%TD*%
%TA.AperFunction,ComponentPad*%
%ADD14R,1.778000X1.778000*%
%TD*%
%TA.AperFunction,SMDPad,CuDef*%
%ADD15R,0.900000X1.200000*%
%TD*%
%TA.AperFunction,ComponentPad*%
%ADD16C,1.905000*%
%TD*%
%TA.AperFunction,ComponentPad*%
%ADD17O,2.200000X1.600000*%
%TD*%
%TA.AperFunction,ComponentPad*%
%ADD18C,0.700000*%
%TD*%
%TA.AperFunction,ComponentPad*%
%ADD19C,4.400000*%
%TD*%
%TA.AperFunction,ComponentPad*%
%ADD20R,3.200000X2.000000*%
%TD*%
%TA.AperFunction,ComponentPad*%
%ADD21C,1.500000*%
%TD*%
%TA.AperFunction,ComponentPad*%
%ADD22R,2.000000X2.000000*%
%TD*%
%TA.AperFunction,ComponentPad*%
%ADD23C,2.000000*%
%TD*%
%TA.AperFunction,ComponentPad*%
%ADD24R,1.752600X1.752600*%
%TD*%
%TA.AperFunction,ComponentPad*%
%ADD25C,1.752600*%
%TD*%
%TA.AperFunction,ComponentPad*%
%ADD26RotRect,1.778000X1.778000X345.000000*%
%TD*%
%TA.AperFunction,SMDPad,CuDef*%
%ADD27RotRect,0.900000X1.200000X345.000000*%
%TD*%
%TA.AperFunction,ComponentPad*%
%ADD28RotRect,1.778000X1.778000X225.000000*%
%TD*%
%TA.AperFunction,SMDPad,CuDef*%
%ADD29RotRect,0.900000X1.200000X225.000000*%
%TD*%
%TA.AperFunction,ComponentPad*%
%ADD30RotRect,1.778000X1.778000X230.000000*%
%TD*%
%TA.AperFunction,SMDPad,CuDef*%
%ADD31RotRect,0.900000X1.200000X230.000000*%
%TD*%
%TA.AperFunction,ViaPad*%
%ADD32C,0.800000*%
%TD*%
%TA.AperFunction,Conductor*%
%ADD33C,0.250000*%
%TD*%
G04 APERTURE END LIST*
D10*
%TO.P,T1,*%
%TO.N,*%
X186113786Y-48412500D03*
X189113786Y-48412500D03*
%TD*%
D11*
%TO.P,B1,1*%
%TO.N,GND*%
X198441286Y-57045910D03*
X198441286Y-50845910D03*
%TO.P,B1,2*%
%TO.N,RST*%
X202141286Y-57045910D03*
X202141286Y-50845910D03*
%TD*%
D12*
%TO.P,JST1,1*%
%TO.N,B+*%
X188613785Y-89063409D03*
D13*
%TO.P,JST1,2*%
%TO.N,GND*%
X186613785Y-89063409D03*
%TD*%
D14*
%TO.P,D4,1*%
%TO.N,P10*%
X103603787Y-97935909D03*
D15*
X105763787Y-97935909D03*
%TO.P,D4,2*%
%TO.N,ring_bottom*%
X109063787Y-97935909D03*
D16*
X111223787Y-97935909D03*
%TD*%
D14*
%TO.P,D6,1*%
%TO.N,P14*%
X103603784Y-59835912D03*
D15*
X105763784Y-59835912D03*
%TO.P,D6,2*%
%TO.N,ring_top*%
X109063784Y-59835912D03*
D16*
X111223784Y-59835912D03*
%TD*%
D17*
%TO.P,TRRS1,1*%
%TO.N,VCC*%
X192448785Y-85073409D03*
%TO.P,TRRS1,2*%
%TO.N,P3*%
X193548785Y-89673409D03*
%TO.P,TRRS1,3*%
%TO.N,P2*%
X197548785Y-89673409D03*
%TO.P,TRRS1,4*%
%TO.N,GND*%
X200548785Y-89673409D03*
%TD*%
D14*
%TO.P,D5,1*%
%TO.N,P16*%
X103603783Y-78885908D03*
D15*
X105763783Y-78885908D03*
%TO.P,D5,2*%
%TO.N,ring_home*%
X109063783Y-78885908D03*
D16*
X111223783Y-78885908D03*
%TD*%
D14*
%TO.P,D15,1*%
%TO.N,P14*%
X160753785Y-62335911D03*
D15*
X162913785Y-62335911D03*
%TO.P,D15,2*%
%TO.N,inner_top*%
X166213785Y-62335911D03*
D16*
X168373785Y-62335911D03*
%TD*%
D18*
%TO.P,_2,1*%
%TO.N,N/C*%
X153388789Y-60550910D03*
X153872063Y-59384184D03*
X153872063Y-61717636D03*
X155038789Y-58900910D03*
D19*
X155038789Y-60550910D03*
D18*
X155038789Y-62200910D03*
X156205515Y-59384184D03*
X156205515Y-61717636D03*
X156688789Y-60550910D03*
%TD*%
D20*
%TO.P,ROT1,*%
%TO.N,*%
X187493785Y-94405912D03*
X187493785Y-105605912D03*
D21*
%TO.P,ROT1,1*%
%TO.N,P9*%
X194493785Y-97505912D03*
%TO.P,ROT1,2*%
%TO.N,GND*%
X194493785Y-102505912D03*
D22*
%TO.P,ROT1,A*%
%TO.N,P7*%
X179993785Y-97505912D03*
D23*
%TO.P,ROT1,B*%
%TO.N,P8*%
X179993785Y-102505912D03*
%TO.P,ROT1,C*%
%TO.N,GND*%
X179993785Y-100005912D03*
%TD*%
D14*
%TO.P,D8,1*%
%TO.N,P16*%
X122653784Y-76385911D03*
D15*
X124813784Y-76385911D03*
%TO.P,D8,2*%
%TO.N,middle_home*%
X128113784Y-76385911D03*
D16*
X130273784Y-76385911D03*
%TD*%
D14*
%TO.P,D9,1*%
%TO.N,P14*%
X122653784Y-57335910D03*
D15*
X124813784Y-57335910D03*
%TO.P,D9,2*%
%TO.N,middle_top*%
X128113784Y-57335910D03*
D16*
X130273784Y-57335910D03*
%TD*%
D14*
%TO.P,D11,1*%
%TO.N,P16*%
X141703784Y-78885910D03*
D15*
X143863784Y-78885910D03*
%TO.P,D11,2*%
%TO.N,index_home*%
X147163784Y-78885910D03*
D16*
X149323784Y-78885910D03*
%TD*%
D14*
%TO.P,D1,1*%
%TO.N,P10*%
X84553784Y-102935911D03*
D15*
X86713784Y-102935911D03*
%TO.P,D1,2*%
%TO.N,pinky_bottom*%
X90013784Y-102935911D03*
D16*
X92173784Y-102935911D03*
%TD*%
D14*
%TO.P,D10,1*%
%TO.N,P10*%
X141703785Y-97935908D03*
D15*
X143863785Y-97935908D03*
%TO.P,D10,2*%
%TO.N,index_bottom*%
X147163785Y-97935908D03*
D16*
X149323785Y-97935908D03*
%TD*%
D14*
%TO.P,D14,1*%
%TO.N,P16*%
X160753786Y-81385910D03*
D15*
X162913786Y-81385910D03*
%TO.P,D14,2*%
%TO.N,inner_home*%
X166213786Y-81385910D03*
D16*
X168373786Y-81385910D03*
%TD*%
D18*
%TO.P,_6,1*%
%TO.N,N/C*%
X153388784Y-83400000D03*
X153872058Y-82233274D03*
X153872058Y-84566726D03*
X155038784Y-81750000D03*
D19*
X155038784Y-83400000D03*
D18*
X155038784Y-85050000D03*
X156205510Y-82233274D03*
X156205510Y-84566726D03*
X156688784Y-83400000D03*
%TD*%
D14*
%TO.P,D7,1*%
%TO.N,P10*%
X122653785Y-95435911D03*
D15*
X124813785Y-95435911D03*
%TO.P,D7,2*%
%TO.N,middle_bottom*%
X128113785Y-95435911D03*
D16*
X130273785Y-95435911D03*
%TD*%
D24*
%TO.P,MCU1,1*%
%TO.N,RAW*%
X179993787Y-50890909D03*
D25*
%TO.P,MCU1,2*%
%TO.N,GND*%
X179993787Y-53430909D03*
%TO.P,MCU1,3*%
%TO.N,RST*%
X179993787Y-55970909D03*
%TO.P,MCU1,4*%
%TO.N,VCC*%
X179993787Y-58510909D03*
%TO.P,MCU1,5*%
%TO.N,P21*%
X179993787Y-61050909D03*
%TO.P,MCU1,6*%
%TO.N,P20*%
X179993787Y-63590909D03*
%TO.P,MCU1,7*%
%TO.N,P19*%
X179993787Y-66130909D03*
%TO.P,MCU1,8*%
%TO.N,P18*%
X179993787Y-68670909D03*
%TO.P,MCU1,9*%
%TO.N,P15*%
X179993787Y-71210909D03*
%TO.P,MCU1,10*%
%TO.N,P14*%
X179993787Y-73750909D03*
%TO.P,MCU1,11*%
%TO.N,P16*%
X179993787Y-76290909D03*
%TO.P,MCU1,12*%
%TO.N,P10*%
X179993787Y-78830909D03*
%TO.P,MCU1,13*%
%TO.N,VCC*%
X195233787Y-50890909D03*
%TO.P,MCU1,14*%
%TO.N,P0*%
X195233787Y-53430909D03*
%TO.P,MCU1,15*%
%TO.N,GND*%
X195233787Y-55970909D03*
%TO.P,MCU1,16*%
X195233787Y-58510909D03*
%TO.P,MCU1,17*%
%TO.N,P2*%
X195233787Y-61050909D03*
%TO.P,MCU1,18*%
%TO.N,P3*%
X195233787Y-63590909D03*
%TO.P,MCU1,19*%
%TO.N,P4*%
X195233787Y-66130909D03*
%TO.P,MCU1,20*%
%TO.N,P5*%
X195233787Y-68670909D03*
%TO.P,MCU1,21*%
%TO.N,P6*%
X195233787Y-71210909D03*
%TO.P,MCU1,22*%
%TO.N,P7*%
X195233787Y-73750909D03*
%TO.P,MCU1,23*%
%TO.N,P8*%
X195233787Y-76290909D03*
%TO.P,MCU1,24*%
%TO.N,P9*%
X195233787Y-78830909D03*
%TD*%
D18*
%TO.P,_3,1*%
%TO.N,N/C*%
X96238786Y-84600000D03*
X96722060Y-83433274D03*
X96722060Y-85766726D03*
X97888786Y-82950000D03*
D19*
X97888786Y-84600000D03*
D18*
X97888786Y-86250000D03*
X99055512Y-83433274D03*
X99055512Y-85766726D03*
X99538786Y-84600000D03*
%TD*%
%TO.P,_5,1*%
%TO.N,N/C*%
X196500000Y-136666548D03*
X196983274Y-137833274D03*
X195333274Y-136183274D03*
X196500000Y-139000000D03*
D19*
X195333274Y-137833274D03*
D18*
X194166548Y-136666548D03*
X195333274Y-139483274D03*
X193683274Y-137833274D03*
X194166548Y-139000000D03*
%TD*%
D14*
%TO.P,D3,1*%
%TO.N,P14*%
X84553786Y-64835909D03*
D15*
X86713786Y-64835909D03*
%TO.P,D3,2*%
%TO.N,pinky_top*%
X90013786Y-64835909D03*
D16*
X92173786Y-64835909D03*
%TD*%
D26*
%TO.P,D16,1*%
%TO.N,P6*%
X153589515Y-124329438D03*
D27*
X155675914Y-124888488D03*
%TO.P,D16,2*%
%TO.N,layer_cluster*%
X158863470Y-125742590D03*
D16*
X160949869Y-126301640D03*
%TD*%
D14*
%TO.P,D2,1*%
%TO.N,P16*%
X84553785Y-83885911D03*
D15*
X86713785Y-83885911D03*
%TO.P,D2,2*%
%TO.N,pinky_home*%
X90013785Y-83885911D03*
D16*
X92173785Y-83885911D03*
%TD*%
D18*
%TO.P,_4,1*%
%TO.N,N/C*%
X170906222Y-118072949D03*
X171675000Y-117071058D03*
X171071058Y-119325000D03*
X172927051Y-116906222D03*
D19*
X172500000Y-118500000D03*
D18*
X172072949Y-120093778D03*
X173928942Y-117675000D03*
X173325000Y-119928942D03*
X174093778Y-118927051D03*
%TD*%
D14*
%TO.P,D13,1*%
%TO.N,P10*%
X160753786Y-100435910D03*
D15*
X162913786Y-100435910D03*
%TO.P,D13,2*%
%TO.N,inner_bottom*%
X166213786Y-100435910D03*
D16*
X168373786Y-100435910D03*
%TD*%
D18*
%TO.P,_1,1*%
%TO.N,N/C*%
X96238787Y-65550910D03*
X96722061Y-64384184D03*
X96722061Y-66717636D03*
X97888787Y-63900910D03*
D19*
X97888787Y-65550910D03*
D18*
X97888787Y-67200910D03*
X99055513Y-64384184D03*
X99055513Y-66717636D03*
X99538787Y-65550910D03*
%TD*%
D28*
%TO.P,D18,1*%
%TO.N,P6*%
X201077534Y-138296605D03*
D29*
X199550183Y-139823956D03*
%TO.P,D18,2*%
%TO.N,extra_cluster*%
X197216731Y-142157408D03*
D16*
X195689380Y-143684759D03*
%TD*%
D30*
%TO.P,D17,1*%
%TO.N,P6*%
X182793240Y-123286249D03*
D31*
X181404819Y-124940905D03*
%TO.P,D17,2*%
%TO.N,space_cluster*%
X179283619Y-127468851D03*
D16*
X177895198Y-129123507D03*
%TD*%
D14*
%TO.P,D12,1*%
%TO.N,P14*%
X141703787Y-59835909D03*
D15*
X143863787Y-59835909D03*
%TO.P,D12,2*%
%TO.N,index_top*%
X147163787Y-59835909D03*
D16*
X149323787Y-59835909D03*
%TD*%
D32*
%TO.N,VCC*%
X185800000Y-82200000D03*
X189400000Y-82200000D03*
%TD*%
D33*
%TO.N,P9*%
X191023785Y-94035912D02*
X191023785Y-83040911D01*
X194493785Y-97505912D02*
X191023785Y-94035912D01*
X191023785Y-83040911D02*
X195233787Y-78830909D01*
%TO.N,GND*%
X198441286Y-57045910D02*
X196308788Y-57045910D01*
X198441286Y-57045910D02*
X198441286Y-50845910D01*
X196308788Y-57045910D02*
X195233787Y-55970909D01*
%TO.N,P7*%
X179993785Y-97505912D02*
X179993785Y-86980910D01*
X184800000Y-82174695D02*
X184800000Y-79800000D01*
X190849091Y-73750909D02*
X195233787Y-73750909D01*
X179993785Y-86980910D02*
X184800000Y-82174695D01*
X184800000Y-79800000D02*
X190849091Y-73750909D01*
%TO.N,P8*%
X179993785Y-102505912D02*
X185000000Y-97499697D01*
X194032487Y-77492209D02*
X195233787Y-76290909D01*
X194032487Y-79167513D02*
X194032487Y-77492209D01*
X185000000Y-97499697D02*
X185000000Y-88200000D01*
X185000000Y-88200000D02*
X194032487Y-79167513D01*
%TO.N,pinky_bottom*%
X90013783Y-102935910D02*
X92173783Y-102935911D01*
%TO.N,pinky_home*%
X92173785Y-83885908D02*
X90013785Y-83885908D01*
%TO.N,pinky_top*%
X90013784Y-64835913D02*
X92173786Y-64835909D01*
%TO.N,ring_bottom*%
X111223787Y-97935910D02*
X109063785Y-97935910D01*
%TO.N,ring_home*%
X109063783Y-78885910D02*
X111223784Y-78885908D01*
%TO.N,ring_top*%
X111223787Y-59835909D02*
X109063786Y-59835908D01*
%TO.N,middle_bottom*%
X128113785Y-95435911D02*
X130273787Y-95435911D01*
%TO.N,middle_home*%
X130273785Y-76385910D02*
X128113784Y-76385908D01*
%TO.N,middle_top*%
X128113785Y-57335910D02*
X130273785Y-57335911D01*
%TO.N,index_bottom*%
X149323783Y-97935911D02*
X147163785Y-97935910D01*
%TO.N,index_home*%
X147163786Y-78885912D02*
X149323785Y-78885907D01*
%TO.N,index_top*%
X149323785Y-59835910D02*
X147163785Y-59835909D01*
%TO.N,inner_bottom*%
X166213786Y-100435911D02*
X168373787Y-100435911D01*
%TO.N,inner_home*%
X168373783Y-81385909D02*
X166213787Y-81385910D01*
%TO.N,inner_top*%
X166213786Y-62335911D02*
X168373784Y-62335910D01*
%TO.N,layer_cluster*%
X160949869Y-126301640D02*
X159104758Y-125630075D01*
X159104758Y-125630075D02*
X158863468Y-125742590D01*
%TO.N,space_cluster*%
X178771249Y-127606140D02*
X179283619Y-127468853D01*
X177895197Y-129123508D02*
X178771249Y-127606140D01*
%TO.N,extra_cluster*%
X195689380Y-143684760D02*
X197216731Y-142157409D01*
%TO.N,P10*%
X84553783Y-102935909D02*
X86713786Y-102935908D01*
X173830909Y-78830909D02*
X179993787Y-78830909D01*
X160753786Y-100435910D02*
X158257886Y-97940010D01*
X158257886Y-92740161D02*
X168198047Y-82800000D01*
X141703785Y-97935911D02*
X144943785Y-101175911D01*
X105763787Y-97935909D02*
X103603785Y-97935911D01*
X173800000Y-78800000D02*
X173830909Y-78830909D01*
X122653785Y-95435911D02*
X125153786Y-97935910D01*
X104881287Y-99213409D02*
X113491142Y-99213410D01*
X98968642Y-97935909D02*
X103603786Y-97935910D01*
X122653786Y-95435908D02*
X124813786Y-95435911D01*
X143863785Y-97935912D02*
X141703785Y-97935910D01*
X144943785Y-101175911D02*
X160013784Y-101175910D01*
X160013784Y-101175910D02*
X160753786Y-100435910D01*
X160753786Y-100435909D02*
X162913785Y-100435908D01*
X168198047Y-82800000D02*
X169800000Y-82800000D01*
X169800000Y-82800000D02*
X173800000Y-78800000D01*
X125153786Y-97935910D02*
X141703785Y-97935911D01*
X103603786Y-97935910D02*
X104881287Y-99213409D01*
X158257886Y-97940010D02*
X158257886Y-92740161D01*
X113491142Y-99213410D02*
X117268641Y-95435911D01*
X93972231Y-104532320D02*
X93972232Y-102932319D01*
X86150193Y-104532319D02*
X93972231Y-104532320D01*
X117268641Y-95435911D02*
X122653785Y-95435911D01*
X84553784Y-102935911D02*
X86150193Y-104532319D01*
X93972232Y-102932319D02*
X98968642Y-97935909D01*
%TO.N,P16*%
X103603785Y-78885910D02*
X105763783Y-78885912D01*
X171200000Y-77800000D02*
X172800000Y-76200000D01*
X157985910Y-81385910D02*
X160753786Y-81385910D01*
X84553785Y-83885911D02*
X86267874Y-85600000D01*
X172800000Y-76200000D02*
X172890909Y-76290909D01*
X98565377Y-78885908D02*
X103603783Y-78885908D01*
X141703786Y-78885911D02*
X143863785Y-78885908D01*
X113541142Y-80163410D02*
X117318641Y-76385911D01*
X86713784Y-83885909D02*
X84553785Y-83885909D01*
X86267874Y-85600000D02*
X93400000Y-85600000D01*
X104881283Y-80163410D02*
X113541142Y-80163410D01*
X93400000Y-85600000D02*
X93451285Y-85548715D01*
X172890909Y-76290909D02*
X179993787Y-76290909D01*
X124813784Y-76385911D02*
X122653786Y-76385910D01*
X122653784Y-76385910D02*
X125153784Y-78885910D01*
X162913784Y-81385910D02*
X160753786Y-81385909D01*
X125153784Y-78885910D02*
X141703785Y-78885911D01*
X103603783Y-78885910D02*
X104881283Y-80163410D01*
X168099696Y-77800000D02*
X171200000Y-77800000D01*
X93451285Y-84000000D02*
X98565377Y-78885908D01*
X164513786Y-81385910D02*
X168099696Y-77800000D01*
X143017874Y-80200000D02*
X156800000Y-80200000D01*
X141703784Y-78885910D02*
X143017874Y-80200000D01*
X93451285Y-85548715D02*
X93451285Y-84000000D01*
X156800000Y-80200000D02*
X157985910Y-81385910D01*
X160753786Y-81385910D02*
X164513786Y-81385910D01*
X117318641Y-76385911D02*
X122653784Y-76385910D01*
%TO.N,P14*%
X122653788Y-57335911D02*
X124813787Y-57335909D01*
X84553785Y-64835910D02*
X86713786Y-64835908D01*
X122653785Y-57335910D02*
X125153784Y-59835909D01*
X93451285Y-66653265D02*
X93451287Y-65053265D01*
X160753783Y-62335911D02*
X162913787Y-62335910D01*
X98668640Y-59835912D02*
X103603784Y-59835912D01*
X160753785Y-62335911D02*
X161892785Y-62335911D01*
X143863785Y-59835911D02*
X141703787Y-59835908D01*
X103603784Y-59835912D02*
X105100192Y-61332319D01*
X117968642Y-57335909D02*
X122653785Y-57335910D01*
X93372232Y-66732320D02*
X93451285Y-66653265D01*
X113972233Y-61332320D02*
X117968642Y-57335909D01*
X125153784Y-59835909D02*
X141703786Y-59835909D01*
X84553786Y-64835908D02*
X86450197Y-66732319D01*
X159757375Y-63332320D02*
X160753784Y-62335911D01*
X105763786Y-59835910D02*
X103603785Y-59835911D01*
X93451287Y-65053265D02*
X98668640Y-59835912D01*
X86450197Y-66732319D02*
X93372232Y-66732320D01*
X105100192Y-61332319D02*
X113972233Y-61332320D01*
X141703786Y-59835909D02*
X145200197Y-63332320D01*
X173307783Y-73750909D02*
X179993787Y-73750909D01*
X145200197Y-63332320D02*
X159757375Y-63332320D01*
X161892785Y-62335911D02*
X173307783Y-73750909D01*
%TO.N,P6*%
X179217524Y-124354821D02*
X181404818Y-124940903D01*
X155675914Y-124888487D02*
X158491324Y-123263011D01*
X155675914Y-124888486D02*
X153830805Y-124216921D01*
X178668785Y-119161794D02*
X178668785Y-85294819D01*
X178668785Y-85294819D02*
X192752695Y-71210909D01*
X182793240Y-123286249D02*
X178668785Y-119161794D01*
X190848424Y-124752069D02*
X199550183Y-139823957D01*
X158491324Y-123263011D02*
X173939207Y-127402259D01*
X192752695Y-71210909D02*
X195233787Y-71210909D01*
X181404818Y-124940904D02*
X182280869Y-123423537D01*
X199550183Y-139823957D02*
X201077533Y-138296606D01*
X182793240Y-123286248D02*
X183612546Y-122813221D01*
X183612546Y-122813221D02*
X190848424Y-124752069D01*
X173939207Y-127402259D02*
X179217524Y-124354821D01*
X153830805Y-124216921D02*
X153589513Y-124329439D01*
X182280869Y-123423537D02*
X182793240Y-123286251D01*
%TO.N,RST*%
X202141286Y-50845910D02*
X199044757Y-47749381D01*
X194650619Y-47749381D02*
X186429091Y-55970909D01*
X186429091Y-55970909D02*
X179993787Y-55970909D01*
X199044757Y-47749381D02*
X194650619Y-47749381D01*
X202141286Y-57045910D02*
X202141286Y-50845910D01*
%TO.N,VCC*%
X189400000Y-82200000D02*
X185800000Y-82200000D01*
X195233787Y-50890909D02*
X187613787Y-58510909D01*
X187613787Y-58510909D02*
X179993787Y-58510909D01*
%TO.N,P2*%
X197901286Y-89320908D02*
X197548785Y-89673409D01*
%TO.N,P3*%
X193800000Y-89422194D02*
X193548785Y-89673409D01*
%TD*%
M02*
