%TF.GenerationSoftware,KiCad,Pcbnew,7.0.10*%
%TF.CreationDate,2024-02-19T14:18:00+02:00*%
%TF.ProjectId,juubo_left_final,6a757562-6f5f-46c6-9566-745f66696e61,v1.0.0*%
%TF.SameCoordinates,Original*%
%TF.FileFunction,Paste,Bot*%
%TF.FilePolarity,Positive*%
%FSLAX46Y46*%
G04 Gerber Fmt 4.6, Leading zero omitted, Abs format (unit mm)*
G04 Created by KiCad (PCBNEW 7.0.10) date 2024-02-19 14:18:00*
%MOMM*%
%LPD*%
G01*
G04 APERTURE LIST*
G04 Aperture macros list*
%AMRotRect*
0 Rectangle, with rotation*
0 The origin of the aperture is its center*
0 $1 length*
0 $2 width*
0 $3 Rotation angle, in degrees counterclockwise*
0 Add horizontal line*
21,1,$1,$2,0,0,$3*%
G04 Aperture macros list end*
%ADD10R,0.900000X0.900000*%
%ADD11R,0.900000X1.250000*%
%ADD12R,0.900000X1.200000*%
%ADD13R,2.550000X2.500000*%
%ADD14RotRect,2.550000X2.500000X345.000000*%
%ADD15RotRect,2.550000X2.500000X230.000000*%
%ADD16RotRect,0.900000X1.200000X345.000000*%
%ADD17RotRect,2.550000X2.500000X225.000000*%
%ADD18RotRect,0.900000X1.200000X225.000000*%
%ADD19RotRect,0.900000X1.200000X230.000000*%
%ADD20R,0.500000X0.475000*%
G04 APERTURE END LIST*
D10*
%TO.C,T1*%
X183913786Y-47312500D03*
X183913786Y-49512500D03*
X191313786Y-47312500D03*
X191313786Y-49512500D03*
D11*
X185363786Y-50487500D03*
X188363786Y-50487500D03*
X189863786Y-50487500D03*
%TD*%
D12*
%TO.C,D4*%
X105763787Y-97935909D03*
X109063787Y-97935909D03*
%TD*%
D13*
%TO.C,S9*%
X119378783Y-49795909D03*
X132305783Y-47255909D03*
%TD*%
D12*
%TO.C,D6*%
X105763784Y-59835912D03*
X109063784Y-59835912D03*
%TD*%
%TO.C,D5*%
X105763783Y-78885908D03*
X109063783Y-78885908D03*
%TD*%
D13*
%TO.C,S1*%
X81278786Y-95395909D03*
X94205786Y-92855909D03*
%TD*%
%TO.C,S6*%
X100328785Y-52295910D03*
X113255785Y-49755910D03*
%TD*%
D12*
%TO.C,D15*%
X162913785Y-62335911D03*
X166213785Y-62335911D03*
%TD*%
D13*
%TO.C,S7*%
X119378784Y-87895911D03*
X132305784Y-85355911D03*
%TD*%
%TO.C,S10*%
X138428785Y-90395910D03*
X151355785Y-87855910D03*
%TD*%
D12*
%TO.C,D8*%
X124813784Y-76385911D03*
X128113784Y-76385911D03*
%TD*%
%TO.C,D9*%
X124813784Y-57335910D03*
X128113784Y-57335910D03*
%TD*%
%TO.C,D11*%
X143863784Y-78885910D03*
X147163784Y-78885910D03*
%TD*%
D14*
%TO.C,S16*%
X152377602Y-116198727D03*
X165521525Y-117091030D03*
%TD*%
D12*
%TO.C,D1*%
X86713784Y-102935911D03*
X90013784Y-102935911D03*
%TD*%
%TO.C,D10*%
X143863785Y-97935908D03*
X147163785Y-97935908D03*
%TD*%
%TO.C,D14*%
X162913786Y-81385910D03*
X166213786Y-81385910D03*
%TD*%
%TO.C,D7*%
X124813785Y-95435911D03*
X128113785Y-95435911D03*
%TD*%
D13*
%TO.C,S12*%
X138428787Y-52295911D03*
X151355787Y-49755911D03*
%TD*%
%TO.C,S3*%
X81278785Y-57295911D03*
X94205785Y-54755911D03*
%TD*%
%TO.C,S11*%
X138428785Y-71345909D03*
X151355785Y-68805909D03*
%TD*%
D15*
%TO.C,S17*%
X190674342Y-125624075D03*
X184310780Y-137159412D03*
%TD*%
D12*
%TO.C,D3*%
X86713786Y-64835909D03*
X90013786Y-64835909D03*
%TD*%
D16*
%TO.C,D16*%
X155675914Y-124888488D03*
X158863470Y-125742590D03*
%TD*%
D12*
%TO.C,D2*%
X86713785Y-83885911D03*
X90013785Y-83885911D03*
%TD*%
D17*
%TO.C,S18*%
X208724892Y-141312413D03*
X201380174Y-152249233D03*
%TD*%
D12*
%TO.C,D13*%
X162913786Y-100435910D03*
X166213786Y-100435910D03*
%TD*%
D13*
%TO.C,S4*%
X100328786Y-90395912D03*
X113255786Y-87855912D03*
%TD*%
%TO.C,S2*%
X81278785Y-76345908D03*
X94205785Y-73805908D03*
%TD*%
%TO.C,S15*%
X157478785Y-54795911D03*
X170405785Y-52255911D03*
%TD*%
%TO.C,S8*%
X119378787Y-68845911D03*
X132305787Y-66305911D03*
%TD*%
D18*
%TO.C,D18*%
X199550183Y-139823956D03*
X197216731Y-142157408D03*
%TD*%
D13*
%TO.C,S14*%
X157478783Y-73845911D03*
X170405783Y-71305911D03*
%TD*%
D19*
%TO.C,D17*%
X181404819Y-124940905D03*
X179283619Y-127468851D03*
%TD*%
D13*
%TO.C,S5*%
X100328784Y-71345910D03*
X113255784Y-68805910D03*
%TD*%
%TO.C,S13*%
X157478786Y-92895911D03*
X170405786Y-90355911D03*
%TD*%
D12*
%TO.C,D12*%
X143863787Y-59835909D03*
X147163787Y-59835909D03*
%TD*%
D20*
%TO.C,DISP1*%
X197901286Y-81873911D03*
X197901286Y-82897911D03*
%TD*%
%TO.C,DISP2*%
X195996287Y-81873909D03*
X195996287Y-82897909D03*
%TD*%
M02*
