%TF.GenerationSoftware,KiCad,Pcbnew,7.0.10*%
%TF.CreationDate,2024-02-19T14:18:00+02:00*%
%TF.ProjectId,juubo_left_final,6a757562-6f5f-46c6-9566-745f66696e61,v1.0.0*%
%TF.SameCoordinates,Original*%
%TF.FileFunction,Paste,Top*%
%TF.FilePolarity,Positive*%
%FSLAX46Y46*%
G04 Gerber Fmt 4.6, Leading zero omitted, Abs format (unit mm)*
G04 Created by KiCad (PCBNEW 7.0.10) date 2024-02-19 14:18:00*
%MOMM*%
%LPD*%
G01*
G04 APERTURE LIST*
G04 Aperture macros list*
%AMRotRect*
0 Rectangle, with rotation*
0 The origin of the aperture is its center*
0 $1 length*
0 $2 width*
0 $3 Rotation angle, in degrees counterclockwise*
0 Add horizontal line*
21,1,$1,$2,0,0,$3*%
G04 Aperture macros list end*
%ADD10R,1.100000X1.800000*%
%ADD11R,0.900000X1.200000*%
%ADD12RotRect,0.900000X1.200000X345.000000*%
%ADD13RotRect,0.900000X1.200000X225.000000*%
%ADD14RotRect,0.900000X1.200000X230.000000*%
G04 APERTURE END LIST*
D10*
%TO.C,B1*%
X198441286Y-57045910D03*
X198441286Y-50845910D03*
X202141286Y-57045910D03*
X202141286Y-50845910D03*
%TD*%
D11*
%TO.C,D4*%
X105763787Y-97935909D03*
X109063787Y-97935909D03*
%TD*%
%TO.C,D6*%
X105763784Y-59835912D03*
X109063784Y-59835912D03*
%TD*%
%TO.C,D5*%
X105763783Y-78885908D03*
X109063783Y-78885908D03*
%TD*%
%TO.C,D15*%
X162913785Y-62335911D03*
X166213785Y-62335911D03*
%TD*%
%TO.C,D8*%
X124813784Y-76385911D03*
X128113784Y-76385911D03*
%TD*%
%TO.C,D9*%
X124813784Y-57335910D03*
X128113784Y-57335910D03*
%TD*%
%TO.C,D11*%
X143863784Y-78885910D03*
X147163784Y-78885910D03*
%TD*%
%TO.C,D1*%
X86713784Y-102935911D03*
X90013784Y-102935911D03*
%TD*%
%TO.C,D10*%
X143863785Y-97935908D03*
X147163785Y-97935908D03*
%TD*%
%TO.C,D14*%
X162913786Y-81385910D03*
X166213786Y-81385910D03*
%TD*%
%TO.C,D7*%
X124813785Y-95435911D03*
X128113785Y-95435911D03*
%TD*%
%TO.C,D3*%
X86713786Y-64835909D03*
X90013786Y-64835909D03*
%TD*%
D12*
%TO.C,D16*%
X155675914Y-124888488D03*
X158863470Y-125742590D03*
%TD*%
D11*
%TO.C,D2*%
X86713785Y-83885911D03*
X90013785Y-83885911D03*
%TD*%
%TO.C,D13*%
X162913786Y-100435910D03*
X166213786Y-100435910D03*
%TD*%
D13*
%TO.C,D18*%
X199550183Y-139823956D03*
X197216731Y-142157408D03*
%TD*%
D14*
%TO.C,D17*%
X181404819Y-124940905D03*
X179283619Y-127468851D03*
%TD*%
D11*
%TO.C,D12*%
X143863787Y-59835909D03*
X147163787Y-59835909D03*
%TD*%
M02*
